G04 #@! TF.FileFunction,Legend,Top*
%FSLAX46Y46*%
G04 Gerber Fmt 4.6, Leading zero omitted, Abs format (unit mm)*
G04 Created by KiCad (PCBNEW 4.0.1-stable) date Thursday, April 14, 2016 'AMt' 11:50:35 AM*
%MOMM*%
G01*
G04 APERTURE LIST*
%ADD10C,0.100000*%
%ADD11C,0.600000*%
%ADD12C,0.200000*%
%ADD13C,0.300000*%
%ADD14C,0.150000*%
%ADD15C,0.010000*%
G04 APERTURE END LIST*
D10*
D11*
X152500000Y-106500000D02*
X151500000Y-108500000D01*
X152500000Y-109500000D02*
X151500000Y-107500000D01*
X152500000Y-109500000D02*
X151000000Y-108000000D01*
X151000000Y-108000000D02*
X152500000Y-106500000D01*
X155500000Y-108000000D02*
X151000000Y-108000000D01*
D12*
X150506226Y-101206225D02*
G75*
G03X150506226Y-101206225I-806226J0D01*
G01*
X141424264Y-99500000D02*
G75*
G03X141424264Y-99500000I-424264J0D01*
G01*
D13*
X141200001Y-119153571D02*
X142128572Y-119153571D01*
X141628572Y-119725000D01*
X141842858Y-119725000D01*
X141985715Y-119796429D01*
X142057144Y-119867857D01*
X142128572Y-120010714D01*
X142128572Y-120367857D01*
X142057144Y-120510714D01*
X141985715Y-120582143D01*
X141842858Y-120653571D01*
X141414286Y-120653571D01*
X141271429Y-120582143D01*
X141200001Y-120510714D01*
X139210715Y-119653571D02*
X139210715Y-120653571D01*
X138853572Y-119082143D02*
X138496429Y-120153571D01*
X139425001Y-120153571D01*
D12*
X135185715Y-124400000D02*
X135071429Y-124342857D01*
X134900000Y-124342857D01*
X134728572Y-124400000D01*
X134614286Y-124514286D01*
X134557143Y-124628571D01*
X134500000Y-124857143D01*
X134500000Y-125028571D01*
X134557143Y-125257143D01*
X134614286Y-125371429D01*
X134728572Y-125485714D01*
X134900000Y-125542857D01*
X135014286Y-125542857D01*
X135185715Y-125485714D01*
X135242858Y-125428571D01*
X135242858Y-125028571D01*
X135014286Y-125028571D01*
X135757143Y-125542857D02*
X135757143Y-124342857D01*
X136442858Y-125542857D01*
X136442858Y-124342857D01*
X137014286Y-125542857D02*
X137014286Y-124342857D01*
X137300001Y-124342857D01*
X137471429Y-124400000D01*
X137585715Y-124514286D01*
X137642858Y-124628571D01*
X137700001Y-124857143D01*
X137700001Y-125028571D01*
X137642858Y-125257143D01*
X137585715Y-125371429D01*
X137471429Y-125485714D01*
X137300001Y-125542857D01*
X137014286Y-125542857D01*
X135271428Y-122885714D02*
X135442857Y-122942857D01*
X135728571Y-122942857D01*
X135842857Y-122885714D01*
X135900000Y-122828571D01*
X135957143Y-122714286D01*
X135957143Y-122600000D01*
X135900000Y-122485714D01*
X135842857Y-122428571D01*
X135728571Y-122371429D01*
X135500000Y-122314286D01*
X135385714Y-122257143D01*
X135328571Y-122200000D01*
X135271428Y-122085714D01*
X135271428Y-121971429D01*
X135328571Y-121857143D01*
X135385714Y-121800000D01*
X135500000Y-121742857D01*
X135785714Y-121742857D01*
X135957143Y-121800000D01*
X136471428Y-122942857D02*
X136471428Y-121742857D01*
X137671429Y-121800000D02*
X137557143Y-121742857D01*
X137385714Y-121742857D01*
X137214286Y-121800000D01*
X137100000Y-121914286D01*
X137042857Y-122028571D01*
X136985714Y-122257143D01*
X136985714Y-122428571D01*
X137042857Y-122657143D01*
X137100000Y-122771429D01*
X137214286Y-122885714D01*
X137385714Y-122942857D01*
X137500000Y-122942857D01*
X137671429Y-122885714D01*
X137728572Y-122828571D01*
X137728572Y-122428571D01*
X137500000Y-122428571D01*
D14*
X160614286Y-97771429D02*
X161376191Y-97771429D01*
X160995239Y-98152381D02*
X160995239Y-97390476D01*
X162328572Y-97152381D02*
X161852381Y-97152381D01*
X161804762Y-97628571D01*
X161852381Y-97580952D01*
X161947619Y-97533333D01*
X162185715Y-97533333D01*
X162280953Y-97580952D01*
X162328572Y-97628571D01*
X162376191Y-97723810D01*
X162376191Y-97961905D01*
X162328572Y-98057143D01*
X162280953Y-98104762D01*
X162185715Y-98152381D01*
X161947619Y-98152381D01*
X161852381Y-98104762D01*
X161804762Y-98057143D01*
X162661905Y-97152381D02*
X162995238Y-98152381D01*
X163328572Y-97152381D01*
D12*
X165247143Y-117300000D02*
X165318571Y-117442857D01*
X165318571Y-117728571D01*
X165247143Y-117871429D01*
X165175714Y-117942857D01*
X165032857Y-118014286D01*
X164604286Y-118014286D01*
X164461429Y-117942857D01*
X164390000Y-117871429D01*
X164318571Y-117728571D01*
X164318571Y-117442857D01*
X164390000Y-117300000D01*
X165318571Y-116657143D02*
X163818571Y-116657143D01*
X164747143Y-116514286D02*
X165318571Y-116085715D01*
X164318571Y-116085715D02*
X164890000Y-116657143D01*
X165318571Y-114800000D02*
X163818571Y-114800000D01*
X165247143Y-114800000D02*
X165318571Y-114942857D01*
X165318571Y-115228571D01*
X165247143Y-115371429D01*
X165175714Y-115442857D01*
X165032857Y-115514286D01*
X164604286Y-115514286D01*
X164461429Y-115442857D01*
X164390000Y-115371429D01*
X164318571Y-115228571D01*
X164318571Y-114942857D01*
X164390000Y-114800000D01*
X165175714Y-114085714D02*
X165247143Y-114014286D01*
X165318571Y-114085714D01*
X165247143Y-114157143D01*
X165175714Y-114085714D01*
X165318571Y-114085714D01*
X164318571Y-113585714D02*
X164318571Y-113014285D01*
X163818571Y-113371428D02*
X165104286Y-113371428D01*
X165247143Y-113300000D01*
X165318571Y-113157142D01*
X165318571Y-113014285D01*
X165247143Y-111942857D02*
X165318571Y-112085714D01*
X165318571Y-112371428D01*
X165247143Y-112514285D01*
X165104286Y-112585714D01*
X164532857Y-112585714D01*
X164390000Y-112514285D01*
X164318571Y-112371428D01*
X164318571Y-112085714D01*
X164390000Y-111942857D01*
X164532857Y-111871428D01*
X164675714Y-111871428D01*
X164818571Y-112585714D01*
X165247143Y-110585714D02*
X165318571Y-110728571D01*
X165318571Y-111014285D01*
X165247143Y-111157143D01*
X165175714Y-111228571D01*
X165032857Y-111300000D01*
X164604286Y-111300000D01*
X164461429Y-111228571D01*
X164390000Y-111157143D01*
X164318571Y-111014285D01*
X164318571Y-110728571D01*
X164390000Y-110585714D01*
X165318571Y-109942857D02*
X163818571Y-109942857D01*
X165318571Y-109300000D02*
X164532857Y-109300000D01*
X164390000Y-109371429D01*
X164318571Y-109514286D01*
X164318571Y-109728571D01*
X164390000Y-109871429D01*
X164461429Y-109942857D01*
X163747143Y-107514286D02*
X165675714Y-108800000D01*
X164318571Y-107228571D02*
X164318571Y-106657142D01*
X165318571Y-107014285D02*
X164032857Y-107014285D01*
X163890000Y-106942857D01*
X163818571Y-106799999D01*
X163818571Y-106657142D01*
X164318571Y-105514285D02*
X165318571Y-105514285D01*
X163747143Y-105871428D02*
X164818571Y-106228571D01*
X164818571Y-105299999D01*
X164318571Y-104942857D02*
X164318571Y-104371428D01*
X165318571Y-104728571D02*
X164032857Y-104728571D01*
X163890000Y-104657143D01*
X163818571Y-104514285D01*
X163818571Y-104371428D01*
X165247143Y-103228571D02*
X165318571Y-103371428D01*
X165318571Y-103657142D01*
X165247143Y-103800000D01*
X165175714Y-103871428D01*
X165032857Y-103942857D01*
X164604286Y-103942857D01*
X164461429Y-103871428D01*
X164390000Y-103800000D01*
X164318571Y-103657142D01*
X164318571Y-103371428D01*
X164390000Y-103228571D01*
X163747143Y-101514286D02*
X165675714Y-102800000D01*
X164318571Y-101157142D02*
X165318571Y-100799999D01*
X164318571Y-100442857D01*
X164318571Y-99228571D02*
X165318571Y-99228571D01*
X163747143Y-99585714D02*
X164818571Y-99942857D01*
X164818571Y-99014285D01*
D14*
X157419048Y-117452381D02*
X158038096Y-117452381D01*
X157704762Y-117833333D01*
X157847620Y-117833333D01*
X157942858Y-117880952D01*
X157990477Y-117928571D01*
X158038096Y-118023810D01*
X158038096Y-118261905D01*
X157990477Y-118357143D01*
X157942858Y-118404762D01*
X157847620Y-118452381D01*
X157561905Y-118452381D01*
X157466667Y-118404762D01*
X157419048Y-118357143D01*
X158466667Y-118357143D02*
X158514286Y-118404762D01*
X158466667Y-118452381D01*
X158419048Y-118404762D01*
X158466667Y-118357143D01*
X158466667Y-118452381D01*
X159419048Y-117452381D02*
X158942857Y-117452381D01*
X158895238Y-117928571D01*
X158942857Y-117880952D01*
X159038095Y-117833333D01*
X159276191Y-117833333D01*
X159371429Y-117880952D01*
X159419048Y-117928571D01*
X159466667Y-118023810D01*
X159466667Y-118261905D01*
X159419048Y-118357143D01*
X159371429Y-118404762D01*
X159276191Y-118452381D01*
X159038095Y-118452381D01*
X158942857Y-118404762D01*
X158895238Y-118357143D01*
X159895238Y-118452381D02*
X159895238Y-117785714D01*
X159895238Y-117880952D02*
X159942857Y-117833333D01*
X160038095Y-117785714D01*
X160180953Y-117785714D01*
X160276191Y-117833333D01*
X160323810Y-117928571D01*
X160323810Y-118452381D01*
X160323810Y-117928571D02*
X160371429Y-117833333D01*
X160466667Y-117785714D01*
X160609524Y-117785714D01*
X160704762Y-117833333D01*
X160752381Y-117928571D01*
X160752381Y-118452381D01*
X161228571Y-118452381D02*
X161228571Y-117785714D01*
X161228571Y-117880952D02*
X161276190Y-117833333D01*
X161371428Y-117785714D01*
X161514286Y-117785714D01*
X161609524Y-117833333D01*
X161657143Y-117928571D01*
X161657143Y-118452381D01*
X161657143Y-117928571D02*
X161704762Y-117833333D01*
X161800000Y-117785714D01*
X161942857Y-117785714D01*
X162038095Y-117833333D01*
X162085714Y-117928571D01*
X162085714Y-118452381D01*
X151666667Y-93202381D02*
X152285715Y-93202381D01*
X151952381Y-93583333D01*
X152095239Y-93583333D01*
X152190477Y-93630952D01*
X152238096Y-93678571D01*
X152285715Y-93773810D01*
X152285715Y-94011905D01*
X152238096Y-94107143D01*
X152190477Y-94154762D01*
X152095239Y-94202381D01*
X151809524Y-94202381D01*
X151714286Y-94154762D01*
X151666667Y-94107143D01*
X149714286Y-93297619D02*
X149761905Y-93250000D01*
X149857143Y-93202381D01*
X150095239Y-93202381D01*
X150190477Y-93250000D01*
X150238096Y-93297619D01*
X150285715Y-93392857D01*
X150285715Y-93488095D01*
X150238096Y-93630952D01*
X149666667Y-94202381D01*
X150285715Y-94202381D01*
X148285715Y-94202381D02*
X147714286Y-94202381D01*
X148000000Y-94202381D02*
X148000000Y-93202381D01*
X147904762Y-93345238D01*
X147809524Y-93440476D01*
X147714286Y-93488095D01*
X136440000Y-98640000D02*
X136440000Y-98115000D01*
X140740000Y-94340000D02*
X140740000Y-94865000D01*
X136440000Y-94340000D02*
X136440000Y-94865000D01*
X140740000Y-98640000D02*
X140215000Y-98640000D01*
X140740000Y-94340000D02*
X140215000Y-94340000D01*
X136440000Y-94340000D02*
X136965000Y-94340000D01*
X136440000Y-98640000D02*
X136965000Y-98640000D01*
X138200000Y-99570000D02*
X138900000Y-99570000D01*
X138900000Y-100770000D02*
X138200000Y-100770000D01*
X135710000Y-97020000D02*
X135710000Y-97720000D01*
X134510000Y-97720000D02*
X134510000Y-97020000D01*
X136700000Y-92280000D02*
X136700000Y-91580000D01*
X137900000Y-91580000D02*
X137900000Y-92280000D01*
X131920000Y-97770000D02*
X132620000Y-97770000D01*
X132620000Y-98970000D02*
X131920000Y-98970000D01*
X144330000Y-100750000D02*
X143630000Y-100750000D01*
X143630000Y-99550000D02*
X144330000Y-99550000D01*
X134510000Y-99420000D02*
X135210000Y-99420000D01*
X135210000Y-100620000D02*
X134510000Y-100620000D01*
X150670000Y-103760000D02*
X150670000Y-103060000D01*
X151870000Y-103060000D02*
X151870000Y-103760000D01*
X131740000Y-103510000D02*
X131740000Y-104210000D01*
X130540000Y-104210000D02*
X130540000Y-103510000D01*
X131150000Y-114850000D02*
X131150000Y-114150000D01*
X132350000Y-114150000D02*
X132350000Y-114850000D01*
X132540000Y-118350000D02*
X131840000Y-118350000D01*
X131840000Y-117150000D02*
X132540000Y-117150000D01*
X155610000Y-97605000D02*
X157610000Y-97605000D01*
X157610000Y-95555000D02*
X155610000Y-95555000D01*
X153020000Y-93840000D02*
X153020000Y-93140000D01*
X154220000Y-93140000D02*
X154220000Y-93840000D01*
X148050000Y-119150000D02*
X148050000Y-118450000D01*
X149250000Y-118450000D02*
X149250000Y-119150000D01*
X146280000Y-120080000D02*
X145580000Y-120080000D01*
X145580000Y-118880000D02*
X146280000Y-118880000D01*
X157400000Y-124400000D02*
X158100000Y-124400000D01*
X158100000Y-125600000D02*
X157400000Y-125600000D01*
X152550000Y-92600000D02*
X152550000Y-90700000D01*
X151450000Y-92600000D02*
X151450000Y-90700000D01*
X152000000Y-91700000D02*
X152000000Y-91250000D01*
X151750000Y-91750000D02*
X152250000Y-91750000D01*
X152000000Y-91750000D02*
X151750000Y-91500000D01*
X151750000Y-91500000D02*
X152250000Y-91500000D01*
X152250000Y-91500000D02*
X152000000Y-91750000D01*
X150550000Y-92600000D02*
X150550000Y-90700000D01*
X149450000Y-92600000D02*
X149450000Y-90700000D01*
X150000000Y-91700000D02*
X150000000Y-91250000D01*
X149750000Y-91750000D02*
X150250000Y-91750000D01*
X150000000Y-91750000D02*
X149750000Y-91500000D01*
X149750000Y-91500000D02*
X150250000Y-91500000D01*
X150250000Y-91500000D02*
X150000000Y-91750000D01*
X148550000Y-92600000D02*
X148550000Y-90700000D01*
X147450000Y-92600000D02*
X147450000Y-90700000D01*
X148000000Y-91700000D02*
X148000000Y-91250000D01*
X147750000Y-91750000D02*
X148250000Y-91750000D01*
X148000000Y-91750000D02*
X147750000Y-91500000D01*
X147750000Y-91500000D02*
X148250000Y-91500000D01*
X148250000Y-91500000D02*
X148000000Y-91750000D01*
X152675000Y-96000000D02*
X152675000Y-97000000D01*
X151325000Y-97000000D02*
X151325000Y-96000000D01*
X150675000Y-96000000D02*
X150675000Y-97000000D01*
X149325000Y-97000000D02*
X149325000Y-96000000D01*
X148675000Y-96000000D02*
X148675000Y-97000000D01*
X147325000Y-97000000D02*
X147325000Y-96000000D01*
X150025000Y-124250000D02*
X150025000Y-123250000D01*
X151375000Y-123250000D02*
X151375000Y-124250000D01*
X153250000Y-124315000D02*
X154250000Y-124315000D01*
X154250000Y-125665000D02*
X153250000Y-125665000D01*
X148625000Y-102715000D02*
X147865000Y-102715000D01*
X148625000Y-116965000D02*
X147865000Y-116965000D01*
X134375000Y-116965000D02*
X135135000Y-116965000D01*
X134375000Y-102715000D02*
X135135000Y-102715000D01*
X148625000Y-102715000D02*
X148625000Y-103475000D01*
X134375000Y-102715000D02*
X134375000Y-103475000D01*
X134375000Y-116965000D02*
X134375000Y-116205000D01*
X148625000Y-116965000D02*
X148625000Y-116205000D01*
X147865000Y-102715000D02*
X147865000Y-101190000D01*
X157230000Y-95210000D02*
G75*
G03X157230000Y-95210000I-100000J0D01*
G01*
X156580000Y-94960000D02*
X157080000Y-94960000D01*
X156580000Y-92060000D02*
X156580000Y-94960000D01*
X157080000Y-92060000D02*
X156580000Y-92060000D01*
X157080000Y-94960000D02*
X157080000Y-92060000D01*
D15*
G36*
X138744710Y-107929742D02*
X138778065Y-107930711D01*
X138801653Y-107932228D01*
X138881789Y-107941955D01*
X138963758Y-107957253D01*
X139045701Y-107977681D01*
X139125758Y-108002796D01*
X139173541Y-108020493D01*
X139216347Y-108037482D01*
X139258596Y-108054539D01*
X139300667Y-108071839D01*
X139342939Y-108089558D01*
X139385789Y-108107874D01*
X139429595Y-108126961D01*
X139474736Y-108146995D01*
X139521589Y-108168154D01*
X139570533Y-108190612D01*
X139621945Y-108214546D01*
X139676204Y-108240132D01*
X139733687Y-108267546D01*
X139794774Y-108296964D01*
X139859841Y-108328562D01*
X139929268Y-108362517D01*
X140003431Y-108399003D01*
X140082710Y-108438198D01*
X140167481Y-108480277D01*
X140258124Y-108525417D01*
X140262153Y-108527426D01*
X140341946Y-108567125D01*
X140416001Y-108603758D01*
X140484816Y-108637553D01*
X140548891Y-108668740D01*
X140608725Y-108697551D01*
X140664817Y-108724213D01*
X140717666Y-108748957D01*
X140767772Y-108772014D01*
X140815634Y-108793612D01*
X140861750Y-108813982D01*
X140906621Y-108833354D01*
X140950745Y-108851956D01*
X140994621Y-108870021D01*
X141038749Y-108887776D01*
X141080598Y-108904269D01*
X141104243Y-108913530D01*
X141125881Y-108922058D01*
X141144594Y-108929487D01*
X141159464Y-108935450D01*
X141169573Y-108939583D01*
X141173972Y-108941501D01*
X141174988Y-108943865D01*
X141172632Y-108948645D01*
X141166411Y-108956483D01*
X141155837Y-108968023D01*
X141145750Y-108978474D01*
X141088555Y-109032600D01*
X141024755Y-109084757D01*
X140954551Y-109134846D01*
X140878140Y-109182769D01*
X140795723Y-109228425D01*
X140707498Y-109271717D01*
X140613665Y-109312546D01*
X140514422Y-109350812D01*
X140409969Y-109386417D01*
X140300504Y-109419262D01*
X140209236Y-109443540D01*
X140101653Y-109469136D01*
X139999570Y-109490398D01*
X139902918Y-109507325D01*
X139811629Y-109519916D01*
X139725636Y-109528170D01*
X139644870Y-109532088D01*
X139569264Y-109531668D01*
X139498748Y-109526910D01*
X139433256Y-109517814D01*
X139372719Y-109504378D01*
X139317069Y-109486602D01*
X139266237Y-109464486D01*
X139220157Y-109438029D01*
X139215283Y-109434792D01*
X139196567Y-109420712D01*
X139175977Y-109402815D01*
X139155462Y-109382989D01*
X139136975Y-109363121D01*
X139122467Y-109345098D01*
X139122249Y-109344796D01*
X139100643Y-109309690D01*
X139082364Y-109269925D01*
X139068068Y-109227369D01*
X139058407Y-109183891D01*
X139054563Y-109151322D01*
X139052125Y-109116075D01*
X138986861Y-109110151D01*
X138965600Y-109108247D01*
X138946304Y-109106565D01*
X138930259Y-109105215D01*
X138918751Y-109104305D01*
X138913228Y-109103947D01*
X138907499Y-109103127D01*
X138907862Y-109100173D01*
X138909700Y-109097780D01*
X138912206Y-109094046D01*
X138910247Y-109093062D01*
X138902652Y-109094302D01*
X138902195Y-109094395D01*
X138873402Y-109100018D01*
X138839443Y-109106305D01*
X138802141Y-109112942D01*
X138763316Y-109119618D01*
X138724791Y-109126019D01*
X138688388Y-109131832D01*
X138655929Y-109136745D01*
X138653486Y-109137100D01*
X138572912Y-109147996D01*
X138498021Y-109156419D01*
X138427880Y-109162343D01*
X138361555Y-109165744D01*
X138298112Y-109166596D01*
X138236617Y-109164874D01*
X138176137Y-109160552D01*
X138115738Y-109153606D01*
X138054486Y-109144011D01*
X137991447Y-109131741D01*
X137929022Y-109117576D01*
X137908781Y-109112551D01*
X137886071Y-109106658D01*
X137861883Y-109100181D01*
X137837209Y-109093404D01*
X137813040Y-109086608D01*
X137790368Y-109080079D01*
X137770185Y-109074099D01*
X137753483Y-109068952D01*
X137741254Y-109064921D01*
X137734488Y-109062289D01*
X137733566Y-109061724D01*
X137732791Y-109057976D01*
X137731361Y-109048155D01*
X137729385Y-109033201D01*
X137726971Y-109014055D01*
X137724230Y-108991658D01*
X137721271Y-108966950D01*
X137718203Y-108940871D01*
X137715135Y-108914363D01*
X137712177Y-108888366D01*
X137709438Y-108863821D01*
X137707027Y-108841668D01*
X137705053Y-108822848D01*
X137703626Y-108808301D01*
X137702856Y-108798969D01*
X137702750Y-108796513D01*
X137705981Y-108794892D01*
X137714738Y-108792314D01*
X137727621Y-108789158D01*
X137740674Y-108786320D01*
X137852843Y-108762094D01*
X137960877Y-108736570D01*
X138064350Y-108709870D01*
X138162836Y-108682119D01*
X138255907Y-108653443D01*
X138343136Y-108623966D01*
X138424097Y-108593812D01*
X138484873Y-108568941D01*
X138581354Y-108524433D01*
X138672826Y-108475507D01*
X138760180Y-108421614D01*
X138844308Y-108362202D01*
X138926008Y-108296801D01*
X138942297Y-108282731D01*
X138959777Y-108267209D01*
X138977670Y-108250973D01*
X138995197Y-108234760D01*
X139011580Y-108219307D01*
X139026041Y-108205349D01*
X139037800Y-108193625D01*
X139046080Y-108184870D01*
X139050101Y-108179822D01*
X139050361Y-108179115D01*
X139047110Y-108176617D01*
X139038072Y-108172803D01*
X139024325Y-108168001D01*
X139006944Y-108162535D01*
X138987005Y-108156732D01*
X138965586Y-108150917D01*
X138943761Y-108145417D01*
X138924184Y-108140901D01*
X138854960Y-108127922D01*
X138788054Y-108119990D01*
X138721839Y-108117067D01*
X138654685Y-108119115D01*
X138584963Y-108126096D01*
X138544493Y-108132096D01*
X138448180Y-108150856D01*
X138356411Y-108174807D01*
X138269248Y-108203917D01*
X138186756Y-108238158D01*
X138108996Y-108277499D01*
X138036032Y-108321909D01*
X137967926Y-108371359D01*
X137904742Y-108425818D01*
X137879139Y-108450731D01*
X137828494Y-108506095D01*
X137784450Y-108563280D01*
X137747101Y-108622148D01*
X137716539Y-108682560D01*
X137702795Y-108716028D01*
X137691307Y-108746432D01*
X137545263Y-108884996D01*
X137518489Y-108910468D01*
X137493372Y-108934499D01*
X137470360Y-108956652D01*
X137449900Y-108976490D01*
X137432438Y-108993575D01*
X137418421Y-109007472D01*
X137408298Y-109017742D01*
X137402514Y-109023950D01*
X137401302Y-109025690D01*
X137404842Y-109027513D01*
X137414198Y-109031927D01*
X137428740Y-109038645D01*
X137447842Y-109047381D01*
X137470876Y-109057849D01*
X137497212Y-109069763D01*
X137526225Y-109082837D01*
X137557286Y-109096784D01*
X137560834Y-109098375D01*
X137718283Y-109168931D01*
X137738397Y-109239486D01*
X137752426Y-109287561D01*
X137766124Y-109331940D01*
X137780476Y-109375693D01*
X137796469Y-109421894D01*
X137801638Y-109436422D01*
X137808304Y-109454496D01*
X137813501Y-109466977D01*
X137817837Y-109475013D01*
X137821920Y-109479755D01*
X137825801Y-109482121D01*
X137832334Y-109483374D01*
X137844938Y-109484399D01*
X137862632Y-109485198D01*
X137884436Y-109485771D01*
X137909368Y-109486120D01*
X137936448Y-109486246D01*
X137964694Y-109486150D01*
X137993127Y-109485833D01*
X138020765Y-109485297D01*
X138046627Y-109484542D01*
X138069733Y-109483570D01*
X138089101Y-109482382D01*
X138096098Y-109481800D01*
X138138615Y-109477639D01*
X138182437Y-109472920D01*
X138226678Y-109467767D01*
X138270449Y-109462304D01*
X138312864Y-109456654D01*
X138353037Y-109450940D01*
X138390079Y-109445287D01*
X138423105Y-109439818D01*
X138451228Y-109434657D01*
X138473560Y-109429927D01*
X138480625Y-109428196D01*
X138537051Y-109410188D01*
X138593259Y-109385555D01*
X138648619Y-109354716D01*
X138702503Y-109318088D01*
X138754283Y-109276091D01*
X138803331Y-109229142D01*
X138839231Y-109189419D01*
X138850382Y-109176365D01*
X138857812Y-109168129D01*
X138862317Y-109164108D01*
X138864696Y-109163703D01*
X138865744Y-109166312D01*
X138866076Y-109169177D01*
X138874928Y-109231029D01*
X138890125Y-109291195D01*
X138911367Y-109349025D01*
X138938355Y-109403868D01*
X138970792Y-109455075D01*
X139008378Y-109501994D01*
X139028870Y-109523506D01*
X139076020Y-109565375D01*
X139127880Y-109602239D01*
X139184477Y-109634103D01*
X139245836Y-109660972D01*
X139311984Y-109682847D01*
X139382947Y-109699735D01*
X139458750Y-109711639D01*
X139539419Y-109718562D01*
X139624981Y-109720510D01*
X139715460Y-109717486D01*
X139810884Y-109709493D01*
X139911277Y-109696537D01*
X140016666Y-109678621D01*
X140018736Y-109678229D01*
X140152040Y-109650715D01*
X140280610Y-109619678D01*
X140404222Y-109585198D01*
X140522650Y-109547354D01*
X140635672Y-109506225D01*
X140743063Y-109461891D01*
X140844597Y-109414429D01*
X140940052Y-109363920D01*
X140986556Y-109336871D01*
X141058432Y-109291622D01*
X141123929Y-109245957D01*
X141183722Y-109199299D01*
X141238486Y-109151071D01*
X141288895Y-109100694D01*
X141335624Y-109047593D01*
X141359292Y-109017935D01*
X141366348Y-109008793D01*
X141399885Y-109015455D01*
X141504889Y-109032936D01*
X141609330Y-109043496D01*
X141713815Y-109047171D01*
X141818949Y-109043997D01*
X141844361Y-109042219D01*
X141933685Y-109034517D01*
X142029546Y-109024773D01*
X142131740Y-109013024D01*
X142240062Y-108999304D01*
X142354307Y-108983649D01*
X142474270Y-108966094D01*
X142599745Y-108946676D01*
X142730528Y-108925428D01*
X142866414Y-108902388D01*
X143007197Y-108877589D01*
X143152673Y-108851068D01*
X143302636Y-108822860D01*
X143456882Y-108793000D01*
X143615205Y-108761525D01*
X143777401Y-108728468D01*
X143943264Y-108693866D01*
X144112589Y-108657754D01*
X144277083Y-108621946D01*
X144312540Y-108614219D01*
X144346328Y-108606982D01*
X144377744Y-108600378D01*
X144406082Y-108594550D01*
X144430639Y-108589638D01*
X144450711Y-108585785D01*
X144465595Y-108583134D01*
X144474586Y-108581825D01*
X144476402Y-108581710D01*
X144500853Y-108585325D01*
X144523020Y-108595489D01*
X144542465Y-108611940D01*
X144555298Y-108628714D01*
X144571220Y-108654601D01*
X144589408Y-108685862D01*
X144609273Y-108721421D01*
X144630229Y-108760199D01*
X144651687Y-108801119D01*
X144673058Y-108843103D01*
X144680724Y-108858486D01*
X144710533Y-108920291D01*
X144736152Y-108977008D01*
X144757736Y-109029113D01*
X144775437Y-109077077D01*
X144789410Y-109121376D01*
X144799807Y-109162481D01*
X144806783Y-109200868D01*
X144810490Y-109237009D01*
X144811223Y-109261017D01*
X144809855Y-109295658D01*
X144805603Y-109324824D01*
X144798245Y-109349574D01*
X144788407Y-109369576D01*
X144775372Y-109388408D01*
X144761151Y-109402507D01*
X144743422Y-109414103D01*
X144740516Y-109415661D01*
X144730170Y-109420668D01*
X144718802Y-109425256D01*
X144706049Y-109429454D01*
X144691542Y-109433295D01*
X144674918Y-109436806D01*
X144655811Y-109440019D01*
X144633854Y-109442964D01*
X144608682Y-109445671D01*
X144579929Y-109448170D01*
X144547230Y-109450491D01*
X144510219Y-109452664D01*
X144468530Y-109454720D01*
X144421798Y-109456689D01*
X144369657Y-109458601D01*
X144311742Y-109460486D01*
X144247685Y-109462374D01*
X144177123Y-109464296D01*
X144139181Y-109465282D01*
X144019555Y-109468512D01*
X143906447Y-109471915D01*
X143799322Y-109475525D01*
X143697645Y-109479372D01*
X143600878Y-109483490D01*
X143508487Y-109487910D01*
X143419937Y-109492664D01*
X143334690Y-109497786D01*
X143252212Y-109503306D01*
X143171967Y-109509258D01*
X143093420Y-109515673D01*
X143016033Y-109522583D01*
X142939273Y-109530022D01*
X142862603Y-109538020D01*
X142785487Y-109546611D01*
X142784514Y-109546723D01*
X142646765Y-109563667D01*
X142513516Y-109582414D01*
X142383549Y-109603216D01*
X142255649Y-109626325D01*
X142128599Y-109651993D01*
X142001181Y-109680474D01*
X141872181Y-109712018D01*
X141740381Y-109746880D01*
X141604564Y-109785310D01*
X141534101Y-109806143D01*
X141506987Y-109814416D01*
X141475101Y-109824394D01*
X141439282Y-109835799D01*
X141400367Y-109848350D01*
X141359195Y-109861768D01*
X141316606Y-109875772D01*
X141273438Y-109890082D01*
X141230530Y-109904419D01*
X141188720Y-109918503D01*
X141148847Y-109932054D01*
X141111751Y-109944791D01*
X141078268Y-109956436D01*
X141049239Y-109966707D01*
X141025502Y-109975326D01*
X141012325Y-109980287D01*
X140965900Y-109998714D01*
X140919052Y-110018455D01*
X140871172Y-110039814D01*
X140821650Y-110063099D01*
X140769877Y-110088614D01*
X140715244Y-110116665D01*
X140657142Y-110147558D01*
X140594962Y-110181598D01*
X140528093Y-110219091D01*
X140468528Y-110253090D01*
X140436877Y-110271282D01*
X140401373Y-110291686D01*
X140363969Y-110313181D01*
X140326618Y-110334643D01*
X140291271Y-110354953D01*
X140259882Y-110372987D01*
X140256861Y-110374722D01*
X140182151Y-110417228D01*
X140112611Y-110455860D01*
X140047666Y-110490832D01*
X139986738Y-110522361D01*
X139929249Y-110550662D01*
X139874623Y-110575950D01*
X139822282Y-110598442D01*
X139771649Y-110618353D01*
X139722146Y-110635898D01*
X139673197Y-110651294D01*
X139624224Y-110664755D01*
X139574649Y-110676498D01*
X139523896Y-110686738D01*
X139471387Y-110695691D01*
X139416545Y-110703573D01*
X139358792Y-110710598D01*
X139357278Y-110710768D01*
X139338693Y-110712405D01*
X139314406Y-110713872D01*
X139285621Y-110715152D01*
X139253537Y-110716227D01*
X139219357Y-110717078D01*
X139184282Y-110717688D01*
X139149513Y-110718037D01*
X139116253Y-110718108D01*
X139085702Y-110717882D01*
X139059062Y-110717342D01*
X139037534Y-110716469D01*
X139027431Y-110715766D01*
X138931437Y-110704796D01*
X138838591Y-110688944D01*
X138749357Y-110668340D01*
X138664199Y-110643112D01*
X138583580Y-110613390D01*
X138507963Y-110579303D01*
X138473570Y-110561423D01*
X138389499Y-110511747D01*
X138308006Y-110455614D01*
X138229071Y-110393003D01*
X138152676Y-110323893D01*
X138078800Y-110248264D01*
X138007424Y-110166095D01*
X137938528Y-110077366D01*
X137872092Y-109982057D01*
X137808098Y-109880145D01*
X137784143Y-109839208D01*
X137734336Y-109747801D01*
X137689157Y-109654995D01*
X137648144Y-109559669D01*
X137610834Y-109460702D01*
X137576764Y-109356973D01*
X137556318Y-109287111D01*
X137538063Y-109221847D01*
X137413150Y-109171265D01*
X137380801Y-109158164D01*
X137346720Y-109144360D01*
X137312371Y-109130446D01*
X137279218Y-109117013D01*
X137248725Y-109104657D01*
X137222356Y-109093970D01*
X137208125Y-109088200D01*
X137128013Y-109055719D01*
X137502699Y-108720903D01*
X137517975Y-108675042D01*
X137537971Y-108622558D01*
X137563359Y-108568304D01*
X137593290Y-108513803D01*
X137626916Y-108460580D01*
X137663391Y-108410159D01*
X137670077Y-108401644D01*
X137685188Y-108383691D01*
X137704455Y-108362394D01*
X137726654Y-108338976D01*
X137750561Y-108314659D01*
X137774953Y-108290663D01*
X137798606Y-108268213D01*
X137820297Y-108248529D01*
X137838802Y-108232834D01*
X137840334Y-108231608D01*
X137916271Y-108175687D01*
X137996675Y-108125202D01*
X138081488Y-108080177D01*
X138170648Y-108040636D01*
X138264097Y-108006603D01*
X138361776Y-107978101D01*
X138463624Y-107955155D01*
X138569582Y-107937789D01*
X138570584Y-107937654D01*
X138599559Y-107934531D01*
X138633508Y-107932131D01*
X138670383Y-107930500D01*
X138708133Y-107929688D01*
X138744710Y-107929742D01*
X138744710Y-107929742D01*
G37*
X138744710Y-107929742D02*
X138778065Y-107930711D01*
X138801653Y-107932228D01*
X138881789Y-107941955D01*
X138963758Y-107957253D01*
X139045701Y-107977681D01*
X139125758Y-108002796D01*
X139173541Y-108020493D01*
X139216347Y-108037482D01*
X139258596Y-108054539D01*
X139300667Y-108071839D01*
X139342939Y-108089558D01*
X139385789Y-108107874D01*
X139429595Y-108126961D01*
X139474736Y-108146995D01*
X139521589Y-108168154D01*
X139570533Y-108190612D01*
X139621945Y-108214546D01*
X139676204Y-108240132D01*
X139733687Y-108267546D01*
X139794774Y-108296964D01*
X139859841Y-108328562D01*
X139929268Y-108362517D01*
X140003431Y-108399003D01*
X140082710Y-108438198D01*
X140167481Y-108480277D01*
X140258124Y-108525417D01*
X140262153Y-108527426D01*
X140341946Y-108567125D01*
X140416001Y-108603758D01*
X140484816Y-108637553D01*
X140548891Y-108668740D01*
X140608725Y-108697551D01*
X140664817Y-108724213D01*
X140717666Y-108748957D01*
X140767772Y-108772014D01*
X140815634Y-108793612D01*
X140861750Y-108813982D01*
X140906621Y-108833354D01*
X140950745Y-108851956D01*
X140994621Y-108870021D01*
X141038749Y-108887776D01*
X141080598Y-108904269D01*
X141104243Y-108913530D01*
X141125881Y-108922058D01*
X141144594Y-108929487D01*
X141159464Y-108935450D01*
X141169573Y-108939583D01*
X141173972Y-108941501D01*
X141174988Y-108943865D01*
X141172632Y-108948645D01*
X141166411Y-108956483D01*
X141155837Y-108968023D01*
X141145750Y-108978474D01*
X141088555Y-109032600D01*
X141024755Y-109084757D01*
X140954551Y-109134846D01*
X140878140Y-109182769D01*
X140795723Y-109228425D01*
X140707498Y-109271717D01*
X140613665Y-109312546D01*
X140514422Y-109350812D01*
X140409969Y-109386417D01*
X140300504Y-109419262D01*
X140209236Y-109443540D01*
X140101653Y-109469136D01*
X139999570Y-109490398D01*
X139902918Y-109507325D01*
X139811629Y-109519916D01*
X139725636Y-109528170D01*
X139644870Y-109532088D01*
X139569264Y-109531668D01*
X139498748Y-109526910D01*
X139433256Y-109517814D01*
X139372719Y-109504378D01*
X139317069Y-109486602D01*
X139266237Y-109464486D01*
X139220157Y-109438029D01*
X139215283Y-109434792D01*
X139196567Y-109420712D01*
X139175977Y-109402815D01*
X139155462Y-109382989D01*
X139136975Y-109363121D01*
X139122467Y-109345098D01*
X139122249Y-109344796D01*
X139100643Y-109309690D01*
X139082364Y-109269925D01*
X139068068Y-109227369D01*
X139058407Y-109183891D01*
X139054563Y-109151322D01*
X139052125Y-109116075D01*
X138986861Y-109110151D01*
X138965600Y-109108247D01*
X138946304Y-109106565D01*
X138930259Y-109105215D01*
X138918751Y-109104305D01*
X138913228Y-109103947D01*
X138907499Y-109103127D01*
X138907862Y-109100173D01*
X138909700Y-109097780D01*
X138912206Y-109094046D01*
X138910247Y-109093062D01*
X138902652Y-109094302D01*
X138902195Y-109094395D01*
X138873402Y-109100018D01*
X138839443Y-109106305D01*
X138802141Y-109112942D01*
X138763316Y-109119618D01*
X138724791Y-109126019D01*
X138688388Y-109131832D01*
X138655929Y-109136745D01*
X138653486Y-109137100D01*
X138572912Y-109147996D01*
X138498021Y-109156419D01*
X138427880Y-109162343D01*
X138361555Y-109165744D01*
X138298112Y-109166596D01*
X138236617Y-109164874D01*
X138176137Y-109160552D01*
X138115738Y-109153606D01*
X138054486Y-109144011D01*
X137991447Y-109131741D01*
X137929022Y-109117576D01*
X137908781Y-109112551D01*
X137886071Y-109106658D01*
X137861883Y-109100181D01*
X137837209Y-109093404D01*
X137813040Y-109086608D01*
X137790368Y-109080079D01*
X137770185Y-109074099D01*
X137753483Y-109068952D01*
X137741254Y-109064921D01*
X137734488Y-109062289D01*
X137733566Y-109061724D01*
X137732791Y-109057976D01*
X137731361Y-109048155D01*
X137729385Y-109033201D01*
X137726971Y-109014055D01*
X137724230Y-108991658D01*
X137721271Y-108966950D01*
X137718203Y-108940871D01*
X137715135Y-108914363D01*
X137712177Y-108888366D01*
X137709438Y-108863821D01*
X137707027Y-108841668D01*
X137705053Y-108822848D01*
X137703626Y-108808301D01*
X137702856Y-108798969D01*
X137702750Y-108796513D01*
X137705981Y-108794892D01*
X137714738Y-108792314D01*
X137727621Y-108789158D01*
X137740674Y-108786320D01*
X137852843Y-108762094D01*
X137960877Y-108736570D01*
X138064350Y-108709870D01*
X138162836Y-108682119D01*
X138255907Y-108653443D01*
X138343136Y-108623966D01*
X138424097Y-108593812D01*
X138484873Y-108568941D01*
X138581354Y-108524433D01*
X138672826Y-108475507D01*
X138760180Y-108421614D01*
X138844308Y-108362202D01*
X138926008Y-108296801D01*
X138942297Y-108282731D01*
X138959777Y-108267209D01*
X138977670Y-108250973D01*
X138995197Y-108234760D01*
X139011580Y-108219307D01*
X139026041Y-108205349D01*
X139037800Y-108193625D01*
X139046080Y-108184870D01*
X139050101Y-108179822D01*
X139050361Y-108179115D01*
X139047110Y-108176617D01*
X139038072Y-108172803D01*
X139024325Y-108168001D01*
X139006944Y-108162535D01*
X138987005Y-108156732D01*
X138965586Y-108150917D01*
X138943761Y-108145417D01*
X138924184Y-108140901D01*
X138854960Y-108127922D01*
X138788054Y-108119990D01*
X138721839Y-108117067D01*
X138654685Y-108119115D01*
X138584963Y-108126096D01*
X138544493Y-108132096D01*
X138448180Y-108150856D01*
X138356411Y-108174807D01*
X138269248Y-108203917D01*
X138186756Y-108238158D01*
X138108996Y-108277499D01*
X138036032Y-108321909D01*
X137967926Y-108371359D01*
X137904742Y-108425818D01*
X137879139Y-108450731D01*
X137828494Y-108506095D01*
X137784450Y-108563280D01*
X137747101Y-108622148D01*
X137716539Y-108682560D01*
X137702795Y-108716028D01*
X137691307Y-108746432D01*
X137545263Y-108884996D01*
X137518489Y-108910468D01*
X137493372Y-108934499D01*
X137470360Y-108956652D01*
X137449900Y-108976490D01*
X137432438Y-108993575D01*
X137418421Y-109007472D01*
X137408298Y-109017742D01*
X137402514Y-109023950D01*
X137401302Y-109025690D01*
X137404842Y-109027513D01*
X137414198Y-109031927D01*
X137428740Y-109038645D01*
X137447842Y-109047381D01*
X137470876Y-109057849D01*
X137497212Y-109069763D01*
X137526225Y-109082837D01*
X137557286Y-109096784D01*
X137560834Y-109098375D01*
X137718283Y-109168931D01*
X137738397Y-109239486D01*
X137752426Y-109287561D01*
X137766124Y-109331940D01*
X137780476Y-109375693D01*
X137796469Y-109421894D01*
X137801638Y-109436422D01*
X137808304Y-109454496D01*
X137813501Y-109466977D01*
X137817837Y-109475013D01*
X137821920Y-109479755D01*
X137825801Y-109482121D01*
X137832334Y-109483374D01*
X137844938Y-109484399D01*
X137862632Y-109485198D01*
X137884436Y-109485771D01*
X137909368Y-109486120D01*
X137936448Y-109486246D01*
X137964694Y-109486150D01*
X137993127Y-109485833D01*
X138020765Y-109485297D01*
X138046627Y-109484542D01*
X138069733Y-109483570D01*
X138089101Y-109482382D01*
X138096098Y-109481800D01*
X138138615Y-109477639D01*
X138182437Y-109472920D01*
X138226678Y-109467767D01*
X138270449Y-109462304D01*
X138312864Y-109456654D01*
X138353037Y-109450940D01*
X138390079Y-109445287D01*
X138423105Y-109439818D01*
X138451228Y-109434657D01*
X138473560Y-109429927D01*
X138480625Y-109428196D01*
X138537051Y-109410188D01*
X138593259Y-109385555D01*
X138648619Y-109354716D01*
X138702503Y-109318088D01*
X138754283Y-109276091D01*
X138803331Y-109229142D01*
X138839231Y-109189419D01*
X138850382Y-109176365D01*
X138857812Y-109168129D01*
X138862317Y-109164108D01*
X138864696Y-109163703D01*
X138865744Y-109166312D01*
X138866076Y-109169177D01*
X138874928Y-109231029D01*
X138890125Y-109291195D01*
X138911367Y-109349025D01*
X138938355Y-109403868D01*
X138970792Y-109455075D01*
X139008378Y-109501994D01*
X139028870Y-109523506D01*
X139076020Y-109565375D01*
X139127880Y-109602239D01*
X139184477Y-109634103D01*
X139245836Y-109660972D01*
X139311984Y-109682847D01*
X139382947Y-109699735D01*
X139458750Y-109711639D01*
X139539419Y-109718562D01*
X139624981Y-109720510D01*
X139715460Y-109717486D01*
X139810884Y-109709493D01*
X139911277Y-109696537D01*
X140016666Y-109678621D01*
X140018736Y-109678229D01*
X140152040Y-109650715D01*
X140280610Y-109619678D01*
X140404222Y-109585198D01*
X140522650Y-109547354D01*
X140635672Y-109506225D01*
X140743063Y-109461891D01*
X140844597Y-109414429D01*
X140940052Y-109363920D01*
X140986556Y-109336871D01*
X141058432Y-109291622D01*
X141123929Y-109245957D01*
X141183722Y-109199299D01*
X141238486Y-109151071D01*
X141288895Y-109100694D01*
X141335624Y-109047593D01*
X141359292Y-109017935D01*
X141366348Y-109008793D01*
X141399885Y-109015455D01*
X141504889Y-109032936D01*
X141609330Y-109043496D01*
X141713815Y-109047171D01*
X141818949Y-109043997D01*
X141844361Y-109042219D01*
X141933685Y-109034517D01*
X142029546Y-109024773D01*
X142131740Y-109013024D01*
X142240062Y-108999304D01*
X142354307Y-108983649D01*
X142474270Y-108966094D01*
X142599745Y-108946676D01*
X142730528Y-108925428D01*
X142866414Y-108902388D01*
X143007197Y-108877589D01*
X143152673Y-108851068D01*
X143302636Y-108822860D01*
X143456882Y-108793000D01*
X143615205Y-108761525D01*
X143777401Y-108728468D01*
X143943264Y-108693866D01*
X144112589Y-108657754D01*
X144277083Y-108621946D01*
X144312540Y-108614219D01*
X144346328Y-108606982D01*
X144377744Y-108600378D01*
X144406082Y-108594550D01*
X144430639Y-108589638D01*
X144450711Y-108585785D01*
X144465595Y-108583134D01*
X144474586Y-108581825D01*
X144476402Y-108581710D01*
X144500853Y-108585325D01*
X144523020Y-108595489D01*
X144542465Y-108611940D01*
X144555298Y-108628714D01*
X144571220Y-108654601D01*
X144589408Y-108685862D01*
X144609273Y-108721421D01*
X144630229Y-108760199D01*
X144651687Y-108801119D01*
X144673058Y-108843103D01*
X144680724Y-108858486D01*
X144710533Y-108920291D01*
X144736152Y-108977008D01*
X144757736Y-109029113D01*
X144775437Y-109077077D01*
X144789410Y-109121376D01*
X144799807Y-109162481D01*
X144806783Y-109200868D01*
X144810490Y-109237009D01*
X144811223Y-109261017D01*
X144809855Y-109295658D01*
X144805603Y-109324824D01*
X144798245Y-109349574D01*
X144788407Y-109369576D01*
X144775372Y-109388408D01*
X144761151Y-109402507D01*
X144743422Y-109414103D01*
X144740516Y-109415661D01*
X144730170Y-109420668D01*
X144718802Y-109425256D01*
X144706049Y-109429454D01*
X144691542Y-109433295D01*
X144674918Y-109436806D01*
X144655811Y-109440019D01*
X144633854Y-109442964D01*
X144608682Y-109445671D01*
X144579929Y-109448170D01*
X144547230Y-109450491D01*
X144510219Y-109452664D01*
X144468530Y-109454720D01*
X144421798Y-109456689D01*
X144369657Y-109458601D01*
X144311742Y-109460486D01*
X144247685Y-109462374D01*
X144177123Y-109464296D01*
X144139181Y-109465282D01*
X144019555Y-109468512D01*
X143906447Y-109471915D01*
X143799322Y-109475525D01*
X143697645Y-109479372D01*
X143600878Y-109483490D01*
X143508487Y-109487910D01*
X143419937Y-109492664D01*
X143334690Y-109497786D01*
X143252212Y-109503306D01*
X143171967Y-109509258D01*
X143093420Y-109515673D01*
X143016033Y-109522583D01*
X142939273Y-109530022D01*
X142862603Y-109538020D01*
X142785487Y-109546611D01*
X142784514Y-109546723D01*
X142646765Y-109563667D01*
X142513516Y-109582414D01*
X142383549Y-109603216D01*
X142255649Y-109626325D01*
X142128599Y-109651993D01*
X142001181Y-109680474D01*
X141872181Y-109712018D01*
X141740381Y-109746880D01*
X141604564Y-109785310D01*
X141534101Y-109806143D01*
X141506987Y-109814416D01*
X141475101Y-109824394D01*
X141439282Y-109835799D01*
X141400367Y-109848350D01*
X141359195Y-109861768D01*
X141316606Y-109875772D01*
X141273438Y-109890082D01*
X141230530Y-109904419D01*
X141188720Y-109918503D01*
X141148847Y-109932054D01*
X141111751Y-109944791D01*
X141078268Y-109956436D01*
X141049239Y-109966707D01*
X141025502Y-109975326D01*
X141012325Y-109980287D01*
X140965900Y-109998714D01*
X140919052Y-110018455D01*
X140871172Y-110039814D01*
X140821650Y-110063099D01*
X140769877Y-110088614D01*
X140715244Y-110116665D01*
X140657142Y-110147558D01*
X140594962Y-110181598D01*
X140528093Y-110219091D01*
X140468528Y-110253090D01*
X140436877Y-110271282D01*
X140401373Y-110291686D01*
X140363969Y-110313181D01*
X140326618Y-110334643D01*
X140291271Y-110354953D01*
X140259882Y-110372987D01*
X140256861Y-110374722D01*
X140182151Y-110417228D01*
X140112611Y-110455860D01*
X140047666Y-110490832D01*
X139986738Y-110522361D01*
X139929249Y-110550662D01*
X139874623Y-110575950D01*
X139822282Y-110598442D01*
X139771649Y-110618353D01*
X139722146Y-110635898D01*
X139673197Y-110651294D01*
X139624224Y-110664755D01*
X139574649Y-110676498D01*
X139523896Y-110686738D01*
X139471387Y-110695691D01*
X139416545Y-110703573D01*
X139358792Y-110710598D01*
X139357278Y-110710768D01*
X139338693Y-110712405D01*
X139314406Y-110713872D01*
X139285621Y-110715152D01*
X139253537Y-110716227D01*
X139219357Y-110717078D01*
X139184282Y-110717688D01*
X139149513Y-110718037D01*
X139116253Y-110718108D01*
X139085702Y-110717882D01*
X139059062Y-110717342D01*
X139037534Y-110716469D01*
X139027431Y-110715766D01*
X138931437Y-110704796D01*
X138838591Y-110688944D01*
X138749357Y-110668340D01*
X138664199Y-110643112D01*
X138583580Y-110613390D01*
X138507963Y-110579303D01*
X138473570Y-110561423D01*
X138389499Y-110511747D01*
X138308006Y-110455614D01*
X138229071Y-110393003D01*
X138152676Y-110323893D01*
X138078800Y-110248264D01*
X138007424Y-110166095D01*
X137938528Y-110077366D01*
X137872092Y-109982057D01*
X137808098Y-109880145D01*
X137784143Y-109839208D01*
X137734336Y-109747801D01*
X137689157Y-109654995D01*
X137648144Y-109559669D01*
X137610834Y-109460702D01*
X137576764Y-109356973D01*
X137556318Y-109287111D01*
X137538063Y-109221847D01*
X137413150Y-109171265D01*
X137380801Y-109158164D01*
X137346720Y-109144360D01*
X137312371Y-109130446D01*
X137279218Y-109117013D01*
X137248725Y-109104657D01*
X137222356Y-109093970D01*
X137208125Y-109088200D01*
X137128013Y-109055719D01*
X137502699Y-108720903D01*
X137517975Y-108675042D01*
X137537971Y-108622558D01*
X137563359Y-108568304D01*
X137593290Y-108513803D01*
X137626916Y-108460580D01*
X137663391Y-108410159D01*
X137670077Y-108401644D01*
X137685188Y-108383691D01*
X137704455Y-108362394D01*
X137726654Y-108338976D01*
X137750561Y-108314659D01*
X137774953Y-108290663D01*
X137798606Y-108268213D01*
X137820297Y-108248529D01*
X137838802Y-108232834D01*
X137840334Y-108231608D01*
X137916271Y-108175687D01*
X137996675Y-108125202D01*
X138081488Y-108080177D01*
X138170648Y-108040636D01*
X138264097Y-108006603D01*
X138361776Y-107978101D01*
X138463624Y-107955155D01*
X138569582Y-107937789D01*
X138570584Y-107937654D01*
X138599559Y-107934531D01*
X138633508Y-107932131D01*
X138670383Y-107930500D01*
X138708133Y-107929688D01*
X138744710Y-107929742D01*
D14*
X156775000Y-122500000D02*
X157775000Y-122500000D01*
X157775000Y-123850000D02*
X156775000Y-123850000D01*
X130455000Y-109690000D02*
X130455000Y-108690000D01*
X131805000Y-108690000D02*
X131805000Y-109690000D01*
D10*
G36*
X156206953Y-120584474D02*
X156206953Y-119374004D01*
X156492452Y-119226488D01*
X156483517Y-119231578D01*
X156475125Y-119237019D01*
X156467273Y-119242811D01*
X156459964Y-119248955D01*
X156453195Y-119255449D01*
X156446969Y-119262294D01*
X156441283Y-119269490D01*
X156436139Y-119277037D01*
X156431537Y-119284935D01*
X156427476Y-119293185D01*
X156423956Y-119301785D01*
X156420978Y-119310736D01*
X156418542Y-119320039D01*
X156416647Y-119329692D01*
X156415293Y-119339696D01*
X156414481Y-119350052D01*
X156414210Y-119360758D01*
X156414210Y-119942844D01*
X156414210Y-119942828D01*
X156427211Y-119947711D01*
X156440246Y-119952315D01*
X156453316Y-119956640D01*
X156466419Y-119960686D01*
X156479556Y-119964452D01*
X156492728Y-119967940D01*
X156505933Y-119971149D01*
X156519172Y-119974078D01*
X156532446Y-119976729D01*
X156545753Y-119979101D01*
X156559095Y-119981193D01*
X156572470Y-119983007D01*
X156585880Y-119984541D01*
X156599323Y-119985797D01*
X156612801Y-119986774D01*
X156626312Y-119987471D01*
X156639858Y-119987890D01*
X156653437Y-119988029D01*
X156668613Y-119987866D01*
X156683271Y-119987375D01*
X156697412Y-119986557D01*
X156711036Y-119985413D01*
X156724143Y-119983941D01*
X156736732Y-119982142D01*
X156748804Y-119980016D01*
X156760360Y-119977564D01*
X156771397Y-119974784D01*
X156783765Y-119971094D01*
X156796064Y-119966647D01*
X156808294Y-119961444D01*
X156820456Y-119955483D01*
X156832548Y-119948766D01*
X156844571Y-119941292D01*
X156856526Y-119933061D01*
X156868411Y-119924074D01*
X156876839Y-119916911D01*
X156884884Y-119909055D01*
X156892546Y-119900508D01*
X156899826Y-119891268D01*
X156906723Y-119881337D01*
X156913237Y-119870713D01*
X156919369Y-119859397D01*
X156925118Y-119847389D01*
X156930485Y-119834688D01*
X156935468Y-119821296D01*
X156940069Y-119807211D01*
X156943337Y-119796294D01*
X156946380Y-119785005D01*
X156949197Y-119773343D01*
X156951789Y-119761309D01*
X156954156Y-119748902D01*
X156956297Y-119736123D01*
X156958213Y-119722972D01*
X156959903Y-119709448D01*
X156961368Y-119695552D01*
X156962608Y-119681284D01*
X156963622Y-119666644D01*
X156964411Y-119651631D01*
X156964974Y-119636245D01*
X156965313Y-119620488D01*
X156965425Y-119604358D01*
X156965326Y-119588137D01*
X156965029Y-119572269D01*
X156964534Y-119556755D01*
X156963841Y-119541593D01*
X156962949Y-119526785D01*
X156961860Y-119512329D01*
X156960572Y-119498227D01*
X156959086Y-119484477D01*
X156957402Y-119471081D01*
X156955521Y-119458037D01*
X156953441Y-119445347D01*
X156951163Y-119433009D01*
X156948686Y-119421025D01*
X156946012Y-119409393D01*
X156943140Y-119398115D01*
X156940069Y-119387189D01*
X156935477Y-119371744D01*
X156930521Y-119357083D01*
X156925200Y-119343205D01*
X156919515Y-119330112D01*
X156913465Y-119317802D01*
X156907051Y-119306277D01*
X156900273Y-119295535D01*
X156893129Y-119285577D01*
X156885622Y-119276403D01*
X156877750Y-119268014D01*
X156869514Y-119260408D01*
X156857955Y-119250881D01*
X156846432Y-119242147D01*
X156834942Y-119234205D01*
X156823487Y-119227057D01*
X156812067Y-119220700D01*
X156800681Y-119215136D01*
X156789329Y-119210365D01*
X156778012Y-119206387D01*
X156766505Y-119203035D01*
X156754585Y-119200131D01*
X156742252Y-119197673D01*
X156729505Y-119195662D01*
X156716345Y-119194098D01*
X156702771Y-119192981D01*
X156688784Y-119192311D01*
X156674384Y-119192087D01*
X156657869Y-119192263D01*
X156641896Y-119192789D01*
X156626464Y-119193667D01*
X156611574Y-119194896D01*
X156597225Y-119196475D01*
X156583418Y-119198406D01*
X156570152Y-119200688D01*
X156557427Y-119203320D01*
X156545244Y-119206304D01*
X156533603Y-119209639D01*
X156522503Y-119213325D01*
X156511944Y-119217362D01*
X156501927Y-119221750D01*
X156492452Y-119226488D01*
X156206953Y-119374004D01*
X156207137Y-119361908D01*
X156207688Y-119349873D01*
X156208607Y-119337898D01*
X156209893Y-119325985D01*
X156211546Y-119314133D01*
X156213568Y-119302342D01*
X156215862Y-119291565D01*
X156218967Y-119280024D01*
X156222882Y-119267717D01*
X156227607Y-119254646D01*
X156233141Y-119240809D01*
X156239486Y-119226208D01*
X156246641Y-119210842D01*
X156252997Y-119198756D01*
X156259815Y-119186998D01*
X156267097Y-119175565D01*
X156274841Y-119164460D01*
X156283048Y-119153681D01*
X156291718Y-119143229D01*
X156300850Y-119133104D01*
X156310445Y-119123305D01*
X156320503Y-119113833D01*
X156328542Y-119106933D01*
X156337224Y-119100202D01*
X156346548Y-119093640D01*
X156356516Y-119087246D01*
X156367127Y-119081021D01*
X156378381Y-119074965D01*
X156390278Y-119069078D01*
X156402818Y-119063359D01*
X156416001Y-119057809D01*
X156429828Y-119052427D01*
X156444297Y-119047215D01*
X156459410Y-119042171D01*
X156471101Y-119038433D01*
X156483026Y-119034935D01*
X156495183Y-119031679D01*
X156507572Y-119028665D01*
X156520194Y-119025891D01*
X156533049Y-119023359D01*
X156546136Y-119021067D01*
X156559455Y-119019017D01*
X156573007Y-119017208D01*
X156586792Y-119015641D01*
X156600809Y-119014314D01*
X156615059Y-119013229D01*
X156629541Y-119012385D01*
X156644256Y-119011782D01*
X156659204Y-119011420D01*
X156674384Y-119011300D01*
X156688307Y-119011435D01*
X156702148Y-119011842D01*
X156715908Y-119012520D01*
X156729587Y-119013470D01*
X156743183Y-119014691D01*
X156756698Y-119016183D01*
X156770132Y-119017946D01*
X156783483Y-119019981D01*
X156796753Y-119022287D01*
X156807860Y-119024514D01*
X156819130Y-119027197D01*
X156830564Y-119030336D01*
X156842163Y-119033933D01*
X156853925Y-119037986D01*
X156865851Y-119042496D01*
X156877941Y-119047463D01*
X156890196Y-119052887D01*
X156902614Y-119058767D01*
X156915196Y-119065104D01*
X156927943Y-119071898D01*
X156939748Y-119078491D01*
X156951277Y-119085405D01*
X156962531Y-119092641D01*
X156973510Y-119100197D01*
X156984213Y-119108075D01*
X156994640Y-119116275D01*
X157004791Y-119124796D01*
X157014667Y-119133638D01*
X157024267Y-119142801D01*
X157033592Y-119152286D01*
X157042641Y-119162092D01*
X157051415Y-119172219D01*
X157058245Y-119180677D01*
X157064918Y-119189585D01*
X157071435Y-119198944D01*
X157077795Y-119208754D01*
X157083998Y-119219015D01*
X157090044Y-119229727D01*
X157095933Y-119240889D01*
X157101666Y-119252502D01*
X157107242Y-119264566D01*
X157112661Y-119277080D01*
X157117923Y-119290045D01*
X157123029Y-119303461D01*
X157127977Y-119317328D01*
X157132769Y-119331646D01*
X157137404Y-119346414D01*
X157141020Y-119358232D01*
X157144440Y-119370245D01*
X157147665Y-119382453D01*
X157150695Y-119394857D01*
X157153529Y-119407456D01*
X157156167Y-119420251D01*
X157158610Y-119433242D01*
X157160858Y-119446428D01*
X157162910Y-119459809D01*
X157164767Y-119473386D01*
X157166428Y-119487158D01*
X157167894Y-119501126D01*
X157169164Y-119515289D01*
X157170239Y-119529647D01*
X157171119Y-119544202D01*
X157171803Y-119558951D01*
X157172291Y-119573896D01*
X157172584Y-119589037D01*
X157172682Y-119604373D01*
X157172577Y-119620222D01*
X157172262Y-119635851D01*
X157171737Y-119651260D01*
X157171002Y-119666450D01*
X157170057Y-119681419D01*
X157168902Y-119696168D01*
X157167537Y-119710697D01*
X157165963Y-119725006D01*
X157164178Y-119739096D01*
X157162183Y-119752965D01*
X157159978Y-119766614D01*
X157157563Y-119780043D01*
X157154938Y-119793252D01*
X157152103Y-119806241D01*
X157149059Y-119819010D01*
X157145804Y-119831560D01*
X157142339Y-119843889D01*
X157138664Y-119855998D01*
X157134780Y-119867887D01*
X157130685Y-119879556D01*
X157126380Y-119891005D01*
X157120592Y-119905513D01*
X157114529Y-119919548D01*
X157108190Y-119933109D01*
X157101575Y-119946196D01*
X157094685Y-119958810D01*
X157087519Y-119970950D01*
X157080078Y-119982616D01*
X157072361Y-119993809D01*
X157064368Y-120004528D01*
X157056100Y-120014774D01*
X157047556Y-120024545D01*
X157038737Y-120033843D01*
X157029642Y-120042668D01*
X157020271Y-120051018D01*
X157010625Y-120058895D01*
X157000703Y-120066299D01*
X156989189Y-120074324D01*
X156977642Y-120082023D01*
X156966061Y-120089396D01*
X156954446Y-120096443D01*
X156942797Y-120103164D01*
X156931115Y-120109559D01*
X156919399Y-120115628D01*
X156907649Y-120121370D01*
X156895865Y-120126787D01*
X156884048Y-120131877D01*
X156872197Y-120136642D01*
X156860312Y-120141080D01*
X156848393Y-120145192D01*
X156836441Y-120148979D01*
X156824539Y-120152319D01*
X156812457Y-120155412D01*
X156800196Y-120158257D01*
X156787754Y-120160855D01*
X156775132Y-120163206D01*
X156762331Y-120165309D01*
X156749349Y-120167165D01*
X156736187Y-120168773D01*
X156722846Y-120170134D01*
X156709324Y-120171248D01*
X156695622Y-120172114D01*
X156681741Y-120172732D01*
X156667679Y-120173103D01*
X156653437Y-120173227D01*
X156639626Y-120173125D01*
X156625877Y-120172819D01*
X156612188Y-120172309D01*
X156598561Y-120171594D01*
X156584995Y-120170676D01*
X156571490Y-120169553D01*
X156558047Y-120168226D01*
X156544664Y-120166695D01*
X156531343Y-120164960D01*
X156518083Y-120163021D01*
X156504885Y-120160877D01*
X156491748Y-120158530D01*
X156478672Y-120155978D01*
X156465657Y-120153223D01*
X156452703Y-120150263D01*
X156439811Y-120147099D01*
X156426980Y-120143731D01*
X156414210Y-120140158D01*
X156414210Y-120584444D01*
X156206953Y-120584444D01*
X156206953Y-120584474D01*
X156206953Y-120584474D01*
G37*
G36*
X157453802Y-119885526D02*
X157639010Y-119385022D01*
X157636073Y-119395396D01*
X157633326Y-119406123D01*
X157630768Y-119417204D01*
X157628400Y-119428637D01*
X157626220Y-119440424D01*
X157624231Y-119452564D01*
X157622431Y-119465057D01*
X157620820Y-119477903D01*
X157619399Y-119491102D01*
X157618168Y-119504655D01*
X157617125Y-119518560D01*
X157616273Y-119532819D01*
X157615610Y-119547431D01*
X157615136Y-119562396D01*
X157614852Y-119577714D01*
X157614757Y-119593385D01*
X157614852Y-119609060D01*
X157615136Y-119624391D01*
X157615610Y-119639377D01*
X157616273Y-119654019D01*
X157617125Y-119668316D01*
X157618168Y-119682269D01*
X157619399Y-119695877D01*
X157620820Y-119709141D01*
X157622431Y-119722060D01*
X157624231Y-119734635D01*
X157626220Y-119746865D01*
X157628400Y-119758750D01*
X157630768Y-119770291D01*
X157633326Y-119781487D01*
X157636073Y-119792339D01*
X157639010Y-119802846D01*
X157643821Y-119817333D01*
X157649033Y-119831127D01*
X157654645Y-119844229D01*
X157660658Y-119856639D01*
X157667072Y-119868356D01*
X157673887Y-119879381D01*
X157681103Y-119889713D01*
X157688720Y-119899353D01*
X157696738Y-119908301D01*
X157705156Y-119916556D01*
X157713976Y-119924119D01*
X157725014Y-119932610D01*
X157736079Y-119940447D01*
X157747171Y-119947632D01*
X157758291Y-119954163D01*
X157769438Y-119960042D01*
X157780612Y-119965267D01*
X157791813Y-119969840D01*
X157803041Y-119973760D01*
X157814297Y-119977026D01*
X157825825Y-119979806D01*
X157837870Y-119982259D01*
X157850432Y-119984385D01*
X157863512Y-119986184D01*
X157877108Y-119987656D01*
X157891222Y-119988800D01*
X157905853Y-119989618D01*
X157921001Y-119990108D01*
X157936667Y-119990272D01*
X157952563Y-119990108D01*
X157967916Y-119989618D01*
X157982724Y-119988800D01*
X157996987Y-119987656D01*
X158010706Y-119986184D01*
X158023881Y-119984385D01*
X158036511Y-119982259D01*
X158048597Y-119979806D01*
X158060139Y-119977026D01*
X158071394Y-119973757D01*
X158082623Y-119969835D01*
X158093824Y-119965261D01*
X158104998Y-119960034D01*
X158116145Y-119954156D01*
X158127265Y-119947625D01*
X158138357Y-119940442D01*
X158149422Y-119932607D01*
X158160460Y-119924119D01*
X158169270Y-119916556D01*
X158177662Y-119908301D01*
X158185634Y-119899353D01*
X158193187Y-119889713D01*
X158200321Y-119879381D01*
X158207035Y-119868356D01*
X158213331Y-119856639D01*
X158219208Y-119844229D01*
X158224665Y-119831127D01*
X158229704Y-119817333D01*
X158234323Y-119802846D01*
X158237393Y-119792339D01*
X158240266Y-119781487D01*
X158242940Y-119770291D01*
X158245416Y-119758750D01*
X158247694Y-119746865D01*
X158249774Y-119734635D01*
X158251656Y-119722060D01*
X158253340Y-119709141D01*
X158254826Y-119695877D01*
X158256113Y-119682269D01*
X158257203Y-119668316D01*
X158258094Y-119654019D01*
X158258787Y-119639377D01*
X158259283Y-119624391D01*
X158259580Y-119609060D01*
X158259679Y-119593385D01*
X158259580Y-119577714D01*
X158259283Y-119562396D01*
X158258787Y-119547431D01*
X158258094Y-119532819D01*
X158257203Y-119518560D01*
X158256113Y-119504655D01*
X158254826Y-119491102D01*
X158253340Y-119477903D01*
X158251656Y-119465057D01*
X158249774Y-119452564D01*
X158247694Y-119440424D01*
X158245416Y-119428637D01*
X158242940Y-119417204D01*
X158240266Y-119406123D01*
X158237393Y-119395396D01*
X158234323Y-119385022D01*
X158229704Y-119370345D01*
X158224665Y-119356378D01*
X158219208Y-119343121D01*
X158213331Y-119330576D01*
X158207035Y-119318740D01*
X158200321Y-119307616D01*
X158193187Y-119297201D01*
X158185634Y-119287498D01*
X158177662Y-119278505D01*
X158169270Y-119270222D01*
X158160460Y-119262650D01*
X158149422Y-119254160D01*
X158138357Y-119246322D01*
X158127265Y-119239138D01*
X158116145Y-119232606D01*
X158104998Y-119226728D01*
X158093824Y-119221502D01*
X158082623Y-119216929D01*
X158071394Y-119213010D01*
X158060139Y-119209743D01*
X158048597Y-119206963D01*
X158036511Y-119204510D01*
X158023881Y-119202384D01*
X158010706Y-119200586D01*
X157996987Y-119199114D01*
X157982724Y-119197969D01*
X157967916Y-119197152D01*
X157952563Y-119196661D01*
X157936667Y-119196497D01*
X157921001Y-119196661D01*
X157905853Y-119197152D01*
X157891222Y-119197969D01*
X157877108Y-119199114D01*
X157863512Y-119200586D01*
X157850432Y-119202384D01*
X157837870Y-119204510D01*
X157825825Y-119206963D01*
X157814297Y-119209743D01*
X157803041Y-119213013D01*
X157791813Y-119216935D01*
X157780612Y-119221509D01*
X157769438Y-119226735D01*
X157758291Y-119232614D01*
X157747171Y-119239144D01*
X157736079Y-119246327D01*
X157725014Y-119254163D01*
X157713976Y-119262650D01*
X157705156Y-119270222D01*
X157696738Y-119278505D01*
X157688720Y-119287498D01*
X157681103Y-119297201D01*
X157673887Y-119307616D01*
X157667072Y-119318740D01*
X157660658Y-119330576D01*
X157654645Y-119343121D01*
X157649033Y-119356378D01*
X157643821Y-119370345D01*
X157639010Y-119385022D01*
X157453802Y-119885526D01*
X157449590Y-119874495D01*
X157445575Y-119863251D01*
X157441755Y-119851792D01*
X157438131Y-119840119D01*
X157434703Y-119828232D01*
X157431471Y-119816130D01*
X157428435Y-119803815D01*
X157425594Y-119791285D01*
X157422950Y-119778541D01*
X157420501Y-119765583D01*
X157418249Y-119752411D01*
X157416192Y-119739025D01*
X157414331Y-119725425D01*
X157412666Y-119711610D01*
X157411197Y-119697581D01*
X157409924Y-119683339D01*
X157408846Y-119668882D01*
X157407965Y-119654211D01*
X157407279Y-119639325D01*
X157406789Y-119624226D01*
X157406496Y-119608912D01*
X157406398Y-119593385D01*
X157406496Y-119577859D01*
X157406789Y-119562553D01*
X157407279Y-119547464D01*
X157407965Y-119532595D01*
X157408846Y-119517944D01*
X157409924Y-119503512D01*
X157411197Y-119489299D01*
X157412666Y-119475305D01*
X157414331Y-119461529D01*
X157416192Y-119447971D01*
X157418249Y-119434633D01*
X157420501Y-119421513D01*
X157422950Y-119408612D01*
X157425594Y-119395929D01*
X157428435Y-119383465D01*
X157431471Y-119371220D01*
X157434703Y-119359194D01*
X157438131Y-119347386D01*
X157441755Y-119335797D01*
X157445575Y-119324427D01*
X157449590Y-119313275D01*
X157453802Y-119302342D01*
X157459497Y-119288416D01*
X157465429Y-119274908D01*
X157471597Y-119261821D01*
X157478002Y-119249153D01*
X157484643Y-119236904D01*
X157491521Y-119225075D01*
X157498635Y-119213665D01*
X157505986Y-119202674D01*
X157513574Y-119192104D01*
X157521397Y-119181952D01*
X157529458Y-119172220D01*
X157537755Y-119162908D01*
X157546288Y-119154015D01*
X157555058Y-119145542D01*
X157564064Y-119137488D01*
X157573307Y-119129853D01*
X157582786Y-119122638D01*
X157594458Y-119114314D01*
X157606162Y-119106349D01*
X157617901Y-119098745D01*
X157629674Y-119091501D01*
X157641480Y-119084617D01*
X157653320Y-119078093D01*
X157665193Y-119071928D01*
X157677101Y-119066124D01*
X157689042Y-119060680D01*
X157701017Y-119055596D01*
X157713025Y-119050872D01*
X157725068Y-119046508D01*
X157737144Y-119042504D01*
X157749253Y-119038859D01*
X157761616Y-119035368D01*
X157774137Y-119032135D01*
X157786815Y-119029160D01*
X157799650Y-119026444D01*
X157812643Y-119023987D01*
X157825794Y-119021789D01*
X157839102Y-119019849D01*
X157852567Y-119018168D01*
X157866190Y-119016745D01*
X157879970Y-119015581D01*
X157893908Y-119014676D01*
X157908003Y-119014029D01*
X157922256Y-119013641D01*
X157936667Y-119013512D01*
X157951223Y-119013641D01*
X157965600Y-119014029D01*
X157979796Y-119014676D01*
X157993813Y-119015581D01*
X158007650Y-119016745D01*
X158021306Y-119018168D01*
X158034783Y-119019849D01*
X158048080Y-119021789D01*
X158061196Y-119023987D01*
X158074133Y-119026444D01*
X158086890Y-119029160D01*
X158099466Y-119032135D01*
X158111863Y-119035368D01*
X158124080Y-119038859D01*
X158136342Y-119042504D01*
X158148558Y-119046508D01*
X158160730Y-119050872D01*
X158172857Y-119055596D01*
X158184938Y-119060680D01*
X158196975Y-119066124D01*
X158208967Y-119071928D01*
X158220914Y-119078093D01*
X158232815Y-119084617D01*
X158244672Y-119091501D01*
X158256484Y-119098745D01*
X158268251Y-119106349D01*
X158279972Y-119114314D01*
X158291649Y-119122638D01*
X158301129Y-119129853D01*
X158310372Y-119137488D01*
X158319378Y-119145542D01*
X158328148Y-119154015D01*
X158336681Y-119162908D01*
X158344978Y-119172220D01*
X158353038Y-119181952D01*
X158360862Y-119192104D01*
X158368449Y-119202674D01*
X158375800Y-119213665D01*
X158382915Y-119225075D01*
X158389792Y-119236904D01*
X158396434Y-119249153D01*
X158402838Y-119261821D01*
X158409007Y-119274908D01*
X158414938Y-119288416D01*
X158420634Y-119302342D01*
X158424845Y-119313275D01*
X158428861Y-119324427D01*
X158432681Y-119335797D01*
X158436305Y-119347386D01*
X158439733Y-119359194D01*
X158442965Y-119371220D01*
X158446001Y-119383465D01*
X158448841Y-119395929D01*
X158451486Y-119408612D01*
X158453934Y-119421513D01*
X158456187Y-119434633D01*
X158458244Y-119447971D01*
X158460105Y-119461529D01*
X158461770Y-119475305D01*
X158463239Y-119489299D01*
X158464512Y-119503512D01*
X158465590Y-119517944D01*
X158466471Y-119532595D01*
X158467157Y-119547464D01*
X158467646Y-119562553D01*
X158467940Y-119577859D01*
X158468038Y-119593385D01*
X158467940Y-119608912D01*
X158467646Y-119624226D01*
X158467157Y-119639325D01*
X158466471Y-119654211D01*
X158465590Y-119668882D01*
X158464512Y-119683339D01*
X158463239Y-119697581D01*
X158461770Y-119711610D01*
X158460105Y-119725425D01*
X158458244Y-119739025D01*
X158456187Y-119752411D01*
X158453934Y-119765583D01*
X158451486Y-119778541D01*
X158448841Y-119791285D01*
X158446001Y-119803815D01*
X158442965Y-119816130D01*
X158439733Y-119828232D01*
X158436305Y-119840119D01*
X158432681Y-119851792D01*
X158428861Y-119863251D01*
X158424845Y-119874495D01*
X158420634Y-119885526D01*
X158414938Y-119899327D01*
X158409007Y-119912716D01*
X158402838Y-119925693D01*
X158396434Y-119938259D01*
X158389792Y-119950412D01*
X158382915Y-119962153D01*
X158375800Y-119973482D01*
X158368449Y-119984400D01*
X158360862Y-119994905D01*
X158353038Y-120004998D01*
X158344978Y-120014680D01*
X158336681Y-120023949D01*
X158328148Y-120032806D01*
X158319378Y-120041252D01*
X158310372Y-120049285D01*
X158301129Y-120056907D01*
X158291649Y-120064116D01*
X158279972Y-120072446D01*
X158268251Y-120080428D01*
X158256484Y-120088060D01*
X158244672Y-120095344D01*
X158232815Y-120102280D01*
X158220914Y-120108866D01*
X158208967Y-120115104D01*
X158196975Y-120120994D01*
X158184938Y-120126535D01*
X158172857Y-120131727D01*
X158160730Y-120136570D01*
X158148558Y-120141065D01*
X158136342Y-120145211D01*
X158124080Y-120149009D01*
X158111863Y-120152349D01*
X158099466Y-120155442D01*
X158086890Y-120158288D01*
X158074133Y-120160886D01*
X158061196Y-120163236D01*
X158048080Y-120165339D01*
X158034783Y-120167195D01*
X158021306Y-120168803D01*
X158007650Y-120170164D01*
X157993813Y-120171278D01*
X157979796Y-120172144D01*
X157965600Y-120172762D01*
X157951223Y-120173134D01*
X157936667Y-120173257D01*
X157922256Y-120173134D01*
X157908003Y-120172762D01*
X157893908Y-120172144D01*
X157879970Y-120171278D01*
X157866190Y-120170164D01*
X157852567Y-120168803D01*
X157839102Y-120167195D01*
X157825794Y-120165339D01*
X157812643Y-120163236D01*
X157799650Y-120160886D01*
X157786815Y-120158288D01*
X157774137Y-120155442D01*
X157761616Y-120152349D01*
X157749253Y-120149009D01*
X157737144Y-120145211D01*
X157725068Y-120141065D01*
X157713025Y-120136570D01*
X157701017Y-120131727D01*
X157689042Y-120126535D01*
X157677101Y-120120994D01*
X157665193Y-120115104D01*
X157653320Y-120108866D01*
X157641480Y-120102280D01*
X157629674Y-120095344D01*
X157617901Y-120088060D01*
X157606162Y-120080428D01*
X157594458Y-120072446D01*
X157582786Y-120064116D01*
X157573307Y-120056907D01*
X157564064Y-120049285D01*
X157555058Y-120041252D01*
X157546288Y-120032806D01*
X157537755Y-120023949D01*
X157529458Y-120014680D01*
X157521397Y-120004998D01*
X157513574Y-119994905D01*
X157505986Y-119984400D01*
X157498635Y-119973482D01*
X157491521Y-119962153D01*
X157484643Y-119950412D01*
X157478002Y-119938259D01*
X157471597Y-119925693D01*
X157465429Y-119912716D01*
X157459497Y-119899327D01*
X157453802Y-119885526D01*
X157453802Y-119885526D01*
G37*
G36*
X158767899Y-120155617D02*
X158767899Y-118600098D01*
X158975156Y-118600098D01*
X158975156Y-120155617D01*
X158767899Y-120155617D01*
X158767899Y-120155617D01*
G37*
G36*
X159222101Y-119028940D02*
X159443689Y-119028940D01*
X159746858Y-119873394D01*
X160044514Y-119028940D01*
X160266102Y-119028940D01*
X159803082Y-120275791D01*
X159797155Y-120291408D01*
X159791098Y-120306640D01*
X159784912Y-120321486D01*
X159778596Y-120335947D01*
X159772150Y-120350022D01*
X159765574Y-120363711D01*
X159758868Y-120377015D01*
X159752033Y-120389933D01*
X159745067Y-120402466D01*
X159737972Y-120414613D01*
X159730747Y-120426374D01*
X159723392Y-120437750D01*
X159715907Y-120448740D01*
X159708292Y-120459344D01*
X159700548Y-120469563D01*
X159692673Y-120479397D01*
X159684669Y-120488844D01*
X159676535Y-120497906D01*
X159668271Y-120506583D01*
X159659877Y-120514873D01*
X159651353Y-120522779D01*
X159642700Y-120530298D01*
X159633917Y-120537432D01*
X159625003Y-120544180D01*
X159615960Y-120550543D01*
X159606787Y-120556520D01*
X159597485Y-120562112D01*
X159588052Y-120567317D01*
X159578489Y-120572138D01*
X159568797Y-120576572D01*
X159558975Y-120580621D01*
X159549023Y-120584285D01*
X159538941Y-120587562D01*
X159528729Y-120590454D01*
X159518388Y-120592961D01*
X159507916Y-120595082D01*
X159497315Y-120596817D01*
X159486584Y-120598167D01*
X159475723Y-120599131D01*
X159464732Y-120599709D01*
X159453611Y-120599902D01*
X159452512Y-120599902D01*
X159439965Y-120599780D01*
X159427310Y-120599412D01*
X159414547Y-120598799D01*
X159401678Y-120597942D01*
X159388701Y-120596839D01*
X159375618Y-120595492D01*
X159362427Y-120593899D01*
X159349129Y-120592062D01*
X159335724Y-120589979D01*
X159322211Y-120587651D01*
X159308591Y-120585079D01*
X159294865Y-120582261D01*
X159294865Y-120397048D01*
X159308237Y-120400411D01*
X159321455Y-120403443D01*
X159334519Y-120406145D01*
X159347429Y-120408517D01*
X159360184Y-120410557D01*
X159372785Y-120412267D01*
X159385231Y-120413647D01*
X159397523Y-120414696D01*
X159409661Y-120415415D01*
X159421644Y-120415803D01*
X159430918Y-120415514D01*
X159440072Y-120414646D01*
X159449106Y-120413201D01*
X159458020Y-120411177D01*
X159466813Y-120408575D01*
X159475487Y-120405395D01*
X159484041Y-120401637D01*
X159492474Y-120397301D01*
X159500788Y-120392386D01*
X159508981Y-120386893D01*
X159517055Y-120380822D01*
X159525008Y-120374173D01*
X159532841Y-120366946D01*
X159540555Y-120359140D01*
X159548148Y-120350756D01*
X159555621Y-120341794D01*
X159562975Y-120332254D01*
X159570208Y-120322136D01*
X159577321Y-120311439D01*
X159584314Y-120300164D01*
X159591187Y-120288312D01*
X159597940Y-120275880D01*
X159604573Y-120262871D01*
X159611086Y-120249284D01*
X159617479Y-120235118D01*
X159623752Y-120220374D01*
X159629904Y-120205052D01*
X159635937Y-120189152D01*
X159641850Y-120172673D01*
X159647642Y-120155617D01*
X159222104Y-119028940D01*
X159222101Y-119028940D01*
X159222101Y-119028940D01*
G37*
G36*
X160416033Y-119347543D02*
X160416281Y-119333646D01*
X160417025Y-119319959D01*
X160418265Y-119306482D01*
X160420002Y-119293214D01*
X160422234Y-119280156D01*
X160424963Y-119267307D01*
X160428187Y-119254667D01*
X160431908Y-119242238D01*
X160436125Y-119230017D01*
X160440838Y-119218007D01*
X160446047Y-119206205D01*
X160451752Y-119194614D01*
X160457953Y-119183231D01*
X160464650Y-119172059D01*
X160471844Y-119161096D01*
X160479533Y-119150342D01*
X160487719Y-119139798D01*
X160496400Y-119129463D01*
X160505578Y-119119338D01*
X160515252Y-119109423D01*
X160523445Y-119101730D01*
X160531973Y-119094351D01*
X160540837Y-119087286D01*
X160550036Y-119080535D01*
X160559569Y-119074098D01*
X160569438Y-119067975D01*
X160579643Y-119062166D01*
X160590182Y-119056672D01*
X160601056Y-119051491D01*
X160612266Y-119046624D01*
X160623810Y-119042071D01*
X160635690Y-119037832D01*
X160647905Y-119033907D01*
X160660455Y-119030296D01*
X160673340Y-119026999D01*
X160686561Y-119024016D01*
X160700116Y-119021347D01*
X160714007Y-119018992D01*
X160728232Y-119016951D01*
X160742793Y-119015224D01*
X160757689Y-119013811D01*
X160772921Y-119012712D01*
X160788487Y-119011927D01*
X160804388Y-119011457D01*
X160820625Y-119011300D01*
X160833942Y-119011439D01*
X160847242Y-119011858D01*
X160860525Y-119012556D01*
X160873792Y-119013533D01*
X160887042Y-119014790D01*
X160900275Y-119016326D01*
X160913492Y-119018141D01*
X160926692Y-119020235D01*
X160939875Y-119022609D01*
X160953042Y-119025262D01*
X160966192Y-119028194D01*
X160979325Y-119031405D01*
X160992442Y-119034895D01*
X161005542Y-119038665D01*
X161018625Y-119042714D01*
X161031692Y-119047042D01*
X161044741Y-119051650D01*
X161057775Y-119056537D01*
X161070791Y-119061703D01*
X161083791Y-119067148D01*
X161096775Y-119072872D01*
X161109741Y-119078876D01*
X161122691Y-119085159D01*
X161122691Y-119263749D01*
X161108764Y-119257498D01*
X161094913Y-119251552D01*
X161081136Y-119245911D01*
X161067434Y-119240575D01*
X161053808Y-119235543D01*
X161040256Y-119230817D01*
X161026780Y-119226395D01*
X161013378Y-119222279D01*
X161000051Y-119218467D01*
X160986800Y-119214961D01*
X160973623Y-119211759D01*
X160960521Y-119208862D01*
X160947495Y-119206270D01*
X160934543Y-119203983D01*
X160921666Y-119202001D01*
X160908864Y-119200324D01*
X160896138Y-119198952D01*
X160883486Y-119197885D01*
X160870909Y-119197122D01*
X160858408Y-119196665D01*
X160845981Y-119196513D01*
X160829711Y-119196711D01*
X160814054Y-119197305D01*
X160799012Y-119198295D01*
X160784584Y-119199682D01*
X160770769Y-119201465D01*
X160757569Y-119203644D01*
X160744982Y-119206219D01*
X160733010Y-119209190D01*
X160721651Y-119212558D01*
X160710907Y-119216322D01*
X160700776Y-119220481D01*
X160691260Y-119225037D01*
X160682357Y-119229990D01*
X160674068Y-119235338D01*
X160666394Y-119241083D01*
X160659333Y-119247224D01*
X160652886Y-119253760D01*
X160647053Y-119260694D01*
X160641835Y-119268023D01*
X160637230Y-119275748D01*
X160633239Y-119283870D01*
X160629862Y-119292388D01*
X160627099Y-119301302D01*
X160624950Y-119310612D01*
X160623416Y-119320319D01*
X160622495Y-119330421D01*
X160622188Y-119340920D01*
X160622923Y-119351266D01*
X160625127Y-119361230D01*
X160628802Y-119370813D01*
X160633947Y-119380015D01*
X160640561Y-119388835D01*
X160648646Y-119397274D01*
X160658200Y-119405332D01*
X160669225Y-119413008D01*
X160681719Y-119420303D01*
X160692743Y-119425862D01*
X160704168Y-119431310D01*
X160715994Y-119436650D01*
X160728221Y-119441880D01*
X160740849Y-119447000D01*
X160753878Y-119452011D01*
X160767307Y-119456912D01*
X160781138Y-119461704D01*
X160795369Y-119466387D01*
X160810002Y-119470960D01*
X160825035Y-119475423D01*
X160837925Y-119479050D01*
X160850815Y-119482807D01*
X160863705Y-119486695D01*
X160876595Y-119490714D01*
X160889485Y-119494863D01*
X160902375Y-119499143D01*
X160915264Y-119503553D01*
X160928154Y-119508094D01*
X160941044Y-119512765D01*
X160953934Y-119517567D01*
X160966824Y-119522499D01*
X160979714Y-119527562D01*
X160992604Y-119532756D01*
X161004602Y-119537716D01*
X161016340Y-119543149D01*
X161027820Y-119549054D01*
X161039041Y-119555432D01*
X161050004Y-119562282D01*
X161060707Y-119569605D01*
X161071152Y-119577400D01*
X161081339Y-119585667D01*
X161091266Y-119594407D01*
X161100935Y-119603619D01*
X161110345Y-119613304D01*
X161119496Y-119623461D01*
X161128389Y-119634091D01*
X161137023Y-119645193D01*
X161144365Y-119655262D01*
X161151234Y-119665624D01*
X161157629Y-119676279D01*
X161163550Y-119687226D01*
X161168997Y-119698466D01*
X161173971Y-119709999D01*
X161178471Y-119721825D01*
X161182498Y-119733943D01*
X161186051Y-119746353D01*
X161189130Y-119759057D01*
X161191735Y-119772053D01*
X161193867Y-119785342D01*
X161195525Y-119798923D01*
X161196709Y-119812798D01*
X161197419Y-119826965D01*
X161197656Y-119841424D01*
X161197400Y-119854891D01*
X161196631Y-119868170D01*
X161195349Y-119881262D01*
X161193555Y-119894166D01*
X161191248Y-119906883D01*
X161188429Y-119919412D01*
X161185097Y-119931754D01*
X161181252Y-119943909D01*
X161176895Y-119955877D01*
X161172025Y-119967657D01*
X161166642Y-119979249D01*
X161160747Y-119990654D01*
X161154339Y-120001872D01*
X161147419Y-120012902D01*
X161139985Y-120023745D01*
X161132040Y-120034401D01*
X161123581Y-120044869D01*
X161114610Y-120055150D01*
X161105127Y-120065243D01*
X161095130Y-120075149D01*
X161087077Y-120082551D01*
X161078692Y-120089662D01*
X161069973Y-120096483D01*
X161060922Y-120103014D01*
X161051539Y-120109255D01*
X161041822Y-120115205D01*
X161031773Y-120120865D01*
X161021391Y-120126235D01*
X161010677Y-120131315D01*
X160999630Y-120136104D01*
X160988250Y-120140603D01*
X160976537Y-120144812D01*
X160964492Y-120148730D01*
X160952114Y-120152359D01*
X160939404Y-120155697D01*
X160926361Y-120158744D01*
X160912985Y-120161502D01*
X160899276Y-120163969D01*
X160885235Y-120166146D01*
X160870861Y-120168033D01*
X160856154Y-120169629D01*
X160841115Y-120170935D01*
X160825743Y-120171951D01*
X160810038Y-120172677D01*
X160794000Y-120173112D01*
X160777630Y-120173257D01*
X160763225Y-120173132D01*
X160748935Y-120172756D01*
X160734762Y-120172130D01*
X160720706Y-120171254D01*
X160706766Y-120170127D01*
X160692942Y-120168749D01*
X160679235Y-120167121D01*
X160665644Y-120165242D01*
X160652170Y-120163114D01*
X160638812Y-120160734D01*
X160625571Y-120158104D01*
X160612446Y-120155224D01*
X160599437Y-120152093D01*
X160586545Y-120148712D01*
X160573769Y-120145080D01*
X160561109Y-120141198D01*
X160548566Y-120137065D01*
X160536140Y-120132682D01*
X160523830Y-120128049D01*
X160511636Y-120123165D01*
X160499558Y-120118030D01*
X160487598Y-120112645D01*
X160475753Y-120107010D01*
X160464025Y-120101124D01*
X160452413Y-120094988D01*
X160452413Y-119907577D01*
X160464664Y-119914324D01*
X160476981Y-119920783D01*
X160489362Y-119926955D01*
X160501808Y-119932840D01*
X160514320Y-119938438D01*
X160526896Y-119943749D01*
X160539538Y-119948773D01*
X160552244Y-119953510D01*
X160565016Y-119957960D01*
X160577853Y-119962123D01*
X160590755Y-119965998D01*
X160603722Y-119969587D01*
X160616754Y-119972888D01*
X160629851Y-119975903D01*
X160643013Y-119978630D01*
X160656240Y-119981070D01*
X160669533Y-119983223D01*
X160682890Y-119985089D01*
X160696313Y-119986668D01*
X160709800Y-119987960D01*
X160723353Y-119988965D01*
X160736970Y-119989683D01*
X160750653Y-119990113D01*
X160764401Y-119990257D01*
X160768811Y-119990257D01*
X160785126Y-119990029D01*
X160800827Y-119989344D01*
X160815916Y-119988202D01*
X160830391Y-119986605D01*
X160844253Y-119984550D01*
X160857501Y-119982039D01*
X160870137Y-119979072D01*
X160882159Y-119975648D01*
X160893568Y-119971767D01*
X160904364Y-119967430D01*
X160914547Y-119962636D01*
X160924117Y-119957386D01*
X160933073Y-119951679D01*
X160943965Y-119943531D01*
X160953711Y-119934965D01*
X160962310Y-119925980D01*
X160969762Y-119916576D01*
X160976068Y-119906753D01*
X160981228Y-119896512D01*
X160985240Y-119885851D01*
X160988107Y-119874772D01*
X160989827Y-119863275D01*
X160990400Y-119851358D01*
X160989908Y-119838956D01*
X160988432Y-119827010D01*
X160985972Y-119815520D01*
X160982528Y-119804485D01*
X160978100Y-119793906D01*
X160972688Y-119783783D01*
X160966292Y-119774116D01*
X160958912Y-119764905D01*
X160950548Y-119756149D01*
X160941200Y-119747849D01*
X160930869Y-119740005D01*
X160920947Y-119732978D01*
X160910657Y-119726226D01*
X160900000Y-119719751D01*
X160888976Y-119713550D01*
X160877584Y-119707626D01*
X160865825Y-119701976D01*
X160853698Y-119696603D01*
X160841204Y-119691504D01*
X160828343Y-119686682D01*
X160815113Y-119682135D01*
X160801517Y-119677863D01*
X160787553Y-119673867D01*
X160774493Y-119670108D01*
X160761433Y-119666297D01*
X160748374Y-119662434D01*
X160735314Y-119658519D01*
X160722255Y-119654552D01*
X160709195Y-119650534D01*
X160696136Y-119646463D01*
X160683076Y-119642340D01*
X160670017Y-119638165D01*
X160656957Y-119633938D01*
X160643897Y-119629659D01*
X160630838Y-119625328D01*
X160617778Y-119620945D01*
X160605032Y-119616143D01*
X160592572Y-119610897D01*
X160580400Y-119605208D01*
X160568515Y-119599076D01*
X160556916Y-119592501D01*
X160545605Y-119585482D01*
X160534581Y-119578020D01*
X160523843Y-119570114D01*
X160513393Y-119561765D01*
X160503230Y-119552973D01*
X160493354Y-119543737D01*
X160483764Y-119534058D01*
X160474462Y-119523935D01*
X160466931Y-119514646D01*
X160459920Y-119505003D01*
X160453428Y-119495008D01*
X160447455Y-119484659D01*
X160442002Y-119473958D01*
X160437068Y-119462904D01*
X160432653Y-119451498D01*
X160428758Y-119439738D01*
X160425382Y-119427626D01*
X160422526Y-119415161D01*
X160420188Y-119402343D01*
X160418371Y-119389172D01*
X160417072Y-119375648D01*
X160416293Y-119361772D01*
X160416033Y-119347543D01*
X160416033Y-119347543D01*
X160416033Y-119347543D01*
G37*
G36*
X161358611Y-119203120D02*
X161358611Y-119028940D01*
X161554844Y-119028940D01*
X161554844Y-118692697D01*
X161760998Y-118692697D01*
X161760998Y-119028940D01*
X162060859Y-119028940D01*
X162060859Y-119203120D01*
X161760998Y-119203120D01*
X161760998Y-119857966D01*
X161761342Y-119869719D01*
X161762374Y-119880926D01*
X161764094Y-119891585D01*
X161766501Y-119901699D01*
X161769597Y-119911265D01*
X161773380Y-119920285D01*
X161777851Y-119928758D01*
X161783011Y-119936685D01*
X161788857Y-119944064D01*
X161795392Y-119950898D01*
X161802615Y-119957184D01*
X161810526Y-119962924D01*
X161819124Y-119968117D01*
X161828411Y-119972764D01*
X161838385Y-119976864D01*
X161849047Y-119980417D01*
X161860397Y-119983424D01*
X161872435Y-119985884D01*
X161885161Y-119987797D01*
X161898574Y-119989164D01*
X161912676Y-119989984D01*
X161927465Y-119990257D01*
X161929670Y-119990257D01*
X161944873Y-119989926D01*
X161959613Y-119988934D01*
X161973889Y-119987281D01*
X161987702Y-119984966D01*
X162001053Y-119981990D01*
X162013940Y-119978352D01*
X162026365Y-119974053D01*
X162038326Y-119969093D01*
X162049824Y-119963471D01*
X162060860Y-119957188D01*
X162060860Y-120142401D01*
X162047998Y-120147329D01*
X162035136Y-120151829D01*
X162022275Y-120155901D01*
X162009413Y-120159543D01*
X161996551Y-120162758D01*
X161983690Y-120165543D01*
X161970828Y-120167900D01*
X161957966Y-120169829D01*
X161945105Y-120171329D01*
X161932243Y-120172400D01*
X161919381Y-120173043D01*
X161906520Y-120173257D01*
X161901008Y-120173257D01*
X161889241Y-120173055D01*
X161877249Y-120172446D01*
X161865032Y-120171433D01*
X161852590Y-120170013D01*
X161839924Y-120168189D01*
X161827032Y-120165959D01*
X161813915Y-120163323D01*
X161803395Y-120160884D01*
X161792411Y-120157984D01*
X161780965Y-120154621D01*
X161769056Y-120150797D01*
X161756684Y-120146511D01*
X161743850Y-120141762D01*
X161730553Y-120136552D01*
X161716793Y-120130879D01*
X161702570Y-120124745D01*
X161691126Y-120118986D01*
X161680048Y-120112534D01*
X161669333Y-120105390D01*
X161658983Y-120097553D01*
X161648997Y-120089024D01*
X161639376Y-120079803D01*
X161630119Y-120069889D01*
X161621227Y-120059283D01*
X161612699Y-120047985D01*
X161604536Y-120035994D01*
X161596737Y-120023311D01*
X161590966Y-120012742D01*
X161585622Y-120001825D01*
X161580706Y-119990559D01*
X161576218Y-119978944D01*
X161572157Y-119966981D01*
X161568523Y-119954669D01*
X161565317Y-119942008D01*
X161562539Y-119928999D01*
X161560188Y-119915641D01*
X161558264Y-119901934D01*
X161556768Y-119887879D01*
X161555699Y-119873475D01*
X161555058Y-119858723D01*
X161554844Y-119843622D01*
X161554844Y-119203105D01*
X161358612Y-119203105D01*
X161358611Y-119203120D01*
X161358611Y-119203120D01*
G37*
G36*
X162269219Y-119800634D02*
X162474270Y-119798391D01*
X162474519Y-119809840D01*
X162475266Y-119820937D01*
X162476511Y-119831682D01*
X162478255Y-119842075D01*
X162480496Y-119852115D01*
X162483235Y-119861803D01*
X162486473Y-119871138D01*
X162490208Y-119880122D01*
X162494442Y-119888753D01*
X162499173Y-119897032D01*
X162504403Y-119904958D01*
X162510131Y-119912532D01*
X162516357Y-119919754D01*
X162523081Y-119926624D01*
X162530303Y-119933141D01*
X162538023Y-119939306D01*
X162546241Y-119945119D01*
X162554957Y-119950579D01*
X162564171Y-119955688D01*
X162573884Y-119960443D01*
X162584094Y-119964847D01*
X162594803Y-119968898D01*
X162606009Y-119972597D01*
X162617714Y-119975944D01*
X162629916Y-119978939D01*
X162642617Y-119981581D01*
X162655816Y-119983871D01*
X162669513Y-119985808D01*
X162683708Y-119987393D01*
X162698401Y-119988626D01*
X162713592Y-119989507D01*
X162729281Y-119990036D01*
X162745468Y-119990212D01*
X162748775Y-119990212D01*
X162764510Y-119990032D01*
X162779746Y-119989493D01*
X162794483Y-119988594D01*
X162808720Y-119987335D01*
X162822457Y-119985717D01*
X162835695Y-119983739D01*
X162848433Y-119981402D01*
X162860672Y-119978706D01*
X162872411Y-119975649D01*
X162883650Y-119972233D01*
X162894390Y-119968458D01*
X162904631Y-119964323D01*
X162914372Y-119959828D01*
X162923613Y-119954974D01*
X162932355Y-119949760D01*
X162940598Y-119944187D01*
X162948341Y-119938254D01*
X162955584Y-119931962D01*
X162962328Y-119925310D01*
X162968572Y-119918298D01*
X162974317Y-119910927D01*
X162979562Y-119903196D01*
X162984307Y-119895106D01*
X162988553Y-119886656D01*
X162992300Y-119877846D01*
X162995547Y-119868677D01*
X162998294Y-119859149D01*
X163000542Y-119849261D01*
X163002291Y-119839013D01*
X163003540Y-119828406D01*
X163004289Y-119817439D01*
X163004539Y-119806113D01*
X163004539Y-119623097D01*
X162992716Y-119621267D01*
X162980555Y-119619561D01*
X162968057Y-119617980D01*
X162955222Y-119616523D01*
X162942049Y-119615191D01*
X162928539Y-119613983D01*
X162914691Y-119612899D01*
X162900505Y-119611940D01*
X162885983Y-119611106D01*
X162871122Y-119610395D01*
X162855924Y-119609809D01*
X162840389Y-119609348D01*
X162824516Y-119609011D01*
X162808306Y-119608798D01*
X162795302Y-119608979D01*
X162782118Y-119609523D01*
X162768754Y-119610429D01*
X162755210Y-119611698D01*
X162741485Y-119613329D01*
X162727581Y-119615322D01*
X162713497Y-119617678D01*
X162700974Y-119619754D01*
X162688210Y-119622142D01*
X162675205Y-119624843D01*
X162661959Y-119627857D01*
X162648471Y-119631184D01*
X162634742Y-119634823D01*
X162620772Y-119638776D01*
X162606561Y-119643041D01*
X162594067Y-119647247D01*
X162582063Y-119652024D01*
X162570549Y-119657373D01*
X162559524Y-119663294D01*
X162548990Y-119669787D01*
X162538946Y-119676851D01*
X162529391Y-119684486D01*
X162520327Y-119692693D01*
X162511752Y-119701472D01*
X162502967Y-119711911D01*
X162495354Y-119722832D01*
X162488911Y-119734235D01*
X162483640Y-119746120D01*
X162479541Y-119758487D01*
X162476612Y-119771336D01*
X162474855Y-119784668D01*
X162474270Y-119798481D01*
X162474270Y-119798391D01*
X162269219Y-119800634D01*
X162269464Y-119786799D01*
X162270199Y-119773220D01*
X162271424Y-119759898D01*
X162273139Y-119746832D01*
X162275343Y-119734023D01*
X162278038Y-119721470D01*
X162281223Y-119709174D01*
X162284898Y-119697134D01*
X162289063Y-119685350D01*
X162293717Y-119673823D01*
X162298862Y-119662552D01*
X162304497Y-119651538D01*
X162310621Y-119640779D01*
X162317236Y-119630278D01*
X162324340Y-119620033D01*
X162331935Y-119610044D01*
X162340019Y-119600311D01*
X162348594Y-119590835D01*
X162357658Y-119581616D01*
X162367213Y-119572652D01*
X162377257Y-119563946D01*
X162387791Y-119555495D01*
X162398816Y-119547301D01*
X162410330Y-119539364D01*
X162419856Y-119533148D01*
X162429620Y-119527143D01*
X162439622Y-119521349D01*
X162449861Y-119515766D01*
X162460337Y-119510393D01*
X162471052Y-119505231D01*
X162482004Y-119500280D01*
X162493194Y-119495540D01*
X162504621Y-119491010D01*
X162516286Y-119486690D01*
X162528188Y-119482582D01*
X162540329Y-119478684D01*
X162552706Y-119474997D01*
X162565322Y-119471521D01*
X162578175Y-119468255D01*
X162591266Y-119465200D01*
X162604594Y-119462356D01*
X162618160Y-119459722D01*
X162631964Y-119457299D01*
X162646005Y-119455087D01*
X162660284Y-119453085D01*
X162674801Y-119451294D01*
X162689555Y-119449714D01*
X162704547Y-119448344D01*
X162719776Y-119447186D01*
X162735243Y-119446238D01*
X162750948Y-119445500D01*
X162766890Y-119444973D01*
X162783070Y-119444657D01*
X162799488Y-119444552D01*
X162813570Y-119444611D01*
X162827593Y-119444787D01*
X162841557Y-119445082D01*
X162855462Y-119445494D01*
X162869309Y-119446024D01*
X162883096Y-119446671D01*
X162896825Y-119447437D01*
X162910495Y-119448320D01*
X162924107Y-119449320D01*
X162937659Y-119450439D01*
X162951153Y-119451675D01*
X162964588Y-119453029D01*
X162977964Y-119454501D01*
X162991281Y-119456090D01*
X163004540Y-119457798D01*
X163003537Y-119441345D01*
X163002083Y-119425450D01*
X163000180Y-119410112D01*
X162997826Y-119395330D01*
X162995022Y-119381106D01*
X162991768Y-119367438D01*
X162988064Y-119354327D01*
X162983910Y-119341773D01*
X162979306Y-119329776D01*
X162974251Y-119318335D01*
X162968747Y-119307452D01*
X162962792Y-119297125D01*
X162956388Y-119287355D01*
X162949533Y-119278142D01*
X162942228Y-119269486D01*
X162934473Y-119261387D01*
X162926267Y-119253845D01*
X162918587Y-119247518D01*
X162910400Y-119241534D01*
X162901706Y-119235891D01*
X162892504Y-119230590D01*
X162882796Y-119225632D01*
X162872581Y-119221015D01*
X162861859Y-119216740D01*
X162850630Y-119212807D01*
X162838894Y-119209216D01*
X162826652Y-119205968D01*
X162813902Y-119203061D01*
X162800645Y-119200496D01*
X162786882Y-119198273D01*
X162772611Y-119196392D01*
X162757834Y-119194853D01*
X162742549Y-119193656D01*
X162726758Y-119192801D01*
X162710460Y-119192288D01*
X162693655Y-119192117D01*
X162680869Y-119192224D01*
X162668013Y-119192542D01*
X162655086Y-119193074D01*
X162642088Y-119193818D01*
X162629020Y-119194774D01*
X162615880Y-119195943D01*
X162602670Y-119197325D01*
X162589388Y-119198919D01*
X162576036Y-119200726D01*
X162562613Y-119202745D01*
X162549120Y-119204976D01*
X162535555Y-119207421D01*
X162521919Y-119210078D01*
X162508213Y-119212947D01*
X162494436Y-119216029D01*
X162480587Y-119219323D01*
X162466669Y-119222830D01*
X162452679Y-119226550D01*
X162438618Y-119230482D01*
X162424486Y-119234627D01*
X162410284Y-119238984D01*
X162396011Y-119243554D01*
X162381667Y-119248336D01*
X162381667Y-119071943D01*
X162394488Y-119067190D01*
X162407377Y-119062631D01*
X162420333Y-119058266D01*
X162433356Y-119054094D01*
X162446446Y-119050117D01*
X162459602Y-119046334D01*
X162472826Y-119042745D01*
X162486117Y-119039349D01*
X162499475Y-119036148D01*
X162512900Y-119033141D01*
X162526392Y-119030328D01*
X162539951Y-119027709D01*
X162553577Y-119025283D01*
X162567270Y-119023052D01*
X162581030Y-119021015D01*
X162594857Y-119019172D01*
X162608752Y-119017523D01*
X162622713Y-119016068D01*
X162636741Y-119014807D01*
X162650836Y-119013740D01*
X162664998Y-119012867D01*
X162679228Y-119012188D01*
X162693524Y-119011703D01*
X162707887Y-119011412D01*
X162722318Y-119011315D01*
X162737853Y-119011451D01*
X162753151Y-119011858D01*
X162768212Y-119012538D01*
X162783035Y-119013490D01*
X162797620Y-119014714D01*
X162811967Y-119016209D01*
X162826077Y-119017977D01*
X162839950Y-119020017D01*
X162853584Y-119022328D01*
X162866981Y-119024911D01*
X162880140Y-119027767D01*
X162893062Y-119030894D01*
X162905746Y-119034293D01*
X162918193Y-119037964D01*
X162930402Y-119041907D01*
X162942373Y-119046122D01*
X162954106Y-119050609D01*
X162965602Y-119055368D01*
X162976860Y-119060399D01*
X162987881Y-119065702D01*
X162998664Y-119071277D01*
X163009209Y-119077123D01*
X163019517Y-119083242D01*
X163029587Y-119089632D01*
X163039420Y-119096295D01*
X163049014Y-119103229D01*
X163058372Y-119110436D01*
X163067491Y-119117914D01*
X163076373Y-119125664D01*
X163085017Y-119133686D01*
X163093685Y-119142177D01*
X163102048Y-119150922D01*
X163110107Y-119159921D01*
X163117862Y-119169175D01*
X163125313Y-119178683D01*
X163132460Y-119188445D01*
X163139303Y-119198462D01*
X163145841Y-119208732D01*
X163152076Y-119219258D01*
X163158006Y-119230037D01*
X163163632Y-119241071D01*
X163168954Y-119252359D01*
X163173972Y-119263901D01*
X163178686Y-119275697D01*
X163183096Y-119287748D01*
X163187201Y-119300053D01*
X163191003Y-119312613D01*
X163194500Y-119325426D01*
X163197693Y-119338494D01*
X163200583Y-119351817D01*
X163203168Y-119365393D01*
X163205448Y-119379224D01*
X163207425Y-119393309D01*
X163209098Y-119407649D01*
X163210466Y-119422242D01*
X163211531Y-119437090D01*
X163212291Y-119452193D01*
X163212747Y-119467549D01*
X163212899Y-119483160D01*
X163212899Y-119808370D01*
X163212685Y-119820497D01*
X163212042Y-119832624D01*
X163210970Y-119844751D01*
X163209470Y-119856877D01*
X163207540Y-119869004D01*
X163205182Y-119881131D01*
X163202865Y-119891639D01*
X163199692Y-119903001D01*
X163195665Y-119915218D01*
X163190783Y-119928289D01*
X163185046Y-119942215D01*
X163178454Y-119956996D01*
X163171007Y-119972631D01*
X163164882Y-119984950D01*
X163158268Y-119996916D01*
X163151163Y-120008526D01*
X163143569Y-120019783D01*
X163135484Y-120030686D01*
X163126910Y-120041234D01*
X163117845Y-120051428D01*
X163108291Y-120061268D01*
X163098247Y-120070754D01*
X163090208Y-120077659D01*
X163081526Y-120084411D01*
X163072202Y-120091010D01*
X163062234Y-120097456D01*
X163051623Y-120103749D01*
X163040369Y-120109889D01*
X163028472Y-120115876D01*
X163015932Y-120121710D01*
X163002749Y-120127391D01*
X162988922Y-120132918D01*
X162974453Y-120138293D01*
X162959340Y-120143515D01*
X162947653Y-120147118D01*
X162935741Y-120150489D01*
X162923606Y-120153628D01*
X162911247Y-120156534D01*
X162898664Y-120159207D01*
X162885856Y-120161648D01*
X162872825Y-120163857D01*
X162859570Y-120165833D01*
X162846091Y-120167577D01*
X162832389Y-120169088D01*
X162818462Y-120170366D01*
X162804311Y-120171412D01*
X162789936Y-120172226D01*
X162775338Y-120172807D01*
X162760515Y-120173156D01*
X162745469Y-120173272D01*
X162730018Y-120173152D01*
X162714807Y-120172790D01*
X162699839Y-120172188D01*
X162685111Y-120171344D01*
X162670624Y-120170259D01*
X162656379Y-120168933D01*
X162642374Y-120167366D01*
X162628611Y-120165558D01*
X162615089Y-120163509D01*
X162601808Y-120161219D01*
X162588769Y-120158688D01*
X162575970Y-120155916D01*
X162563413Y-120152902D01*
X162551097Y-120149648D01*
X162539021Y-120146153D01*
X162527188Y-120142416D01*
X162511891Y-120137016D01*
X162497238Y-120131479D01*
X162483228Y-120125804D01*
X162469861Y-120119992D01*
X162457137Y-120114042D01*
X162445056Y-120107955D01*
X162433619Y-120101730D01*
X162422824Y-120095367D01*
X162412673Y-120088867D01*
X162403164Y-120082230D01*
X162394299Y-120075454D01*
X162386076Y-120068542D01*
X162376783Y-120060009D01*
X162367864Y-120051168D01*
X162359320Y-120042018D01*
X162351151Y-120032559D01*
X162343357Y-120022791D01*
X162335938Y-120012715D01*
X162328893Y-120002329D01*
X162322224Y-119991635D01*
X162315929Y-119980632D01*
X162310009Y-119969320D01*
X162303446Y-119955300D01*
X162297538Y-119941901D01*
X162292284Y-119929121D01*
X162287685Y-119916962D01*
X162283740Y-119905422D01*
X162280450Y-119894503D01*
X162277814Y-119884203D01*
X162275833Y-119874523D01*
X162273812Y-119862056D01*
X162272158Y-119849651D01*
X162270872Y-119837307D01*
X162269953Y-119825026D01*
X162269402Y-119812806D01*
X162269218Y-119800649D01*
X162269219Y-119800634D01*
X162269219Y-119800634D01*
G37*
G36*
X163583316Y-120023326D02*
X163575616Y-120014650D01*
X163568139Y-120005759D01*
X163560886Y-119996651D01*
X163553855Y-119987328D01*
X163547048Y-119977788D01*
X163540464Y-119968033D01*
X163534104Y-119958062D01*
X163527966Y-119947874D01*
X163522051Y-119937471D01*
X163516360Y-119926851D01*
X163510892Y-119916016D01*
X163505647Y-119904965D01*
X163500626Y-119893697D01*
X163495827Y-119882214D01*
X163491252Y-119870515D01*
X163486900Y-119858600D01*
X163482771Y-119846468D01*
X163478865Y-119834121D01*
X163475182Y-119821558D01*
X163471723Y-119808779D01*
X163468487Y-119795783D01*
X163465474Y-119782572D01*
X163462684Y-119769145D01*
X163460117Y-119755502D01*
X163457774Y-119741643D01*
X163455654Y-119727568D01*
X163453757Y-119713276D01*
X163452083Y-119698769D01*
X163450632Y-119684046D01*
X163449404Y-119669107D01*
X163448400Y-119653952D01*
X163447619Y-119638581D01*
X163447061Y-119622994D01*
X163446726Y-119607191D01*
X163446615Y-119591172D01*
X163446726Y-119575154D01*
X163447061Y-119559354D01*
X163447619Y-119543771D01*
X163448400Y-119528407D01*
X163449404Y-119513260D01*
X163450632Y-119498331D01*
X163452083Y-119483619D01*
X163453757Y-119469126D01*
X163455654Y-119454850D01*
X163457774Y-119440792D01*
X163460117Y-119426952D01*
X163462684Y-119413330D01*
X163465474Y-119399926D01*
X163468487Y-119386739D01*
X163471723Y-119373770D01*
X163475182Y-119361019D01*
X163478865Y-119348486D01*
X163482771Y-119336171D01*
X163486900Y-119324073D01*
X163491252Y-119312193D01*
X163495827Y-119300531D01*
X163500626Y-119289087D01*
X163505647Y-119277860D01*
X163510892Y-119266852D01*
X163516360Y-119256061D01*
X163522051Y-119245488D01*
X163527966Y-119235133D01*
X163534104Y-119224995D01*
X163540464Y-119215076D01*
X163547048Y-119205374D01*
X163553855Y-119195890D01*
X163560886Y-119186624D01*
X163568139Y-119177576D01*
X163575616Y-119168745D01*
X163583316Y-119160132D01*
X163591711Y-119151249D01*
X163600327Y-119142639D01*
X163609164Y-119134302D01*
X163618221Y-119126238D01*
X163627499Y-119118448D01*
X163636998Y-119110931D01*
X163646717Y-119103688D01*
X163656657Y-119096718D01*
X163666818Y-119090021D01*
X163677200Y-119083597D01*
X163687802Y-119077447D01*
X163698625Y-119071571D01*
X163709668Y-119065967D01*
X163720933Y-119060637D01*
X163732417Y-119055580D01*
X163744123Y-119050797D01*
X163756049Y-119046287D01*
X163768196Y-119042050D01*
X163780564Y-119038087D01*
X163793152Y-119034397D01*
X163805961Y-119030980D01*
X163818991Y-119027836D01*
X163832242Y-119024966D01*
X163845713Y-119022370D01*
X163859404Y-119020046D01*
X163873317Y-119017996D01*
X163887450Y-119016220D01*
X163901804Y-119014716D01*
X163916379Y-119013486D01*
X163931174Y-119012530D01*
X163946190Y-119011846D01*
X163961426Y-119011436D01*
X163976884Y-119011300D01*
X163990623Y-119011400D01*
X164004323Y-119011702D01*
X164017984Y-119012204D01*
X164031607Y-119012908D01*
X164045190Y-119013813D01*
X164058735Y-119014919D01*
X164072241Y-119016226D01*
X164085709Y-119017734D01*
X164099137Y-119019444D01*
X164112527Y-119021354D01*
X164125878Y-119023466D01*
X164139190Y-119025778D01*
X164152463Y-119028292D01*
X164165698Y-119031007D01*
X164178893Y-119033922D01*
X164192050Y-119037039D01*
X164205168Y-119040357D01*
X164218247Y-119043877D01*
X164231288Y-119047597D01*
X164244289Y-119051518D01*
X164257252Y-119055640D01*
X164270176Y-119059964D01*
X164283061Y-119064489D01*
X164295908Y-119069214D01*
X164308715Y-119074141D01*
X164308715Y-119270372D01*
X164295940Y-119264345D01*
X164283153Y-119258575D01*
X164270354Y-119253061D01*
X164257544Y-119247804D01*
X164244723Y-119242803D01*
X164231890Y-119238058D01*
X164219045Y-119233570D01*
X164206189Y-119229339D01*
X164193322Y-119225364D01*
X164180443Y-119221645D01*
X164167553Y-119218183D01*
X164154651Y-119214977D01*
X164141737Y-119212028D01*
X164128812Y-119209335D01*
X164115876Y-119206899D01*
X164102928Y-119204719D01*
X164089969Y-119202796D01*
X164076998Y-119201129D01*
X164064016Y-119199718D01*
X164051022Y-119198564D01*
X164038017Y-119197667D01*
X164025000Y-119197025D01*
X164011972Y-119196641D01*
X163998932Y-119196513D01*
X163994522Y-119196513D01*
X163979146Y-119196714D01*
X163964106Y-119197317D01*
X163949402Y-119198323D01*
X163935035Y-119199731D01*
X163921004Y-119201542D01*
X163907309Y-119203755D01*
X163893950Y-119206370D01*
X163880928Y-119209387D01*
X163868242Y-119212807D01*
X163855892Y-119216629D01*
X163843878Y-119220854D01*
X163832200Y-119225481D01*
X163820859Y-119230510D01*
X163809854Y-119235941D01*
X163799185Y-119241775D01*
X163788853Y-119248012D01*
X163778857Y-119254650D01*
X163769196Y-119261691D01*
X163759873Y-119269134D01*
X163750885Y-119276980D01*
X163744231Y-119283316D01*
X163737839Y-119290112D01*
X163731707Y-119297368D01*
X163725836Y-119305084D01*
X163720226Y-119313260D01*
X163714877Y-119321895D01*
X163709789Y-119330991D01*
X163704961Y-119340546D01*
X163700395Y-119350561D01*
X163696090Y-119361036D01*
X163692045Y-119371971D01*
X163688262Y-119383365D01*
X163684739Y-119395220D01*
X163681478Y-119407534D01*
X163678477Y-119420308D01*
X163675737Y-119433542D01*
X163673258Y-119447236D01*
X163671040Y-119461389D01*
X163669083Y-119476003D01*
X163667387Y-119491076D01*
X163665952Y-119506609D01*
X163664778Y-119522602D01*
X163663865Y-119539055D01*
X163663212Y-119555967D01*
X163662821Y-119573340D01*
X163662691Y-119591172D01*
X163662803Y-119607597D01*
X163663141Y-119623650D01*
X163663705Y-119639330D01*
X163664494Y-119654637D01*
X163665508Y-119669572D01*
X163666748Y-119684135D01*
X163668213Y-119698325D01*
X163669903Y-119712142D01*
X163671819Y-119725588D01*
X163673960Y-119738660D01*
X163676326Y-119751360D01*
X163678918Y-119763688D01*
X163681736Y-119775643D01*
X163684778Y-119787226D01*
X163688046Y-119798436D01*
X163693058Y-119812923D01*
X163698469Y-119826717D01*
X163704282Y-119839819D01*
X163710496Y-119852229D01*
X163717111Y-119863946D01*
X163724126Y-119874971D01*
X163731542Y-119885303D01*
X163739360Y-119894943D01*
X163747578Y-119903891D01*
X163756197Y-119912146D01*
X163765217Y-119919709D01*
X163776731Y-119928199D01*
X163788245Y-119936037D01*
X163799759Y-119943222D01*
X163811274Y-119949753D01*
X163822788Y-119955632D01*
X163834302Y-119960857D01*
X163845817Y-119965430D01*
X163857331Y-119969349D01*
X163868845Y-119972616D01*
X163879627Y-119975133D01*
X163890806Y-119977385D01*
X163902381Y-119979371D01*
X163914353Y-119981093D01*
X163926723Y-119982550D01*
X163939489Y-119983742D01*
X163952652Y-119984670D01*
X163966212Y-119985332D01*
X163980169Y-119985729D01*
X163994522Y-119985862D01*
X164008010Y-119985737D01*
X164021463Y-119985364D01*
X164034882Y-119984742D01*
X164048266Y-119983871D01*
X164061615Y-119982751D01*
X164074931Y-119981383D01*
X164088212Y-119979766D01*
X164101458Y-119977899D01*
X164114670Y-119975784D01*
X164127847Y-119973420D01*
X164140990Y-119970808D01*
X164154099Y-119967946D01*
X164167173Y-119964836D01*
X164180213Y-119961477D01*
X164193218Y-119957869D01*
X164206189Y-119954012D01*
X164219125Y-119949906D01*
X164232027Y-119945552D01*
X164244894Y-119940949D01*
X164257727Y-119936097D01*
X164270526Y-119930996D01*
X164283290Y-119925646D01*
X164296020Y-119920047D01*
X164308715Y-119914200D01*
X164308715Y-120110431D01*
X164295907Y-120115358D01*
X164283061Y-120120083D01*
X164270176Y-120124608D01*
X164257252Y-120128931D01*
X164244289Y-120133054D01*
X164231287Y-120136975D01*
X164218247Y-120140695D01*
X164205168Y-120144214D01*
X164192050Y-120147532D01*
X164178893Y-120150649D01*
X164165697Y-120153565D01*
X164152463Y-120156280D01*
X164139189Y-120158794D01*
X164125877Y-120161106D01*
X164112526Y-120163218D01*
X164099137Y-120165128D01*
X164085708Y-120166837D01*
X164072241Y-120168346D01*
X164058735Y-120169653D01*
X164045190Y-120170759D01*
X164031606Y-120171664D01*
X164017984Y-120172367D01*
X164004322Y-120172870D01*
X163990622Y-120173172D01*
X163976883Y-120173272D01*
X163961426Y-120173135D01*
X163946189Y-120172722D01*
X163931173Y-120172033D01*
X163916378Y-120171069D01*
X163901804Y-120169830D01*
X163887450Y-120168316D01*
X163873317Y-120166526D01*
X163859404Y-120164461D01*
X163845712Y-120162120D01*
X163832241Y-120159505D01*
X163818991Y-120156613D01*
X163805961Y-120153447D01*
X163793152Y-120150005D01*
X163780564Y-120146287D01*
X163768196Y-120142295D01*
X163756049Y-120138027D01*
X163744123Y-120133483D01*
X163732417Y-120128665D01*
X163720932Y-120123571D01*
X163709668Y-120118201D01*
X163698624Y-120112556D01*
X163687801Y-120106636D01*
X163677199Y-120100441D01*
X163666818Y-120093970D01*
X163656657Y-120087224D01*
X163646717Y-120080202D01*
X163636998Y-120072905D01*
X163627499Y-120065333D01*
X163618221Y-120057485D01*
X163609163Y-120049362D01*
X163600327Y-120040964D01*
X163591711Y-120032290D01*
X163583316Y-120023341D01*
X163583316Y-120023326D01*
X163583316Y-120023326D01*
G37*
G36*
X164554557Y-120155617D02*
X164554557Y-118600098D01*
X164760712Y-118600098D01*
X164760712Y-119500786D01*
X165247986Y-119028940D01*
X165528004Y-119028940D01*
X165038524Y-119498573D01*
X165593047Y-120155617D01*
X165318542Y-120155617D01*
X164900721Y-119631963D01*
X164760712Y-119767565D01*
X164760712Y-120155617D01*
X164554557Y-120155617D01*
X164554557Y-120155617D01*
G37*
D14*
X135866667Y-119828571D02*
X135533333Y-119828571D01*
X135533333Y-120352381D02*
X135533333Y-119352381D01*
X136009524Y-119352381D01*
X136914286Y-120352381D02*
X136342857Y-120352381D01*
X136628571Y-120352381D02*
X136628571Y-119352381D01*
X136533333Y-119495238D01*
X136438095Y-119590476D01*
X136342857Y-119638095D01*
X133103571Y-95808333D02*
X133103571Y-96141667D01*
X133627381Y-96141667D02*
X132627381Y-96141667D01*
X132627381Y-95665476D01*
X132722619Y-95332143D02*
X132675000Y-95284524D01*
X132627381Y-95189286D01*
X132627381Y-94951190D01*
X132675000Y-94855952D01*
X132722619Y-94808333D01*
X132817857Y-94760714D01*
X132913095Y-94760714D01*
X133055952Y-94808333D01*
X133627381Y-95379762D01*
X133627381Y-94760714D01*
X134533334Y-95257143D02*
X134485715Y-95304762D01*
X134342858Y-95352381D01*
X134247620Y-95352381D01*
X134104762Y-95304762D01*
X134009524Y-95209524D01*
X133961905Y-95114286D01*
X133914286Y-94923810D01*
X133914286Y-94780952D01*
X133961905Y-94590476D01*
X134009524Y-94495238D01*
X134104762Y-94400000D01*
X134247620Y-94352381D01*
X134342858Y-94352381D01*
X134485715Y-94400000D01*
X134533334Y-94447619D01*
X135390477Y-94352381D02*
X135200000Y-94352381D01*
X135104762Y-94400000D01*
X135057143Y-94447619D01*
X134961905Y-94590476D01*
X134914286Y-94780952D01*
X134914286Y-95161905D01*
X134961905Y-95257143D01*
X135009524Y-95304762D01*
X135104762Y-95352381D01*
X135295239Y-95352381D01*
X135390477Y-95304762D01*
X135438096Y-95257143D01*
X135485715Y-95161905D01*
X135485715Y-94923810D01*
X135438096Y-94828571D01*
X135390477Y-94780952D01*
X135295239Y-94733333D01*
X135104762Y-94733333D01*
X135009524Y-94780952D01*
X134961905Y-94828571D01*
X134914286Y-94923810D01*
X135757143Y-92096666D02*
X135804762Y-92144285D01*
X135852381Y-92287142D01*
X135852381Y-92382380D01*
X135804762Y-92525238D01*
X135709524Y-92620476D01*
X135614286Y-92668095D01*
X135423810Y-92715714D01*
X135280952Y-92715714D01*
X135090476Y-92668095D01*
X134995238Y-92620476D01*
X134900000Y-92525238D01*
X134852381Y-92382380D01*
X134852381Y-92287142D01*
X134900000Y-92144285D01*
X134947619Y-92096666D01*
X135852381Y-91144285D02*
X135852381Y-91715714D01*
X135852381Y-91430000D02*
X134852381Y-91430000D01*
X134995238Y-91525238D01*
X135090476Y-91620476D01*
X135138095Y-91715714D01*
X131208334Y-97407143D02*
X131160715Y-97454762D01*
X131017858Y-97502381D01*
X130922620Y-97502381D01*
X130779762Y-97454762D01*
X130684524Y-97359524D01*
X130636905Y-97264286D01*
X130589286Y-97073810D01*
X130589286Y-96930952D01*
X130636905Y-96740476D01*
X130684524Y-96645238D01*
X130779762Y-96550000D01*
X130922620Y-96502381D01*
X131017858Y-96502381D01*
X131160715Y-96550000D01*
X131208334Y-96597619D01*
X131541667Y-96502381D02*
X132160715Y-96502381D01*
X131827381Y-96883333D01*
X131970239Y-96883333D01*
X132065477Y-96930952D01*
X132113096Y-96978571D01*
X132160715Y-97073810D01*
X132160715Y-97311905D01*
X132113096Y-97407143D01*
X132065477Y-97454762D01*
X131970239Y-97502381D01*
X131684524Y-97502381D01*
X131589286Y-97454762D01*
X131541667Y-97407143D01*
X146613334Y-100527143D02*
X146565715Y-100574762D01*
X146422858Y-100622381D01*
X146327620Y-100622381D01*
X146184762Y-100574762D01*
X146089524Y-100479524D01*
X146041905Y-100384286D01*
X145994286Y-100193810D01*
X145994286Y-100050952D01*
X146041905Y-99860476D01*
X146089524Y-99765238D01*
X146184762Y-99670000D01*
X146327620Y-99622381D01*
X146422858Y-99622381D01*
X146565715Y-99670000D01*
X146613334Y-99717619D01*
X147470477Y-99955714D02*
X147470477Y-100622381D01*
X147232381Y-99574762D02*
X146994286Y-100289048D01*
X147613334Y-100289048D01*
X134083334Y-101857143D02*
X134035715Y-101904762D01*
X133892858Y-101952381D01*
X133797620Y-101952381D01*
X133654762Y-101904762D01*
X133559524Y-101809524D01*
X133511905Y-101714286D01*
X133464286Y-101523810D01*
X133464286Y-101380952D01*
X133511905Y-101190476D01*
X133559524Y-101095238D01*
X133654762Y-101000000D01*
X133797620Y-100952381D01*
X133892858Y-100952381D01*
X134035715Y-101000000D01*
X134083334Y-101047619D01*
X134988096Y-100952381D02*
X134511905Y-100952381D01*
X134464286Y-101428571D01*
X134511905Y-101380952D01*
X134607143Y-101333333D01*
X134845239Y-101333333D01*
X134940477Y-101380952D01*
X134988096Y-101428571D01*
X135035715Y-101523810D01*
X135035715Y-101761905D01*
X134988096Y-101857143D01*
X134940477Y-101904762D01*
X134845239Y-101952381D01*
X134607143Y-101952381D01*
X134511905Y-101904762D01*
X134464286Y-101857143D01*
X153057143Y-102266666D02*
X153104762Y-102314285D01*
X153152381Y-102457142D01*
X153152381Y-102552380D01*
X153104762Y-102695238D01*
X153009524Y-102790476D01*
X152914286Y-102838095D01*
X152723810Y-102885714D01*
X152580952Y-102885714D01*
X152390476Y-102838095D01*
X152295238Y-102790476D01*
X152200000Y-102695238D01*
X152152381Y-102552380D01*
X152152381Y-102457142D01*
X152200000Y-102314285D01*
X152247619Y-102266666D01*
X152152381Y-101933333D02*
X152152381Y-101266666D01*
X153152381Y-101695238D01*
X131163334Y-101797143D02*
X131115715Y-101844762D01*
X130972858Y-101892381D01*
X130877620Y-101892381D01*
X130734762Y-101844762D01*
X130639524Y-101749524D01*
X130591905Y-101654286D01*
X130544286Y-101463810D01*
X130544286Y-101320952D01*
X130591905Y-101130476D01*
X130639524Y-101035238D01*
X130734762Y-100940000D01*
X130877620Y-100892381D01*
X130972858Y-100892381D01*
X131115715Y-100940000D01*
X131163334Y-100987619D01*
X131734762Y-101320952D02*
X131639524Y-101273333D01*
X131591905Y-101225714D01*
X131544286Y-101130476D01*
X131544286Y-101082857D01*
X131591905Y-100987619D01*
X131639524Y-100940000D01*
X131734762Y-100892381D01*
X131925239Y-100892381D01*
X132020477Y-100940000D01*
X132068096Y-100987619D01*
X132115715Y-101082857D01*
X132115715Y-101130476D01*
X132068096Y-101225714D01*
X132020477Y-101273333D01*
X131925239Y-101320952D01*
X131734762Y-101320952D01*
X131639524Y-101368571D01*
X131591905Y-101416190D01*
X131544286Y-101511429D01*
X131544286Y-101701905D01*
X131591905Y-101797143D01*
X131639524Y-101844762D01*
X131734762Y-101892381D01*
X131925239Y-101892381D01*
X132020477Y-101844762D01*
X132068096Y-101797143D01*
X132115715Y-101701905D01*
X132115715Y-101511429D01*
X132068096Y-101416190D01*
X132020477Y-101368571D01*
X131925239Y-101320952D01*
X131007143Y-114696666D02*
X131054762Y-114744285D01*
X131102381Y-114887142D01*
X131102381Y-114982380D01*
X131054762Y-115125238D01*
X130959524Y-115220476D01*
X130864286Y-115268095D01*
X130673810Y-115315714D01*
X130530952Y-115315714D01*
X130340476Y-115268095D01*
X130245238Y-115220476D01*
X130150000Y-115125238D01*
X130102381Y-114982380D01*
X130102381Y-114887142D01*
X130150000Y-114744285D01*
X130197619Y-114696666D01*
X131102381Y-114220476D02*
X131102381Y-114030000D01*
X131054762Y-113934761D01*
X131007143Y-113887142D01*
X130864286Y-113791904D01*
X130673810Y-113744285D01*
X130292857Y-113744285D01*
X130197619Y-113791904D01*
X130150000Y-113839523D01*
X130102381Y-113934761D01*
X130102381Y-114125238D01*
X130150000Y-114220476D01*
X130197619Y-114268095D01*
X130292857Y-114315714D01*
X130530952Y-114315714D01*
X130626190Y-114268095D01*
X130673810Y-114220476D01*
X130721429Y-114125238D01*
X130721429Y-113934761D01*
X130673810Y-113839523D01*
X130626190Y-113791904D01*
X130530952Y-113744285D01*
X131547143Y-120007143D02*
X131499524Y-120054762D01*
X131356667Y-120102381D01*
X131261429Y-120102381D01*
X131118571Y-120054762D01*
X131023333Y-119959524D01*
X130975714Y-119864286D01*
X130928095Y-119673810D01*
X130928095Y-119530952D01*
X130975714Y-119340476D01*
X131023333Y-119245238D01*
X131118571Y-119150000D01*
X131261429Y-119102381D01*
X131356667Y-119102381D01*
X131499524Y-119150000D01*
X131547143Y-119197619D01*
X132499524Y-120102381D02*
X131928095Y-120102381D01*
X132213809Y-120102381D02*
X132213809Y-119102381D01*
X132118571Y-119245238D01*
X132023333Y-119340476D01*
X131928095Y-119388095D01*
X133118571Y-119102381D02*
X133213810Y-119102381D01*
X133309048Y-119150000D01*
X133356667Y-119197619D01*
X133404286Y-119292857D01*
X133451905Y-119483333D01*
X133451905Y-119721429D01*
X133404286Y-119911905D01*
X133356667Y-120007143D01*
X133309048Y-120054762D01*
X133213810Y-120102381D01*
X133118571Y-120102381D01*
X133023333Y-120054762D01*
X132975714Y-120007143D01*
X132928095Y-119911905D01*
X132880476Y-119721429D01*
X132880476Y-119483333D01*
X132928095Y-119292857D01*
X132975714Y-119197619D01*
X133023333Y-119150000D01*
X133118571Y-119102381D01*
X155557143Y-98857143D02*
X155509524Y-98904762D01*
X155366667Y-98952381D01*
X155271429Y-98952381D01*
X155128571Y-98904762D01*
X155033333Y-98809524D01*
X154985714Y-98714286D01*
X154938095Y-98523810D01*
X154938095Y-98380952D01*
X154985714Y-98190476D01*
X155033333Y-98095238D01*
X155128571Y-98000000D01*
X155271429Y-97952381D01*
X155366667Y-97952381D01*
X155509524Y-98000000D01*
X155557143Y-98047619D01*
X156509524Y-98952381D02*
X155938095Y-98952381D01*
X156223809Y-98952381D02*
X156223809Y-97952381D01*
X156128571Y-98095238D01*
X156033333Y-98190476D01*
X155938095Y-98238095D01*
X157461905Y-98952381D02*
X156890476Y-98952381D01*
X157176190Y-98952381D02*
X157176190Y-97952381D01*
X157080952Y-98095238D01*
X156985714Y-98190476D01*
X156890476Y-98238095D01*
X154607143Y-91357143D02*
X154559524Y-91404762D01*
X154416667Y-91452381D01*
X154321429Y-91452381D01*
X154178571Y-91404762D01*
X154083333Y-91309524D01*
X154035714Y-91214286D01*
X153988095Y-91023810D01*
X153988095Y-90880952D01*
X154035714Y-90690476D01*
X154083333Y-90595238D01*
X154178571Y-90500000D01*
X154321429Y-90452381D01*
X154416667Y-90452381D01*
X154559524Y-90500000D01*
X154607143Y-90547619D01*
X155559524Y-91452381D02*
X154988095Y-91452381D01*
X155273809Y-91452381D02*
X155273809Y-90452381D01*
X155178571Y-90595238D01*
X155083333Y-90690476D01*
X154988095Y-90738095D01*
X155940476Y-90547619D02*
X155988095Y-90500000D01*
X156083333Y-90452381D01*
X156321429Y-90452381D01*
X156416667Y-90500000D01*
X156464286Y-90547619D01*
X156511905Y-90642857D01*
X156511905Y-90738095D01*
X156464286Y-90880952D01*
X155892857Y-91452381D01*
X156511905Y-91452381D01*
X150557143Y-117557143D02*
X150509524Y-117604762D01*
X150366667Y-117652381D01*
X150271429Y-117652381D01*
X150128571Y-117604762D01*
X150033333Y-117509524D01*
X149985714Y-117414286D01*
X149938095Y-117223810D01*
X149938095Y-117080952D01*
X149985714Y-116890476D01*
X150033333Y-116795238D01*
X150128571Y-116700000D01*
X150271429Y-116652381D01*
X150366667Y-116652381D01*
X150509524Y-116700000D01*
X150557143Y-116747619D01*
X151509524Y-117652381D02*
X150938095Y-117652381D01*
X151223809Y-117652381D02*
X151223809Y-116652381D01*
X151128571Y-116795238D01*
X151033333Y-116890476D01*
X150938095Y-116938095D01*
X151842857Y-116652381D02*
X152461905Y-116652381D01*
X152128571Y-117033333D01*
X152271429Y-117033333D01*
X152366667Y-117080952D01*
X152414286Y-117128571D01*
X152461905Y-117223810D01*
X152461905Y-117461905D01*
X152414286Y-117557143D01*
X152366667Y-117604762D01*
X152271429Y-117652381D01*
X151985714Y-117652381D01*
X151890476Y-117604762D01*
X151842857Y-117557143D01*
X145357143Y-121157143D02*
X145309524Y-121204762D01*
X145166667Y-121252381D01*
X145071429Y-121252381D01*
X144928571Y-121204762D01*
X144833333Y-121109524D01*
X144785714Y-121014286D01*
X144738095Y-120823810D01*
X144738095Y-120680952D01*
X144785714Y-120490476D01*
X144833333Y-120395238D01*
X144928571Y-120300000D01*
X145071429Y-120252381D01*
X145166667Y-120252381D01*
X145309524Y-120300000D01*
X145357143Y-120347619D01*
X146309524Y-121252381D02*
X145738095Y-121252381D01*
X146023809Y-121252381D02*
X146023809Y-120252381D01*
X145928571Y-120395238D01*
X145833333Y-120490476D01*
X145738095Y-120538095D01*
X147166667Y-120585714D02*
X147166667Y-121252381D01*
X146928571Y-120204762D02*
X146690476Y-120919048D01*
X147309524Y-120919048D01*
X160557143Y-125017857D02*
X160604762Y-125065476D01*
X160652381Y-125208333D01*
X160652381Y-125303571D01*
X160604762Y-125446429D01*
X160509524Y-125541667D01*
X160414286Y-125589286D01*
X160223810Y-125636905D01*
X160080952Y-125636905D01*
X159890476Y-125589286D01*
X159795238Y-125541667D01*
X159700000Y-125446429D01*
X159652381Y-125303571D01*
X159652381Y-125208333D01*
X159700000Y-125065476D01*
X159747619Y-125017857D01*
X160652381Y-124065476D02*
X160652381Y-124636905D01*
X160652381Y-124351191D02*
X159652381Y-124351191D01*
X159795238Y-124446429D01*
X159890476Y-124541667D01*
X159938095Y-124636905D01*
X159652381Y-123160714D02*
X159652381Y-123636905D01*
X160128571Y-123684524D01*
X160080952Y-123636905D01*
X160033333Y-123541667D01*
X160033333Y-123303571D01*
X160080952Y-123208333D01*
X160128571Y-123160714D01*
X160223810Y-123113095D01*
X160461905Y-123113095D01*
X160557143Y-123160714D01*
X160604762Y-123208333D01*
X160652381Y-123303571D01*
X160652381Y-123541667D01*
X160604762Y-123636905D01*
X160557143Y-123684524D01*
X152852381Y-123266666D02*
X152376190Y-123600000D01*
X152852381Y-123838095D02*
X151852381Y-123838095D01*
X151852381Y-123457142D01*
X151900000Y-123361904D01*
X151947619Y-123314285D01*
X152042857Y-123266666D01*
X152185714Y-123266666D01*
X152280952Y-123314285D01*
X152328571Y-123361904D01*
X152376190Y-123457142D01*
X152376190Y-123838095D01*
X152852381Y-122790476D02*
X152852381Y-122600000D01*
X152804762Y-122504761D01*
X152757143Y-122457142D01*
X152614286Y-122361904D01*
X152423810Y-122314285D01*
X152042857Y-122314285D01*
X151947619Y-122361904D01*
X151900000Y-122409523D01*
X151852381Y-122504761D01*
X151852381Y-122695238D01*
X151900000Y-122790476D01*
X151947619Y-122838095D01*
X152042857Y-122885714D01*
X152280952Y-122885714D01*
X152376190Y-122838095D01*
X152423810Y-122790476D01*
X152471429Y-122695238D01*
X152471429Y-122504761D01*
X152423810Y-122409523D01*
X152376190Y-122361904D01*
X152280952Y-122314285D01*
X154677381Y-123517857D02*
X154201190Y-123851191D01*
X154677381Y-124089286D02*
X153677381Y-124089286D01*
X153677381Y-123708333D01*
X153725000Y-123613095D01*
X153772619Y-123565476D01*
X153867857Y-123517857D01*
X154010714Y-123517857D01*
X154105952Y-123565476D01*
X154153571Y-123613095D01*
X154201190Y-123708333D01*
X154201190Y-124089286D01*
X154677381Y-122565476D02*
X154677381Y-123136905D01*
X154677381Y-122851191D02*
X153677381Y-122851191D01*
X153820238Y-122946429D01*
X153915476Y-123041667D01*
X153963095Y-123136905D01*
X153677381Y-121946429D02*
X153677381Y-121851190D01*
X153725000Y-121755952D01*
X153772619Y-121708333D01*
X153867857Y-121660714D01*
X154058333Y-121613095D01*
X154296429Y-121613095D01*
X154486905Y-121660714D01*
X154582143Y-121708333D01*
X154629762Y-121755952D01*
X154677381Y-121851190D01*
X154677381Y-121946429D01*
X154629762Y-122041667D01*
X154582143Y-122089286D01*
X154486905Y-122136905D01*
X154296429Y-122184524D01*
X154058333Y-122184524D01*
X153867857Y-122136905D01*
X153772619Y-122089286D01*
X153725000Y-122041667D01*
X153677381Y-121946429D01*
X142380476Y-94822381D02*
X143047143Y-95822381D01*
X143047143Y-94822381D02*
X142380476Y-95822381D01*
X143951905Y-95822381D02*
X143380476Y-95822381D01*
X143666190Y-95822381D02*
X143666190Y-94822381D01*
X143570952Y-94965238D01*
X143475714Y-95060476D01*
X143380476Y-95108095D01*
X157502381Y-121641666D02*
X157026190Y-121975000D01*
X157502381Y-122213095D02*
X156502381Y-122213095D01*
X156502381Y-121832142D01*
X156550000Y-121736904D01*
X156597619Y-121689285D01*
X156692857Y-121641666D01*
X156835714Y-121641666D01*
X156930952Y-121689285D01*
X156978571Y-121736904D01*
X157026190Y-121832142D01*
X157026190Y-122213095D01*
X156930952Y-121070238D02*
X156883333Y-121165476D01*
X156835714Y-121213095D01*
X156740476Y-121260714D01*
X156692857Y-121260714D01*
X156597619Y-121213095D01*
X156550000Y-121165476D01*
X156502381Y-121070238D01*
X156502381Y-120879761D01*
X156550000Y-120784523D01*
X156597619Y-120736904D01*
X156692857Y-120689285D01*
X156740476Y-120689285D01*
X156835714Y-120736904D01*
X156883333Y-120784523D01*
X156930952Y-120879761D01*
X156930952Y-121070238D01*
X156978571Y-121165476D01*
X157026190Y-121213095D01*
X157121429Y-121260714D01*
X157311905Y-121260714D01*
X157407143Y-121213095D01*
X157454762Y-121165476D01*
X157502381Y-121070238D01*
X157502381Y-120879761D01*
X157454762Y-120784523D01*
X157407143Y-120736904D01*
X157311905Y-120689285D01*
X157121429Y-120689285D01*
X157026190Y-120736904D01*
X156978571Y-120784523D01*
X156930952Y-120879761D01*
X162091667Y-95403571D02*
X161758333Y-95403571D01*
X161758333Y-95927381D02*
X161758333Y-94927381D01*
X162234524Y-94927381D01*
X162520238Y-94927381D02*
X163139286Y-94927381D01*
X162805952Y-95308333D01*
X162948810Y-95308333D01*
X163044048Y-95355952D01*
X163091667Y-95403571D01*
X163139286Y-95498810D01*
X163139286Y-95736905D01*
X163091667Y-95832143D01*
X163044048Y-95879762D01*
X162948810Y-95927381D01*
X162663095Y-95927381D01*
X162567857Y-95879762D01*
X162520238Y-95832143D01*
X130933334Y-107052381D02*
X130600000Y-106576190D01*
X130361905Y-107052381D02*
X130361905Y-106052381D01*
X130742858Y-106052381D01*
X130838096Y-106100000D01*
X130885715Y-106147619D01*
X130933334Y-106242857D01*
X130933334Y-106385714D01*
X130885715Y-106480952D01*
X130838096Y-106528571D01*
X130742858Y-106576190D01*
X130361905Y-106576190D01*
X131838096Y-106052381D02*
X131361905Y-106052381D01*
X131314286Y-106528571D01*
X131361905Y-106480952D01*
X131457143Y-106433333D01*
X131695239Y-106433333D01*
X131790477Y-106480952D01*
X131838096Y-106528571D01*
X131885715Y-106623810D01*
X131885715Y-106861905D01*
X131838096Y-106957143D01*
X131790477Y-107004762D01*
X131695239Y-107052381D01*
X131457143Y-107052381D01*
X131361905Y-107004762D01*
X131314286Y-106957143D01*
M02*
