M48
INCH,TZ
T1C0.013
T2C0.013
T3C0.040
T4C0.047
T5C0.118
%
G90
G05
T1
X51673Y-40256
X51673Y-46752
X51870Y-44193
X52024Y-39252
X52059Y-42075
X52067Y-43012
X52299Y-38185
X52461Y-46752
X52720Y-39933
X52764Y-38197
X53119Y-41469
X53171Y-40965
X53319Y-45847
X53452Y-41139
X53592Y-45661
X53594Y-36921
X53701Y-38839
X53754Y-41575
X54088Y-41259
X54237Y-45590
X54252Y-40972
X54317Y-41525
X54465Y-36469
X54476Y-39118
X54526Y-40696
X54543Y-45713
X54768Y-42240
X54854Y-39094
X54940Y-47185
X54961Y-36476
X55394Y-38819
X55417Y-39516
X55445Y-47369
X55445Y-39178
X55499Y-40705
X55512Y-36579
X55706Y-42025
X55741Y-37602
X55880Y-40737
X55973Y-43354
X55987Y-39508
X55996Y-41866
X56151Y-40925
X56206Y-43587
X56334Y-40636
X56475Y-40990
X56664Y-40652
X56827Y-37437
X56886Y-45867
X57021Y-40709
X57106Y-43205
X57129Y-45640
X57311Y-44287
X57321Y-38348
X57323Y-38780
X57344Y-40643
X57362Y-43429
X57445Y-45736
X57591Y-44622
X57625Y-44043
X57756Y-45850
X57768Y-39165
X57886Y-37550
X57896Y-38335
X57978Y-43126
X58002Y-42390
X58068Y-39028
X58075Y-43462
X58272Y-42768
X58295Y-41083
X58396Y-39058
X58543Y-40138
X58628Y-40480
X58777Y-39328
X58819Y-48189
X58858Y-49213
X58867Y-46216
X58949Y-46543
X58961Y-47233
X59142Y-40319
X59283Y-46563
X59293Y-47346
X59298Y-47016
X59515Y-43938
X59516Y-43414
X59516Y-45488
X59693Y-44394
X59697Y-42531
X59701Y-46567
X59850Y-38917
X59917Y-43272
X59996Y-44054
X60024Y-42445
X60055Y-44378
X60094Y-41043
X60165Y-40717
X60174Y-39334
X60294Y-36005
X60327Y-42645
X60413Y-40935
X60433Y-44350
X60433Y-48524
X60531Y-39240
X60678Y-43274
X60827Y-48425
X60862Y-36433
X60866Y-35780
X60866Y-37335
X60874Y-37051
X60988Y-43602
X61463Y-40995
X61488Y-42287
X61496Y-37638
X61504Y-42591
X61508Y-42906
X61748Y-42748
X61752Y-42429
X61756Y-43071
X61772Y-37795
X61839Y-41429
X62106Y-48720
X62142Y-38646
X62205Y-47402
X62441Y-38638
X62500Y-48720
X62748Y-38642
X63819Y-43071
X63831Y-42752
X63839Y-42433
X63843Y-42122
X63971Y-41051
X64051Y-42913
X64055Y-42594
X64071Y-41941
X64083Y-42280
X64449Y-43504
T2
X60687Y-39685
X60965Y-44839
X60983Y-45169
X61051Y-44389
X61277Y-44732
X61323Y-41794
X61355Y-44262
X61712Y-41897
X63404Y-46042
X63657Y-45816
X63779Y-39336
X63807Y-39008
X63935Y-40601
X64093Y-39235
X64146Y-44300
X64193Y-39571
X64236Y-40811
X64251Y-43768
X64282Y-44600
X64302Y-44930
T3
X54756Y-48173
X54756Y-49173
X55756Y-48173
X55756Y-49173
X56756Y-48173
X56756Y-49173
X57756Y-48173
X57756Y-49173
T4
X54724Y-36004
X57323Y-36004
T5
X52264Y-36516
X52264Y-48524
X64272Y-36516
X64272Y-48524
T0
M30
