G04 #@! TF.FileFunction,Soldermask,Bot*
%FSLAX46Y46*%
G04 Gerber Fmt 4.6, Leading zero omitted, Abs format (unit mm)*
G04 Created by KiCad (PCBNEW 4.0.1-stable) date Friday, March 04, 2016 'AMt' 01:34:41 AM*
%MOMM*%
G01*
G04 APERTURE LIST*
%ADD10C,0.100000*%
%ADD11C,0.010000*%
%ADD12R,1.060000X0.630000*%
%ADD13R,1.060000X0.750000*%
%ADD14C,2.000000*%
%ADD15R,1.197560X1.197560*%
%ADD16C,1.924000*%
%ADD17R,2.000000X1.800000*%
%ADD18R,0.800000X1.750000*%
%ADD19R,2.300000X2.300000*%
%ADD20R,2.127200X2.127200*%
%ADD21O,2.127200X2.127200*%
%ADD22R,1.600000X1.300000*%
%ADD23R,1.800000X1.450000*%
%ADD24R,1.200100X1.200100*%
G04 APERTURE END LIST*
D10*
D11*
G36*
X132312729Y-117080436D02*
X132311512Y-117054492D01*
X132309405Y-117029876D01*
X132306319Y-117005432D01*
X132302163Y-116980001D01*
X132298931Y-116962832D01*
X132293687Y-116937483D01*
X132288076Y-116913301D01*
X132281868Y-116889569D01*
X132274836Y-116865571D01*
X132266750Y-116840588D01*
X132257382Y-116813905D01*
X132246502Y-116784804D01*
X132233882Y-116752567D01*
X132224064Y-116728180D01*
X132210762Y-116695800D01*
X132196953Y-116662927D01*
X132182506Y-116629285D01*
X132167292Y-116594596D01*
X132151180Y-116558583D01*
X132134041Y-116520969D01*
X132115745Y-116481476D01*
X132096161Y-116439828D01*
X132075160Y-116395747D01*
X132052611Y-116348956D01*
X132028385Y-116299178D01*
X132002352Y-116246136D01*
X131974381Y-116189552D01*
X131944343Y-116129150D01*
X131924564Y-116089541D01*
X131896596Y-116033510D01*
X131870721Y-115981441D01*
X131846791Y-115933012D01*
X131824657Y-115887898D01*
X131804170Y-115845776D01*
X131785181Y-115806321D01*
X131767543Y-115769210D01*
X131751105Y-115734119D01*
X131735720Y-115700724D01*
X131721238Y-115668701D01*
X131707511Y-115637727D01*
X131694390Y-115607476D01*
X131681726Y-115577626D01*
X131669371Y-115547852D01*
X131657175Y-115517831D01*
X131644991Y-115487239D01*
X131632669Y-115455751D01*
X131628108Y-115443971D01*
X131621739Y-115427521D01*
X131615795Y-115412243D01*
X131610540Y-115398816D01*
X131606241Y-115387915D01*
X131603163Y-115380220D01*
X131601626Y-115376521D01*
X131598499Y-115369547D01*
X131576854Y-115387626D01*
X131545173Y-115416127D01*
X131513107Y-115448908D01*
X131481033Y-115485472D01*
X131449328Y-115525320D01*
X131418370Y-115567956D01*
X131388536Y-115612883D01*
X131360204Y-115659602D01*
X131333751Y-115707616D01*
X131333102Y-115708857D01*
X131302323Y-115771538D01*
X131273291Y-115838125D01*
X131246203Y-115907941D01*
X131221259Y-115980309D01*
X131198655Y-116054552D01*
X131178590Y-116129992D01*
X131161261Y-116205954D01*
X131146866Y-116281758D01*
X131135604Y-116356729D01*
X131130217Y-116403124D01*
X131129136Y-116416878D01*
X131128287Y-116434158D01*
X131127671Y-116454064D01*
X131127287Y-116475696D01*
X131127135Y-116498153D01*
X131127216Y-116520535D01*
X131127530Y-116541942D01*
X131128076Y-116561473D01*
X131128855Y-116578228D01*
X131129867Y-116591307D01*
X131130197Y-116594229D01*
X131137899Y-116642356D01*
X131148558Y-116686722D01*
X131162167Y-116727307D01*
X131178719Y-116764087D01*
X131198207Y-116797044D01*
X131207192Y-116809643D01*
X131230889Y-116837515D01*
X131257003Y-116861293D01*
X131285864Y-116881217D01*
X131317801Y-116897528D01*
X131338704Y-116905725D01*
X131358013Y-116912044D01*
X131375569Y-116916562D01*
X131392905Y-116919522D01*
X131411552Y-116921170D01*
X131433039Y-116921748D01*
X131439407Y-116921752D01*
X131478424Y-116921615D01*
X131480043Y-116937410D01*
X131481661Y-116953205D01*
X131470054Y-116970264D01*
X131458447Y-116987324D01*
X131435466Y-116988029D01*
X131403256Y-116986958D01*
X131369569Y-116982033D01*
X131335412Y-116973555D01*
X131301792Y-116961821D01*
X131269715Y-116947130D01*
X131241038Y-116930343D01*
X131208226Y-116905807D01*
X131178661Y-116877694D01*
X131152351Y-116846016D01*
X131129303Y-116810788D01*
X131109524Y-116772025D01*
X131093022Y-116729740D01*
X131079803Y-116683949D01*
X131069874Y-116634665D01*
X131063244Y-116581902D01*
X131062712Y-116575835D01*
X131061560Y-116556649D01*
X131060937Y-116533734D01*
X131060819Y-116508167D01*
X131061179Y-116481026D01*
X131061990Y-116453387D01*
X131063227Y-116426328D01*
X131064865Y-116400926D01*
X131066876Y-116378258D01*
X131067647Y-116371304D01*
X131078328Y-116294242D01*
X131092248Y-116216100D01*
X131109193Y-116137641D01*
X131128951Y-116059628D01*
X131151309Y-115982821D01*
X131176055Y-115907982D01*
X131202976Y-115835874D01*
X131231859Y-115767258D01*
X131243200Y-115742481D01*
X131272826Y-115682591D01*
X131304395Y-115625110D01*
X131337677Y-115570356D01*
X131372440Y-115518645D01*
X131408452Y-115470292D01*
X131445481Y-115425615D01*
X131483297Y-115384929D01*
X131521668Y-115348551D01*
X131547461Y-115326833D01*
X131559842Y-115316671D01*
X131568393Y-115309019D01*
X131573303Y-115303692D01*
X131574760Y-115300507D01*
X131574715Y-115300270D01*
X131572220Y-115290275D01*
X131569390Y-115276254D01*
X131566339Y-115258997D01*
X131563182Y-115239295D01*
X131560031Y-115217938D01*
X131557003Y-115195717D01*
X131554211Y-115173424D01*
X131551769Y-115151848D01*
X131549792Y-115131780D01*
X131548988Y-115122238D01*
X131547797Y-115101489D01*
X131547330Y-115078508D01*
X131547605Y-115052991D01*
X131548642Y-115024634D01*
X131550457Y-114993131D01*
X131553071Y-114958177D01*
X131556500Y-114919469D01*
X131560764Y-114876700D01*
X131565881Y-114829567D01*
X131567529Y-114815019D01*
X131575630Y-114747865D01*
X131585084Y-114676268D01*
X131595856Y-114600417D01*
X131607912Y-114520503D01*
X131621216Y-114436717D01*
X131635735Y-114349250D01*
X131651434Y-114258292D01*
X131668278Y-114164034D01*
X131686231Y-114066667D01*
X131705260Y-113966381D01*
X131725330Y-113863368D01*
X131746406Y-113757817D01*
X131768453Y-113649920D01*
X131791436Y-113539867D01*
X131815321Y-113427848D01*
X131840074Y-113314055D01*
X131844343Y-113294648D01*
X131849073Y-113273025D01*
X131853518Y-113252407D01*
X131857555Y-113233376D01*
X131861065Y-113216516D01*
X131863926Y-113202411D01*
X131866018Y-113191644D01*
X131867220Y-113184798D01*
X131867415Y-113183371D01*
X131867358Y-113164597D01*
X131863521Y-113144733D01*
X131856361Y-113125026D01*
X131846334Y-113106721D01*
X131833897Y-113091065D01*
X131833419Y-113090576D01*
X131824943Y-113083199D01*
X131812514Y-113074131D01*
X131796606Y-113063630D01*
X131777694Y-113051956D01*
X131756252Y-113039369D01*
X131732753Y-113026129D01*
X131707672Y-113012496D01*
X131681482Y-112998728D01*
X131654659Y-112985087D01*
X131627676Y-112971831D01*
X131601007Y-112959220D01*
X131575126Y-112947515D01*
X131561334Y-112941528D01*
X131514061Y-112922685D01*
X131469540Y-112907683D01*
X131427796Y-112896527D01*
X131388849Y-112889221D01*
X131352723Y-112885766D01*
X131319440Y-112886167D01*
X131289023Y-112890426D01*
X131262728Y-112898078D01*
X131248834Y-112904648D01*
X131233808Y-112913949D01*
X131219341Y-112924782D01*
X131207126Y-112935950D01*
X131203410Y-112940053D01*
X131195243Y-112950606D01*
X131188032Y-112962001D01*
X131181702Y-112974613D01*
X131176178Y-112988815D01*
X131171384Y-113004979D01*
X131167244Y-113023479D01*
X131163684Y-113044687D01*
X131160627Y-113068978D01*
X131157998Y-113096723D01*
X131155722Y-113128297D01*
X131153723Y-113164072D01*
X131152446Y-113191838D01*
X131151912Y-113205395D01*
X131151285Y-113223106D01*
X131150585Y-113244286D01*
X131149832Y-113268253D01*
X131149049Y-113294323D01*
X131148255Y-113321812D01*
X131147472Y-113350038D01*
X131146719Y-113378316D01*
X131146352Y-113392619D01*
X131144435Y-113465281D01*
X131142472Y-113533516D01*
X131140442Y-113597734D01*
X131138326Y-113658348D01*
X131136103Y-113715767D01*
X131133753Y-113770403D01*
X131131255Y-113822667D01*
X131128590Y-113872969D01*
X131125738Y-113921721D01*
X131122678Y-113969333D01*
X131119389Y-114016217D01*
X131115853Y-114062783D01*
X131112048Y-114109443D01*
X131109941Y-114134057D01*
X131100125Y-114238566D01*
X131089142Y-114339029D01*
X131076851Y-114436127D01*
X131063112Y-114530540D01*
X131047785Y-114622947D01*
X131030730Y-114714028D01*
X131011805Y-114804464D01*
X130990872Y-114894934D01*
X130967790Y-114986118D01*
X130942418Y-115078697D01*
X130914616Y-115173349D01*
X130884243Y-115270755D01*
X130860103Y-115344790D01*
X130847144Y-115383637D01*
X130834962Y-115419588D01*
X130823374Y-115453035D01*
X130812198Y-115484370D01*
X130801252Y-115513986D01*
X130790353Y-115542274D01*
X130779318Y-115569626D01*
X130767965Y-115596435D01*
X130756112Y-115623092D01*
X130743575Y-115649989D01*
X130730173Y-115677519D01*
X130715723Y-115706073D01*
X130700041Y-115736044D01*
X130682947Y-115767824D01*
X130664257Y-115801804D01*
X130643788Y-115838376D01*
X130621359Y-115877934D01*
X130596787Y-115920868D01*
X130571212Y-115965276D01*
X130551376Y-115999694D01*
X130533748Y-116030393D01*
X130518081Y-116057825D01*
X130504127Y-116082438D01*
X130491637Y-116104682D01*
X130480364Y-116125007D01*
X130470059Y-116143864D01*
X130460475Y-116161701D01*
X130451364Y-116178969D01*
X130442477Y-116196118D01*
X130433567Y-116213596D01*
X130425838Y-116228952D01*
X130403949Y-116273741D01*
X130384775Y-116315424D01*
X130368070Y-116354718D01*
X130353585Y-116392342D01*
X130341073Y-116429014D01*
X130330284Y-116465450D01*
X130320972Y-116502371D01*
X130312889Y-116540492D01*
X130307021Y-116573045D01*
X130300588Y-116613692D01*
X130295532Y-116651122D01*
X130291742Y-116686722D01*
X130289104Y-116721880D01*
X130287508Y-116757980D01*
X130286842Y-116796411D01*
X130286851Y-116822829D01*
X130286988Y-116841061D01*
X130287165Y-116858234D01*
X130287370Y-116873598D01*
X130287593Y-116886402D01*
X130287822Y-116895898D01*
X130288045Y-116901333D01*
X130288053Y-116901448D01*
X130294235Y-116963879D01*
X130303591Y-117025463D01*
X130315971Y-117085610D01*
X130331224Y-117143736D01*
X130349200Y-117199253D01*
X130369747Y-117251574D01*
X130388125Y-117291114D01*
X130420284Y-117349972D01*
X130456998Y-117407316D01*
X130498212Y-117463094D01*
X130543870Y-117517253D01*
X130593914Y-117569741D01*
X130648290Y-117620506D01*
X130706940Y-117669496D01*
X130769808Y-117716658D01*
X130836839Y-117761940D01*
X130907976Y-117805290D01*
X130983163Y-117846656D01*
X130988860Y-117849623D01*
X131040297Y-117874999D01*
X131093607Y-117898666D01*
X131149431Y-117920868D01*
X131208406Y-117941853D01*
X131271173Y-117961866D01*
X131309766Y-117973182D01*
X131327998Y-117978370D01*
X131395970Y-118146876D01*
X131406924Y-118173946D01*
X131417400Y-118199671D01*
X131427254Y-118223703D01*
X131436338Y-118245696D01*
X131444509Y-118265301D01*
X131451620Y-118282173D01*
X131457526Y-118295962D01*
X131462082Y-118306324D01*
X131465141Y-118312909D01*
X131466559Y-118315372D01*
X131466591Y-118315381D01*
X131468563Y-118313615D01*
X131473510Y-118308493D01*
X131481192Y-118300276D01*
X131491371Y-118289225D01*
X131503811Y-118275604D01*
X131518272Y-118259673D01*
X131534518Y-118241695D01*
X131552310Y-118221931D01*
X131571410Y-118200643D01*
X131591581Y-118178094D01*
X131607223Y-118160562D01*
X131745206Y-118005743D01*
X131772442Y-117995884D01*
X131820493Y-117976454D01*
X131866369Y-117953656D01*
X131910487Y-117927210D01*
X131953264Y-117896838D01*
X131995117Y-117862261D01*
X132036464Y-117823199D01*
X132047485Y-117811961D01*
X132088750Y-117765802D01*
X132126931Y-117716025D01*
X132161936Y-117662811D01*
X132193676Y-117606341D01*
X132222059Y-117546797D01*
X132246996Y-117484361D01*
X132268395Y-117419215D01*
X132286165Y-117351540D01*
X132293028Y-117319943D01*
X132298950Y-117289499D01*
X132303593Y-117262261D01*
X132307112Y-117236814D01*
X132309665Y-117211744D01*
X132311408Y-117185636D01*
X132312499Y-117157075D01*
X132312857Y-117140933D01*
X132313147Y-117108864D01*
X132312729Y-117080436D01*
X132312729Y-117080436D01*
G37*
X132312729Y-117080436D02*
X132311512Y-117054492D01*
X132309405Y-117029876D01*
X132306319Y-117005432D01*
X132302163Y-116980001D01*
X132298931Y-116962832D01*
X132293687Y-116937483D01*
X132288076Y-116913301D01*
X132281868Y-116889569D01*
X132274836Y-116865571D01*
X132266750Y-116840588D01*
X132257382Y-116813905D01*
X132246502Y-116784804D01*
X132233882Y-116752567D01*
X132224064Y-116728180D01*
X132210762Y-116695800D01*
X132196953Y-116662927D01*
X132182506Y-116629285D01*
X132167292Y-116594596D01*
X132151180Y-116558583D01*
X132134041Y-116520969D01*
X132115745Y-116481476D01*
X132096161Y-116439828D01*
X132075160Y-116395747D01*
X132052611Y-116348956D01*
X132028385Y-116299178D01*
X132002352Y-116246136D01*
X131974381Y-116189552D01*
X131944343Y-116129150D01*
X131924564Y-116089541D01*
X131896596Y-116033510D01*
X131870721Y-115981441D01*
X131846791Y-115933012D01*
X131824657Y-115887898D01*
X131804170Y-115845776D01*
X131785181Y-115806321D01*
X131767543Y-115769210D01*
X131751105Y-115734119D01*
X131735720Y-115700724D01*
X131721238Y-115668701D01*
X131707511Y-115637727D01*
X131694390Y-115607476D01*
X131681726Y-115577626D01*
X131669371Y-115547852D01*
X131657175Y-115517831D01*
X131644991Y-115487239D01*
X131632669Y-115455751D01*
X131628108Y-115443971D01*
X131621739Y-115427521D01*
X131615795Y-115412243D01*
X131610540Y-115398816D01*
X131606241Y-115387915D01*
X131603163Y-115380220D01*
X131601626Y-115376521D01*
X131598499Y-115369547D01*
X131576854Y-115387626D01*
X131545173Y-115416127D01*
X131513107Y-115448908D01*
X131481033Y-115485472D01*
X131449328Y-115525320D01*
X131418370Y-115567956D01*
X131388536Y-115612883D01*
X131360204Y-115659602D01*
X131333751Y-115707616D01*
X131333102Y-115708857D01*
X131302323Y-115771538D01*
X131273291Y-115838125D01*
X131246203Y-115907941D01*
X131221259Y-115980309D01*
X131198655Y-116054552D01*
X131178590Y-116129992D01*
X131161261Y-116205954D01*
X131146866Y-116281758D01*
X131135604Y-116356729D01*
X131130217Y-116403124D01*
X131129136Y-116416878D01*
X131128287Y-116434158D01*
X131127671Y-116454064D01*
X131127287Y-116475696D01*
X131127135Y-116498153D01*
X131127216Y-116520535D01*
X131127530Y-116541942D01*
X131128076Y-116561473D01*
X131128855Y-116578228D01*
X131129867Y-116591307D01*
X131130197Y-116594229D01*
X131137899Y-116642356D01*
X131148558Y-116686722D01*
X131162167Y-116727307D01*
X131178719Y-116764087D01*
X131198207Y-116797044D01*
X131207192Y-116809643D01*
X131230889Y-116837515D01*
X131257003Y-116861293D01*
X131285864Y-116881217D01*
X131317801Y-116897528D01*
X131338704Y-116905725D01*
X131358013Y-116912044D01*
X131375569Y-116916562D01*
X131392905Y-116919522D01*
X131411552Y-116921170D01*
X131433039Y-116921748D01*
X131439407Y-116921752D01*
X131478424Y-116921615D01*
X131480043Y-116937410D01*
X131481661Y-116953205D01*
X131470054Y-116970264D01*
X131458447Y-116987324D01*
X131435466Y-116988029D01*
X131403256Y-116986958D01*
X131369569Y-116982033D01*
X131335412Y-116973555D01*
X131301792Y-116961821D01*
X131269715Y-116947130D01*
X131241038Y-116930343D01*
X131208226Y-116905807D01*
X131178661Y-116877694D01*
X131152351Y-116846016D01*
X131129303Y-116810788D01*
X131109524Y-116772025D01*
X131093022Y-116729740D01*
X131079803Y-116683949D01*
X131069874Y-116634665D01*
X131063244Y-116581902D01*
X131062712Y-116575835D01*
X131061560Y-116556649D01*
X131060937Y-116533734D01*
X131060819Y-116508167D01*
X131061179Y-116481026D01*
X131061990Y-116453387D01*
X131063227Y-116426328D01*
X131064865Y-116400926D01*
X131066876Y-116378258D01*
X131067647Y-116371304D01*
X131078328Y-116294242D01*
X131092248Y-116216100D01*
X131109193Y-116137641D01*
X131128951Y-116059628D01*
X131151309Y-115982821D01*
X131176055Y-115907982D01*
X131202976Y-115835874D01*
X131231859Y-115767258D01*
X131243200Y-115742481D01*
X131272826Y-115682591D01*
X131304395Y-115625110D01*
X131337677Y-115570356D01*
X131372440Y-115518645D01*
X131408452Y-115470292D01*
X131445481Y-115425615D01*
X131483297Y-115384929D01*
X131521668Y-115348551D01*
X131547461Y-115326833D01*
X131559842Y-115316671D01*
X131568393Y-115309019D01*
X131573303Y-115303692D01*
X131574760Y-115300507D01*
X131574715Y-115300270D01*
X131572220Y-115290275D01*
X131569390Y-115276254D01*
X131566339Y-115258997D01*
X131563182Y-115239295D01*
X131560031Y-115217938D01*
X131557003Y-115195717D01*
X131554211Y-115173424D01*
X131551769Y-115151848D01*
X131549792Y-115131780D01*
X131548988Y-115122238D01*
X131547797Y-115101489D01*
X131547330Y-115078508D01*
X131547605Y-115052991D01*
X131548642Y-115024634D01*
X131550457Y-114993131D01*
X131553071Y-114958177D01*
X131556500Y-114919469D01*
X131560764Y-114876700D01*
X131565881Y-114829567D01*
X131567529Y-114815019D01*
X131575630Y-114747865D01*
X131585084Y-114676268D01*
X131595856Y-114600417D01*
X131607912Y-114520503D01*
X131621216Y-114436717D01*
X131635735Y-114349250D01*
X131651434Y-114258292D01*
X131668278Y-114164034D01*
X131686231Y-114066667D01*
X131705260Y-113966381D01*
X131725330Y-113863368D01*
X131746406Y-113757817D01*
X131768453Y-113649920D01*
X131791436Y-113539867D01*
X131815321Y-113427848D01*
X131840074Y-113314055D01*
X131844343Y-113294648D01*
X131849073Y-113273025D01*
X131853518Y-113252407D01*
X131857555Y-113233376D01*
X131861065Y-113216516D01*
X131863926Y-113202411D01*
X131866018Y-113191644D01*
X131867220Y-113184798D01*
X131867415Y-113183371D01*
X131867358Y-113164597D01*
X131863521Y-113144733D01*
X131856361Y-113125026D01*
X131846334Y-113106721D01*
X131833897Y-113091065D01*
X131833419Y-113090576D01*
X131824943Y-113083199D01*
X131812514Y-113074131D01*
X131796606Y-113063630D01*
X131777694Y-113051956D01*
X131756252Y-113039369D01*
X131732753Y-113026129D01*
X131707672Y-113012496D01*
X131681482Y-112998728D01*
X131654659Y-112985087D01*
X131627676Y-112971831D01*
X131601007Y-112959220D01*
X131575126Y-112947515D01*
X131561334Y-112941528D01*
X131514061Y-112922685D01*
X131469540Y-112907683D01*
X131427796Y-112896527D01*
X131388849Y-112889221D01*
X131352723Y-112885766D01*
X131319440Y-112886167D01*
X131289023Y-112890426D01*
X131262728Y-112898078D01*
X131248834Y-112904648D01*
X131233808Y-112913949D01*
X131219341Y-112924782D01*
X131207126Y-112935950D01*
X131203410Y-112940053D01*
X131195243Y-112950606D01*
X131188032Y-112962001D01*
X131181702Y-112974613D01*
X131176178Y-112988815D01*
X131171384Y-113004979D01*
X131167244Y-113023479D01*
X131163684Y-113044687D01*
X131160627Y-113068978D01*
X131157998Y-113096723D01*
X131155722Y-113128297D01*
X131153723Y-113164072D01*
X131152446Y-113191838D01*
X131151912Y-113205395D01*
X131151285Y-113223106D01*
X131150585Y-113244286D01*
X131149832Y-113268253D01*
X131149049Y-113294323D01*
X131148255Y-113321812D01*
X131147472Y-113350038D01*
X131146719Y-113378316D01*
X131146352Y-113392619D01*
X131144435Y-113465281D01*
X131142472Y-113533516D01*
X131140442Y-113597734D01*
X131138326Y-113658348D01*
X131136103Y-113715767D01*
X131133753Y-113770403D01*
X131131255Y-113822667D01*
X131128590Y-113872969D01*
X131125738Y-113921721D01*
X131122678Y-113969333D01*
X131119389Y-114016217D01*
X131115853Y-114062783D01*
X131112048Y-114109443D01*
X131109941Y-114134057D01*
X131100125Y-114238566D01*
X131089142Y-114339029D01*
X131076851Y-114436127D01*
X131063112Y-114530540D01*
X131047785Y-114622947D01*
X131030730Y-114714028D01*
X131011805Y-114804464D01*
X130990872Y-114894934D01*
X130967790Y-114986118D01*
X130942418Y-115078697D01*
X130914616Y-115173349D01*
X130884243Y-115270755D01*
X130860103Y-115344790D01*
X130847144Y-115383637D01*
X130834962Y-115419588D01*
X130823374Y-115453035D01*
X130812198Y-115484370D01*
X130801252Y-115513986D01*
X130790353Y-115542274D01*
X130779318Y-115569626D01*
X130767965Y-115596435D01*
X130756112Y-115623092D01*
X130743575Y-115649989D01*
X130730173Y-115677519D01*
X130715723Y-115706073D01*
X130700041Y-115736044D01*
X130682947Y-115767824D01*
X130664257Y-115801804D01*
X130643788Y-115838376D01*
X130621359Y-115877934D01*
X130596787Y-115920868D01*
X130571212Y-115965276D01*
X130551376Y-115999694D01*
X130533748Y-116030393D01*
X130518081Y-116057825D01*
X130504127Y-116082438D01*
X130491637Y-116104682D01*
X130480364Y-116125007D01*
X130470059Y-116143864D01*
X130460475Y-116161701D01*
X130451364Y-116178969D01*
X130442477Y-116196118D01*
X130433567Y-116213596D01*
X130425838Y-116228952D01*
X130403949Y-116273741D01*
X130384775Y-116315424D01*
X130368070Y-116354718D01*
X130353585Y-116392342D01*
X130341073Y-116429014D01*
X130330284Y-116465450D01*
X130320972Y-116502371D01*
X130312889Y-116540492D01*
X130307021Y-116573045D01*
X130300588Y-116613692D01*
X130295532Y-116651122D01*
X130291742Y-116686722D01*
X130289104Y-116721880D01*
X130287508Y-116757980D01*
X130286842Y-116796411D01*
X130286851Y-116822829D01*
X130286988Y-116841061D01*
X130287165Y-116858234D01*
X130287370Y-116873598D01*
X130287593Y-116886402D01*
X130287822Y-116895898D01*
X130288045Y-116901333D01*
X130288053Y-116901448D01*
X130294235Y-116963879D01*
X130303591Y-117025463D01*
X130315971Y-117085610D01*
X130331224Y-117143736D01*
X130349200Y-117199253D01*
X130369747Y-117251574D01*
X130388125Y-117291114D01*
X130420284Y-117349972D01*
X130456998Y-117407316D01*
X130498212Y-117463094D01*
X130543870Y-117517253D01*
X130593914Y-117569741D01*
X130648290Y-117620506D01*
X130706940Y-117669496D01*
X130769808Y-117716658D01*
X130836839Y-117761940D01*
X130907976Y-117805290D01*
X130983163Y-117846656D01*
X130988860Y-117849623D01*
X131040297Y-117874999D01*
X131093607Y-117898666D01*
X131149431Y-117920868D01*
X131208406Y-117941853D01*
X131271173Y-117961866D01*
X131309766Y-117973182D01*
X131327998Y-117978370D01*
X131395970Y-118146876D01*
X131406924Y-118173946D01*
X131417400Y-118199671D01*
X131427254Y-118223703D01*
X131436338Y-118245696D01*
X131444509Y-118265301D01*
X131451620Y-118282173D01*
X131457526Y-118295962D01*
X131462082Y-118306324D01*
X131465141Y-118312909D01*
X131466559Y-118315372D01*
X131466591Y-118315381D01*
X131468563Y-118313615D01*
X131473510Y-118308493D01*
X131481192Y-118300276D01*
X131491371Y-118289225D01*
X131503811Y-118275604D01*
X131518272Y-118259673D01*
X131534518Y-118241695D01*
X131552310Y-118221931D01*
X131571410Y-118200643D01*
X131591581Y-118178094D01*
X131607223Y-118160562D01*
X131745206Y-118005743D01*
X131772442Y-117995884D01*
X131820493Y-117976454D01*
X131866369Y-117953656D01*
X131910487Y-117927210D01*
X131953264Y-117896838D01*
X131995117Y-117862261D01*
X132036464Y-117823199D01*
X132047485Y-117811961D01*
X132088750Y-117765802D01*
X132126931Y-117716025D01*
X132161936Y-117662811D01*
X132193676Y-117606341D01*
X132222059Y-117546797D01*
X132246996Y-117484361D01*
X132268395Y-117419215D01*
X132286165Y-117351540D01*
X132293028Y-117319943D01*
X132298950Y-117289499D01*
X132303593Y-117262261D01*
X132307112Y-117236814D01*
X132309665Y-117211744D01*
X132311408Y-117185636D01*
X132312499Y-117157075D01*
X132312857Y-117140933D01*
X132313147Y-117108864D01*
X132312729Y-117080436D01*
D12*
X161010000Y-106190000D03*
X158300000Y-106190000D03*
X161010000Y-109790000D03*
X158300000Y-109790000D03*
D13*
X161010000Y-105715000D03*
X158300000Y-105715000D03*
X161010000Y-110265000D03*
X158300000Y-110265000D03*
D12*
X158300000Y-109390000D03*
X161010000Y-109390000D03*
X158300000Y-108990000D03*
X161010000Y-108990000D03*
X158300000Y-108590000D03*
X161010000Y-108590000D03*
X158300000Y-108190000D03*
X161010000Y-108190000D03*
X158300000Y-107790000D03*
X161010000Y-107790000D03*
X158300000Y-107390000D03*
X161010000Y-107390000D03*
X158300000Y-106990000D03*
X161010000Y-106990000D03*
X158300000Y-106590000D03*
X161010000Y-106590000D03*
D14*
X134425000Y-120850000D03*
X131475000Y-95375000D03*
X164375000Y-95475000D03*
D15*
X155640000Y-90890000D03*
X157138600Y-90890000D03*
D16*
X156575000Y-121350000D03*
D17*
X139100000Y-93900000D03*
X145500000Y-93900000D03*
D18*
X141000000Y-94125000D03*
X141650000Y-94125000D03*
X142300000Y-94125000D03*
X142950000Y-94125000D03*
X143600000Y-94125000D03*
D19*
X141100000Y-91450000D03*
X143500000Y-91450000D03*
D14*
X139000000Y-91450000D03*
X145600000Y-91450000D03*
D20*
X146700000Y-124900000D03*
D21*
X146700000Y-122360000D03*
X144160000Y-124900000D03*
X144160000Y-122360000D03*
X141620000Y-124900000D03*
X141620000Y-122360000D03*
X139080000Y-124900000D03*
X139080000Y-122360000D03*
D16*
X159500000Y-118900000D03*
X163600000Y-118900000D03*
D22*
X144610000Y-104350000D03*
X146810000Y-104350000D03*
X135050000Y-108290000D03*
X132850000Y-108290000D03*
X132760000Y-110300000D03*
X134960000Y-110300000D03*
X158090000Y-92580000D03*
X155890000Y-92580000D03*
D23*
X151800000Y-92225000D03*
X148200000Y-92225000D03*
X151800000Y-90775000D03*
X148200000Y-90775000D03*
D24*
X156700000Y-123124240D03*
X158600000Y-123124240D03*
X157650000Y-125123220D03*
X155100000Y-125125760D03*
X153200000Y-125125760D03*
X154150000Y-123126780D03*
X149725000Y-123124240D03*
X151625000Y-123124240D03*
X150675000Y-125123220D03*
X156099240Y-100300000D03*
X156099240Y-98400000D03*
X158098220Y-99350000D03*
M02*
