G04 #@! TF.FileFunction,Legend,Top*
%FSLAX46Y46*%
G04 Gerber Fmt 4.6, Leading zero omitted, Abs format (unit mm)*
G04 Created by KiCad (PCBNEW 4.0.1-stable) date Friday, March 04, 2016 'AMt' 01:34:41 AM*
%MOMM*%
G01*
G04 APERTURE LIST*
%ADD10C,0.100000*%
%ADD11C,0.200000*%
%ADD12C,0.300000*%
%ADD13C,0.150000*%
%ADD14C,0.010000*%
G04 APERTURE END LIST*
D10*
D11*
X150506226Y-101206225D02*
G75*
G03X150506226Y-101206225I-806226J0D01*
G01*
X141424264Y-99500000D02*
G75*
G03X141424264Y-99500000I-424264J0D01*
G01*
D12*
X141200001Y-118978571D02*
X142128572Y-118978571D01*
X141628572Y-119550000D01*
X141842858Y-119550000D01*
X141985715Y-119621429D01*
X142057144Y-119692857D01*
X142128572Y-119835714D01*
X142128572Y-120192857D01*
X142057144Y-120335714D01*
X141985715Y-120407143D01*
X141842858Y-120478571D01*
X141414286Y-120478571D01*
X141271429Y-120407143D01*
X141200001Y-120335714D01*
X139210715Y-119653571D02*
X139210715Y-120653571D01*
X138853572Y-119082143D02*
X138496429Y-120153571D01*
X139425001Y-120153571D01*
D11*
X135185715Y-124400000D02*
X135071429Y-124342857D01*
X134900000Y-124342857D01*
X134728572Y-124400000D01*
X134614286Y-124514286D01*
X134557143Y-124628571D01*
X134500000Y-124857143D01*
X134500000Y-125028571D01*
X134557143Y-125257143D01*
X134614286Y-125371429D01*
X134728572Y-125485714D01*
X134900000Y-125542857D01*
X135014286Y-125542857D01*
X135185715Y-125485714D01*
X135242858Y-125428571D01*
X135242858Y-125028571D01*
X135014286Y-125028571D01*
X135757143Y-125542857D02*
X135757143Y-124342857D01*
X136442858Y-125542857D01*
X136442858Y-124342857D01*
X137014286Y-125542857D02*
X137014286Y-124342857D01*
X137300001Y-124342857D01*
X137471429Y-124400000D01*
X137585715Y-124514286D01*
X137642858Y-124628571D01*
X137700001Y-124857143D01*
X137700001Y-125028571D01*
X137642858Y-125257143D01*
X137585715Y-125371429D01*
X137471429Y-125485714D01*
X137300001Y-125542857D01*
X137014286Y-125542857D01*
X135271428Y-122885714D02*
X135442857Y-122942857D01*
X135728571Y-122942857D01*
X135842857Y-122885714D01*
X135900000Y-122828571D01*
X135957143Y-122714286D01*
X135957143Y-122600000D01*
X135900000Y-122485714D01*
X135842857Y-122428571D01*
X135728571Y-122371429D01*
X135500000Y-122314286D01*
X135385714Y-122257143D01*
X135328571Y-122200000D01*
X135271428Y-122085714D01*
X135271428Y-121971429D01*
X135328571Y-121857143D01*
X135385714Y-121800000D01*
X135500000Y-121742857D01*
X135785714Y-121742857D01*
X135957143Y-121800000D01*
X136471428Y-122942857D02*
X136471428Y-121742857D01*
X137671429Y-121800000D02*
X137557143Y-121742857D01*
X137385714Y-121742857D01*
X137214286Y-121800000D01*
X137100000Y-121914286D01*
X137042857Y-122028571D01*
X136985714Y-122257143D01*
X136985714Y-122428571D01*
X137042857Y-122657143D01*
X137100000Y-122771429D01*
X137214286Y-122885714D01*
X137385714Y-122942857D01*
X137500000Y-122942857D01*
X137671429Y-122885714D01*
X137728572Y-122828571D01*
X137728572Y-122428571D01*
X137500000Y-122428571D01*
D13*
X160614286Y-97771429D02*
X161376191Y-97771429D01*
X160995239Y-98152381D02*
X160995239Y-97390476D01*
X162328572Y-97152381D02*
X161852381Y-97152381D01*
X161804762Y-97628571D01*
X161852381Y-97580952D01*
X161947619Y-97533333D01*
X162185715Y-97533333D01*
X162280953Y-97580952D01*
X162328572Y-97628571D01*
X162376191Y-97723810D01*
X162376191Y-97961905D01*
X162328572Y-98057143D01*
X162280953Y-98104762D01*
X162185715Y-98152381D01*
X161947619Y-98152381D01*
X161852381Y-98104762D01*
X161804762Y-98057143D01*
X162661905Y-97152381D02*
X162995238Y-98152381D01*
X163328572Y-97152381D01*
D12*
X165207143Y-116850000D02*
X165278571Y-116992857D01*
X165278571Y-117278571D01*
X165207143Y-117421429D01*
X165135714Y-117492857D01*
X164992857Y-117564286D01*
X164564286Y-117564286D01*
X164421429Y-117492857D01*
X164350000Y-117421429D01*
X164278571Y-117278571D01*
X164278571Y-116992857D01*
X164350000Y-116850000D01*
X165278571Y-116207143D02*
X163778571Y-116207143D01*
X164707143Y-116064286D02*
X165278571Y-115635715D01*
X164278571Y-115635715D02*
X164850000Y-116207143D01*
X165278571Y-114350000D02*
X163778571Y-114350000D01*
X165207143Y-114350000D02*
X165278571Y-114492857D01*
X165278571Y-114778571D01*
X165207143Y-114921429D01*
X165135714Y-114992857D01*
X164992857Y-115064286D01*
X164564286Y-115064286D01*
X164421429Y-114992857D01*
X164350000Y-114921429D01*
X164278571Y-114778571D01*
X164278571Y-114492857D01*
X164350000Y-114350000D01*
X165135714Y-113635714D02*
X165207143Y-113564286D01*
X165278571Y-113635714D01*
X165207143Y-113707143D01*
X165135714Y-113635714D01*
X165278571Y-113635714D01*
X164278571Y-113135714D02*
X164278571Y-112564285D01*
X163778571Y-112921428D02*
X165064286Y-112921428D01*
X165207143Y-112850000D01*
X165278571Y-112707142D01*
X165278571Y-112564285D01*
X165207143Y-111492857D02*
X165278571Y-111635714D01*
X165278571Y-111921428D01*
X165207143Y-112064285D01*
X165064286Y-112135714D01*
X164492857Y-112135714D01*
X164350000Y-112064285D01*
X164278571Y-111921428D01*
X164278571Y-111635714D01*
X164350000Y-111492857D01*
X164492857Y-111421428D01*
X164635714Y-111421428D01*
X164778571Y-112135714D01*
X165207143Y-110135714D02*
X165278571Y-110278571D01*
X165278571Y-110564285D01*
X165207143Y-110707143D01*
X165135714Y-110778571D01*
X164992857Y-110850000D01*
X164564286Y-110850000D01*
X164421429Y-110778571D01*
X164350000Y-110707143D01*
X164278571Y-110564285D01*
X164278571Y-110278571D01*
X164350000Y-110135714D01*
X165278571Y-109492857D02*
X163778571Y-109492857D01*
X165278571Y-108850000D02*
X164492857Y-108850000D01*
X164350000Y-108921429D01*
X164278571Y-109064286D01*
X164278571Y-109278571D01*
X164350000Y-109421429D01*
X164421429Y-109492857D01*
X163707143Y-107064286D02*
X165635714Y-108350000D01*
X164278571Y-106778571D02*
X164278571Y-106207142D01*
X165278571Y-106564285D02*
X163992857Y-106564285D01*
X163850000Y-106492857D01*
X163778571Y-106349999D01*
X163778571Y-106207142D01*
X164278571Y-105064285D02*
X165278571Y-105064285D01*
X163707143Y-105421428D02*
X164778571Y-105778571D01*
X164778571Y-104849999D01*
X164278571Y-104492857D02*
X164278571Y-103921428D01*
X165278571Y-104278571D02*
X163992857Y-104278571D01*
X163850000Y-104207143D01*
X163778571Y-104064285D01*
X163778571Y-103921428D01*
X165207143Y-102778571D02*
X165278571Y-102921428D01*
X165278571Y-103207142D01*
X165207143Y-103350000D01*
X165135714Y-103421428D01*
X164992857Y-103492857D01*
X164564286Y-103492857D01*
X164421429Y-103421428D01*
X164350000Y-103350000D01*
X164278571Y-103207142D01*
X164278571Y-102921428D01*
X164350000Y-102778571D01*
X163707143Y-101064286D02*
X165635714Y-102350000D01*
X164278571Y-100707142D02*
X165278571Y-100349999D01*
X164278571Y-99992857D01*
X163921429Y-99492857D02*
X163850000Y-99421428D01*
X163778571Y-99278571D01*
X163778571Y-98921428D01*
X163850000Y-98778571D01*
X163921429Y-98707142D01*
X164064286Y-98635714D01*
X164207143Y-98635714D01*
X164421429Y-98707142D01*
X165278571Y-99564285D01*
X165278571Y-98635714D01*
D13*
X157419048Y-117452381D02*
X158038096Y-117452381D01*
X157704762Y-117833333D01*
X157847620Y-117833333D01*
X157942858Y-117880952D01*
X157990477Y-117928571D01*
X158038096Y-118023810D01*
X158038096Y-118261905D01*
X157990477Y-118357143D01*
X157942858Y-118404762D01*
X157847620Y-118452381D01*
X157561905Y-118452381D01*
X157466667Y-118404762D01*
X157419048Y-118357143D01*
X158466667Y-118357143D02*
X158514286Y-118404762D01*
X158466667Y-118452381D01*
X158419048Y-118404762D01*
X158466667Y-118357143D01*
X158466667Y-118452381D01*
X159419048Y-117452381D02*
X158942857Y-117452381D01*
X158895238Y-117928571D01*
X158942857Y-117880952D01*
X159038095Y-117833333D01*
X159276191Y-117833333D01*
X159371429Y-117880952D01*
X159419048Y-117928571D01*
X159466667Y-118023810D01*
X159466667Y-118261905D01*
X159419048Y-118357143D01*
X159371429Y-118404762D01*
X159276191Y-118452381D01*
X159038095Y-118452381D01*
X158942857Y-118404762D01*
X158895238Y-118357143D01*
X159895238Y-118452381D02*
X159895238Y-117785714D01*
X159895238Y-117880952D02*
X159942857Y-117833333D01*
X160038095Y-117785714D01*
X160180953Y-117785714D01*
X160276191Y-117833333D01*
X160323810Y-117928571D01*
X160323810Y-118452381D01*
X160323810Y-117928571D02*
X160371429Y-117833333D01*
X160466667Y-117785714D01*
X160609524Y-117785714D01*
X160704762Y-117833333D01*
X160752381Y-117928571D01*
X160752381Y-118452381D01*
X161228571Y-118452381D02*
X161228571Y-117785714D01*
X161228571Y-117880952D02*
X161276190Y-117833333D01*
X161371428Y-117785714D01*
X161514286Y-117785714D01*
X161609524Y-117833333D01*
X161657143Y-117928571D01*
X161657143Y-118452381D01*
X161657143Y-117928571D02*
X161704762Y-117833333D01*
X161800000Y-117785714D01*
X161942857Y-117785714D01*
X162038095Y-117833333D01*
X162085714Y-117928571D01*
X162085714Y-118452381D01*
D11*
X130914286Y-110628571D02*
X130914286Y-111028571D01*
X131542857Y-111028571D02*
X130342857Y-111028571D01*
X130342857Y-110457142D01*
X131542857Y-110000000D02*
X130742857Y-110000000D01*
X130971429Y-110000000D02*
X130857143Y-109942857D01*
X130800000Y-109885714D01*
X130742857Y-109771428D01*
X130742857Y-109657143D01*
X131542857Y-109085714D02*
X131485714Y-109200000D01*
X131428571Y-109257143D01*
X131314286Y-109314286D01*
X130971429Y-109314286D01*
X130857143Y-109257143D01*
X130800000Y-109200000D01*
X130742857Y-109085714D01*
X130742857Y-108914286D01*
X130800000Y-108800000D01*
X130857143Y-108742857D01*
X130971429Y-108685714D01*
X131314286Y-108685714D01*
X131428571Y-108742857D01*
X131485714Y-108800000D01*
X131542857Y-108914286D01*
X131542857Y-109085714D01*
X130742857Y-108171429D02*
X131542857Y-108171429D01*
X130857143Y-108171429D02*
X130800000Y-108114286D01*
X130742857Y-108000000D01*
X130742857Y-107828572D01*
X130800000Y-107714286D01*
X130914286Y-107657143D01*
X131542857Y-107657143D01*
X130742857Y-107257143D02*
X130742857Y-106800000D01*
X130342857Y-107085715D02*
X131371429Y-107085715D01*
X131485714Y-107028572D01*
X131542857Y-106914286D01*
X131542857Y-106800000D01*
D13*
X152333333Y-94297619D02*
X151714285Y-94297619D01*
X152047619Y-93916667D01*
X151904761Y-93916667D01*
X151809523Y-93869048D01*
X151761904Y-93821429D01*
X151714285Y-93726190D01*
X151714285Y-93488095D01*
X151761904Y-93392857D01*
X151809523Y-93345238D01*
X151904761Y-93297619D01*
X152190476Y-93297619D01*
X152285714Y-93345238D01*
X152333333Y-93392857D01*
X150285714Y-94202381D02*
X150238095Y-94250000D01*
X150142857Y-94297619D01*
X149904761Y-94297619D01*
X149809523Y-94250000D01*
X149761904Y-94202381D01*
X149714285Y-94107143D01*
X149714285Y-94011905D01*
X149761904Y-93869048D01*
X150333333Y-93297619D01*
X149714285Y-93297619D01*
X147714285Y-93297619D02*
X148285714Y-93297619D01*
X148000000Y-93297619D02*
X148000000Y-94297619D01*
X148095238Y-94154762D01*
X148190476Y-94059524D01*
X148285714Y-94011905D01*
X136440000Y-98640000D02*
X136440000Y-98115000D01*
X140740000Y-94340000D02*
X140740000Y-94865000D01*
X136440000Y-94340000D02*
X136440000Y-94865000D01*
X140740000Y-98640000D02*
X140215000Y-98640000D01*
X140740000Y-94340000D02*
X140215000Y-94340000D01*
X136440000Y-94340000D02*
X136965000Y-94340000D01*
X136440000Y-98640000D02*
X136965000Y-98640000D01*
X138200000Y-99570000D02*
X138900000Y-99570000D01*
X138900000Y-100770000D02*
X138200000Y-100770000D01*
X135710000Y-97020000D02*
X135710000Y-97720000D01*
X134510000Y-97720000D02*
X134510000Y-97020000D01*
X136700000Y-92280000D02*
X136700000Y-91580000D01*
X137900000Y-91580000D02*
X137900000Y-92280000D01*
X131920000Y-97770000D02*
X132620000Y-97770000D01*
X132620000Y-98970000D02*
X131920000Y-98970000D01*
X144330000Y-100750000D02*
X143630000Y-100750000D01*
X143630000Y-99550000D02*
X144330000Y-99550000D01*
X134510000Y-99420000D02*
X135210000Y-99420000D01*
X135210000Y-100620000D02*
X134510000Y-100620000D01*
X150670000Y-103760000D02*
X150670000Y-103060000D01*
X151870000Y-103060000D02*
X151870000Y-103760000D01*
X131930000Y-104170000D02*
X131930000Y-104870000D01*
X130730000Y-104870000D02*
X130730000Y-104170000D01*
X131150000Y-114850000D02*
X131150000Y-114150000D01*
X132350000Y-114150000D02*
X132350000Y-114850000D01*
X132540000Y-118350000D02*
X131840000Y-118350000D01*
X131840000Y-117150000D02*
X132540000Y-117150000D01*
X155610000Y-97605000D02*
X157610000Y-97605000D01*
X157610000Y-95555000D02*
X155610000Y-95555000D01*
X153020000Y-93840000D02*
X153020000Y-93140000D01*
X154220000Y-93140000D02*
X154220000Y-93840000D01*
X148050000Y-119150000D02*
X148050000Y-118450000D01*
X149250000Y-118450000D02*
X149250000Y-119150000D01*
X146280000Y-120080000D02*
X145580000Y-120080000D01*
X145580000Y-118880000D02*
X146280000Y-118880000D01*
X157400000Y-124400000D02*
X158100000Y-124400000D01*
X158100000Y-125600000D02*
X157400000Y-125600000D01*
X152550000Y-92600000D02*
X152550000Y-90700000D01*
X151450000Y-92600000D02*
X151450000Y-90700000D01*
X152000000Y-91700000D02*
X152000000Y-91250000D01*
X151750000Y-91750000D02*
X152250000Y-91750000D01*
X152000000Y-91750000D02*
X151750000Y-91500000D01*
X151750000Y-91500000D02*
X152250000Y-91500000D01*
X152250000Y-91500000D02*
X152000000Y-91750000D01*
X150550000Y-92600000D02*
X150550000Y-90700000D01*
X149450000Y-92600000D02*
X149450000Y-90700000D01*
X150000000Y-91700000D02*
X150000000Y-91250000D01*
X149750000Y-91750000D02*
X150250000Y-91750000D01*
X150000000Y-91750000D02*
X149750000Y-91500000D01*
X149750000Y-91500000D02*
X150250000Y-91500000D01*
X150250000Y-91500000D02*
X150000000Y-91750000D01*
X148550000Y-92600000D02*
X148550000Y-90700000D01*
X147450000Y-92600000D02*
X147450000Y-90700000D01*
X148000000Y-91700000D02*
X148000000Y-91250000D01*
X147750000Y-91750000D02*
X148250000Y-91750000D01*
X148000000Y-91750000D02*
X147750000Y-91500000D01*
X147750000Y-91500000D02*
X148250000Y-91500000D01*
X148250000Y-91500000D02*
X148000000Y-91750000D01*
X152675000Y-96000000D02*
X152675000Y-97000000D01*
X151325000Y-97000000D02*
X151325000Y-96000000D01*
X150675000Y-96000000D02*
X150675000Y-97000000D01*
X149325000Y-97000000D02*
X149325000Y-96000000D01*
X148675000Y-96000000D02*
X148675000Y-97000000D01*
X147325000Y-97000000D02*
X147325000Y-96000000D01*
X141830000Y-90715000D02*
X142830000Y-90715000D01*
X142830000Y-92065000D02*
X141830000Y-92065000D01*
X150025000Y-124250000D02*
X150025000Y-123250000D01*
X151375000Y-123250000D02*
X151375000Y-124250000D01*
X153250000Y-124315000D02*
X154250000Y-124315000D01*
X154250000Y-125665000D02*
X153250000Y-125665000D01*
X148625000Y-102715000D02*
X147865000Y-102715000D01*
X148625000Y-116965000D02*
X147865000Y-116965000D01*
X134375000Y-116965000D02*
X135135000Y-116965000D01*
X134375000Y-102715000D02*
X135135000Y-102715000D01*
X148625000Y-102715000D02*
X148625000Y-103475000D01*
X134375000Y-102715000D02*
X134375000Y-103475000D01*
X134375000Y-116965000D02*
X134375000Y-116205000D01*
X148625000Y-116965000D02*
X148625000Y-116205000D01*
X147865000Y-102715000D02*
X147865000Y-101190000D01*
X157230000Y-95210000D02*
G75*
G03X157230000Y-95210000I-100000J0D01*
G01*
X156580000Y-94960000D02*
X157080000Y-94960000D01*
X156580000Y-92060000D02*
X156580000Y-94960000D01*
X157080000Y-92060000D02*
X156580000Y-92060000D01*
X157080000Y-94960000D02*
X157080000Y-92060000D01*
D14*
G36*
X138744710Y-107929742D02*
X138778065Y-107930711D01*
X138801653Y-107932228D01*
X138881789Y-107941955D01*
X138963758Y-107957253D01*
X139045701Y-107977681D01*
X139125758Y-108002796D01*
X139173541Y-108020493D01*
X139216347Y-108037482D01*
X139258596Y-108054539D01*
X139300667Y-108071839D01*
X139342939Y-108089558D01*
X139385789Y-108107874D01*
X139429595Y-108126961D01*
X139474736Y-108146995D01*
X139521589Y-108168154D01*
X139570533Y-108190612D01*
X139621945Y-108214546D01*
X139676204Y-108240132D01*
X139733687Y-108267546D01*
X139794774Y-108296964D01*
X139859841Y-108328562D01*
X139929268Y-108362517D01*
X140003431Y-108399003D01*
X140082710Y-108438198D01*
X140167481Y-108480277D01*
X140258124Y-108525417D01*
X140262153Y-108527426D01*
X140341946Y-108567125D01*
X140416001Y-108603758D01*
X140484816Y-108637553D01*
X140548891Y-108668740D01*
X140608725Y-108697551D01*
X140664817Y-108724213D01*
X140717666Y-108748957D01*
X140767772Y-108772014D01*
X140815634Y-108793612D01*
X140861750Y-108813982D01*
X140906621Y-108833354D01*
X140950745Y-108851956D01*
X140994621Y-108870021D01*
X141038749Y-108887776D01*
X141080598Y-108904269D01*
X141104243Y-108913530D01*
X141125881Y-108922058D01*
X141144594Y-108929487D01*
X141159464Y-108935450D01*
X141169573Y-108939583D01*
X141173972Y-108941501D01*
X141174988Y-108943865D01*
X141172632Y-108948645D01*
X141166411Y-108956483D01*
X141155837Y-108968023D01*
X141145750Y-108978474D01*
X141088555Y-109032600D01*
X141024755Y-109084757D01*
X140954551Y-109134846D01*
X140878140Y-109182769D01*
X140795723Y-109228425D01*
X140707498Y-109271717D01*
X140613665Y-109312546D01*
X140514422Y-109350812D01*
X140409969Y-109386417D01*
X140300504Y-109419262D01*
X140209236Y-109443540D01*
X140101653Y-109469136D01*
X139999570Y-109490398D01*
X139902918Y-109507325D01*
X139811629Y-109519916D01*
X139725636Y-109528170D01*
X139644870Y-109532088D01*
X139569264Y-109531668D01*
X139498748Y-109526910D01*
X139433256Y-109517814D01*
X139372719Y-109504378D01*
X139317069Y-109486602D01*
X139266237Y-109464486D01*
X139220157Y-109438029D01*
X139215283Y-109434792D01*
X139196567Y-109420712D01*
X139175977Y-109402815D01*
X139155462Y-109382989D01*
X139136975Y-109363121D01*
X139122467Y-109345098D01*
X139122249Y-109344796D01*
X139100643Y-109309690D01*
X139082364Y-109269925D01*
X139068068Y-109227369D01*
X139058407Y-109183891D01*
X139054563Y-109151322D01*
X139052125Y-109116075D01*
X138986861Y-109110151D01*
X138965600Y-109108247D01*
X138946304Y-109106565D01*
X138930259Y-109105215D01*
X138918751Y-109104305D01*
X138913228Y-109103947D01*
X138907499Y-109103127D01*
X138907862Y-109100173D01*
X138909700Y-109097780D01*
X138912206Y-109094046D01*
X138910247Y-109093062D01*
X138902652Y-109094302D01*
X138902195Y-109094395D01*
X138873402Y-109100018D01*
X138839443Y-109106305D01*
X138802141Y-109112942D01*
X138763316Y-109119618D01*
X138724791Y-109126019D01*
X138688388Y-109131832D01*
X138655929Y-109136745D01*
X138653486Y-109137100D01*
X138572912Y-109147996D01*
X138498021Y-109156419D01*
X138427880Y-109162343D01*
X138361555Y-109165744D01*
X138298112Y-109166596D01*
X138236617Y-109164874D01*
X138176137Y-109160552D01*
X138115738Y-109153606D01*
X138054486Y-109144011D01*
X137991447Y-109131741D01*
X137929022Y-109117576D01*
X137908781Y-109112551D01*
X137886071Y-109106658D01*
X137861883Y-109100181D01*
X137837209Y-109093404D01*
X137813040Y-109086608D01*
X137790368Y-109080079D01*
X137770185Y-109074099D01*
X137753483Y-109068952D01*
X137741254Y-109064921D01*
X137734488Y-109062289D01*
X137733566Y-109061724D01*
X137732791Y-109057976D01*
X137731361Y-109048155D01*
X137729385Y-109033201D01*
X137726971Y-109014055D01*
X137724230Y-108991658D01*
X137721271Y-108966950D01*
X137718203Y-108940871D01*
X137715135Y-108914363D01*
X137712177Y-108888366D01*
X137709438Y-108863821D01*
X137707027Y-108841668D01*
X137705053Y-108822848D01*
X137703626Y-108808301D01*
X137702856Y-108798969D01*
X137702750Y-108796513D01*
X137705981Y-108794892D01*
X137714738Y-108792314D01*
X137727621Y-108789158D01*
X137740674Y-108786320D01*
X137852843Y-108762094D01*
X137960877Y-108736570D01*
X138064350Y-108709870D01*
X138162836Y-108682119D01*
X138255907Y-108653443D01*
X138343136Y-108623966D01*
X138424097Y-108593812D01*
X138484873Y-108568941D01*
X138581354Y-108524433D01*
X138672826Y-108475507D01*
X138760180Y-108421614D01*
X138844308Y-108362202D01*
X138926008Y-108296801D01*
X138942297Y-108282731D01*
X138959777Y-108267209D01*
X138977670Y-108250973D01*
X138995197Y-108234760D01*
X139011580Y-108219307D01*
X139026041Y-108205349D01*
X139037800Y-108193625D01*
X139046080Y-108184870D01*
X139050101Y-108179822D01*
X139050361Y-108179115D01*
X139047110Y-108176617D01*
X139038072Y-108172803D01*
X139024325Y-108168001D01*
X139006944Y-108162535D01*
X138987005Y-108156732D01*
X138965586Y-108150917D01*
X138943761Y-108145417D01*
X138924184Y-108140901D01*
X138854960Y-108127922D01*
X138788054Y-108119990D01*
X138721839Y-108117067D01*
X138654685Y-108119115D01*
X138584963Y-108126096D01*
X138544493Y-108132096D01*
X138448180Y-108150856D01*
X138356411Y-108174807D01*
X138269248Y-108203917D01*
X138186756Y-108238158D01*
X138108996Y-108277499D01*
X138036032Y-108321909D01*
X137967926Y-108371359D01*
X137904742Y-108425818D01*
X137879139Y-108450731D01*
X137828494Y-108506095D01*
X137784450Y-108563280D01*
X137747101Y-108622148D01*
X137716539Y-108682560D01*
X137702795Y-108716028D01*
X137691307Y-108746432D01*
X137545263Y-108884996D01*
X137518489Y-108910468D01*
X137493372Y-108934499D01*
X137470360Y-108956652D01*
X137449900Y-108976490D01*
X137432438Y-108993575D01*
X137418421Y-109007472D01*
X137408298Y-109017742D01*
X137402514Y-109023950D01*
X137401302Y-109025690D01*
X137404842Y-109027513D01*
X137414198Y-109031927D01*
X137428740Y-109038645D01*
X137447842Y-109047381D01*
X137470876Y-109057849D01*
X137497212Y-109069763D01*
X137526225Y-109082837D01*
X137557286Y-109096784D01*
X137560834Y-109098375D01*
X137718283Y-109168931D01*
X137738397Y-109239486D01*
X137752426Y-109287561D01*
X137766124Y-109331940D01*
X137780476Y-109375693D01*
X137796469Y-109421894D01*
X137801638Y-109436422D01*
X137808304Y-109454496D01*
X137813501Y-109466977D01*
X137817837Y-109475013D01*
X137821920Y-109479755D01*
X137825801Y-109482121D01*
X137832334Y-109483374D01*
X137844938Y-109484399D01*
X137862632Y-109485198D01*
X137884436Y-109485771D01*
X137909368Y-109486120D01*
X137936448Y-109486246D01*
X137964694Y-109486150D01*
X137993127Y-109485833D01*
X138020765Y-109485297D01*
X138046627Y-109484542D01*
X138069733Y-109483570D01*
X138089101Y-109482382D01*
X138096098Y-109481800D01*
X138138615Y-109477639D01*
X138182437Y-109472920D01*
X138226678Y-109467767D01*
X138270449Y-109462304D01*
X138312864Y-109456654D01*
X138353037Y-109450940D01*
X138390079Y-109445287D01*
X138423105Y-109439818D01*
X138451228Y-109434657D01*
X138473560Y-109429927D01*
X138480625Y-109428196D01*
X138537051Y-109410188D01*
X138593259Y-109385555D01*
X138648619Y-109354716D01*
X138702503Y-109318088D01*
X138754283Y-109276091D01*
X138803331Y-109229142D01*
X138839231Y-109189419D01*
X138850382Y-109176365D01*
X138857812Y-109168129D01*
X138862317Y-109164108D01*
X138864696Y-109163703D01*
X138865744Y-109166312D01*
X138866076Y-109169177D01*
X138874928Y-109231029D01*
X138890125Y-109291195D01*
X138911367Y-109349025D01*
X138938355Y-109403868D01*
X138970792Y-109455075D01*
X139008378Y-109501994D01*
X139028870Y-109523506D01*
X139076020Y-109565375D01*
X139127880Y-109602239D01*
X139184477Y-109634103D01*
X139245836Y-109660972D01*
X139311984Y-109682847D01*
X139382947Y-109699735D01*
X139458750Y-109711639D01*
X139539419Y-109718562D01*
X139624981Y-109720510D01*
X139715460Y-109717486D01*
X139810884Y-109709493D01*
X139911277Y-109696537D01*
X140016666Y-109678621D01*
X140018736Y-109678229D01*
X140152040Y-109650715D01*
X140280610Y-109619678D01*
X140404222Y-109585198D01*
X140522650Y-109547354D01*
X140635672Y-109506225D01*
X140743063Y-109461891D01*
X140844597Y-109414429D01*
X140940052Y-109363920D01*
X140986556Y-109336871D01*
X141058432Y-109291622D01*
X141123929Y-109245957D01*
X141183722Y-109199299D01*
X141238486Y-109151071D01*
X141288895Y-109100694D01*
X141335624Y-109047593D01*
X141359292Y-109017935D01*
X141366348Y-109008793D01*
X141399885Y-109015455D01*
X141504889Y-109032936D01*
X141609330Y-109043496D01*
X141713815Y-109047171D01*
X141818949Y-109043997D01*
X141844361Y-109042219D01*
X141933685Y-109034517D01*
X142029546Y-109024773D01*
X142131740Y-109013024D01*
X142240062Y-108999304D01*
X142354307Y-108983649D01*
X142474270Y-108966094D01*
X142599745Y-108946676D01*
X142730528Y-108925428D01*
X142866414Y-108902388D01*
X143007197Y-108877589D01*
X143152673Y-108851068D01*
X143302636Y-108822860D01*
X143456882Y-108793000D01*
X143615205Y-108761525D01*
X143777401Y-108728468D01*
X143943264Y-108693866D01*
X144112589Y-108657754D01*
X144277083Y-108621946D01*
X144312540Y-108614219D01*
X144346328Y-108606982D01*
X144377744Y-108600378D01*
X144406082Y-108594550D01*
X144430639Y-108589638D01*
X144450711Y-108585785D01*
X144465595Y-108583134D01*
X144474586Y-108581825D01*
X144476402Y-108581710D01*
X144500853Y-108585325D01*
X144523020Y-108595489D01*
X144542465Y-108611940D01*
X144555298Y-108628714D01*
X144571220Y-108654601D01*
X144589408Y-108685862D01*
X144609273Y-108721421D01*
X144630229Y-108760199D01*
X144651687Y-108801119D01*
X144673058Y-108843103D01*
X144680724Y-108858486D01*
X144710533Y-108920291D01*
X144736152Y-108977008D01*
X144757736Y-109029113D01*
X144775437Y-109077077D01*
X144789410Y-109121376D01*
X144799807Y-109162481D01*
X144806783Y-109200868D01*
X144810490Y-109237009D01*
X144811223Y-109261017D01*
X144809855Y-109295658D01*
X144805603Y-109324824D01*
X144798245Y-109349574D01*
X144788407Y-109369576D01*
X144775372Y-109388408D01*
X144761151Y-109402507D01*
X144743422Y-109414103D01*
X144740516Y-109415661D01*
X144730170Y-109420668D01*
X144718802Y-109425256D01*
X144706049Y-109429454D01*
X144691542Y-109433295D01*
X144674918Y-109436806D01*
X144655811Y-109440019D01*
X144633854Y-109442964D01*
X144608682Y-109445671D01*
X144579929Y-109448170D01*
X144547230Y-109450491D01*
X144510219Y-109452664D01*
X144468530Y-109454720D01*
X144421798Y-109456689D01*
X144369657Y-109458601D01*
X144311742Y-109460486D01*
X144247685Y-109462374D01*
X144177123Y-109464296D01*
X144139181Y-109465282D01*
X144019555Y-109468512D01*
X143906447Y-109471915D01*
X143799322Y-109475525D01*
X143697645Y-109479372D01*
X143600878Y-109483490D01*
X143508487Y-109487910D01*
X143419937Y-109492664D01*
X143334690Y-109497786D01*
X143252212Y-109503306D01*
X143171967Y-109509258D01*
X143093420Y-109515673D01*
X143016033Y-109522583D01*
X142939273Y-109530022D01*
X142862603Y-109538020D01*
X142785487Y-109546611D01*
X142784514Y-109546723D01*
X142646765Y-109563667D01*
X142513516Y-109582414D01*
X142383549Y-109603216D01*
X142255649Y-109626325D01*
X142128599Y-109651993D01*
X142001181Y-109680474D01*
X141872181Y-109712018D01*
X141740381Y-109746880D01*
X141604564Y-109785310D01*
X141534101Y-109806143D01*
X141506987Y-109814416D01*
X141475101Y-109824394D01*
X141439282Y-109835799D01*
X141400367Y-109848350D01*
X141359195Y-109861768D01*
X141316606Y-109875772D01*
X141273438Y-109890082D01*
X141230530Y-109904419D01*
X141188720Y-109918503D01*
X141148847Y-109932054D01*
X141111751Y-109944791D01*
X141078268Y-109956436D01*
X141049239Y-109966707D01*
X141025502Y-109975326D01*
X141012325Y-109980287D01*
X140965900Y-109998714D01*
X140919052Y-110018455D01*
X140871172Y-110039814D01*
X140821650Y-110063099D01*
X140769877Y-110088614D01*
X140715244Y-110116665D01*
X140657142Y-110147558D01*
X140594962Y-110181598D01*
X140528093Y-110219091D01*
X140468528Y-110253090D01*
X140436877Y-110271282D01*
X140401373Y-110291686D01*
X140363969Y-110313181D01*
X140326618Y-110334643D01*
X140291271Y-110354953D01*
X140259882Y-110372987D01*
X140256861Y-110374722D01*
X140182151Y-110417228D01*
X140112611Y-110455860D01*
X140047666Y-110490832D01*
X139986738Y-110522361D01*
X139929249Y-110550662D01*
X139874623Y-110575950D01*
X139822282Y-110598442D01*
X139771649Y-110618353D01*
X139722146Y-110635898D01*
X139673197Y-110651294D01*
X139624224Y-110664755D01*
X139574649Y-110676498D01*
X139523896Y-110686738D01*
X139471387Y-110695691D01*
X139416545Y-110703573D01*
X139358792Y-110710598D01*
X139357278Y-110710768D01*
X139338693Y-110712405D01*
X139314406Y-110713872D01*
X139285621Y-110715152D01*
X139253537Y-110716227D01*
X139219357Y-110717078D01*
X139184282Y-110717688D01*
X139149513Y-110718037D01*
X139116253Y-110718108D01*
X139085702Y-110717882D01*
X139059062Y-110717342D01*
X139037534Y-110716469D01*
X139027431Y-110715766D01*
X138931437Y-110704796D01*
X138838591Y-110688944D01*
X138749357Y-110668340D01*
X138664199Y-110643112D01*
X138583580Y-110613390D01*
X138507963Y-110579303D01*
X138473570Y-110561423D01*
X138389499Y-110511747D01*
X138308006Y-110455614D01*
X138229071Y-110393003D01*
X138152676Y-110323893D01*
X138078800Y-110248264D01*
X138007424Y-110166095D01*
X137938528Y-110077366D01*
X137872092Y-109982057D01*
X137808098Y-109880145D01*
X137784143Y-109839208D01*
X137734336Y-109747801D01*
X137689157Y-109654995D01*
X137648144Y-109559669D01*
X137610834Y-109460702D01*
X137576764Y-109356973D01*
X137556318Y-109287111D01*
X137538063Y-109221847D01*
X137413150Y-109171265D01*
X137380801Y-109158164D01*
X137346720Y-109144360D01*
X137312371Y-109130446D01*
X137279218Y-109117013D01*
X137248725Y-109104657D01*
X137222356Y-109093970D01*
X137208125Y-109088200D01*
X137128013Y-109055719D01*
X137502699Y-108720903D01*
X137517975Y-108675042D01*
X137537971Y-108622558D01*
X137563359Y-108568304D01*
X137593290Y-108513803D01*
X137626916Y-108460580D01*
X137663391Y-108410159D01*
X137670077Y-108401644D01*
X137685188Y-108383691D01*
X137704455Y-108362394D01*
X137726654Y-108338976D01*
X137750561Y-108314659D01*
X137774953Y-108290663D01*
X137798606Y-108268213D01*
X137820297Y-108248529D01*
X137838802Y-108232834D01*
X137840334Y-108231608D01*
X137916271Y-108175687D01*
X137996675Y-108125202D01*
X138081488Y-108080177D01*
X138170648Y-108040636D01*
X138264097Y-108006603D01*
X138361776Y-107978101D01*
X138463624Y-107955155D01*
X138569582Y-107937789D01*
X138570584Y-107937654D01*
X138599559Y-107934531D01*
X138633508Y-107932131D01*
X138670383Y-107930500D01*
X138708133Y-107929688D01*
X138744710Y-107929742D01*
X138744710Y-107929742D01*
G37*
X138744710Y-107929742D02*
X138778065Y-107930711D01*
X138801653Y-107932228D01*
X138881789Y-107941955D01*
X138963758Y-107957253D01*
X139045701Y-107977681D01*
X139125758Y-108002796D01*
X139173541Y-108020493D01*
X139216347Y-108037482D01*
X139258596Y-108054539D01*
X139300667Y-108071839D01*
X139342939Y-108089558D01*
X139385789Y-108107874D01*
X139429595Y-108126961D01*
X139474736Y-108146995D01*
X139521589Y-108168154D01*
X139570533Y-108190612D01*
X139621945Y-108214546D01*
X139676204Y-108240132D01*
X139733687Y-108267546D01*
X139794774Y-108296964D01*
X139859841Y-108328562D01*
X139929268Y-108362517D01*
X140003431Y-108399003D01*
X140082710Y-108438198D01*
X140167481Y-108480277D01*
X140258124Y-108525417D01*
X140262153Y-108527426D01*
X140341946Y-108567125D01*
X140416001Y-108603758D01*
X140484816Y-108637553D01*
X140548891Y-108668740D01*
X140608725Y-108697551D01*
X140664817Y-108724213D01*
X140717666Y-108748957D01*
X140767772Y-108772014D01*
X140815634Y-108793612D01*
X140861750Y-108813982D01*
X140906621Y-108833354D01*
X140950745Y-108851956D01*
X140994621Y-108870021D01*
X141038749Y-108887776D01*
X141080598Y-108904269D01*
X141104243Y-108913530D01*
X141125881Y-108922058D01*
X141144594Y-108929487D01*
X141159464Y-108935450D01*
X141169573Y-108939583D01*
X141173972Y-108941501D01*
X141174988Y-108943865D01*
X141172632Y-108948645D01*
X141166411Y-108956483D01*
X141155837Y-108968023D01*
X141145750Y-108978474D01*
X141088555Y-109032600D01*
X141024755Y-109084757D01*
X140954551Y-109134846D01*
X140878140Y-109182769D01*
X140795723Y-109228425D01*
X140707498Y-109271717D01*
X140613665Y-109312546D01*
X140514422Y-109350812D01*
X140409969Y-109386417D01*
X140300504Y-109419262D01*
X140209236Y-109443540D01*
X140101653Y-109469136D01*
X139999570Y-109490398D01*
X139902918Y-109507325D01*
X139811629Y-109519916D01*
X139725636Y-109528170D01*
X139644870Y-109532088D01*
X139569264Y-109531668D01*
X139498748Y-109526910D01*
X139433256Y-109517814D01*
X139372719Y-109504378D01*
X139317069Y-109486602D01*
X139266237Y-109464486D01*
X139220157Y-109438029D01*
X139215283Y-109434792D01*
X139196567Y-109420712D01*
X139175977Y-109402815D01*
X139155462Y-109382989D01*
X139136975Y-109363121D01*
X139122467Y-109345098D01*
X139122249Y-109344796D01*
X139100643Y-109309690D01*
X139082364Y-109269925D01*
X139068068Y-109227369D01*
X139058407Y-109183891D01*
X139054563Y-109151322D01*
X139052125Y-109116075D01*
X138986861Y-109110151D01*
X138965600Y-109108247D01*
X138946304Y-109106565D01*
X138930259Y-109105215D01*
X138918751Y-109104305D01*
X138913228Y-109103947D01*
X138907499Y-109103127D01*
X138907862Y-109100173D01*
X138909700Y-109097780D01*
X138912206Y-109094046D01*
X138910247Y-109093062D01*
X138902652Y-109094302D01*
X138902195Y-109094395D01*
X138873402Y-109100018D01*
X138839443Y-109106305D01*
X138802141Y-109112942D01*
X138763316Y-109119618D01*
X138724791Y-109126019D01*
X138688388Y-109131832D01*
X138655929Y-109136745D01*
X138653486Y-109137100D01*
X138572912Y-109147996D01*
X138498021Y-109156419D01*
X138427880Y-109162343D01*
X138361555Y-109165744D01*
X138298112Y-109166596D01*
X138236617Y-109164874D01*
X138176137Y-109160552D01*
X138115738Y-109153606D01*
X138054486Y-109144011D01*
X137991447Y-109131741D01*
X137929022Y-109117576D01*
X137908781Y-109112551D01*
X137886071Y-109106658D01*
X137861883Y-109100181D01*
X137837209Y-109093404D01*
X137813040Y-109086608D01*
X137790368Y-109080079D01*
X137770185Y-109074099D01*
X137753483Y-109068952D01*
X137741254Y-109064921D01*
X137734488Y-109062289D01*
X137733566Y-109061724D01*
X137732791Y-109057976D01*
X137731361Y-109048155D01*
X137729385Y-109033201D01*
X137726971Y-109014055D01*
X137724230Y-108991658D01*
X137721271Y-108966950D01*
X137718203Y-108940871D01*
X137715135Y-108914363D01*
X137712177Y-108888366D01*
X137709438Y-108863821D01*
X137707027Y-108841668D01*
X137705053Y-108822848D01*
X137703626Y-108808301D01*
X137702856Y-108798969D01*
X137702750Y-108796513D01*
X137705981Y-108794892D01*
X137714738Y-108792314D01*
X137727621Y-108789158D01*
X137740674Y-108786320D01*
X137852843Y-108762094D01*
X137960877Y-108736570D01*
X138064350Y-108709870D01*
X138162836Y-108682119D01*
X138255907Y-108653443D01*
X138343136Y-108623966D01*
X138424097Y-108593812D01*
X138484873Y-108568941D01*
X138581354Y-108524433D01*
X138672826Y-108475507D01*
X138760180Y-108421614D01*
X138844308Y-108362202D01*
X138926008Y-108296801D01*
X138942297Y-108282731D01*
X138959777Y-108267209D01*
X138977670Y-108250973D01*
X138995197Y-108234760D01*
X139011580Y-108219307D01*
X139026041Y-108205349D01*
X139037800Y-108193625D01*
X139046080Y-108184870D01*
X139050101Y-108179822D01*
X139050361Y-108179115D01*
X139047110Y-108176617D01*
X139038072Y-108172803D01*
X139024325Y-108168001D01*
X139006944Y-108162535D01*
X138987005Y-108156732D01*
X138965586Y-108150917D01*
X138943761Y-108145417D01*
X138924184Y-108140901D01*
X138854960Y-108127922D01*
X138788054Y-108119990D01*
X138721839Y-108117067D01*
X138654685Y-108119115D01*
X138584963Y-108126096D01*
X138544493Y-108132096D01*
X138448180Y-108150856D01*
X138356411Y-108174807D01*
X138269248Y-108203917D01*
X138186756Y-108238158D01*
X138108996Y-108277499D01*
X138036032Y-108321909D01*
X137967926Y-108371359D01*
X137904742Y-108425818D01*
X137879139Y-108450731D01*
X137828494Y-108506095D01*
X137784450Y-108563280D01*
X137747101Y-108622148D01*
X137716539Y-108682560D01*
X137702795Y-108716028D01*
X137691307Y-108746432D01*
X137545263Y-108884996D01*
X137518489Y-108910468D01*
X137493372Y-108934499D01*
X137470360Y-108956652D01*
X137449900Y-108976490D01*
X137432438Y-108993575D01*
X137418421Y-109007472D01*
X137408298Y-109017742D01*
X137402514Y-109023950D01*
X137401302Y-109025690D01*
X137404842Y-109027513D01*
X137414198Y-109031927D01*
X137428740Y-109038645D01*
X137447842Y-109047381D01*
X137470876Y-109057849D01*
X137497212Y-109069763D01*
X137526225Y-109082837D01*
X137557286Y-109096784D01*
X137560834Y-109098375D01*
X137718283Y-109168931D01*
X137738397Y-109239486D01*
X137752426Y-109287561D01*
X137766124Y-109331940D01*
X137780476Y-109375693D01*
X137796469Y-109421894D01*
X137801638Y-109436422D01*
X137808304Y-109454496D01*
X137813501Y-109466977D01*
X137817837Y-109475013D01*
X137821920Y-109479755D01*
X137825801Y-109482121D01*
X137832334Y-109483374D01*
X137844938Y-109484399D01*
X137862632Y-109485198D01*
X137884436Y-109485771D01*
X137909368Y-109486120D01*
X137936448Y-109486246D01*
X137964694Y-109486150D01*
X137993127Y-109485833D01*
X138020765Y-109485297D01*
X138046627Y-109484542D01*
X138069733Y-109483570D01*
X138089101Y-109482382D01*
X138096098Y-109481800D01*
X138138615Y-109477639D01*
X138182437Y-109472920D01*
X138226678Y-109467767D01*
X138270449Y-109462304D01*
X138312864Y-109456654D01*
X138353037Y-109450940D01*
X138390079Y-109445287D01*
X138423105Y-109439818D01*
X138451228Y-109434657D01*
X138473560Y-109429927D01*
X138480625Y-109428196D01*
X138537051Y-109410188D01*
X138593259Y-109385555D01*
X138648619Y-109354716D01*
X138702503Y-109318088D01*
X138754283Y-109276091D01*
X138803331Y-109229142D01*
X138839231Y-109189419D01*
X138850382Y-109176365D01*
X138857812Y-109168129D01*
X138862317Y-109164108D01*
X138864696Y-109163703D01*
X138865744Y-109166312D01*
X138866076Y-109169177D01*
X138874928Y-109231029D01*
X138890125Y-109291195D01*
X138911367Y-109349025D01*
X138938355Y-109403868D01*
X138970792Y-109455075D01*
X139008378Y-109501994D01*
X139028870Y-109523506D01*
X139076020Y-109565375D01*
X139127880Y-109602239D01*
X139184477Y-109634103D01*
X139245836Y-109660972D01*
X139311984Y-109682847D01*
X139382947Y-109699735D01*
X139458750Y-109711639D01*
X139539419Y-109718562D01*
X139624981Y-109720510D01*
X139715460Y-109717486D01*
X139810884Y-109709493D01*
X139911277Y-109696537D01*
X140016666Y-109678621D01*
X140018736Y-109678229D01*
X140152040Y-109650715D01*
X140280610Y-109619678D01*
X140404222Y-109585198D01*
X140522650Y-109547354D01*
X140635672Y-109506225D01*
X140743063Y-109461891D01*
X140844597Y-109414429D01*
X140940052Y-109363920D01*
X140986556Y-109336871D01*
X141058432Y-109291622D01*
X141123929Y-109245957D01*
X141183722Y-109199299D01*
X141238486Y-109151071D01*
X141288895Y-109100694D01*
X141335624Y-109047593D01*
X141359292Y-109017935D01*
X141366348Y-109008793D01*
X141399885Y-109015455D01*
X141504889Y-109032936D01*
X141609330Y-109043496D01*
X141713815Y-109047171D01*
X141818949Y-109043997D01*
X141844361Y-109042219D01*
X141933685Y-109034517D01*
X142029546Y-109024773D01*
X142131740Y-109013024D01*
X142240062Y-108999304D01*
X142354307Y-108983649D01*
X142474270Y-108966094D01*
X142599745Y-108946676D01*
X142730528Y-108925428D01*
X142866414Y-108902388D01*
X143007197Y-108877589D01*
X143152673Y-108851068D01*
X143302636Y-108822860D01*
X143456882Y-108793000D01*
X143615205Y-108761525D01*
X143777401Y-108728468D01*
X143943264Y-108693866D01*
X144112589Y-108657754D01*
X144277083Y-108621946D01*
X144312540Y-108614219D01*
X144346328Y-108606982D01*
X144377744Y-108600378D01*
X144406082Y-108594550D01*
X144430639Y-108589638D01*
X144450711Y-108585785D01*
X144465595Y-108583134D01*
X144474586Y-108581825D01*
X144476402Y-108581710D01*
X144500853Y-108585325D01*
X144523020Y-108595489D01*
X144542465Y-108611940D01*
X144555298Y-108628714D01*
X144571220Y-108654601D01*
X144589408Y-108685862D01*
X144609273Y-108721421D01*
X144630229Y-108760199D01*
X144651687Y-108801119D01*
X144673058Y-108843103D01*
X144680724Y-108858486D01*
X144710533Y-108920291D01*
X144736152Y-108977008D01*
X144757736Y-109029113D01*
X144775437Y-109077077D01*
X144789410Y-109121376D01*
X144799807Y-109162481D01*
X144806783Y-109200868D01*
X144810490Y-109237009D01*
X144811223Y-109261017D01*
X144809855Y-109295658D01*
X144805603Y-109324824D01*
X144798245Y-109349574D01*
X144788407Y-109369576D01*
X144775372Y-109388408D01*
X144761151Y-109402507D01*
X144743422Y-109414103D01*
X144740516Y-109415661D01*
X144730170Y-109420668D01*
X144718802Y-109425256D01*
X144706049Y-109429454D01*
X144691542Y-109433295D01*
X144674918Y-109436806D01*
X144655811Y-109440019D01*
X144633854Y-109442964D01*
X144608682Y-109445671D01*
X144579929Y-109448170D01*
X144547230Y-109450491D01*
X144510219Y-109452664D01*
X144468530Y-109454720D01*
X144421798Y-109456689D01*
X144369657Y-109458601D01*
X144311742Y-109460486D01*
X144247685Y-109462374D01*
X144177123Y-109464296D01*
X144139181Y-109465282D01*
X144019555Y-109468512D01*
X143906447Y-109471915D01*
X143799322Y-109475525D01*
X143697645Y-109479372D01*
X143600878Y-109483490D01*
X143508487Y-109487910D01*
X143419937Y-109492664D01*
X143334690Y-109497786D01*
X143252212Y-109503306D01*
X143171967Y-109509258D01*
X143093420Y-109515673D01*
X143016033Y-109522583D01*
X142939273Y-109530022D01*
X142862603Y-109538020D01*
X142785487Y-109546611D01*
X142784514Y-109546723D01*
X142646765Y-109563667D01*
X142513516Y-109582414D01*
X142383549Y-109603216D01*
X142255649Y-109626325D01*
X142128599Y-109651993D01*
X142001181Y-109680474D01*
X141872181Y-109712018D01*
X141740381Y-109746880D01*
X141604564Y-109785310D01*
X141534101Y-109806143D01*
X141506987Y-109814416D01*
X141475101Y-109824394D01*
X141439282Y-109835799D01*
X141400367Y-109848350D01*
X141359195Y-109861768D01*
X141316606Y-109875772D01*
X141273438Y-109890082D01*
X141230530Y-109904419D01*
X141188720Y-109918503D01*
X141148847Y-109932054D01*
X141111751Y-109944791D01*
X141078268Y-109956436D01*
X141049239Y-109966707D01*
X141025502Y-109975326D01*
X141012325Y-109980287D01*
X140965900Y-109998714D01*
X140919052Y-110018455D01*
X140871172Y-110039814D01*
X140821650Y-110063099D01*
X140769877Y-110088614D01*
X140715244Y-110116665D01*
X140657142Y-110147558D01*
X140594962Y-110181598D01*
X140528093Y-110219091D01*
X140468528Y-110253090D01*
X140436877Y-110271282D01*
X140401373Y-110291686D01*
X140363969Y-110313181D01*
X140326618Y-110334643D01*
X140291271Y-110354953D01*
X140259882Y-110372987D01*
X140256861Y-110374722D01*
X140182151Y-110417228D01*
X140112611Y-110455860D01*
X140047666Y-110490832D01*
X139986738Y-110522361D01*
X139929249Y-110550662D01*
X139874623Y-110575950D01*
X139822282Y-110598442D01*
X139771649Y-110618353D01*
X139722146Y-110635898D01*
X139673197Y-110651294D01*
X139624224Y-110664755D01*
X139574649Y-110676498D01*
X139523896Y-110686738D01*
X139471387Y-110695691D01*
X139416545Y-110703573D01*
X139358792Y-110710598D01*
X139357278Y-110710768D01*
X139338693Y-110712405D01*
X139314406Y-110713872D01*
X139285621Y-110715152D01*
X139253537Y-110716227D01*
X139219357Y-110717078D01*
X139184282Y-110717688D01*
X139149513Y-110718037D01*
X139116253Y-110718108D01*
X139085702Y-110717882D01*
X139059062Y-110717342D01*
X139037534Y-110716469D01*
X139027431Y-110715766D01*
X138931437Y-110704796D01*
X138838591Y-110688944D01*
X138749357Y-110668340D01*
X138664199Y-110643112D01*
X138583580Y-110613390D01*
X138507963Y-110579303D01*
X138473570Y-110561423D01*
X138389499Y-110511747D01*
X138308006Y-110455614D01*
X138229071Y-110393003D01*
X138152676Y-110323893D01*
X138078800Y-110248264D01*
X138007424Y-110166095D01*
X137938528Y-110077366D01*
X137872092Y-109982057D01*
X137808098Y-109880145D01*
X137784143Y-109839208D01*
X137734336Y-109747801D01*
X137689157Y-109654995D01*
X137648144Y-109559669D01*
X137610834Y-109460702D01*
X137576764Y-109356973D01*
X137556318Y-109287111D01*
X137538063Y-109221847D01*
X137413150Y-109171265D01*
X137380801Y-109158164D01*
X137346720Y-109144360D01*
X137312371Y-109130446D01*
X137279218Y-109117013D01*
X137248725Y-109104657D01*
X137222356Y-109093970D01*
X137208125Y-109088200D01*
X137128013Y-109055719D01*
X137502699Y-108720903D01*
X137517975Y-108675042D01*
X137537971Y-108622558D01*
X137563359Y-108568304D01*
X137593290Y-108513803D01*
X137626916Y-108460580D01*
X137663391Y-108410159D01*
X137670077Y-108401644D01*
X137685188Y-108383691D01*
X137704455Y-108362394D01*
X137726654Y-108338976D01*
X137750561Y-108314659D01*
X137774953Y-108290663D01*
X137798606Y-108268213D01*
X137820297Y-108248529D01*
X137838802Y-108232834D01*
X137840334Y-108231608D01*
X137916271Y-108175687D01*
X137996675Y-108125202D01*
X138081488Y-108080177D01*
X138170648Y-108040636D01*
X138264097Y-108006603D01*
X138361776Y-107978101D01*
X138463624Y-107955155D01*
X138569582Y-107937789D01*
X138570584Y-107937654D01*
X138599559Y-107934531D01*
X138633508Y-107932131D01*
X138670383Y-107930500D01*
X138708133Y-107929688D01*
X138744710Y-107929742D01*
D13*
X156775000Y-122500000D02*
X157775000Y-122500000D01*
X157775000Y-123850000D02*
X156775000Y-123850000D01*
D14*
G36*
X159414250Y-119009952D02*
X159461186Y-119013674D01*
X159508923Y-119020308D01*
X159540470Y-119026230D01*
X159557376Y-119029947D01*
X159574424Y-119034096D01*
X159591213Y-119038546D01*
X159607341Y-119043163D01*
X159622408Y-119047817D01*
X159636014Y-119052375D01*
X159647757Y-119056706D01*
X159657236Y-119060677D01*
X159664053Y-119064157D01*
X159667804Y-119067014D01*
X159668418Y-119068338D01*
X159668094Y-119070608D01*
X159667148Y-119076410D01*
X159665614Y-119085542D01*
X159663528Y-119097801D01*
X159660925Y-119112987D01*
X159657840Y-119130897D01*
X159654309Y-119151329D01*
X159650367Y-119174081D01*
X159646050Y-119198952D01*
X159641393Y-119225740D01*
X159636431Y-119254242D01*
X159631200Y-119284258D01*
X159625734Y-119315585D01*
X159620071Y-119348021D01*
X159614244Y-119381365D01*
X159608289Y-119415414D01*
X159602242Y-119449967D01*
X159596137Y-119484822D01*
X159590011Y-119519776D01*
X159583898Y-119554629D01*
X159577835Y-119589179D01*
X159571856Y-119623223D01*
X159565996Y-119656559D01*
X159560292Y-119688986D01*
X159554778Y-119720302D01*
X159549490Y-119750305D01*
X159544463Y-119778793D01*
X159539733Y-119805565D01*
X159535335Y-119830418D01*
X159531304Y-119853151D01*
X159527676Y-119873561D01*
X159524486Y-119891448D01*
X159521769Y-119906608D01*
X159519561Y-119918841D01*
X159517897Y-119927943D01*
X159516813Y-119933715D01*
X159516554Y-119935023D01*
X159506987Y-119978174D01*
X159496334Y-120019393D01*
X159484697Y-120058391D01*
X159472178Y-120094879D01*
X159458877Y-120128570D01*
X159444898Y-120159174D01*
X159430340Y-120186403D01*
X159425100Y-120195127D01*
X159404332Y-120225616D01*
X159381668Y-120253263D01*
X159357299Y-120277879D01*
X159331414Y-120299271D01*
X159304206Y-120317249D01*
X159301656Y-120318718D01*
X159280637Y-120329337D01*
X159256564Y-120339149D01*
X159230122Y-120347957D01*
X159202000Y-120355564D01*
X159172884Y-120361775D01*
X159143460Y-120366392D01*
X159129428Y-120367985D01*
X159115316Y-120369119D01*
X159099006Y-120370002D01*
X159081487Y-120370616D01*
X159063744Y-120370944D01*
X159046764Y-120370968D01*
X159031536Y-120370670D01*
X159019045Y-120370032D01*
X159018511Y-120369991D01*
X158967587Y-120364170D01*
X158916028Y-120354642D01*
X158895992Y-120349983D01*
X158884862Y-120347134D01*
X158873787Y-120344099D01*
X158863482Y-120341094D01*
X158854664Y-120338334D01*
X158848048Y-120336036D01*
X158844351Y-120334417D01*
X158844229Y-120334340D01*
X158843464Y-120333102D01*
X158843204Y-120330393D01*
X158843494Y-120325764D01*
X158844380Y-120318763D01*
X158845906Y-120308941D01*
X158848103Y-120295940D01*
X158854456Y-120259157D01*
X158975687Y-120258107D01*
X159000846Y-120257878D01*
X159022522Y-120257652D01*
X159041024Y-120257420D01*
X159056661Y-120257172D01*
X159069742Y-120256898D01*
X159080574Y-120256588D01*
X159089468Y-120256234D01*
X159096730Y-120255825D01*
X159102671Y-120255351D01*
X159107598Y-120254804D01*
X159111820Y-120254173D01*
X159113977Y-120253782D01*
X159138686Y-120248382D01*
X159160267Y-120242198D01*
X159179344Y-120234999D01*
X159196540Y-120226555D01*
X159209926Y-120218372D01*
X159218839Y-120211612D01*
X159229131Y-120202520D01*
X159240033Y-120191886D01*
X159250778Y-120180503D01*
X159260598Y-120169161D01*
X159268724Y-120158654D01*
X159270838Y-120155602D01*
X159281540Y-120138029D01*
X159292260Y-120117473D01*
X159302653Y-120094721D01*
X159312372Y-120070564D01*
X159321075Y-120045790D01*
X159326308Y-120028740D01*
X159328567Y-120020456D01*
X159331127Y-120010356D01*
X159333831Y-119999145D01*
X159336522Y-119987527D01*
X159339042Y-119976207D01*
X159341234Y-119965889D01*
X159342939Y-119957276D01*
X159344002Y-119951074D01*
X159344283Y-119948326D01*
X159343157Y-119947554D01*
X159339566Y-119948230D01*
X159333192Y-119950443D01*
X159324854Y-119953807D01*
X159296081Y-119964996D01*
X159267373Y-119974545D01*
X159239552Y-119982212D01*
X159213440Y-119987758D01*
X159203067Y-119989412D01*
X159193634Y-119990380D01*
X159181370Y-119991091D01*
X159167159Y-119991546D01*
X159151889Y-119991744D01*
X159136444Y-119991685D01*
X159121711Y-119991368D01*
X159108575Y-119990793D01*
X159097922Y-119989958D01*
X159094052Y-119989480D01*
X159077780Y-119986652D01*
X159060679Y-119982884D01*
X159044106Y-119978516D01*
X159029421Y-119973888D01*
X159024407Y-119972051D01*
X159004388Y-119962428D01*
X158985255Y-119949546D01*
X158967541Y-119933923D01*
X158951781Y-119916074D01*
X158938509Y-119896516D01*
X158930721Y-119881506D01*
X158919927Y-119853613D01*
X158911499Y-119822767D01*
X158905437Y-119788981D01*
X158901743Y-119752266D01*
X158900418Y-119712632D01*
X158901461Y-119670090D01*
X158901630Y-119667836D01*
X159072267Y-119667836D01*
X159072431Y-119699159D01*
X159074198Y-119728773D01*
X159077547Y-119756104D01*
X159082461Y-119780579D01*
X159082781Y-119781848D01*
X159090038Y-119803997D01*
X159099800Y-119823307D01*
X159112069Y-119839780D01*
X159126847Y-119853417D01*
X159144137Y-119864219D01*
X159163941Y-119872188D01*
X159186262Y-119877325D01*
X159211102Y-119879632D01*
X159238464Y-119879109D01*
X159259897Y-119876959D01*
X159272054Y-119874949D01*
X159285242Y-119872046D01*
X159298931Y-119868442D01*
X159312587Y-119864326D01*
X159325678Y-119859889D01*
X159337671Y-119855319D01*
X159348035Y-119850808D01*
X159356237Y-119846546D01*
X159361745Y-119842721D01*
X159363958Y-119839812D01*
X159364395Y-119837595D01*
X159365446Y-119831874D01*
X159367072Y-119822869D01*
X159369235Y-119810802D01*
X159371895Y-119795895D01*
X159375014Y-119778369D01*
X159378552Y-119758444D01*
X159382470Y-119736344D01*
X159386731Y-119712287D01*
X159391293Y-119686497D01*
X159396120Y-119659195D01*
X159401170Y-119630601D01*
X159406407Y-119600938D01*
X159411790Y-119570425D01*
X159417281Y-119539286D01*
X159422840Y-119507741D01*
X159428429Y-119476011D01*
X159434009Y-119444319D01*
X159439540Y-119412884D01*
X159444984Y-119381929D01*
X159450302Y-119351675D01*
X159455454Y-119322343D01*
X159460403Y-119294154D01*
X159465108Y-119267331D01*
X159469531Y-119242093D01*
X159473633Y-119218663D01*
X159477375Y-119197262D01*
X159480717Y-119178112D01*
X159483622Y-119161433D01*
X159486049Y-119147447D01*
X159487961Y-119136375D01*
X159489317Y-119128438D01*
X159490079Y-119123859D01*
X159490239Y-119122770D01*
X159488420Y-119122136D01*
X159483267Y-119121643D01*
X159475233Y-119121286D01*
X159464771Y-119121056D01*
X159452335Y-119120947D01*
X159438378Y-119120951D01*
X159423354Y-119121062D01*
X159407716Y-119121273D01*
X159391918Y-119121577D01*
X159376413Y-119121966D01*
X159361655Y-119122433D01*
X159348098Y-119122972D01*
X159336193Y-119123576D01*
X159326397Y-119124238D01*
X159319160Y-119124950D01*
X159315905Y-119125465D01*
X159292600Y-119131444D01*
X159272051Y-119139166D01*
X159253451Y-119149076D01*
X159235992Y-119161617D01*
X159218869Y-119177233D01*
X159215333Y-119180849D01*
X159198607Y-119200377D01*
X159182563Y-119223354D01*
X159167349Y-119249480D01*
X159153108Y-119278450D01*
X159139987Y-119309964D01*
X159128131Y-119343717D01*
X159117685Y-119379408D01*
X159115182Y-119389112D01*
X159110323Y-119409599D01*
X159105244Y-119433052D01*
X159100088Y-119458667D01*
X159095000Y-119485638D01*
X159090127Y-119513159D01*
X159085611Y-119540423D01*
X159081600Y-119566625D01*
X159078237Y-119590959D01*
X159076822Y-119602358D01*
X159073725Y-119635378D01*
X159072267Y-119667836D01*
X158901630Y-119667836D01*
X158904875Y-119624653D01*
X158908452Y-119592881D01*
X158914267Y-119551114D01*
X158921111Y-119509306D01*
X158928866Y-119467973D01*
X158937414Y-119427631D01*
X158946636Y-119388796D01*
X158956413Y-119351985D01*
X158966627Y-119317714D01*
X158977159Y-119286498D01*
X158981642Y-119274438D01*
X158996718Y-119238077D01*
X159012798Y-119205130D01*
X159030056Y-119175312D01*
X159048667Y-119148338D01*
X159068807Y-119123922D01*
X159082563Y-119109523D01*
X159106335Y-119088099D01*
X159131406Y-119069676D01*
X159158196Y-119054028D01*
X159187123Y-119040930D01*
X159218606Y-119030156D01*
X159240977Y-119024211D01*
X159281479Y-119016269D01*
X159324074Y-119011247D01*
X159368438Y-119009142D01*
X159414250Y-119009952D01*
X159414250Y-119009952D01*
G37*
X159414250Y-119009952D02*
X159461186Y-119013674D01*
X159508923Y-119020308D01*
X159540470Y-119026230D01*
X159557376Y-119029947D01*
X159574424Y-119034096D01*
X159591213Y-119038546D01*
X159607341Y-119043163D01*
X159622408Y-119047817D01*
X159636014Y-119052375D01*
X159647757Y-119056706D01*
X159657236Y-119060677D01*
X159664053Y-119064157D01*
X159667804Y-119067014D01*
X159668418Y-119068338D01*
X159668094Y-119070608D01*
X159667148Y-119076410D01*
X159665614Y-119085542D01*
X159663528Y-119097801D01*
X159660925Y-119112987D01*
X159657840Y-119130897D01*
X159654309Y-119151329D01*
X159650367Y-119174081D01*
X159646050Y-119198952D01*
X159641393Y-119225740D01*
X159636431Y-119254242D01*
X159631200Y-119284258D01*
X159625734Y-119315585D01*
X159620071Y-119348021D01*
X159614244Y-119381365D01*
X159608289Y-119415414D01*
X159602242Y-119449967D01*
X159596137Y-119484822D01*
X159590011Y-119519776D01*
X159583898Y-119554629D01*
X159577835Y-119589179D01*
X159571856Y-119623223D01*
X159565996Y-119656559D01*
X159560292Y-119688986D01*
X159554778Y-119720302D01*
X159549490Y-119750305D01*
X159544463Y-119778793D01*
X159539733Y-119805565D01*
X159535335Y-119830418D01*
X159531304Y-119853151D01*
X159527676Y-119873561D01*
X159524486Y-119891448D01*
X159521769Y-119906608D01*
X159519561Y-119918841D01*
X159517897Y-119927943D01*
X159516813Y-119933715D01*
X159516554Y-119935023D01*
X159506987Y-119978174D01*
X159496334Y-120019393D01*
X159484697Y-120058391D01*
X159472178Y-120094879D01*
X159458877Y-120128570D01*
X159444898Y-120159174D01*
X159430340Y-120186403D01*
X159425100Y-120195127D01*
X159404332Y-120225616D01*
X159381668Y-120253263D01*
X159357299Y-120277879D01*
X159331414Y-120299271D01*
X159304206Y-120317249D01*
X159301656Y-120318718D01*
X159280637Y-120329337D01*
X159256564Y-120339149D01*
X159230122Y-120347957D01*
X159202000Y-120355564D01*
X159172884Y-120361775D01*
X159143460Y-120366392D01*
X159129428Y-120367985D01*
X159115316Y-120369119D01*
X159099006Y-120370002D01*
X159081487Y-120370616D01*
X159063744Y-120370944D01*
X159046764Y-120370968D01*
X159031536Y-120370670D01*
X159019045Y-120370032D01*
X159018511Y-120369991D01*
X158967587Y-120364170D01*
X158916028Y-120354642D01*
X158895992Y-120349983D01*
X158884862Y-120347134D01*
X158873787Y-120344099D01*
X158863482Y-120341094D01*
X158854664Y-120338334D01*
X158848048Y-120336036D01*
X158844351Y-120334417D01*
X158844229Y-120334340D01*
X158843464Y-120333102D01*
X158843204Y-120330393D01*
X158843494Y-120325764D01*
X158844380Y-120318763D01*
X158845906Y-120308941D01*
X158848103Y-120295940D01*
X158854456Y-120259157D01*
X158975687Y-120258107D01*
X159000846Y-120257878D01*
X159022522Y-120257652D01*
X159041024Y-120257420D01*
X159056661Y-120257172D01*
X159069742Y-120256898D01*
X159080574Y-120256588D01*
X159089468Y-120256234D01*
X159096730Y-120255825D01*
X159102671Y-120255351D01*
X159107598Y-120254804D01*
X159111820Y-120254173D01*
X159113977Y-120253782D01*
X159138686Y-120248382D01*
X159160267Y-120242198D01*
X159179344Y-120234999D01*
X159196540Y-120226555D01*
X159209926Y-120218372D01*
X159218839Y-120211612D01*
X159229131Y-120202520D01*
X159240033Y-120191886D01*
X159250778Y-120180503D01*
X159260598Y-120169161D01*
X159268724Y-120158654D01*
X159270838Y-120155602D01*
X159281540Y-120138029D01*
X159292260Y-120117473D01*
X159302653Y-120094721D01*
X159312372Y-120070564D01*
X159321075Y-120045790D01*
X159326308Y-120028740D01*
X159328567Y-120020456D01*
X159331127Y-120010356D01*
X159333831Y-119999145D01*
X159336522Y-119987527D01*
X159339042Y-119976207D01*
X159341234Y-119965889D01*
X159342939Y-119957276D01*
X159344002Y-119951074D01*
X159344283Y-119948326D01*
X159343157Y-119947554D01*
X159339566Y-119948230D01*
X159333192Y-119950443D01*
X159324854Y-119953807D01*
X159296081Y-119964996D01*
X159267373Y-119974545D01*
X159239552Y-119982212D01*
X159213440Y-119987758D01*
X159203067Y-119989412D01*
X159193634Y-119990380D01*
X159181370Y-119991091D01*
X159167159Y-119991546D01*
X159151889Y-119991744D01*
X159136444Y-119991685D01*
X159121711Y-119991368D01*
X159108575Y-119990793D01*
X159097922Y-119989958D01*
X159094052Y-119989480D01*
X159077780Y-119986652D01*
X159060679Y-119982884D01*
X159044106Y-119978516D01*
X159029421Y-119973888D01*
X159024407Y-119972051D01*
X159004388Y-119962428D01*
X158985255Y-119949546D01*
X158967541Y-119933923D01*
X158951781Y-119916074D01*
X158938509Y-119896516D01*
X158930721Y-119881506D01*
X158919927Y-119853613D01*
X158911499Y-119822767D01*
X158905437Y-119788981D01*
X158901743Y-119752266D01*
X158900418Y-119712632D01*
X158901461Y-119670090D01*
X158901630Y-119667836D01*
X159072267Y-119667836D01*
X159072431Y-119699159D01*
X159074198Y-119728773D01*
X159077547Y-119756104D01*
X159082461Y-119780579D01*
X159082781Y-119781848D01*
X159090038Y-119803997D01*
X159099800Y-119823307D01*
X159112069Y-119839780D01*
X159126847Y-119853417D01*
X159144137Y-119864219D01*
X159163941Y-119872188D01*
X159186262Y-119877325D01*
X159211102Y-119879632D01*
X159238464Y-119879109D01*
X159259897Y-119876959D01*
X159272054Y-119874949D01*
X159285242Y-119872046D01*
X159298931Y-119868442D01*
X159312587Y-119864326D01*
X159325678Y-119859889D01*
X159337671Y-119855319D01*
X159348035Y-119850808D01*
X159356237Y-119846546D01*
X159361745Y-119842721D01*
X159363958Y-119839812D01*
X159364395Y-119837595D01*
X159365446Y-119831874D01*
X159367072Y-119822869D01*
X159369235Y-119810802D01*
X159371895Y-119795895D01*
X159375014Y-119778369D01*
X159378552Y-119758444D01*
X159382470Y-119736344D01*
X159386731Y-119712287D01*
X159391293Y-119686497D01*
X159396120Y-119659195D01*
X159401170Y-119630601D01*
X159406407Y-119600938D01*
X159411790Y-119570425D01*
X159417281Y-119539286D01*
X159422840Y-119507741D01*
X159428429Y-119476011D01*
X159434009Y-119444319D01*
X159439540Y-119412884D01*
X159444984Y-119381929D01*
X159450302Y-119351675D01*
X159455454Y-119322343D01*
X159460403Y-119294154D01*
X159465108Y-119267331D01*
X159469531Y-119242093D01*
X159473633Y-119218663D01*
X159477375Y-119197262D01*
X159480717Y-119178112D01*
X159483622Y-119161433D01*
X159486049Y-119147447D01*
X159487961Y-119136375D01*
X159489317Y-119128438D01*
X159490079Y-119123859D01*
X159490239Y-119122770D01*
X159488420Y-119122136D01*
X159483267Y-119121643D01*
X159475233Y-119121286D01*
X159464771Y-119121056D01*
X159452335Y-119120947D01*
X159438378Y-119120951D01*
X159423354Y-119121062D01*
X159407716Y-119121273D01*
X159391918Y-119121577D01*
X159376413Y-119121966D01*
X159361655Y-119122433D01*
X159348098Y-119122972D01*
X159336193Y-119123576D01*
X159326397Y-119124238D01*
X159319160Y-119124950D01*
X159315905Y-119125465D01*
X159292600Y-119131444D01*
X159272051Y-119139166D01*
X159253451Y-119149076D01*
X159235992Y-119161617D01*
X159218869Y-119177233D01*
X159215333Y-119180849D01*
X159198607Y-119200377D01*
X159182563Y-119223354D01*
X159167349Y-119249480D01*
X159153108Y-119278450D01*
X159139987Y-119309964D01*
X159128131Y-119343717D01*
X159117685Y-119379408D01*
X159115182Y-119389112D01*
X159110323Y-119409599D01*
X159105244Y-119433052D01*
X159100088Y-119458667D01*
X159095000Y-119485638D01*
X159090127Y-119513159D01*
X159085611Y-119540423D01*
X159081600Y-119566625D01*
X159078237Y-119590959D01*
X159076822Y-119602358D01*
X159073725Y-119635378D01*
X159072267Y-119667836D01*
X158901630Y-119667836D01*
X158904875Y-119624653D01*
X158908452Y-119592881D01*
X158914267Y-119551114D01*
X158921111Y-119509306D01*
X158928866Y-119467973D01*
X158937414Y-119427631D01*
X158946636Y-119388796D01*
X158956413Y-119351985D01*
X158966627Y-119317714D01*
X158977159Y-119286498D01*
X158981642Y-119274438D01*
X158996718Y-119238077D01*
X159012798Y-119205130D01*
X159030056Y-119175312D01*
X159048667Y-119148338D01*
X159068807Y-119123922D01*
X159082563Y-119109523D01*
X159106335Y-119088099D01*
X159131406Y-119069676D01*
X159158196Y-119054028D01*
X159187123Y-119040930D01*
X159218606Y-119030156D01*
X159240977Y-119024211D01*
X159281479Y-119016269D01*
X159324074Y-119011247D01*
X159368438Y-119009142D01*
X159414250Y-119009952D01*
G36*
X161066412Y-118823773D02*
X161065940Y-118826265D01*
X161064898Y-118832038D01*
X161063356Y-118840694D01*
X161061383Y-118851834D01*
X161059050Y-118865059D01*
X161056425Y-118879971D01*
X161053580Y-118896171D01*
X161050583Y-118913261D01*
X161047504Y-118930842D01*
X161044413Y-118948515D01*
X161041380Y-118965881D01*
X161038475Y-118982543D01*
X161035766Y-118998101D01*
X161033325Y-119012157D01*
X161031220Y-119024312D01*
X161029521Y-119034167D01*
X161028299Y-119041324D01*
X161027622Y-119045385D01*
X161027507Y-119046169D01*
X161029352Y-119046305D01*
X161034684Y-119046447D01*
X161043200Y-119046592D01*
X161054595Y-119046737D01*
X161068567Y-119046880D01*
X161084811Y-119047018D01*
X161103023Y-119047147D01*
X161122900Y-119047265D01*
X161144138Y-119047368D01*
X161159812Y-119047432D01*
X161292117Y-119047918D01*
X161284654Y-119089930D01*
X161277190Y-119131941D01*
X161270345Y-119133799D01*
X161265498Y-119135117D01*
X161258212Y-119137101D01*
X161249708Y-119139419D01*
X161245332Y-119140612D01*
X161206372Y-119150056D01*
X161165704Y-119157701D01*
X161124465Y-119163390D01*
X161083797Y-119166969D01*
X161044840Y-119168281D01*
X161042876Y-119168284D01*
X161005062Y-119168284D01*
X161003993Y-119173497D01*
X161003467Y-119176357D01*
X161002343Y-119182687D01*
X161000668Y-119192222D01*
X160998487Y-119204697D01*
X160995847Y-119219845D01*
X160992793Y-119237401D01*
X160989371Y-119257100D01*
X160985627Y-119278675D01*
X160981607Y-119301861D01*
X160977357Y-119326393D01*
X160972923Y-119352005D01*
X160968350Y-119378431D01*
X160963685Y-119405406D01*
X160958974Y-119432663D01*
X160954261Y-119459938D01*
X160949594Y-119486965D01*
X160945019Y-119513479D01*
X160940580Y-119539212D01*
X160936325Y-119563901D01*
X160932298Y-119587279D01*
X160928546Y-119609081D01*
X160925115Y-119629041D01*
X160922050Y-119646893D01*
X160919398Y-119662372D01*
X160917204Y-119675212D01*
X160915514Y-119685148D01*
X160914375Y-119691914D01*
X160913832Y-119695239D01*
X160911015Y-119720778D01*
X160910265Y-119745796D01*
X160911528Y-119769730D01*
X160914748Y-119792019D01*
X160919871Y-119812102D01*
X160926842Y-119829418D01*
X160927004Y-119829742D01*
X160932422Y-119838638D01*
X160939705Y-119848105D01*
X160947916Y-119857094D01*
X160956115Y-119864561D01*
X160961948Y-119868684D01*
X160966091Y-119871013D01*
X160970160Y-119872990D01*
X160974500Y-119874647D01*
X160979454Y-119876015D01*
X160985367Y-119877127D01*
X160992581Y-119878015D01*
X161001442Y-119878712D01*
X161012292Y-119879248D01*
X161025477Y-119879657D01*
X161041338Y-119879971D01*
X161060221Y-119880221D01*
X161082470Y-119880441D01*
X161088304Y-119880492D01*
X161182272Y-119881303D01*
X161176955Y-119911954D01*
X161174592Y-119925712D01*
X161172748Y-119936233D01*
X161171207Y-119944000D01*
X161169753Y-119949496D01*
X161168171Y-119953203D01*
X161166244Y-119955603D01*
X161163757Y-119957178D01*
X161160493Y-119958412D01*
X161156237Y-119959787D01*
X161155423Y-119960062D01*
X161136571Y-119965829D01*
X161114657Y-119971377D01*
X161090408Y-119976566D01*
X161064550Y-119981253D01*
X161037812Y-119985298D01*
X161010921Y-119988559D01*
X161006270Y-119989037D01*
X160983428Y-119991042D01*
X160963343Y-119992168D01*
X160945092Y-119992431D01*
X160927747Y-119991848D01*
X160913234Y-119990719D01*
X160883440Y-119986692D01*
X160856763Y-119980591D01*
X160833078Y-119972308D01*
X160812261Y-119961737D01*
X160794189Y-119948773D01*
X160778737Y-119933308D01*
X160765782Y-119915236D01*
X160755200Y-119894451D01*
X160746868Y-119870847D01*
X160740660Y-119844316D01*
X160740266Y-119842142D01*
X160738942Y-119831928D01*
X160737993Y-119818811D01*
X160737426Y-119803660D01*
X160737249Y-119787346D01*
X160737469Y-119770738D01*
X160738095Y-119754706D01*
X160739133Y-119740120D01*
X160739347Y-119737888D01*
X160739860Y-119732864D01*
X160740393Y-119727918D01*
X160740980Y-119722847D01*
X160741655Y-119717451D01*
X160742450Y-119711525D01*
X160743399Y-119704870D01*
X160744536Y-119697283D01*
X160745894Y-119688561D01*
X160747506Y-119678504D01*
X160749405Y-119666908D01*
X160751625Y-119653573D01*
X160754199Y-119638296D01*
X160757161Y-119620875D01*
X160760543Y-119601108D01*
X160764380Y-119578793D01*
X160768703Y-119553729D01*
X160773548Y-119525713D01*
X160778947Y-119494544D01*
X160784933Y-119460019D01*
X160790703Y-119426761D01*
X160795963Y-119396417D01*
X160801041Y-119367066D01*
X160805899Y-119338930D01*
X160810500Y-119312228D01*
X160814805Y-119287181D01*
X160818778Y-119264010D01*
X160822380Y-119242934D01*
X160825574Y-119224175D01*
X160828322Y-119207953D01*
X160830587Y-119194489D01*
X160832330Y-119184003D01*
X160833515Y-119176715D01*
X160834104Y-119172846D01*
X160834164Y-119172287D01*
X160834087Y-119171141D01*
X160833589Y-119170238D01*
X160832266Y-119169549D01*
X160829715Y-119169044D01*
X160825533Y-119168695D01*
X160819317Y-119168474D01*
X160810665Y-119168351D01*
X160799173Y-119168297D01*
X160784439Y-119168284D01*
X160778246Y-119168284D01*
X160761495Y-119168250D01*
X160748211Y-119168138D01*
X160738069Y-119167935D01*
X160730745Y-119167626D01*
X160725915Y-119167199D01*
X160723256Y-119166640D01*
X160722442Y-119165934D01*
X160722442Y-119165914D01*
X160722809Y-119163524D01*
X160723793Y-119157880D01*
X160725308Y-119149456D01*
X160727269Y-119138724D01*
X160729589Y-119126157D01*
X160732182Y-119112226D01*
X160733398Y-119105732D01*
X160744238Y-119047918D01*
X160858036Y-119046916D01*
X160877850Y-118933214D01*
X160897664Y-118819511D01*
X160982525Y-118819509D01*
X161067385Y-118819508D01*
X161066412Y-118823773D01*
X161066412Y-118823773D01*
G37*
X161066412Y-118823773D02*
X161065940Y-118826265D01*
X161064898Y-118832038D01*
X161063356Y-118840694D01*
X161061383Y-118851834D01*
X161059050Y-118865059D01*
X161056425Y-118879971D01*
X161053580Y-118896171D01*
X161050583Y-118913261D01*
X161047504Y-118930842D01*
X161044413Y-118948515D01*
X161041380Y-118965881D01*
X161038475Y-118982543D01*
X161035766Y-118998101D01*
X161033325Y-119012157D01*
X161031220Y-119024312D01*
X161029521Y-119034167D01*
X161028299Y-119041324D01*
X161027622Y-119045385D01*
X161027507Y-119046169D01*
X161029352Y-119046305D01*
X161034684Y-119046447D01*
X161043200Y-119046592D01*
X161054595Y-119046737D01*
X161068567Y-119046880D01*
X161084811Y-119047018D01*
X161103023Y-119047147D01*
X161122900Y-119047265D01*
X161144138Y-119047368D01*
X161159812Y-119047432D01*
X161292117Y-119047918D01*
X161284654Y-119089930D01*
X161277190Y-119131941D01*
X161270345Y-119133799D01*
X161265498Y-119135117D01*
X161258212Y-119137101D01*
X161249708Y-119139419D01*
X161245332Y-119140612D01*
X161206372Y-119150056D01*
X161165704Y-119157701D01*
X161124465Y-119163390D01*
X161083797Y-119166969D01*
X161044840Y-119168281D01*
X161042876Y-119168284D01*
X161005062Y-119168284D01*
X161003993Y-119173497D01*
X161003467Y-119176357D01*
X161002343Y-119182687D01*
X161000668Y-119192222D01*
X160998487Y-119204697D01*
X160995847Y-119219845D01*
X160992793Y-119237401D01*
X160989371Y-119257100D01*
X160985627Y-119278675D01*
X160981607Y-119301861D01*
X160977357Y-119326393D01*
X160972923Y-119352005D01*
X160968350Y-119378431D01*
X160963685Y-119405406D01*
X160958974Y-119432663D01*
X160954261Y-119459938D01*
X160949594Y-119486965D01*
X160945019Y-119513479D01*
X160940580Y-119539212D01*
X160936325Y-119563901D01*
X160932298Y-119587279D01*
X160928546Y-119609081D01*
X160925115Y-119629041D01*
X160922050Y-119646893D01*
X160919398Y-119662372D01*
X160917204Y-119675212D01*
X160915514Y-119685148D01*
X160914375Y-119691914D01*
X160913832Y-119695239D01*
X160911015Y-119720778D01*
X160910265Y-119745796D01*
X160911528Y-119769730D01*
X160914748Y-119792019D01*
X160919871Y-119812102D01*
X160926842Y-119829418D01*
X160927004Y-119829742D01*
X160932422Y-119838638D01*
X160939705Y-119848105D01*
X160947916Y-119857094D01*
X160956115Y-119864561D01*
X160961948Y-119868684D01*
X160966091Y-119871013D01*
X160970160Y-119872990D01*
X160974500Y-119874647D01*
X160979454Y-119876015D01*
X160985367Y-119877127D01*
X160992581Y-119878015D01*
X161001442Y-119878712D01*
X161012292Y-119879248D01*
X161025477Y-119879657D01*
X161041338Y-119879971D01*
X161060221Y-119880221D01*
X161082470Y-119880441D01*
X161088304Y-119880492D01*
X161182272Y-119881303D01*
X161176955Y-119911954D01*
X161174592Y-119925712D01*
X161172748Y-119936233D01*
X161171207Y-119944000D01*
X161169753Y-119949496D01*
X161168171Y-119953203D01*
X161166244Y-119955603D01*
X161163757Y-119957178D01*
X161160493Y-119958412D01*
X161156237Y-119959787D01*
X161155423Y-119960062D01*
X161136571Y-119965829D01*
X161114657Y-119971377D01*
X161090408Y-119976566D01*
X161064550Y-119981253D01*
X161037812Y-119985298D01*
X161010921Y-119988559D01*
X161006270Y-119989037D01*
X160983428Y-119991042D01*
X160963343Y-119992168D01*
X160945092Y-119992431D01*
X160927747Y-119991848D01*
X160913234Y-119990719D01*
X160883440Y-119986692D01*
X160856763Y-119980591D01*
X160833078Y-119972308D01*
X160812261Y-119961737D01*
X160794189Y-119948773D01*
X160778737Y-119933308D01*
X160765782Y-119915236D01*
X160755200Y-119894451D01*
X160746868Y-119870847D01*
X160740660Y-119844316D01*
X160740266Y-119842142D01*
X160738942Y-119831928D01*
X160737993Y-119818811D01*
X160737426Y-119803660D01*
X160737249Y-119787346D01*
X160737469Y-119770738D01*
X160738095Y-119754706D01*
X160739133Y-119740120D01*
X160739347Y-119737888D01*
X160739860Y-119732864D01*
X160740393Y-119727918D01*
X160740980Y-119722847D01*
X160741655Y-119717451D01*
X160742450Y-119711525D01*
X160743399Y-119704870D01*
X160744536Y-119697283D01*
X160745894Y-119688561D01*
X160747506Y-119678504D01*
X160749405Y-119666908D01*
X160751625Y-119653573D01*
X160754199Y-119638296D01*
X160757161Y-119620875D01*
X160760543Y-119601108D01*
X160764380Y-119578793D01*
X160768703Y-119553729D01*
X160773548Y-119525713D01*
X160778947Y-119494544D01*
X160784933Y-119460019D01*
X160790703Y-119426761D01*
X160795963Y-119396417D01*
X160801041Y-119367066D01*
X160805899Y-119338930D01*
X160810500Y-119312228D01*
X160814805Y-119287181D01*
X160818778Y-119264010D01*
X160822380Y-119242934D01*
X160825574Y-119224175D01*
X160828322Y-119207953D01*
X160830587Y-119194489D01*
X160832330Y-119184003D01*
X160833515Y-119176715D01*
X160834104Y-119172846D01*
X160834164Y-119172287D01*
X160834087Y-119171141D01*
X160833589Y-119170238D01*
X160832266Y-119169549D01*
X160829715Y-119169044D01*
X160825533Y-119168695D01*
X160819317Y-119168474D01*
X160810665Y-119168351D01*
X160799173Y-119168297D01*
X160784439Y-119168284D01*
X160778246Y-119168284D01*
X160761495Y-119168250D01*
X160748211Y-119168138D01*
X160738069Y-119167935D01*
X160730745Y-119167626D01*
X160725915Y-119167199D01*
X160723256Y-119166640D01*
X160722442Y-119165934D01*
X160722442Y-119165914D01*
X160722809Y-119163524D01*
X160723793Y-119157880D01*
X160725308Y-119149456D01*
X160727269Y-119138724D01*
X160729589Y-119126157D01*
X160732182Y-119112226D01*
X160733398Y-119105732D01*
X160744238Y-119047918D01*
X160858036Y-119046916D01*
X160877850Y-118933214D01*
X160897664Y-118819511D01*
X160982525Y-118819509D01*
X161067385Y-118819508D01*
X161066412Y-118823773D01*
G36*
X161888734Y-118630954D02*
X161923967Y-118632352D01*
X161959370Y-118634848D01*
X161994301Y-118638386D01*
X162028119Y-118642913D01*
X162060185Y-118648371D01*
X162089857Y-118654705D01*
X162116496Y-118661861D01*
X162118007Y-118662322D01*
X162126561Y-118665069D01*
X162131998Y-118667160D01*
X162134875Y-118668880D01*
X162135748Y-118670509D01*
X162135641Y-118671269D01*
X162135103Y-118673812D01*
X162134047Y-118679352D01*
X162132595Y-118687211D01*
X162130868Y-118696711D01*
X162128986Y-118707174D01*
X162127071Y-118717921D01*
X162125243Y-118728274D01*
X162123624Y-118737554D01*
X162122334Y-118745083D01*
X162121495Y-118750184D01*
X162121224Y-118752146D01*
X162119376Y-118752287D01*
X162114025Y-118752437D01*
X162105459Y-118752593D01*
X162093965Y-118752751D01*
X162079832Y-118752910D01*
X162063346Y-118753065D01*
X162044796Y-118753215D01*
X162024470Y-118753355D01*
X162002655Y-118753484D01*
X161979639Y-118753599D01*
X161973847Y-118753624D01*
X161945370Y-118753749D01*
X161920389Y-118753876D01*
X161898611Y-118754024D01*
X161879741Y-118754212D01*
X161863484Y-118754461D01*
X161849547Y-118754788D01*
X161837635Y-118755214D01*
X161827453Y-118755757D01*
X161818708Y-118756438D01*
X161811105Y-118757275D01*
X161804349Y-118758288D01*
X161798147Y-118759495D01*
X161792203Y-118760917D01*
X161786225Y-118762572D01*
X161779917Y-118764480D01*
X161772984Y-118766660D01*
X161772448Y-118766830D01*
X161747004Y-118776187D01*
X161724416Y-118787383D01*
X161704032Y-118800806D01*
X161685205Y-118816846D01*
X161679345Y-118822655D01*
X161660784Y-118844371D01*
X161644756Y-118868740D01*
X161631357Y-118895513D01*
X161620684Y-118924438D01*
X161612834Y-118955265D01*
X161607903Y-118987741D01*
X161606203Y-119012349D01*
X161606015Y-119034774D01*
X161607304Y-119054367D01*
X161610287Y-119071874D01*
X161615181Y-119088038D01*
X161622202Y-119103603D01*
X161631568Y-119119315D01*
X161641442Y-119133217D01*
X161650826Y-119145010D01*
X161660811Y-119156156D01*
X161671684Y-119166852D01*
X161683733Y-119177294D01*
X161697248Y-119187680D01*
X161712515Y-119198206D01*
X161729823Y-119209068D01*
X161749461Y-119220464D01*
X161771717Y-119232591D01*
X161796878Y-119245644D01*
X161825234Y-119259821D01*
X161831209Y-119262757D01*
X161852144Y-119273280D01*
X161870277Y-119283026D01*
X161886381Y-119292481D01*
X161901227Y-119302135D01*
X161915588Y-119312476D01*
X161930235Y-119323992D01*
X161937358Y-119329882D01*
X161956863Y-119347243D01*
X161973426Y-119364351D01*
X161987732Y-119382052D01*
X162000467Y-119401192D01*
X162011978Y-119421954D01*
X162021768Y-119442780D01*
X162029219Y-119462755D01*
X162034546Y-119482816D01*
X162037963Y-119503902D01*
X162039684Y-119526951D01*
X162039996Y-119544545D01*
X162038530Y-119581691D01*
X162034134Y-119619146D01*
X162029456Y-119645145D01*
X162019973Y-119686504D01*
X162009004Y-119724497D01*
X161996435Y-119759292D01*
X161982151Y-119791058D01*
X161966039Y-119819962D01*
X161947984Y-119846174D01*
X161927872Y-119869860D01*
X161905589Y-119891190D01*
X161881022Y-119910332D01*
X161854056Y-119927453D01*
X161829065Y-119940590D01*
X161803394Y-119952064D01*
X161777361Y-119961818D01*
X161750341Y-119970014D01*
X161721708Y-119976815D01*
X161690836Y-119982383D01*
X161657100Y-119986879D01*
X161645448Y-119988133D01*
X161636347Y-119988875D01*
X161624288Y-119989582D01*
X161609931Y-119990237D01*
X161593936Y-119990825D01*
X161576963Y-119991332D01*
X161559671Y-119991742D01*
X161542721Y-119992040D01*
X161526772Y-119992210D01*
X161512483Y-119992238D01*
X161500516Y-119992109D01*
X161491530Y-119991806D01*
X161490015Y-119991715D01*
X161464282Y-119989876D01*
X161441585Y-119988012D01*
X161421168Y-119986033D01*
X161402274Y-119983848D01*
X161384150Y-119981368D01*
X161366039Y-119978503D01*
X161347186Y-119975162D01*
X161340268Y-119973864D01*
X161328772Y-119971552D01*
X161316728Y-119968913D01*
X161304758Y-119966107D01*
X161293483Y-119963292D01*
X161283522Y-119960628D01*
X161275497Y-119958274D01*
X161270029Y-119956390D01*
X161267840Y-119955264D01*
X161267832Y-119953183D01*
X161268397Y-119948025D01*
X161269430Y-119940440D01*
X161270828Y-119931080D01*
X161272484Y-119920597D01*
X161274295Y-119909643D01*
X161276156Y-119898870D01*
X161277962Y-119888929D01*
X161279609Y-119880472D01*
X161280561Y-119876004D01*
X161281471Y-119871956D01*
X161430761Y-119870943D01*
X161460515Y-119870730D01*
X161486787Y-119870511D01*
X161509885Y-119870269D01*
X161530119Y-119869988D01*
X161547797Y-119869651D01*
X161563228Y-119869243D01*
X161576721Y-119868746D01*
X161588585Y-119868145D01*
X161599128Y-119867424D01*
X161608660Y-119866566D01*
X161617490Y-119865555D01*
X161625925Y-119864375D01*
X161634276Y-119863010D01*
X161642850Y-119861443D01*
X161651957Y-119859658D01*
X161654296Y-119859187D01*
X161685056Y-119851748D01*
X161712666Y-119842455D01*
X161737333Y-119831207D01*
X161759267Y-119817905D01*
X161778677Y-119802450D01*
X161783950Y-119797466D01*
X161801455Y-119778402D01*
X161816753Y-119757651D01*
X161830007Y-119734874D01*
X161841380Y-119709732D01*
X161851036Y-119681885D01*
X161859138Y-119650995D01*
X161862787Y-119633635D01*
X161864452Y-119622399D01*
X161865589Y-119609127D01*
X161866199Y-119594734D01*
X161866282Y-119580134D01*
X161865839Y-119566240D01*
X161864869Y-119553968D01*
X161863374Y-119544230D01*
X161862757Y-119541702D01*
X161857441Y-119526159D01*
X161850140Y-119511161D01*
X161840457Y-119496051D01*
X161827997Y-119480170D01*
X161820855Y-119472016D01*
X161809508Y-119460682D01*
X161795326Y-119448732D01*
X161778194Y-119436093D01*
X161757998Y-119422693D01*
X161734623Y-119408458D01*
X161707955Y-119393316D01*
X161677881Y-119377195D01*
X161648291Y-119362031D01*
X161627037Y-119351153D01*
X161608664Y-119341313D01*
X161592538Y-119332129D01*
X161578025Y-119323221D01*
X161564490Y-119314207D01*
X161551299Y-119304708D01*
X161545426Y-119300264D01*
X161519947Y-119278644D01*
X161497750Y-119255287D01*
X161478609Y-119229893D01*
X161462298Y-119202163D01*
X161448702Y-119172075D01*
X161440971Y-119148039D01*
X161435556Y-119121296D01*
X161432454Y-119092140D01*
X161431664Y-119060866D01*
X161433184Y-119027768D01*
X161437012Y-118993138D01*
X161443146Y-118957272D01*
X161450266Y-118925657D01*
X161461623Y-118886293D01*
X161475301Y-118849897D01*
X161491345Y-118816403D01*
X161509801Y-118785746D01*
X161530716Y-118757862D01*
X161554134Y-118732684D01*
X161580102Y-118710148D01*
X161608666Y-118690188D01*
X161621286Y-118682650D01*
X161644558Y-118670896D01*
X161670839Y-118660328D01*
X161699481Y-118651135D01*
X161729836Y-118643501D01*
X161761256Y-118637614D01*
X161790455Y-118633910D01*
X161821337Y-118631678D01*
X161854311Y-118630711D01*
X161888734Y-118630954D01*
X161888734Y-118630954D01*
G37*
X161888734Y-118630954D02*
X161923967Y-118632352D01*
X161959370Y-118634848D01*
X161994301Y-118638386D01*
X162028119Y-118642913D01*
X162060185Y-118648371D01*
X162089857Y-118654705D01*
X162116496Y-118661861D01*
X162118007Y-118662322D01*
X162126561Y-118665069D01*
X162131998Y-118667160D01*
X162134875Y-118668880D01*
X162135748Y-118670509D01*
X162135641Y-118671269D01*
X162135103Y-118673812D01*
X162134047Y-118679352D01*
X162132595Y-118687211D01*
X162130868Y-118696711D01*
X162128986Y-118707174D01*
X162127071Y-118717921D01*
X162125243Y-118728274D01*
X162123624Y-118737554D01*
X162122334Y-118745083D01*
X162121495Y-118750184D01*
X162121224Y-118752146D01*
X162119376Y-118752287D01*
X162114025Y-118752437D01*
X162105459Y-118752593D01*
X162093965Y-118752751D01*
X162079832Y-118752910D01*
X162063346Y-118753065D01*
X162044796Y-118753215D01*
X162024470Y-118753355D01*
X162002655Y-118753484D01*
X161979639Y-118753599D01*
X161973847Y-118753624D01*
X161945370Y-118753749D01*
X161920389Y-118753876D01*
X161898611Y-118754024D01*
X161879741Y-118754212D01*
X161863484Y-118754461D01*
X161849547Y-118754788D01*
X161837635Y-118755214D01*
X161827453Y-118755757D01*
X161818708Y-118756438D01*
X161811105Y-118757275D01*
X161804349Y-118758288D01*
X161798147Y-118759495D01*
X161792203Y-118760917D01*
X161786225Y-118762572D01*
X161779917Y-118764480D01*
X161772984Y-118766660D01*
X161772448Y-118766830D01*
X161747004Y-118776187D01*
X161724416Y-118787383D01*
X161704032Y-118800806D01*
X161685205Y-118816846D01*
X161679345Y-118822655D01*
X161660784Y-118844371D01*
X161644756Y-118868740D01*
X161631357Y-118895513D01*
X161620684Y-118924438D01*
X161612834Y-118955265D01*
X161607903Y-118987741D01*
X161606203Y-119012349D01*
X161606015Y-119034774D01*
X161607304Y-119054367D01*
X161610287Y-119071874D01*
X161615181Y-119088038D01*
X161622202Y-119103603D01*
X161631568Y-119119315D01*
X161641442Y-119133217D01*
X161650826Y-119145010D01*
X161660811Y-119156156D01*
X161671684Y-119166852D01*
X161683733Y-119177294D01*
X161697248Y-119187680D01*
X161712515Y-119198206D01*
X161729823Y-119209068D01*
X161749461Y-119220464D01*
X161771717Y-119232591D01*
X161796878Y-119245644D01*
X161825234Y-119259821D01*
X161831209Y-119262757D01*
X161852144Y-119273280D01*
X161870277Y-119283026D01*
X161886381Y-119292481D01*
X161901227Y-119302135D01*
X161915588Y-119312476D01*
X161930235Y-119323992D01*
X161937358Y-119329882D01*
X161956863Y-119347243D01*
X161973426Y-119364351D01*
X161987732Y-119382052D01*
X162000467Y-119401192D01*
X162011978Y-119421954D01*
X162021768Y-119442780D01*
X162029219Y-119462755D01*
X162034546Y-119482816D01*
X162037963Y-119503902D01*
X162039684Y-119526951D01*
X162039996Y-119544545D01*
X162038530Y-119581691D01*
X162034134Y-119619146D01*
X162029456Y-119645145D01*
X162019973Y-119686504D01*
X162009004Y-119724497D01*
X161996435Y-119759292D01*
X161982151Y-119791058D01*
X161966039Y-119819962D01*
X161947984Y-119846174D01*
X161927872Y-119869860D01*
X161905589Y-119891190D01*
X161881022Y-119910332D01*
X161854056Y-119927453D01*
X161829065Y-119940590D01*
X161803394Y-119952064D01*
X161777361Y-119961818D01*
X161750341Y-119970014D01*
X161721708Y-119976815D01*
X161690836Y-119982383D01*
X161657100Y-119986879D01*
X161645448Y-119988133D01*
X161636347Y-119988875D01*
X161624288Y-119989582D01*
X161609931Y-119990237D01*
X161593936Y-119990825D01*
X161576963Y-119991332D01*
X161559671Y-119991742D01*
X161542721Y-119992040D01*
X161526772Y-119992210D01*
X161512483Y-119992238D01*
X161500516Y-119992109D01*
X161491530Y-119991806D01*
X161490015Y-119991715D01*
X161464282Y-119989876D01*
X161441585Y-119988012D01*
X161421168Y-119986033D01*
X161402274Y-119983848D01*
X161384150Y-119981368D01*
X161366039Y-119978503D01*
X161347186Y-119975162D01*
X161340268Y-119973864D01*
X161328772Y-119971552D01*
X161316728Y-119968913D01*
X161304758Y-119966107D01*
X161293483Y-119963292D01*
X161283522Y-119960628D01*
X161275497Y-119958274D01*
X161270029Y-119956390D01*
X161267840Y-119955264D01*
X161267832Y-119953183D01*
X161268397Y-119948025D01*
X161269430Y-119940440D01*
X161270828Y-119931080D01*
X161272484Y-119920597D01*
X161274295Y-119909643D01*
X161276156Y-119898870D01*
X161277962Y-119888929D01*
X161279609Y-119880472D01*
X161280561Y-119876004D01*
X161281471Y-119871956D01*
X161430761Y-119870943D01*
X161460515Y-119870730D01*
X161486787Y-119870511D01*
X161509885Y-119870269D01*
X161530119Y-119869988D01*
X161547797Y-119869651D01*
X161563228Y-119869243D01*
X161576721Y-119868746D01*
X161588585Y-119868145D01*
X161599128Y-119867424D01*
X161608660Y-119866566D01*
X161617490Y-119865555D01*
X161625925Y-119864375D01*
X161634276Y-119863010D01*
X161642850Y-119861443D01*
X161651957Y-119859658D01*
X161654296Y-119859187D01*
X161685056Y-119851748D01*
X161712666Y-119842455D01*
X161737333Y-119831207D01*
X161759267Y-119817905D01*
X161778677Y-119802450D01*
X161783950Y-119797466D01*
X161801455Y-119778402D01*
X161816753Y-119757651D01*
X161830007Y-119734874D01*
X161841380Y-119709732D01*
X161851036Y-119681885D01*
X161859138Y-119650995D01*
X161862787Y-119633635D01*
X161864452Y-119622399D01*
X161865589Y-119609127D01*
X161866199Y-119594734D01*
X161866282Y-119580134D01*
X161865839Y-119566240D01*
X161864869Y-119553968D01*
X161863374Y-119544230D01*
X161862757Y-119541702D01*
X161857441Y-119526159D01*
X161850140Y-119511161D01*
X161840457Y-119496051D01*
X161827997Y-119480170D01*
X161820855Y-119472016D01*
X161809508Y-119460682D01*
X161795326Y-119448732D01*
X161778194Y-119436093D01*
X161757998Y-119422693D01*
X161734623Y-119408458D01*
X161707955Y-119393316D01*
X161677881Y-119377195D01*
X161648291Y-119362031D01*
X161627037Y-119351153D01*
X161608664Y-119341313D01*
X161592538Y-119332129D01*
X161578025Y-119323221D01*
X161564490Y-119314207D01*
X161551299Y-119304708D01*
X161545426Y-119300264D01*
X161519947Y-119278644D01*
X161497750Y-119255287D01*
X161478609Y-119229893D01*
X161462298Y-119202163D01*
X161448702Y-119172075D01*
X161440971Y-119148039D01*
X161435556Y-119121296D01*
X161432454Y-119092140D01*
X161431664Y-119060866D01*
X161433184Y-119027768D01*
X161437012Y-118993138D01*
X161443146Y-118957272D01*
X161450266Y-118925657D01*
X161461623Y-118886293D01*
X161475301Y-118849897D01*
X161491345Y-118816403D01*
X161509801Y-118785746D01*
X161530716Y-118757862D01*
X161554134Y-118732684D01*
X161580102Y-118710148D01*
X161608666Y-118690188D01*
X161621286Y-118682650D01*
X161644558Y-118670896D01*
X161670839Y-118660328D01*
X161699481Y-118651135D01*
X161729836Y-118643501D01*
X161761256Y-118637614D01*
X161790455Y-118633910D01*
X161821337Y-118631678D01*
X161854311Y-118630711D01*
X161888734Y-118630954D01*
G36*
X162563834Y-118823773D02*
X162563351Y-118826283D01*
X162562298Y-118832077D01*
X162560747Y-118840755D01*
X162558766Y-118851916D01*
X162556425Y-118865163D01*
X162553795Y-118880094D01*
X162550944Y-118896310D01*
X162547944Y-118913412D01*
X162544864Y-118931001D01*
X162541774Y-118948676D01*
X162538743Y-118966038D01*
X162535842Y-118982687D01*
X162533141Y-118998225D01*
X162530708Y-119012251D01*
X162528616Y-119024366D01*
X162526932Y-119034170D01*
X162525727Y-119041264D01*
X162525071Y-119045248D01*
X162524970Y-119045972D01*
X162526815Y-119046141D01*
X162532147Y-119046314D01*
X162540662Y-119046488D01*
X162552057Y-119046660D01*
X162566028Y-119046826D01*
X162582270Y-119046983D01*
X162600481Y-119047128D01*
X162620356Y-119047257D01*
X162641591Y-119047367D01*
X162657202Y-119047432D01*
X162789435Y-119047918D01*
X162781987Y-119089944D01*
X162774540Y-119131970D01*
X162767751Y-119133813D01*
X162762931Y-119135124D01*
X162755669Y-119137102D01*
X162747179Y-119139417D01*
X162742795Y-119140612D01*
X162703835Y-119150056D01*
X162663166Y-119157701D01*
X162621928Y-119163390D01*
X162581260Y-119166969D01*
X162542302Y-119168281D01*
X162540339Y-119168284D01*
X162502525Y-119168284D01*
X162501423Y-119173497D01*
X162500469Y-119178371D01*
X162498948Y-119186625D01*
X162496904Y-119197991D01*
X162494383Y-119212203D01*
X162491431Y-119228994D01*
X162488093Y-119248097D01*
X162484415Y-119269246D01*
X162480442Y-119292174D01*
X162476220Y-119316614D01*
X162471795Y-119342300D01*
X162467211Y-119368965D01*
X162462515Y-119396342D01*
X162457752Y-119424165D01*
X162452968Y-119452167D01*
X162448207Y-119480081D01*
X162443516Y-119507641D01*
X162438941Y-119534579D01*
X162434526Y-119560630D01*
X162430317Y-119585527D01*
X162426360Y-119609002D01*
X162422700Y-119630790D01*
X162419383Y-119650624D01*
X162416454Y-119668236D01*
X162413959Y-119683360D01*
X162411944Y-119695731D01*
X162410453Y-119705080D01*
X162409534Y-119711141D01*
X162409257Y-119713247D01*
X162407650Y-119739963D01*
X162408425Y-119765065D01*
X162411502Y-119788310D01*
X162416805Y-119809458D01*
X162424255Y-119828265D01*
X162433774Y-119844492D01*
X162445284Y-119857896D01*
X162458706Y-119868236D01*
X162459600Y-119868771D01*
X162463695Y-119871082D01*
X162467734Y-119873044D01*
X162472060Y-119874687D01*
X162477016Y-119876045D01*
X162482946Y-119877149D01*
X162490191Y-119878031D01*
X162499096Y-119878723D01*
X162510004Y-119879257D01*
X162523258Y-119879664D01*
X162539200Y-119879977D01*
X162558175Y-119880227D01*
X162580524Y-119880446D01*
X162585729Y-119880492D01*
X162679660Y-119881303D01*
X162673450Y-119916609D01*
X162671459Y-119927805D01*
X162669647Y-119937761D01*
X162668130Y-119945857D01*
X162667024Y-119951470D01*
X162666447Y-119953982D01*
X162666442Y-119953995D01*
X162664325Y-119955424D01*
X162659185Y-119957559D01*
X162651681Y-119960197D01*
X162642472Y-119963136D01*
X162632214Y-119966173D01*
X162621566Y-119969105D01*
X162611187Y-119971729D01*
X162602686Y-119973645D01*
X162566034Y-119980635D01*
X162530862Y-119986022D01*
X162497541Y-119989773D01*
X162466443Y-119991855D01*
X162437940Y-119992233D01*
X162412404Y-119990875D01*
X162411571Y-119990796D01*
X162382001Y-119986812D01*
X162355550Y-119980845D01*
X162332075Y-119972842D01*
X162311432Y-119962748D01*
X162293476Y-119950510D01*
X162286044Y-119944113D01*
X162276942Y-119935032D01*
X162269556Y-119925957D01*
X162262956Y-119915615D01*
X162257047Y-119904429D01*
X162248278Y-119883745D01*
X162241630Y-119861224D01*
X162237082Y-119836638D01*
X162234613Y-119809758D01*
X162234204Y-119780356D01*
X162235834Y-119748204D01*
X162239483Y-119713073D01*
X162239798Y-119710610D01*
X162240466Y-119706090D01*
X162241745Y-119698074D01*
X162243593Y-119686799D01*
X162245971Y-119672506D01*
X162248838Y-119655431D01*
X162252154Y-119635814D01*
X162255877Y-119613893D01*
X162259968Y-119589906D01*
X162264385Y-119564092D01*
X162269089Y-119536690D01*
X162274039Y-119507937D01*
X162279193Y-119478072D01*
X162284512Y-119447334D01*
X162287139Y-119432187D01*
X162292461Y-119401486D01*
X162297601Y-119371781D01*
X162302522Y-119343289D01*
X162307187Y-119316228D01*
X162311559Y-119290815D01*
X162315601Y-119267267D01*
X162319275Y-119245803D01*
X162322544Y-119226639D01*
X162325370Y-119209993D01*
X162327718Y-119196084D01*
X162329549Y-119185127D01*
X162330827Y-119177342D01*
X162331514Y-119172945D01*
X162331627Y-119172026D01*
X162331506Y-119170957D01*
X162330876Y-119170113D01*
X162329335Y-119169468D01*
X162326482Y-119168996D01*
X162321914Y-119168670D01*
X162315230Y-119168462D01*
X162306028Y-119168346D01*
X162293907Y-119168296D01*
X162278465Y-119168284D01*
X162219349Y-119168284D01*
X162220348Y-119163071D01*
X162220936Y-119159921D01*
X162222108Y-119153557D01*
X162223771Y-119144499D01*
X162225830Y-119133262D01*
X162228190Y-119120363D01*
X162230756Y-119106320D01*
X162231469Y-119102415D01*
X162241589Y-119046971D01*
X162298485Y-119046971D01*
X162355380Y-119046970D01*
X162375224Y-118933239D01*
X162395067Y-118819508D01*
X162564848Y-118819508D01*
X162563834Y-118823773D01*
X162563834Y-118823773D01*
G37*
X162563834Y-118823773D02*
X162563351Y-118826283D01*
X162562298Y-118832077D01*
X162560747Y-118840755D01*
X162558766Y-118851916D01*
X162556425Y-118865163D01*
X162553795Y-118880094D01*
X162550944Y-118896310D01*
X162547944Y-118913412D01*
X162544864Y-118931001D01*
X162541774Y-118948676D01*
X162538743Y-118966038D01*
X162535842Y-118982687D01*
X162533141Y-118998225D01*
X162530708Y-119012251D01*
X162528616Y-119024366D01*
X162526932Y-119034170D01*
X162525727Y-119041264D01*
X162525071Y-119045248D01*
X162524970Y-119045972D01*
X162526815Y-119046141D01*
X162532147Y-119046314D01*
X162540662Y-119046488D01*
X162552057Y-119046660D01*
X162566028Y-119046826D01*
X162582270Y-119046983D01*
X162600481Y-119047128D01*
X162620356Y-119047257D01*
X162641591Y-119047367D01*
X162657202Y-119047432D01*
X162789435Y-119047918D01*
X162781987Y-119089944D01*
X162774540Y-119131970D01*
X162767751Y-119133813D01*
X162762931Y-119135124D01*
X162755669Y-119137102D01*
X162747179Y-119139417D01*
X162742795Y-119140612D01*
X162703835Y-119150056D01*
X162663166Y-119157701D01*
X162621928Y-119163390D01*
X162581260Y-119166969D01*
X162542302Y-119168281D01*
X162540339Y-119168284D01*
X162502525Y-119168284D01*
X162501423Y-119173497D01*
X162500469Y-119178371D01*
X162498948Y-119186625D01*
X162496904Y-119197991D01*
X162494383Y-119212203D01*
X162491431Y-119228994D01*
X162488093Y-119248097D01*
X162484415Y-119269246D01*
X162480442Y-119292174D01*
X162476220Y-119316614D01*
X162471795Y-119342300D01*
X162467211Y-119368965D01*
X162462515Y-119396342D01*
X162457752Y-119424165D01*
X162452968Y-119452167D01*
X162448207Y-119480081D01*
X162443516Y-119507641D01*
X162438941Y-119534579D01*
X162434526Y-119560630D01*
X162430317Y-119585527D01*
X162426360Y-119609002D01*
X162422700Y-119630790D01*
X162419383Y-119650624D01*
X162416454Y-119668236D01*
X162413959Y-119683360D01*
X162411944Y-119695731D01*
X162410453Y-119705080D01*
X162409534Y-119711141D01*
X162409257Y-119713247D01*
X162407650Y-119739963D01*
X162408425Y-119765065D01*
X162411502Y-119788310D01*
X162416805Y-119809458D01*
X162424255Y-119828265D01*
X162433774Y-119844492D01*
X162445284Y-119857896D01*
X162458706Y-119868236D01*
X162459600Y-119868771D01*
X162463695Y-119871082D01*
X162467734Y-119873044D01*
X162472060Y-119874687D01*
X162477016Y-119876045D01*
X162482946Y-119877149D01*
X162490191Y-119878031D01*
X162499096Y-119878723D01*
X162510004Y-119879257D01*
X162523258Y-119879664D01*
X162539200Y-119879977D01*
X162558175Y-119880227D01*
X162580524Y-119880446D01*
X162585729Y-119880492D01*
X162679660Y-119881303D01*
X162673450Y-119916609D01*
X162671459Y-119927805D01*
X162669647Y-119937761D01*
X162668130Y-119945857D01*
X162667024Y-119951470D01*
X162666447Y-119953982D01*
X162666442Y-119953995D01*
X162664325Y-119955424D01*
X162659185Y-119957559D01*
X162651681Y-119960197D01*
X162642472Y-119963136D01*
X162632214Y-119966173D01*
X162621566Y-119969105D01*
X162611187Y-119971729D01*
X162602686Y-119973645D01*
X162566034Y-119980635D01*
X162530862Y-119986022D01*
X162497541Y-119989773D01*
X162466443Y-119991855D01*
X162437940Y-119992233D01*
X162412404Y-119990875D01*
X162411571Y-119990796D01*
X162382001Y-119986812D01*
X162355550Y-119980845D01*
X162332075Y-119972842D01*
X162311432Y-119962748D01*
X162293476Y-119950510D01*
X162286044Y-119944113D01*
X162276942Y-119935032D01*
X162269556Y-119925957D01*
X162262956Y-119915615D01*
X162257047Y-119904429D01*
X162248278Y-119883745D01*
X162241630Y-119861224D01*
X162237082Y-119836638D01*
X162234613Y-119809758D01*
X162234204Y-119780356D01*
X162235834Y-119748204D01*
X162239483Y-119713073D01*
X162239798Y-119710610D01*
X162240466Y-119706090D01*
X162241745Y-119698074D01*
X162243593Y-119686799D01*
X162245971Y-119672506D01*
X162248838Y-119655431D01*
X162252154Y-119635814D01*
X162255877Y-119613893D01*
X162259968Y-119589906D01*
X162264385Y-119564092D01*
X162269089Y-119536690D01*
X162274039Y-119507937D01*
X162279193Y-119478072D01*
X162284512Y-119447334D01*
X162287139Y-119432187D01*
X162292461Y-119401486D01*
X162297601Y-119371781D01*
X162302522Y-119343289D01*
X162307187Y-119316228D01*
X162311559Y-119290815D01*
X162315601Y-119267267D01*
X162319275Y-119245803D01*
X162322544Y-119226639D01*
X162325370Y-119209993D01*
X162327718Y-119196084D01*
X162329549Y-119185127D01*
X162330827Y-119177342D01*
X162331514Y-119172945D01*
X162331627Y-119172026D01*
X162331506Y-119170957D01*
X162330876Y-119170113D01*
X162329335Y-119169468D01*
X162326482Y-119168996D01*
X162321914Y-119168670D01*
X162315230Y-119168462D01*
X162306028Y-119168346D01*
X162293907Y-119168296D01*
X162278465Y-119168284D01*
X162219349Y-119168284D01*
X162220348Y-119163071D01*
X162220936Y-119159921D01*
X162222108Y-119153557D01*
X162223771Y-119144499D01*
X162225830Y-119133262D01*
X162228190Y-119120363D01*
X162230756Y-119106320D01*
X162231469Y-119102415D01*
X162241589Y-119046971D01*
X162298485Y-119046971D01*
X162355380Y-119046970D01*
X162375224Y-118933239D01*
X162395067Y-118819508D01*
X162564848Y-118819508D01*
X162563834Y-118823773D01*
G36*
X163327524Y-119010320D02*
X163346762Y-119010863D01*
X163364461Y-119011708D01*
X163379861Y-119012855D01*
X163386485Y-119013544D01*
X163416211Y-119017623D01*
X163446505Y-119022905D01*
X163476652Y-119029213D01*
X163505936Y-119036371D01*
X163533641Y-119044203D01*
X163559053Y-119052532D01*
X163581455Y-119061184D01*
X163583296Y-119061971D01*
X163588622Y-119064470D01*
X163591161Y-119066532D01*
X163591684Y-119069034D01*
X163591345Y-119071136D01*
X163590922Y-119073456D01*
X163589875Y-119079347D01*
X163588234Y-119088642D01*
X163586027Y-119101179D01*
X163583283Y-119116792D01*
X163580030Y-119135316D01*
X163576299Y-119156588D01*
X163572116Y-119180442D01*
X163567513Y-119206714D01*
X163562516Y-119235239D01*
X163557155Y-119265853D01*
X163551460Y-119298391D01*
X163545458Y-119332689D01*
X163539178Y-119368582D01*
X163532650Y-119405906D01*
X163525902Y-119444495D01*
X163518963Y-119484186D01*
X163512554Y-119520851D01*
X163505470Y-119561382D01*
X163498551Y-119600953D01*
X163491826Y-119639400D01*
X163485325Y-119676559D01*
X163479075Y-119712266D01*
X163473107Y-119746356D01*
X163467447Y-119778666D01*
X163462127Y-119809032D01*
X163457173Y-119837289D01*
X163452615Y-119863273D01*
X163448482Y-119886821D01*
X163444802Y-119907767D01*
X163441604Y-119925949D01*
X163438917Y-119941201D01*
X163436770Y-119953360D01*
X163435192Y-119962262D01*
X163434210Y-119967742D01*
X163433861Y-119969616D01*
X163432853Y-119973881D01*
X163292656Y-119973881D01*
X163292656Y-119917015D01*
X163287833Y-119917015D01*
X163283979Y-119918190D01*
X163277749Y-119921517D01*
X163269661Y-119926702D01*
X163264612Y-119930235D01*
X163235103Y-119949134D01*
X163203905Y-119964685D01*
X163171186Y-119976845D01*
X163137118Y-119985570D01*
X163101869Y-119990818D01*
X163065608Y-119992544D01*
X163028740Y-119990727D01*
X163000315Y-119986786D01*
X162973795Y-119980689D01*
X162949529Y-119972561D01*
X162927864Y-119962527D01*
X162909149Y-119950711D01*
X162902806Y-119945715D01*
X162886592Y-119930369D01*
X162872427Y-119913176D01*
X162860202Y-119893887D01*
X162849811Y-119872251D01*
X162841147Y-119848016D01*
X162834102Y-119820932D01*
X162828570Y-119790748D01*
X162825117Y-119763791D01*
X162823242Y-119737692D01*
X162822822Y-119708380D01*
X162823050Y-119701057D01*
X162995043Y-119701057D01*
X162996883Y-119731671D01*
X163000590Y-119759340D01*
X163006160Y-119783959D01*
X163013589Y-119805426D01*
X163018270Y-119815476D01*
X163026366Y-119828602D01*
X163036563Y-119841160D01*
X163047986Y-119852238D01*
X163059756Y-119860924D01*
X163064556Y-119863621D01*
X163082404Y-119870846D01*
X163102856Y-119875983D01*
X163125309Y-119878964D01*
X163149160Y-119879721D01*
X163173807Y-119878188D01*
X163183664Y-119876931D01*
X163213173Y-119870945D01*
X163242912Y-119861705D01*
X163268217Y-119851239D01*
X163286426Y-119842774D01*
X163292499Y-119808339D01*
X163293484Y-119802758D01*
X163295089Y-119793661D01*
X163297277Y-119781265D01*
X163300008Y-119765787D01*
X163303246Y-119747444D01*
X163306951Y-119726453D01*
X163311086Y-119703031D01*
X163315611Y-119677394D01*
X163320489Y-119649761D01*
X163325681Y-119620348D01*
X163331149Y-119589373D01*
X163336855Y-119557051D01*
X163342760Y-119523601D01*
X163348826Y-119489239D01*
X163355014Y-119454183D01*
X163355961Y-119448821D01*
X163362056Y-119414263D01*
X163367963Y-119380709D01*
X163373648Y-119348350D01*
X163379080Y-119317376D01*
X163384224Y-119287978D01*
X163389047Y-119260347D01*
X163393517Y-119234672D01*
X163397601Y-119211144D01*
X163401265Y-119189954D01*
X163404477Y-119171291D01*
X163407203Y-119155347D01*
X163409411Y-119142312D01*
X163411067Y-119132377D01*
X163412138Y-119125731D01*
X163412591Y-119122565D01*
X163412600Y-119122317D01*
X163410546Y-119121901D01*
X163405193Y-119121561D01*
X163397031Y-119121296D01*
X163386552Y-119121105D01*
X163374245Y-119120986D01*
X163360601Y-119120937D01*
X163346112Y-119120957D01*
X163331268Y-119121043D01*
X163316559Y-119121195D01*
X163302477Y-119121409D01*
X163289513Y-119121685D01*
X163278156Y-119122022D01*
X163268899Y-119122416D01*
X163262511Y-119122841D01*
X163236760Y-119126282D01*
X163213686Y-119131946D01*
X163192724Y-119140086D01*
X163173312Y-119150958D01*
X163154885Y-119164815D01*
X163140996Y-119177698D01*
X163132481Y-119186759D01*
X163123690Y-119196997D01*
X163115744Y-119207066D01*
X163110960Y-119213776D01*
X163104660Y-119223922D01*
X163097416Y-119236736D01*
X163089661Y-119251351D01*
X163081827Y-119266902D01*
X163074345Y-119282524D01*
X163067647Y-119297351D01*
X163062165Y-119310517D01*
X163060424Y-119315084D01*
X163051551Y-119341288D01*
X163042874Y-119371147D01*
X163034424Y-119404529D01*
X163026232Y-119441301D01*
X163018326Y-119481332D01*
X163010738Y-119524489D01*
X163006451Y-119551179D01*
X163000774Y-119592556D01*
X162996984Y-119631397D01*
X162995075Y-119667598D01*
X162995043Y-119701057D01*
X162823050Y-119701057D01*
X162823827Y-119676128D01*
X162826230Y-119641214D01*
X162829999Y-119603911D01*
X162835106Y-119564494D01*
X162841523Y-119523238D01*
X162849218Y-119480419D01*
X162858164Y-119436311D01*
X162861637Y-119420388D01*
X162873713Y-119370613D01*
X162887050Y-119324391D01*
X162901661Y-119281697D01*
X162917558Y-119242506D01*
X162934754Y-119206791D01*
X162953260Y-119174528D01*
X162973089Y-119145691D01*
X162994254Y-119120253D01*
X163016361Y-119098546D01*
X163039202Y-119080023D01*
X163063095Y-119063959D01*
X163088430Y-119050194D01*
X163115599Y-119038564D01*
X163144992Y-119028910D01*
X163176999Y-119021069D01*
X163212011Y-119014880D01*
X163222323Y-119013432D01*
X163234841Y-119012153D01*
X163250378Y-119011178D01*
X163268175Y-119010508D01*
X163287471Y-119010142D01*
X163307507Y-119010079D01*
X163327524Y-119010320D01*
X163327524Y-119010320D01*
G37*
X163327524Y-119010320D02*
X163346762Y-119010863D01*
X163364461Y-119011708D01*
X163379861Y-119012855D01*
X163386485Y-119013544D01*
X163416211Y-119017623D01*
X163446505Y-119022905D01*
X163476652Y-119029213D01*
X163505936Y-119036371D01*
X163533641Y-119044203D01*
X163559053Y-119052532D01*
X163581455Y-119061184D01*
X163583296Y-119061971D01*
X163588622Y-119064470D01*
X163591161Y-119066532D01*
X163591684Y-119069034D01*
X163591345Y-119071136D01*
X163590922Y-119073456D01*
X163589875Y-119079347D01*
X163588234Y-119088642D01*
X163586027Y-119101179D01*
X163583283Y-119116792D01*
X163580030Y-119135316D01*
X163576299Y-119156588D01*
X163572116Y-119180442D01*
X163567513Y-119206714D01*
X163562516Y-119235239D01*
X163557155Y-119265853D01*
X163551460Y-119298391D01*
X163545458Y-119332689D01*
X163539178Y-119368582D01*
X163532650Y-119405906D01*
X163525902Y-119444495D01*
X163518963Y-119484186D01*
X163512554Y-119520851D01*
X163505470Y-119561382D01*
X163498551Y-119600953D01*
X163491826Y-119639400D01*
X163485325Y-119676559D01*
X163479075Y-119712266D01*
X163473107Y-119746356D01*
X163467447Y-119778666D01*
X163462127Y-119809032D01*
X163457173Y-119837289D01*
X163452615Y-119863273D01*
X163448482Y-119886821D01*
X163444802Y-119907767D01*
X163441604Y-119925949D01*
X163438917Y-119941201D01*
X163436770Y-119953360D01*
X163435192Y-119962262D01*
X163434210Y-119967742D01*
X163433861Y-119969616D01*
X163432853Y-119973881D01*
X163292656Y-119973881D01*
X163292656Y-119917015D01*
X163287833Y-119917015D01*
X163283979Y-119918190D01*
X163277749Y-119921517D01*
X163269661Y-119926702D01*
X163264612Y-119930235D01*
X163235103Y-119949134D01*
X163203905Y-119964685D01*
X163171186Y-119976845D01*
X163137118Y-119985570D01*
X163101869Y-119990818D01*
X163065608Y-119992544D01*
X163028740Y-119990727D01*
X163000315Y-119986786D01*
X162973795Y-119980689D01*
X162949529Y-119972561D01*
X162927864Y-119962527D01*
X162909149Y-119950711D01*
X162902806Y-119945715D01*
X162886592Y-119930369D01*
X162872427Y-119913176D01*
X162860202Y-119893887D01*
X162849811Y-119872251D01*
X162841147Y-119848016D01*
X162834102Y-119820932D01*
X162828570Y-119790748D01*
X162825117Y-119763791D01*
X162823242Y-119737692D01*
X162822822Y-119708380D01*
X162823050Y-119701057D01*
X162995043Y-119701057D01*
X162996883Y-119731671D01*
X163000590Y-119759340D01*
X163006160Y-119783959D01*
X163013589Y-119805426D01*
X163018270Y-119815476D01*
X163026366Y-119828602D01*
X163036563Y-119841160D01*
X163047986Y-119852238D01*
X163059756Y-119860924D01*
X163064556Y-119863621D01*
X163082404Y-119870846D01*
X163102856Y-119875983D01*
X163125309Y-119878964D01*
X163149160Y-119879721D01*
X163173807Y-119878188D01*
X163183664Y-119876931D01*
X163213173Y-119870945D01*
X163242912Y-119861705D01*
X163268217Y-119851239D01*
X163286426Y-119842774D01*
X163292499Y-119808339D01*
X163293484Y-119802758D01*
X163295089Y-119793661D01*
X163297277Y-119781265D01*
X163300008Y-119765787D01*
X163303246Y-119747444D01*
X163306951Y-119726453D01*
X163311086Y-119703031D01*
X163315611Y-119677394D01*
X163320489Y-119649761D01*
X163325681Y-119620348D01*
X163331149Y-119589373D01*
X163336855Y-119557051D01*
X163342760Y-119523601D01*
X163348826Y-119489239D01*
X163355014Y-119454183D01*
X163355961Y-119448821D01*
X163362056Y-119414263D01*
X163367963Y-119380709D01*
X163373648Y-119348350D01*
X163379080Y-119317376D01*
X163384224Y-119287978D01*
X163389047Y-119260347D01*
X163393517Y-119234672D01*
X163397601Y-119211144D01*
X163401265Y-119189954D01*
X163404477Y-119171291D01*
X163407203Y-119155347D01*
X163409411Y-119142312D01*
X163411067Y-119132377D01*
X163412138Y-119125731D01*
X163412591Y-119122565D01*
X163412600Y-119122317D01*
X163410546Y-119121901D01*
X163405193Y-119121561D01*
X163397031Y-119121296D01*
X163386552Y-119121105D01*
X163374245Y-119120986D01*
X163360601Y-119120937D01*
X163346112Y-119120957D01*
X163331268Y-119121043D01*
X163316559Y-119121195D01*
X163302477Y-119121409D01*
X163289513Y-119121685D01*
X163278156Y-119122022D01*
X163268899Y-119122416D01*
X163262511Y-119122841D01*
X163236760Y-119126282D01*
X163213686Y-119131946D01*
X163192724Y-119140086D01*
X163173312Y-119150958D01*
X163154885Y-119164815D01*
X163140996Y-119177698D01*
X163132481Y-119186759D01*
X163123690Y-119196997D01*
X163115744Y-119207066D01*
X163110960Y-119213776D01*
X163104660Y-119223922D01*
X163097416Y-119236736D01*
X163089661Y-119251351D01*
X163081827Y-119266902D01*
X163074345Y-119282524D01*
X163067647Y-119297351D01*
X163062165Y-119310517D01*
X163060424Y-119315084D01*
X163051551Y-119341288D01*
X163042874Y-119371147D01*
X163034424Y-119404529D01*
X163026232Y-119441301D01*
X163018326Y-119481332D01*
X163010738Y-119524489D01*
X163006451Y-119551179D01*
X163000774Y-119592556D01*
X162996984Y-119631397D01*
X162995075Y-119667598D01*
X162995043Y-119701057D01*
X162823050Y-119701057D01*
X162823827Y-119676128D01*
X162826230Y-119641214D01*
X162829999Y-119603911D01*
X162835106Y-119564494D01*
X162841523Y-119523238D01*
X162849218Y-119480419D01*
X162858164Y-119436311D01*
X162861637Y-119420388D01*
X162873713Y-119370613D01*
X162887050Y-119324391D01*
X162901661Y-119281697D01*
X162917558Y-119242506D01*
X162934754Y-119206791D01*
X162953260Y-119174528D01*
X162973089Y-119145691D01*
X162994254Y-119120253D01*
X163016361Y-119098546D01*
X163039202Y-119080023D01*
X163063095Y-119063959D01*
X163088430Y-119050194D01*
X163115599Y-119038564D01*
X163144992Y-119028910D01*
X163176999Y-119021069D01*
X163212011Y-119014880D01*
X163222323Y-119013432D01*
X163234841Y-119012153D01*
X163250378Y-119011178D01*
X163268175Y-119010508D01*
X163287471Y-119010142D01*
X163307507Y-119010079D01*
X163327524Y-119010320D01*
G36*
X164171984Y-119010278D02*
X164189647Y-119010658D01*
X164206186Y-119011308D01*
X164220784Y-119012223D01*
X164232625Y-119013397D01*
X164233260Y-119013480D01*
X164252477Y-119016260D01*
X164272783Y-119019617D01*
X164292970Y-119023330D01*
X164311829Y-119027175D01*
X164328153Y-119030930D01*
X164328559Y-119031031D01*
X164338916Y-119033732D01*
X164349420Y-119036679D01*
X164359359Y-119039650D01*
X164368024Y-119042422D01*
X164374706Y-119044774D01*
X164378695Y-119046484D01*
X164379354Y-119046916D01*
X164379515Y-119049124D01*
X164379073Y-119054468D01*
X164378101Y-119062352D01*
X164376673Y-119072182D01*
X164374864Y-119083364D01*
X164374655Y-119084591D01*
X164368445Y-119120896D01*
X164276473Y-119120912D01*
X164257077Y-119120955D01*
X164237961Y-119121072D01*
X164219637Y-119121253D01*
X164202619Y-119121492D01*
X164187421Y-119121779D01*
X164174557Y-119122107D01*
X164164540Y-119122468D01*
X164158716Y-119122788D01*
X164128980Y-119126362D01*
X164101756Y-119132677D01*
X164076824Y-119141852D01*
X164053963Y-119154002D01*
X164032952Y-119169242D01*
X164013570Y-119187689D01*
X163996844Y-119207782D01*
X163983160Y-119227428D01*
X163970449Y-119248691D01*
X163958631Y-119271807D01*
X163947624Y-119297010D01*
X163937350Y-119324538D01*
X163927728Y-119354624D01*
X163918677Y-119387506D01*
X163910119Y-119423418D01*
X163901972Y-119462596D01*
X163894157Y-119505276D01*
X163892650Y-119514111D01*
X163887885Y-119543151D01*
X163883944Y-119569001D01*
X163880779Y-119592161D01*
X163878341Y-119613132D01*
X163876582Y-119632413D01*
X163875455Y-119650505D01*
X163874912Y-119667907D01*
X163874904Y-119685120D01*
X163875155Y-119696187D01*
X163876756Y-119724275D01*
X163879779Y-119749123D01*
X163884319Y-119771041D01*
X163890469Y-119790342D01*
X163898325Y-119807337D01*
X163907980Y-119822335D01*
X163916601Y-119832612D01*
X163928915Y-119844596D01*
X163941481Y-119854150D01*
X163955124Y-119861711D01*
X163970669Y-119867721D01*
X163988942Y-119872617D01*
X163993755Y-119873660D01*
X164002162Y-119875214D01*
X164011612Y-119876549D01*
X164022413Y-119877679D01*
X164034871Y-119878616D01*
X164049291Y-119879374D01*
X164065980Y-119879967D01*
X164085243Y-119880408D01*
X164107388Y-119880710D01*
X164132719Y-119880886D01*
X164160569Y-119880951D01*
X164252265Y-119881000D01*
X164251279Y-119886213D01*
X164250640Y-119889788D01*
X164249500Y-119896353D01*
X164247988Y-119905162D01*
X164246231Y-119915466D01*
X164244927Y-119923164D01*
X164239559Y-119954902D01*
X164228141Y-119958672D01*
X164214606Y-119962720D01*
X164198051Y-119966989D01*
X164179229Y-119971328D01*
X164158895Y-119975583D01*
X164137800Y-119979602D01*
X164116699Y-119983233D01*
X164096344Y-119986324D01*
X164082142Y-119988182D01*
X164073145Y-119989051D01*
X164061470Y-119989860D01*
X164047880Y-119990588D01*
X164033135Y-119991210D01*
X164017999Y-119991703D01*
X164003231Y-119992045D01*
X163989595Y-119992212D01*
X163977852Y-119992181D01*
X163968764Y-119991930D01*
X163965567Y-119991723D01*
X163934737Y-119988664D01*
X163907288Y-119984937D01*
X163882847Y-119980417D01*
X163861042Y-119974975D01*
X163841500Y-119968486D01*
X163823851Y-119960822D01*
X163807721Y-119951857D01*
X163792738Y-119941463D01*
X163778530Y-119929514D01*
X163775905Y-119927074D01*
X163760309Y-119910525D01*
X163746846Y-119892192D01*
X163735372Y-119871756D01*
X163725740Y-119848897D01*
X163717807Y-119823293D01*
X163711428Y-119794625D01*
X163708713Y-119778642D01*
X163707003Y-119764487D01*
X163705709Y-119747396D01*
X163704844Y-119728204D01*
X163704419Y-119707745D01*
X163704447Y-119686852D01*
X163704940Y-119666361D01*
X163705911Y-119647105D01*
X163706645Y-119637426D01*
X163710138Y-119603396D01*
X163714890Y-119566786D01*
X163720737Y-119528528D01*
X163727516Y-119489556D01*
X163735061Y-119450801D01*
X163743211Y-119413198D01*
X163751800Y-119377680D01*
X163753256Y-119372053D01*
X163766860Y-119324570D01*
X163781938Y-119280573D01*
X163798494Y-119240053D01*
X163816534Y-119203000D01*
X163836066Y-119169404D01*
X163857094Y-119139257D01*
X163879624Y-119112548D01*
X163903662Y-119089269D01*
X163929214Y-119069408D01*
X163946605Y-119058347D01*
X163969025Y-119046800D01*
X163994527Y-119036439D01*
X164022541Y-119027440D01*
X164052494Y-119019979D01*
X164083816Y-119014231D01*
X164095410Y-119012603D01*
X164106435Y-119011557D01*
X164120423Y-119010807D01*
X164136554Y-119010347D01*
X164154014Y-119010172D01*
X164171984Y-119010278D01*
X164171984Y-119010278D01*
G37*
X164171984Y-119010278D02*
X164189647Y-119010658D01*
X164206186Y-119011308D01*
X164220784Y-119012223D01*
X164232625Y-119013397D01*
X164233260Y-119013480D01*
X164252477Y-119016260D01*
X164272783Y-119019617D01*
X164292970Y-119023330D01*
X164311829Y-119027175D01*
X164328153Y-119030930D01*
X164328559Y-119031031D01*
X164338916Y-119033732D01*
X164349420Y-119036679D01*
X164359359Y-119039650D01*
X164368024Y-119042422D01*
X164374706Y-119044774D01*
X164378695Y-119046484D01*
X164379354Y-119046916D01*
X164379515Y-119049124D01*
X164379073Y-119054468D01*
X164378101Y-119062352D01*
X164376673Y-119072182D01*
X164374864Y-119083364D01*
X164374655Y-119084591D01*
X164368445Y-119120896D01*
X164276473Y-119120912D01*
X164257077Y-119120955D01*
X164237961Y-119121072D01*
X164219637Y-119121253D01*
X164202619Y-119121492D01*
X164187421Y-119121779D01*
X164174557Y-119122107D01*
X164164540Y-119122468D01*
X164158716Y-119122788D01*
X164128980Y-119126362D01*
X164101756Y-119132677D01*
X164076824Y-119141852D01*
X164053963Y-119154002D01*
X164032952Y-119169242D01*
X164013570Y-119187689D01*
X163996844Y-119207782D01*
X163983160Y-119227428D01*
X163970449Y-119248691D01*
X163958631Y-119271807D01*
X163947624Y-119297010D01*
X163937350Y-119324538D01*
X163927728Y-119354624D01*
X163918677Y-119387506D01*
X163910119Y-119423418D01*
X163901972Y-119462596D01*
X163894157Y-119505276D01*
X163892650Y-119514111D01*
X163887885Y-119543151D01*
X163883944Y-119569001D01*
X163880779Y-119592161D01*
X163878341Y-119613132D01*
X163876582Y-119632413D01*
X163875455Y-119650505D01*
X163874912Y-119667907D01*
X163874904Y-119685120D01*
X163875155Y-119696187D01*
X163876756Y-119724275D01*
X163879779Y-119749123D01*
X163884319Y-119771041D01*
X163890469Y-119790342D01*
X163898325Y-119807337D01*
X163907980Y-119822335D01*
X163916601Y-119832612D01*
X163928915Y-119844596D01*
X163941481Y-119854150D01*
X163955124Y-119861711D01*
X163970669Y-119867721D01*
X163988942Y-119872617D01*
X163993755Y-119873660D01*
X164002162Y-119875214D01*
X164011612Y-119876549D01*
X164022413Y-119877679D01*
X164034871Y-119878616D01*
X164049291Y-119879374D01*
X164065980Y-119879967D01*
X164085243Y-119880408D01*
X164107388Y-119880710D01*
X164132719Y-119880886D01*
X164160569Y-119880951D01*
X164252265Y-119881000D01*
X164251279Y-119886213D01*
X164250640Y-119889788D01*
X164249500Y-119896353D01*
X164247988Y-119905162D01*
X164246231Y-119915466D01*
X164244927Y-119923164D01*
X164239559Y-119954902D01*
X164228141Y-119958672D01*
X164214606Y-119962720D01*
X164198051Y-119966989D01*
X164179229Y-119971328D01*
X164158895Y-119975583D01*
X164137800Y-119979602D01*
X164116699Y-119983233D01*
X164096344Y-119986324D01*
X164082142Y-119988182D01*
X164073145Y-119989051D01*
X164061470Y-119989860D01*
X164047880Y-119990588D01*
X164033135Y-119991210D01*
X164017999Y-119991703D01*
X164003231Y-119992045D01*
X163989595Y-119992212D01*
X163977852Y-119992181D01*
X163968764Y-119991930D01*
X163965567Y-119991723D01*
X163934737Y-119988664D01*
X163907288Y-119984937D01*
X163882847Y-119980417D01*
X163861042Y-119974975D01*
X163841500Y-119968486D01*
X163823851Y-119960822D01*
X163807721Y-119951857D01*
X163792738Y-119941463D01*
X163778530Y-119929514D01*
X163775905Y-119927074D01*
X163760309Y-119910525D01*
X163746846Y-119892192D01*
X163735372Y-119871756D01*
X163725740Y-119848897D01*
X163717807Y-119823293D01*
X163711428Y-119794625D01*
X163708713Y-119778642D01*
X163707003Y-119764487D01*
X163705709Y-119747396D01*
X163704844Y-119728204D01*
X163704419Y-119707745D01*
X163704447Y-119686852D01*
X163704940Y-119666361D01*
X163705911Y-119647105D01*
X163706645Y-119637426D01*
X163710138Y-119603396D01*
X163714890Y-119566786D01*
X163720737Y-119528528D01*
X163727516Y-119489556D01*
X163735061Y-119450801D01*
X163743211Y-119413198D01*
X163751800Y-119377680D01*
X163753256Y-119372053D01*
X163766860Y-119324570D01*
X163781938Y-119280573D01*
X163798494Y-119240053D01*
X163816534Y-119203000D01*
X163836066Y-119169404D01*
X163857094Y-119139257D01*
X163879624Y-119112548D01*
X163903662Y-119089269D01*
X163929214Y-119069408D01*
X163946605Y-119058347D01*
X163969025Y-119046800D01*
X163994527Y-119036439D01*
X164022541Y-119027440D01*
X164052494Y-119019979D01*
X164083816Y-119014231D01*
X164095410Y-119012603D01*
X164106435Y-119011557D01*
X164120423Y-119010807D01*
X164136554Y-119010347D01*
X164154014Y-119010172D01*
X164171984Y-119010278D01*
G36*
X158075429Y-118654123D02*
X158074857Y-118657264D01*
X158073747Y-118663632D01*
X158072186Y-118672718D01*
X158070262Y-118684010D01*
X158068061Y-118696997D01*
X158065671Y-118711169D01*
X158064825Y-118716202D01*
X158062398Y-118730605D01*
X158060134Y-118743947D01*
X158058121Y-118755729D01*
X158056444Y-118765451D01*
X158055190Y-118772611D01*
X158054443Y-118776709D01*
X158054316Y-118777332D01*
X158053360Y-118781597D01*
X157580337Y-118781597D01*
X157539145Y-119011429D01*
X157533950Y-119040435D01*
X157528945Y-119068420D01*
X157524171Y-119095156D01*
X157519668Y-119120415D01*
X157515476Y-119143969D01*
X157511636Y-119165590D01*
X157508189Y-119185049D01*
X157505174Y-119202119D01*
X157502632Y-119216571D01*
X157500604Y-119228178D01*
X157499129Y-119236710D01*
X157498249Y-119241940D01*
X157497999Y-119243631D01*
X157498703Y-119244024D01*
X157500922Y-119244375D01*
X157504836Y-119244684D01*
X157510627Y-119244954D01*
X157518475Y-119245188D01*
X157528563Y-119245387D01*
X157541070Y-119245554D01*
X157556179Y-119245691D01*
X157574070Y-119245800D01*
X157594926Y-119245883D01*
X157618926Y-119245942D01*
X157646252Y-119245979D01*
X157677086Y-119245998D01*
X157696127Y-119246000D01*
X157729011Y-119246009D01*
X157758286Y-119246035D01*
X157784132Y-119246082D01*
X157806730Y-119246151D01*
X157826263Y-119246244D01*
X157842910Y-119246364D01*
X157856853Y-119246514D01*
X157868274Y-119246694D01*
X157877354Y-119246908D01*
X157884273Y-119247156D01*
X157889214Y-119247443D01*
X157892356Y-119247769D01*
X157893883Y-119248137D01*
X157894098Y-119248370D01*
X157893758Y-119250745D01*
X157892841Y-119256401D01*
X157891424Y-119264883D01*
X157889586Y-119275738D01*
X157887401Y-119288511D01*
X157884948Y-119302748D01*
X157883120Y-119313291D01*
X157872252Y-119375844D01*
X157673333Y-119376791D01*
X157474414Y-119377739D01*
X157434219Y-119608045D01*
X157428887Y-119638597D01*
X157423561Y-119669115D01*
X157418297Y-119699275D01*
X157413151Y-119728756D01*
X157408181Y-119757235D01*
X157403441Y-119784390D01*
X157398989Y-119809897D01*
X157394881Y-119833436D01*
X157391172Y-119854682D01*
X157387920Y-119873314D01*
X157385180Y-119889010D01*
X157383009Y-119901447D01*
X157382194Y-119906116D01*
X157370364Y-119973881D01*
X157200903Y-119973881D01*
X157203444Y-119960138D01*
X157203962Y-119957241D01*
X157205111Y-119950748D01*
X157206866Y-119940797D01*
X157209203Y-119927529D01*
X157212098Y-119911080D01*
X157215526Y-119891589D01*
X157219463Y-119869196D01*
X157223885Y-119844038D01*
X157228767Y-119816254D01*
X157234085Y-119785982D01*
X157239815Y-119753361D01*
X157245932Y-119718530D01*
X157252412Y-119681626D01*
X157259231Y-119642789D01*
X157266364Y-119602157D01*
X157273788Y-119559868D01*
X157281477Y-119516061D01*
X157289407Y-119470874D01*
X157297555Y-119424447D01*
X157305895Y-119376916D01*
X157314404Y-119328422D01*
X157318887Y-119302866D01*
X157327457Y-119254021D01*
X157335864Y-119206113D01*
X157344082Y-119159278D01*
X157352090Y-119113652D01*
X157359862Y-119069372D01*
X157367375Y-119026573D01*
X157374604Y-118985392D01*
X157381527Y-118945964D01*
X157388118Y-118908427D01*
X157394355Y-118872915D01*
X157400213Y-118839564D01*
X157405668Y-118808512D01*
X157410697Y-118779894D01*
X157415275Y-118753846D01*
X157419379Y-118730505D01*
X157422984Y-118710006D01*
X157426068Y-118692485D01*
X157428605Y-118678079D01*
X157430572Y-118666923D01*
X157431945Y-118659154D01*
X157432701Y-118654908D01*
X157432844Y-118654123D01*
X157433898Y-118648911D01*
X158076480Y-118648911D01*
X158075429Y-118654123D01*
X158075429Y-118654123D01*
G37*
X158075429Y-118654123D02*
X158074857Y-118657264D01*
X158073747Y-118663632D01*
X158072186Y-118672718D01*
X158070262Y-118684010D01*
X158068061Y-118696997D01*
X158065671Y-118711169D01*
X158064825Y-118716202D01*
X158062398Y-118730605D01*
X158060134Y-118743947D01*
X158058121Y-118755729D01*
X158056444Y-118765451D01*
X158055190Y-118772611D01*
X158054443Y-118776709D01*
X158054316Y-118777332D01*
X158053360Y-118781597D01*
X157580337Y-118781597D01*
X157539145Y-119011429D01*
X157533950Y-119040435D01*
X157528945Y-119068420D01*
X157524171Y-119095156D01*
X157519668Y-119120415D01*
X157515476Y-119143969D01*
X157511636Y-119165590D01*
X157508189Y-119185049D01*
X157505174Y-119202119D01*
X157502632Y-119216571D01*
X157500604Y-119228178D01*
X157499129Y-119236710D01*
X157498249Y-119241940D01*
X157497999Y-119243631D01*
X157498703Y-119244024D01*
X157500922Y-119244375D01*
X157504836Y-119244684D01*
X157510627Y-119244954D01*
X157518475Y-119245188D01*
X157528563Y-119245387D01*
X157541070Y-119245554D01*
X157556179Y-119245691D01*
X157574070Y-119245800D01*
X157594926Y-119245883D01*
X157618926Y-119245942D01*
X157646252Y-119245979D01*
X157677086Y-119245998D01*
X157696127Y-119246000D01*
X157729011Y-119246009D01*
X157758286Y-119246035D01*
X157784132Y-119246082D01*
X157806730Y-119246151D01*
X157826263Y-119246244D01*
X157842910Y-119246364D01*
X157856853Y-119246514D01*
X157868274Y-119246694D01*
X157877354Y-119246908D01*
X157884273Y-119247156D01*
X157889214Y-119247443D01*
X157892356Y-119247769D01*
X157893883Y-119248137D01*
X157894098Y-119248370D01*
X157893758Y-119250745D01*
X157892841Y-119256401D01*
X157891424Y-119264883D01*
X157889586Y-119275738D01*
X157887401Y-119288511D01*
X157884948Y-119302748D01*
X157883120Y-119313291D01*
X157872252Y-119375844D01*
X157673333Y-119376791D01*
X157474414Y-119377739D01*
X157434219Y-119608045D01*
X157428887Y-119638597D01*
X157423561Y-119669115D01*
X157418297Y-119699275D01*
X157413151Y-119728756D01*
X157408181Y-119757235D01*
X157403441Y-119784390D01*
X157398989Y-119809897D01*
X157394881Y-119833436D01*
X157391172Y-119854682D01*
X157387920Y-119873314D01*
X157385180Y-119889010D01*
X157383009Y-119901447D01*
X157382194Y-119906116D01*
X157370364Y-119973881D01*
X157200903Y-119973881D01*
X157203444Y-119960138D01*
X157203962Y-119957241D01*
X157205111Y-119950748D01*
X157206866Y-119940797D01*
X157209203Y-119927529D01*
X157212098Y-119911080D01*
X157215526Y-119891589D01*
X157219463Y-119869196D01*
X157223885Y-119844038D01*
X157228767Y-119816254D01*
X157234085Y-119785982D01*
X157239815Y-119753361D01*
X157245932Y-119718530D01*
X157252412Y-119681626D01*
X157259231Y-119642789D01*
X157266364Y-119602157D01*
X157273788Y-119559868D01*
X157281477Y-119516061D01*
X157289407Y-119470874D01*
X157297555Y-119424447D01*
X157305895Y-119376916D01*
X157314404Y-119328422D01*
X157318887Y-119302866D01*
X157327457Y-119254021D01*
X157335864Y-119206113D01*
X157344082Y-119159278D01*
X157352090Y-119113652D01*
X157359862Y-119069372D01*
X157367375Y-119026573D01*
X157374604Y-118985392D01*
X157381527Y-118945964D01*
X157388118Y-118908427D01*
X157394355Y-118872915D01*
X157400213Y-118839564D01*
X157405668Y-118808512D01*
X157410697Y-118779894D01*
X157415275Y-118753846D01*
X157419379Y-118730505D01*
X157422984Y-118710006D01*
X157426068Y-118692485D01*
X157428605Y-118678079D01*
X157430572Y-118666923D01*
X157431945Y-118659154D01*
X157432701Y-118654908D01*
X157432844Y-118654123D01*
X157433898Y-118648911D01*
X158076480Y-118648911D01*
X158075429Y-118654123D01*
G36*
X158351367Y-118648922D02*
X158368135Y-118648964D01*
X158381749Y-118649047D01*
X158392527Y-118649183D01*
X158400787Y-118649382D01*
X158406848Y-118649656D01*
X158411029Y-118650015D01*
X158413647Y-118650471D01*
X158415021Y-118651035D01*
X158415470Y-118651717D01*
X158415477Y-118651837D01*
X158415154Y-118653814D01*
X158414205Y-118659364D01*
X158412656Y-118668322D01*
X158410538Y-118680527D01*
X158407878Y-118695816D01*
X158404705Y-118714028D01*
X158401048Y-118734998D01*
X158396934Y-118758566D01*
X158392393Y-118784568D01*
X158387452Y-118812843D01*
X158382141Y-118843227D01*
X158376487Y-118875559D01*
X158370519Y-118909676D01*
X158364266Y-118945415D01*
X158357757Y-118982614D01*
X158351018Y-119021111D01*
X158344080Y-119060743D01*
X158336970Y-119101348D01*
X158329717Y-119142764D01*
X158322349Y-119184827D01*
X158314895Y-119227376D01*
X158307384Y-119270249D01*
X158299843Y-119313282D01*
X158292301Y-119356313D01*
X158284787Y-119399180D01*
X158277329Y-119441721D01*
X158269956Y-119483773D01*
X158262696Y-119525173D01*
X158255577Y-119565760D01*
X158248628Y-119605371D01*
X158241878Y-119643843D01*
X158235354Y-119681014D01*
X158229086Y-119716721D01*
X158223102Y-119750803D01*
X158217430Y-119783097D01*
X158212098Y-119813439D01*
X158207136Y-119841669D01*
X158202571Y-119867623D01*
X158198433Y-119891139D01*
X158194749Y-119912055D01*
X158191548Y-119930208D01*
X158188859Y-119945436D01*
X158186709Y-119957576D01*
X158185128Y-119966467D01*
X158184904Y-119967720D01*
X158183802Y-119973881D01*
X158099662Y-119973881D01*
X158079540Y-119973872D01*
X158062886Y-119973837D01*
X158049374Y-119973763D01*
X158038682Y-119973639D01*
X158030485Y-119973452D01*
X158024458Y-119973191D01*
X158020279Y-119972843D01*
X158017624Y-119972395D01*
X158016167Y-119971837D01*
X158015586Y-119971155D01*
X158015522Y-119970729D01*
X158015847Y-119968646D01*
X158016804Y-119962963D01*
X158018372Y-119953815D01*
X158020526Y-119941334D01*
X158023242Y-119925656D01*
X158026499Y-119906914D01*
X158030271Y-119885242D01*
X158034536Y-119860773D01*
X158039271Y-119833643D01*
X158044451Y-119803985D01*
X158050054Y-119771933D01*
X158056055Y-119737620D01*
X158062433Y-119701182D01*
X158069162Y-119662751D01*
X158076220Y-119622462D01*
X158083584Y-119580449D01*
X158091229Y-119536845D01*
X158099133Y-119491785D01*
X158107271Y-119445403D01*
X158115622Y-119397832D01*
X158124161Y-119349207D01*
X158131149Y-119309423D01*
X158139819Y-119260068D01*
X158148320Y-119211670D01*
X158156628Y-119164363D01*
X158164721Y-119118279D01*
X158172574Y-119073552D01*
X158180164Y-119030316D01*
X158187468Y-118988704D01*
X158194462Y-118948849D01*
X158201123Y-118910886D01*
X158207428Y-118874946D01*
X158213352Y-118841164D01*
X158218874Y-118809674D01*
X158223969Y-118780608D01*
X158228614Y-118754100D01*
X158232785Y-118730283D01*
X158236460Y-118709292D01*
X158239615Y-118691259D01*
X158242225Y-118676318D01*
X158244269Y-118664601D01*
X158245722Y-118656244D01*
X158246562Y-118651379D01*
X158246776Y-118650089D01*
X158248608Y-118649845D01*
X158253851Y-118649618D01*
X158262124Y-118649413D01*
X158273046Y-118649237D01*
X158286238Y-118649093D01*
X158301319Y-118648987D01*
X158317909Y-118648925D01*
X158331127Y-118648911D01*
X158351367Y-118648922D01*
X158351367Y-118648922D01*
G37*
X158351367Y-118648922D02*
X158368135Y-118648964D01*
X158381749Y-118649047D01*
X158392527Y-118649183D01*
X158400787Y-118649382D01*
X158406848Y-118649656D01*
X158411029Y-118650015D01*
X158413647Y-118650471D01*
X158415021Y-118651035D01*
X158415470Y-118651717D01*
X158415477Y-118651837D01*
X158415154Y-118653814D01*
X158414205Y-118659364D01*
X158412656Y-118668322D01*
X158410538Y-118680527D01*
X158407878Y-118695816D01*
X158404705Y-118714028D01*
X158401048Y-118734998D01*
X158396934Y-118758566D01*
X158392393Y-118784568D01*
X158387452Y-118812843D01*
X158382141Y-118843227D01*
X158376487Y-118875559D01*
X158370519Y-118909676D01*
X158364266Y-118945415D01*
X158357757Y-118982614D01*
X158351018Y-119021111D01*
X158344080Y-119060743D01*
X158336970Y-119101348D01*
X158329717Y-119142764D01*
X158322349Y-119184827D01*
X158314895Y-119227376D01*
X158307384Y-119270249D01*
X158299843Y-119313282D01*
X158292301Y-119356313D01*
X158284787Y-119399180D01*
X158277329Y-119441721D01*
X158269956Y-119483773D01*
X158262696Y-119525173D01*
X158255577Y-119565760D01*
X158248628Y-119605371D01*
X158241878Y-119643843D01*
X158235354Y-119681014D01*
X158229086Y-119716721D01*
X158223102Y-119750803D01*
X158217430Y-119783097D01*
X158212098Y-119813439D01*
X158207136Y-119841669D01*
X158202571Y-119867623D01*
X158198433Y-119891139D01*
X158194749Y-119912055D01*
X158191548Y-119930208D01*
X158188859Y-119945436D01*
X158186709Y-119957576D01*
X158185128Y-119966467D01*
X158184904Y-119967720D01*
X158183802Y-119973881D01*
X158099662Y-119973881D01*
X158079540Y-119973872D01*
X158062886Y-119973837D01*
X158049374Y-119973763D01*
X158038682Y-119973639D01*
X158030485Y-119973452D01*
X158024458Y-119973191D01*
X158020279Y-119972843D01*
X158017624Y-119972395D01*
X158016167Y-119971837D01*
X158015586Y-119971155D01*
X158015522Y-119970729D01*
X158015847Y-119968646D01*
X158016804Y-119962963D01*
X158018372Y-119953815D01*
X158020526Y-119941334D01*
X158023242Y-119925656D01*
X158026499Y-119906914D01*
X158030271Y-119885242D01*
X158034536Y-119860773D01*
X158039271Y-119833643D01*
X158044451Y-119803985D01*
X158050054Y-119771933D01*
X158056055Y-119737620D01*
X158062433Y-119701182D01*
X158069162Y-119662751D01*
X158076220Y-119622462D01*
X158083584Y-119580449D01*
X158091229Y-119536845D01*
X158099133Y-119491785D01*
X158107271Y-119445403D01*
X158115622Y-119397832D01*
X158124161Y-119349207D01*
X158131149Y-119309423D01*
X158139819Y-119260068D01*
X158148320Y-119211670D01*
X158156628Y-119164363D01*
X158164721Y-119118279D01*
X158172574Y-119073552D01*
X158180164Y-119030316D01*
X158187468Y-118988704D01*
X158194462Y-118948849D01*
X158201123Y-118910886D01*
X158207428Y-118874946D01*
X158213352Y-118841164D01*
X158218874Y-118809674D01*
X158223969Y-118780608D01*
X158228614Y-118754100D01*
X158232785Y-118730283D01*
X158236460Y-118709292D01*
X158239615Y-118691259D01*
X158242225Y-118676318D01*
X158244269Y-118664601D01*
X158245722Y-118656244D01*
X158246562Y-118651379D01*
X158246776Y-118650089D01*
X158248608Y-118649845D01*
X158253851Y-118649618D01*
X158262124Y-118649413D01*
X158273046Y-118649237D01*
X158286238Y-118649093D01*
X158301319Y-118648987D01*
X158317909Y-118648925D01*
X158331127Y-118648911D01*
X158351367Y-118648922D01*
G36*
X158657139Y-119028283D02*
X158672268Y-119028327D01*
X158688890Y-119028399D01*
X158701989Y-119028469D01*
X158786272Y-119028963D01*
X158703307Y-119500000D01*
X158695965Y-119541689D01*
X158688796Y-119582401D01*
X158681829Y-119621978D01*
X158675090Y-119660262D01*
X158668609Y-119697095D01*
X158662411Y-119732319D01*
X158656526Y-119765777D01*
X158650981Y-119797310D01*
X158645804Y-119826760D01*
X158641022Y-119853970D01*
X158636663Y-119878780D01*
X158632756Y-119901035D01*
X158629327Y-119920575D01*
X158626405Y-119937242D01*
X158624017Y-119950878D01*
X158622191Y-119961327D01*
X158620955Y-119968428D01*
X158620337Y-119972026D01*
X158620268Y-119972459D01*
X158618420Y-119972754D01*
X158613162Y-119973028D01*
X158604875Y-119973274D01*
X158593939Y-119973488D01*
X158580736Y-119973661D01*
X158565646Y-119973789D01*
X158549050Y-119973863D01*
X158535843Y-119973881D01*
X158514722Y-119973857D01*
X158497137Y-119973782D01*
X158482836Y-119973649D01*
X158471562Y-119973450D01*
X158463063Y-119973178D01*
X158457084Y-119972828D01*
X158453370Y-119972391D01*
X158451669Y-119971861D01*
X158451492Y-119971585D01*
X158451815Y-119969543D01*
X158452761Y-119963968D01*
X158454297Y-119955050D01*
X158456388Y-119942983D01*
X158459001Y-119927957D01*
X158462102Y-119910166D01*
X158465657Y-119889801D01*
X158469633Y-119867055D01*
X158473996Y-119842118D01*
X158478712Y-119815185D01*
X158483748Y-119786445D01*
X158489069Y-119756093D01*
X158494641Y-119724319D01*
X158500432Y-119691316D01*
X158506407Y-119657275D01*
X158512532Y-119622389D01*
X158518774Y-119586851D01*
X158525099Y-119550851D01*
X158531473Y-119514582D01*
X158537863Y-119478237D01*
X158544234Y-119442006D01*
X158550554Y-119406083D01*
X158556787Y-119370659D01*
X158562901Y-119335926D01*
X158568861Y-119302077D01*
X158574634Y-119269304D01*
X158580186Y-119237798D01*
X158585484Y-119207751D01*
X158590493Y-119179357D01*
X158595179Y-119152806D01*
X158599510Y-119128291D01*
X158603451Y-119106003D01*
X158606969Y-119086136D01*
X158610029Y-119068881D01*
X158612598Y-119054430D01*
X158614643Y-119042975D01*
X158616129Y-119034708D01*
X158617022Y-119029821D01*
X158617290Y-119028469D01*
X158619210Y-119028378D01*
X158624538Y-119028313D01*
X158632891Y-119028276D01*
X158643886Y-119028266D01*
X158657139Y-119028283D01*
X158657139Y-119028283D01*
G37*
X158657139Y-119028283D02*
X158672268Y-119028327D01*
X158688890Y-119028399D01*
X158701989Y-119028469D01*
X158786272Y-119028963D01*
X158703307Y-119500000D01*
X158695965Y-119541689D01*
X158688796Y-119582401D01*
X158681829Y-119621978D01*
X158675090Y-119660262D01*
X158668609Y-119697095D01*
X158662411Y-119732319D01*
X158656526Y-119765777D01*
X158650981Y-119797310D01*
X158645804Y-119826760D01*
X158641022Y-119853970D01*
X158636663Y-119878780D01*
X158632756Y-119901035D01*
X158629327Y-119920575D01*
X158626405Y-119937242D01*
X158624017Y-119950878D01*
X158622191Y-119961327D01*
X158620955Y-119968428D01*
X158620337Y-119972026D01*
X158620268Y-119972459D01*
X158618420Y-119972754D01*
X158613162Y-119973028D01*
X158604875Y-119973274D01*
X158593939Y-119973488D01*
X158580736Y-119973661D01*
X158565646Y-119973789D01*
X158549050Y-119973863D01*
X158535843Y-119973881D01*
X158514722Y-119973857D01*
X158497137Y-119973782D01*
X158482836Y-119973649D01*
X158471562Y-119973450D01*
X158463063Y-119973178D01*
X158457084Y-119972828D01*
X158453370Y-119972391D01*
X158451669Y-119971861D01*
X158451492Y-119971585D01*
X158451815Y-119969543D01*
X158452761Y-119963968D01*
X158454297Y-119955050D01*
X158456388Y-119942983D01*
X158459001Y-119927957D01*
X158462102Y-119910166D01*
X158465657Y-119889801D01*
X158469633Y-119867055D01*
X158473996Y-119842118D01*
X158478712Y-119815185D01*
X158483748Y-119786445D01*
X158489069Y-119756093D01*
X158494641Y-119724319D01*
X158500432Y-119691316D01*
X158506407Y-119657275D01*
X158512532Y-119622389D01*
X158518774Y-119586851D01*
X158525099Y-119550851D01*
X158531473Y-119514582D01*
X158537863Y-119478237D01*
X158544234Y-119442006D01*
X158550554Y-119406083D01*
X158556787Y-119370659D01*
X158562901Y-119335926D01*
X158568861Y-119302077D01*
X158574634Y-119269304D01*
X158580186Y-119237798D01*
X158585484Y-119207751D01*
X158590493Y-119179357D01*
X158595179Y-119152806D01*
X158599510Y-119128291D01*
X158603451Y-119106003D01*
X158606969Y-119086136D01*
X158610029Y-119068881D01*
X158612598Y-119054430D01*
X158614643Y-119042975D01*
X158616129Y-119034708D01*
X158617022Y-119029821D01*
X158617290Y-119028469D01*
X158619210Y-119028378D01*
X158624538Y-119028313D01*
X158632891Y-119028276D01*
X158643886Y-119028266D01*
X158657139Y-119028283D01*
G36*
X160155657Y-118649178D02*
X160163253Y-118649222D01*
X160167729Y-118649293D01*
X160168810Y-118649365D01*
X160168484Y-118651259D01*
X160167541Y-118656645D01*
X160166022Y-118665284D01*
X160163972Y-118676934D01*
X160161431Y-118691356D01*
X160158442Y-118708308D01*
X160155049Y-118727550D01*
X160151292Y-118748841D01*
X160147215Y-118771942D01*
X160142860Y-118796611D01*
X160138270Y-118822609D01*
X160133486Y-118849694D01*
X160132959Y-118852679D01*
X160128162Y-118879866D01*
X160123562Y-118905992D01*
X160119202Y-118930816D01*
X160115123Y-118954097D01*
X160111366Y-118975596D01*
X160107974Y-118995072D01*
X160104989Y-119012283D01*
X160102452Y-119026991D01*
X160100405Y-119038954D01*
X160098890Y-119047932D01*
X160097948Y-119053684D01*
X160097622Y-119055969D01*
X160097625Y-119055999D01*
X160099466Y-119055553D01*
X160103789Y-119053900D01*
X160109169Y-119051610D01*
X160118425Y-119047819D01*
X160130376Y-119043372D01*
X160144055Y-119038595D01*
X160158494Y-119033812D01*
X160172728Y-119029349D01*
X160185788Y-119025532D01*
X160190634Y-119024214D01*
X160219095Y-119017804D01*
X160248712Y-119013208D01*
X160278959Y-119010404D01*
X160309313Y-119009367D01*
X160339250Y-119010073D01*
X160368245Y-119012497D01*
X160395776Y-119016617D01*
X160421316Y-119022408D01*
X160444343Y-119029845D01*
X160459798Y-119036563D01*
X160478404Y-119047673D01*
X160495590Y-119061657D01*
X160510568Y-119077784D01*
X160521629Y-119093736D01*
X160529906Y-119110800D01*
X160536556Y-119130820D01*
X160541512Y-119153293D01*
X160544709Y-119177720D01*
X160546079Y-119203599D01*
X160545557Y-119230431D01*
X160543230Y-119256482D01*
X160542713Y-119259905D01*
X160541583Y-119266833D01*
X160539881Y-119277038D01*
X160537646Y-119290289D01*
X160534918Y-119306357D01*
X160531737Y-119325014D01*
X160528142Y-119346031D01*
X160524173Y-119369176D01*
X160519870Y-119394223D01*
X160515272Y-119420941D01*
X160510420Y-119449101D01*
X160505353Y-119478473D01*
X160500110Y-119508830D01*
X160494732Y-119539940D01*
X160489258Y-119571576D01*
X160483728Y-119603508D01*
X160478181Y-119635506D01*
X160472658Y-119667342D01*
X160467197Y-119698785D01*
X160461840Y-119729608D01*
X160456625Y-119759580D01*
X160451592Y-119788473D01*
X160446782Y-119816056D01*
X160442233Y-119842102D01*
X160437985Y-119866380D01*
X160434079Y-119888662D01*
X160430553Y-119908718D01*
X160427448Y-119926318D01*
X160424803Y-119941235D01*
X160422659Y-119953237D01*
X160421054Y-119962097D01*
X160420029Y-119967585D01*
X160419814Y-119968668D01*
X160418743Y-119973881D01*
X160249858Y-119973881D01*
X160251141Y-119965825D01*
X160251599Y-119963134D01*
X160252680Y-119956902D01*
X160254348Y-119947321D01*
X160256572Y-119934584D01*
X160259316Y-119918882D01*
X160262548Y-119900409D01*
X160266233Y-119879357D01*
X160270338Y-119855919D01*
X160274829Y-119830286D01*
X160279672Y-119802651D01*
X160284834Y-119773207D01*
X160290281Y-119742147D01*
X160295979Y-119709662D01*
X160301894Y-119675945D01*
X160307994Y-119641189D01*
X160311316Y-119622261D01*
X160318616Y-119580667D01*
X160325288Y-119542631D01*
X160331361Y-119507976D01*
X160336862Y-119476527D01*
X160341822Y-119448108D01*
X160346269Y-119422544D01*
X160350231Y-119399657D01*
X160353737Y-119379273D01*
X160356817Y-119361216D01*
X160359499Y-119345309D01*
X160361811Y-119331376D01*
X160363782Y-119319242D01*
X160365442Y-119308731D01*
X160366818Y-119299666D01*
X160367940Y-119291873D01*
X160368837Y-119285174D01*
X160369536Y-119279395D01*
X160370068Y-119274359D01*
X160370460Y-119269890D01*
X160370742Y-119265812D01*
X160370941Y-119261950D01*
X160371088Y-119258128D01*
X160371148Y-119256268D01*
X160371458Y-119244132D01*
X160371492Y-119234868D01*
X160371191Y-119227564D01*
X160370494Y-119221307D01*
X160369340Y-119215185D01*
X160368061Y-119209828D01*
X160365500Y-119200871D01*
X160362429Y-119191848D01*
X160359451Y-119184511D01*
X160359034Y-119183631D01*
X160353490Y-119174608D01*
X160345598Y-119164777D01*
X160336335Y-119155145D01*
X160326682Y-119146721D01*
X160317617Y-119140514D01*
X160316713Y-119140018D01*
X160302239Y-119133820D01*
X160284877Y-119128900D01*
X160265325Y-119125310D01*
X160244281Y-119123099D01*
X160222443Y-119122317D01*
X160200511Y-119123016D01*
X160179181Y-119125246D01*
X160160487Y-119128740D01*
X160144401Y-119132995D01*
X160127463Y-119138338D01*
X160111036Y-119144295D01*
X160096483Y-119150393D01*
X160091715Y-119152655D01*
X160078095Y-119159388D01*
X160075980Y-119171892D01*
X160075452Y-119174956D01*
X160074304Y-119181575D01*
X160072567Y-119191570D01*
X160070273Y-119204761D01*
X160067452Y-119220970D01*
X160064136Y-119240016D01*
X160060356Y-119261720D01*
X160056143Y-119285903D01*
X160051530Y-119312386D01*
X160046546Y-119340989D01*
X160041223Y-119371532D01*
X160035593Y-119403837D01*
X160029686Y-119437723D01*
X160023534Y-119473012D01*
X160017169Y-119509525D01*
X160010621Y-119547080D01*
X160005114Y-119578664D01*
X159936362Y-119972933D01*
X159851584Y-119973427D01*
X159766806Y-119973920D01*
X159767946Y-119967740D01*
X159768356Y-119965427D01*
X159769399Y-119959515D01*
X159771049Y-119950139D01*
X159773285Y-119937434D01*
X159776081Y-119921536D01*
X159779414Y-119902579D01*
X159783260Y-119880698D01*
X159787596Y-119856028D01*
X159792398Y-119828705D01*
X159797642Y-119798864D01*
X159803305Y-119766638D01*
X159809362Y-119732165D01*
X159815790Y-119695578D01*
X159822566Y-119657012D01*
X159829665Y-119616603D01*
X159837064Y-119574486D01*
X159844739Y-119530795D01*
X159852666Y-119485667D01*
X159860822Y-119439235D01*
X159869182Y-119391634D01*
X159877724Y-119343001D01*
X159884274Y-119305709D01*
X159999462Y-118649858D01*
X160084149Y-118649365D01*
X160101655Y-118649274D01*
X160117939Y-118649209D01*
X160132620Y-118649172D01*
X160145319Y-118649162D01*
X160155657Y-118649178D01*
X160155657Y-118649178D01*
G37*
X160155657Y-118649178D02*
X160163253Y-118649222D01*
X160167729Y-118649293D01*
X160168810Y-118649365D01*
X160168484Y-118651259D01*
X160167541Y-118656645D01*
X160166022Y-118665284D01*
X160163972Y-118676934D01*
X160161431Y-118691356D01*
X160158442Y-118708308D01*
X160155049Y-118727550D01*
X160151292Y-118748841D01*
X160147215Y-118771942D01*
X160142860Y-118796611D01*
X160138270Y-118822609D01*
X160133486Y-118849694D01*
X160132959Y-118852679D01*
X160128162Y-118879866D01*
X160123562Y-118905992D01*
X160119202Y-118930816D01*
X160115123Y-118954097D01*
X160111366Y-118975596D01*
X160107974Y-118995072D01*
X160104989Y-119012283D01*
X160102452Y-119026991D01*
X160100405Y-119038954D01*
X160098890Y-119047932D01*
X160097948Y-119053684D01*
X160097622Y-119055969D01*
X160097625Y-119055999D01*
X160099466Y-119055553D01*
X160103789Y-119053900D01*
X160109169Y-119051610D01*
X160118425Y-119047819D01*
X160130376Y-119043372D01*
X160144055Y-119038595D01*
X160158494Y-119033812D01*
X160172728Y-119029349D01*
X160185788Y-119025532D01*
X160190634Y-119024214D01*
X160219095Y-119017804D01*
X160248712Y-119013208D01*
X160278959Y-119010404D01*
X160309313Y-119009367D01*
X160339250Y-119010073D01*
X160368245Y-119012497D01*
X160395776Y-119016617D01*
X160421316Y-119022408D01*
X160444343Y-119029845D01*
X160459798Y-119036563D01*
X160478404Y-119047673D01*
X160495590Y-119061657D01*
X160510568Y-119077784D01*
X160521629Y-119093736D01*
X160529906Y-119110800D01*
X160536556Y-119130820D01*
X160541512Y-119153293D01*
X160544709Y-119177720D01*
X160546079Y-119203599D01*
X160545557Y-119230431D01*
X160543230Y-119256482D01*
X160542713Y-119259905D01*
X160541583Y-119266833D01*
X160539881Y-119277038D01*
X160537646Y-119290289D01*
X160534918Y-119306357D01*
X160531737Y-119325014D01*
X160528142Y-119346031D01*
X160524173Y-119369176D01*
X160519870Y-119394223D01*
X160515272Y-119420941D01*
X160510420Y-119449101D01*
X160505353Y-119478473D01*
X160500110Y-119508830D01*
X160494732Y-119539940D01*
X160489258Y-119571576D01*
X160483728Y-119603508D01*
X160478181Y-119635506D01*
X160472658Y-119667342D01*
X160467197Y-119698785D01*
X160461840Y-119729608D01*
X160456625Y-119759580D01*
X160451592Y-119788473D01*
X160446782Y-119816056D01*
X160442233Y-119842102D01*
X160437985Y-119866380D01*
X160434079Y-119888662D01*
X160430553Y-119908718D01*
X160427448Y-119926318D01*
X160424803Y-119941235D01*
X160422659Y-119953237D01*
X160421054Y-119962097D01*
X160420029Y-119967585D01*
X160419814Y-119968668D01*
X160418743Y-119973881D01*
X160249858Y-119973881D01*
X160251141Y-119965825D01*
X160251599Y-119963134D01*
X160252680Y-119956902D01*
X160254348Y-119947321D01*
X160256572Y-119934584D01*
X160259316Y-119918882D01*
X160262548Y-119900409D01*
X160266233Y-119879357D01*
X160270338Y-119855919D01*
X160274829Y-119830286D01*
X160279672Y-119802651D01*
X160284834Y-119773207D01*
X160290281Y-119742147D01*
X160295979Y-119709662D01*
X160301894Y-119675945D01*
X160307994Y-119641189D01*
X160311316Y-119622261D01*
X160318616Y-119580667D01*
X160325288Y-119542631D01*
X160331361Y-119507976D01*
X160336862Y-119476527D01*
X160341822Y-119448108D01*
X160346269Y-119422544D01*
X160350231Y-119399657D01*
X160353737Y-119379273D01*
X160356817Y-119361216D01*
X160359499Y-119345309D01*
X160361811Y-119331376D01*
X160363782Y-119319242D01*
X160365442Y-119308731D01*
X160366818Y-119299666D01*
X160367940Y-119291873D01*
X160368837Y-119285174D01*
X160369536Y-119279395D01*
X160370068Y-119274359D01*
X160370460Y-119269890D01*
X160370742Y-119265812D01*
X160370941Y-119261950D01*
X160371088Y-119258128D01*
X160371148Y-119256268D01*
X160371458Y-119244132D01*
X160371492Y-119234868D01*
X160371191Y-119227564D01*
X160370494Y-119221307D01*
X160369340Y-119215185D01*
X160368061Y-119209828D01*
X160365500Y-119200871D01*
X160362429Y-119191848D01*
X160359451Y-119184511D01*
X160359034Y-119183631D01*
X160353490Y-119174608D01*
X160345598Y-119164777D01*
X160336335Y-119155145D01*
X160326682Y-119146721D01*
X160317617Y-119140514D01*
X160316713Y-119140018D01*
X160302239Y-119133820D01*
X160284877Y-119128900D01*
X160265325Y-119125310D01*
X160244281Y-119123099D01*
X160222443Y-119122317D01*
X160200511Y-119123016D01*
X160179181Y-119125246D01*
X160160487Y-119128740D01*
X160144401Y-119132995D01*
X160127463Y-119138338D01*
X160111036Y-119144295D01*
X160096483Y-119150393D01*
X160091715Y-119152655D01*
X160078095Y-119159388D01*
X160075980Y-119171892D01*
X160075452Y-119174956D01*
X160074304Y-119181575D01*
X160072567Y-119191570D01*
X160070273Y-119204761D01*
X160067452Y-119220970D01*
X160064136Y-119240016D01*
X160060356Y-119261720D01*
X160056143Y-119285903D01*
X160051530Y-119312386D01*
X160046546Y-119340989D01*
X160041223Y-119371532D01*
X160035593Y-119403837D01*
X160029686Y-119437723D01*
X160023534Y-119473012D01*
X160017169Y-119509525D01*
X160010621Y-119547080D01*
X160005114Y-119578664D01*
X159936362Y-119972933D01*
X159851584Y-119973427D01*
X159766806Y-119973920D01*
X159767946Y-119967740D01*
X159768356Y-119965427D01*
X159769399Y-119959515D01*
X159771049Y-119950139D01*
X159773285Y-119937434D01*
X159776081Y-119921536D01*
X159779414Y-119902579D01*
X159783260Y-119880698D01*
X159787596Y-119856028D01*
X159792398Y-119828705D01*
X159797642Y-119798864D01*
X159803305Y-119766638D01*
X159809362Y-119732165D01*
X159815790Y-119695578D01*
X159822566Y-119657012D01*
X159829665Y-119616603D01*
X159837064Y-119574486D01*
X159844739Y-119530795D01*
X159852666Y-119485667D01*
X159860822Y-119439235D01*
X159869182Y-119391634D01*
X159877724Y-119343001D01*
X159884274Y-119305709D01*
X159999462Y-118649858D01*
X160084149Y-118649365D01*
X160101655Y-118649274D01*
X160117939Y-118649209D01*
X160132620Y-118649172D01*
X160145319Y-118649162D01*
X160155657Y-118649178D01*
G36*
X164788283Y-118649178D02*
X164795883Y-118649222D01*
X164800363Y-118649292D01*
X164801448Y-118649365D01*
X164801119Y-118651251D01*
X164800159Y-118656700D01*
X164798599Y-118665543D01*
X164796468Y-118677609D01*
X164793797Y-118692729D01*
X164790616Y-118710733D01*
X164786954Y-118731452D01*
X164782842Y-118754715D01*
X164778310Y-118780353D01*
X164773388Y-118808196D01*
X164768105Y-118838075D01*
X164762492Y-118869818D01*
X164756579Y-118903258D01*
X164750396Y-118938223D01*
X164743973Y-118974544D01*
X164737339Y-119012051D01*
X164730525Y-119050575D01*
X164729654Y-119055500D01*
X164722823Y-119094143D01*
X164716174Y-119131794D01*
X164709739Y-119168282D01*
X164703546Y-119203438D01*
X164697625Y-119237091D01*
X164692006Y-119269072D01*
X164686718Y-119299211D01*
X164681792Y-119327338D01*
X164677256Y-119353282D01*
X164673142Y-119376875D01*
X164669478Y-119397946D01*
X164666293Y-119416325D01*
X164663619Y-119431842D01*
X164661484Y-119444327D01*
X164659918Y-119453611D01*
X164658951Y-119459523D01*
X164658613Y-119461893D01*
X164658616Y-119461932D01*
X164659954Y-119461932D01*
X164661197Y-119460392D01*
X164664690Y-119456067D01*
X164670300Y-119449120D01*
X164677897Y-119439716D01*
X164687346Y-119428017D01*
X164698517Y-119414187D01*
X164711277Y-119398391D01*
X164725494Y-119380791D01*
X164741036Y-119361552D01*
X164757769Y-119340837D01*
X164775563Y-119318810D01*
X164794285Y-119295634D01*
X164813803Y-119271474D01*
X164833984Y-119246492D01*
X164835530Y-119244579D01*
X165010478Y-119028015D01*
X165104300Y-119028015D01*
X165125572Y-119028021D01*
X165143353Y-119028046D01*
X165157943Y-119028101D01*
X165169642Y-119028196D01*
X165178750Y-119028342D01*
X165185568Y-119028551D01*
X165190394Y-119028832D01*
X165193530Y-119029197D01*
X165195275Y-119029656D01*
X165195929Y-119030221D01*
X165195793Y-119030901D01*
X165195519Y-119031292D01*
X165194021Y-119033100D01*
X165190226Y-119037652D01*
X165184269Y-119044785D01*
X165176286Y-119054336D01*
X165166414Y-119066143D01*
X165154789Y-119080043D01*
X165141547Y-119095872D01*
X165126824Y-119113469D01*
X165110757Y-119132670D01*
X165093481Y-119153313D01*
X165075132Y-119175235D01*
X165055848Y-119198273D01*
X165035763Y-119222265D01*
X165015015Y-119247048D01*
X165011895Y-119250774D01*
X164991065Y-119275653D01*
X164970882Y-119299761D01*
X164951482Y-119322937D01*
X164933000Y-119345017D01*
X164915572Y-119365838D01*
X164899335Y-119385240D01*
X164884424Y-119403058D01*
X164870975Y-119419132D01*
X164859124Y-119433297D01*
X164849007Y-119445393D01*
X164840760Y-119455256D01*
X164834519Y-119462725D01*
X164830419Y-119467636D01*
X164828597Y-119469827D01*
X164828529Y-119469911D01*
X164828418Y-119470770D01*
X164828824Y-119472585D01*
X164829818Y-119475511D01*
X164831471Y-119479699D01*
X164833856Y-119485301D01*
X164837046Y-119492471D01*
X164841110Y-119501360D01*
X164846123Y-119512121D01*
X164852155Y-119524907D01*
X164859278Y-119539869D01*
X164867565Y-119557162D01*
X164877088Y-119576936D01*
X164887918Y-119599344D01*
X164900127Y-119624539D01*
X164913787Y-119652674D01*
X164928971Y-119683900D01*
X164945750Y-119718371D01*
X164946515Y-119719942D01*
X164960533Y-119748737D01*
X164974103Y-119776627D01*
X164987132Y-119803418D01*
X164999524Y-119828919D01*
X165011188Y-119852936D01*
X165022030Y-119875275D01*
X165031955Y-119895745D01*
X165040872Y-119914152D01*
X165048685Y-119930303D01*
X165055301Y-119944006D01*
X165060628Y-119955067D01*
X165064572Y-119963293D01*
X165067038Y-119968492D01*
X165067931Y-119970461D01*
X165068031Y-119971237D01*
X165067592Y-119971886D01*
X165066307Y-119972420D01*
X165063870Y-119972849D01*
X165059974Y-119973185D01*
X165054313Y-119973439D01*
X165046581Y-119973622D01*
X165036470Y-119973747D01*
X165023675Y-119973824D01*
X165007888Y-119973864D01*
X164988804Y-119973879D01*
X164975402Y-119973881D01*
X164881788Y-119973881D01*
X164769354Y-119729832D01*
X164756114Y-119701103D01*
X164743296Y-119673313D01*
X164730993Y-119646658D01*
X164719294Y-119621332D01*
X164708289Y-119597531D01*
X164698071Y-119575451D01*
X164688728Y-119555287D01*
X164680352Y-119537235D01*
X164673033Y-119521488D01*
X164666862Y-119508244D01*
X164661929Y-119497698D01*
X164658326Y-119490044D01*
X164656141Y-119485478D01*
X164655473Y-119484175D01*
X164655237Y-119483793D01*
X164655040Y-119483362D01*
X164654848Y-119483066D01*
X164654628Y-119483091D01*
X164654346Y-119483621D01*
X164653969Y-119484841D01*
X164653463Y-119486935D01*
X164652795Y-119490088D01*
X164651931Y-119494485D01*
X164650839Y-119500311D01*
X164649484Y-119507749D01*
X164647833Y-119516986D01*
X164645852Y-119528205D01*
X164643509Y-119541592D01*
X164640769Y-119557330D01*
X164637600Y-119575605D01*
X164633967Y-119596602D01*
X164629837Y-119620504D01*
X164625178Y-119647497D01*
X164619954Y-119677766D01*
X164614133Y-119711495D01*
X164611050Y-119729358D01*
X164605964Y-119758814D01*
X164601044Y-119787276D01*
X164596332Y-119814516D01*
X164591866Y-119840307D01*
X164587686Y-119864420D01*
X164583831Y-119886628D01*
X164580342Y-119906703D01*
X164577258Y-119924417D01*
X164574619Y-119939542D01*
X164572463Y-119951851D01*
X164570832Y-119961114D01*
X164569763Y-119967105D01*
X164569298Y-119969596D01*
X164569293Y-119969616D01*
X164568271Y-119973881D01*
X164483956Y-119973881D01*
X164466491Y-119973850D01*
X164450252Y-119973762D01*
X164435618Y-119973622D01*
X164422971Y-119973438D01*
X164412689Y-119973216D01*
X164405153Y-119972961D01*
X164400743Y-119972682D01*
X164399715Y-119972459D01*
X164400045Y-119970507D01*
X164401008Y-119964955D01*
X164402581Y-119955935D01*
X164404740Y-119943581D01*
X164407462Y-119928027D01*
X164410724Y-119909404D01*
X164414502Y-119887848D01*
X164418773Y-119863491D01*
X164423513Y-119836466D01*
X164428700Y-119806906D01*
X164434309Y-119774945D01*
X164440317Y-119740717D01*
X164446701Y-119704353D01*
X164453438Y-119665988D01*
X164460504Y-119625755D01*
X164467875Y-119583787D01*
X164475529Y-119540217D01*
X164483442Y-119495178D01*
X164491590Y-119448805D01*
X164499951Y-119401229D01*
X164508500Y-119352584D01*
X164515906Y-119310448D01*
X164632024Y-118649858D01*
X164716758Y-118649365D01*
X164734269Y-118649274D01*
X164750556Y-118649209D01*
X164765240Y-118649172D01*
X164777943Y-118649162D01*
X164788283Y-118649178D01*
X164788283Y-118649178D01*
G37*
X164788283Y-118649178D02*
X164795883Y-118649222D01*
X164800363Y-118649292D01*
X164801448Y-118649365D01*
X164801119Y-118651251D01*
X164800159Y-118656700D01*
X164798599Y-118665543D01*
X164796468Y-118677609D01*
X164793797Y-118692729D01*
X164790616Y-118710733D01*
X164786954Y-118731452D01*
X164782842Y-118754715D01*
X164778310Y-118780353D01*
X164773388Y-118808196D01*
X164768105Y-118838075D01*
X164762492Y-118869818D01*
X164756579Y-118903258D01*
X164750396Y-118938223D01*
X164743973Y-118974544D01*
X164737339Y-119012051D01*
X164730525Y-119050575D01*
X164729654Y-119055500D01*
X164722823Y-119094143D01*
X164716174Y-119131794D01*
X164709739Y-119168282D01*
X164703546Y-119203438D01*
X164697625Y-119237091D01*
X164692006Y-119269072D01*
X164686718Y-119299211D01*
X164681792Y-119327338D01*
X164677256Y-119353282D01*
X164673142Y-119376875D01*
X164669478Y-119397946D01*
X164666293Y-119416325D01*
X164663619Y-119431842D01*
X164661484Y-119444327D01*
X164659918Y-119453611D01*
X164658951Y-119459523D01*
X164658613Y-119461893D01*
X164658616Y-119461932D01*
X164659954Y-119461932D01*
X164661197Y-119460392D01*
X164664690Y-119456067D01*
X164670300Y-119449120D01*
X164677897Y-119439716D01*
X164687346Y-119428017D01*
X164698517Y-119414187D01*
X164711277Y-119398391D01*
X164725494Y-119380791D01*
X164741036Y-119361552D01*
X164757769Y-119340837D01*
X164775563Y-119318810D01*
X164794285Y-119295634D01*
X164813803Y-119271474D01*
X164833984Y-119246492D01*
X164835530Y-119244579D01*
X165010478Y-119028015D01*
X165104300Y-119028015D01*
X165125572Y-119028021D01*
X165143353Y-119028046D01*
X165157943Y-119028101D01*
X165169642Y-119028196D01*
X165178750Y-119028342D01*
X165185568Y-119028551D01*
X165190394Y-119028832D01*
X165193530Y-119029197D01*
X165195275Y-119029656D01*
X165195929Y-119030221D01*
X165195793Y-119030901D01*
X165195519Y-119031292D01*
X165194021Y-119033100D01*
X165190226Y-119037652D01*
X165184269Y-119044785D01*
X165176286Y-119054336D01*
X165166414Y-119066143D01*
X165154789Y-119080043D01*
X165141547Y-119095872D01*
X165126824Y-119113469D01*
X165110757Y-119132670D01*
X165093481Y-119153313D01*
X165075132Y-119175235D01*
X165055848Y-119198273D01*
X165035763Y-119222265D01*
X165015015Y-119247048D01*
X165011895Y-119250774D01*
X164991065Y-119275653D01*
X164970882Y-119299761D01*
X164951482Y-119322937D01*
X164933000Y-119345017D01*
X164915572Y-119365838D01*
X164899335Y-119385240D01*
X164884424Y-119403058D01*
X164870975Y-119419132D01*
X164859124Y-119433297D01*
X164849007Y-119445393D01*
X164840760Y-119455256D01*
X164834519Y-119462725D01*
X164830419Y-119467636D01*
X164828597Y-119469827D01*
X164828529Y-119469911D01*
X164828418Y-119470770D01*
X164828824Y-119472585D01*
X164829818Y-119475511D01*
X164831471Y-119479699D01*
X164833856Y-119485301D01*
X164837046Y-119492471D01*
X164841110Y-119501360D01*
X164846123Y-119512121D01*
X164852155Y-119524907D01*
X164859278Y-119539869D01*
X164867565Y-119557162D01*
X164877088Y-119576936D01*
X164887918Y-119599344D01*
X164900127Y-119624539D01*
X164913787Y-119652674D01*
X164928971Y-119683900D01*
X164945750Y-119718371D01*
X164946515Y-119719942D01*
X164960533Y-119748737D01*
X164974103Y-119776627D01*
X164987132Y-119803418D01*
X164999524Y-119828919D01*
X165011188Y-119852936D01*
X165022030Y-119875275D01*
X165031955Y-119895745D01*
X165040872Y-119914152D01*
X165048685Y-119930303D01*
X165055301Y-119944006D01*
X165060628Y-119955067D01*
X165064572Y-119963293D01*
X165067038Y-119968492D01*
X165067931Y-119970461D01*
X165068031Y-119971237D01*
X165067592Y-119971886D01*
X165066307Y-119972420D01*
X165063870Y-119972849D01*
X165059974Y-119973185D01*
X165054313Y-119973439D01*
X165046581Y-119973622D01*
X165036470Y-119973747D01*
X165023675Y-119973824D01*
X165007888Y-119973864D01*
X164988804Y-119973879D01*
X164975402Y-119973881D01*
X164881788Y-119973881D01*
X164769354Y-119729832D01*
X164756114Y-119701103D01*
X164743296Y-119673313D01*
X164730993Y-119646658D01*
X164719294Y-119621332D01*
X164708289Y-119597531D01*
X164698071Y-119575451D01*
X164688728Y-119555287D01*
X164680352Y-119537235D01*
X164673033Y-119521488D01*
X164666862Y-119508244D01*
X164661929Y-119497698D01*
X164658326Y-119490044D01*
X164656141Y-119485478D01*
X164655473Y-119484175D01*
X164655237Y-119483793D01*
X164655040Y-119483362D01*
X164654848Y-119483066D01*
X164654628Y-119483091D01*
X164654346Y-119483621D01*
X164653969Y-119484841D01*
X164653463Y-119486935D01*
X164652795Y-119490088D01*
X164651931Y-119494485D01*
X164650839Y-119500311D01*
X164649484Y-119507749D01*
X164647833Y-119516986D01*
X164645852Y-119528205D01*
X164643509Y-119541592D01*
X164640769Y-119557330D01*
X164637600Y-119575605D01*
X164633967Y-119596602D01*
X164629837Y-119620504D01*
X164625178Y-119647497D01*
X164619954Y-119677766D01*
X164614133Y-119711495D01*
X164611050Y-119729358D01*
X164605964Y-119758814D01*
X164601044Y-119787276D01*
X164596332Y-119814516D01*
X164591866Y-119840307D01*
X164587686Y-119864420D01*
X164583831Y-119886628D01*
X164580342Y-119906703D01*
X164577258Y-119924417D01*
X164574619Y-119939542D01*
X164572463Y-119951851D01*
X164570832Y-119961114D01*
X164569763Y-119967105D01*
X164569298Y-119969596D01*
X164569293Y-119969616D01*
X164568271Y-119973881D01*
X164483956Y-119973881D01*
X164466491Y-119973850D01*
X164450252Y-119973762D01*
X164435618Y-119973622D01*
X164422971Y-119973438D01*
X164412689Y-119973216D01*
X164405153Y-119972961D01*
X164400743Y-119972682D01*
X164399715Y-119972459D01*
X164400045Y-119970507D01*
X164401008Y-119964955D01*
X164402581Y-119955935D01*
X164404740Y-119943581D01*
X164407462Y-119928027D01*
X164410724Y-119909404D01*
X164414502Y-119887848D01*
X164418773Y-119863491D01*
X164423513Y-119836466D01*
X164428700Y-119806906D01*
X164434309Y-119774945D01*
X164440317Y-119740717D01*
X164446701Y-119704353D01*
X164453438Y-119665988D01*
X164460504Y-119625755D01*
X164467875Y-119583787D01*
X164475529Y-119540217D01*
X164483442Y-119495178D01*
X164491590Y-119448805D01*
X164499951Y-119401229D01*
X164508500Y-119352584D01*
X164515906Y-119310448D01*
X164632024Y-118649858D01*
X164716758Y-118649365D01*
X164734269Y-118649274D01*
X164750556Y-118649209D01*
X164765240Y-118649172D01*
X164777943Y-118649162D01*
X164788283Y-118649178D01*
G36*
X158715900Y-118687089D02*
X158731028Y-118687133D01*
X158747648Y-118687205D01*
X158760731Y-118687275D01*
X158844994Y-118687769D01*
X158831261Y-118767381D01*
X158828155Y-118785384D01*
X158825089Y-118803159D01*
X158822159Y-118820151D01*
X158819459Y-118835805D01*
X158817086Y-118849567D01*
X158815136Y-118860883D01*
X158813703Y-118869197D01*
X158813364Y-118871161D01*
X158809202Y-118895329D01*
X158725123Y-118895329D01*
X158705049Y-118895321D01*
X158688440Y-118895290D01*
X158674969Y-118895222D01*
X158664311Y-118895106D01*
X158656138Y-118894926D01*
X158650125Y-118894672D01*
X158645946Y-118894330D01*
X158643273Y-118893887D01*
X158641782Y-118893331D01*
X158641145Y-118892647D01*
X158641031Y-118892011D01*
X158641338Y-118889666D01*
X158642217Y-118884043D01*
X158643596Y-118875560D01*
X158645405Y-118864630D01*
X158647573Y-118851669D01*
X158650028Y-118837093D01*
X158652700Y-118821316D01*
X158655517Y-118804754D01*
X158658408Y-118787821D01*
X158661303Y-118770934D01*
X158664131Y-118754506D01*
X158666820Y-118738955D01*
X158669299Y-118724694D01*
X158671497Y-118712138D01*
X158673344Y-118701704D01*
X158674768Y-118693806D01*
X158675698Y-118688860D01*
X158676054Y-118687275D01*
X158677974Y-118687184D01*
X158683301Y-118687119D01*
X158691653Y-118687082D01*
X158702647Y-118687072D01*
X158715900Y-118687089D01*
X158715900Y-118687089D01*
G37*
X158715900Y-118687089D02*
X158731028Y-118687133D01*
X158747648Y-118687205D01*
X158760731Y-118687275D01*
X158844994Y-118687769D01*
X158831261Y-118767381D01*
X158828155Y-118785384D01*
X158825089Y-118803159D01*
X158822159Y-118820151D01*
X158819459Y-118835805D01*
X158817086Y-118849567D01*
X158815136Y-118860883D01*
X158813703Y-118869197D01*
X158813364Y-118871161D01*
X158809202Y-118895329D01*
X158725123Y-118895329D01*
X158705049Y-118895321D01*
X158688440Y-118895290D01*
X158674969Y-118895222D01*
X158664311Y-118895106D01*
X158656138Y-118894926D01*
X158650125Y-118894672D01*
X158645946Y-118894330D01*
X158643273Y-118893887D01*
X158641782Y-118893331D01*
X158641145Y-118892647D01*
X158641031Y-118892011D01*
X158641338Y-118889666D01*
X158642217Y-118884043D01*
X158643596Y-118875560D01*
X158645405Y-118864630D01*
X158647573Y-118851669D01*
X158650028Y-118837093D01*
X158652700Y-118821316D01*
X158655517Y-118804754D01*
X158658408Y-118787821D01*
X158661303Y-118770934D01*
X158664131Y-118754506D01*
X158666820Y-118738955D01*
X158669299Y-118724694D01*
X158671497Y-118712138D01*
X158673344Y-118701704D01*
X158674768Y-118693806D01*
X158675698Y-118688860D01*
X158676054Y-118687275D01*
X158677974Y-118687184D01*
X158683301Y-118687119D01*
X158691653Y-118687082D01*
X158702647Y-118687072D01*
X158715900Y-118687089D01*
D13*
X132241667Y-120778571D02*
X131908333Y-120778571D01*
X131908333Y-121302381D02*
X131908333Y-120302381D01*
X132384524Y-120302381D01*
X133289286Y-121302381D02*
X132717857Y-121302381D01*
X133003571Y-121302381D02*
X133003571Y-120302381D01*
X132908333Y-120445238D01*
X132813095Y-120540476D01*
X132717857Y-120588095D01*
X133103571Y-95808333D02*
X133103571Y-96141667D01*
X133627381Y-96141667D02*
X132627381Y-96141667D01*
X132627381Y-95665476D01*
X132722619Y-95332143D02*
X132675000Y-95284524D01*
X132627381Y-95189286D01*
X132627381Y-94951190D01*
X132675000Y-94855952D01*
X132722619Y-94808333D01*
X132817857Y-94760714D01*
X132913095Y-94760714D01*
X133055952Y-94808333D01*
X133627381Y-95379762D01*
X133627381Y-94760714D01*
X134533334Y-95257143D02*
X134485715Y-95304762D01*
X134342858Y-95352381D01*
X134247620Y-95352381D01*
X134104762Y-95304762D01*
X134009524Y-95209524D01*
X133961905Y-95114286D01*
X133914286Y-94923810D01*
X133914286Y-94780952D01*
X133961905Y-94590476D01*
X134009524Y-94495238D01*
X134104762Y-94400000D01*
X134247620Y-94352381D01*
X134342858Y-94352381D01*
X134485715Y-94400000D01*
X134533334Y-94447619D01*
X135390477Y-94352381D02*
X135200000Y-94352381D01*
X135104762Y-94400000D01*
X135057143Y-94447619D01*
X134961905Y-94590476D01*
X134914286Y-94780952D01*
X134914286Y-95161905D01*
X134961905Y-95257143D01*
X135009524Y-95304762D01*
X135104762Y-95352381D01*
X135295239Y-95352381D01*
X135390477Y-95304762D01*
X135438096Y-95257143D01*
X135485715Y-95161905D01*
X135485715Y-94923810D01*
X135438096Y-94828571D01*
X135390477Y-94780952D01*
X135295239Y-94733333D01*
X135104762Y-94733333D01*
X135009524Y-94780952D01*
X134961905Y-94828571D01*
X134914286Y-94923810D01*
X135757143Y-92096666D02*
X135804762Y-92144285D01*
X135852381Y-92287142D01*
X135852381Y-92382380D01*
X135804762Y-92525238D01*
X135709524Y-92620476D01*
X135614286Y-92668095D01*
X135423810Y-92715714D01*
X135280952Y-92715714D01*
X135090476Y-92668095D01*
X134995238Y-92620476D01*
X134900000Y-92525238D01*
X134852381Y-92382380D01*
X134852381Y-92287142D01*
X134900000Y-92144285D01*
X134947619Y-92096666D01*
X135852381Y-91144285D02*
X135852381Y-91715714D01*
X135852381Y-91430000D02*
X134852381Y-91430000D01*
X134995238Y-91525238D01*
X135090476Y-91620476D01*
X135138095Y-91715714D01*
X131208334Y-97407143D02*
X131160715Y-97454762D01*
X131017858Y-97502381D01*
X130922620Y-97502381D01*
X130779762Y-97454762D01*
X130684524Y-97359524D01*
X130636905Y-97264286D01*
X130589286Y-97073810D01*
X130589286Y-96930952D01*
X130636905Y-96740476D01*
X130684524Y-96645238D01*
X130779762Y-96550000D01*
X130922620Y-96502381D01*
X131017858Y-96502381D01*
X131160715Y-96550000D01*
X131208334Y-96597619D01*
X131541667Y-96502381D02*
X132160715Y-96502381D01*
X131827381Y-96883333D01*
X131970239Y-96883333D01*
X132065477Y-96930952D01*
X132113096Y-96978571D01*
X132160715Y-97073810D01*
X132160715Y-97311905D01*
X132113096Y-97407143D01*
X132065477Y-97454762D01*
X131970239Y-97502381D01*
X131684524Y-97502381D01*
X131589286Y-97454762D01*
X131541667Y-97407143D01*
X146613334Y-100527143D02*
X146565715Y-100574762D01*
X146422858Y-100622381D01*
X146327620Y-100622381D01*
X146184762Y-100574762D01*
X146089524Y-100479524D01*
X146041905Y-100384286D01*
X145994286Y-100193810D01*
X145994286Y-100050952D01*
X146041905Y-99860476D01*
X146089524Y-99765238D01*
X146184762Y-99670000D01*
X146327620Y-99622381D01*
X146422858Y-99622381D01*
X146565715Y-99670000D01*
X146613334Y-99717619D01*
X147470477Y-99955714D02*
X147470477Y-100622381D01*
X147232381Y-99574762D02*
X146994286Y-100289048D01*
X147613334Y-100289048D01*
X134083334Y-101857143D02*
X134035715Y-101904762D01*
X133892858Y-101952381D01*
X133797620Y-101952381D01*
X133654762Y-101904762D01*
X133559524Y-101809524D01*
X133511905Y-101714286D01*
X133464286Y-101523810D01*
X133464286Y-101380952D01*
X133511905Y-101190476D01*
X133559524Y-101095238D01*
X133654762Y-101000000D01*
X133797620Y-100952381D01*
X133892858Y-100952381D01*
X134035715Y-101000000D01*
X134083334Y-101047619D01*
X134988096Y-100952381D02*
X134511905Y-100952381D01*
X134464286Y-101428571D01*
X134511905Y-101380952D01*
X134607143Y-101333333D01*
X134845239Y-101333333D01*
X134940477Y-101380952D01*
X134988096Y-101428571D01*
X135035715Y-101523810D01*
X135035715Y-101761905D01*
X134988096Y-101857143D01*
X134940477Y-101904762D01*
X134845239Y-101952381D01*
X134607143Y-101952381D01*
X134511905Y-101904762D01*
X134464286Y-101857143D01*
X153057143Y-102266666D02*
X153104762Y-102314285D01*
X153152381Y-102457142D01*
X153152381Y-102552380D01*
X153104762Y-102695238D01*
X153009524Y-102790476D01*
X152914286Y-102838095D01*
X152723810Y-102885714D01*
X152580952Y-102885714D01*
X152390476Y-102838095D01*
X152295238Y-102790476D01*
X152200000Y-102695238D01*
X152152381Y-102552380D01*
X152152381Y-102457142D01*
X152200000Y-102314285D01*
X152247619Y-102266666D01*
X152152381Y-101933333D02*
X152152381Y-101266666D01*
X153152381Y-101695238D01*
X133357143Y-102666666D02*
X133404762Y-102714285D01*
X133452381Y-102857142D01*
X133452381Y-102952380D01*
X133404762Y-103095238D01*
X133309524Y-103190476D01*
X133214286Y-103238095D01*
X133023810Y-103285714D01*
X132880952Y-103285714D01*
X132690476Y-103238095D01*
X132595238Y-103190476D01*
X132500000Y-103095238D01*
X132452381Y-102952380D01*
X132452381Y-102857142D01*
X132500000Y-102714285D01*
X132547619Y-102666666D01*
X132880952Y-102095238D02*
X132833333Y-102190476D01*
X132785714Y-102238095D01*
X132690476Y-102285714D01*
X132642857Y-102285714D01*
X132547619Y-102238095D01*
X132500000Y-102190476D01*
X132452381Y-102095238D01*
X132452381Y-101904761D01*
X132500000Y-101809523D01*
X132547619Y-101761904D01*
X132642857Y-101714285D01*
X132690476Y-101714285D01*
X132785714Y-101761904D01*
X132833333Y-101809523D01*
X132880952Y-101904761D01*
X132880952Y-102095238D01*
X132928571Y-102190476D01*
X132976190Y-102238095D01*
X133071429Y-102285714D01*
X133261905Y-102285714D01*
X133357143Y-102238095D01*
X133404762Y-102190476D01*
X133452381Y-102095238D01*
X133452381Y-101904761D01*
X133404762Y-101809523D01*
X133357143Y-101761904D01*
X133261905Y-101714285D01*
X133071429Y-101714285D01*
X132976190Y-101761904D01*
X132928571Y-101809523D01*
X132880952Y-101904761D01*
X131333334Y-112357143D02*
X131285715Y-112404762D01*
X131142858Y-112452381D01*
X131047620Y-112452381D01*
X130904762Y-112404762D01*
X130809524Y-112309524D01*
X130761905Y-112214286D01*
X130714286Y-112023810D01*
X130714286Y-111880952D01*
X130761905Y-111690476D01*
X130809524Y-111595238D01*
X130904762Y-111500000D01*
X131047620Y-111452381D01*
X131142858Y-111452381D01*
X131285715Y-111500000D01*
X131333334Y-111547619D01*
X131809524Y-112452381D02*
X132000000Y-112452381D01*
X132095239Y-112404762D01*
X132142858Y-112357143D01*
X132238096Y-112214286D01*
X132285715Y-112023810D01*
X132285715Y-111642857D01*
X132238096Y-111547619D01*
X132190477Y-111500000D01*
X132095239Y-111452381D01*
X131904762Y-111452381D01*
X131809524Y-111500000D01*
X131761905Y-111547619D01*
X131714286Y-111642857D01*
X131714286Y-111880952D01*
X131761905Y-111976190D01*
X131809524Y-112023810D01*
X131904762Y-112071429D01*
X132095239Y-112071429D01*
X132190477Y-112023810D01*
X132238096Y-111976190D01*
X132285715Y-111880952D01*
X131547143Y-120007143D02*
X131499524Y-120054762D01*
X131356667Y-120102381D01*
X131261429Y-120102381D01*
X131118571Y-120054762D01*
X131023333Y-119959524D01*
X130975714Y-119864286D01*
X130928095Y-119673810D01*
X130928095Y-119530952D01*
X130975714Y-119340476D01*
X131023333Y-119245238D01*
X131118571Y-119150000D01*
X131261429Y-119102381D01*
X131356667Y-119102381D01*
X131499524Y-119150000D01*
X131547143Y-119197619D01*
X132499524Y-120102381D02*
X131928095Y-120102381D01*
X132213809Y-120102381D02*
X132213809Y-119102381D01*
X132118571Y-119245238D01*
X132023333Y-119340476D01*
X131928095Y-119388095D01*
X133118571Y-119102381D02*
X133213810Y-119102381D01*
X133309048Y-119150000D01*
X133356667Y-119197619D01*
X133404286Y-119292857D01*
X133451905Y-119483333D01*
X133451905Y-119721429D01*
X133404286Y-119911905D01*
X133356667Y-120007143D01*
X133309048Y-120054762D01*
X133213810Y-120102381D01*
X133118571Y-120102381D01*
X133023333Y-120054762D01*
X132975714Y-120007143D01*
X132928095Y-119911905D01*
X132880476Y-119721429D01*
X132880476Y-119483333D01*
X132928095Y-119292857D01*
X132975714Y-119197619D01*
X133023333Y-119150000D01*
X133118571Y-119102381D01*
X155967143Y-99237143D02*
X155919524Y-99284762D01*
X155776667Y-99332381D01*
X155681429Y-99332381D01*
X155538571Y-99284762D01*
X155443333Y-99189524D01*
X155395714Y-99094286D01*
X155348095Y-98903810D01*
X155348095Y-98760952D01*
X155395714Y-98570476D01*
X155443333Y-98475238D01*
X155538571Y-98380000D01*
X155681429Y-98332381D01*
X155776667Y-98332381D01*
X155919524Y-98380000D01*
X155967143Y-98427619D01*
X156919524Y-99332381D02*
X156348095Y-99332381D01*
X156633809Y-99332381D02*
X156633809Y-98332381D01*
X156538571Y-98475238D01*
X156443333Y-98570476D01*
X156348095Y-98618095D01*
X157871905Y-99332381D02*
X157300476Y-99332381D01*
X157586190Y-99332381D02*
X157586190Y-98332381D01*
X157490952Y-98475238D01*
X157395714Y-98570476D01*
X157300476Y-98618095D01*
X154607143Y-91357143D02*
X154559524Y-91404762D01*
X154416667Y-91452381D01*
X154321429Y-91452381D01*
X154178571Y-91404762D01*
X154083333Y-91309524D01*
X154035714Y-91214286D01*
X153988095Y-91023810D01*
X153988095Y-90880952D01*
X154035714Y-90690476D01*
X154083333Y-90595238D01*
X154178571Y-90500000D01*
X154321429Y-90452381D01*
X154416667Y-90452381D01*
X154559524Y-90500000D01*
X154607143Y-90547619D01*
X155559524Y-91452381D02*
X154988095Y-91452381D01*
X155273809Y-91452381D02*
X155273809Y-90452381D01*
X155178571Y-90595238D01*
X155083333Y-90690476D01*
X154988095Y-90738095D01*
X155940476Y-90547619D02*
X155988095Y-90500000D01*
X156083333Y-90452381D01*
X156321429Y-90452381D01*
X156416667Y-90500000D01*
X156464286Y-90547619D01*
X156511905Y-90642857D01*
X156511905Y-90738095D01*
X156464286Y-90880952D01*
X155892857Y-91452381D01*
X156511905Y-91452381D01*
X150557143Y-117557143D02*
X150509524Y-117604762D01*
X150366667Y-117652381D01*
X150271429Y-117652381D01*
X150128571Y-117604762D01*
X150033333Y-117509524D01*
X149985714Y-117414286D01*
X149938095Y-117223810D01*
X149938095Y-117080952D01*
X149985714Y-116890476D01*
X150033333Y-116795238D01*
X150128571Y-116700000D01*
X150271429Y-116652381D01*
X150366667Y-116652381D01*
X150509524Y-116700000D01*
X150557143Y-116747619D01*
X151509524Y-117652381D02*
X150938095Y-117652381D01*
X151223809Y-117652381D02*
X151223809Y-116652381D01*
X151128571Y-116795238D01*
X151033333Y-116890476D01*
X150938095Y-116938095D01*
X151842857Y-116652381D02*
X152461905Y-116652381D01*
X152128571Y-117033333D01*
X152271429Y-117033333D01*
X152366667Y-117080952D01*
X152414286Y-117128571D01*
X152461905Y-117223810D01*
X152461905Y-117461905D01*
X152414286Y-117557143D01*
X152366667Y-117604762D01*
X152271429Y-117652381D01*
X151985714Y-117652381D01*
X151890476Y-117604762D01*
X151842857Y-117557143D01*
X145357143Y-121157143D02*
X145309524Y-121204762D01*
X145166667Y-121252381D01*
X145071429Y-121252381D01*
X144928571Y-121204762D01*
X144833333Y-121109524D01*
X144785714Y-121014286D01*
X144738095Y-120823810D01*
X144738095Y-120680952D01*
X144785714Y-120490476D01*
X144833333Y-120395238D01*
X144928571Y-120300000D01*
X145071429Y-120252381D01*
X145166667Y-120252381D01*
X145309524Y-120300000D01*
X145357143Y-120347619D01*
X146309524Y-121252381D02*
X145738095Y-121252381D01*
X146023809Y-121252381D02*
X146023809Y-120252381D01*
X145928571Y-120395238D01*
X145833333Y-120490476D01*
X145738095Y-120538095D01*
X147166667Y-120585714D02*
X147166667Y-121252381D01*
X146928571Y-120204762D02*
X146690476Y-120919048D01*
X147309524Y-120919048D01*
X160557143Y-125017857D02*
X160604762Y-125065476D01*
X160652381Y-125208333D01*
X160652381Y-125303571D01*
X160604762Y-125446429D01*
X160509524Y-125541667D01*
X160414286Y-125589286D01*
X160223810Y-125636905D01*
X160080952Y-125636905D01*
X159890476Y-125589286D01*
X159795238Y-125541667D01*
X159700000Y-125446429D01*
X159652381Y-125303571D01*
X159652381Y-125208333D01*
X159700000Y-125065476D01*
X159747619Y-125017857D01*
X160652381Y-124065476D02*
X160652381Y-124636905D01*
X160652381Y-124351191D02*
X159652381Y-124351191D01*
X159795238Y-124446429D01*
X159890476Y-124541667D01*
X159938095Y-124636905D01*
X159652381Y-123160714D02*
X159652381Y-123636905D01*
X160128571Y-123684524D01*
X160080952Y-123636905D01*
X160033333Y-123541667D01*
X160033333Y-123303571D01*
X160080952Y-123208333D01*
X160128571Y-123160714D01*
X160223810Y-123113095D01*
X160461905Y-123113095D01*
X160557143Y-123160714D01*
X160604762Y-123208333D01*
X160652381Y-123303571D01*
X160652381Y-123541667D01*
X160604762Y-123636905D01*
X160557143Y-123684524D01*
X142163334Y-93742381D02*
X141830000Y-93266190D01*
X141591905Y-93742381D02*
X141591905Y-92742381D01*
X141972858Y-92742381D01*
X142068096Y-92790000D01*
X142115715Y-92837619D01*
X142163334Y-92932857D01*
X142163334Y-93075714D01*
X142115715Y-93170952D01*
X142068096Y-93218571D01*
X141972858Y-93266190D01*
X141591905Y-93266190D01*
X143068096Y-92742381D02*
X142591905Y-92742381D01*
X142544286Y-93218571D01*
X142591905Y-93170952D01*
X142687143Y-93123333D01*
X142925239Y-93123333D01*
X143020477Y-93170952D01*
X143068096Y-93218571D01*
X143115715Y-93313810D01*
X143115715Y-93551905D01*
X143068096Y-93647143D01*
X143020477Y-93694762D01*
X142925239Y-93742381D01*
X142687143Y-93742381D01*
X142591905Y-93694762D01*
X142544286Y-93647143D01*
X152852381Y-123266666D02*
X152376190Y-123600000D01*
X152852381Y-123838095D02*
X151852381Y-123838095D01*
X151852381Y-123457142D01*
X151900000Y-123361904D01*
X151947619Y-123314285D01*
X152042857Y-123266666D01*
X152185714Y-123266666D01*
X152280952Y-123314285D01*
X152328571Y-123361904D01*
X152376190Y-123457142D01*
X152376190Y-123838095D01*
X152852381Y-122790476D02*
X152852381Y-122600000D01*
X152804762Y-122504761D01*
X152757143Y-122457142D01*
X152614286Y-122361904D01*
X152423810Y-122314285D01*
X152042857Y-122314285D01*
X151947619Y-122361904D01*
X151900000Y-122409523D01*
X151852381Y-122504761D01*
X151852381Y-122695238D01*
X151900000Y-122790476D01*
X151947619Y-122838095D01*
X152042857Y-122885714D01*
X152280952Y-122885714D01*
X152376190Y-122838095D01*
X152423810Y-122790476D01*
X152471429Y-122695238D01*
X152471429Y-122504761D01*
X152423810Y-122409523D01*
X152376190Y-122361904D01*
X152280952Y-122314285D01*
X154677381Y-123517857D02*
X154201190Y-123851191D01*
X154677381Y-124089286D02*
X153677381Y-124089286D01*
X153677381Y-123708333D01*
X153725000Y-123613095D01*
X153772619Y-123565476D01*
X153867857Y-123517857D01*
X154010714Y-123517857D01*
X154105952Y-123565476D01*
X154153571Y-123613095D01*
X154201190Y-123708333D01*
X154201190Y-124089286D01*
X154677381Y-122565476D02*
X154677381Y-123136905D01*
X154677381Y-122851191D02*
X153677381Y-122851191D01*
X153820238Y-122946429D01*
X153915476Y-123041667D01*
X153963095Y-123136905D01*
X153677381Y-121946429D02*
X153677381Y-121851190D01*
X153725000Y-121755952D01*
X153772619Y-121708333D01*
X153867857Y-121660714D01*
X154058333Y-121613095D01*
X154296429Y-121613095D01*
X154486905Y-121660714D01*
X154582143Y-121708333D01*
X154629762Y-121755952D01*
X154677381Y-121851190D01*
X154677381Y-121946429D01*
X154629762Y-122041667D01*
X154582143Y-122089286D01*
X154486905Y-122136905D01*
X154296429Y-122184524D01*
X154058333Y-122184524D01*
X153867857Y-122136905D01*
X153772619Y-122089286D01*
X153725000Y-122041667D01*
X153677381Y-121946429D01*
X141970476Y-94892381D02*
X142637143Y-95892381D01*
X142637143Y-94892381D02*
X141970476Y-95892381D01*
X143541905Y-95892381D02*
X142970476Y-95892381D01*
X143256190Y-95892381D02*
X143256190Y-94892381D01*
X143160952Y-95035238D01*
X143065714Y-95130476D01*
X142970476Y-95178095D01*
X157502381Y-121641666D02*
X157026190Y-121975000D01*
X157502381Y-122213095D02*
X156502381Y-122213095D01*
X156502381Y-121832142D01*
X156550000Y-121736904D01*
X156597619Y-121689285D01*
X156692857Y-121641666D01*
X156835714Y-121641666D01*
X156930952Y-121689285D01*
X156978571Y-121736904D01*
X157026190Y-121832142D01*
X157026190Y-122213095D01*
X156930952Y-121070238D02*
X156883333Y-121165476D01*
X156835714Y-121213095D01*
X156740476Y-121260714D01*
X156692857Y-121260714D01*
X156597619Y-121213095D01*
X156550000Y-121165476D01*
X156502381Y-121070238D01*
X156502381Y-120879761D01*
X156550000Y-120784523D01*
X156597619Y-120736904D01*
X156692857Y-120689285D01*
X156740476Y-120689285D01*
X156835714Y-120736904D01*
X156883333Y-120784523D01*
X156930952Y-120879761D01*
X156930952Y-121070238D01*
X156978571Y-121165476D01*
X157026190Y-121213095D01*
X157121429Y-121260714D01*
X157311905Y-121260714D01*
X157407143Y-121213095D01*
X157454762Y-121165476D01*
X157502381Y-121070238D01*
X157502381Y-120879761D01*
X157454762Y-120784523D01*
X157407143Y-120736904D01*
X157311905Y-120689285D01*
X157121429Y-120689285D01*
X157026190Y-120736904D01*
X156978571Y-120784523D01*
X156930952Y-120879761D01*
X162091667Y-95403571D02*
X161758333Y-95403571D01*
X161758333Y-95927381D02*
X161758333Y-94927381D01*
X162234524Y-94927381D01*
X162520238Y-94927381D02*
X163139286Y-94927381D01*
X162805952Y-95308333D01*
X162948810Y-95308333D01*
X163044048Y-95355952D01*
X163091667Y-95403571D01*
X163139286Y-95498810D01*
X163139286Y-95736905D01*
X163091667Y-95832143D01*
X163044048Y-95879762D01*
X162948810Y-95927381D01*
X162663095Y-95927381D01*
X162567857Y-95879762D01*
X162520238Y-95832143D01*
M02*
