G04 #@! TF.FileFunction,Copper,L1,Top,Signal*
%FSLAX46Y46*%
G04 Gerber Fmt 4.6, Leading zero omitted, Abs format (unit mm)*
G04 Created by KiCad (PCBNEW 4.0.1-stable) date Sunday, January 31, 2016 'PMt' 10:46:38 PM*
%MOMM*%
G01*
G04 APERTURE LIST*
%ADD10C,0.100000*%
%ADD11R,0.850000X0.300000*%
%ADD12R,0.300000X0.850000*%
%ADD13R,1.300000X1.300000*%
%ADD14R,1.200000X0.750000*%
%ADD15R,0.750000X1.200000*%
%ADD16R,0.700000X0.200000*%
%ADD17R,2.000000X1.600000*%
%ADD18R,0.797560X0.797560*%
%ADD19C,1.600000*%
%ADD20R,1.727200X1.727200*%
%ADD21O,1.727200X1.727200*%
%ADD22C,1.524000*%
%ADD23R,0.900000X1.200000*%
%ADD24R,1.200000X0.900000*%
%ADD25R,0.280000X1.500000*%
%ADD26R,1.500000X0.280000*%
%ADD27R,1.060000X0.650000*%
%ADD28R,0.400000X2.100000*%
%ADD29C,0.685800*%
%ADD30C,0.685801*%
%ADD31C,0.152400*%
%ADD32C,0.254000*%
G04 APERTURE END LIST*
D10*
D11*
X140540000Y-97740000D03*
X140540000Y-97240000D03*
X140540000Y-96740000D03*
X140540000Y-96240000D03*
X140540000Y-95740000D03*
X140540000Y-95240000D03*
D12*
X139840000Y-94540000D03*
X139340000Y-94540000D03*
X138840000Y-94540000D03*
X138340000Y-94540000D03*
X137840000Y-94540000D03*
X137340000Y-94540000D03*
D11*
X136640000Y-95240000D03*
X136640000Y-95740000D03*
X136640000Y-96240000D03*
X136640000Y-96740000D03*
X136640000Y-97240000D03*
X136640000Y-97740000D03*
D12*
X137340000Y-98440000D03*
X137840000Y-98440000D03*
X138340000Y-98440000D03*
X138840000Y-98440000D03*
X139340000Y-98440000D03*
X139840000Y-98440000D03*
D13*
X137940000Y-95840000D03*
X137940000Y-97140000D03*
X139240000Y-95840000D03*
X139240000Y-97140000D03*
D14*
X137600000Y-100170000D03*
X139500000Y-100170000D03*
D15*
X135110000Y-96420000D03*
X135110000Y-98320000D03*
D16*
X161190000Y-100200000D03*
X161190000Y-100600000D03*
X161190000Y-101000000D03*
X161190000Y-101400000D03*
X161190000Y-101800000D03*
X161190000Y-102200000D03*
X161190000Y-102600000D03*
X161190000Y-103000000D03*
X161190000Y-103400000D03*
X161190000Y-103800000D03*
X161190000Y-107800000D03*
X161190000Y-107400000D03*
X161190000Y-107000000D03*
X161190000Y-106600000D03*
X161190000Y-106200000D03*
X161190000Y-105800000D03*
X161190000Y-105400000D03*
X161190000Y-105000000D03*
X161190000Y-104600000D03*
X161190000Y-104200000D03*
X161190000Y-108200000D03*
X161190000Y-108600000D03*
X161190000Y-109000000D03*
X161190000Y-109400000D03*
X161190000Y-109800000D03*
X161190000Y-110200000D03*
X161190000Y-110600000D03*
X161190000Y-111000000D03*
X161190000Y-111400000D03*
X161190000Y-111800000D03*
X161190000Y-115800000D03*
X161190000Y-115400000D03*
X161190000Y-115000000D03*
X161190000Y-114600000D03*
X161190000Y-114200000D03*
X161190000Y-113800000D03*
X161190000Y-113400000D03*
X161190000Y-113000000D03*
X161190000Y-112600000D03*
X161190000Y-112200000D03*
X158110000Y-112200000D03*
X158110000Y-112600000D03*
X158110000Y-113000000D03*
X158110000Y-113400000D03*
X158110000Y-113800000D03*
X158110000Y-114200000D03*
X158110000Y-114600000D03*
X158110000Y-115000000D03*
X158110000Y-115400000D03*
X158110000Y-115800000D03*
X158110000Y-111800000D03*
X158110000Y-111400000D03*
X158110000Y-111000000D03*
X158110000Y-110600000D03*
X158110000Y-110200000D03*
X158110000Y-109800000D03*
X158110000Y-109400000D03*
X158110000Y-109000000D03*
X158110000Y-108600000D03*
X158110000Y-108200000D03*
X158110000Y-104200000D03*
X158110000Y-104600000D03*
X158110000Y-105000000D03*
X158110000Y-105400000D03*
X158110000Y-105800000D03*
X158110000Y-106200000D03*
X158110000Y-106600000D03*
X158110000Y-107000000D03*
X158110000Y-107400000D03*
X158110000Y-107800000D03*
X158110000Y-103800000D03*
X158110000Y-103400000D03*
X158110000Y-103000000D03*
X158110000Y-102600000D03*
X158110000Y-102200000D03*
X158110000Y-101800000D03*
X158110000Y-101400000D03*
X158110000Y-101000000D03*
X158110000Y-100600000D03*
X158110000Y-100200000D03*
D15*
X137300000Y-92880000D03*
X137300000Y-90980000D03*
D14*
X131320000Y-98370000D03*
X133220000Y-98370000D03*
X144930000Y-100150000D03*
X143030000Y-100150000D03*
X133910000Y-100020000D03*
X135810000Y-100020000D03*
D15*
X151270000Y-104360000D03*
X151270000Y-102460000D03*
X131330000Y-103570000D03*
X131330000Y-105470000D03*
X131750000Y-115450000D03*
X131750000Y-113550000D03*
D14*
X133140000Y-117750000D03*
X131240000Y-117750000D03*
D17*
X158610000Y-96580000D03*
X154610000Y-96580000D03*
D15*
X153620000Y-94440000D03*
X153620000Y-92540000D03*
X148650000Y-119750000D03*
X148650000Y-117850000D03*
D14*
X146880000Y-119480000D03*
X144980000Y-119480000D03*
X156800000Y-125000000D03*
X158700000Y-125000000D03*
D18*
X152000000Y-90750700D03*
X152000000Y-92249300D03*
X150000000Y-90750700D03*
X150000000Y-92249300D03*
X148000000Y-90750700D03*
X148000000Y-92249300D03*
D19*
X139000000Y-91450000D03*
X145600000Y-91450000D03*
D20*
X146700000Y-124900000D03*
D21*
X146700000Y-122360000D03*
X144160000Y-124900000D03*
X144160000Y-122360000D03*
X141620000Y-124900000D03*
X141620000Y-122360000D03*
X139080000Y-124900000D03*
X139080000Y-122360000D03*
D22*
X164400000Y-97700000D03*
D23*
X152000000Y-97600000D03*
X152000000Y-95400000D03*
X150000000Y-97600000D03*
X150000000Y-95400000D03*
X148000000Y-97600000D03*
X148000000Y-95400000D03*
D24*
X143430000Y-91390000D03*
X141230000Y-91390000D03*
D23*
X150700000Y-122650000D03*
X150700000Y-124850000D03*
D24*
X154850000Y-124990000D03*
X152650000Y-124990000D03*
D25*
X147500000Y-101940000D03*
X147000000Y-101940000D03*
X146500000Y-101940000D03*
X146000000Y-101940000D03*
X145500000Y-101940000D03*
X145000000Y-101940000D03*
X144500000Y-101940000D03*
X144000000Y-101940000D03*
X143500000Y-101940000D03*
X143000000Y-101940000D03*
X142500000Y-101940000D03*
X142000000Y-101940000D03*
X141500000Y-101940000D03*
X141000000Y-101940000D03*
X140500000Y-101940000D03*
X140000000Y-101940000D03*
X139500000Y-101940000D03*
X139000000Y-101940000D03*
X138500000Y-101940000D03*
X138000000Y-101940000D03*
X137500000Y-101940000D03*
X137000000Y-101940000D03*
X136500000Y-101940000D03*
X136000000Y-101940000D03*
X135500000Y-101940000D03*
D26*
X133600000Y-103840000D03*
X133600000Y-104340000D03*
X133600000Y-104840000D03*
X133600000Y-105340000D03*
X133600000Y-105840000D03*
X133600000Y-106340000D03*
X133600000Y-106840000D03*
X133600000Y-107340000D03*
X133600000Y-107840000D03*
X133600000Y-108340000D03*
X133600000Y-108840000D03*
X133600000Y-109340000D03*
X133600000Y-109840000D03*
X133600000Y-110340000D03*
X133600000Y-110840000D03*
X133600000Y-111340000D03*
X133600000Y-111840000D03*
X133600000Y-112340000D03*
X133600000Y-112840000D03*
X133600000Y-113340000D03*
X133600000Y-113840000D03*
X133600000Y-114340000D03*
X133600000Y-114840000D03*
X133600000Y-115340000D03*
X133600000Y-115840000D03*
D25*
X135500000Y-117740000D03*
X136000000Y-117740000D03*
X136500000Y-117740000D03*
X137000000Y-117740000D03*
X137500000Y-117740000D03*
X138000000Y-117740000D03*
X138500000Y-117740000D03*
X139000000Y-117740000D03*
X139500000Y-117740000D03*
X140000000Y-117740000D03*
X140500000Y-117740000D03*
X141000000Y-117740000D03*
X141500000Y-117740000D03*
X142000000Y-117740000D03*
X142500000Y-117740000D03*
X143000000Y-117740000D03*
X143500000Y-117740000D03*
X144000000Y-117740000D03*
X144500000Y-117740000D03*
X145000000Y-117740000D03*
X145500000Y-117740000D03*
X146000000Y-117740000D03*
X146500000Y-117740000D03*
X147000000Y-117740000D03*
X147500000Y-117740000D03*
D26*
X149400000Y-115840000D03*
X149400000Y-115340000D03*
X149400000Y-114840000D03*
X149400000Y-114340000D03*
X149400000Y-113840000D03*
X149400000Y-113340000D03*
X149400000Y-112840000D03*
X149400000Y-112340000D03*
X149400000Y-111840000D03*
X149400000Y-111340000D03*
X149400000Y-110840000D03*
X149400000Y-110340000D03*
X149400000Y-109840000D03*
X149400000Y-109340000D03*
X149400000Y-108840000D03*
X149400000Y-108340000D03*
X149400000Y-107840000D03*
X149400000Y-107340000D03*
X149400000Y-106840000D03*
X149400000Y-106340000D03*
X149400000Y-105840000D03*
X149400000Y-105340000D03*
X149400000Y-104840000D03*
X149400000Y-104340000D03*
X149400000Y-103840000D03*
D27*
X157930000Y-94460000D03*
X157930000Y-93510000D03*
X157930000Y-92560000D03*
X155730000Y-92560000D03*
X155730000Y-94460000D03*
D28*
X144390000Y-97700000D03*
X141990000Y-97700000D03*
X143190000Y-97700000D03*
D29*
X146730065Y-99479559D03*
X143445591Y-104114317D03*
X145595875Y-97404125D03*
X140700000Y-98600000D03*
X156200000Y-95600000D03*
X156900000Y-96000000D03*
X158750000Y-123750000D03*
X153500000Y-123250000D03*
X152820000Y-103420000D03*
X153147437Y-91451520D03*
X132140000Y-99700000D03*
X138370000Y-99360302D03*
X136400000Y-98650000D03*
X131250000Y-102250000D03*
X131750000Y-112250000D03*
X131250000Y-118750000D03*
X154590000Y-92540000D03*
X136130000Y-93780000D03*
X162740000Y-106530000D03*
X162160000Y-106990000D03*
X162770000Y-107390000D03*
X162150000Y-107780000D03*
X162700000Y-108190000D03*
X162130000Y-108590000D03*
X162690000Y-109000000D03*
X162100000Y-109400000D03*
X157070304Y-105230304D03*
X149760000Y-119972643D03*
X149400000Y-122400000D03*
X154500000Y-123000000D03*
X145654667Y-103232980D03*
X150220000Y-102410000D03*
X134020000Y-97020000D03*
X133910000Y-101430000D03*
X142207833Y-100349389D03*
X140760000Y-100370000D03*
X132250000Y-109250000D03*
X133250000Y-118750000D03*
X154600000Y-94830000D03*
X154620000Y-94110000D03*
X154600000Y-90880000D03*
X149730000Y-118220000D03*
D30*
X155759642Y-106155806D03*
D29*
X141000000Y-92910000D03*
X157840000Y-98160000D03*
X159380000Y-98150000D03*
X158600000Y-98140000D03*
X157750000Y-123750000D03*
X156180000Y-107410000D03*
X156850000Y-107770000D03*
X156220000Y-108180000D03*
X156840000Y-108580000D03*
X156230000Y-108980000D03*
X156860000Y-109400000D03*
X147031520Y-95375823D03*
X141580874Y-95509126D03*
X141934396Y-103472667D03*
X145048480Y-109740000D03*
X145107982Y-115926349D03*
X142623734Y-103949543D03*
X144340000Y-95090000D03*
X145700000Y-110310000D03*
X145910000Y-116170000D03*
X136122613Y-115978209D03*
X135431209Y-116452087D03*
D30*
X156749727Y-106418480D03*
D29*
X139110000Y-107290000D03*
D30*
X163197180Y-111170650D03*
D29*
X145600000Y-98500000D03*
X147054688Y-97370230D03*
X140967450Y-103390127D03*
X163700000Y-110500000D03*
X156115373Y-104127015D03*
X148070000Y-104350000D03*
X162486303Y-104269873D03*
D30*
X162070049Y-99079417D03*
D29*
X137800000Y-104070000D03*
D30*
X161999320Y-99914639D03*
D29*
X137384564Y-104798020D03*
D30*
X162797089Y-99657418D03*
D29*
X137964337Y-105473656D03*
D30*
X163050000Y-100510000D03*
D29*
X136534025Y-105601555D03*
X145570000Y-112490000D03*
D30*
X161045015Y-116945501D03*
D29*
X146368480Y-111870000D03*
D30*
X161688037Y-116372672D03*
D29*
X150615704Y-119419437D03*
X139548365Y-119850115D03*
X150604709Y-120257577D03*
X140830000Y-120318480D03*
X153230681Y-108318932D03*
D30*
X163326569Y-114121626D03*
D29*
X154910000Y-110750000D03*
D30*
X163275858Y-113284950D03*
D29*
X154121210Y-109915899D03*
D30*
X162930340Y-112521264D03*
D29*
X158000000Y-120400000D03*
X151170000Y-115540000D03*
D30*
X155644019Y-113619718D03*
D29*
X153500000Y-112650000D03*
D30*
X154850995Y-113891217D03*
D29*
X152540874Y-112720874D03*
D30*
X154897193Y-114728154D03*
D29*
X151167644Y-111601748D03*
X149521037Y-117389743D03*
X144491023Y-116501517D03*
X150578503Y-118270696D03*
X137761390Y-115799570D03*
X151640000Y-118280000D03*
X138540000Y-116110000D03*
D30*
X155068609Y-112748196D03*
D29*
X152390323Y-111896293D03*
D30*
X155842682Y-112426621D03*
D29*
X151620000Y-112760000D03*
X147511520Y-110392211D03*
X151170000Y-110271520D03*
X147263265Y-109538860D03*
X152190000Y-109911520D03*
X142763007Y-110711257D03*
X152460000Y-107811520D03*
X142170301Y-110118553D03*
X151630000Y-108030000D03*
X147325465Y-107670386D03*
X148010000Y-108631522D03*
X149294027Y-99894069D03*
X148699035Y-101951523D03*
X146700000Y-116460000D03*
X146280000Y-113340000D03*
D30*
X154145622Y-100800002D03*
D29*
X148914645Y-102820196D03*
X152841250Y-99908731D03*
X152638212Y-104248692D03*
X153750000Y-99670000D03*
X153448296Y-103974836D03*
X149500000Y-125000000D03*
X144833531Y-103401305D03*
X152020000Y-98850000D03*
X148326987Y-99207035D03*
X143926091Y-103257165D03*
X147492253Y-99130749D03*
X143088970Y-103214409D03*
X134922354Y-105331952D03*
X139600000Y-92650000D03*
X135768844Y-104491957D03*
X138340000Y-92630000D03*
X132838480Y-96990000D03*
X132230000Y-106870000D03*
X135054631Y-104051379D03*
X139330000Y-99299698D03*
X140831276Y-99513227D03*
X138496807Y-103368480D03*
X142229275Y-106340725D03*
D30*
X162395452Y-103126851D03*
D29*
X141493628Y-106742500D03*
D30*
X163160000Y-103660000D03*
D31*
X141490000Y-99020000D02*
X141120000Y-99020000D01*
X141120000Y-99020000D02*
X140700000Y-98600000D01*
X144930000Y-100150000D02*
X144930000Y-99622600D01*
X144930000Y-99622600D02*
X145000000Y-99552600D01*
X145000000Y-99552600D02*
X145000000Y-97281399D01*
X146059624Y-100150000D02*
X146387166Y-99822458D01*
X144930000Y-100150000D02*
X146059624Y-100150000D01*
X146387166Y-99822458D02*
X146730065Y-99479559D01*
X145000000Y-97293183D02*
X145110942Y-97404125D01*
X145110942Y-97404125D02*
X145595875Y-97404125D01*
X145000000Y-97281399D02*
X145000000Y-97293183D01*
X140540000Y-98440000D02*
X140700000Y-98600000D01*
X140540000Y-97740000D02*
X140540000Y-98440000D01*
X143000000Y-101438518D02*
X143000000Y-101000000D01*
X143000000Y-101000000D02*
X143100000Y-100900000D01*
X143100000Y-100900000D02*
X143955000Y-100900000D01*
X143955000Y-100900000D02*
X144705000Y-100150000D01*
X144705000Y-100150000D02*
X144930000Y-100150000D01*
X145000000Y-97281399D02*
X145000000Y-96440000D01*
X145000000Y-96440000D02*
X144730000Y-96170000D01*
X144730000Y-96170000D02*
X143440000Y-96170000D01*
X143440000Y-96170000D02*
X143190000Y-96420000D01*
D32*
X156200000Y-96244000D02*
X155864000Y-96580000D01*
X156820000Y-95624000D02*
X156200000Y-96244000D01*
D31*
X156200000Y-96244000D02*
X156200000Y-95600000D01*
X156820000Y-95624000D02*
X156820000Y-95920000D01*
X156820000Y-95920000D02*
X156900000Y-96000000D01*
X158700000Y-125000000D02*
X158700000Y-123800000D01*
X158700000Y-123800000D02*
X158750000Y-123750000D01*
X149400000Y-104340000D02*
X151250000Y-104340000D01*
X151250000Y-104340000D02*
X151270000Y-104360000D01*
X151270000Y-104360000D02*
X151270000Y-104135000D01*
X151270000Y-104135000D02*
X151985000Y-103420000D01*
X151985000Y-103420000D02*
X152820000Y-103420000D01*
X153283920Y-91451520D02*
X153147437Y-91451520D01*
X153620000Y-92540000D02*
X153620000Y-91787600D01*
X153620000Y-91787600D02*
X153283920Y-91451520D01*
X133910000Y-100020000D02*
X132460000Y-100020000D01*
X132460000Y-100020000D02*
X132140000Y-99700000D01*
X131320000Y-98370000D02*
X131320000Y-98897400D01*
X131320000Y-98897400D02*
X132122600Y-99700000D01*
X132122600Y-99700000D02*
X132140000Y-99700000D01*
X137600000Y-100170000D02*
X137600000Y-100130302D01*
X137600000Y-100130302D02*
X138370000Y-99360302D01*
X135110000Y-98320000D02*
X136070000Y-98320000D01*
X136070000Y-98320000D02*
X136400000Y-98650000D01*
X138000000Y-101940000D02*
X138000000Y-100570000D01*
X138000000Y-100570000D02*
X137600000Y-100170000D01*
X131330000Y-103570000D02*
X131330000Y-102330000D01*
X131330000Y-102330000D02*
X131250000Y-102250000D01*
X131330000Y-103570000D02*
X131857400Y-103570000D01*
X131857400Y-103570000D02*
X132627400Y-104340000D01*
X132627400Y-104340000D02*
X132697600Y-104340000D01*
X132697600Y-104340000D02*
X133600000Y-104340000D01*
X131750000Y-113550000D02*
X131750000Y-112250000D01*
X131240000Y-117750000D02*
X131240000Y-118740000D01*
X131240000Y-118740000D02*
X131250000Y-118750000D01*
X153620000Y-92540000D02*
X154590000Y-92540000D01*
X137657400Y-93780000D02*
X136130000Y-93780000D01*
X137840000Y-94540000D02*
X137840000Y-93962600D01*
X137840000Y-93962600D02*
X137657400Y-93780000D01*
D32*
X156820000Y-93836000D02*
X156820000Y-95624000D01*
X155864000Y-96580000D02*
X154610000Y-96580000D01*
X157930000Y-93510000D02*
X157146000Y-93510000D01*
X157146000Y-93510000D02*
X156820000Y-93836000D01*
D31*
X162740000Y-106530000D02*
X161260000Y-106530000D01*
X161260000Y-106530000D02*
X161190000Y-106600000D01*
X161190000Y-107000000D02*
X162150000Y-107000000D01*
X162150000Y-107000000D02*
X162160000Y-106990000D01*
X162770000Y-107390000D02*
X161200000Y-107390000D01*
X161200000Y-107390000D02*
X161190000Y-107400000D01*
X161190000Y-107800000D02*
X162130000Y-107800000D01*
X162130000Y-107800000D02*
X162150000Y-107780000D01*
X162700000Y-108190000D02*
X161200000Y-108190000D01*
X161200000Y-108190000D02*
X161190000Y-108200000D01*
X161190000Y-108600000D02*
X162120000Y-108600000D01*
X162120000Y-108600000D02*
X162130000Y-108590000D01*
X162690000Y-109000000D02*
X161190000Y-109000000D01*
X161190000Y-109400000D02*
X162100000Y-109400000D01*
X158110000Y-105400000D02*
X157240000Y-105400000D01*
X157240000Y-105400000D02*
X157070304Y-105230304D01*
X158110000Y-105000000D02*
X157300608Y-105000000D01*
X157300608Y-105000000D02*
X157070304Y-105230304D01*
X149537357Y-119750000D02*
X149760000Y-119972643D01*
X148650000Y-119750000D02*
X149537357Y-119750000D01*
X148650000Y-119750000D02*
X147150000Y-119750000D01*
X147150000Y-119750000D02*
X146880000Y-119480000D01*
X146880000Y-119480000D02*
X146880000Y-117860000D01*
X146880000Y-117860000D02*
X147000000Y-117740000D01*
X136640000Y-97740000D02*
X135690000Y-97740000D01*
X135690000Y-97740000D02*
X135110000Y-98320000D01*
X143190000Y-96420000D02*
X142870000Y-96100000D01*
X142870000Y-96100000D02*
X141770000Y-96100000D01*
X141770000Y-96100000D02*
X141490000Y-96380000D01*
X141490000Y-96380000D02*
X141490000Y-99020000D01*
X139000000Y-91450000D02*
X137770000Y-91450000D01*
X137770000Y-91450000D02*
X137300000Y-90980000D01*
X143190000Y-96420000D02*
X143190000Y-97700000D01*
X144485000Y-100300000D02*
X144710000Y-100300000D01*
X143190000Y-98030000D02*
X143190000Y-97180000D01*
X143190000Y-97180000D02*
X143180000Y-97170000D01*
X138340000Y-94540000D02*
X138340000Y-93920000D01*
X138340000Y-93920000D02*
X137300000Y-92880000D01*
X150700000Y-122650000D02*
X149650000Y-122650000D01*
X149650000Y-122650000D02*
X149400000Y-122400000D01*
X150700000Y-122650000D02*
X154150000Y-122650000D01*
X154150000Y-122650000D02*
X154500000Y-123000000D01*
X145567506Y-103232980D02*
X145654667Y-103232980D01*
X145000000Y-101940000D02*
X145000000Y-102665474D01*
X145000000Y-102665474D02*
X145567506Y-103232980D01*
X142500000Y-101940000D02*
X142500000Y-100680000D01*
X142500000Y-100680000D02*
X143030000Y-100150000D01*
X149400000Y-103840000D02*
X150300000Y-103840000D01*
X150300000Y-103840000D02*
X150742600Y-103397400D01*
X150742600Y-103397400D02*
X150742600Y-102460000D01*
X150742600Y-102460000D02*
X151270000Y-102460000D01*
X151270000Y-102460000D02*
X150270000Y-102460000D01*
X150270000Y-102460000D02*
X150220000Y-102410000D01*
X150000000Y-90750700D02*
X148000000Y-90750700D01*
X152000000Y-90750700D02*
X150000000Y-90750700D01*
X154600000Y-90880000D02*
X152129300Y-90880000D01*
X152129300Y-90880000D02*
X152000000Y-90750700D01*
X135110000Y-96420000D02*
X134620000Y-96420000D01*
X134620000Y-96420000D02*
X134020000Y-97020000D01*
X134175000Y-101430000D02*
X133910000Y-101430000D01*
X135585000Y-100020000D02*
X134175000Y-101430000D01*
X135810000Y-100020000D02*
X135585000Y-100020000D01*
X142277600Y-100150000D02*
X142207833Y-100219767D01*
X142207833Y-100219767D02*
X142207833Y-100349389D01*
X143030000Y-100150000D02*
X142277600Y-100150000D01*
X139500000Y-100170000D02*
X140560000Y-100170000D01*
X140560000Y-100170000D02*
X140760000Y-100370000D01*
X137500000Y-101940000D02*
X137500000Y-101040000D01*
X137500000Y-101040000D02*
X137320000Y-100860000D01*
X137320000Y-100860000D02*
X136830000Y-100860000D01*
X136830000Y-100860000D02*
X136830000Y-100867600D01*
X136830000Y-100867600D02*
X136727600Y-100867600D01*
X136727600Y-100867600D02*
X135880000Y-100020000D01*
X135880000Y-100020000D02*
X135810000Y-100020000D01*
X137000000Y-101940000D02*
X137000000Y-101037600D01*
X137000000Y-101037600D02*
X136830000Y-100867600D01*
X139500000Y-100170000D02*
X139275000Y-100170000D01*
X139275000Y-100170000D02*
X138500000Y-100945000D01*
X138500000Y-100945000D02*
X138500000Y-101037600D01*
X138500000Y-101037600D02*
X138500000Y-101940000D01*
X131907101Y-108907101D02*
X132250000Y-109250000D01*
X131330000Y-105470000D02*
X131330000Y-108330000D01*
X131330000Y-108330000D02*
X131907101Y-108907101D01*
X131330000Y-105470000D02*
X131857400Y-105470000D01*
X131857400Y-105470000D02*
X132487400Y-104840000D01*
X132487400Y-104840000D02*
X132697600Y-104840000D01*
X132697600Y-104840000D02*
X133600000Y-104840000D01*
X133140000Y-117750000D02*
X133140000Y-118640000D01*
X133140000Y-118640000D02*
X133250000Y-118750000D01*
X133140000Y-117750000D02*
X133140000Y-117222600D01*
X133140000Y-117222600D02*
X133600000Y-116762600D01*
X133600000Y-116762600D02*
X133600000Y-115840000D01*
X154600000Y-94830000D02*
X154010000Y-94830000D01*
X154010000Y-94830000D02*
X153620000Y-94440000D01*
X154620000Y-94110000D02*
X153950000Y-94110000D01*
X153950000Y-94110000D02*
X153620000Y-94440000D01*
X154970000Y-94460000D02*
X154600000Y-94830000D01*
X155730000Y-94460000D02*
X154970000Y-94460000D01*
X154970000Y-94460000D02*
X154620000Y-94110000D01*
X158110316Y-106224000D02*
X157554000Y-106224000D01*
X157554000Y-106224000D02*
X157460000Y-106130000D01*
X157460000Y-106130000D02*
X157460000Y-105846978D01*
X157460000Y-105846978D02*
X156068470Y-105846978D01*
X158110000Y-105800000D02*
X157607600Y-105800000D01*
X157607600Y-105800000D02*
X157560622Y-105846978D01*
X157560622Y-105846978D02*
X157460000Y-105846978D01*
X156068470Y-105846978D02*
X155759642Y-106155806D01*
X149020000Y-118220000D02*
X149730000Y-118220000D01*
X148650000Y-117850000D02*
X149020000Y-118220000D01*
X148650000Y-117850000D02*
X147610000Y-117850000D01*
X147610000Y-117850000D02*
X147500000Y-117740000D01*
X135110000Y-96420000D02*
X135110000Y-96192600D01*
X135110000Y-96192600D02*
X136062600Y-95240000D01*
X136062600Y-95240000D02*
X136640000Y-95240000D01*
X141230000Y-91390000D02*
X141230000Y-92680000D01*
X141230000Y-92680000D02*
X141000000Y-92910000D01*
X133572600Y-99250000D02*
X137607400Y-99250000D01*
X137607400Y-99250000D02*
X137840000Y-99017400D01*
X137840000Y-99017400D02*
X137840000Y-98440000D01*
X133220000Y-98370000D02*
X133220000Y-98897400D01*
X133220000Y-98897400D02*
X133572600Y-99250000D01*
X133600000Y-115340000D02*
X131860000Y-115340000D01*
X131860000Y-115340000D02*
X131750000Y-115450000D01*
X158610000Y-96580000D02*
X163280000Y-96580000D01*
X163280000Y-96580000D02*
X164400000Y-97700000D01*
X159106000Y-94852000D02*
X159106000Y-93053600D01*
X159106000Y-93053600D02*
X158612400Y-92560000D01*
X158612400Y-92560000D02*
X157930000Y-92560000D01*
D32*
X159106000Y-95030000D02*
X159106000Y-94852000D01*
X159106000Y-94852000D02*
X158714000Y-94460000D01*
X158714000Y-94460000D02*
X157930000Y-94460000D01*
X158610000Y-96580000D02*
X158610000Y-95526000D01*
X158610000Y-95526000D02*
X159106000Y-95030000D01*
X157840000Y-98160000D02*
X157840000Y-97350000D01*
X157840000Y-97350000D02*
X158610000Y-96580000D01*
X159380000Y-98150000D02*
X159380000Y-97350000D01*
X159380000Y-97350000D02*
X158610000Y-96580000D01*
X158600000Y-98140000D02*
X158600000Y-96590000D01*
X158600000Y-96590000D02*
X158610000Y-96580000D01*
D31*
X144980000Y-119480000D02*
X145205000Y-119480000D01*
X145205000Y-119480000D02*
X145732400Y-118952600D01*
X145732400Y-118952600D02*
X145897400Y-118952600D01*
X145897400Y-118952600D02*
X146050000Y-118800000D01*
X146050000Y-118800000D02*
X146390000Y-118800000D01*
X146390000Y-118800000D02*
X146500000Y-118690000D01*
X146500000Y-118690000D02*
X146500000Y-118350000D01*
X146500000Y-118350000D02*
X146500000Y-117740000D01*
X156800000Y-125000000D02*
X157025000Y-125000000D01*
X157025000Y-125000000D02*
X157750000Y-124275000D01*
X157750000Y-124275000D02*
X157750000Y-123750000D01*
X156800000Y-125000000D02*
X154860000Y-125000000D01*
X154860000Y-125000000D02*
X154850000Y-124990000D01*
X152000000Y-92249300D02*
X152000000Y-95400000D01*
X150000000Y-95400000D02*
X150000000Y-92249300D01*
X148000000Y-95400000D02*
X148000000Y-94647600D01*
X148000000Y-94647600D02*
X148000000Y-92249300D01*
X158110000Y-107400000D02*
X156190000Y-107400000D01*
X156190000Y-107400000D02*
X156180000Y-107410000D01*
X156850000Y-107770000D02*
X158080000Y-107770000D01*
X158080000Y-107770000D02*
X158110000Y-107800000D01*
X158110000Y-108200000D02*
X156240000Y-108200000D01*
X156240000Y-108200000D02*
X156220000Y-108180000D01*
X156840000Y-108580000D02*
X158090000Y-108580000D01*
X158090000Y-108580000D02*
X158110000Y-108600000D01*
X158110000Y-109000000D02*
X156250000Y-109000000D01*
X156250000Y-109000000D02*
X156230000Y-108980000D01*
X156860000Y-109400000D02*
X158110000Y-109400000D01*
X158110316Y-107824000D02*
X158046368Y-107760052D01*
D32*
X146683923Y-95723420D02*
X146688621Y-95718722D01*
X142065807Y-95509126D02*
X142280101Y-95723420D01*
X141580874Y-95509126D02*
X142065807Y-95509126D01*
X142280101Y-95723420D02*
X146683923Y-95723420D01*
X146688621Y-95718722D02*
X147031520Y-95375823D01*
D31*
X145048480Y-107304100D02*
X141934396Y-104190016D01*
X141934396Y-103957600D02*
X141934396Y-103472667D01*
X145048480Y-109740000D02*
X145048480Y-107304100D01*
X141934396Y-104190016D02*
X141934396Y-103957600D01*
X145107982Y-116729618D02*
X145107982Y-115926349D01*
X145000000Y-116837600D02*
X145107982Y-116729618D01*
X145000000Y-117740000D02*
X145000000Y-116837600D01*
X142623734Y-104279556D02*
X142623734Y-103949543D01*
X145700000Y-107355822D02*
X142623734Y-104279556D01*
X145700000Y-110310000D02*
X145700000Y-107355822D01*
X144340000Y-95090000D02*
X143430000Y-94180000D01*
X143430000Y-94180000D02*
X143430000Y-91390000D01*
X145500000Y-116580000D02*
X145910000Y-116170000D01*
X145500000Y-117740000D02*
X145500000Y-116580000D01*
X136120000Y-115975596D02*
X136122613Y-115978209D01*
X134502400Y-110840000D02*
X136120000Y-112457600D01*
X133600000Y-110840000D02*
X134502400Y-110840000D01*
X136120000Y-112457600D02*
X136120000Y-115975596D01*
X135548498Y-116334798D02*
X135431209Y-116452087D01*
X134502400Y-111840000D02*
X135560000Y-112897600D01*
X133600000Y-111840000D02*
X134502400Y-111840000D01*
X135560000Y-115694176D02*
X135548498Y-115705678D01*
X135548498Y-115705678D02*
X135548498Y-116334798D01*
X135560000Y-112897600D02*
X135560000Y-115694176D01*
X137247799Y-121237799D02*
X140497799Y-121237799D01*
X140497799Y-121237799D02*
X141620000Y-122360000D01*
X134854899Y-116317650D02*
X134854899Y-118844899D01*
X134854899Y-118844899D02*
X137247799Y-121237799D01*
X134502400Y-112840000D02*
X135180000Y-113517600D01*
X135180000Y-113517600D02*
X135180000Y-115851235D01*
X135180000Y-115851235D02*
X134883412Y-116147823D01*
X133600000Y-112840000D02*
X134502400Y-112840000D01*
X134883412Y-116289137D02*
X134854899Y-116317650D01*
X134883412Y-116147823D02*
X134883412Y-116289137D01*
X133600000Y-113340000D02*
X134502400Y-113340000D01*
X134502400Y-113340000D02*
X134830000Y-113667600D01*
X134830000Y-113667600D02*
X134830000Y-115770169D01*
X134830000Y-115770169D02*
X134578601Y-116021567D01*
X134578601Y-116021567D02*
X134578601Y-116162881D01*
X134578601Y-116162881D02*
X134550088Y-116191394D01*
X134550088Y-116191394D02*
X134550088Y-120071402D01*
X134550088Y-120071402D02*
X136838686Y-122360000D01*
X136838686Y-122360000D02*
X139080000Y-122360000D01*
X158110316Y-107024000D02*
X157355247Y-107024000D01*
X157092626Y-106761379D02*
X156749727Y-106418480D01*
X157355247Y-107024000D02*
X157092626Y-106761379D01*
X139110000Y-107290000D02*
X138560000Y-107840000D01*
X138560000Y-107840000D02*
X133600000Y-107840000D01*
X161190316Y-110176401D02*
X161540316Y-110176401D01*
X161540316Y-110176401D02*
X162534565Y-111170650D01*
X162534565Y-111170650D02*
X162712247Y-111170650D01*
X162712247Y-111170650D02*
X163197180Y-111170650D01*
X145924918Y-98500000D02*
X145600000Y-98500000D01*
X147054688Y-97370230D02*
X145924918Y-98500000D01*
X141000000Y-101940000D02*
X141000000Y-103357577D01*
X141000000Y-103357577D02*
X140967450Y-103390127D01*
X163156768Y-110500000D02*
X163215067Y-110500000D01*
X163215067Y-110500000D02*
X163700000Y-110500000D01*
X163108384Y-110451616D02*
X163156768Y-110500000D01*
X155630440Y-104127015D02*
X156115373Y-104127015D01*
X152144431Y-106275569D02*
X154292985Y-104127015D01*
X154292985Y-104127015D02*
X155630440Y-104127015D01*
X149400000Y-106840000D02*
X151056799Y-106840000D01*
X151621230Y-106275569D02*
X152144431Y-106275569D01*
X151056799Y-106840000D02*
X151621230Y-106275569D01*
X148030325Y-104625262D02*
X148030325Y-104389675D01*
X148030325Y-104389675D02*
X148070000Y-104350000D01*
X163930000Y-105713570D02*
X162829202Y-104612772D01*
X163108384Y-110451616D02*
X163930000Y-109630000D01*
X162355606Y-110108717D02*
X162698505Y-110451616D01*
X162698505Y-110451616D02*
X163108384Y-110451616D01*
X162829202Y-104612772D02*
X162486303Y-104269873D01*
X161918363Y-110108717D02*
X162355606Y-110108717D01*
X161586047Y-109776401D02*
X161918363Y-110108717D01*
X163930000Y-109630000D02*
X163930000Y-105713570D01*
X161190316Y-109776401D02*
X161586047Y-109776401D01*
X148030325Y-104625262D02*
X148037943Y-104617644D01*
X148497600Y-106840000D02*
X148030325Y-106372725D01*
X148030325Y-106372725D02*
X148030325Y-104625262D01*
X149400000Y-106840000D02*
X148497600Y-106840000D01*
X161585116Y-99079417D02*
X162070049Y-99079417D01*
X161045015Y-99619518D02*
X161585116Y-99079417D01*
X161045015Y-100200200D02*
X161045015Y-99619518D01*
X137727600Y-104070000D02*
X137800000Y-104070000D01*
X136500000Y-101940000D02*
X136500000Y-102842400D01*
X136500000Y-102842400D02*
X137727600Y-104070000D01*
X161664323Y-100624000D02*
X161999320Y-100289003D01*
X161190316Y-100624000D02*
X161664323Y-100624000D01*
X161999320Y-100289003D02*
X161999320Y-99914639D01*
X137228498Y-104641954D02*
X137384564Y-104798020D01*
X136000000Y-103002247D02*
X137228498Y-104230745D01*
X137228498Y-104230745D02*
X137228498Y-104641954D01*
X136000000Y-101940000D02*
X136000000Y-103002247D01*
X162797089Y-99947844D02*
X162797089Y-99657418D01*
X161720933Y-101024000D02*
X162797089Y-99947844D01*
X161190316Y-101024000D02*
X161720933Y-101024000D01*
X137479404Y-105473656D02*
X137964337Y-105473656D01*
X136813062Y-105060473D02*
X137226245Y-105473656D01*
X135500000Y-101940000D02*
X135500000Y-102933313D01*
X136813062Y-104246375D02*
X136813062Y-105060473D01*
X137226245Y-105473656D02*
X137479404Y-105473656D01*
X135500000Y-102933313D02*
X136813062Y-104246375D01*
X162223894Y-101336106D02*
X162707101Y-100852899D01*
X161278210Y-101336106D02*
X162223894Y-101336106D01*
X162707101Y-100852899D02*
X163050000Y-100510000D01*
X161190316Y-101424000D02*
X161278210Y-101336106D01*
X134575189Y-103474811D02*
X135610430Y-103474811D01*
X134210000Y-103840000D02*
X134575189Y-103474811D01*
X136348091Y-105415621D02*
X136534025Y-105601555D01*
X136348091Y-104212472D02*
X136348091Y-105415621D01*
X135610430Y-103474811D02*
X136348091Y-104212472D01*
X133600000Y-103840000D02*
X134210000Y-103840000D01*
X165130917Y-101640917D02*
X161742363Y-101640917D01*
X157346911Y-121885934D02*
X160228333Y-121885934D01*
X161742363Y-101640917D02*
X161559280Y-101824000D01*
X160228333Y-121885934D02*
X165429242Y-116685025D01*
X142467347Y-121140003D02*
X147250321Y-121140003D01*
X140604578Y-119746978D02*
X141074322Y-119746978D01*
X147250321Y-121140003D02*
X147931717Y-121821399D01*
X139500000Y-117740000D02*
X139500000Y-118642400D01*
X157282376Y-121821399D02*
X157346911Y-121885934D01*
X161559280Y-101824000D02*
X161190316Y-101824000D01*
X165429242Y-116685025D02*
X165429242Y-109890219D01*
X141074322Y-119746978D02*
X142467347Y-121140003D01*
X165239244Y-109700221D02*
X165239244Y-101749244D01*
X165239244Y-101749244D02*
X165130917Y-101640917D01*
X139500000Y-118642400D02*
X140604578Y-119746978D01*
X165429242Y-109890219D02*
X165239244Y-109700221D01*
X147931717Y-121821399D02*
X157282376Y-121821399D01*
X165124431Y-116558769D02*
X165124431Y-110016475D01*
X157473167Y-121581123D02*
X160102077Y-121581123D01*
X164844433Y-102461745D02*
X164328416Y-101945728D01*
X160102077Y-121581123D02*
X165124431Y-116558769D01*
X141230578Y-119442167D02*
X142623603Y-120835192D01*
X161590347Y-102224000D02*
X161190316Y-102224000D01*
X161868619Y-101945728D02*
X161590347Y-102224000D01*
X140000000Y-117740000D02*
X140000000Y-118642400D01*
X142623603Y-120835192D02*
X147376577Y-120835192D01*
X147376577Y-120835192D02*
X148057973Y-121516588D01*
X157408632Y-121516588D02*
X157473167Y-121581123D01*
X164844433Y-109736477D02*
X164844433Y-102461745D01*
X148057973Y-121516588D02*
X157408632Y-121516588D01*
X164328416Y-101945728D02*
X161868619Y-101945728D01*
X140000000Y-118642400D02*
X140799767Y-119442167D01*
X140799767Y-119442167D02*
X141230578Y-119442167D01*
X165124431Y-110016475D02*
X164844433Y-109736477D01*
X164819620Y-110142731D02*
X164539622Y-109862733D01*
X164539622Y-109862733D02*
X164539622Y-103489622D01*
X161994875Y-102250539D02*
X161621414Y-102624000D01*
X163300539Y-102250539D02*
X161994875Y-102250539D01*
X164539622Y-103489622D02*
X163300539Y-102250539D01*
X141356834Y-119137356D02*
X142749859Y-120530381D01*
X140500000Y-117740000D02*
X140500000Y-118642400D01*
X140500000Y-118642400D02*
X140994956Y-119137356D01*
X159975821Y-121276312D02*
X164819620Y-116432513D01*
X157534888Y-121211777D02*
X157599423Y-121276312D01*
X164819620Y-116432513D02*
X164819620Y-110142731D01*
X161621414Y-102624000D02*
X161190316Y-102624000D01*
X148184229Y-121211777D02*
X157534888Y-121211777D01*
X142749859Y-120530381D02*
X147502833Y-120530381D01*
X147502833Y-120530381D02*
X148184229Y-121211777D01*
X140994956Y-119137356D02*
X141356834Y-119137356D01*
X157599423Y-121276312D02*
X159975821Y-121276312D01*
X141190145Y-118832545D02*
X141483090Y-118832545D01*
X164234811Y-103615878D02*
X163174283Y-102555350D01*
X141483090Y-118832545D02*
X142876115Y-120225570D01*
X157725679Y-120971501D02*
X159849565Y-120971501D01*
X147629089Y-120225570D02*
X148310485Y-120906966D01*
X142876115Y-120225570D02*
X147629089Y-120225570D01*
X141000000Y-118642400D02*
X141190145Y-118832545D01*
X148310485Y-120906966D02*
X157661144Y-120906966D01*
X161652481Y-103024000D02*
X161190316Y-103024000D01*
X164514809Y-110268987D02*
X164234811Y-109988989D01*
X141000000Y-117740000D02*
X141000000Y-118642400D01*
X163174283Y-102555350D02*
X162121131Y-102555350D01*
X164234811Y-109988989D02*
X164234811Y-103615878D01*
X157661144Y-120906966D02*
X157725679Y-120971501D01*
X162121131Y-102555350D02*
X161652481Y-103024000D01*
X164514809Y-116306257D02*
X164514809Y-110268987D01*
X159849565Y-120971501D02*
X164514809Y-116306257D01*
X145227101Y-112147101D02*
X145570000Y-112490000D01*
X139068308Y-105988308D02*
X145227101Y-112147101D01*
X139068308Y-102910708D02*
X139068308Y-105988308D01*
X139000000Y-101940000D02*
X139000000Y-102842400D01*
X139000000Y-102842400D02*
X139068308Y-102910708D01*
X161045015Y-115800200D02*
X161045015Y-116945501D01*
X145793731Y-111870000D02*
X145883547Y-111870000D01*
X139500000Y-101940000D02*
X139500000Y-105576269D01*
X139500000Y-105576269D02*
X145793731Y-111870000D01*
X145883547Y-111870000D02*
X146368480Y-111870000D01*
X161768601Y-116292108D02*
X161688037Y-116372672D01*
X161768601Y-115517119D02*
X161768601Y-116292108D01*
X161190316Y-115376401D02*
X161627883Y-115376401D01*
X161627883Y-115376401D02*
X161768601Y-115517119D01*
X161190316Y-114976401D02*
X161952207Y-114976401D01*
X162441052Y-115465246D02*
X162441052Y-116427882D01*
X150958603Y-119076538D02*
X150615704Y-119419437D01*
X151170316Y-118864825D02*
X150958603Y-119076538D01*
X161952207Y-114976401D02*
X162441052Y-115465246D01*
X162441052Y-116427882D02*
X160888552Y-117980380D01*
X160888552Y-117980380D02*
X158337094Y-117980380D01*
X158337094Y-117980380D02*
X157452649Y-118864825D01*
X157452649Y-118864825D02*
X151170316Y-118864825D01*
X139063432Y-119850115D02*
X139548365Y-119850115D01*
X136000000Y-118642400D02*
X137207715Y-119850115D01*
X137207715Y-119850115D02*
X139063432Y-119850115D01*
X136000000Y-117740000D02*
X136000000Y-118642400D01*
X161190316Y-114576401D02*
X162281468Y-114576401D01*
X162575067Y-114870000D02*
X163060000Y-114870000D01*
X163060000Y-116240000D02*
X161014809Y-118285191D01*
X162281468Y-114576401D02*
X162575067Y-114870000D01*
X161014809Y-118285191D02*
X158463350Y-118285191D01*
X151547097Y-119315189D02*
X150604709Y-120257577D01*
X157433352Y-119315189D02*
X151547097Y-119315189D01*
X163060000Y-114870000D02*
X163060000Y-116240000D01*
X158463350Y-118285191D02*
X157433352Y-119315189D01*
X135500000Y-118642400D02*
X137728979Y-120871379D01*
X135500000Y-117740000D02*
X135500000Y-118642400D01*
X140487101Y-120661379D02*
X140830000Y-120318480D01*
X137728979Y-120871379D02*
X140277101Y-120871379D01*
X140277101Y-120871379D02*
X140487101Y-120661379D01*
X151004178Y-108340000D02*
X151295679Y-108631501D01*
X152433179Y-108631501D02*
X152745748Y-108318932D01*
X151295679Y-108631501D02*
X152433179Y-108631501D01*
X152745748Y-108318932D02*
X153230681Y-108318932D01*
X149400000Y-108340000D02*
X151004178Y-108340000D01*
X162841636Y-114121626D02*
X163326569Y-114121626D01*
X161190316Y-114176401D02*
X162786861Y-114176401D01*
X162786861Y-114176401D02*
X162841636Y-114121626D01*
X154910000Y-110265067D02*
X154910000Y-110750000D01*
X154750378Y-110105445D02*
X154910000Y-110265067D01*
X154750378Y-109692512D02*
X154750378Y-110105445D01*
X150398712Y-108936312D02*
X153994178Y-108936312D01*
X150302400Y-108840000D02*
X150398712Y-108936312D01*
X149400000Y-108840000D02*
X150302400Y-108840000D01*
X153994178Y-108936312D02*
X154750378Y-109692512D01*
X162784407Y-113776401D02*
X162932959Y-113627849D01*
X161190316Y-113776401D02*
X162784407Y-113776401D01*
X162932959Y-113627849D02*
X163275858Y-113284950D01*
X149400000Y-109340000D02*
X153545311Y-109340000D01*
X153545311Y-109340000D02*
X153778311Y-109573000D01*
X153778311Y-109573000D02*
X154121210Y-109915899D01*
X162075203Y-113376401D02*
X162587441Y-112864163D01*
X162587441Y-112864163D02*
X162930340Y-112521264D01*
X161190316Y-113376401D02*
X162075203Y-113376401D01*
X158484933Y-120400000D02*
X158000000Y-120400000D01*
X159990000Y-120400000D02*
X158484933Y-120400000D01*
X164170000Y-112030000D02*
X164170000Y-116220000D01*
X161642425Y-112976401D02*
X162669082Y-111949744D01*
X162669082Y-111949744D02*
X164089744Y-111949744D01*
X164170000Y-116220000D02*
X159990000Y-120400000D01*
X164089744Y-111949744D02*
X164170000Y-112030000D01*
X161190316Y-112976401D02*
X161642425Y-112976401D01*
X149400000Y-115340000D02*
X150970000Y-115340000D01*
X150970000Y-115340000D02*
X151170000Y-115540000D01*
X156567071Y-113032911D02*
X155980264Y-113619718D01*
X158024342Y-112262375D02*
X157425807Y-112262375D01*
X157425807Y-112262375D02*
X156655271Y-113032911D01*
X155980264Y-113619718D02*
X155644019Y-113619718D01*
X158110316Y-112176401D02*
X158024342Y-112262375D01*
X156655271Y-113032911D02*
X156567071Y-113032911D01*
X150952400Y-114190000D02*
X151960000Y-114190000D01*
X151960000Y-114190000D02*
X153500000Y-112650000D01*
X149400000Y-114840000D02*
X150302400Y-114840000D01*
X150302400Y-114840000D02*
X150952400Y-114190000D01*
X155869871Y-114234116D02*
X155193894Y-114234116D01*
X158110316Y-112576401D02*
X157542848Y-112576401D01*
X156781527Y-113337722D02*
X156766265Y-113337722D01*
X155193894Y-114234116D02*
X154850995Y-113891217D01*
X156766265Y-113337722D02*
X155869871Y-114234116D01*
X157542848Y-112576401D02*
X156781527Y-113337722D01*
X152197975Y-113063773D02*
X152540874Y-112720874D01*
X150371333Y-114340000D02*
X150826144Y-113885189D01*
X149400000Y-114340000D02*
X150371333Y-114340000D01*
X150826144Y-113885189D02*
X151376559Y-113885189D01*
X151376559Y-113885189D02*
X152197975Y-113063773D01*
X158110316Y-112976401D02*
X157573915Y-112976401D01*
X156907783Y-113642533D02*
X156892521Y-113642533D01*
X157573915Y-112976401D02*
X156907783Y-113642533D01*
X155806900Y-114728154D02*
X155382126Y-114728154D01*
X155382126Y-114728154D02*
X154897193Y-114728154D01*
X156892521Y-113642533D02*
X155806900Y-114728154D01*
X150405896Y-110840000D02*
X150824745Y-111258849D01*
X150824745Y-111258849D02*
X151167644Y-111601748D01*
X149400000Y-110840000D02*
X150405896Y-110840000D01*
X150895678Y-110843022D02*
X152618846Y-110843022D01*
X157018777Y-113947344D02*
X157034039Y-113947344D01*
X152618846Y-110843022D02*
X154242312Y-112466488D01*
X157604982Y-113376401D02*
X158110316Y-113376401D01*
X155316963Y-115116635D02*
X155849486Y-115116635D01*
X154986122Y-115447477D02*
X155316963Y-115116635D01*
X154242312Y-115061381D02*
X154628408Y-115447477D01*
X154242312Y-112466488D02*
X154242312Y-115061381D01*
X150392656Y-110340000D02*
X150895678Y-110843022D01*
X149400000Y-110340000D02*
X150392656Y-110340000D01*
X154628408Y-115447477D02*
X154986122Y-115447477D01*
X155849486Y-115116635D02*
X157018777Y-113947344D01*
X157034039Y-113947344D02*
X157604982Y-113376401D01*
X144581149Y-114745226D02*
X144107498Y-115218877D01*
X157124698Y-114272489D02*
X155188586Y-116208601D01*
X141500000Y-116837600D02*
X141500000Y-117740000D01*
X148310735Y-116208601D02*
X146847360Y-114745226D01*
X143470915Y-115770378D02*
X142567222Y-115770378D01*
X158110316Y-113776401D02*
X157636049Y-113776401D01*
X157636049Y-113776401D02*
X157139961Y-114272489D01*
X155188586Y-116208601D02*
X148310735Y-116208601D01*
X146847360Y-114745226D02*
X144581149Y-114745226D01*
X144022416Y-115218877D02*
X143470915Y-115770378D01*
X157139961Y-114272489D02*
X157124698Y-114272489D01*
X142567222Y-115770378D02*
X141500000Y-116837600D01*
X144107498Y-115218877D02*
X144022416Y-115218877D01*
X144148461Y-115523899D02*
X143597171Y-116075189D01*
X142000000Y-116837600D02*
X142000000Y-117740000D01*
X157250954Y-114577300D02*
X155314842Y-116513412D01*
X142762411Y-116075189D02*
X142000000Y-116837600D01*
X157266217Y-114577300D02*
X157250954Y-114577300D01*
X158110316Y-114176401D02*
X157667116Y-114176401D01*
X157667116Y-114176401D02*
X157266217Y-114577300D01*
X155314842Y-116513412D02*
X148184479Y-116513412D01*
X148184479Y-116513412D02*
X146721104Y-115050037D01*
X144707406Y-115050037D02*
X144233543Y-115523899D01*
X146721104Y-115050037D02*
X144707406Y-115050037D01*
X143597171Y-116075189D02*
X142762411Y-116075189D01*
X144233543Y-115523899D02*
X144148461Y-115523899D01*
X155441098Y-116818223D02*
X148058223Y-116818223D01*
X144216701Y-115930015D02*
X143919521Y-116227195D01*
X146594848Y-115354848D02*
X144859328Y-115354848D01*
X143919521Y-116227195D02*
X143919521Y-116757121D01*
X148058223Y-116818223D02*
X146594848Y-115354848D01*
X158110316Y-114576401D02*
X157698183Y-114576401D01*
X157698183Y-114576401D02*
X157392473Y-114882111D01*
X144000000Y-116837600D02*
X144000000Y-117740000D01*
X157392473Y-114882111D02*
X157377210Y-114882111D01*
X157377210Y-114882111D02*
X155441098Y-116818223D01*
X144859328Y-115354848D02*
X144284161Y-115930015D01*
X143919521Y-116757121D02*
X144000000Y-116837600D01*
X144284161Y-115930015D02*
X144216701Y-115930015D01*
X158110316Y-114976401D02*
X157729250Y-114976401D01*
X155300646Y-117389743D02*
X150005970Y-117389743D01*
X157729250Y-114976401D02*
X157518729Y-115186922D01*
X150005970Y-117389743D02*
X149521037Y-117389743D01*
X157503467Y-115186922D02*
X155300646Y-117389743D01*
X157518729Y-115186922D02*
X157503467Y-115186922D01*
X144582540Y-116410000D02*
X144491023Y-116501517D01*
X144630000Y-116410000D02*
X144582540Y-116410000D01*
X144500000Y-116510494D02*
X144491023Y-116501517D01*
X144500000Y-117740000D02*
X144500000Y-116510494D01*
X158110316Y-115376401D02*
X158015318Y-115471399D01*
X155412957Y-117708498D02*
X151140701Y-117708498D01*
X157650056Y-115471399D02*
X155412957Y-117708498D01*
X150921402Y-117927797D02*
X150578503Y-118270696D01*
X158015318Y-115471399D02*
X157650056Y-115471399D01*
X151140701Y-117708498D02*
X150921402Y-117927797D01*
X137500000Y-116060960D02*
X137761390Y-115799570D01*
X137500000Y-117740000D02*
X137500000Y-116060960D01*
X152124933Y-118280000D02*
X151640000Y-118280000D01*
X155775817Y-118280000D02*
X152124933Y-118280000D01*
X158255617Y-115800200D02*
X155775817Y-118280000D01*
X138540000Y-116110000D02*
X138000000Y-116650000D01*
X138000000Y-116650000D02*
X138000000Y-117740000D01*
X156130870Y-113038045D02*
X155358458Y-113038045D01*
X157729249Y-111776401D02*
X157548087Y-111957564D01*
X158110316Y-111776401D02*
X157729249Y-111776401D01*
X156529015Y-112728100D02*
X156440815Y-112728100D01*
X157548087Y-111957564D02*
X157299551Y-111957564D01*
X157299551Y-111957564D02*
X156529015Y-112728100D01*
X155358458Y-113038045D02*
X155068609Y-112748196D01*
X156440815Y-112728100D02*
X156130870Y-113038045D01*
X151204176Y-112340000D02*
X151419236Y-112124940D01*
X151419236Y-112124940D02*
X151676743Y-112124940D01*
X151905390Y-111896293D02*
X152390323Y-111896293D01*
X149400000Y-112340000D02*
X151204176Y-112340000D01*
X151676743Y-112124940D02*
X151905390Y-111896293D01*
X156330947Y-112423289D02*
X156327615Y-112426621D01*
X157173295Y-111652753D02*
X156402759Y-112423289D01*
X156327615Y-112426621D02*
X155842682Y-112426621D01*
X157421831Y-111652753D02*
X157173295Y-111652753D01*
X158110316Y-111376401D02*
X157698183Y-111376401D01*
X157698183Y-111376401D02*
X157421831Y-111652753D01*
X156402759Y-112423289D02*
X156330947Y-112423289D01*
X149400000Y-113840000D02*
X150440266Y-113840000D01*
X151177367Y-113102899D02*
X151277101Y-113102899D01*
X151277101Y-113102899D02*
X151620000Y-112760000D01*
X150440266Y-113840000D02*
X151177367Y-113102899D01*
X136500000Y-117740000D02*
X136500000Y-116446646D01*
X136694115Y-116252531D02*
X136694115Y-115589956D01*
X138484071Y-113800000D02*
X145894176Y-113800000D01*
X146005678Y-113911502D02*
X146554322Y-113911502D01*
X136500000Y-116446646D02*
X136694115Y-116252531D01*
X147511520Y-112954304D02*
X147511520Y-110877144D01*
X136694115Y-115589956D02*
X138484071Y-113800000D01*
X145894176Y-113800000D02*
X146005678Y-113911502D01*
X146554322Y-113911502D02*
X147511520Y-112954304D01*
X147511520Y-110877144D02*
X147511520Y-110392211D01*
X153366131Y-110483022D02*
X154738228Y-111855119D01*
X157047039Y-111347942D02*
X157295574Y-111347942D01*
X154738228Y-111855119D02*
X156539862Y-111855119D01*
X157295574Y-111347942D02*
X157667115Y-110976401D01*
X151866435Y-110483022D02*
X153366131Y-110483022D01*
X157667115Y-110976401D02*
X158110316Y-110976401D01*
X156539862Y-111855119D02*
X157047039Y-111347942D01*
X151654933Y-110271520D02*
X151866435Y-110483022D01*
X151170000Y-110271520D02*
X151654933Y-110271520D01*
X146456476Y-114440415D02*
X148083022Y-112813869D01*
X147748198Y-109538860D02*
X147263265Y-109538860D01*
X138267642Y-115460000D02*
X143350227Y-115460000D01*
X143981242Y-114914066D02*
X144454893Y-114440415D01*
X143350227Y-115460000D02*
X143896160Y-114914066D01*
X148083022Y-109873684D02*
X147748198Y-109538860D01*
X143896160Y-114914066D02*
X143981242Y-114914066D01*
X138035711Y-115228069D02*
X138267642Y-115460000D01*
X137487069Y-115228069D02*
X138035711Y-115228069D01*
X137000000Y-117740000D02*
X137000000Y-115715138D01*
X148083022Y-112813869D02*
X148083022Y-109873684D01*
X137000000Y-115715138D02*
X137487069Y-115228069D01*
X144454893Y-114440415D02*
X146456476Y-114440415D01*
X155184322Y-111321502D02*
X154635678Y-111321502D01*
X157169318Y-111043131D02*
X155462693Y-111043131D01*
X152674933Y-109911520D02*
X152190000Y-109911520D01*
X154635678Y-111321502D02*
X153225696Y-109911520D01*
X157636048Y-110576401D02*
X157169318Y-111043131D01*
X158110316Y-110576401D02*
X157636048Y-110576401D01*
X153225696Y-109911520D02*
X152674933Y-109911520D01*
X155462693Y-111043131D02*
X155184322Y-111321502D01*
X140045924Y-108840000D02*
X141917181Y-110711257D01*
X133600000Y-108840000D02*
X140045924Y-108840000D01*
X141917181Y-110711257D02*
X142278074Y-110711257D01*
X142278074Y-110711257D02*
X142763007Y-110711257D01*
X155055189Y-109786256D02*
X155055189Y-109316256D01*
X157189281Y-110592101D02*
X155861034Y-110592101D01*
X158110316Y-110176401D02*
X157604981Y-110176401D01*
X155861034Y-110592101D02*
X155055189Y-109786256D01*
X157604981Y-110176401D02*
X157189281Y-110592101D01*
X155055189Y-109316256D02*
X153283744Y-107544811D01*
X153283744Y-107544811D02*
X153211642Y-107544811D01*
X152944933Y-107811520D02*
X152460000Y-107811520D01*
X153211642Y-107544811D02*
X152944933Y-107811520D01*
X158110000Y-101400000D02*
X158612400Y-101400000D01*
X158612400Y-101400000D02*
X159350000Y-102137600D01*
X159350000Y-102137600D02*
X159350000Y-109920000D01*
X159350000Y-109920000D02*
X159070000Y-110200000D01*
X159070000Y-110200000D02*
X158110000Y-110200000D01*
X151630000Y-107790000D02*
X151630000Y-108030000D01*
X152180000Y-107240000D02*
X151630000Y-107790000D01*
X153440000Y-107240000D02*
X152180000Y-107240000D01*
X156171501Y-109971501D02*
X153440000Y-107240000D01*
X157134321Y-109971501D02*
X156171501Y-109971501D01*
X157329421Y-109776401D02*
X157134321Y-109971501D01*
X158110316Y-109776401D02*
X157329421Y-109776401D01*
X140252044Y-108340000D02*
X141687698Y-109775654D01*
X141687698Y-109775654D02*
X141827402Y-109775654D01*
X141827402Y-109775654D02*
X142170301Y-110118553D01*
X133600000Y-108340000D02*
X140252044Y-108340000D01*
X149400000Y-107340000D02*
X147655851Y-107340000D01*
X147655851Y-107340000D02*
X147325465Y-107670386D01*
X156334301Y-104723679D02*
X156833980Y-104224000D01*
X156833980Y-104224000D02*
X158110316Y-104224000D01*
X149400000Y-107340000D02*
X150987867Y-107340000D01*
X154269432Y-104723679D02*
X156334301Y-104723679D01*
X151747487Y-106580380D02*
X152412731Y-106580380D01*
X150987867Y-107340000D02*
X151747487Y-106580380D01*
X152412731Y-106580380D02*
X154269432Y-104723679D01*
X150968934Y-107840000D02*
X151923743Y-106885191D01*
X152538987Y-106885191D02*
X154382752Y-105041426D01*
X156868357Y-104624000D02*
X158110316Y-104624000D01*
X156450931Y-105041426D02*
X156868357Y-104624000D01*
X149400000Y-107840000D02*
X150968934Y-107840000D01*
X151923743Y-106885191D02*
X152538987Y-106885191D01*
X154382752Y-105041426D02*
X156450931Y-105041426D01*
X148010000Y-108327600D02*
X148010000Y-108631522D01*
X148497600Y-107840000D02*
X148010000Y-108327600D01*
X149400000Y-107840000D02*
X148497600Y-107840000D01*
X149947116Y-101380003D02*
X149989990Y-101337129D01*
X156983345Y-103824000D02*
X158110316Y-103824000D01*
X149989990Y-101337129D02*
X151737128Y-101337129D01*
X148352397Y-101380003D02*
X149947116Y-101380003D01*
X147500000Y-101940000D02*
X147792400Y-101940000D01*
X147792400Y-101940000D02*
X148352397Y-101380003D01*
X152685936Y-102285937D02*
X155445282Y-102285937D01*
X151737128Y-101337129D02*
X152685936Y-102285937D01*
X155445282Y-102285937D02*
X156983345Y-103824000D01*
X158110316Y-103424000D02*
X157436017Y-103424000D01*
X155993143Y-101981126D02*
X152812192Y-101981126D01*
X148651923Y-100961399D02*
X147262809Y-100961399D01*
X149820860Y-101075192D02*
X148765716Y-101075192D01*
X151863384Y-101032318D02*
X149863734Y-101032318D01*
X157436017Y-103424000D02*
X155993143Y-101981126D01*
X152812192Y-101981126D02*
X151863384Y-101032318D01*
X147262809Y-100961399D02*
X147000000Y-101224208D01*
X149863734Y-101032318D02*
X149820860Y-101075192D01*
X147000000Y-101224208D02*
X147000000Y-101940000D01*
X148765716Y-101075192D02*
X148651923Y-100961399D01*
X147050864Y-100656588D02*
X148779657Y-100656588D01*
X148893450Y-100770381D02*
X149694604Y-100770381D01*
X149737478Y-100727507D02*
X151989640Y-100727507D01*
X149694604Y-100770381D02*
X149737478Y-100727507D01*
X157651911Y-103024000D02*
X158110316Y-103024000D01*
X146500000Y-101940000D02*
X146500000Y-101207451D01*
X148779657Y-100656588D02*
X148893450Y-100770381D01*
X156304226Y-101676315D02*
X157651911Y-103024000D01*
X152938448Y-101676315D02*
X156304226Y-101676315D01*
X146500000Y-101207451D02*
X147050864Y-100656588D01*
X151989640Y-100727507D02*
X152938448Y-101676315D01*
X157682977Y-102624000D02*
X158110316Y-102624000D01*
X152115896Y-100422696D02*
X153064704Y-101371504D01*
X153064704Y-101371504D02*
X156430482Y-101371504D01*
X146619797Y-100656588D02*
X146924607Y-100351777D01*
X146924607Y-100351777D02*
X148905913Y-100351777D01*
X148905913Y-100351777D02*
X149019706Y-100465570D01*
X149568348Y-100465570D02*
X149611222Y-100422696D01*
X146000000Y-101940000D02*
X146000000Y-101207451D01*
X149611222Y-100422696D02*
X152115896Y-100422696D01*
X146550863Y-100656588D02*
X146619797Y-100656588D01*
X146000000Y-101207451D02*
X146550863Y-100656588D01*
X156430482Y-101371504D02*
X157682977Y-102624000D01*
X149019706Y-100465570D02*
X149568348Y-100465570D01*
X148356136Y-102294422D02*
X148699035Y-101951523D01*
X146371501Y-109492920D02*
X146371501Y-107221608D01*
X153114321Y-100481501D02*
X152605768Y-100481501D01*
X149778960Y-99894069D02*
X149294027Y-99894069D01*
X148347101Y-102303457D02*
X148356136Y-102294422D01*
X146940000Y-103990000D02*
X148347101Y-102582899D01*
X146940000Y-112680000D02*
X146940000Y-110061419D01*
X146280000Y-113340000D02*
X146940000Y-112680000D01*
X152018336Y-99894069D02*
X149778960Y-99894069D01*
X146940000Y-106653109D02*
X146940000Y-103990000D01*
X152605768Y-100481501D02*
X152018336Y-99894069D01*
X157745111Y-101824000D02*
X155865433Y-99944322D01*
X154024322Y-100241502D02*
X153354320Y-100241502D01*
X158110316Y-101824000D02*
X157745111Y-101824000D01*
X155865433Y-99944322D02*
X154321502Y-99944322D01*
X148347101Y-102582899D02*
X148347101Y-102303457D01*
X146940000Y-110061419D02*
X146371501Y-109492920D01*
X154321502Y-99944322D02*
X154024322Y-100241502D01*
X146371501Y-107221608D02*
X146940000Y-106653109D01*
X153354320Y-100241502D02*
X153114321Y-100481501D01*
X146700000Y-116460000D02*
X146478518Y-116460000D01*
X146478518Y-116460000D02*
X146000000Y-116938518D01*
X146000000Y-116938518D02*
X146000000Y-117740000D01*
X158110316Y-102224000D02*
X157714044Y-102224000D01*
X155947147Y-100457103D02*
X154488521Y-100457103D01*
X157714044Y-102224000D02*
X155947147Y-100457103D01*
X154488521Y-100457103D02*
X154145622Y-100800002D01*
X147735678Y-109203024D02*
X146676312Y-108143658D01*
X148497600Y-115840000D02*
X148387833Y-115730233D01*
X147458498Y-106575678D02*
X147458498Y-103902568D01*
X146676312Y-107357864D02*
X147458498Y-106575678D01*
X148284322Y-109203024D02*
X147735678Y-109203024D01*
X149400000Y-115840000D02*
X148497600Y-115840000D01*
X148387833Y-115730233D02*
X148387833Y-109306535D01*
X148197971Y-103163095D02*
X148571746Y-103163095D01*
X148571746Y-103163095D02*
X148914645Y-102820196D01*
X148387833Y-109306535D02*
X148284322Y-109203024D01*
X146676312Y-108143658D02*
X146676312Y-107357864D01*
X147458498Y-103902568D02*
X148197971Y-103163095D01*
X153433057Y-99004811D02*
X153184149Y-99253719D01*
X156012411Y-99004811D02*
X153433057Y-99004811D01*
X153184149Y-99565832D02*
X152841250Y-99908731D01*
X153184149Y-99253719D02*
X153184149Y-99565832D01*
X158110000Y-100600000D02*
X157607600Y-100600000D01*
X157607600Y-100600000D02*
X156012411Y-99004811D01*
X151182895Y-105840000D02*
X152295313Y-104727582D01*
X152295313Y-104591591D02*
X152638212Y-104248692D01*
X152295313Y-104727582D02*
X152295313Y-104591591D01*
X149400000Y-105840000D02*
X151182895Y-105840000D01*
X155895643Y-99327101D02*
X154092899Y-99327101D01*
X154092899Y-99327101D02*
X153750000Y-99670000D01*
X157568542Y-101000000D02*
X155895643Y-99327101D01*
X158110000Y-101000000D02*
X157568542Y-101000000D01*
X151937307Y-105970758D02*
X153448296Y-104459769D01*
X151125732Y-106340000D02*
X151494974Y-105970758D01*
X151494974Y-105970758D02*
X151937307Y-105970758D01*
X153448296Y-104459769D02*
X153448296Y-103974836D01*
X149400000Y-106340000D02*
X151125732Y-106340000D01*
X152650000Y-124990000D02*
X150840000Y-124990000D01*
X150840000Y-124990000D02*
X150700000Y-124850000D01*
X149500000Y-125000000D02*
X150550000Y-125000000D01*
X150550000Y-125000000D02*
X150700000Y-124850000D01*
X144500000Y-103067774D02*
X144833531Y-103401305D01*
X144500000Y-101940000D02*
X144500000Y-103067774D01*
X152020000Y-98850000D02*
X152020000Y-97620000D01*
X152020000Y-97620000D02*
X152000000Y-97600000D01*
X150000000Y-97600000D02*
X150000000Y-97750000D01*
X148542965Y-99207035D02*
X148326987Y-99207035D01*
X150000000Y-97750000D02*
X148542965Y-99207035D01*
X144000000Y-103183256D02*
X143926091Y-103257165D01*
X144000000Y-101940000D02*
X144000000Y-103183256D01*
X147835152Y-98787850D02*
X147492253Y-99130749D01*
X148000000Y-97600000D02*
X148000000Y-98623002D01*
X148000000Y-98623002D02*
X147835152Y-98787850D01*
X143127991Y-103214409D02*
X143088970Y-103214409D01*
X143500000Y-101940000D02*
X143500000Y-102842400D01*
X143500000Y-102842400D02*
X143127991Y-103214409D01*
X133600000Y-105340000D02*
X134914306Y-105340000D01*
X134914306Y-105340000D02*
X134922354Y-105331952D01*
X139600000Y-92650000D02*
X139257101Y-92992899D01*
X139257101Y-92992899D02*
X139257101Y-94457101D01*
X139257101Y-94457101D02*
X139340000Y-94540000D01*
X135798685Y-104521798D02*
X135768844Y-104491957D01*
X135798685Y-106081315D02*
X135798685Y-104521798D01*
X133600000Y-106340000D02*
X135540000Y-106340000D01*
X135540000Y-106340000D02*
X135798685Y-106081315D01*
X138340000Y-92630000D02*
X138340000Y-93114933D01*
X138340000Y-93114933D02*
X138840000Y-93614933D01*
X138840000Y-93614933D02*
X138840000Y-93962600D01*
X138840000Y-93962600D02*
X138840000Y-94540000D01*
X133181379Y-96647101D02*
X132838480Y-96990000D01*
X135288480Y-94540000D02*
X133181379Y-96647101D01*
X137340000Y-94540000D02*
X135288480Y-94540000D01*
X133600000Y-107340000D02*
X132697600Y-107340000D01*
X132697600Y-107340000D02*
X132230000Y-106872400D01*
X132230000Y-106872400D02*
X132230000Y-106870000D01*
X135493874Y-105030436D02*
X135054631Y-104591193D01*
X133600000Y-105840000D02*
X134502400Y-105840000D01*
X135493874Y-105620708D02*
X135493874Y-105030436D01*
X135211110Y-105903472D02*
X135493874Y-105620708D01*
X134565872Y-105903472D02*
X135211110Y-105903472D01*
X135054631Y-104536312D02*
X135054631Y-104051379D01*
X135054631Y-104591193D02*
X135054631Y-104536312D01*
X134502400Y-105840000D02*
X134565872Y-105903472D01*
X139330000Y-99299698D02*
X139330000Y-98450000D01*
X139330000Y-98450000D02*
X139340000Y-98440000D01*
X139840000Y-98440000D02*
X139840000Y-98715000D01*
X139840000Y-98715000D02*
X140638227Y-99513227D01*
X140638227Y-99513227D02*
X140831276Y-99513227D01*
X138570817Y-105679394D02*
X138570817Y-103927423D01*
X133600000Y-106840000D02*
X137410211Y-106840000D01*
X138496807Y-103853413D02*
X138496807Y-103368480D01*
X137410211Y-106840000D02*
X138570817Y-105679394D01*
X138570817Y-103927423D02*
X138496807Y-103853413D01*
X144390000Y-98980000D02*
X144390000Y-98030000D01*
X144080000Y-99290000D02*
X144390000Y-98980000D01*
X142276889Y-99290000D02*
X144080000Y-99290000D01*
X142000000Y-101134265D02*
X141636313Y-100770578D01*
X141636313Y-100770578D02*
X141636313Y-99930576D01*
X141636313Y-99930576D02*
X142276889Y-99290000D01*
X142000000Y-101485824D02*
X142000000Y-101134265D01*
X141990000Y-99145822D02*
X141990000Y-98030000D01*
X141331502Y-99804320D02*
X141990000Y-99145822D01*
X141331502Y-100970020D02*
X141331502Y-99804320D01*
X141500000Y-101138518D02*
X141331502Y-100970020D01*
X141500000Y-101416891D02*
X141500000Y-101138518D01*
X141886376Y-105997826D02*
X142229275Y-106340725D01*
X140500000Y-101940000D02*
X140500000Y-102842400D01*
X140500000Y-102842400D02*
X140395948Y-102946452D01*
X140395948Y-104507398D02*
X141886376Y-105997826D01*
X140395948Y-102946452D02*
X140395948Y-104507398D01*
X161685789Y-103424000D02*
X161982938Y-103126851D01*
X161190316Y-103424000D02*
X161685789Y-103424000D01*
X161982938Y-103126851D02*
X162395452Y-103126851D01*
X141150729Y-106399601D02*
X141493628Y-106742500D01*
X140000000Y-105248872D02*
X141150729Y-106399601D01*
X140000000Y-101940000D02*
X140000000Y-105248872D01*
X161190316Y-103824000D02*
X162086352Y-103824000D01*
X162211981Y-103698371D02*
X162636696Y-103698371D01*
X162636696Y-103698371D02*
X162675067Y-103660000D01*
X162675067Y-103660000D02*
X163160000Y-103660000D01*
X162086352Y-103824000D02*
X162211981Y-103698371D01*
X151574178Y-99250000D02*
X151745679Y-99421501D01*
X146798351Y-100046966D02*
X148332878Y-100046966D01*
X155770000Y-98110000D02*
X157860000Y-100200000D01*
X145500000Y-101940000D02*
X145500000Y-101037600D01*
X153605822Y-98110000D02*
X155770000Y-98110000D01*
X149129844Y-99250000D02*
X151574178Y-99250000D01*
X152294321Y-99421501D02*
X153605822Y-98110000D01*
X151745679Y-99421501D02*
X152294321Y-99421501D01*
X146424607Y-100351777D02*
X146493540Y-100351777D01*
X145500000Y-101037600D02*
X146018262Y-100519338D01*
X146257046Y-100519338D02*
X146424607Y-100351777D01*
X157860000Y-100200000D02*
X158110000Y-100200000D01*
X146018262Y-100519338D02*
X146257046Y-100519338D01*
X148332878Y-100046966D02*
X149129844Y-99250000D01*
X146493540Y-100351777D02*
X146798351Y-100046966D01*
M02*
