G04 #@! TF.FileFunction,Legend,Top*
%FSLAX46Y46*%
G04 Gerber Fmt 4.6, Leading zero omitted, Abs format (unit mm)*
G04 Created by KiCad (PCBNEW 4.0.1-stable) date Tuesday, May 31, 2016 'PMt' 12:22:36 PM*
%MOMM*%
G01*
G04 APERTURE LIST*
%ADD10C,0.100000*%
%ADD11C,0.600000*%
%ADD12C,0.200000*%
%ADD13C,0.300000*%
%ADD14C,0.150000*%
%ADD15C,0.010000*%
G04 APERTURE END LIST*
D10*
D11*
X152500000Y-106500000D02*
X151500000Y-108500000D01*
X152500000Y-109500000D02*
X151500000Y-107500000D01*
X152500000Y-109500000D02*
X151000000Y-108000000D01*
X151000000Y-108000000D02*
X152500000Y-106500000D01*
X155500000Y-108000000D02*
X151000000Y-108000000D01*
D12*
X150506226Y-101206225D02*
G75*
G03X150506226Y-101206225I-806226J0D01*
G01*
X141424264Y-99500000D02*
G75*
G03X141424264Y-99500000I-424264J0D01*
G01*
D13*
X141200001Y-119153571D02*
X142128572Y-119153571D01*
X141628572Y-119725000D01*
X141842858Y-119725000D01*
X141985715Y-119796429D01*
X142057144Y-119867857D01*
X142128572Y-120010714D01*
X142128572Y-120367857D01*
X142057144Y-120510714D01*
X141985715Y-120582143D01*
X141842858Y-120653571D01*
X141414286Y-120653571D01*
X141271429Y-120582143D01*
X141200001Y-120510714D01*
X139210715Y-119653571D02*
X139210715Y-120653571D01*
X138853572Y-119082143D02*
X138496429Y-120153571D01*
X139425001Y-120153571D01*
D12*
X135185715Y-124400000D02*
X135071429Y-124342857D01*
X134900000Y-124342857D01*
X134728572Y-124400000D01*
X134614286Y-124514286D01*
X134557143Y-124628571D01*
X134500000Y-124857143D01*
X134500000Y-125028571D01*
X134557143Y-125257143D01*
X134614286Y-125371429D01*
X134728572Y-125485714D01*
X134900000Y-125542857D01*
X135014286Y-125542857D01*
X135185715Y-125485714D01*
X135242858Y-125428571D01*
X135242858Y-125028571D01*
X135014286Y-125028571D01*
X135757143Y-125542857D02*
X135757143Y-124342857D01*
X136442858Y-125542857D01*
X136442858Y-124342857D01*
X137014286Y-125542857D02*
X137014286Y-124342857D01*
X137300001Y-124342857D01*
X137471429Y-124400000D01*
X137585715Y-124514286D01*
X137642858Y-124628571D01*
X137700001Y-124857143D01*
X137700001Y-125028571D01*
X137642858Y-125257143D01*
X137585715Y-125371429D01*
X137471429Y-125485714D01*
X137300001Y-125542857D01*
X137014286Y-125542857D01*
X135271428Y-122885714D02*
X135442857Y-122942857D01*
X135728571Y-122942857D01*
X135842857Y-122885714D01*
X135900000Y-122828571D01*
X135957143Y-122714286D01*
X135957143Y-122600000D01*
X135900000Y-122485714D01*
X135842857Y-122428571D01*
X135728571Y-122371429D01*
X135500000Y-122314286D01*
X135385714Y-122257143D01*
X135328571Y-122200000D01*
X135271428Y-122085714D01*
X135271428Y-121971429D01*
X135328571Y-121857143D01*
X135385714Y-121800000D01*
X135500000Y-121742857D01*
X135785714Y-121742857D01*
X135957143Y-121800000D01*
X136471428Y-122942857D02*
X136471428Y-121742857D01*
X137671429Y-121800000D02*
X137557143Y-121742857D01*
X137385714Y-121742857D01*
X137214286Y-121800000D01*
X137100000Y-121914286D01*
X137042857Y-122028571D01*
X136985714Y-122257143D01*
X136985714Y-122428571D01*
X137042857Y-122657143D01*
X137100000Y-122771429D01*
X137214286Y-122885714D01*
X137385714Y-122942857D01*
X137500000Y-122942857D01*
X137671429Y-122885714D01*
X137728572Y-122828571D01*
X137728572Y-122428571D01*
X137500000Y-122428571D01*
D14*
X160614286Y-97771429D02*
X161376191Y-97771429D01*
X160995239Y-98152381D02*
X160995239Y-97390476D01*
X162328572Y-97152381D02*
X161852381Y-97152381D01*
X161804762Y-97628571D01*
X161852381Y-97580952D01*
X161947619Y-97533333D01*
X162185715Y-97533333D01*
X162280953Y-97580952D01*
X162328572Y-97628571D01*
X162376191Y-97723810D01*
X162376191Y-97961905D01*
X162328572Y-98057143D01*
X162280953Y-98104762D01*
X162185715Y-98152381D01*
X161947619Y-98152381D01*
X161852381Y-98104762D01*
X161804762Y-98057143D01*
X162661905Y-97152381D02*
X162995238Y-98152381D01*
X163328572Y-97152381D01*
D12*
X165247143Y-117300000D02*
X165318571Y-117442857D01*
X165318571Y-117728571D01*
X165247143Y-117871429D01*
X165175714Y-117942857D01*
X165032857Y-118014286D01*
X164604286Y-118014286D01*
X164461429Y-117942857D01*
X164390000Y-117871429D01*
X164318571Y-117728571D01*
X164318571Y-117442857D01*
X164390000Y-117300000D01*
X165318571Y-116657143D02*
X163818571Y-116657143D01*
X164747143Y-116514286D02*
X165318571Y-116085715D01*
X164318571Y-116085715D02*
X164890000Y-116657143D01*
X165318571Y-114800000D02*
X163818571Y-114800000D01*
X165247143Y-114800000D02*
X165318571Y-114942857D01*
X165318571Y-115228571D01*
X165247143Y-115371429D01*
X165175714Y-115442857D01*
X165032857Y-115514286D01*
X164604286Y-115514286D01*
X164461429Y-115442857D01*
X164390000Y-115371429D01*
X164318571Y-115228571D01*
X164318571Y-114942857D01*
X164390000Y-114800000D01*
X165175714Y-114085714D02*
X165247143Y-114014286D01*
X165318571Y-114085714D01*
X165247143Y-114157143D01*
X165175714Y-114085714D01*
X165318571Y-114085714D01*
X164318571Y-113585714D02*
X164318571Y-113014285D01*
X163818571Y-113371428D02*
X165104286Y-113371428D01*
X165247143Y-113300000D01*
X165318571Y-113157142D01*
X165318571Y-113014285D01*
X165247143Y-111942857D02*
X165318571Y-112085714D01*
X165318571Y-112371428D01*
X165247143Y-112514285D01*
X165104286Y-112585714D01*
X164532857Y-112585714D01*
X164390000Y-112514285D01*
X164318571Y-112371428D01*
X164318571Y-112085714D01*
X164390000Y-111942857D01*
X164532857Y-111871428D01*
X164675714Y-111871428D01*
X164818571Y-112585714D01*
X165247143Y-110585714D02*
X165318571Y-110728571D01*
X165318571Y-111014285D01*
X165247143Y-111157143D01*
X165175714Y-111228571D01*
X165032857Y-111300000D01*
X164604286Y-111300000D01*
X164461429Y-111228571D01*
X164390000Y-111157143D01*
X164318571Y-111014285D01*
X164318571Y-110728571D01*
X164390000Y-110585714D01*
X165318571Y-109942857D02*
X163818571Y-109942857D01*
X165318571Y-109300000D02*
X164532857Y-109300000D01*
X164390000Y-109371429D01*
X164318571Y-109514286D01*
X164318571Y-109728571D01*
X164390000Y-109871429D01*
X164461429Y-109942857D01*
X163747143Y-107514286D02*
X165675714Y-108800000D01*
X164318571Y-107228571D02*
X164318571Y-106657142D01*
X165318571Y-107014285D02*
X164032857Y-107014285D01*
X163890000Y-106942857D01*
X163818571Y-106799999D01*
X163818571Y-106657142D01*
X164318571Y-105514285D02*
X165318571Y-105514285D01*
X163747143Y-105871428D02*
X164818571Y-106228571D01*
X164818571Y-105299999D01*
X164318571Y-104942857D02*
X164318571Y-104371428D01*
X165318571Y-104728571D02*
X164032857Y-104728571D01*
X163890000Y-104657143D01*
X163818571Y-104514285D01*
X163818571Y-104371428D01*
X165247143Y-103228571D02*
X165318571Y-103371428D01*
X165318571Y-103657142D01*
X165247143Y-103800000D01*
X165175714Y-103871428D01*
X165032857Y-103942857D01*
X164604286Y-103942857D01*
X164461429Y-103871428D01*
X164390000Y-103800000D01*
X164318571Y-103657142D01*
X164318571Y-103371428D01*
X164390000Y-103228571D01*
X163747143Y-101514286D02*
X165675714Y-102800000D01*
X164318571Y-101157142D02*
X165318571Y-100799999D01*
X164318571Y-100442857D01*
X163818571Y-99157142D02*
X163818571Y-99871428D01*
X164532857Y-99942857D01*
X164461429Y-99871428D01*
X164390000Y-99728571D01*
X164390000Y-99371428D01*
X164461429Y-99228571D01*
X164532857Y-99157142D01*
X164675714Y-99085714D01*
X165032857Y-99085714D01*
X165175714Y-99157142D01*
X165247143Y-99228571D01*
X165318571Y-99371428D01*
X165318571Y-99728571D01*
X165247143Y-99871428D01*
X165175714Y-99942857D01*
D14*
X157459048Y-117642381D02*
X158078096Y-117642381D01*
X157744762Y-118023333D01*
X157887620Y-118023333D01*
X157982858Y-118070952D01*
X158030477Y-118118571D01*
X158078096Y-118213810D01*
X158078096Y-118451905D01*
X158030477Y-118547143D01*
X157982858Y-118594762D01*
X157887620Y-118642381D01*
X157601905Y-118642381D01*
X157506667Y-118594762D01*
X157459048Y-118547143D01*
X158506667Y-118547143D02*
X158554286Y-118594762D01*
X158506667Y-118642381D01*
X158459048Y-118594762D01*
X158506667Y-118547143D01*
X158506667Y-118642381D01*
X159459048Y-117642381D02*
X158982857Y-117642381D01*
X158935238Y-118118571D01*
X158982857Y-118070952D01*
X159078095Y-118023333D01*
X159316191Y-118023333D01*
X159411429Y-118070952D01*
X159459048Y-118118571D01*
X159506667Y-118213810D01*
X159506667Y-118451905D01*
X159459048Y-118547143D01*
X159411429Y-118594762D01*
X159316191Y-118642381D01*
X159078095Y-118642381D01*
X158982857Y-118594762D01*
X158935238Y-118547143D01*
X159935238Y-118642381D02*
X159935238Y-117975714D01*
X159935238Y-118070952D02*
X159982857Y-118023333D01*
X160078095Y-117975714D01*
X160220953Y-117975714D01*
X160316191Y-118023333D01*
X160363810Y-118118571D01*
X160363810Y-118642381D01*
X160363810Y-118118571D02*
X160411429Y-118023333D01*
X160506667Y-117975714D01*
X160649524Y-117975714D01*
X160744762Y-118023333D01*
X160792381Y-118118571D01*
X160792381Y-118642381D01*
X161268571Y-118642381D02*
X161268571Y-117975714D01*
X161268571Y-118070952D02*
X161316190Y-118023333D01*
X161411428Y-117975714D01*
X161554286Y-117975714D01*
X161649524Y-118023333D01*
X161697143Y-118118571D01*
X161697143Y-118642381D01*
X161697143Y-118118571D02*
X161744762Y-118023333D01*
X161840000Y-117975714D01*
X161982857Y-117975714D01*
X162078095Y-118023333D01*
X162125714Y-118118571D01*
X162125714Y-118642381D01*
X151666667Y-93202381D02*
X152285715Y-93202381D01*
X151952381Y-93583333D01*
X152095239Y-93583333D01*
X152190477Y-93630952D01*
X152238096Y-93678571D01*
X152285715Y-93773810D01*
X152285715Y-94011905D01*
X152238096Y-94107143D01*
X152190477Y-94154762D01*
X152095239Y-94202381D01*
X151809524Y-94202381D01*
X151714286Y-94154762D01*
X151666667Y-94107143D01*
X149714286Y-93297619D02*
X149761905Y-93250000D01*
X149857143Y-93202381D01*
X150095239Y-93202381D01*
X150190477Y-93250000D01*
X150238096Y-93297619D01*
X150285715Y-93392857D01*
X150285715Y-93488095D01*
X150238096Y-93630952D01*
X149666667Y-94202381D01*
X150285715Y-94202381D01*
X148285715Y-94202381D02*
X147714286Y-94202381D01*
X148000000Y-94202381D02*
X148000000Y-93202381D01*
X147904762Y-93345238D01*
X147809524Y-93440476D01*
X147714286Y-93488095D01*
X136440000Y-98640000D02*
X136440000Y-98115000D01*
X140740000Y-94340000D02*
X140740000Y-94865000D01*
X136440000Y-94340000D02*
X136440000Y-94865000D01*
X140740000Y-98640000D02*
X140215000Y-98640000D01*
X140740000Y-94340000D02*
X140215000Y-94340000D01*
X136440000Y-94340000D02*
X136965000Y-94340000D01*
X136440000Y-98640000D02*
X136965000Y-98640000D01*
X138200000Y-99570000D02*
X138900000Y-99570000D01*
X138900000Y-100770000D02*
X138200000Y-100770000D01*
X135710000Y-97020000D02*
X135710000Y-97720000D01*
X134510000Y-97720000D02*
X134510000Y-97020000D01*
X136700000Y-92280000D02*
X136700000Y-91580000D01*
X137900000Y-91580000D02*
X137900000Y-92280000D01*
X131920000Y-97770000D02*
X132620000Y-97770000D01*
X132620000Y-98970000D02*
X131920000Y-98970000D01*
X144330000Y-100750000D02*
X143630000Y-100750000D01*
X143630000Y-99550000D02*
X144330000Y-99550000D01*
X134510000Y-99420000D02*
X135210000Y-99420000D01*
X135210000Y-100620000D02*
X134510000Y-100620000D01*
X150670000Y-103760000D02*
X150670000Y-103060000D01*
X151870000Y-103060000D02*
X151870000Y-103760000D01*
X131740000Y-103510000D02*
X131740000Y-104210000D01*
X130540000Y-104210000D02*
X130540000Y-103510000D01*
X131150000Y-114850000D02*
X131150000Y-114150000D01*
X132350000Y-114150000D02*
X132350000Y-114850000D01*
X132540000Y-118350000D02*
X131840000Y-118350000D01*
X131840000Y-117150000D02*
X132540000Y-117150000D01*
X155610000Y-97605000D02*
X157610000Y-97605000D01*
X157610000Y-95555000D02*
X155610000Y-95555000D01*
X153020000Y-93840000D02*
X153020000Y-93140000D01*
X154220000Y-93140000D02*
X154220000Y-93840000D01*
X148050000Y-119150000D02*
X148050000Y-118450000D01*
X149250000Y-118450000D02*
X149250000Y-119150000D01*
X146280000Y-120080000D02*
X145580000Y-120080000D01*
X145580000Y-118880000D02*
X146280000Y-118880000D01*
X157400000Y-124400000D02*
X158100000Y-124400000D01*
X158100000Y-125600000D02*
X157400000Y-125600000D01*
X152550000Y-92600000D02*
X152550000Y-90700000D01*
X151450000Y-92600000D02*
X151450000Y-90700000D01*
X152000000Y-91700000D02*
X152000000Y-91250000D01*
X151750000Y-91750000D02*
X152250000Y-91750000D01*
X152000000Y-91750000D02*
X151750000Y-91500000D01*
X151750000Y-91500000D02*
X152250000Y-91500000D01*
X152250000Y-91500000D02*
X152000000Y-91750000D01*
X150550000Y-92600000D02*
X150550000Y-90700000D01*
X149450000Y-92600000D02*
X149450000Y-90700000D01*
X150000000Y-91700000D02*
X150000000Y-91250000D01*
X149750000Y-91750000D02*
X150250000Y-91750000D01*
X150000000Y-91750000D02*
X149750000Y-91500000D01*
X149750000Y-91500000D02*
X150250000Y-91500000D01*
X150250000Y-91500000D02*
X150000000Y-91750000D01*
X148550000Y-92600000D02*
X148550000Y-90700000D01*
X147450000Y-92600000D02*
X147450000Y-90700000D01*
X148000000Y-91700000D02*
X148000000Y-91250000D01*
X147750000Y-91750000D02*
X148250000Y-91750000D01*
X148000000Y-91750000D02*
X147750000Y-91500000D01*
X147750000Y-91500000D02*
X148250000Y-91500000D01*
X148250000Y-91500000D02*
X148000000Y-91750000D01*
X152675000Y-96000000D02*
X152675000Y-97000000D01*
X151325000Y-97000000D02*
X151325000Y-96000000D01*
X150675000Y-96000000D02*
X150675000Y-97000000D01*
X149325000Y-97000000D02*
X149325000Y-96000000D01*
X148675000Y-96000000D02*
X148675000Y-97000000D01*
X147325000Y-97000000D02*
X147325000Y-96000000D01*
X150025000Y-124250000D02*
X150025000Y-123250000D01*
X151375000Y-123250000D02*
X151375000Y-124250000D01*
X153250000Y-124315000D02*
X154250000Y-124315000D01*
X154250000Y-125665000D02*
X153250000Y-125665000D01*
X148625000Y-102715000D02*
X147865000Y-102715000D01*
X148625000Y-116965000D02*
X147865000Y-116965000D01*
X134375000Y-116965000D02*
X135135000Y-116965000D01*
X134375000Y-102715000D02*
X135135000Y-102715000D01*
X148625000Y-102715000D02*
X148625000Y-103475000D01*
X134375000Y-102715000D02*
X134375000Y-103475000D01*
X134375000Y-116965000D02*
X134375000Y-116205000D01*
X148625000Y-116965000D02*
X148625000Y-116205000D01*
X147865000Y-102715000D02*
X147865000Y-101190000D01*
X157230000Y-95210000D02*
G75*
G03X157230000Y-95210000I-100000J0D01*
G01*
X156580000Y-94960000D02*
X157080000Y-94960000D01*
X156580000Y-92060000D02*
X156580000Y-94960000D01*
X157080000Y-92060000D02*
X156580000Y-92060000D01*
X157080000Y-94960000D02*
X157080000Y-92060000D01*
D15*
G36*
X138744710Y-107929742D02*
X138778065Y-107930711D01*
X138801653Y-107932228D01*
X138881789Y-107941955D01*
X138963758Y-107957253D01*
X139045701Y-107977681D01*
X139125758Y-108002796D01*
X139173541Y-108020493D01*
X139216347Y-108037482D01*
X139258596Y-108054539D01*
X139300667Y-108071839D01*
X139342939Y-108089558D01*
X139385789Y-108107874D01*
X139429595Y-108126961D01*
X139474736Y-108146995D01*
X139521589Y-108168154D01*
X139570533Y-108190612D01*
X139621945Y-108214546D01*
X139676204Y-108240132D01*
X139733687Y-108267546D01*
X139794774Y-108296964D01*
X139859841Y-108328562D01*
X139929268Y-108362517D01*
X140003431Y-108399003D01*
X140082710Y-108438198D01*
X140167481Y-108480277D01*
X140258124Y-108525417D01*
X140262153Y-108527426D01*
X140341946Y-108567125D01*
X140416001Y-108603758D01*
X140484816Y-108637553D01*
X140548891Y-108668740D01*
X140608725Y-108697551D01*
X140664817Y-108724213D01*
X140717666Y-108748957D01*
X140767772Y-108772014D01*
X140815634Y-108793612D01*
X140861750Y-108813982D01*
X140906621Y-108833354D01*
X140950745Y-108851956D01*
X140994621Y-108870021D01*
X141038749Y-108887776D01*
X141080598Y-108904269D01*
X141104243Y-108913530D01*
X141125881Y-108922058D01*
X141144594Y-108929487D01*
X141159464Y-108935450D01*
X141169573Y-108939583D01*
X141173972Y-108941501D01*
X141174988Y-108943865D01*
X141172632Y-108948645D01*
X141166411Y-108956483D01*
X141155837Y-108968023D01*
X141145750Y-108978474D01*
X141088555Y-109032600D01*
X141024755Y-109084757D01*
X140954551Y-109134846D01*
X140878140Y-109182769D01*
X140795723Y-109228425D01*
X140707498Y-109271717D01*
X140613665Y-109312546D01*
X140514422Y-109350812D01*
X140409969Y-109386417D01*
X140300504Y-109419262D01*
X140209236Y-109443540D01*
X140101653Y-109469136D01*
X139999570Y-109490398D01*
X139902918Y-109507325D01*
X139811629Y-109519916D01*
X139725636Y-109528170D01*
X139644870Y-109532088D01*
X139569264Y-109531668D01*
X139498748Y-109526910D01*
X139433256Y-109517814D01*
X139372719Y-109504378D01*
X139317069Y-109486602D01*
X139266237Y-109464486D01*
X139220157Y-109438029D01*
X139215283Y-109434792D01*
X139196567Y-109420712D01*
X139175977Y-109402815D01*
X139155462Y-109382989D01*
X139136975Y-109363121D01*
X139122467Y-109345098D01*
X139122249Y-109344796D01*
X139100643Y-109309690D01*
X139082364Y-109269925D01*
X139068068Y-109227369D01*
X139058407Y-109183891D01*
X139054563Y-109151322D01*
X139052125Y-109116075D01*
X138986861Y-109110151D01*
X138965600Y-109108247D01*
X138946304Y-109106565D01*
X138930259Y-109105215D01*
X138918751Y-109104305D01*
X138913228Y-109103947D01*
X138907499Y-109103127D01*
X138907862Y-109100173D01*
X138909700Y-109097780D01*
X138912206Y-109094046D01*
X138910247Y-109093062D01*
X138902652Y-109094302D01*
X138902195Y-109094395D01*
X138873402Y-109100018D01*
X138839443Y-109106305D01*
X138802141Y-109112942D01*
X138763316Y-109119618D01*
X138724791Y-109126019D01*
X138688388Y-109131832D01*
X138655929Y-109136745D01*
X138653486Y-109137100D01*
X138572912Y-109147996D01*
X138498021Y-109156419D01*
X138427880Y-109162343D01*
X138361555Y-109165744D01*
X138298112Y-109166596D01*
X138236617Y-109164874D01*
X138176137Y-109160552D01*
X138115738Y-109153606D01*
X138054486Y-109144011D01*
X137991447Y-109131741D01*
X137929022Y-109117576D01*
X137908781Y-109112551D01*
X137886071Y-109106658D01*
X137861883Y-109100181D01*
X137837209Y-109093404D01*
X137813040Y-109086608D01*
X137790368Y-109080079D01*
X137770185Y-109074099D01*
X137753483Y-109068952D01*
X137741254Y-109064921D01*
X137734488Y-109062289D01*
X137733566Y-109061724D01*
X137732791Y-109057976D01*
X137731361Y-109048155D01*
X137729385Y-109033201D01*
X137726971Y-109014055D01*
X137724230Y-108991658D01*
X137721271Y-108966950D01*
X137718203Y-108940871D01*
X137715135Y-108914363D01*
X137712177Y-108888366D01*
X137709438Y-108863821D01*
X137707027Y-108841668D01*
X137705053Y-108822848D01*
X137703626Y-108808301D01*
X137702856Y-108798969D01*
X137702750Y-108796513D01*
X137705981Y-108794892D01*
X137714738Y-108792314D01*
X137727621Y-108789158D01*
X137740674Y-108786320D01*
X137852843Y-108762094D01*
X137960877Y-108736570D01*
X138064350Y-108709870D01*
X138162836Y-108682119D01*
X138255907Y-108653443D01*
X138343136Y-108623966D01*
X138424097Y-108593812D01*
X138484873Y-108568941D01*
X138581354Y-108524433D01*
X138672826Y-108475507D01*
X138760180Y-108421614D01*
X138844308Y-108362202D01*
X138926008Y-108296801D01*
X138942297Y-108282731D01*
X138959777Y-108267209D01*
X138977670Y-108250973D01*
X138995197Y-108234760D01*
X139011580Y-108219307D01*
X139026041Y-108205349D01*
X139037800Y-108193625D01*
X139046080Y-108184870D01*
X139050101Y-108179822D01*
X139050361Y-108179115D01*
X139047110Y-108176617D01*
X139038072Y-108172803D01*
X139024325Y-108168001D01*
X139006944Y-108162535D01*
X138987005Y-108156732D01*
X138965586Y-108150917D01*
X138943761Y-108145417D01*
X138924184Y-108140901D01*
X138854960Y-108127922D01*
X138788054Y-108119990D01*
X138721839Y-108117067D01*
X138654685Y-108119115D01*
X138584963Y-108126096D01*
X138544493Y-108132096D01*
X138448180Y-108150856D01*
X138356411Y-108174807D01*
X138269248Y-108203917D01*
X138186756Y-108238158D01*
X138108996Y-108277499D01*
X138036032Y-108321909D01*
X137967926Y-108371359D01*
X137904742Y-108425818D01*
X137879139Y-108450731D01*
X137828494Y-108506095D01*
X137784450Y-108563280D01*
X137747101Y-108622148D01*
X137716539Y-108682560D01*
X137702795Y-108716028D01*
X137691307Y-108746432D01*
X137545263Y-108884996D01*
X137518489Y-108910468D01*
X137493372Y-108934499D01*
X137470360Y-108956652D01*
X137449900Y-108976490D01*
X137432438Y-108993575D01*
X137418421Y-109007472D01*
X137408298Y-109017742D01*
X137402514Y-109023950D01*
X137401302Y-109025690D01*
X137404842Y-109027513D01*
X137414198Y-109031927D01*
X137428740Y-109038645D01*
X137447842Y-109047381D01*
X137470876Y-109057849D01*
X137497212Y-109069763D01*
X137526225Y-109082837D01*
X137557286Y-109096784D01*
X137560834Y-109098375D01*
X137718283Y-109168931D01*
X137738397Y-109239486D01*
X137752426Y-109287561D01*
X137766124Y-109331940D01*
X137780476Y-109375693D01*
X137796469Y-109421894D01*
X137801638Y-109436422D01*
X137808304Y-109454496D01*
X137813501Y-109466977D01*
X137817837Y-109475013D01*
X137821920Y-109479755D01*
X137825801Y-109482121D01*
X137832334Y-109483374D01*
X137844938Y-109484399D01*
X137862632Y-109485198D01*
X137884436Y-109485771D01*
X137909368Y-109486120D01*
X137936448Y-109486246D01*
X137964694Y-109486150D01*
X137993127Y-109485833D01*
X138020765Y-109485297D01*
X138046627Y-109484542D01*
X138069733Y-109483570D01*
X138089101Y-109482382D01*
X138096098Y-109481800D01*
X138138615Y-109477639D01*
X138182437Y-109472920D01*
X138226678Y-109467767D01*
X138270449Y-109462304D01*
X138312864Y-109456654D01*
X138353037Y-109450940D01*
X138390079Y-109445287D01*
X138423105Y-109439818D01*
X138451228Y-109434657D01*
X138473560Y-109429927D01*
X138480625Y-109428196D01*
X138537051Y-109410188D01*
X138593259Y-109385555D01*
X138648619Y-109354716D01*
X138702503Y-109318088D01*
X138754283Y-109276091D01*
X138803331Y-109229142D01*
X138839231Y-109189419D01*
X138850382Y-109176365D01*
X138857812Y-109168129D01*
X138862317Y-109164108D01*
X138864696Y-109163703D01*
X138865744Y-109166312D01*
X138866076Y-109169177D01*
X138874928Y-109231029D01*
X138890125Y-109291195D01*
X138911367Y-109349025D01*
X138938355Y-109403868D01*
X138970792Y-109455075D01*
X139008378Y-109501994D01*
X139028870Y-109523506D01*
X139076020Y-109565375D01*
X139127880Y-109602239D01*
X139184477Y-109634103D01*
X139245836Y-109660972D01*
X139311984Y-109682847D01*
X139382947Y-109699735D01*
X139458750Y-109711639D01*
X139539419Y-109718562D01*
X139624981Y-109720510D01*
X139715460Y-109717486D01*
X139810884Y-109709493D01*
X139911277Y-109696537D01*
X140016666Y-109678621D01*
X140018736Y-109678229D01*
X140152040Y-109650715D01*
X140280610Y-109619678D01*
X140404222Y-109585198D01*
X140522650Y-109547354D01*
X140635672Y-109506225D01*
X140743063Y-109461891D01*
X140844597Y-109414429D01*
X140940052Y-109363920D01*
X140986556Y-109336871D01*
X141058432Y-109291622D01*
X141123929Y-109245957D01*
X141183722Y-109199299D01*
X141238486Y-109151071D01*
X141288895Y-109100694D01*
X141335624Y-109047593D01*
X141359292Y-109017935D01*
X141366348Y-109008793D01*
X141399885Y-109015455D01*
X141504889Y-109032936D01*
X141609330Y-109043496D01*
X141713815Y-109047171D01*
X141818949Y-109043997D01*
X141844361Y-109042219D01*
X141933685Y-109034517D01*
X142029546Y-109024773D01*
X142131740Y-109013024D01*
X142240062Y-108999304D01*
X142354307Y-108983649D01*
X142474270Y-108966094D01*
X142599745Y-108946676D01*
X142730528Y-108925428D01*
X142866414Y-108902388D01*
X143007197Y-108877589D01*
X143152673Y-108851068D01*
X143302636Y-108822860D01*
X143456882Y-108793000D01*
X143615205Y-108761525D01*
X143777401Y-108728468D01*
X143943264Y-108693866D01*
X144112589Y-108657754D01*
X144277083Y-108621946D01*
X144312540Y-108614219D01*
X144346328Y-108606982D01*
X144377744Y-108600378D01*
X144406082Y-108594550D01*
X144430639Y-108589638D01*
X144450711Y-108585785D01*
X144465595Y-108583134D01*
X144474586Y-108581825D01*
X144476402Y-108581710D01*
X144500853Y-108585325D01*
X144523020Y-108595489D01*
X144542465Y-108611940D01*
X144555298Y-108628714D01*
X144571220Y-108654601D01*
X144589408Y-108685862D01*
X144609273Y-108721421D01*
X144630229Y-108760199D01*
X144651687Y-108801119D01*
X144673058Y-108843103D01*
X144680724Y-108858486D01*
X144710533Y-108920291D01*
X144736152Y-108977008D01*
X144757736Y-109029113D01*
X144775437Y-109077077D01*
X144789410Y-109121376D01*
X144799807Y-109162481D01*
X144806783Y-109200868D01*
X144810490Y-109237009D01*
X144811223Y-109261017D01*
X144809855Y-109295658D01*
X144805603Y-109324824D01*
X144798245Y-109349574D01*
X144788407Y-109369576D01*
X144775372Y-109388408D01*
X144761151Y-109402507D01*
X144743422Y-109414103D01*
X144740516Y-109415661D01*
X144730170Y-109420668D01*
X144718802Y-109425256D01*
X144706049Y-109429454D01*
X144691542Y-109433295D01*
X144674918Y-109436806D01*
X144655811Y-109440019D01*
X144633854Y-109442964D01*
X144608682Y-109445671D01*
X144579929Y-109448170D01*
X144547230Y-109450491D01*
X144510219Y-109452664D01*
X144468530Y-109454720D01*
X144421798Y-109456689D01*
X144369657Y-109458601D01*
X144311742Y-109460486D01*
X144247685Y-109462374D01*
X144177123Y-109464296D01*
X144139181Y-109465282D01*
X144019555Y-109468512D01*
X143906447Y-109471915D01*
X143799322Y-109475525D01*
X143697645Y-109479372D01*
X143600878Y-109483490D01*
X143508487Y-109487910D01*
X143419937Y-109492664D01*
X143334690Y-109497786D01*
X143252212Y-109503306D01*
X143171967Y-109509258D01*
X143093420Y-109515673D01*
X143016033Y-109522583D01*
X142939273Y-109530022D01*
X142862603Y-109538020D01*
X142785487Y-109546611D01*
X142784514Y-109546723D01*
X142646765Y-109563667D01*
X142513516Y-109582414D01*
X142383549Y-109603216D01*
X142255649Y-109626325D01*
X142128599Y-109651993D01*
X142001181Y-109680474D01*
X141872181Y-109712018D01*
X141740381Y-109746880D01*
X141604564Y-109785310D01*
X141534101Y-109806143D01*
X141506987Y-109814416D01*
X141475101Y-109824394D01*
X141439282Y-109835799D01*
X141400367Y-109848350D01*
X141359195Y-109861768D01*
X141316606Y-109875772D01*
X141273438Y-109890082D01*
X141230530Y-109904419D01*
X141188720Y-109918503D01*
X141148847Y-109932054D01*
X141111751Y-109944791D01*
X141078268Y-109956436D01*
X141049239Y-109966707D01*
X141025502Y-109975326D01*
X141012325Y-109980287D01*
X140965900Y-109998714D01*
X140919052Y-110018455D01*
X140871172Y-110039814D01*
X140821650Y-110063099D01*
X140769877Y-110088614D01*
X140715244Y-110116665D01*
X140657142Y-110147558D01*
X140594962Y-110181598D01*
X140528093Y-110219091D01*
X140468528Y-110253090D01*
X140436877Y-110271282D01*
X140401373Y-110291686D01*
X140363969Y-110313181D01*
X140326618Y-110334643D01*
X140291271Y-110354953D01*
X140259882Y-110372987D01*
X140256861Y-110374722D01*
X140182151Y-110417228D01*
X140112611Y-110455860D01*
X140047666Y-110490832D01*
X139986738Y-110522361D01*
X139929249Y-110550662D01*
X139874623Y-110575950D01*
X139822282Y-110598442D01*
X139771649Y-110618353D01*
X139722146Y-110635898D01*
X139673197Y-110651294D01*
X139624224Y-110664755D01*
X139574649Y-110676498D01*
X139523896Y-110686738D01*
X139471387Y-110695691D01*
X139416545Y-110703573D01*
X139358792Y-110710598D01*
X139357278Y-110710768D01*
X139338693Y-110712405D01*
X139314406Y-110713872D01*
X139285621Y-110715152D01*
X139253537Y-110716227D01*
X139219357Y-110717078D01*
X139184282Y-110717688D01*
X139149513Y-110718037D01*
X139116253Y-110718108D01*
X139085702Y-110717882D01*
X139059062Y-110717342D01*
X139037534Y-110716469D01*
X139027431Y-110715766D01*
X138931437Y-110704796D01*
X138838591Y-110688944D01*
X138749357Y-110668340D01*
X138664199Y-110643112D01*
X138583580Y-110613390D01*
X138507963Y-110579303D01*
X138473570Y-110561423D01*
X138389499Y-110511747D01*
X138308006Y-110455614D01*
X138229071Y-110393003D01*
X138152676Y-110323893D01*
X138078800Y-110248264D01*
X138007424Y-110166095D01*
X137938528Y-110077366D01*
X137872092Y-109982057D01*
X137808098Y-109880145D01*
X137784143Y-109839208D01*
X137734336Y-109747801D01*
X137689157Y-109654995D01*
X137648144Y-109559669D01*
X137610834Y-109460702D01*
X137576764Y-109356973D01*
X137556318Y-109287111D01*
X137538063Y-109221847D01*
X137413150Y-109171265D01*
X137380801Y-109158164D01*
X137346720Y-109144360D01*
X137312371Y-109130446D01*
X137279218Y-109117013D01*
X137248725Y-109104657D01*
X137222356Y-109093970D01*
X137208125Y-109088200D01*
X137128013Y-109055719D01*
X137502699Y-108720903D01*
X137517975Y-108675042D01*
X137537971Y-108622558D01*
X137563359Y-108568304D01*
X137593290Y-108513803D01*
X137626916Y-108460580D01*
X137663391Y-108410159D01*
X137670077Y-108401644D01*
X137685188Y-108383691D01*
X137704455Y-108362394D01*
X137726654Y-108338976D01*
X137750561Y-108314659D01*
X137774953Y-108290663D01*
X137798606Y-108268213D01*
X137820297Y-108248529D01*
X137838802Y-108232834D01*
X137840334Y-108231608D01*
X137916271Y-108175687D01*
X137996675Y-108125202D01*
X138081488Y-108080177D01*
X138170648Y-108040636D01*
X138264097Y-108006603D01*
X138361776Y-107978101D01*
X138463624Y-107955155D01*
X138569582Y-107937789D01*
X138570584Y-107937654D01*
X138599559Y-107934531D01*
X138633508Y-107932131D01*
X138670383Y-107930500D01*
X138708133Y-107929688D01*
X138744710Y-107929742D01*
X138744710Y-107929742D01*
G37*
X138744710Y-107929742D02*
X138778065Y-107930711D01*
X138801653Y-107932228D01*
X138881789Y-107941955D01*
X138963758Y-107957253D01*
X139045701Y-107977681D01*
X139125758Y-108002796D01*
X139173541Y-108020493D01*
X139216347Y-108037482D01*
X139258596Y-108054539D01*
X139300667Y-108071839D01*
X139342939Y-108089558D01*
X139385789Y-108107874D01*
X139429595Y-108126961D01*
X139474736Y-108146995D01*
X139521589Y-108168154D01*
X139570533Y-108190612D01*
X139621945Y-108214546D01*
X139676204Y-108240132D01*
X139733687Y-108267546D01*
X139794774Y-108296964D01*
X139859841Y-108328562D01*
X139929268Y-108362517D01*
X140003431Y-108399003D01*
X140082710Y-108438198D01*
X140167481Y-108480277D01*
X140258124Y-108525417D01*
X140262153Y-108527426D01*
X140341946Y-108567125D01*
X140416001Y-108603758D01*
X140484816Y-108637553D01*
X140548891Y-108668740D01*
X140608725Y-108697551D01*
X140664817Y-108724213D01*
X140717666Y-108748957D01*
X140767772Y-108772014D01*
X140815634Y-108793612D01*
X140861750Y-108813982D01*
X140906621Y-108833354D01*
X140950745Y-108851956D01*
X140994621Y-108870021D01*
X141038749Y-108887776D01*
X141080598Y-108904269D01*
X141104243Y-108913530D01*
X141125881Y-108922058D01*
X141144594Y-108929487D01*
X141159464Y-108935450D01*
X141169573Y-108939583D01*
X141173972Y-108941501D01*
X141174988Y-108943865D01*
X141172632Y-108948645D01*
X141166411Y-108956483D01*
X141155837Y-108968023D01*
X141145750Y-108978474D01*
X141088555Y-109032600D01*
X141024755Y-109084757D01*
X140954551Y-109134846D01*
X140878140Y-109182769D01*
X140795723Y-109228425D01*
X140707498Y-109271717D01*
X140613665Y-109312546D01*
X140514422Y-109350812D01*
X140409969Y-109386417D01*
X140300504Y-109419262D01*
X140209236Y-109443540D01*
X140101653Y-109469136D01*
X139999570Y-109490398D01*
X139902918Y-109507325D01*
X139811629Y-109519916D01*
X139725636Y-109528170D01*
X139644870Y-109532088D01*
X139569264Y-109531668D01*
X139498748Y-109526910D01*
X139433256Y-109517814D01*
X139372719Y-109504378D01*
X139317069Y-109486602D01*
X139266237Y-109464486D01*
X139220157Y-109438029D01*
X139215283Y-109434792D01*
X139196567Y-109420712D01*
X139175977Y-109402815D01*
X139155462Y-109382989D01*
X139136975Y-109363121D01*
X139122467Y-109345098D01*
X139122249Y-109344796D01*
X139100643Y-109309690D01*
X139082364Y-109269925D01*
X139068068Y-109227369D01*
X139058407Y-109183891D01*
X139054563Y-109151322D01*
X139052125Y-109116075D01*
X138986861Y-109110151D01*
X138965600Y-109108247D01*
X138946304Y-109106565D01*
X138930259Y-109105215D01*
X138918751Y-109104305D01*
X138913228Y-109103947D01*
X138907499Y-109103127D01*
X138907862Y-109100173D01*
X138909700Y-109097780D01*
X138912206Y-109094046D01*
X138910247Y-109093062D01*
X138902652Y-109094302D01*
X138902195Y-109094395D01*
X138873402Y-109100018D01*
X138839443Y-109106305D01*
X138802141Y-109112942D01*
X138763316Y-109119618D01*
X138724791Y-109126019D01*
X138688388Y-109131832D01*
X138655929Y-109136745D01*
X138653486Y-109137100D01*
X138572912Y-109147996D01*
X138498021Y-109156419D01*
X138427880Y-109162343D01*
X138361555Y-109165744D01*
X138298112Y-109166596D01*
X138236617Y-109164874D01*
X138176137Y-109160552D01*
X138115738Y-109153606D01*
X138054486Y-109144011D01*
X137991447Y-109131741D01*
X137929022Y-109117576D01*
X137908781Y-109112551D01*
X137886071Y-109106658D01*
X137861883Y-109100181D01*
X137837209Y-109093404D01*
X137813040Y-109086608D01*
X137790368Y-109080079D01*
X137770185Y-109074099D01*
X137753483Y-109068952D01*
X137741254Y-109064921D01*
X137734488Y-109062289D01*
X137733566Y-109061724D01*
X137732791Y-109057976D01*
X137731361Y-109048155D01*
X137729385Y-109033201D01*
X137726971Y-109014055D01*
X137724230Y-108991658D01*
X137721271Y-108966950D01*
X137718203Y-108940871D01*
X137715135Y-108914363D01*
X137712177Y-108888366D01*
X137709438Y-108863821D01*
X137707027Y-108841668D01*
X137705053Y-108822848D01*
X137703626Y-108808301D01*
X137702856Y-108798969D01*
X137702750Y-108796513D01*
X137705981Y-108794892D01*
X137714738Y-108792314D01*
X137727621Y-108789158D01*
X137740674Y-108786320D01*
X137852843Y-108762094D01*
X137960877Y-108736570D01*
X138064350Y-108709870D01*
X138162836Y-108682119D01*
X138255907Y-108653443D01*
X138343136Y-108623966D01*
X138424097Y-108593812D01*
X138484873Y-108568941D01*
X138581354Y-108524433D01*
X138672826Y-108475507D01*
X138760180Y-108421614D01*
X138844308Y-108362202D01*
X138926008Y-108296801D01*
X138942297Y-108282731D01*
X138959777Y-108267209D01*
X138977670Y-108250973D01*
X138995197Y-108234760D01*
X139011580Y-108219307D01*
X139026041Y-108205349D01*
X139037800Y-108193625D01*
X139046080Y-108184870D01*
X139050101Y-108179822D01*
X139050361Y-108179115D01*
X139047110Y-108176617D01*
X139038072Y-108172803D01*
X139024325Y-108168001D01*
X139006944Y-108162535D01*
X138987005Y-108156732D01*
X138965586Y-108150917D01*
X138943761Y-108145417D01*
X138924184Y-108140901D01*
X138854960Y-108127922D01*
X138788054Y-108119990D01*
X138721839Y-108117067D01*
X138654685Y-108119115D01*
X138584963Y-108126096D01*
X138544493Y-108132096D01*
X138448180Y-108150856D01*
X138356411Y-108174807D01*
X138269248Y-108203917D01*
X138186756Y-108238158D01*
X138108996Y-108277499D01*
X138036032Y-108321909D01*
X137967926Y-108371359D01*
X137904742Y-108425818D01*
X137879139Y-108450731D01*
X137828494Y-108506095D01*
X137784450Y-108563280D01*
X137747101Y-108622148D01*
X137716539Y-108682560D01*
X137702795Y-108716028D01*
X137691307Y-108746432D01*
X137545263Y-108884996D01*
X137518489Y-108910468D01*
X137493372Y-108934499D01*
X137470360Y-108956652D01*
X137449900Y-108976490D01*
X137432438Y-108993575D01*
X137418421Y-109007472D01*
X137408298Y-109017742D01*
X137402514Y-109023950D01*
X137401302Y-109025690D01*
X137404842Y-109027513D01*
X137414198Y-109031927D01*
X137428740Y-109038645D01*
X137447842Y-109047381D01*
X137470876Y-109057849D01*
X137497212Y-109069763D01*
X137526225Y-109082837D01*
X137557286Y-109096784D01*
X137560834Y-109098375D01*
X137718283Y-109168931D01*
X137738397Y-109239486D01*
X137752426Y-109287561D01*
X137766124Y-109331940D01*
X137780476Y-109375693D01*
X137796469Y-109421894D01*
X137801638Y-109436422D01*
X137808304Y-109454496D01*
X137813501Y-109466977D01*
X137817837Y-109475013D01*
X137821920Y-109479755D01*
X137825801Y-109482121D01*
X137832334Y-109483374D01*
X137844938Y-109484399D01*
X137862632Y-109485198D01*
X137884436Y-109485771D01*
X137909368Y-109486120D01*
X137936448Y-109486246D01*
X137964694Y-109486150D01*
X137993127Y-109485833D01*
X138020765Y-109485297D01*
X138046627Y-109484542D01*
X138069733Y-109483570D01*
X138089101Y-109482382D01*
X138096098Y-109481800D01*
X138138615Y-109477639D01*
X138182437Y-109472920D01*
X138226678Y-109467767D01*
X138270449Y-109462304D01*
X138312864Y-109456654D01*
X138353037Y-109450940D01*
X138390079Y-109445287D01*
X138423105Y-109439818D01*
X138451228Y-109434657D01*
X138473560Y-109429927D01*
X138480625Y-109428196D01*
X138537051Y-109410188D01*
X138593259Y-109385555D01*
X138648619Y-109354716D01*
X138702503Y-109318088D01*
X138754283Y-109276091D01*
X138803331Y-109229142D01*
X138839231Y-109189419D01*
X138850382Y-109176365D01*
X138857812Y-109168129D01*
X138862317Y-109164108D01*
X138864696Y-109163703D01*
X138865744Y-109166312D01*
X138866076Y-109169177D01*
X138874928Y-109231029D01*
X138890125Y-109291195D01*
X138911367Y-109349025D01*
X138938355Y-109403868D01*
X138970792Y-109455075D01*
X139008378Y-109501994D01*
X139028870Y-109523506D01*
X139076020Y-109565375D01*
X139127880Y-109602239D01*
X139184477Y-109634103D01*
X139245836Y-109660972D01*
X139311984Y-109682847D01*
X139382947Y-109699735D01*
X139458750Y-109711639D01*
X139539419Y-109718562D01*
X139624981Y-109720510D01*
X139715460Y-109717486D01*
X139810884Y-109709493D01*
X139911277Y-109696537D01*
X140016666Y-109678621D01*
X140018736Y-109678229D01*
X140152040Y-109650715D01*
X140280610Y-109619678D01*
X140404222Y-109585198D01*
X140522650Y-109547354D01*
X140635672Y-109506225D01*
X140743063Y-109461891D01*
X140844597Y-109414429D01*
X140940052Y-109363920D01*
X140986556Y-109336871D01*
X141058432Y-109291622D01*
X141123929Y-109245957D01*
X141183722Y-109199299D01*
X141238486Y-109151071D01*
X141288895Y-109100694D01*
X141335624Y-109047593D01*
X141359292Y-109017935D01*
X141366348Y-109008793D01*
X141399885Y-109015455D01*
X141504889Y-109032936D01*
X141609330Y-109043496D01*
X141713815Y-109047171D01*
X141818949Y-109043997D01*
X141844361Y-109042219D01*
X141933685Y-109034517D01*
X142029546Y-109024773D01*
X142131740Y-109013024D01*
X142240062Y-108999304D01*
X142354307Y-108983649D01*
X142474270Y-108966094D01*
X142599745Y-108946676D01*
X142730528Y-108925428D01*
X142866414Y-108902388D01*
X143007197Y-108877589D01*
X143152673Y-108851068D01*
X143302636Y-108822860D01*
X143456882Y-108793000D01*
X143615205Y-108761525D01*
X143777401Y-108728468D01*
X143943264Y-108693866D01*
X144112589Y-108657754D01*
X144277083Y-108621946D01*
X144312540Y-108614219D01*
X144346328Y-108606982D01*
X144377744Y-108600378D01*
X144406082Y-108594550D01*
X144430639Y-108589638D01*
X144450711Y-108585785D01*
X144465595Y-108583134D01*
X144474586Y-108581825D01*
X144476402Y-108581710D01*
X144500853Y-108585325D01*
X144523020Y-108595489D01*
X144542465Y-108611940D01*
X144555298Y-108628714D01*
X144571220Y-108654601D01*
X144589408Y-108685862D01*
X144609273Y-108721421D01*
X144630229Y-108760199D01*
X144651687Y-108801119D01*
X144673058Y-108843103D01*
X144680724Y-108858486D01*
X144710533Y-108920291D01*
X144736152Y-108977008D01*
X144757736Y-109029113D01*
X144775437Y-109077077D01*
X144789410Y-109121376D01*
X144799807Y-109162481D01*
X144806783Y-109200868D01*
X144810490Y-109237009D01*
X144811223Y-109261017D01*
X144809855Y-109295658D01*
X144805603Y-109324824D01*
X144798245Y-109349574D01*
X144788407Y-109369576D01*
X144775372Y-109388408D01*
X144761151Y-109402507D01*
X144743422Y-109414103D01*
X144740516Y-109415661D01*
X144730170Y-109420668D01*
X144718802Y-109425256D01*
X144706049Y-109429454D01*
X144691542Y-109433295D01*
X144674918Y-109436806D01*
X144655811Y-109440019D01*
X144633854Y-109442964D01*
X144608682Y-109445671D01*
X144579929Y-109448170D01*
X144547230Y-109450491D01*
X144510219Y-109452664D01*
X144468530Y-109454720D01*
X144421798Y-109456689D01*
X144369657Y-109458601D01*
X144311742Y-109460486D01*
X144247685Y-109462374D01*
X144177123Y-109464296D01*
X144139181Y-109465282D01*
X144019555Y-109468512D01*
X143906447Y-109471915D01*
X143799322Y-109475525D01*
X143697645Y-109479372D01*
X143600878Y-109483490D01*
X143508487Y-109487910D01*
X143419937Y-109492664D01*
X143334690Y-109497786D01*
X143252212Y-109503306D01*
X143171967Y-109509258D01*
X143093420Y-109515673D01*
X143016033Y-109522583D01*
X142939273Y-109530022D01*
X142862603Y-109538020D01*
X142785487Y-109546611D01*
X142784514Y-109546723D01*
X142646765Y-109563667D01*
X142513516Y-109582414D01*
X142383549Y-109603216D01*
X142255649Y-109626325D01*
X142128599Y-109651993D01*
X142001181Y-109680474D01*
X141872181Y-109712018D01*
X141740381Y-109746880D01*
X141604564Y-109785310D01*
X141534101Y-109806143D01*
X141506987Y-109814416D01*
X141475101Y-109824394D01*
X141439282Y-109835799D01*
X141400367Y-109848350D01*
X141359195Y-109861768D01*
X141316606Y-109875772D01*
X141273438Y-109890082D01*
X141230530Y-109904419D01*
X141188720Y-109918503D01*
X141148847Y-109932054D01*
X141111751Y-109944791D01*
X141078268Y-109956436D01*
X141049239Y-109966707D01*
X141025502Y-109975326D01*
X141012325Y-109980287D01*
X140965900Y-109998714D01*
X140919052Y-110018455D01*
X140871172Y-110039814D01*
X140821650Y-110063099D01*
X140769877Y-110088614D01*
X140715244Y-110116665D01*
X140657142Y-110147558D01*
X140594962Y-110181598D01*
X140528093Y-110219091D01*
X140468528Y-110253090D01*
X140436877Y-110271282D01*
X140401373Y-110291686D01*
X140363969Y-110313181D01*
X140326618Y-110334643D01*
X140291271Y-110354953D01*
X140259882Y-110372987D01*
X140256861Y-110374722D01*
X140182151Y-110417228D01*
X140112611Y-110455860D01*
X140047666Y-110490832D01*
X139986738Y-110522361D01*
X139929249Y-110550662D01*
X139874623Y-110575950D01*
X139822282Y-110598442D01*
X139771649Y-110618353D01*
X139722146Y-110635898D01*
X139673197Y-110651294D01*
X139624224Y-110664755D01*
X139574649Y-110676498D01*
X139523896Y-110686738D01*
X139471387Y-110695691D01*
X139416545Y-110703573D01*
X139358792Y-110710598D01*
X139357278Y-110710768D01*
X139338693Y-110712405D01*
X139314406Y-110713872D01*
X139285621Y-110715152D01*
X139253537Y-110716227D01*
X139219357Y-110717078D01*
X139184282Y-110717688D01*
X139149513Y-110718037D01*
X139116253Y-110718108D01*
X139085702Y-110717882D01*
X139059062Y-110717342D01*
X139037534Y-110716469D01*
X139027431Y-110715766D01*
X138931437Y-110704796D01*
X138838591Y-110688944D01*
X138749357Y-110668340D01*
X138664199Y-110643112D01*
X138583580Y-110613390D01*
X138507963Y-110579303D01*
X138473570Y-110561423D01*
X138389499Y-110511747D01*
X138308006Y-110455614D01*
X138229071Y-110393003D01*
X138152676Y-110323893D01*
X138078800Y-110248264D01*
X138007424Y-110166095D01*
X137938528Y-110077366D01*
X137872092Y-109982057D01*
X137808098Y-109880145D01*
X137784143Y-109839208D01*
X137734336Y-109747801D01*
X137689157Y-109654995D01*
X137648144Y-109559669D01*
X137610834Y-109460702D01*
X137576764Y-109356973D01*
X137556318Y-109287111D01*
X137538063Y-109221847D01*
X137413150Y-109171265D01*
X137380801Y-109158164D01*
X137346720Y-109144360D01*
X137312371Y-109130446D01*
X137279218Y-109117013D01*
X137248725Y-109104657D01*
X137222356Y-109093970D01*
X137208125Y-109088200D01*
X137128013Y-109055719D01*
X137502699Y-108720903D01*
X137517975Y-108675042D01*
X137537971Y-108622558D01*
X137563359Y-108568304D01*
X137593290Y-108513803D01*
X137626916Y-108460580D01*
X137663391Y-108410159D01*
X137670077Y-108401644D01*
X137685188Y-108383691D01*
X137704455Y-108362394D01*
X137726654Y-108338976D01*
X137750561Y-108314659D01*
X137774953Y-108290663D01*
X137798606Y-108268213D01*
X137820297Y-108248529D01*
X137838802Y-108232834D01*
X137840334Y-108231608D01*
X137916271Y-108175687D01*
X137996675Y-108125202D01*
X138081488Y-108080177D01*
X138170648Y-108040636D01*
X138264097Y-108006603D01*
X138361776Y-107978101D01*
X138463624Y-107955155D01*
X138569582Y-107937789D01*
X138570584Y-107937654D01*
X138599559Y-107934531D01*
X138633508Y-107932131D01*
X138670383Y-107930500D01*
X138708133Y-107929688D01*
X138744710Y-107929742D01*
D14*
X156775000Y-122500000D02*
X157775000Y-122500000D01*
X157775000Y-123850000D02*
X156775000Y-123850000D01*
X130455000Y-109690000D02*
X130455000Y-108690000D01*
X131805000Y-108690000D02*
X131805000Y-109690000D01*
D10*
G36*
X157060455Y-120378753D02*
X157289791Y-119885721D01*
X157301936Y-119887266D01*
X157313848Y-119888664D01*
X157325528Y-119889915D01*
X157336975Y-119891019D01*
X157348189Y-119891976D01*
X157359171Y-119892785D01*
X157369919Y-119893448D01*
X157380435Y-119893963D01*
X157390719Y-119894331D01*
X157400769Y-119894551D01*
X157410587Y-119894625D01*
X157422760Y-119894414D01*
X157434585Y-119893783D01*
X157446063Y-119892730D01*
X157457192Y-119891256D01*
X157467974Y-119889360D01*
X157478408Y-119887044D01*
X157488494Y-119884307D01*
X157498232Y-119881148D01*
X157507622Y-119877568D01*
X157516664Y-119873567D01*
X157525359Y-119869145D01*
X157533705Y-119864301D01*
X157541704Y-119859037D01*
X157549354Y-119853351D01*
X157556657Y-119847244D01*
X157563612Y-119840716D01*
X157570219Y-119833767D01*
X157575155Y-119827962D01*
X157579862Y-119821770D01*
X157584339Y-119815192D01*
X157588586Y-119808227D01*
X157592604Y-119800877D01*
X157596393Y-119793140D01*
X157599952Y-119785017D01*
X157603281Y-119776507D01*
X157606380Y-119767611D01*
X157609250Y-119758329D01*
X157611891Y-119748661D01*
X157614301Y-119738607D01*
X157616483Y-119728166D01*
X157618434Y-119717339D01*
X157620156Y-119706125D01*
X157621648Y-119694526D01*
X157622911Y-119682540D01*
X157623944Y-119670167D01*
X157624748Y-119657409D01*
X157625322Y-119644264D01*
X157625666Y-119630733D01*
X157625781Y-119616816D01*
X157625696Y-119602566D01*
X157625439Y-119588680D01*
X157625010Y-119575159D01*
X157624411Y-119562003D01*
X157623640Y-119549211D01*
X157622698Y-119536783D01*
X157621585Y-119524720D01*
X157620300Y-119513021D01*
X157618844Y-119501687D01*
X157617217Y-119490717D01*
X157615418Y-119480112D01*
X157613449Y-119469871D01*
X157611307Y-119459995D01*
X157608995Y-119450483D01*
X157606511Y-119441336D01*
X157603857Y-119432553D01*
X157601030Y-119424135D01*
X157598033Y-119416081D01*
X157594864Y-119408391D01*
X157591524Y-119401066D01*
X157588012Y-119394106D01*
X157584330Y-119387510D01*
X157579240Y-119379453D01*
X157573722Y-119371884D01*
X157567777Y-119364803D01*
X157561405Y-119358210D01*
X157554606Y-119352106D01*
X157547380Y-119346491D01*
X157539726Y-119341363D01*
X157531645Y-119336724D01*
X157523137Y-119332573D01*
X157514201Y-119328911D01*
X157504839Y-119325737D01*
X157495049Y-119323051D01*
X157484832Y-119320854D01*
X157474187Y-119319144D01*
X157463116Y-119317924D01*
X157451617Y-119317191D01*
X157439691Y-119316947D01*
X157425887Y-119317130D01*
X157412696Y-119317681D01*
X157400118Y-119318598D01*
X157388155Y-119319881D01*
X157376804Y-119321532D01*
X157366068Y-119323549D01*
X157355945Y-119325933D01*
X157346435Y-119328684D01*
X157337539Y-119331802D01*
X157329256Y-119335287D01*
X157321587Y-119339138D01*
X157314532Y-119343356D01*
X157308089Y-119347941D01*
X157302261Y-119352893D01*
X157297046Y-119358212D01*
X157292445Y-119363897D01*
X157288457Y-119369949D01*
X157285082Y-119376368D01*
X157282321Y-119383154D01*
X157280174Y-119390307D01*
X157278640Y-119397826D01*
X157277720Y-119405712D01*
X157277413Y-119413965D01*
X157277413Y-119884040D01*
X157277413Y-119884028D01*
X157289791Y-119885721D01*
X157060455Y-120378753D01*
X157060455Y-119434195D01*
X157060630Y-119423448D01*
X157061155Y-119412835D01*
X157062030Y-119402355D01*
X157063256Y-119392009D01*
X157064831Y-119381795D01*
X157066757Y-119371716D01*
X157069033Y-119361769D01*
X157071658Y-119351956D01*
X157074634Y-119342276D01*
X157077960Y-119332730D01*
X157081636Y-119323316D01*
X157085663Y-119314037D01*
X157090039Y-119304890D01*
X157094766Y-119295877D01*
X157099842Y-119286997D01*
X157105269Y-119278251D01*
X157111046Y-119269638D01*
X157117173Y-119261158D01*
X157123650Y-119252812D01*
X157130477Y-119244599D01*
X157137654Y-119236519D01*
X157145181Y-119228573D01*
X157153059Y-119220760D01*
X157159625Y-119214662D01*
X157166428Y-119208779D01*
X157173467Y-119203109D01*
X157180744Y-119197654D01*
X157188258Y-119192412D01*
X157196009Y-119187385D01*
X157203997Y-119182571D01*
X157212222Y-119177972D01*
X157220683Y-119173586D01*
X157229382Y-119169414D01*
X157238318Y-119165456D01*
X157247491Y-119161712D01*
X157256901Y-119158182D01*
X157266548Y-119154866D01*
X157276432Y-119151764D01*
X157286552Y-119148876D01*
X157296910Y-119146201D01*
X157307505Y-119143741D01*
X157318337Y-119141495D01*
X157329406Y-119139462D01*
X157340712Y-119137644D01*
X157352255Y-119136039D01*
X157364035Y-119134649D01*
X157376051Y-119133472D01*
X157388305Y-119132509D01*
X157400796Y-119131760D01*
X157413524Y-119131226D01*
X157426489Y-119130905D01*
X157439691Y-119130798D01*
X157450922Y-119130909D01*
X157462125Y-119131242D01*
X157473301Y-119131797D01*
X157484450Y-119132574D01*
X157495570Y-119133573D01*
X157506664Y-119134794D01*
X157517729Y-119136237D01*
X157528767Y-119137902D01*
X157537913Y-119139551D01*
X157547359Y-119141657D01*
X157557104Y-119144220D01*
X157567150Y-119147239D01*
X157577495Y-119150714D01*
X157588140Y-119154647D01*
X157599085Y-119159035D01*
X157610330Y-119163881D01*
X157621874Y-119169183D01*
X157633719Y-119174942D01*
X157643739Y-119180063D01*
X157653513Y-119185430D01*
X157663043Y-119191041D01*
X157672328Y-119196897D01*
X157681368Y-119202998D01*
X157690163Y-119209344D01*
X157698713Y-119215935D01*
X157707018Y-119222770D01*
X157715078Y-119229851D01*
X157722893Y-119237176D01*
X157730463Y-119244746D01*
X157737788Y-119252561D01*
X157743499Y-119259111D01*
X157749108Y-119266060D01*
X157754616Y-119273410D01*
X157760021Y-119281159D01*
X157765324Y-119289308D01*
X157770526Y-119297856D01*
X157775626Y-119306805D01*
X157780623Y-119316153D01*
X157785519Y-119325901D01*
X157790313Y-119336049D01*
X157795005Y-119346596D01*
X157799595Y-119357544D01*
X157804083Y-119368891D01*
X157808469Y-119380638D01*
X157812753Y-119392784D01*
X157815849Y-119402029D01*
X157818786Y-119411419D01*
X157821564Y-119420955D01*
X157824183Y-119430637D01*
X157826644Y-119440464D01*
X157828946Y-119450437D01*
X157831089Y-119460555D01*
X157833073Y-119470819D01*
X157834899Y-119481228D01*
X157836566Y-119491783D01*
X157838074Y-119502484D01*
X157839423Y-119513330D01*
X157840614Y-119524322D01*
X157841646Y-119535459D01*
X157842519Y-119546742D01*
X157843233Y-119558171D01*
X157843789Y-119569745D01*
X157844186Y-119581464D01*
X157844424Y-119593330D01*
X157844503Y-119605340D01*
X157844410Y-119618221D01*
X157844128Y-119630925D01*
X157843659Y-119643452D01*
X157843002Y-119655802D01*
X157842157Y-119667975D01*
X157841125Y-119679971D01*
X157839905Y-119691790D01*
X157838498Y-119703432D01*
X157836902Y-119714897D01*
X157835119Y-119726185D01*
X157833149Y-119737297D01*
X157830990Y-119748231D01*
X157828644Y-119758988D01*
X157826111Y-119769568D01*
X157823389Y-119779971D01*
X157820480Y-119790198D01*
X157817384Y-119800247D01*
X157814099Y-119810119D01*
X157810627Y-119819814D01*
X157806967Y-119829333D01*
X157803120Y-119838674D01*
X157799085Y-119847839D01*
X157794862Y-119856826D01*
X157790452Y-119865636D01*
X157785853Y-119874270D01*
X157781068Y-119882726D01*
X157776094Y-119891006D01*
X157770933Y-119899108D01*
X157765584Y-119907034D01*
X157760047Y-119914783D01*
X157754323Y-119922354D01*
X157748411Y-119929749D01*
X157742312Y-119936966D01*
X157736024Y-119944007D01*
X157729364Y-119951061D01*
X157722532Y-119957897D01*
X157715528Y-119964517D01*
X157708353Y-119970919D01*
X157701006Y-119977105D01*
X157693487Y-119983073D01*
X157685796Y-119988825D01*
X157677934Y-119994359D01*
X157669900Y-119999676D01*
X157661695Y-120004777D01*
X157653317Y-120009660D01*
X157644769Y-120014326D01*
X157636048Y-120018775D01*
X157627156Y-120023007D01*
X157618092Y-120027023D01*
X157608856Y-120030821D01*
X157599448Y-120034402D01*
X157589869Y-120037766D01*
X157580119Y-120040913D01*
X157570196Y-120043843D01*
X157560102Y-120046556D01*
X157549836Y-120049052D01*
X157539398Y-120051330D01*
X157528789Y-120053392D01*
X157518008Y-120055237D01*
X157507056Y-120056865D01*
X157495931Y-120058276D01*
X157484635Y-120059469D01*
X157473168Y-120060446D01*
X157461528Y-120061205D01*
X157449717Y-120061748D01*
X157437734Y-120062074D01*
X157425580Y-120062182D01*
X157414762Y-120062101D01*
X157403981Y-120061858D01*
X157393236Y-120061453D01*
X157382527Y-120060887D01*
X157371853Y-120060158D01*
X157361216Y-120059267D01*
X157350615Y-120058214D01*
X157340049Y-120057000D01*
X157329520Y-120055623D01*
X157319027Y-120054085D01*
X157308569Y-120052384D01*
X157298148Y-120050522D01*
X157287762Y-120048498D01*
X157277413Y-120046311D01*
X157277413Y-120378801D01*
X157060455Y-120378801D01*
X157060455Y-120378753D01*
X157060455Y-120378753D01*
G37*
G36*
X158137309Y-119938661D02*
X158259243Y-119444362D01*
X158256812Y-119454479D01*
X158254593Y-119465047D01*
X158252585Y-119476068D01*
X158250788Y-119487540D01*
X158249203Y-119499464D01*
X158247829Y-119511840D01*
X158246666Y-119524668D01*
X158245715Y-119537948D01*
X158244975Y-119551680D01*
X158244447Y-119565864D01*
X158244130Y-119580499D01*
X158244024Y-119595587D01*
X158244130Y-119610596D01*
X158244447Y-119625157D01*
X158244975Y-119639270D01*
X158245715Y-119652935D01*
X158246666Y-119666151D01*
X158247829Y-119678919D01*
X158249203Y-119691239D01*
X158250788Y-119703111D01*
X158252585Y-119714534D01*
X158254593Y-119725509D01*
X158256812Y-119736036D01*
X158259243Y-119746114D01*
X158261885Y-119755744D01*
X158264739Y-119764926D01*
X158267804Y-119773660D01*
X158271080Y-119781945D01*
X158274568Y-119789782D01*
X158278267Y-119797171D01*
X158282177Y-119804112D01*
X158286299Y-119810604D01*
X158290632Y-119816648D01*
X158295177Y-119822244D01*
X158301488Y-119828890D01*
X158308177Y-119835134D01*
X158315245Y-119840975D01*
X158322691Y-119846413D01*
X158330516Y-119851449D01*
X158338719Y-119856081D01*
X158347300Y-119860311D01*
X158356260Y-119864138D01*
X158365598Y-119867562D01*
X158375315Y-119870583D01*
X158385410Y-119873201D01*
X158395884Y-119875417D01*
X158406735Y-119877230D01*
X158417966Y-119878639D01*
X158429574Y-119879646D01*
X158441561Y-119880251D01*
X158453927Y-119880452D01*
X158466290Y-119880251D01*
X158478267Y-119879646D01*
X158489861Y-119878639D01*
X158501070Y-119877230D01*
X158511894Y-119875417D01*
X158522334Y-119873201D01*
X158532390Y-119870583D01*
X158542060Y-119867562D01*
X158551347Y-119864138D01*
X158560249Y-119860311D01*
X158568766Y-119856081D01*
X158576899Y-119851449D01*
X158584647Y-119846413D01*
X158592011Y-119840975D01*
X158598990Y-119835134D01*
X158605585Y-119828890D01*
X158611795Y-119822244D01*
X158616340Y-119816648D01*
X158620673Y-119810604D01*
X158624795Y-119804112D01*
X158628705Y-119797171D01*
X158632404Y-119789782D01*
X158635892Y-119781945D01*
X158639168Y-119773660D01*
X158642233Y-119764926D01*
X158645087Y-119755744D01*
X158647729Y-119746114D01*
X158650160Y-119736036D01*
X158652379Y-119725509D01*
X158654387Y-119714534D01*
X158656184Y-119703111D01*
X158657769Y-119691239D01*
X158659143Y-119678919D01*
X158660306Y-119666151D01*
X158661257Y-119652935D01*
X158661997Y-119639270D01*
X158662525Y-119625157D01*
X158662842Y-119610596D01*
X158662948Y-119595587D01*
X158662842Y-119580499D01*
X158662525Y-119565864D01*
X158661997Y-119551680D01*
X158661257Y-119537948D01*
X158660306Y-119524668D01*
X158659143Y-119511840D01*
X158657769Y-119499464D01*
X158656184Y-119487540D01*
X158654387Y-119476068D01*
X158652379Y-119465047D01*
X158650160Y-119454479D01*
X158647729Y-119444362D01*
X158645087Y-119434697D01*
X158642233Y-119425485D01*
X158639168Y-119416724D01*
X158635892Y-119408415D01*
X158632404Y-119400558D01*
X158628705Y-119393153D01*
X158624795Y-119386199D01*
X158620673Y-119379698D01*
X158616340Y-119373649D01*
X158611795Y-119368051D01*
X158605585Y-119361303D01*
X158598990Y-119354963D01*
X158592011Y-119349033D01*
X158584647Y-119343511D01*
X158576899Y-119338399D01*
X158568766Y-119333695D01*
X158560249Y-119329401D01*
X158551347Y-119325516D01*
X158542060Y-119322039D01*
X158532390Y-119318972D01*
X158522334Y-119316313D01*
X158511894Y-119314064D01*
X158501070Y-119312223D01*
X158489861Y-119310792D01*
X158478267Y-119309769D01*
X158466290Y-119309156D01*
X158453927Y-119308951D01*
X158441561Y-119309156D01*
X158429574Y-119309769D01*
X158417966Y-119310792D01*
X158406735Y-119312223D01*
X158395884Y-119314064D01*
X158385410Y-119316313D01*
X158375315Y-119318972D01*
X158365598Y-119322039D01*
X158356260Y-119325516D01*
X158347300Y-119329401D01*
X158338719Y-119333695D01*
X158330516Y-119338399D01*
X158322691Y-119343511D01*
X158315245Y-119349033D01*
X158308177Y-119354963D01*
X158301488Y-119361303D01*
X158295177Y-119368051D01*
X158290632Y-119373649D01*
X158286299Y-119379698D01*
X158282177Y-119386199D01*
X158278267Y-119393153D01*
X158274568Y-119400558D01*
X158271080Y-119408415D01*
X158267804Y-119416724D01*
X158264739Y-119425485D01*
X158261885Y-119434697D01*
X158259243Y-119444362D01*
X158137309Y-119938661D01*
X158131099Y-119931722D01*
X158125070Y-119924613D01*
X158119220Y-119917334D01*
X158113550Y-119909885D01*
X158108061Y-119902267D01*
X158102751Y-119894478D01*
X158097621Y-119886520D01*
X158092672Y-119878392D01*
X158087902Y-119870094D01*
X158083312Y-119861626D01*
X158078903Y-119852988D01*
X158074673Y-119844180D01*
X158070623Y-119835202D01*
X158066753Y-119826054D01*
X158063064Y-119816737D01*
X158059554Y-119807250D01*
X158056224Y-119797592D01*
X158053074Y-119787765D01*
X158050104Y-119777768D01*
X158047315Y-119767601D01*
X158044705Y-119757264D01*
X158042275Y-119746757D01*
X158040025Y-119736080D01*
X158037955Y-119725234D01*
X158036065Y-119714217D01*
X158034355Y-119703031D01*
X158032826Y-119691675D01*
X158031476Y-119680148D01*
X158030306Y-119668452D01*
X158029316Y-119656586D01*
X158028506Y-119644550D01*
X158027876Y-119632345D01*
X158027426Y-119619969D01*
X158027156Y-119607423D01*
X158027066Y-119594708D01*
X158027156Y-119581992D01*
X158027426Y-119569445D01*
X158027876Y-119557069D01*
X158028506Y-119544863D01*
X158029316Y-119532826D01*
X158030306Y-119520960D01*
X158031476Y-119509263D01*
X158032826Y-119497736D01*
X158034355Y-119486379D01*
X158036065Y-119475192D01*
X158037955Y-119464175D01*
X158040025Y-119453328D01*
X158042275Y-119442651D01*
X158044705Y-119432144D01*
X158047315Y-119421807D01*
X158050104Y-119411639D01*
X158053074Y-119401642D01*
X158056224Y-119391814D01*
X158059554Y-119382156D01*
X158063064Y-119372669D01*
X158066753Y-119363351D01*
X158070623Y-119354203D01*
X158074673Y-119345225D01*
X158078903Y-119336417D01*
X158083312Y-119327779D01*
X158087902Y-119319311D01*
X158092672Y-119311012D01*
X158097621Y-119302884D01*
X158102751Y-119294925D01*
X158108061Y-119287137D01*
X158113550Y-119279518D01*
X158119220Y-119272070D01*
X158125070Y-119264791D01*
X158131099Y-119257682D01*
X158137309Y-119250743D01*
X158144078Y-119243584D01*
X158151022Y-119236645D01*
X158158140Y-119229926D01*
X158165434Y-119223428D01*
X158172903Y-119217149D01*
X158180546Y-119211092D01*
X158188365Y-119205254D01*
X158196358Y-119199637D01*
X158204526Y-119194240D01*
X158212870Y-119189063D01*
X158221388Y-119184107D01*
X158230081Y-119179371D01*
X158238949Y-119174855D01*
X158247992Y-119170559D01*
X158257210Y-119166484D01*
X158266603Y-119162629D01*
X158276170Y-119158994D01*
X158285913Y-119155580D01*
X158295831Y-119152386D01*
X158305923Y-119149412D01*
X158316191Y-119146658D01*
X158326633Y-119144125D01*
X158337250Y-119141812D01*
X158348043Y-119139719D01*
X158359010Y-119137847D01*
X158370152Y-119136195D01*
X158381469Y-119134763D01*
X158392961Y-119133551D01*
X158404628Y-119132560D01*
X158416470Y-119131789D01*
X158428487Y-119131238D01*
X158440678Y-119130908D01*
X158453045Y-119130798D01*
X158465464Y-119130908D01*
X158477707Y-119131238D01*
X158489773Y-119131789D01*
X158501663Y-119132560D01*
X158513376Y-119133551D01*
X158524913Y-119134763D01*
X158536273Y-119136195D01*
X158547456Y-119137847D01*
X158558463Y-119139719D01*
X158569293Y-119141812D01*
X158579947Y-119144125D01*
X158590424Y-119146658D01*
X158600725Y-119149412D01*
X158610849Y-119152386D01*
X158620797Y-119155580D01*
X158630568Y-119158994D01*
X158640162Y-119162629D01*
X158649580Y-119166484D01*
X158658822Y-119170559D01*
X158667886Y-119174855D01*
X158676775Y-119179371D01*
X158685486Y-119184107D01*
X158694022Y-119189063D01*
X158702380Y-119194240D01*
X158710562Y-119199637D01*
X158718568Y-119205254D01*
X158726397Y-119211092D01*
X158734049Y-119217149D01*
X158741525Y-119223428D01*
X158748825Y-119229926D01*
X158755947Y-119236645D01*
X158762894Y-119243584D01*
X158769663Y-119250743D01*
X158775873Y-119257682D01*
X158781902Y-119264791D01*
X158787752Y-119272070D01*
X158793422Y-119279518D01*
X158798911Y-119287137D01*
X158804221Y-119294925D01*
X158809351Y-119302884D01*
X158814300Y-119311012D01*
X158819070Y-119319311D01*
X158823660Y-119327779D01*
X158828070Y-119336417D01*
X158832299Y-119345225D01*
X158836349Y-119354203D01*
X158840219Y-119363351D01*
X158843909Y-119372669D01*
X158847418Y-119382156D01*
X158850748Y-119391814D01*
X158853898Y-119401642D01*
X158856868Y-119411639D01*
X158859658Y-119421807D01*
X158862267Y-119432144D01*
X158864697Y-119442651D01*
X158866947Y-119453328D01*
X158869017Y-119464175D01*
X158870907Y-119475192D01*
X158872617Y-119486379D01*
X158874147Y-119497736D01*
X158875497Y-119509263D01*
X158876666Y-119520960D01*
X158877656Y-119532826D01*
X158878466Y-119544863D01*
X158879096Y-119557069D01*
X158879546Y-119569445D01*
X158879816Y-119581992D01*
X158879906Y-119594708D01*
X158879816Y-119607423D01*
X158879546Y-119619969D01*
X158879096Y-119632345D01*
X158878466Y-119644550D01*
X158877656Y-119656586D01*
X158876666Y-119668452D01*
X158875497Y-119680148D01*
X158874147Y-119691675D01*
X158872617Y-119703031D01*
X158870907Y-119714217D01*
X158869017Y-119725234D01*
X158866947Y-119736080D01*
X158864697Y-119746757D01*
X158862267Y-119757264D01*
X158859658Y-119767601D01*
X158856868Y-119777768D01*
X158853898Y-119787765D01*
X158850748Y-119797592D01*
X158847418Y-119807250D01*
X158843909Y-119816737D01*
X158840219Y-119826054D01*
X158836349Y-119835202D01*
X158832299Y-119844180D01*
X158828070Y-119852988D01*
X158823660Y-119861626D01*
X158819070Y-119870094D01*
X158814300Y-119878392D01*
X158809351Y-119886520D01*
X158804221Y-119894478D01*
X158798911Y-119902267D01*
X158793422Y-119909885D01*
X158787752Y-119917334D01*
X158781902Y-119924613D01*
X158775873Y-119931722D01*
X158769663Y-119938661D01*
X158762894Y-119945820D01*
X158755947Y-119952759D01*
X158748825Y-119959478D01*
X158741525Y-119965976D01*
X158734049Y-119972254D01*
X158726397Y-119978312D01*
X158718568Y-119984149D01*
X158710562Y-119989767D01*
X158702380Y-119995164D01*
X158694022Y-120000340D01*
X158685486Y-120005297D01*
X158676775Y-120010033D01*
X158667886Y-120014549D01*
X158658822Y-120018844D01*
X158649580Y-120022920D01*
X158640162Y-120026775D01*
X158630568Y-120030409D01*
X158620797Y-120033824D01*
X158610849Y-120037018D01*
X158600725Y-120039992D01*
X158590424Y-120042745D01*
X158579947Y-120045279D01*
X158569293Y-120047592D01*
X158558463Y-120049684D01*
X158547456Y-120051557D01*
X158536273Y-120053209D01*
X158524913Y-120054641D01*
X158513376Y-120055852D01*
X158501663Y-120056844D01*
X158489773Y-120057615D01*
X158477707Y-120058165D01*
X158465464Y-120058496D01*
X158453045Y-120058606D01*
X158440678Y-120058496D01*
X158428487Y-120058165D01*
X158416470Y-120057615D01*
X158404628Y-120056844D01*
X158392961Y-120055852D01*
X158381469Y-120054641D01*
X158370152Y-120053209D01*
X158359010Y-120051557D01*
X158348043Y-120049684D01*
X158337250Y-120047592D01*
X158326633Y-120045279D01*
X158316191Y-120042745D01*
X158305923Y-120039992D01*
X158295831Y-120037018D01*
X158285913Y-120033824D01*
X158276170Y-120030409D01*
X158266603Y-120026775D01*
X158257210Y-120022920D01*
X158247992Y-120018844D01*
X158238949Y-120014549D01*
X158230081Y-120010033D01*
X158221388Y-120005297D01*
X158212870Y-120000340D01*
X158204526Y-119995164D01*
X158196358Y-119989767D01*
X158188365Y-119984149D01*
X158180546Y-119978312D01*
X158172903Y-119972254D01*
X158165434Y-119965976D01*
X158158140Y-119959478D01*
X158151022Y-119952759D01*
X158144078Y-119945820D01*
X158137309Y-119938661D01*
X158137309Y-119938661D01*
G37*
G36*
X159112740Y-120044493D02*
X159112740Y-118800078D01*
X159329698Y-118800078D01*
X159329698Y-120044493D01*
X159112740Y-120044493D01*
X159112740Y-120044493D01*
G37*
G36*
X159525490Y-119143152D02*
X159755677Y-119143152D01*
X159957642Y-119771970D01*
X160156080Y-119143152D01*
X160385385Y-119143152D01*
X160042309Y-120066541D01*
X160037307Y-120079952D01*
X160032275Y-120093056D01*
X160027214Y-120105854D01*
X160022124Y-120118346D01*
X160017004Y-120130532D01*
X160011855Y-120142412D01*
X160006677Y-120153985D01*
X160001469Y-120165252D01*
X159996232Y-120176213D01*
X159990965Y-120186868D01*
X159985669Y-120197216D01*
X159980344Y-120207259D01*
X159974990Y-120216995D01*
X159969606Y-120226425D01*
X159964192Y-120235548D01*
X159958750Y-120244366D01*
X159953278Y-120252877D01*
X159947776Y-120261082D01*
X159942246Y-120268981D01*
X159936685Y-120276574D01*
X159931096Y-120283860D01*
X159925477Y-120290841D01*
X159919829Y-120297515D01*
X159914151Y-120303882D01*
X159908444Y-120309944D01*
X159902708Y-120315700D01*
X159896942Y-120321149D01*
X159891147Y-120326292D01*
X159885323Y-120331129D01*
X159875896Y-120338560D01*
X159866432Y-120345567D01*
X159856929Y-120352149D01*
X159847388Y-120358306D01*
X159837809Y-120364039D01*
X159828192Y-120369347D01*
X159818537Y-120374230D01*
X159808844Y-120378689D01*
X159799113Y-120382723D01*
X159789343Y-120386333D01*
X159779536Y-120389518D01*
X159769690Y-120392278D01*
X159759806Y-120394614D01*
X159749885Y-120396524D01*
X159739925Y-120398011D01*
X159729926Y-120399072D01*
X159719890Y-120399709D01*
X159709816Y-120399922D01*
X159699488Y-120399775D01*
X159689129Y-120399337D01*
X159678739Y-120398606D01*
X159668318Y-120397583D01*
X159657865Y-120396268D01*
X159647381Y-120394661D01*
X159636865Y-120392761D01*
X159626318Y-120390569D01*
X159615740Y-120388085D01*
X159605131Y-120385308D01*
X159594490Y-120382239D01*
X159583818Y-120378878D01*
X159573115Y-120375225D01*
X159573115Y-120194422D01*
X159583504Y-120198611D01*
X159593858Y-120202359D01*
X159604177Y-120205666D01*
X159614460Y-120208532D01*
X159624708Y-120210958D01*
X159634921Y-120212942D01*
X159645099Y-120214485D01*
X159655241Y-120215588D01*
X159665348Y-120216249D01*
X159675420Y-120216470D01*
X159681852Y-120216210D01*
X159688252Y-120215429D01*
X159694620Y-120214129D01*
X159700958Y-120212308D01*
X159707263Y-120209968D01*
X159713538Y-120207107D01*
X159719781Y-120203726D01*
X159725992Y-120199825D01*
X159732172Y-120195404D01*
X159738320Y-120190462D01*
X159744437Y-120185001D01*
X159750523Y-120179019D01*
X159756577Y-120172517D01*
X159762599Y-120165495D01*
X159768591Y-120157953D01*
X159774550Y-120149891D01*
X159780478Y-120141309D01*
X159786375Y-120132206D01*
X159792240Y-120122583D01*
X159798074Y-120112440D01*
X159803877Y-120101777D01*
X159809648Y-120090594D01*
X159815387Y-120078891D01*
X159821095Y-120066668D01*
X159826772Y-120053924D01*
X159832417Y-120040660D01*
X159838030Y-120026876D01*
X159843612Y-120012572D01*
X159849163Y-119997748D01*
X159525490Y-119143152D01*
X159525490Y-119143152D01*
G37*
G36*
X160510621Y-119410377D02*
X160510802Y-119398687D01*
X160511342Y-119387237D01*
X160512242Y-119376027D01*
X160513502Y-119365057D01*
X160515123Y-119354327D01*
X160517104Y-119343837D01*
X160519444Y-119333588D01*
X160522145Y-119323578D01*
X160525206Y-119313808D01*
X160528627Y-119304279D01*
X160532408Y-119294989D01*
X160536550Y-119285940D01*
X160541051Y-119277131D01*
X160545913Y-119268561D01*
X160551134Y-119260232D01*
X160556716Y-119252143D01*
X160562658Y-119244294D01*
X160568960Y-119236684D01*
X160575622Y-119229315D01*
X160582644Y-119222186D01*
X160590027Y-119215297D01*
X160597769Y-119208649D01*
X160605872Y-119202240D01*
X160613964Y-119196267D01*
X160622218Y-119190548D01*
X160630635Y-119185083D01*
X160639214Y-119179873D01*
X160647955Y-119174917D01*
X160656859Y-119170215D01*
X160665925Y-119165767D01*
X160675153Y-119161573D01*
X160684544Y-119157633D01*
X160694097Y-119153948D01*
X160703812Y-119150517D01*
X160713689Y-119147340D01*
X160723729Y-119144417D01*
X160733931Y-119141748D01*
X160744295Y-119139333D01*
X160754822Y-119137173D01*
X160765511Y-119135267D01*
X160776362Y-119133615D01*
X160787376Y-119132217D01*
X160798552Y-119131073D01*
X160809890Y-119130183D01*
X160821391Y-119129548D01*
X160833053Y-119129167D01*
X160844878Y-119129040D01*
X160856011Y-119129151D01*
X160867068Y-119129487D01*
X160878048Y-119130046D01*
X160888951Y-119130828D01*
X160899778Y-119131834D01*
X160910528Y-119133064D01*
X160921202Y-119134517D01*
X160931799Y-119136194D01*
X160942320Y-119138094D01*
X160952764Y-119140218D01*
X160963131Y-119142565D01*
X160973422Y-119145136D01*
X160983636Y-119147931D01*
X160993774Y-119150949D01*
X161003835Y-119154190D01*
X161013820Y-119157656D01*
X161023728Y-119161344D01*
X161033559Y-119165257D01*
X161043314Y-119169393D01*
X161052993Y-119173752D01*
X161062595Y-119178335D01*
X161072120Y-119183142D01*
X161081569Y-119188172D01*
X161090941Y-119193425D01*
X161090941Y-119358346D01*
X161081707Y-119354132D01*
X161072350Y-119350134D01*
X161062869Y-119346353D01*
X161053264Y-119342787D01*
X161043536Y-119339438D01*
X161033685Y-119336305D01*
X161023710Y-119333388D01*
X161013612Y-119330687D01*
X161003390Y-119328202D01*
X160993045Y-119325933D01*
X160982577Y-119323880D01*
X160971984Y-119322043D01*
X160961269Y-119320423D01*
X160950430Y-119319018D01*
X160939467Y-119317830D01*
X160928381Y-119316857D01*
X160917172Y-119316101D01*
X160905839Y-119315561D01*
X160894382Y-119315237D01*
X160882802Y-119315129D01*
X160868371Y-119315301D01*
X160854644Y-119315817D01*
X160841621Y-119316677D01*
X160829301Y-119317881D01*
X160817686Y-119319429D01*
X160806775Y-119321320D01*
X160796568Y-119323556D01*
X160787064Y-119326136D01*
X160778265Y-119329060D01*
X160770169Y-119332328D01*
X160762778Y-119335940D01*
X160756090Y-119339896D01*
X160750106Y-119344196D01*
X160744827Y-119348839D01*
X160740251Y-119353827D01*
X160736379Y-119359159D01*
X160733211Y-119364835D01*
X160730748Y-119370855D01*
X160728988Y-119377218D01*
X160727932Y-119383926D01*
X160727580Y-119390978D01*
X160728269Y-119400210D01*
X160730336Y-119408945D01*
X160733781Y-119417185D01*
X160738604Y-119424929D01*
X160744805Y-119432177D01*
X160752385Y-119438929D01*
X160761342Y-119445185D01*
X160771677Y-119450945D01*
X160779855Y-119454757D01*
X160788354Y-119458497D01*
X160797173Y-119462163D01*
X160806313Y-119465757D01*
X160815774Y-119469278D01*
X160825556Y-119472727D01*
X160835658Y-119476102D01*
X160846081Y-119479405D01*
X160856825Y-119482634D01*
X160867889Y-119485791D01*
X160879274Y-119488875D01*
X160889852Y-119491606D01*
X160900417Y-119494509D01*
X160910969Y-119497583D01*
X160921510Y-119500828D01*
X160932038Y-119504246D01*
X160942554Y-119507835D01*
X160953058Y-119511595D01*
X160963549Y-119515527D01*
X160974028Y-119519631D01*
X160984495Y-119523906D01*
X160994950Y-119528353D01*
X161005392Y-119532971D01*
X161014365Y-119537074D01*
X161023139Y-119541573D01*
X161031716Y-119546468D01*
X161040094Y-119551759D01*
X161048275Y-119557446D01*
X161056257Y-119563529D01*
X161064042Y-119570008D01*
X161071628Y-119576883D01*
X161079017Y-119584154D01*
X161086207Y-119591821D01*
X161093200Y-119599884D01*
X161099994Y-119608343D01*
X161106591Y-119617198D01*
X161112990Y-119626449D01*
X161118126Y-119634357D01*
X161122950Y-119642516D01*
X161127464Y-119650924D01*
X161131666Y-119659583D01*
X161135557Y-119668491D01*
X161139137Y-119677650D01*
X161142405Y-119687059D01*
X161145362Y-119696719D01*
X161148008Y-119706628D01*
X161150343Y-119716788D01*
X161152366Y-119727197D01*
X161154078Y-119737857D01*
X161155479Y-119748767D01*
X161156568Y-119759928D01*
X161157346Y-119771338D01*
X161157813Y-119782999D01*
X161157969Y-119794909D01*
X161157759Y-119805656D01*
X161157129Y-119816228D01*
X161156079Y-119826623D01*
X161154609Y-119836842D01*
X161152719Y-119846885D01*
X161150409Y-119856753D01*
X161147679Y-119866444D01*
X161144530Y-119875959D01*
X161140960Y-119885299D01*
X161136970Y-119894462D01*
X161132560Y-119903450D01*
X161127731Y-119912261D01*
X161122481Y-119920897D01*
X161116811Y-119929357D01*
X161110722Y-119937640D01*
X161104212Y-119945748D01*
X161097283Y-119953680D01*
X161089933Y-119961436D01*
X161082164Y-119969016D01*
X161073974Y-119976420D01*
X161065365Y-119983648D01*
X161057617Y-119989764D01*
X161049661Y-119995620D01*
X161041497Y-120001216D01*
X161033125Y-120006552D01*
X161024544Y-120011627D01*
X161015755Y-120016442D01*
X161006758Y-120020997D01*
X160997553Y-120025291D01*
X160988139Y-120029325D01*
X160978518Y-120033099D01*
X160968688Y-120036613D01*
X160958649Y-120039866D01*
X160948403Y-120042859D01*
X160937948Y-120045592D01*
X160927285Y-120048065D01*
X160916414Y-120050277D01*
X160905335Y-120052229D01*
X160894047Y-120053921D01*
X160882551Y-120055352D01*
X160870847Y-120056524D01*
X160858935Y-120057435D01*
X160846814Y-120058085D01*
X160834485Y-120058476D01*
X160821948Y-120058606D01*
X160810892Y-120058511D01*
X160799899Y-120058228D01*
X160788970Y-120057755D01*
X160778103Y-120057094D01*
X160767299Y-120056244D01*
X160756558Y-120055204D01*
X160745880Y-120053976D01*
X160735265Y-120052559D01*
X160724714Y-120050952D01*
X160714225Y-120049157D01*
X160703799Y-120047173D01*
X160693436Y-120044999D01*
X160683136Y-120042637D01*
X160672899Y-120040086D01*
X160662725Y-120037346D01*
X160652615Y-120034417D01*
X160642567Y-120031299D01*
X160632582Y-120027991D01*
X160622660Y-120024495D01*
X160612801Y-120020810D01*
X160603005Y-120016936D01*
X160593272Y-120012873D01*
X160583602Y-120008621D01*
X160573996Y-120004180D01*
X160564452Y-119999550D01*
X160554971Y-119994731D01*
X160545553Y-119989724D01*
X160536198Y-119984527D01*
X160536198Y-119791381D01*
X160545750Y-119797604D01*
X160555355Y-119803574D01*
X160565014Y-119809289D01*
X160574727Y-119814750D01*
X160584493Y-119819957D01*
X160594313Y-119824910D01*
X160604187Y-119829609D01*
X160614114Y-119834055D01*
X160624095Y-119838246D01*
X160634129Y-119842183D01*
X160644217Y-119845866D01*
X160654359Y-119849295D01*
X160664554Y-119852470D01*
X160674803Y-119855391D01*
X160685105Y-119858058D01*
X160695462Y-119860471D01*
X160705871Y-119862630D01*
X160716335Y-119864536D01*
X160726852Y-119866187D01*
X160737422Y-119867584D01*
X160748047Y-119868727D01*
X160758725Y-119869616D01*
X160769456Y-119870251D01*
X160780241Y-119870632D01*
X160791080Y-119870759D01*
X160806208Y-119870612D01*
X160820429Y-119870171D01*
X160833744Y-119869436D01*
X160846152Y-119868407D01*
X160857654Y-119867084D01*
X160868250Y-119865466D01*
X160877939Y-119863555D01*
X160886722Y-119861350D01*
X160894598Y-119858851D01*
X160901568Y-119856058D01*
X160907631Y-119852971D01*
X160912788Y-119849590D01*
X160919403Y-119843747D01*
X160925135Y-119837243D01*
X160929986Y-119830077D01*
X160933955Y-119822250D01*
X160937042Y-119813761D01*
X160939247Y-119804610D01*
X160940569Y-119794798D01*
X160941010Y-119784325D01*
X160940455Y-119775701D01*
X160938789Y-119767469D01*
X160936013Y-119759629D01*
X160932126Y-119752181D01*
X160927128Y-119745125D01*
X160921020Y-119738460D01*
X160913801Y-119732188D01*
X160905471Y-119726307D01*
X160896031Y-119720818D01*
X160887853Y-119716388D01*
X160879354Y-119712075D01*
X160870535Y-119707878D01*
X160861395Y-119703797D01*
X160851934Y-119699833D01*
X160842152Y-119695985D01*
X160832050Y-119692254D01*
X160821627Y-119688639D01*
X160810884Y-119685140D01*
X160799819Y-119681758D01*
X160788434Y-119678492D01*
X160777992Y-119675363D01*
X160767537Y-119672148D01*
X160757070Y-119668846D01*
X160746591Y-119665459D01*
X160736099Y-119661987D01*
X160725596Y-119658428D01*
X160715080Y-119654784D01*
X160704551Y-119651054D01*
X160694011Y-119647238D01*
X160683458Y-119643336D01*
X160672893Y-119639349D01*
X160662316Y-119635276D01*
X160652787Y-119631288D01*
X160643466Y-119626925D01*
X160634355Y-119622187D01*
X160625452Y-119617072D01*
X160616758Y-119611582D01*
X160608272Y-119605717D01*
X160599995Y-119599476D01*
X160591927Y-119592859D01*
X160584068Y-119585866D01*
X160576418Y-119578498D01*
X160568976Y-119570754D01*
X160561743Y-119562635D01*
X160554719Y-119554140D01*
X160549035Y-119546367D01*
X160543743Y-119538335D01*
X160538844Y-119530044D01*
X160534336Y-119521495D01*
X160530220Y-119512687D01*
X160526496Y-119503620D01*
X160523165Y-119494294D01*
X160520225Y-119484710D01*
X160517677Y-119474867D01*
X160515521Y-119464765D01*
X160513757Y-119454405D01*
X160512385Y-119443786D01*
X160511405Y-119432908D01*
X160510817Y-119421772D01*
X160510621Y-119410377D01*
X160510621Y-119410377D01*
G37*
G36*
X161294670Y-119329241D02*
X161294670Y-119143152D01*
X161446365Y-119143152D01*
X161446365Y-118875916D01*
X161663323Y-118875916D01*
X161663323Y-119143152D01*
X161876753Y-119143152D01*
X161876753Y-119329241D01*
X161663323Y-119329241D01*
X161663323Y-119773741D01*
X161663695Y-119787700D01*
X161664811Y-119800474D01*
X161666672Y-119812063D01*
X161669276Y-119822466D01*
X161672625Y-119831684D01*
X161676717Y-119839717D01*
X161681554Y-119846565D01*
X161687135Y-119852227D01*
X161693080Y-119856485D01*
X161699940Y-119860243D01*
X161707714Y-119863499D01*
X161716403Y-119866254D01*
X161726006Y-119868509D01*
X161736524Y-119870262D01*
X161747957Y-119871515D01*
X161760304Y-119872266D01*
X161773566Y-119872517D01*
X161785075Y-119872323D01*
X161796320Y-119871741D01*
X161807300Y-119870771D01*
X161818016Y-119869413D01*
X161828467Y-119867667D01*
X161838653Y-119865533D01*
X161848575Y-119863011D01*
X161858233Y-119860102D01*
X161867625Y-119856804D01*
X161876753Y-119853118D01*
X161876753Y-120032151D01*
X161866916Y-120036064D01*
X161856944Y-120039665D01*
X161846835Y-120042952D01*
X161836591Y-120045926D01*
X161826211Y-120048587D01*
X161815696Y-120050935D01*
X161805045Y-120052970D01*
X161794258Y-120054692D01*
X161783335Y-120056101D01*
X161772277Y-120057197D01*
X161761083Y-120057980D01*
X161749754Y-120058449D01*
X161738288Y-120058606D01*
X161733879Y-120058606D01*
X161721810Y-120058442D01*
X161709979Y-120057950D01*
X161698384Y-120057130D01*
X161687026Y-120055982D01*
X161675905Y-120054506D01*
X161665021Y-120052702D01*
X161654374Y-120050570D01*
X161643964Y-120048110D01*
X161633791Y-120045322D01*
X161623854Y-120042206D01*
X161614155Y-120038761D01*
X161604692Y-120034989D01*
X161595466Y-120030889D01*
X161586477Y-120026461D01*
X161577725Y-120021705D01*
X161569210Y-120016621D01*
X161560932Y-120011209D01*
X161552891Y-120005469D01*
X161545086Y-119999401D01*
X161537518Y-119993005D01*
X161530188Y-119986281D01*
X161523094Y-119979228D01*
X161516567Y-119972214D01*
X161510330Y-119964972D01*
X161504383Y-119957504D01*
X161498726Y-119949809D01*
X161493360Y-119941887D01*
X161488283Y-119933738D01*
X161483496Y-119925362D01*
X161479000Y-119916760D01*
X161474794Y-119907931D01*
X161470877Y-119898875D01*
X161467251Y-119889592D01*
X161463915Y-119880082D01*
X161460869Y-119870346D01*
X161458113Y-119860382D01*
X161455648Y-119850192D01*
X161453472Y-119839776D01*
X161451586Y-119829132D01*
X161449991Y-119818261D01*
X161448685Y-119807164D01*
X161447670Y-119795840D01*
X161446945Y-119784289D01*
X161446510Y-119772511D01*
X161446365Y-119760507D01*
X161446365Y-119329241D01*
X161294670Y-119329241D01*
X161294670Y-119329241D01*
X161294670Y-119329241D01*
G37*
G36*
X162047851Y-119749922D02*
X162262163Y-119722588D01*
X162262380Y-119732735D01*
X162263031Y-119742514D01*
X162264117Y-119751923D01*
X162265636Y-119760963D01*
X162267590Y-119769634D01*
X162269979Y-119777936D01*
X162272801Y-119785869D01*
X162276058Y-119793433D01*
X162279749Y-119800629D01*
X162283874Y-119807455D01*
X162288433Y-119813912D01*
X162293427Y-119820000D01*
X162298854Y-119825720D01*
X162304716Y-119831070D01*
X162311013Y-119836051D01*
X162317743Y-119840664D01*
X162324908Y-119844907D01*
X162332507Y-119848781D01*
X162340540Y-119852287D01*
X162349007Y-119855423D01*
X162357909Y-119858190D01*
X162367245Y-119860589D01*
X162377015Y-119862618D01*
X162387219Y-119864279D01*
X162397857Y-119865570D01*
X162408930Y-119866493D01*
X162420437Y-119867046D01*
X162432378Y-119867231D01*
X162434142Y-119867231D01*
X162445940Y-119867043D01*
X162457293Y-119866480D01*
X162468200Y-119865543D01*
X162478663Y-119864230D01*
X162488680Y-119862542D01*
X162498252Y-119860480D01*
X162507379Y-119858042D01*
X162516060Y-119855229D01*
X162524296Y-119852041D01*
X162532087Y-119848478D01*
X162539433Y-119844540D01*
X162546334Y-119840227D01*
X162552790Y-119835539D01*
X162558800Y-119830475D01*
X162564365Y-119825037D01*
X162569485Y-119819224D01*
X162574160Y-119813035D01*
X162578389Y-119806472D01*
X162582173Y-119799533D01*
X162585512Y-119792220D01*
X162588406Y-119784531D01*
X162590855Y-119776468D01*
X162592858Y-119768029D01*
X162594416Y-119759215D01*
X162595529Y-119750026D01*
X162596197Y-119740463D01*
X162596420Y-119730524D01*
X162596420Y-119616756D01*
X162583932Y-119615057D01*
X162571750Y-119613494D01*
X162559874Y-119612067D01*
X162548305Y-119610775D01*
X162537042Y-119609619D01*
X162526085Y-119608598D01*
X162515434Y-119607712D01*
X162505090Y-119606962D01*
X162495051Y-119606347D01*
X162485319Y-119605868D01*
X162475894Y-119605525D01*
X162466774Y-119605316D01*
X162452965Y-119605456D01*
X162439638Y-119605874D01*
X162426794Y-119606572D01*
X162414432Y-119607548D01*
X162402553Y-119608803D01*
X162391155Y-119610337D01*
X162380241Y-119612150D01*
X162369808Y-119614243D01*
X162359858Y-119616614D01*
X162350391Y-119619264D01*
X162341406Y-119622192D01*
X162332903Y-119625400D01*
X162324883Y-119628887D01*
X162317345Y-119632653D01*
X162310289Y-119636698D01*
X162303716Y-119641021D01*
X162297625Y-119645624D01*
X162292017Y-119650505D01*
X162286891Y-119655666D01*
X162282247Y-119661105D01*
X162278086Y-119666824D01*
X162274407Y-119672821D01*
X162271211Y-119679097D01*
X162268497Y-119685652D01*
X162266265Y-119692486D01*
X162264516Y-119699599D01*
X162263249Y-119706992D01*
X162262465Y-119714662D01*
X162262163Y-119722612D01*
X162262163Y-119722588D01*
X162047851Y-119749922D01*
X162048062Y-119738953D01*
X162048697Y-119727913D01*
X162049756Y-119716801D01*
X162051237Y-119705618D01*
X162053142Y-119694363D01*
X162054996Y-119685760D01*
X162057534Y-119676580D01*
X162060756Y-119666824D01*
X162064661Y-119656493D01*
X162069251Y-119645585D01*
X162074525Y-119634102D01*
X162080482Y-119622042D01*
X162085774Y-119612569D01*
X162091457Y-119603357D01*
X162097533Y-119594407D01*
X162104001Y-119585718D01*
X162110860Y-119577290D01*
X162118112Y-119569124D01*
X162125755Y-119561219D01*
X162133791Y-119553575D01*
X162142218Y-119546193D01*
X162148943Y-119540821D01*
X162156182Y-119535585D01*
X162163936Y-119530483D01*
X162172204Y-119525516D01*
X162180987Y-119520684D01*
X162190284Y-119515987D01*
X162200096Y-119511424D01*
X162210422Y-119506996D01*
X162221263Y-119502703D01*
X162232618Y-119498545D01*
X162244487Y-119494522D01*
X162256871Y-119490633D01*
X162265889Y-119487915D01*
X162275096Y-119485361D01*
X162284492Y-119482972D01*
X162294077Y-119480748D01*
X162303852Y-119478689D01*
X162313816Y-119476794D01*
X162323969Y-119475065D01*
X162334311Y-119473500D01*
X162344843Y-119472099D01*
X162355563Y-119470864D01*
X162366473Y-119469793D01*
X162377572Y-119468887D01*
X162388861Y-119468145D01*
X162400338Y-119467569D01*
X162412005Y-119467157D01*
X162423861Y-119466910D01*
X162435906Y-119466827D01*
X162445831Y-119466882D01*
X162455849Y-119467047D01*
X162465962Y-119467321D01*
X162476169Y-119467705D01*
X162486470Y-119468199D01*
X162496866Y-119468802D01*
X162507355Y-119469515D01*
X162517938Y-119470338D01*
X162528616Y-119471271D01*
X162539387Y-119472313D01*
X162550253Y-119473465D01*
X162561212Y-119474726D01*
X162572266Y-119476098D01*
X162583414Y-119477579D01*
X162594656Y-119479170D01*
X162594480Y-119469010D01*
X162593953Y-119459162D01*
X162593074Y-119449628D01*
X162591844Y-119440406D01*
X162590262Y-119431496D01*
X162588329Y-119422899D01*
X162586044Y-119414615D01*
X162583408Y-119406643D01*
X162580421Y-119398984D01*
X162577082Y-119391638D01*
X162573391Y-119384604D01*
X162569349Y-119377883D01*
X162564955Y-119371474D01*
X162560210Y-119365378D01*
X162555114Y-119359595D01*
X162549666Y-119354124D01*
X162543867Y-119348966D01*
X162537716Y-119344120D01*
X162531213Y-119339588D01*
X162524359Y-119335367D01*
X162517154Y-119331460D01*
X162509597Y-119327865D01*
X162501689Y-119324582D01*
X162493429Y-119321612D01*
X162484818Y-119318955D01*
X162475855Y-119316610D01*
X162466541Y-119314578D01*
X162456875Y-119312859D01*
X162446858Y-119311452D01*
X162436489Y-119310358D01*
X162425769Y-119309577D01*
X162414697Y-119309108D01*
X162403274Y-119308951D01*
X162391202Y-119309025D01*
X162379257Y-119309245D01*
X162367439Y-119309612D01*
X162355748Y-119310126D01*
X162344183Y-119310786D01*
X162332746Y-119311593D01*
X162321436Y-119312547D01*
X162310253Y-119313648D01*
X162299197Y-119314896D01*
X162288268Y-119316290D01*
X162277466Y-119317831D01*
X162266791Y-119319519D01*
X162256243Y-119321354D01*
X162245822Y-119323335D01*
X162235528Y-119325463D01*
X162225361Y-119327738D01*
X162215321Y-119330160D01*
X162205408Y-119332728D01*
X162195622Y-119335444D01*
X162185963Y-119338306D01*
X162176431Y-119341314D01*
X162167025Y-119344470D01*
X162157747Y-119347772D01*
X162148596Y-119351221D01*
X162139572Y-119354817D01*
X162139572Y-119179313D01*
X162149178Y-119175520D01*
X162158865Y-119171876D01*
X162168633Y-119168381D01*
X162178482Y-119165034D01*
X162188412Y-119161836D01*
X162198423Y-119158787D01*
X162208514Y-119155887D01*
X162218686Y-119153135D01*
X162228940Y-119150532D01*
X162239274Y-119148078D01*
X162249689Y-119145773D01*
X162260185Y-119143616D01*
X162270762Y-119141608D01*
X162281419Y-119139749D01*
X162292158Y-119138038D01*
X162302977Y-119136476D01*
X162313878Y-119135063D01*
X162324859Y-119133799D01*
X162335921Y-119132684D01*
X162347064Y-119131717D01*
X162358288Y-119130899D01*
X162369593Y-119130230D01*
X162380979Y-119129709D01*
X162392445Y-119129337D01*
X162403993Y-119129114D01*
X162415621Y-119129040D01*
X162428396Y-119129149D01*
X162440970Y-119129479D01*
X162453342Y-119130027D01*
X162465512Y-119130796D01*
X162477480Y-119131783D01*
X162489246Y-119132991D01*
X162500810Y-119134417D01*
X162512172Y-119136064D01*
X162523333Y-119137929D01*
X162534292Y-119140015D01*
X162545048Y-119142320D01*
X162555603Y-119144844D01*
X162565956Y-119147588D01*
X162576107Y-119150551D01*
X162586057Y-119153734D01*
X162595804Y-119157136D01*
X162605350Y-119160758D01*
X162614693Y-119164599D01*
X162623835Y-119168660D01*
X162632775Y-119172940D01*
X162641513Y-119177440D01*
X162650050Y-119182159D01*
X162658384Y-119187098D01*
X162666517Y-119192256D01*
X162674447Y-119197634D01*
X162682176Y-119203232D01*
X162689703Y-119209048D01*
X162697028Y-119215085D01*
X162704151Y-119221341D01*
X162711072Y-119227816D01*
X162717779Y-119234440D01*
X162724258Y-119241261D01*
X162730510Y-119248277D01*
X162736535Y-119255490D01*
X162742332Y-119262898D01*
X162747902Y-119270502D01*
X162753245Y-119278303D01*
X162758360Y-119286299D01*
X162763248Y-119294491D01*
X162767909Y-119302880D01*
X162772342Y-119311464D01*
X162776548Y-119320244D01*
X162780527Y-119329221D01*
X162784278Y-119338393D01*
X162787802Y-119347761D01*
X162791098Y-119357325D01*
X162794167Y-119367085D01*
X162797009Y-119377042D01*
X162799624Y-119387194D01*
X162802011Y-119397542D01*
X162804170Y-119408086D01*
X162806103Y-119418826D01*
X162807808Y-119429762D01*
X162809286Y-119440894D01*
X162810536Y-119452222D01*
X162811559Y-119463746D01*
X162812355Y-119475466D01*
X162812923Y-119487382D01*
X162813264Y-119499494D01*
X162813378Y-119511802D01*
X162813378Y-119755221D01*
X162813201Y-119765969D01*
X162812671Y-119776587D01*
X162811787Y-119787075D01*
X162810550Y-119797434D01*
X162808960Y-119807662D01*
X162807016Y-119817760D01*
X162804719Y-119827728D01*
X162802068Y-119837566D01*
X162799063Y-119847274D01*
X162795706Y-119856852D01*
X162791995Y-119866300D01*
X162787930Y-119875618D01*
X162783512Y-119884806D01*
X162778740Y-119893864D01*
X162773615Y-119902792D01*
X162768137Y-119911590D01*
X162762305Y-119920258D01*
X162756120Y-119928796D01*
X162749581Y-119937204D01*
X162742689Y-119945482D01*
X162735443Y-119953629D01*
X162727844Y-119961647D01*
X162719892Y-119969535D01*
X162713386Y-119975572D01*
X162706641Y-119981397D01*
X162699656Y-119987010D01*
X162692433Y-119992412D01*
X162684971Y-119997601D01*
X162677269Y-120002579D01*
X162669328Y-120007345D01*
X162661149Y-120011899D01*
X162652730Y-120016242D01*
X162644072Y-120020372D01*
X162635175Y-120024291D01*
X162626039Y-120027998D01*
X162616663Y-120031493D01*
X162607049Y-120034776D01*
X162597196Y-120037847D01*
X162587103Y-120040707D01*
X162576771Y-120043355D01*
X162566201Y-120045791D01*
X162555391Y-120048015D01*
X162544342Y-120050027D01*
X162533054Y-120051828D01*
X162521527Y-120053416D01*
X162509760Y-120054793D01*
X162497755Y-120055958D01*
X162485511Y-120056911D01*
X162473027Y-120057653D01*
X162460304Y-120058182D01*
X162447343Y-120058500D01*
X162434142Y-120058606D01*
X162421028Y-120058506D01*
X162408146Y-120058206D01*
X162395495Y-120057706D01*
X162383075Y-120057007D01*
X162370887Y-120056107D01*
X162358930Y-120055007D01*
X162347204Y-120053708D01*
X162335709Y-120052209D01*
X162324446Y-120050509D01*
X162313413Y-120048610D01*
X162302612Y-120046511D01*
X162292043Y-120044212D01*
X162281705Y-120041713D01*
X162271597Y-120039014D01*
X162261722Y-120036115D01*
X162252077Y-120033017D01*
X162242664Y-120029718D01*
X162233482Y-120026220D01*
X162224531Y-120022521D01*
X162215812Y-120018623D01*
X162207323Y-120014524D01*
X162199066Y-120010226D01*
X162191041Y-120005728D01*
X162183246Y-120001030D01*
X162175683Y-119996132D01*
X162168351Y-119991034D01*
X162161251Y-119985737D01*
X162154381Y-119980239D01*
X162147743Y-119974541D01*
X162141336Y-119968644D01*
X162133384Y-119960749D01*
X162125785Y-119952707D01*
X162118539Y-119944518D01*
X162111647Y-119936183D01*
X162105108Y-119927701D01*
X162098923Y-119919072D01*
X162093091Y-119910296D01*
X162087613Y-119901373D01*
X162082488Y-119892304D01*
X162077716Y-119883088D01*
X162073298Y-119873725D01*
X162069234Y-119864215D01*
X162065522Y-119854559D01*
X162062165Y-119844756D01*
X162059160Y-119834806D01*
X162056510Y-119824709D01*
X162054212Y-119814466D01*
X162052268Y-119804075D01*
X162050678Y-119793538D01*
X162049441Y-119782855D01*
X162048557Y-119772024D01*
X162048027Y-119761047D01*
X162047850Y-119749922D01*
X162047851Y-119749922D01*
X162047851Y-119749922D01*
G37*
G36*
X163003879Y-119594708D02*
X163003969Y-119581893D01*
X163004239Y-119569250D01*
X163004689Y-119556781D01*
X163005318Y-119544484D01*
X163006128Y-119532360D01*
X163007118Y-119520408D01*
X163008288Y-119508630D01*
X163009638Y-119497024D01*
X163011168Y-119485591D01*
X163012878Y-119474331D01*
X163014768Y-119463244D01*
X163016838Y-119452329D01*
X163019088Y-119441588D01*
X163021517Y-119431019D01*
X163024127Y-119420623D01*
X163026917Y-119410399D01*
X163029887Y-119400349D01*
X163033037Y-119390471D01*
X163036366Y-119380766D01*
X163039876Y-119371234D01*
X163043566Y-119361874D01*
X163047436Y-119352688D01*
X163051486Y-119343674D01*
X163055715Y-119334833D01*
X163060125Y-119326164D01*
X163064715Y-119317669D01*
X163069484Y-119309346D01*
X163074434Y-119301196D01*
X163079564Y-119293219D01*
X163084873Y-119285415D01*
X163090363Y-119277783D01*
X163096033Y-119270324D01*
X163101882Y-119263038D01*
X163107912Y-119255925D01*
X163114122Y-119248985D01*
X163120890Y-119241826D01*
X163127834Y-119234887D01*
X163134953Y-119228168D01*
X163142247Y-119221669D01*
X163149715Y-119215391D01*
X163157359Y-119209333D01*
X163165177Y-119203496D01*
X163173171Y-119197879D01*
X163181339Y-119192482D01*
X163189682Y-119187305D01*
X163198200Y-119182349D01*
X163206893Y-119177612D01*
X163215761Y-119173097D01*
X163224804Y-119168801D01*
X163234022Y-119164726D01*
X163243415Y-119160871D01*
X163252983Y-119157236D01*
X163262726Y-119153822D01*
X163272643Y-119150628D01*
X163282736Y-119147654D01*
X163293003Y-119144900D01*
X163303446Y-119142367D01*
X163314063Y-119140054D01*
X163324855Y-119137961D01*
X163335822Y-119136089D01*
X163346965Y-119134437D01*
X163358282Y-119133005D01*
X163369774Y-119131793D01*
X163381441Y-119130802D01*
X163393282Y-119130031D01*
X163405299Y-119129480D01*
X163417491Y-119129150D01*
X163429858Y-119129040D01*
X163440874Y-119129127D01*
X163451876Y-119129389D01*
X163462862Y-119129825D01*
X163473832Y-119130436D01*
X163484788Y-119131222D01*
X163495728Y-119132182D01*
X163506653Y-119133316D01*
X163517562Y-119134626D01*
X163528456Y-119136109D01*
X163539335Y-119137768D01*
X163550199Y-119139600D01*
X163561047Y-119141608D01*
X163571880Y-119143790D01*
X163582697Y-119146146D01*
X163593500Y-119148678D01*
X163604287Y-119151383D01*
X163615058Y-119154263D01*
X163625815Y-119157318D01*
X163636556Y-119160548D01*
X163647282Y-119163952D01*
X163657992Y-119167530D01*
X163668687Y-119171283D01*
X163679367Y-119175211D01*
X163690031Y-119179313D01*
X163690031Y-119360104D01*
X163679844Y-119356086D01*
X163669609Y-119352264D01*
X163659325Y-119348638D01*
X163648994Y-119345208D01*
X163638615Y-119341974D01*
X163628187Y-119338936D01*
X163617712Y-119336094D01*
X163607189Y-119333448D01*
X163596617Y-119330998D01*
X163585998Y-119328744D01*
X163575331Y-119326686D01*
X163564615Y-119324825D01*
X163553852Y-119323159D01*
X163543041Y-119321689D01*
X163532181Y-119320415D01*
X163521274Y-119319337D01*
X163510319Y-119318455D01*
X163499315Y-119317769D01*
X163488264Y-119317279D01*
X163477165Y-119316985D01*
X163466017Y-119316887D01*
X163453103Y-119317046D01*
X163440541Y-119317522D01*
X163428331Y-119318316D01*
X163416472Y-119319428D01*
X163404965Y-119320857D01*
X163393810Y-119322604D01*
X163383007Y-119324668D01*
X163372556Y-119327050D01*
X163362456Y-119329750D01*
X163352708Y-119332767D01*
X163343312Y-119336102D01*
X163334268Y-119339755D01*
X163325576Y-119343725D01*
X163317235Y-119348013D01*
X163309246Y-119352618D01*
X163301609Y-119357541D01*
X163294324Y-119362782D01*
X163287391Y-119368340D01*
X163280809Y-119374216D01*
X163275481Y-119379570D01*
X163270401Y-119385369D01*
X163265568Y-119391612D01*
X163260984Y-119398300D01*
X163256647Y-119405433D01*
X163252558Y-119413010D01*
X163248717Y-119421032D01*
X163245123Y-119429498D01*
X163241778Y-119438409D01*
X163238680Y-119447764D01*
X163235830Y-119457564D01*
X163233228Y-119467809D01*
X163230874Y-119478498D01*
X163228767Y-119489632D01*
X163226908Y-119501210D01*
X163225298Y-119513233D01*
X163223935Y-119525701D01*
X163222819Y-119538613D01*
X163221952Y-119551970D01*
X163221333Y-119565771D01*
X163220961Y-119580017D01*
X163220837Y-119594708D01*
X163220961Y-119609245D01*
X163221333Y-119623352D01*
X163221952Y-119637028D01*
X163222819Y-119650275D01*
X163223935Y-119663092D01*
X163225298Y-119675479D01*
X163226908Y-119687436D01*
X163228767Y-119698963D01*
X163230874Y-119710060D01*
X163233228Y-119720726D01*
X163235830Y-119730963D01*
X163238680Y-119740770D01*
X163241778Y-119750147D01*
X163245123Y-119759093D01*
X163248717Y-119767610D01*
X163252558Y-119775697D01*
X163256647Y-119783354D01*
X163260984Y-119790580D01*
X163265568Y-119797377D01*
X163270401Y-119803744D01*
X163275481Y-119809681D01*
X163280809Y-119815187D01*
X163287391Y-119821063D01*
X163294324Y-119826621D01*
X163301609Y-119831862D01*
X163309246Y-119836785D01*
X163317235Y-119841391D01*
X163325576Y-119845678D01*
X163334268Y-119849649D01*
X163343312Y-119853301D01*
X163352708Y-119856636D01*
X163362456Y-119859653D01*
X163372556Y-119862353D01*
X163383007Y-119864735D01*
X163393810Y-119866800D01*
X163404965Y-119868547D01*
X163416472Y-119869976D01*
X163428331Y-119871088D01*
X163440541Y-119871882D01*
X163453103Y-119872358D01*
X163466017Y-119872517D01*
X163476685Y-119872415D01*
X163487352Y-119872109D01*
X163498019Y-119871599D01*
X163508687Y-119870885D01*
X163519354Y-119869967D01*
X163530021Y-119868845D01*
X163540689Y-119867520D01*
X163551356Y-119865990D01*
X163562023Y-119864256D01*
X163572691Y-119862318D01*
X163583358Y-119860177D01*
X163594025Y-119857831D01*
X163604693Y-119855281D01*
X163615360Y-119852528D01*
X163626027Y-119849570D01*
X163636695Y-119846409D01*
X163647362Y-119843043D01*
X163658029Y-119839474D01*
X163668697Y-119835701D01*
X163679364Y-119831723D01*
X163690031Y-119827542D01*
X163690031Y-120008333D01*
X163679367Y-120012435D01*
X163668687Y-120016362D01*
X163657992Y-120020115D01*
X163647282Y-120023694D01*
X163636556Y-120027098D01*
X163625815Y-120030327D01*
X163615058Y-120033382D01*
X163604287Y-120036262D01*
X163593500Y-120038968D01*
X163582697Y-120041499D01*
X163571880Y-120043856D01*
X163561047Y-120046038D01*
X163550199Y-120048045D01*
X163539335Y-120049878D01*
X163528456Y-120051536D01*
X163517562Y-120053020D01*
X163506653Y-120054329D01*
X163495728Y-120055464D01*
X163484788Y-120056424D01*
X163473832Y-120057209D01*
X163462862Y-120057820D01*
X163451876Y-120058257D01*
X163440874Y-120058519D01*
X163429858Y-120058606D01*
X163417491Y-120058496D01*
X163405299Y-120058165D01*
X163393282Y-120057615D01*
X163381441Y-120056844D01*
X163369774Y-120055852D01*
X163358282Y-120054641D01*
X163346965Y-120053209D01*
X163335822Y-120051557D01*
X163324855Y-120049684D01*
X163314063Y-120047592D01*
X163303446Y-120045279D01*
X163293003Y-120042745D01*
X163282736Y-120039992D01*
X163272643Y-120037018D01*
X163262726Y-120033824D01*
X163252983Y-120030409D01*
X163243415Y-120026775D01*
X163234022Y-120022920D01*
X163224804Y-120018844D01*
X163215761Y-120014549D01*
X163206893Y-120010033D01*
X163198200Y-120005297D01*
X163189682Y-120000340D01*
X163181339Y-119995164D01*
X163173171Y-119989767D01*
X163165177Y-119984149D01*
X163157359Y-119978312D01*
X163149715Y-119972254D01*
X163142247Y-119965976D01*
X163134953Y-119959478D01*
X163127834Y-119952759D01*
X163120890Y-119945820D01*
X163114122Y-119938661D01*
X163107912Y-119931722D01*
X163101882Y-119924613D01*
X163096033Y-119917334D01*
X163090363Y-119909885D01*
X163084873Y-119902267D01*
X163079564Y-119894478D01*
X163074434Y-119886520D01*
X163069484Y-119878392D01*
X163064715Y-119870094D01*
X163060125Y-119861626D01*
X163055715Y-119852988D01*
X163051486Y-119844180D01*
X163047436Y-119835202D01*
X163043566Y-119826054D01*
X163039876Y-119816737D01*
X163036366Y-119807250D01*
X163033037Y-119797592D01*
X163029887Y-119787765D01*
X163026917Y-119777768D01*
X163024127Y-119767601D01*
X163021517Y-119757264D01*
X163019088Y-119746757D01*
X163016838Y-119736080D01*
X163014768Y-119725234D01*
X163012878Y-119714217D01*
X163011168Y-119703031D01*
X163009638Y-119691675D01*
X163008288Y-119680148D01*
X163007118Y-119668452D01*
X163006128Y-119656586D01*
X163005318Y-119644550D01*
X163004689Y-119632345D01*
X163004239Y-119619969D01*
X163003969Y-119607423D01*
X163003879Y-119594708D01*
X163003879Y-119594708D01*
G37*
G36*
X163890233Y-120044493D02*
X163890233Y-118805365D01*
X164107191Y-118805365D01*
X164107191Y-119473884D01*
X164410580Y-119143152D01*
X164698094Y-119143152D01*
X164305629Y-119544435D01*
X164739545Y-120044493D01*
X164465260Y-120044493D01*
X164167163Y-119689077D01*
X164107191Y-119749922D01*
X164107191Y-120044493D01*
X163890233Y-120044493D01*
X163890233Y-120044493D01*
G37*
D14*
X135866667Y-119828571D02*
X135533333Y-119828571D01*
X135533333Y-120352381D02*
X135533333Y-119352381D01*
X136009524Y-119352381D01*
X136914286Y-120352381D02*
X136342857Y-120352381D01*
X136628571Y-120352381D02*
X136628571Y-119352381D01*
X136533333Y-119495238D01*
X136438095Y-119590476D01*
X136342857Y-119638095D01*
X133103571Y-95808333D02*
X133103571Y-96141667D01*
X133627381Y-96141667D02*
X132627381Y-96141667D01*
X132627381Y-95665476D01*
X132722619Y-95332143D02*
X132675000Y-95284524D01*
X132627381Y-95189286D01*
X132627381Y-94951190D01*
X132675000Y-94855952D01*
X132722619Y-94808333D01*
X132817857Y-94760714D01*
X132913095Y-94760714D01*
X133055952Y-94808333D01*
X133627381Y-95379762D01*
X133627381Y-94760714D01*
X134533334Y-95257143D02*
X134485715Y-95304762D01*
X134342858Y-95352381D01*
X134247620Y-95352381D01*
X134104762Y-95304762D01*
X134009524Y-95209524D01*
X133961905Y-95114286D01*
X133914286Y-94923810D01*
X133914286Y-94780952D01*
X133961905Y-94590476D01*
X134009524Y-94495238D01*
X134104762Y-94400000D01*
X134247620Y-94352381D01*
X134342858Y-94352381D01*
X134485715Y-94400000D01*
X134533334Y-94447619D01*
X135390477Y-94352381D02*
X135200000Y-94352381D01*
X135104762Y-94400000D01*
X135057143Y-94447619D01*
X134961905Y-94590476D01*
X134914286Y-94780952D01*
X134914286Y-95161905D01*
X134961905Y-95257143D01*
X135009524Y-95304762D01*
X135104762Y-95352381D01*
X135295239Y-95352381D01*
X135390477Y-95304762D01*
X135438096Y-95257143D01*
X135485715Y-95161905D01*
X135485715Y-94923810D01*
X135438096Y-94828571D01*
X135390477Y-94780952D01*
X135295239Y-94733333D01*
X135104762Y-94733333D01*
X135009524Y-94780952D01*
X134961905Y-94828571D01*
X134914286Y-94923810D01*
X135757143Y-92096666D02*
X135804762Y-92144285D01*
X135852381Y-92287142D01*
X135852381Y-92382380D01*
X135804762Y-92525238D01*
X135709524Y-92620476D01*
X135614286Y-92668095D01*
X135423810Y-92715714D01*
X135280952Y-92715714D01*
X135090476Y-92668095D01*
X134995238Y-92620476D01*
X134900000Y-92525238D01*
X134852381Y-92382380D01*
X134852381Y-92287142D01*
X134900000Y-92144285D01*
X134947619Y-92096666D01*
X135852381Y-91144285D02*
X135852381Y-91715714D01*
X135852381Y-91430000D02*
X134852381Y-91430000D01*
X134995238Y-91525238D01*
X135090476Y-91620476D01*
X135138095Y-91715714D01*
X131208334Y-97407143D02*
X131160715Y-97454762D01*
X131017858Y-97502381D01*
X130922620Y-97502381D01*
X130779762Y-97454762D01*
X130684524Y-97359524D01*
X130636905Y-97264286D01*
X130589286Y-97073810D01*
X130589286Y-96930952D01*
X130636905Y-96740476D01*
X130684524Y-96645238D01*
X130779762Y-96550000D01*
X130922620Y-96502381D01*
X131017858Y-96502381D01*
X131160715Y-96550000D01*
X131208334Y-96597619D01*
X131541667Y-96502381D02*
X132160715Y-96502381D01*
X131827381Y-96883333D01*
X131970239Y-96883333D01*
X132065477Y-96930952D01*
X132113096Y-96978571D01*
X132160715Y-97073810D01*
X132160715Y-97311905D01*
X132113096Y-97407143D01*
X132065477Y-97454762D01*
X131970239Y-97502381D01*
X131684524Y-97502381D01*
X131589286Y-97454762D01*
X131541667Y-97407143D01*
X146613334Y-100527143D02*
X146565715Y-100574762D01*
X146422858Y-100622381D01*
X146327620Y-100622381D01*
X146184762Y-100574762D01*
X146089524Y-100479524D01*
X146041905Y-100384286D01*
X145994286Y-100193810D01*
X145994286Y-100050952D01*
X146041905Y-99860476D01*
X146089524Y-99765238D01*
X146184762Y-99670000D01*
X146327620Y-99622381D01*
X146422858Y-99622381D01*
X146565715Y-99670000D01*
X146613334Y-99717619D01*
X147470477Y-99955714D02*
X147470477Y-100622381D01*
X147232381Y-99574762D02*
X146994286Y-100289048D01*
X147613334Y-100289048D01*
X134083334Y-101857143D02*
X134035715Y-101904762D01*
X133892858Y-101952381D01*
X133797620Y-101952381D01*
X133654762Y-101904762D01*
X133559524Y-101809524D01*
X133511905Y-101714286D01*
X133464286Y-101523810D01*
X133464286Y-101380952D01*
X133511905Y-101190476D01*
X133559524Y-101095238D01*
X133654762Y-101000000D01*
X133797620Y-100952381D01*
X133892858Y-100952381D01*
X134035715Y-101000000D01*
X134083334Y-101047619D01*
X134988096Y-100952381D02*
X134511905Y-100952381D01*
X134464286Y-101428571D01*
X134511905Y-101380952D01*
X134607143Y-101333333D01*
X134845239Y-101333333D01*
X134940477Y-101380952D01*
X134988096Y-101428571D01*
X135035715Y-101523810D01*
X135035715Y-101761905D01*
X134988096Y-101857143D01*
X134940477Y-101904762D01*
X134845239Y-101952381D01*
X134607143Y-101952381D01*
X134511905Y-101904762D01*
X134464286Y-101857143D01*
X153057143Y-102266666D02*
X153104762Y-102314285D01*
X153152381Y-102457142D01*
X153152381Y-102552380D01*
X153104762Y-102695238D01*
X153009524Y-102790476D01*
X152914286Y-102838095D01*
X152723810Y-102885714D01*
X152580952Y-102885714D01*
X152390476Y-102838095D01*
X152295238Y-102790476D01*
X152200000Y-102695238D01*
X152152381Y-102552380D01*
X152152381Y-102457142D01*
X152200000Y-102314285D01*
X152247619Y-102266666D01*
X152152381Y-101933333D02*
X152152381Y-101266666D01*
X153152381Y-101695238D01*
X131163334Y-101797143D02*
X131115715Y-101844762D01*
X130972858Y-101892381D01*
X130877620Y-101892381D01*
X130734762Y-101844762D01*
X130639524Y-101749524D01*
X130591905Y-101654286D01*
X130544286Y-101463810D01*
X130544286Y-101320952D01*
X130591905Y-101130476D01*
X130639524Y-101035238D01*
X130734762Y-100940000D01*
X130877620Y-100892381D01*
X130972858Y-100892381D01*
X131115715Y-100940000D01*
X131163334Y-100987619D01*
X131734762Y-101320952D02*
X131639524Y-101273333D01*
X131591905Y-101225714D01*
X131544286Y-101130476D01*
X131544286Y-101082857D01*
X131591905Y-100987619D01*
X131639524Y-100940000D01*
X131734762Y-100892381D01*
X131925239Y-100892381D01*
X132020477Y-100940000D01*
X132068096Y-100987619D01*
X132115715Y-101082857D01*
X132115715Y-101130476D01*
X132068096Y-101225714D01*
X132020477Y-101273333D01*
X131925239Y-101320952D01*
X131734762Y-101320952D01*
X131639524Y-101368571D01*
X131591905Y-101416190D01*
X131544286Y-101511429D01*
X131544286Y-101701905D01*
X131591905Y-101797143D01*
X131639524Y-101844762D01*
X131734762Y-101892381D01*
X131925239Y-101892381D01*
X132020477Y-101844762D01*
X132068096Y-101797143D01*
X132115715Y-101701905D01*
X132115715Y-101511429D01*
X132068096Y-101416190D01*
X132020477Y-101368571D01*
X131925239Y-101320952D01*
X131007143Y-114696666D02*
X131054762Y-114744285D01*
X131102381Y-114887142D01*
X131102381Y-114982380D01*
X131054762Y-115125238D01*
X130959524Y-115220476D01*
X130864286Y-115268095D01*
X130673810Y-115315714D01*
X130530952Y-115315714D01*
X130340476Y-115268095D01*
X130245238Y-115220476D01*
X130150000Y-115125238D01*
X130102381Y-114982380D01*
X130102381Y-114887142D01*
X130150000Y-114744285D01*
X130197619Y-114696666D01*
X131102381Y-114220476D02*
X131102381Y-114030000D01*
X131054762Y-113934761D01*
X131007143Y-113887142D01*
X130864286Y-113791904D01*
X130673810Y-113744285D01*
X130292857Y-113744285D01*
X130197619Y-113791904D01*
X130150000Y-113839523D01*
X130102381Y-113934761D01*
X130102381Y-114125238D01*
X130150000Y-114220476D01*
X130197619Y-114268095D01*
X130292857Y-114315714D01*
X130530952Y-114315714D01*
X130626190Y-114268095D01*
X130673810Y-114220476D01*
X130721429Y-114125238D01*
X130721429Y-113934761D01*
X130673810Y-113839523D01*
X130626190Y-113791904D01*
X130530952Y-113744285D01*
X131547143Y-120007143D02*
X131499524Y-120054762D01*
X131356667Y-120102381D01*
X131261429Y-120102381D01*
X131118571Y-120054762D01*
X131023333Y-119959524D01*
X130975714Y-119864286D01*
X130928095Y-119673810D01*
X130928095Y-119530952D01*
X130975714Y-119340476D01*
X131023333Y-119245238D01*
X131118571Y-119150000D01*
X131261429Y-119102381D01*
X131356667Y-119102381D01*
X131499524Y-119150000D01*
X131547143Y-119197619D01*
X132499524Y-120102381D02*
X131928095Y-120102381D01*
X132213809Y-120102381D02*
X132213809Y-119102381D01*
X132118571Y-119245238D01*
X132023333Y-119340476D01*
X131928095Y-119388095D01*
X133118571Y-119102381D02*
X133213810Y-119102381D01*
X133309048Y-119150000D01*
X133356667Y-119197619D01*
X133404286Y-119292857D01*
X133451905Y-119483333D01*
X133451905Y-119721429D01*
X133404286Y-119911905D01*
X133356667Y-120007143D01*
X133309048Y-120054762D01*
X133213810Y-120102381D01*
X133118571Y-120102381D01*
X133023333Y-120054762D01*
X132975714Y-120007143D01*
X132928095Y-119911905D01*
X132880476Y-119721429D01*
X132880476Y-119483333D01*
X132928095Y-119292857D01*
X132975714Y-119197619D01*
X133023333Y-119150000D01*
X133118571Y-119102381D01*
X155557143Y-98857143D02*
X155509524Y-98904762D01*
X155366667Y-98952381D01*
X155271429Y-98952381D01*
X155128571Y-98904762D01*
X155033333Y-98809524D01*
X154985714Y-98714286D01*
X154938095Y-98523810D01*
X154938095Y-98380952D01*
X154985714Y-98190476D01*
X155033333Y-98095238D01*
X155128571Y-98000000D01*
X155271429Y-97952381D01*
X155366667Y-97952381D01*
X155509524Y-98000000D01*
X155557143Y-98047619D01*
X156509524Y-98952381D02*
X155938095Y-98952381D01*
X156223809Y-98952381D02*
X156223809Y-97952381D01*
X156128571Y-98095238D01*
X156033333Y-98190476D01*
X155938095Y-98238095D01*
X157461905Y-98952381D02*
X156890476Y-98952381D01*
X157176190Y-98952381D02*
X157176190Y-97952381D01*
X157080952Y-98095238D01*
X156985714Y-98190476D01*
X156890476Y-98238095D01*
X154607143Y-91357143D02*
X154559524Y-91404762D01*
X154416667Y-91452381D01*
X154321429Y-91452381D01*
X154178571Y-91404762D01*
X154083333Y-91309524D01*
X154035714Y-91214286D01*
X153988095Y-91023810D01*
X153988095Y-90880952D01*
X154035714Y-90690476D01*
X154083333Y-90595238D01*
X154178571Y-90500000D01*
X154321429Y-90452381D01*
X154416667Y-90452381D01*
X154559524Y-90500000D01*
X154607143Y-90547619D01*
X155559524Y-91452381D02*
X154988095Y-91452381D01*
X155273809Y-91452381D02*
X155273809Y-90452381D01*
X155178571Y-90595238D01*
X155083333Y-90690476D01*
X154988095Y-90738095D01*
X155940476Y-90547619D02*
X155988095Y-90500000D01*
X156083333Y-90452381D01*
X156321429Y-90452381D01*
X156416667Y-90500000D01*
X156464286Y-90547619D01*
X156511905Y-90642857D01*
X156511905Y-90738095D01*
X156464286Y-90880952D01*
X155892857Y-91452381D01*
X156511905Y-91452381D01*
X150557143Y-117557143D02*
X150509524Y-117604762D01*
X150366667Y-117652381D01*
X150271429Y-117652381D01*
X150128571Y-117604762D01*
X150033333Y-117509524D01*
X149985714Y-117414286D01*
X149938095Y-117223810D01*
X149938095Y-117080952D01*
X149985714Y-116890476D01*
X150033333Y-116795238D01*
X150128571Y-116700000D01*
X150271429Y-116652381D01*
X150366667Y-116652381D01*
X150509524Y-116700000D01*
X150557143Y-116747619D01*
X151509524Y-117652381D02*
X150938095Y-117652381D01*
X151223809Y-117652381D02*
X151223809Y-116652381D01*
X151128571Y-116795238D01*
X151033333Y-116890476D01*
X150938095Y-116938095D01*
X151842857Y-116652381D02*
X152461905Y-116652381D01*
X152128571Y-117033333D01*
X152271429Y-117033333D01*
X152366667Y-117080952D01*
X152414286Y-117128571D01*
X152461905Y-117223810D01*
X152461905Y-117461905D01*
X152414286Y-117557143D01*
X152366667Y-117604762D01*
X152271429Y-117652381D01*
X151985714Y-117652381D01*
X151890476Y-117604762D01*
X151842857Y-117557143D01*
X145357143Y-121157143D02*
X145309524Y-121204762D01*
X145166667Y-121252381D01*
X145071429Y-121252381D01*
X144928571Y-121204762D01*
X144833333Y-121109524D01*
X144785714Y-121014286D01*
X144738095Y-120823810D01*
X144738095Y-120680952D01*
X144785714Y-120490476D01*
X144833333Y-120395238D01*
X144928571Y-120300000D01*
X145071429Y-120252381D01*
X145166667Y-120252381D01*
X145309524Y-120300000D01*
X145357143Y-120347619D01*
X146309524Y-121252381D02*
X145738095Y-121252381D01*
X146023809Y-121252381D02*
X146023809Y-120252381D01*
X145928571Y-120395238D01*
X145833333Y-120490476D01*
X145738095Y-120538095D01*
X147166667Y-120585714D02*
X147166667Y-121252381D01*
X146928571Y-120204762D02*
X146690476Y-120919048D01*
X147309524Y-120919048D01*
X160557143Y-125017857D02*
X160604762Y-125065476D01*
X160652381Y-125208333D01*
X160652381Y-125303571D01*
X160604762Y-125446429D01*
X160509524Y-125541667D01*
X160414286Y-125589286D01*
X160223810Y-125636905D01*
X160080952Y-125636905D01*
X159890476Y-125589286D01*
X159795238Y-125541667D01*
X159700000Y-125446429D01*
X159652381Y-125303571D01*
X159652381Y-125208333D01*
X159700000Y-125065476D01*
X159747619Y-125017857D01*
X160652381Y-124065476D02*
X160652381Y-124636905D01*
X160652381Y-124351191D02*
X159652381Y-124351191D01*
X159795238Y-124446429D01*
X159890476Y-124541667D01*
X159938095Y-124636905D01*
X159652381Y-123160714D02*
X159652381Y-123636905D01*
X160128571Y-123684524D01*
X160080952Y-123636905D01*
X160033333Y-123541667D01*
X160033333Y-123303571D01*
X160080952Y-123208333D01*
X160128571Y-123160714D01*
X160223810Y-123113095D01*
X160461905Y-123113095D01*
X160557143Y-123160714D01*
X160604762Y-123208333D01*
X160652381Y-123303571D01*
X160652381Y-123541667D01*
X160604762Y-123636905D01*
X160557143Y-123684524D01*
X152852381Y-123266666D02*
X152376190Y-123600000D01*
X152852381Y-123838095D02*
X151852381Y-123838095D01*
X151852381Y-123457142D01*
X151900000Y-123361904D01*
X151947619Y-123314285D01*
X152042857Y-123266666D01*
X152185714Y-123266666D01*
X152280952Y-123314285D01*
X152328571Y-123361904D01*
X152376190Y-123457142D01*
X152376190Y-123838095D01*
X152852381Y-122790476D02*
X152852381Y-122600000D01*
X152804762Y-122504761D01*
X152757143Y-122457142D01*
X152614286Y-122361904D01*
X152423810Y-122314285D01*
X152042857Y-122314285D01*
X151947619Y-122361904D01*
X151900000Y-122409523D01*
X151852381Y-122504761D01*
X151852381Y-122695238D01*
X151900000Y-122790476D01*
X151947619Y-122838095D01*
X152042857Y-122885714D01*
X152280952Y-122885714D01*
X152376190Y-122838095D01*
X152423810Y-122790476D01*
X152471429Y-122695238D01*
X152471429Y-122504761D01*
X152423810Y-122409523D01*
X152376190Y-122361904D01*
X152280952Y-122314285D01*
X154677381Y-123517857D02*
X154201190Y-123851191D01*
X154677381Y-124089286D02*
X153677381Y-124089286D01*
X153677381Y-123708333D01*
X153725000Y-123613095D01*
X153772619Y-123565476D01*
X153867857Y-123517857D01*
X154010714Y-123517857D01*
X154105952Y-123565476D01*
X154153571Y-123613095D01*
X154201190Y-123708333D01*
X154201190Y-124089286D01*
X154677381Y-122565476D02*
X154677381Y-123136905D01*
X154677381Y-122851191D02*
X153677381Y-122851191D01*
X153820238Y-122946429D01*
X153915476Y-123041667D01*
X153963095Y-123136905D01*
X153677381Y-121946429D02*
X153677381Y-121851190D01*
X153725000Y-121755952D01*
X153772619Y-121708333D01*
X153867857Y-121660714D01*
X154058333Y-121613095D01*
X154296429Y-121613095D01*
X154486905Y-121660714D01*
X154582143Y-121708333D01*
X154629762Y-121755952D01*
X154677381Y-121851190D01*
X154677381Y-121946429D01*
X154629762Y-122041667D01*
X154582143Y-122089286D01*
X154486905Y-122136905D01*
X154296429Y-122184524D01*
X154058333Y-122184524D01*
X153867857Y-122136905D01*
X153772619Y-122089286D01*
X153725000Y-122041667D01*
X153677381Y-121946429D01*
X142380476Y-94822381D02*
X143047143Y-95822381D01*
X143047143Y-94822381D02*
X142380476Y-95822381D01*
X143951905Y-95822381D02*
X143380476Y-95822381D01*
X143666190Y-95822381D02*
X143666190Y-94822381D01*
X143570952Y-94965238D01*
X143475714Y-95060476D01*
X143380476Y-95108095D01*
X157502381Y-121641666D02*
X157026190Y-121975000D01*
X157502381Y-122213095D02*
X156502381Y-122213095D01*
X156502381Y-121832142D01*
X156550000Y-121736904D01*
X156597619Y-121689285D01*
X156692857Y-121641666D01*
X156835714Y-121641666D01*
X156930952Y-121689285D01*
X156978571Y-121736904D01*
X157026190Y-121832142D01*
X157026190Y-122213095D01*
X156930952Y-121070238D02*
X156883333Y-121165476D01*
X156835714Y-121213095D01*
X156740476Y-121260714D01*
X156692857Y-121260714D01*
X156597619Y-121213095D01*
X156550000Y-121165476D01*
X156502381Y-121070238D01*
X156502381Y-120879761D01*
X156550000Y-120784523D01*
X156597619Y-120736904D01*
X156692857Y-120689285D01*
X156740476Y-120689285D01*
X156835714Y-120736904D01*
X156883333Y-120784523D01*
X156930952Y-120879761D01*
X156930952Y-121070238D01*
X156978571Y-121165476D01*
X157026190Y-121213095D01*
X157121429Y-121260714D01*
X157311905Y-121260714D01*
X157407143Y-121213095D01*
X157454762Y-121165476D01*
X157502381Y-121070238D01*
X157502381Y-120879761D01*
X157454762Y-120784523D01*
X157407143Y-120736904D01*
X157311905Y-120689285D01*
X157121429Y-120689285D01*
X157026190Y-120736904D01*
X156978571Y-120784523D01*
X156930952Y-120879761D01*
X162091667Y-95403571D02*
X161758333Y-95403571D01*
X161758333Y-95927381D02*
X161758333Y-94927381D01*
X162234524Y-94927381D01*
X162520238Y-94927381D02*
X163139286Y-94927381D01*
X162805952Y-95308333D01*
X162948810Y-95308333D01*
X163044048Y-95355952D01*
X163091667Y-95403571D01*
X163139286Y-95498810D01*
X163139286Y-95736905D01*
X163091667Y-95832143D01*
X163044048Y-95879762D01*
X162948810Y-95927381D01*
X162663095Y-95927381D01*
X162567857Y-95879762D01*
X162520238Y-95832143D01*
X130933334Y-107052381D02*
X130600000Y-106576190D01*
X130361905Y-107052381D02*
X130361905Y-106052381D01*
X130742858Y-106052381D01*
X130838096Y-106100000D01*
X130885715Y-106147619D01*
X130933334Y-106242857D01*
X130933334Y-106385714D01*
X130885715Y-106480952D01*
X130838096Y-106528571D01*
X130742858Y-106576190D01*
X130361905Y-106576190D01*
X131838096Y-106052381D02*
X131361905Y-106052381D01*
X131314286Y-106528571D01*
X131361905Y-106480952D01*
X131457143Y-106433333D01*
X131695239Y-106433333D01*
X131790477Y-106480952D01*
X131838096Y-106528571D01*
X131885715Y-106623810D01*
X131885715Y-106861905D01*
X131838096Y-106957143D01*
X131790477Y-107004762D01*
X131695239Y-107052381D01*
X131457143Y-107052381D01*
X131361905Y-107004762D01*
X131314286Y-106957143D01*
M02*
