G04 #@! TF.FileFunction,Paste,Bot*
%FSLAX46Y46*%
G04 Gerber Fmt 4.6, Leading zero omitted, Abs format (unit mm)*
G04 Created by KiCad (PCBNEW 4.0.1-stable) date Thursday, April 14, 2016 'AMt' 11:50:35 AM*
%MOMM*%
G01*
G04 APERTURE LIST*
%ADD10C,0.100000*%
%ADD11R,0.660000X0.230000*%
%ADD12R,0.660000X0.350000*%
%ADD13R,0.797560X0.797560*%
%ADD14R,1.200000X0.900000*%
%ADD15R,1.400000X1.050000*%
%ADD16R,0.800100X0.800100*%
%ADD17R,1.600000X1.400000*%
%ADD18R,0.400000X1.350000*%
%ADD19R,1.900000X1.900000*%
%ADD20O,0.900000X1.600000*%
G04 APERTURE END LIST*
D10*
D11*
X161010000Y-106190000D03*
X158300000Y-106190000D03*
X161010000Y-109790000D03*
X158300000Y-109790000D03*
D12*
X161010000Y-105715000D03*
X158300000Y-105715000D03*
X161010000Y-110265000D03*
X158300000Y-110265000D03*
D11*
X158300000Y-109390000D03*
X161010000Y-109390000D03*
X158300000Y-108990000D03*
X161010000Y-108990000D03*
X158300000Y-108590000D03*
X161010000Y-108590000D03*
X158300000Y-108190000D03*
X161010000Y-108190000D03*
X158300000Y-107790000D03*
X161010000Y-107790000D03*
X158300000Y-107390000D03*
X161010000Y-107390000D03*
X158300000Y-106990000D03*
X161010000Y-106990000D03*
X158300000Y-106590000D03*
X161010000Y-106590000D03*
D13*
X155640000Y-90890000D03*
X157138600Y-90890000D03*
D14*
X144610000Y-104350000D03*
X146810000Y-104350000D03*
X135050000Y-108290000D03*
X132850000Y-108290000D03*
X132760000Y-110300000D03*
X134960000Y-110300000D03*
X158090000Y-92580000D03*
X155890000Y-92580000D03*
D15*
X151800000Y-92225000D03*
X148200000Y-92225000D03*
X151800000Y-90775000D03*
X148200000Y-90775000D03*
D16*
X156700000Y-123124240D03*
X158600000Y-123124240D03*
X157650000Y-125123220D03*
X155100000Y-125125760D03*
X153200000Y-125125760D03*
X154150000Y-123126780D03*
X149725000Y-123124240D03*
X151625000Y-123124240D03*
X150675000Y-125123220D03*
X156099240Y-100300000D03*
X156099240Y-98400000D03*
X158098220Y-99350000D03*
D17*
X139100000Y-93900000D03*
X145500000Y-93900000D03*
D18*
X141000000Y-94125000D03*
X141650000Y-94125000D03*
X142300000Y-94125000D03*
X142950000Y-94125000D03*
X143600000Y-94125000D03*
D19*
X141100000Y-91450000D03*
X143500000Y-91450000D03*
D20*
X139000000Y-91450000D03*
X145600000Y-91450000D03*
M02*
