G04 #@! TF.FileFunction,Copper,L1,Top,Signal*
%FSLAX46Y46*%
G04 Gerber Fmt 4.6, Leading zero omitted, Abs format (unit mm)*
G04 Created by KiCad (PCBNEW 4.0.1-stable) date Friday, March 04, 2016 'AMt' 01:34:41 AM*
%MOMM*%
G01*
G04 APERTURE LIST*
%ADD10C,0.100000*%
%ADD11C,0.010000*%
%ADD12R,0.700000X0.200000*%
%ADD13C,1.000000*%
%ADD14R,0.850000X0.300000*%
%ADD15R,0.300000X0.850000*%
%ADD16R,1.300000X1.300000*%
%ADD17R,1.200000X0.750000*%
%ADD18R,0.750000X1.200000*%
%ADD19R,2.000000X1.600000*%
%ADD20R,0.797560X0.797560*%
%ADD21C,1.600000*%
%ADD22R,1.727200X1.727200*%
%ADD23O,1.727200X1.727200*%
%ADD24C,1.524000*%
%ADD25R,0.900000X1.200000*%
%ADD26R,1.200000X0.900000*%
%ADD27R,0.280000X1.500000*%
%ADD28R,1.500000X0.280000*%
%ADD29R,1.060000X0.650000*%
%ADD30R,0.400000X2.100000*%
%ADD31C,0.685800*%
%ADD32C,0.685801*%
%ADD33C,0.152400*%
%ADD34C,0.254000*%
G04 APERTURE END LIST*
D10*
D11*
G36*
X145020956Y-93194664D02*
X145039544Y-93194670D01*
X145055911Y-93194683D01*
X145070203Y-93194706D01*
X145082569Y-93194741D01*
X145093153Y-93194791D01*
X145102104Y-93194858D01*
X145109568Y-93194945D01*
X145115692Y-93195055D01*
X145120624Y-93195190D01*
X145124509Y-93195353D01*
X145127494Y-93195546D01*
X145129727Y-93195772D01*
X145131355Y-93196034D01*
X145132523Y-93196334D01*
X145133380Y-93196675D01*
X145134016Y-93197024D01*
X145137109Y-93199685D01*
X145139259Y-93202869D01*
X145139309Y-93202992D01*
X145139734Y-93204716D01*
X145140581Y-93208741D01*
X145141817Y-93214893D01*
X145143408Y-93223000D01*
X145145322Y-93232889D01*
X145147526Y-93244386D01*
X145149986Y-93257320D01*
X145152670Y-93271517D01*
X145155544Y-93286805D01*
X145158575Y-93303010D01*
X145161731Y-93319959D01*
X145163444Y-93329198D01*
X145166661Y-93346551D01*
X145169768Y-93363307D01*
X145172733Y-93379287D01*
X145175523Y-93394313D01*
X145178105Y-93408206D01*
X145180445Y-93420786D01*
X145182509Y-93431877D01*
X145184266Y-93441298D01*
X145185681Y-93448872D01*
X145186722Y-93454419D01*
X145187354Y-93457761D01*
X145187507Y-93458548D01*
X145187943Y-93460796D01*
X145188393Y-93462786D01*
X145189008Y-93464600D01*
X145189940Y-93466316D01*
X145191339Y-93468014D01*
X145193358Y-93469773D01*
X145196146Y-93471675D01*
X145199856Y-93473797D01*
X145204639Y-93476220D01*
X145210645Y-93479023D01*
X145218027Y-93482287D01*
X145226936Y-93486090D01*
X145237522Y-93490513D01*
X145249937Y-93495634D01*
X145264332Y-93501534D01*
X145280858Y-93508293D01*
X145285814Y-93510320D01*
X145303038Y-93517370D01*
X145318094Y-93523530D01*
X145331147Y-93528846D01*
X145342364Y-93533364D01*
X145351908Y-93537129D01*
X145359947Y-93540189D01*
X145366646Y-93542589D01*
X145372171Y-93544374D01*
X145376686Y-93545592D01*
X145380359Y-93546288D01*
X145383354Y-93546509D01*
X145385837Y-93546300D01*
X145387974Y-93545707D01*
X145389930Y-93544777D01*
X145391872Y-93543555D01*
X145393964Y-93542088D01*
X145395695Y-93540880D01*
X145397948Y-93539338D01*
X145402117Y-93536480D01*
X145408047Y-93532414D01*
X145415581Y-93527248D01*
X145424562Y-93521088D01*
X145434833Y-93514043D01*
X145446239Y-93506219D01*
X145458622Y-93497724D01*
X145471826Y-93488665D01*
X145485694Y-93479150D01*
X145500070Y-93469286D01*
X145505684Y-93465434D01*
X145522484Y-93453910D01*
X145537339Y-93443729D01*
X145550378Y-93434808D01*
X145561727Y-93427065D01*
X145571514Y-93420417D01*
X145579866Y-93414781D01*
X145586910Y-93410073D01*
X145592773Y-93406212D01*
X145597583Y-93403115D01*
X145601467Y-93400697D01*
X145604552Y-93398877D01*
X145606966Y-93397572D01*
X145608835Y-93396699D01*
X145610287Y-93396175D01*
X145611449Y-93395917D01*
X145612448Y-93395842D01*
X145618006Y-93395842D01*
X145711379Y-93489215D01*
X145726291Y-93504128D01*
X145739524Y-93517369D01*
X145751179Y-93529043D01*
X145761356Y-93539257D01*
X145770155Y-93548115D01*
X145777676Y-93555723D01*
X145784020Y-93562186D01*
X145789287Y-93567612D01*
X145793576Y-93572104D01*
X145796989Y-93575769D01*
X145799625Y-93578712D01*
X145801584Y-93581038D01*
X145802968Y-93582854D01*
X145803875Y-93584265D01*
X145804406Y-93585377D01*
X145804662Y-93586295D01*
X145804742Y-93587125D01*
X145804748Y-93587609D01*
X145804125Y-93592011D01*
X145802608Y-93596109D01*
X145802387Y-93596493D01*
X145801343Y-93598077D01*
X145798979Y-93601581D01*
X145795399Y-93606855D01*
X145790707Y-93613746D01*
X145785006Y-93622102D01*
X145778401Y-93631771D01*
X145770994Y-93642602D01*
X145762890Y-93654442D01*
X145754193Y-93667140D01*
X145745006Y-93680543D01*
X145735433Y-93694500D01*
X145734090Y-93696458D01*
X145724380Y-93710610D01*
X145714974Y-93724320D01*
X145705983Y-93737425D01*
X145697519Y-93749765D01*
X145689692Y-93761177D01*
X145682613Y-93771499D01*
X145676394Y-93780569D01*
X145671145Y-93788225D01*
X145666977Y-93794306D01*
X145664003Y-93798649D01*
X145662332Y-93801092D01*
X145662263Y-93801193D01*
X145660636Y-93803515D01*
X145659218Y-93805557D01*
X145658059Y-93807483D01*
X145657205Y-93809458D01*
X145656706Y-93811645D01*
X145656609Y-93814209D01*
X145656964Y-93817314D01*
X145657818Y-93821124D01*
X145659219Y-93825802D01*
X145661216Y-93831514D01*
X145663857Y-93838423D01*
X145667191Y-93846693D01*
X145671265Y-93856488D01*
X145676128Y-93867973D01*
X145681829Y-93881311D01*
X145688415Y-93896667D01*
X145694617Y-93911128D01*
X145700730Y-93925381D01*
X145706591Y-93939028D01*
X145712120Y-93951884D01*
X145717238Y-93963762D01*
X145721862Y-93974476D01*
X145725913Y-93983839D01*
X145729310Y-93991665D01*
X145731973Y-93997768D01*
X145733820Y-94001961D01*
X145734772Y-94004057D01*
X145734836Y-94004185D01*
X145737317Y-94007654D01*
X145740521Y-94010649D01*
X145740542Y-94010665D01*
X145741129Y-94011090D01*
X145741709Y-94011481D01*
X145742418Y-94011864D01*
X145743387Y-94012266D01*
X145744753Y-94012713D01*
X145746647Y-94013232D01*
X145749205Y-94013850D01*
X145752560Y-94014593D01*
X145756846Y-94015487D01*
X145762196Y-94016561D01*
X145768745Y-94017839D01*
X145776627Y-94019350D01*
X145785974Y-94021118D01*
X145796923Y-94023172D01*
X145809605Y-94025538D01*
X145824154Y-94028242D01*
X145840706Y-94031311D01*
X145859393Y-94034772D01*
X145880350Y-94038650D01*
X145892144Y-94040833D01*
X145907451Y-94043670D01*
X145922150Y-94046400D01*
X145936038Y-94048986D01*
X145948910Y-94051390D01*
X145960562Y-94053572D01*
X145970790Y-94055495D01*
X145979391Y-94057120D01*
X145986160Y-94058410D01*
X145990893Y-94059325D01*
X145993387Y-94059828D01*
X145993550Y-94059865D01*
X145997931Y-94061423D01*
X146001600Y-94063663D01*
X146002352Y-94064358D01*
X146005312Y-94067509D01*
X146005631Y-94199123D01*
X146005681Y-94220191D01*
X146005722Y-94238889D01*
X146005750Y-94255365D01*
X146005764Y-94269765D01*
X146005762Y-94282235D01*
X146005741Y-94292921D01*
X146005698Y-94301969D01*
X146005633Y-94309526D01*
X146005542Y-94315738D01*
X146005423Y-94320750D01*
X146005273Y-94324710D01*
X146005092Y-94327763D01*
X146004876Y-94330055D01*
X146004623Y-94331733D01*
X146004330Y-94332943D01*
X146003997Y-94333832D01*
X146003619Y-94334544D01*
X146003528Y-94334695D01*
X146000388Y-94338091D01*
X145996922Y-94340010D01*
X145994986Y-94340469D01*
X145990795Y-94341341D01*
X145984566Y-94342584D01*
X145976518Y-94344156D01*
X145966867Y-94346016D01*
X145955831Y-94348122D01*
X145943629Y-94350431D01*
X145930479Y-94352902D01*
X145916597Y-94355492D01*
X145911005Y-94356531D01*
X145888039Y-94360793D01*
X145867417Y-94364621D01*
X145849009Y-94368041D01*
X145832685Y-94371076D01*
X145818318Y-94373752D01*
X145805777Y-94376092D01*
X145794933Y-94378122D01*
X145785657Y-94379866D01*
X145777819Y-94381348D01*
X145771290Y-94382592D01*
X145765942Y-94383624D01*
X145761644Y-94384468D01*
X145758267Y-94385147D01*
X145755682Y-94385688D01*
X145753760Y-94386113D01*
X145752372Y-94386448D01*
X145751387Y-94386718D01*
X145751039Y-94386825D01*
X145747397Y-94388723D01*
X145744104Y-94391555D01*
X145743964Y-94391719D01*
X145743028Y-94393437D01*
X145741238Y-94397323D01*
X145738665Y-94403208D01*
X145735379Y-94410922D01*
X145731451Y-94420295D01*
X145726951Y-94431157D01*
X145721950Y-94443337D01*
X145716519Y-94456667D01*
X145710727Y-94470976D01*
X145704647Y-94486093D01*
X145701597Y-94493712D01*
X145694630Y-94511141D01*
X145688541Y-94526391D01*
X145683272Y-94539617D01*
X145678767Y-94550974D01*
X145674968Y-94560620D01*
X145671820Y-94568708D01*
X145669264Y-94575394D01*
X145667244Y-94580834D01*
X145665703Y-94585184D01*
X145664584Y-94588598D01*
X145663831Y-94591234D01*
X145663385Y-94593245D01*
X145663191Y-94594788D01*
X145663191Y-94596018D01*
X145663329Y-94597090D01*
X145663481Y-94597852D01*
X145663957Y-94599230D01*
X145664988Y-94601336D01*
X145666647Y-94604282D01*
X145669008Y-94608177D01*
X145672144Y-94613134D01*
X145676129Y-94619263D01*
X145681035Y-94626675D01*
X145686938Y-94635481D01*
X145693909Y-94645792D01*
X145702023Y-94657718D01*
X145711353Y-94671372D01*
X145721972Y-94686863D01*
X145733954Y-94704303D01*
X145734310Y-94704822D01*
X145744170Y-94719186D01*
X145753624Y-94733011D01*
X145762576Y-94746152D01*
X145770926Y-94758461D01*
X145778576Y-94769793D01*
X145785429Y-94780000D01*
X145791386Y-94788937D01*
X145796349Y-94796457D01*
X145800221Y-94802414D01*
X145802902Y-94806662D01*
X145804295Y-94809054D01*
X145804476Y-94809486D01*
X145804595Y-94813456D01*
X145804190Y-94816402D01*
X145803223Y-94817861D01*
X145800639Y-94820887D01*
X145796419Y-94825501D01*
X145790543Y-94831722D01*
X145782993Y-94839571D01*
X145773747Y-94849068D01*
X145762788Y-94860233D01*
X145750095Y-94873086D01*
X145735648Y-94887647D01*
X145719429Y-94903937D01*
X145712572Y-94910810D01*
X145699965Y-94923424D01*
X145687811Y-94935554D01*
X145676234Y-94947079D01*
X145665357Y-94957877D01*
X145655304Y-94967827D01*
X145646198Y-94976808D01*
X145638161Y-94984698D01*
X145631317Y-94991376D01*
X145625790Y-94996721D01*
X145621702Y-95000612D01*
X145619177Y-95002926D01*
X145618402Y-95003545D01*
X145613417Y-95005176D01*
X145608306Y-95004656D01*
X145602645Y-95001924D01*
X145601505Y-95001173D01*
X145599568Y-94999848D01*
X145595718Y-94997210D01*
X145590115Y-94993369D01*
X145582918Y-94988435D01*
X145574289Y-94982519D01*
X145564388Y-94975729D01*
X145553375Y-94968176D01*
X145541409Y-94959970D01*
X145528653Y-94951221D01*
X145515265Y-94942039D01*
X145502970Y-94933606D01*
X145489209Y-94924174D01*
X145475969Y-94915116D01*
X145463408Y-94906537D01*
X145451682Y-94898544D01*
X145440946Y-94891241D01*
X145431358Y-94884737D01*
X145423074Y-94879136D01*
X145416249Y-94874544D01*
X145411041Y-94871068D01*
X145407606Y-94868815D01*
X145406149Y-94867913D01*
X145400242Y-94866147D01*
X145397054Y-94866199D01*
X145394701Y-94866959D01*
X145390318Y-94868863D01*
X145384068Y-94871831D01*
X145376116Y-94875781D01*
X145366627Y-94880632D01*
X145355765Y-94886303D01*
X145347280Y-94890798D01*
X145335417Y-94897100D01*
X145325551Y-94902283D01*
X145317471Y-94906430D01*
X145310964Y-94909626D01*
X145305818Y-94911954D01*
X145301822Y-94913498D01*
X145298763Y-94914340D01*
X145296431Y-94914566D01*
X145294612Y-94914257D01*
X145293095Y-94913497D01*
X145291945Y-94912611D01*
X145291155Y-94911187D01*
X145289443Y-94907506D01*
X145286838Y-94901637D01*
X145283369Y-94893653D01*
X145279067Y-94883623D01*
X145273960Y-94871617D01*
X145268080Y-94857707D01*
X145261454Y-94841962D01*
X145254114Y-94824453D01*
X145246088Y-94805251D01*
X145237406Y-94784425D01*
X145228098Y-94762047D01*
X145218194Y-94738187D01*
X145207723Y-94712915D01*
X145199294Y-94692540D01*
X145188354Y-94666077D01*
X145178336Y-94641837D01*
X145169202Y-94619722D01*
X145160911Y-94599632D01*
X145153423Y-94581466D01*
X145146698Y-94565127D01*
X145140698Y-94550513D01*
X145135382Y-94537526D01*
X145130710Y-94526066D01*
X145126643Y-94516033D01*
X145123140Y-94507329D01*
X145120163Y-94499852D01*
X145117671Y-94493505D01*
X145115625Y-94488187D01*
X145113984Y-94483798D01*
X145112710Y-94480239D01*
X145111761Y-94477412D01*
X145111100Y-94475215D01*
X145110685Y-94473550D01*
X145110477Y-94472316D01*
X145110436Y-94471415D01*
X145110523Y-94470747D01*
X145110600Y-94470475D01*
X145111800Y-94467649D01*
X145113621Y-94465122D01*
X145116456Y-94462543D01*
X145120698Y-94459563D01*
X145126738Y-94455832D01*
X145127629Y-94455301D01*
X145133568Y-94451610D01*
X145140026Y-94447340D01*
X145145746Y-94443328D01*
X145146490Y-94442779D01*
X145151325Y-94439184D01*
X145157286Y-94434753D01*
X145163482Y-94430150D01*
X145167238Y-94427360D01*
X145187863Y-94410494D01*
X145206758Y-94391849D01*
X145223799Y-94371561D01*
X145238862Y-94349767D01*
X145241762Y-94345012D01*
X145253151Y-94323657D01*
X145262814Y-94300819D01*
X145270587Y-94276987D01*
X145276304Y-94252650D01*
X145279116Y-94234578D01*
X145279915Y-94225314D01*
X145280347Y-94214300D01*
X145280425Y-94202275D01*
X145280161Y-94189974D01*
X145279565Y-94178136D01*
X145278650Y-94167496D01*
X145277957Y-94162023D01*
X145272874Y-94135869D01*
X145265498Y-94110607D01*
X145255920Y-94086362D01*
X145244228Y-94063254D01*
X145230512Y-94041409D01*
X145214862Y-94020949D01*
X145197366Y-94001996D01*
X145178115Y-93984675D01*
X145157197Y-93969109D01*
X145134702Y-93955420D01*
X145123989Y-93949856D01*
X145100323Y-93939478D01*
X145076231Y-93931492D01*
X145051522Y-93925854D01*
X145026005Y-93922520D01*
X145000000Y-93921446D01*
X144977422Y-93922183D01*
X144956238Y-93924464D01*
X144935781Y-93928394D01*
X144915385Y-93934076D01*
X144911980Y-93935189D01*
X144887353Y-93944685D01*
X144863926Y-93956298D01*
X144841822Y-93969908D01*
X144821160Y-93985394D01*
X144802061Y-94002638D01*
X144784648Y-94021518D01*
X144769039Y-94041916D01*
X144755357Y-94063711D01*
X144743723Y-94086784D01*
X144734256Y-94111013D01*
X144734037Y-94111665D01*
X144728454Y-94130025D01*
X144724333Y-94147563D01*
X144721551Y-94165065D01*
X144719983Y-94183319D01*
X144719502Y-94203042D01*
X144719995Y-94221912D01*
X144721529Y-94239286D01*
X144724238Y-94256015D01*
X144728261Y-94272950D01*
X144733378Y-94289871D01*
X144742850Y-94314706D01*
X144754498Y-94338318D01*
X144768245Y-94360603D01*
X144784019Y-94381459D01*
X144801745Y-94400782D01*
X144821349Y-94418472D01*
X144832762Y-94427362D01*
X144838341Y-94431496D01*
X144843982Y-94435697D01*
X144848919Y-94439394D01*
X144851624Y-94441435D01*
X144855735Y-94444382D01*
X144861166Y-94448041D01*
X144867067Y-94451847D01*
X144870485Y-94453969D01*
X144877085Y-94458073D01*
X144881843Y-94461271D01*
X144885121Y-94463878D01*
X144887275Y-94466205D01*
X144888667Y-94468567D01*
X144889403Y-94470482D01*
X144889538Y-94471072D01*
X144889566Y-94471845D01*
X144889446Y-94472900D01*
X144889140Y-94474336D01*
X144888607Y-94476253D01*
X144887808Y-94478752D01*
X144886702Y-94481930D01*
X144885251Y-94485888D01*
X144883413Y-94490726D01*
X144881150Y-94496542D01*
X144878422Y-94503437D01*
X144875189Y-94511510D01*
X144871411Y-94520861D01*
X144867048Y-94531589D01*
X144862061Y-94543793D01*
X144856410Y-94557574D01*
X144850054Y-94573031D01*
X144842956Y-94590263D01*
X144835073Y-94609370D01*
X144826368Y-94630452D01*
X144816799Y-94653607D01*
X144806328Y-94678937D01*
X144800700Y-94692547D01*
X144789920Y-94718594D01*
X144779663Y-94743337D01*
X144769959Y-94766700D01*
X144760840Y-94788611D01*
X144752337Y-94808995D01*
X144744480Y-94827779D01*
X144737302Y-94844888D01*
X144730832Y-94860250D01*
X144725103Y-94873789D01*
X144720144Y-94885432D01*
X144715988Y-94895106D01*
X144712666Y-94902736D01*
X144710208Y-94908248D01*
X144708645Y-94911569D01*
X144708047Y-94912611D01*
X144704878Y-94914250D01*
X144701713Y-94914812D01*
X144699434Y-94914185D01*
X144695007Y-94912316D01*
X144688462Y-94909217D01*
X144679828Y-94904905D01*
X144669135Y-94899393D01*
X144656412Y-94892695D01*
X144653127Y-94890949D01*
X144643217Y-94885705D01*
X144633869Y-94880820D01*
X144625342Y-94876426D01*
X144617899Y-94872655D01*
X144611802Y-94869640D01*
X144607311Y-94867511D01*
X144604689Y-94866402D01*
X144604288Y-94866285D01*
X144600073Y-94866133D01*
X144596390Y-94866833D01*
X144594792Y-94867734D01*
X144591280Y-94869958D01*
X144586010Y-94873399D01*
X144579136Y-94877953D01*
X144570815Y-94883514D01*
X144561204Y-94889979D01*
X144550457Y-94897242D01*
X144538732Y-94905198D01*
X144526183Y-94913743D01*
X144512967Y-94922771D01*
X144501078Y-94930917D01*
X144487268Y-94940391D01*
X144473897Y-94949564D01*
X144461133Y-94958320D01*
X144449141Y-94966545D01*
X144438089Y-94974125D01*
X144428143Y-94980945D01*
X144419470Y-94986892D01*
X144412238Y-94991850D01*
X144406612Y-94995706D01*
X144402760Y-94998344D01*
X144401072Y-94999499D01*
X144395040Y-95003174D01*
X144390142Y-95005021D01*
X144385878Y-95005125D01*
X144381750Y-95003570D01*
X144380718Y-95002956D01*
X144379318Y-95001748D01*
X144376270Y-94998880D01*
X144371697Y-94994473D01*
X144365724Y-94988652D01*
X144358476Y-94981538D01*
X144350076Y-94973255D01*
X144340649Y-94963926D01*
X144330319Y-94953673D01*
X144319212Y-94942619D01*
X144307450Y-94930886D01*
X144295159Y-94918598D01*
X144286800Y-94910226D01*
X144269932Y-94893297D01*
X144254845Y-94878104D01*
X144241520Y-94864629D01*
X144229937Y-94852851D01*
X144220078Y-94842752D01*
X144211923Y-94834310D01*
X144205453Y-94827507D01*
X144200649Y-94822323D01*
X144197492Y-94818737D01*
X144195963Y-94816732D01*
X144195810Y-94816402D01*
X144195360Y-94812419D01*
X144195518Y-94809486D01*
X144196296Y-94807981D01*
X144198407Y-94804553D01*
X144201752Y-94799350D01*
X144206234Y-94792518D01*
X144211754Y-94784203D01*
X144218214Y-94774551D01*
X144225516Y-94763709D01*
X144233562Y-94751824D01*
X144242254Y-94739041D01*
X144251493Y-94725507D01*
X144261182Y-94711368D01*
X144265680Y-94704822D01*
X144277706Y-94687320D01*
X144288367Y-94671770D01*
X144297735Y-94658061D01*
X144305886Y-94646083D01*
X144312891Y-94635724D01*
X144318824Y-94626874D01*
X144323759Y-94619422D01*
X144327770Y-94613258D01*
X144330928Y-94608270D01*
X144333308Y-94604347D01*
X144334984Y-94601380D01*
X144336027Y-94599257D01*
X144336513Y-94597867D01*
X144336516Y-94597852D01*
X144336718Y-94596796D01*
X144336824Y-94595695D01*
X144336777Y-94594395D01*
X144336519Y-94592738D01*
X144335994Y-94590570D01*
X144335145Y-94587734D01*
X144333915Y-94584076D01*
X144332246Y-94579439D01*
X144330083Y-94573668D01*
X144327368Y-94566607D01*
X144324044Y-94558101D01*
X144320054Y-94547993D01*
X144315341Y-94536129D01*
X144309848Y-94522353D01*
X144303519Y-94506509D01*
X144298453Y-94493835D01*
X144292430Y-94478809D01*
X144286628Y-94464406D01*
X144281120Y-94450803D01*
X144275979Y-94438179D01*
X144271278Y-94426713D01*
X144267093Y-94416582D01*
X144263495Y-94407966D01*
X144260559Y-94401042D01*
X144258358Y-94395989D01*
X144256966Y-94392985D01*
X144256544Y-94392234D01*
X144253419Y-94389306D01*
X144250049Y-94387294D01*
X144248280Y-94386839D01*
X144244213Y-94385963D01*
X144238024Y-94384699D01*
X144229890Y-94383081D01*
X144219985Y-94381145D01*
X144208487Y-94378922D01*
X144195570Y-94376448D01*
X144181410Y-94373756D01*
X144166184Y-94370881D01*
X144150067Y-94367855D01*
X144133234Y-94364714D01*
X144126718Y-94363502D01*
X144109654Y-94360328D01*
X144093233Y-94357262D01*
X144077631Y-94354338D01*
X144063025Y-94351590D01*
X144049591Y-94349051D01*
X144037506Y-94346755D01*
X144026945Y-94344735D01*
X144018086Y-94343025D01*
X144011104Y-94341658D01*
X144006176Y-94340669D01*
X144003479Y-94340090D01*
X144003079Y-94339985D01*
X143999123Y-94337697D01*
X143996472Y-94334695D01*
X143996084Y-94334001D01*
X143995741Y-94333165D01*
X143995440Y-94332040D01*
X143995178Y-94330480D01*
X143994954Y-94328338D01*
X143994765Y-94325468D01*
X143994608Y-94321725D01*
X143994483Y-94316961D01*
X143994386Y-94311031D01*
X143994314Y-94303789D01*
X143994267Y-94295088D01*
X143994241Y-94284782D01*
X143994235Y-94272725D01*
X143994246Y-94258770D01*
X143994271Y-94242773D01*
X143994309Y-94224585D01*
X143994357Y-94204062D01*
X143994369Y-94199123D01*
X143994688Y-94067509D01*
X143997686Y-94064319D01*
X143998125Y-94063779D01*
X143998432Y-94063315D01*
X143998746Y-94062897D01*
X143999206Y-94062497D01*
X143999951Y-94062085D01*
X144001118Y-94061634D01*
X144002846Y-94061114D01*
X144005275Y-94060497D01*
X144008543Y-94059754D01*
X144012788Y-94058856D01*
X144018149Y-94057775D01*
X144024764Y-94056482D01*
X144032773Y-94054949D01*
X144042314Y-94053145D01*
X144053525Y-94051044D01*
X144066545Y-94048616D01*
X144081513Y-94045832D01*
X144098567Y-94042664D01*
X144117846Y-94039083D01*
X144134517Y-94035985D01*
X144154947Y-94032187D01*
X144173052Y-94028817D01*
X144188976Y-94025839D01*
X144202865Y-94023219D01*
X144214865Y-94020921D01*
X144225120Y-94018908D01*
X144233778Y-94017147D01*
X144240982Y-94015601D01*
X144246880Y-94014235D01*
X144251616Y-94013014D01*
X144255336Y-94011901D01*
X144258186Y-94010862D01*
X144260311Y-94009862D01*
X144261857Y-94008864D01*
X144262969Y-94007834D01*
X144263794Y-94006735D01*
X144264476Y-94005533D01*
X144265161Y-94004192D01*
X144265164Y-94004185D01*
X144265966Y-94002439D01*
X144267677Y-93998567D01*
X144270216Y-93992755D01*
X144273501Y-93985191D01*
X144277454Y-93976060D01*
X144281993Y-93965548D01*
X144287037Y-93953843D01*
X144292506Y-93941130D01*
X144298320Y-93927595D01*
X144304398Y-93913427D01*
X144305383Y-93911128D01*
X144312744Y-93893966D01*
X144319179Y-93878957D01*
X144324737Y-93865939D01*
X144329466Y-93854747D01*
X144333413Y-93845218D01*
X144336628Y-93837186D01*
X144339159Y-93830488D01*
X144341054Y-93824959D01*
X144342361Y-93820437D01*
X144343128Y-93816756D01*
X144343405Y-93813752D01*
X144343239Y-93811261D01*
X144342678Y-93809120D01*
X144341772Y-93807164D01*
X144340567Y-93805229D01*
X144339113Y-93803151D01*
X144337747Y-93801193D01*
X144336185Y-93798906D01*
X144333309Y-93794705D01*
X144329232Y-93788753D01*
X144324061Y-93781208D01*
X144317908Y-93772232D01*
X144310883Y-93761985D01*
X144303096Y-93750628D01*
X144294656Y-93738321D01*
X144285674Y-93725226D01*
X144276261Y-93711502D01*
X144266525Y-93697310D01*
X144265015Y-93695109D01*
X144255354Y-93681020D01*
X144246080Y-93667483D01*
X144237296Y-93654649D01*
X144229103Y-93642665D01*
X144221601Y-93631680D01*
X144214893Y-93621842D01*
X144209079Y-93613300D01*
X144204260Y-93606202D01*
X144200539Y-93600697D01*
X144198015Y-93596934D01*
X144196791Y-93595060D01*
X144196704Y-93594912D01*
X144195722Y-93591798D01*
X144195254Y-93587835D01*
X144195248Y-93587377D01*
X144195288Y-93586571D01*
X144195478Y-93585702D01*
X144195916Y-93584666D01*
X144196703Y-93583357D01*
X144197939Y-93581670D01*
X144199724Y-93579498D01*
X144202159Y-93576738D01*
X144205343Y-93573284D01*
X144209377Y-93569030D01*
X144214362Y-93563870D01*
X144220396Y-93557701D01*
X144227580Y-93550416D01*
X144236016Y-93541910D01*
X144245801Y-93532078D01*
X144257038Y-93520814D01*
X144269826Y-93508014D01*
X144284265Y-93493571D01*
X144381994Y-93395842D01*
X144387486Y-93395842D01*
X144388185Y-93395797D01*
X144388746Y-93395709D01*
X144389272Y-93395643D01*
X144389864Y-93395668D01*
X144390624Y-93395850D01*
X144391653Y-93396257D01*
X144393053Y-93396956D01*
X144394926Y-93398014D01*
X144397372Y-93399499D01*
X144400495Y-93401477D01*
X144404395Y-93404015D01*
X144409173Y-93407182D01*
X144414932Y-93411044D01*
X144421773Y-93415668D01*
X144429798Y-93421122D01*
X144439108Y-93427472D01*
X144449804Y-93434787D01*
X144461989Y-93443133D01*
X144475764Y-93452577D01*
X144491230Y-93463187D01*
X144508490Y-93475029D01*
X144527644Y-93488172D01*
X144544017Y-93499405D01*
X144557666Y-93508765D01*
X144569402Y-93516803D01*
X144579386Y-93523618D01*
X144587778Y-93529311D01*
X144594738Y-93533984D01*
X144600426Y-93537736D01*
X144605002Y-93540670D01*
X144608627Y-93542885D01*
X144611460Y-93544482D01*
X144613662Y-93545562D01*
X144615393Y-93546227D01*
X144616814Y-93546576D01*
X144618083Y-93546711D01*
X144619226Y-93546733D01*
X144620703Y-93546615D01*
X144622699Y-93546221D01*
X144625371Y-93545490D01*
X144628878Y-93544362D01*
X144633377Y-93542777D01*
X144639027Y-93540674D01*
X144645986Y-93537993D01*
X144654412Y-93534673D01*
X144664464Y-93530654D01*
X144676298Y-93525876D01*
X144690074Y-93520278D01*
X144705950Y-93513800D01*
X144713071Y-93510889D01*
X144727223Y-93505086D01*
X144740748Y-93499516D01*
X144753456Y-93494256D01*
X144765160Y-93489386D01*
X144775671Y-93484985D01*
X144784801Y-93481133D01*
X144792361Y-93477908D01*
X144798164Y-93475390D01*
X144802021Y-93473657D01*
X144803743Y-93472789D01*
X144803764Y-93472774D01*
X144804893Y-93471932D01*
X144805915Y-93471078D01*
X144806865Y-93470068D01*
X144807774Y-93468759D01*
X144808676Y-93467007D01*
X144809604Y-93464669D01*
X144810591Y-93461602D01*
X144811670Y-93457661D01*
X144812874Y-93452704D01*
X144814236Y-93446587D01*
X144815789Y-93439166D01*
X144817566Y-93430298D01*
X144819600Y-93419840D01*
X144821925Y-93407648D01*
X144824572Y-93393579D01*
X144827576Y-93377489D01*
X144830970Y-93359234D01*
X144834785Y-93338672D01*
X144835386Y-93335435D01*
X144838679Y-93317724D01*
X144841864Y-93300665D01*
X144844910Y-93284425D01*
X144847784Y-93269174D01*
X144850454Y-93255080D01*
X144852887Y-93242310D01*
X144855053Y-93231034D01*
X144856917Y-93221419D01*
X144858449Y-93213635D01*
X144859617Y-93207848D01*
X144860387Y-93204228D01*
X144860700Y-93202992D01*
X144862775Y-93199819D01*
X144865851Y-93197107D01*
X144865984Y-93197024D01*
X144866684Y-93196644D01*
X144867562Y-93196307D01*
X144868763Y-93196010D01*
X144870436Y-93195752D01*
X144872727Y-93195528D01*
X144875783Y-93195338D01*
X144879751Y-93195177D01*
X144884777Y-93195045D01*
X144891009Y-93194937D01*
X144898593Y-93194851D01*
X144907676Y-93194786D01*
X144918405Y-93194737D01*
X144930928Y-93194703D01*
X144945390Y-93194682D01*
X144961938Y-93194669D01*
X144980721Y-93194664D01*
X145000000Y-93194663D01*
X145020956Y-93194664D01*
X145020956Y-93194664D01*
G37*
X145020956Y-93194664D02*
X145039544Y-93194670D01*
X145055911Y-93194683D01*
X145070203Y-93194706D01*
X145082569Y-93194741D01*
X145093153Y-93194791D01*
X145102104Y-93194858D01*
X145109568Y-93194945D01*
X145115692Y-93195055D01*
X145120624Y-93195190D01*
X145124509Y-93195353D01*
X145127494Y-93195546D01*
X145129727Y-93195772D01*
X145131355Y-93196034D01*
X145132523Y-93196334D01*
X145133380Y-93196675D01*
X145134016Y-93197024D01*
X145137109Y-93199685D01*
X145139259Y-93202869D01*
X145139309Y-93202992D01*
X145139734Y-93204716D01*
X145140581Y-93208741D01*
X145141817Y-93214893D01*
X145143408Y-93223000D01*
X145145322Y-93232889D01*
X145147526Y-93244386D01*
X145149986Y-93257320D01*
X145152670Y-93271517D01*
X145155544Y-93286805D01*
X145158575Y-93303010D01*
X145161731Y-93319959D01*
X145163444Y-93329198D01*
X145166661Y-93346551D01*
X145169768Y-93363307D01*
X145172733Y-93379287D01*
X145175523Y-93394313D01*
X145178105Y-93408206D01*
X145180445Y-93420786D01*
X145182509Y-93431877D01*
X145184266Y-93441298D01*
X145185681Y-93448872D01*
X145186722Y-93454419D01*
X145187354Y-93457761D01*
X145187507Y-93458548D01*
X145187943Y-93460796D01*
X145188393Y-93462786D01*
X145189008Y-93464600D01*
X145189940Y-93466316D01*
X145191339Y-93468014D01*
X145193358Y-93469773D01*
X145196146Y-93471675D01*
X145199856Y-93473797D01*
X145204639Y-93476220D01*
X145210645Y-93479023D01*
X145218027Y-93482287D01*
X145226936Y-93486090D01*
X145237522Y-93490513D01*
X145249937Y-93495634D01*
X145264332Y-93501534D01*
X145280858Y-93508293D01*
X145285814Y-93510320D01*
X145303038Y-93517370D01*
X145318094Y-93523530D01*
X145331147Y-93528846D01*
X145342364Y-93533364D01*
X145351908Y-93537129D01*
X145359947Y-93540189D01*
X145366646Y-93542589D01*
X145372171Y-93544374D01*
X145376686Y-93545592D01*
X145380359Y-93546288D01*
X145383354Y-93546509D01*
X145385837Y-93546300D01*
X145387974Y-93545707D01*
X145389930Y-93544777D01*
X145391872Y-93543555D01*
X145393964Y-93542088D01*
X145395695Y-93540880D01*
X145397948Y-93539338D01*
X145402117Y-93536480D01*
X145408047Y-93532414D01*
X145415581Y-93527248D01*
X145424562Y-93521088D01*
X145434833Y-93514043D01*
X145446239Y-93506219D01*
X145458622Y-93497724D01*
X145471826Y-93488665D01*
X145485694Y-93479150D01*
X145500070Y-93469286D01*
X145505684Y-93465434D01*
X145522484Y-93453910D01*
X145537339Y-93443729D01*
X145550378Y-93434808D01*
X145561727Y-93427065D01*
X145571514Y-93420417D01*
X145579866Y-93414781D01*
X145586910Y-93410073D01*
X145592773Y-93406212D01*
X145597583Y-93403115D01*
X145601467Y-93400697D01*
X145604552Y-93398877D01*
X145606966Y-93397572D01*
X145608835Y-93396699D01*
X145610287Y-93396175D01*
X145611449Y-93395917D01*
X145612448Y-93395842D01*
X145618006Y-93395842D01*
X145711379Y-93489215D01*
X145726291Y-93504128D01*
X145739524Y-93517369D01*
X145751179Y-93529043D01*
X145761356Y-93539257D01*
X145770155Y-93548115D01*
X145777676Y-93555723D01*
X145784020Y-93562186D01*
X145789287Y-93567612D01*
X145793576Y-93572104D01*
X145796989Y-93575769D01*
X145799625Y-93578712D01*
X145801584Y-93581038D01*
X145802968Y-93582854D01*
X145803875Y-93584265D01*
X145804406Y-93585377D01*
X145804662Y-93586295D01*
X145804742Y-93587125D01*
X145804748Y-93587609D01*
X145804125Y-93592011D01*
X145802608Y-93596109D01*
X145802387Y-93596493D01*
X145801343Y-93598077D01*
X145798979Y-93601581D01*
X145795399Y-93606855D01*
X145790707Y-93613746D01*
X145785006Y-93622102D01*
X145778401Y-93631771D01*
X145770994Y-93642602D01*
X145762890Y-93654442D01*
X145754193Y-93667140D01*
X145745006Y-93680543D01*
X145735433Y-93694500D01*
X145734090Y-93696458D01*
X145724380Y-93710610D01*
X145714974Y-93724320D01*
X145705983Y-93737425D01*
X145697519Y-93749765D01*
X145689692Y-93761177D01*
X145682613Y-93771499D01*
X145676394Y-93780569D01*
X145671145Y-93788225D01*
X145666977Y-93794306D01*
X145664003Y-93798649D01*
X145662332Y-93801092D01*
X145662263Y-93801193D01*
X145660636Y-93803515D01*
X145659218Y-93805557D01*
X145658059Y-93807483D01*
X145657205Y-93809458D01*
X145656706Y-93811645D01*
X145656609Y-93814209D01*
X145656964Y-93817314D01*
X145657818Y-93821124D01*
X145659219Y-93825802D01*
X145661216Y-93831514D01*
X145663857Y-93838423D01*
X145667191Y-93846693D01*
X145671265Y-93856488D01*
X145676128Y-93867973D01*
X145681829Y-93881311D01*
X145688415Y-93896667D01*
X145694617Y-93911128D01*
X145700730Y-93925381D01*
X145706591Y-93939028D01*
X145712120Y-93951884D01*
X145717238Y-93963762D01*
X145721862Y-93974476D01*
X145725913Y-93983839D01*
X145729310Y-93991665D01*
X145731973Y-93997768D01*
X145733820Y-94001961D01*
X145734772Y-94004057D01*
X145734836Y-94004185D01*
X145737317Y-94007654D01*
X145740521Y-94010649D01*
X145740542Y-94010665D01*
X145741129Y-94011090D01*
X145741709Y-94011481D01*
X145742418Y-94011864D01*
X145743387Y-94012266D01*
X145744753Y-94012713D01*
X145746647Y-94013232D01*
X145749205Y-94013850D01*
X145752560Y-94014593D01*
X145756846Y-94015487D01*
X145762196Y-94016561D01*
X145768745Y-94017839D01*
X145776627Y-94019350D01*
X145785974Y-94021118D01*
X145796923Y-94023172D01*
X145809605Y-94025538D01*
X145824154Y-94028242D01*
X145840706Y-94031311D01*
X145859393Y-94034772D01*
X145880350Y-94038650D01*
X145892144Y-94040833D01*
X145907451Y-94043670D01*
X145922150Y-94046400D01*
X145936038Y-94048986D01*
X145948910Y-94051390D01*
X145960562Y-94053572D01*
X145970790Y-94055495D01*
X145979391Y-94057120D01*
X145986160Y-94058410D01*
X145990893Y-94059325D01*
X145993387Y-94059828D01*
X145993550Y-94059865D01*
X145997931Y-94061423D01*
X146001600Y-94063663D01*
X146002352Y-94064358D01*
X146005312Y-94067509D01*
X146005631Y-94199123D01*
X146005681Y-94220191D01*
X146005722Y-94238889D01*
X146005750Y-94255365D01*
X146005764Y-94269765D01*
X146005762Y-94282235D01*
X146005741Y-94292921D01*
X146005698Y-94301969D01*
X146005633Y-94309526D01*
X146005542Y-94315738D01*
X146005423Y-94320750D01*
X146005273Y-94324710D01*
X146005092Y-94327763D01*
X146004876Y-94330055D01*
X146004623Y-94331733D01*
X146004330Y-94332943D01*
X146003997Y-94333832D01*
X146003619Y-94334544D01*
X146003528Y-94334695D01*
X146000388Y-94338091D01*
X145996922Y-94340010D01*
X145994986Y-94340469D01*
X145990795Y-94341341D01*
X145984566Y-94342584D01*
X145976518Y-94344156D01*
X145966867Y-94346016D01*
X145955831Y-94348122D01*
X145943629Y-94350431D01*
X145930479Y-94352902D01*
X145916597Y-94355492D01*
X145911005Y-94356531D01*
X145888039Y-94360793D01*
X145867417Y-94364621D01*
X145849009Y-94368041D01*
X145832685Y-94371076D01*
X145818318Y-94373752D01*
X145805777Y-94376092D01*
X145794933Y-94378122D01*
X145785657Y-94379866D01*
X145777819Y-94381348D01*
X145771290Y-94382592D01*
X145765942Y-94383624D01*
X145761644Y-94384468D01*
X145758267Y-94385147D01*
X145755682Y-94385688D01*
X145753760Y-94386113D01*
X145752372Y-94386448D01*
X145751387Y-94386718D01*
X145751039Y-94386825D01*
X145747397Y-94388723D01*
X145744104Y-94391555D01*
X145743964Y-94391719D01*
X145743028Y-94393437D01*
X145741238Y-94397323D01*
X145738665Y-94403208D01*
X145735379Y-94410922D01*
X145731451Y-94420295D01*
X145726951Y-94431157D01*
X145721950Y-94443337D01*
X145716519Y-94456667D01*
X145710727Y-94470976D01*
X145704647Y-94486093D01*
X145701597Y-94493712D01*
X145694630Y-94511141D01*
X145688541Y-94526391D01*
X145683272Y-94539617D01*
X145678767Y-94550974D01*
X145674968Y-94560620D01*
X145671820Y-94568708D01*
X145669264Y-94575394D01*
X145667244Y-94580834D01*
X145665703Y-94585184D01*
X145664584Y-94588598D01*
X145663831Y-94591234D01*
X145663385Y-94593245D01*
X145663191Y-94594788D01*
X145663191Y-94596018D01*
X145663329Y-94597090D01*
X145663481Y-94597852D01*
X145663957Y-94599230D01*
X145664988Y-94601336D01*
X145666647Y-94604282D01*
X145669008Y-94608177D01*
X145672144Y-94613134D01*
X145676129Y-94619263D01*
X145681035Y-94626675D01*
X145686938Y-94635481D01*
X145693909Y-94645792D01*
X145702023Y-94657718D01*
X145711353Y-94671372D01*
X145721972Y-94686863D01*
X145733954Y-94704303D01*
X145734310Y-94704822D01*
X145744170Y-94719186D01*
X145753624Y-94733011D01*
X145762576Y-94746152D01*
X145770926Y-94758461D01*
X145778576Y-94769793D01*
X145785429Y-94780000D01*
X145791386Y-94788937D01*
X145796349Y-94796457D01*
X145800221Y-94802414D01*
X145802902Y-94806662D01*
X145804295Y-94809054D01*
X145804476Y-94809486D01*
X145804595Y-94813456D01*
X145804190Y-94816402D01*
X145803223Y-94817861D01*
X145800639Y-94820887D01*
X145796419Y-94825501D01*
X145790543Y-94831722D01*
X145782993Y-94839571D01*
X145773747Y-94849068D01*
X145762788Y-94860233D01*
X145750095Y-94873086D01*
X145735648Y-94887647D01*
X145719429Y-94903937D01*
X145712572Y-94910810D01*
X145699965Y-94923424D01*
X145687811Y-94935554D01*
X145676234Y-94947079D01*
X145665357Y-94957877D01*
X145655304Y-94967827D01*
X145646198Y-94976808D01*
X145638161Y-94984698D01*
X145631317Y-94991376D01*
X145625790Y-94996721D01*
X145621702Y-95000612D01*
X145619177Y-95002926D01*
X145618402Y-95003545D01*
X145613417Y-95005176D01*
X145608306Y-95004656D01*
X145602645Y-95001924D01*
X145601505Y-95001173D01*
X145599568Y-94999848D01*
X145595718Y-94997210D01*
X145590115Y-94993369D01*
X145582918Y-94988435D01*
X145574289Y-94982519D01*
X145564388Y-94975729D01*
X145553375Y-94968176D01*
X145541409Y-94959970D01*
X145528653Y-94951221D01*
X145515265Y-94942039D01*
X145502970Y-94933606D01*
X145489209Y-94924174D01*
X145475969Y-94915116D01*
X145463408Y-94906537D01*
X145451682Y-94898544D01*
X145440946Y-94891241D01*
X145431358Y-94884737D01*
X145423074Y-94879136D01*
X145416249Y-94874544D01*
X145411041Y-94871068D01*
X145407606Y-94868815D01*
X145406149Y-94867913D01*
X145400242Y-94866147D01*
X145397054Y-94866199D01*
X145394701Y-94866959D01*
X145390318Y-94868863D01*
X145384068Y-94871831D01*
X145376116Y-94875781D01*
X145366627Y-94880632D01*
X145355765Y-94886303D01*
X145347280Y-94890798D01*
X145335417Y-94897100D01*
X145325551Y-94902283D01*
X145317471Y-94906430D01*
X145310964Y-94909626D01*
X145305818Y-94911954D01*
X145301822Y-94913498D01*
X145298763Y-94914340D01*
X145296431Y-94914566D01*
X145294612Y-94914257D01*
X145293095Y-94913497D01*
X145291945Y-94912611D01*
X145291155Y-94911187D01*
X145289443Y-94907506D01*
X145286838Y-94901637D01*
X145283369Y-94893653D01*
X145279067Y-94883623D01*
X145273960Y-94871617D01*
X145268080Y-94857707D01*
X145261454Y-94841962D01*
X145254114Y-94824453D01*
X145246088Y-94805251D01*
X145237406Y-94784425D01*
X145228098Y-94762047D01*
X145218194Y-94738187D01*
X145207723Y-94712915D01*
X145199294Y-94692540D01*
X145188354Y-94666077D01*
X145178336Y-94641837D01*
X145169202Y-94619722D01*
X145160911Y-94599632D01*
X145153423Y-94581466D01*
X145146698Y-94565127D01*
X145140698Y-94550513D01*
X145135382Y-94537526D01*
X145130710Y-94526066D01*
X145126643Y-94516033D01*
X145123140Y-94507329D01*
X145120163Y-94499852D01*
X145117671Y-94493505D01*
X145115625Y-94488187D01*
X145113984Y-94483798D01*
X145112710Y-94480239D01*
X145111761Y-94477412D01*
X145111100Y-94475215D01*
X145110685Y-94473550D01*
X145110477Y-94472316D01*
X145110436Y-94471415D01*
X145110523Y-94470747D01*
X145110600Y-94470475D01*
X145111800Y-94467649D01*
X145113621Y-94465122D01*
X145116456Y-94462543D01*
X145120698Y-94459563D01*
X145126738Y-94455832D01*
X145127629Y-94455301D01*
X145133568Y-94451610D01*
X145140026Y-94447340D01*
X145145746Y-94443328D01*
X145146490Y-94442779D01*
X145151325Y-94439184D01*
X145157286Y-94434753D01*
X145163482Y-94430150D01*
X145167238Y-94427360D01*
X145187863Y-94410494D01*
X145206758Y-94391849D01*
X145223799Y-94371561D01*
X145238862Y-94349767D01*
X145241762Y-94345012D01*
X145253151Y-94323657D01*
X145262814Y-94300819D01*
X145270587Y-94276987D01*
X145276304Y-94252650D01*
X145279116Y-94234578D01*
X145279915Y-94225314D01*
X145280347Y-94214300D01*
X145280425Y-94202275D01*
X145280161Y-94189974D01*
X145279565Y-94178136D01*
X145278650Y-94167496D01*
X145277957Y-94162023D01*
X145272874Y-94135869D01*
X145265498Y-94110607D01*
X145255920Y-94086362D01*
X145244228Y-94063254D01*
X145230512Y-94041409D01*
X145214862Y-94020949D01*
X145197366Y-94001996D01*
X145178115Y-93984675D01*
X145157197Y-93969109D01*
X145134702Y-93955420D01*
X145123989Y-93949856D01*
X145100323Y-93939478D01*
X145076231Y-93931492D01*
X145051522Y-93925854D01*
X145026005Y-93922520D01*
X145000000Y-93921446D01*
X144977422Y-93922183D01*
X144956238Y-93924464D01*
X144935781Y-93928394D01*
X144915385Y-93934076D01*
X144911980Y-93935189D01*
X144887353Y-93944685D01*
X144863926Y-93956298D01*
X144841822Y-93969908D01*
X144821160Y-93985394D01*
X144802061Y-94002638D01*
X144784648Y-94021518D01*
X144769039Y-94041916D01*
X144755357Y-94063711D01*
X144743723Y-94086784D01*
X144734256Y-94111013D01*
X144734037Y-94111665D01*
X144728454Y-94130025D01*
X144724333Y-94147563D01*
X144721551Y-94165065D01*
X144719983Y-94183319D01*
X144719502Y-94203042D01*
X144719995Y-94221912D01*
X144721529Y-94239286D01*
X144724238Y-94256015D01*
X144728261Y-94272950D01*
X144733378Y-94289871D01*
X144742850Y-94314706D01*
X144754498Y-94338318D01*
X144768245Y-94360603D01*
X144784019Y-94381459D01*
X144801745Y-94400782D01*
X144821349Y-94418472D01*
X144832762Y-94427362D01*
X144838341Y-94431496D01*
X144843982Y-94435697D01*
X144848919Y-94439394D01*
X144851624Y-94441435D01*
X144855735Y-94444382D01*
X144861166Y-94448041D01*
X144867067Y-94451847D01*
X144870485Y-94453969D01*
X144877085Y-94458073D01*
X144881843Y-94461271D01*
X144885121Y-94463878D01*
X144887275Y-94466205D01*
X144888667Y-94468567D01*
X144889403Y-94470482D01*
X144889538Y-94471072D01*
X144889566Y-94471845D01*
X144889446Y-94472900D01*
X144889140Y-94474336D01*
X144888607Y-94476253D01*
X144887808Y-94478752D01*
X144886702Y-94481930D01*
X144885251Y-94485888D01*
X144883413Y-94490726D01*
X144881150Y-94496542D01*
X144878422Y-94503437D01*
X144875189Y-94511510D01*
X144871411Y-94520861D01*
X144867048Y-94531589D01*
X144862061Y-94543793D01*
X144856410Y-94557574D01*
X144850054Y-94573031D01*
X144842956Y-94590263D01*
X144835073Y-94609370D01*
X144826368Y-94630452D01*
X144816799Y-94653607D01*
X144806328Y-94678937D01*
X144800700Y-94692547D01*
X144789920Y-94718594D01*
X144779663Y-94743337D01*
X144769959Y-94766700D01*
X144760840Y-94788611D01*
X144752337Y-94808995D01*
X144744480Y-94827779D01*
X144737302Y-94844888D01*
X144730832Y-94860250D01*
X144725103Y-94873789D01*
X144720144Y-94885432D01*
X144715988Y-94895106D01*
X144712666Y-94902736D01*
X144710208Y-94908248D01*
X144708645Y-94911569D01*
X144708047Y-94912611D01*
X144704878Y-94914250D01*
X144701713Y-94914812D01*
X144699434Y-94914185D01*
X144695007Y-94912316D01*
X144688462Y-94909217D01*
X144679828Y-94904905D01*
X144669135Y-94899393D01*
X144656412Y-94892695D01*
X144653127Y-94890949D01*
X144643217Y-94885705D01*
X144633869Y-94880820D01*
X144625342Y-94876426D01*
X144617899Y-94872655D01*
X144611802Y-94869640D01*
X144607311Y-94867511D01*
X144604689Y-94866402D01*
X144604288Y-94866285D01*
X144600073Y-94866133D01*
X144596390Y-94866833D01*
X144594792Y-94867734D01*
X144591280Y-94869958D01*
X144586010Y-94873399D01*
X144579136Y-94877953D01*
X144570815Y-94883514D01*
X144561204Y-94889979D01*
X144550457Y-94897242D01*
X144538732Y-94905198D01*
X144526183Y-94913743D01*
X144512967Y-94922771D01*
X144501078Y-94930917D01*
X144487268Y-94940391D01*
X144473897Y-94949564D01*
X144461133Y-94958320D01*
X144449141Y-94966545D01*
X144438089Y-94974125D01*
X144428143Y-94980945D01*
X144419470Y-94986892D01*
X144412238Y-94991850D01*
X144406612Y-94995706D01*
X144402760Y-94998344D01*
X144401072Y-94999499D01*
X144395040Y-95003174D01*
X144390142Y-95005021D01*
X144385878Y-95005125D01*
X144381750Y-95003570D01*
X144380718Y-95002956D01*
X144379318Y-95001748D01*
X144376270Y-94998880D01*
X144371697Y-94994473D01*
X144365724Y-94988652D01*
X144358476Y-94981538D01*
X144350076Y-94973255D01*
X144340649Y-94963926D01*
X144330319Y-94953673D01*
X144319212Y-94942619D01*
X144307450Y-94930886D01*
X144295159Y-94918598D01*
X144286800Y-94910226D01*
X144269932Y-94893297D01*
X144254845Y-94878104D01*
X144241520Y-94864629D01*
X144229937Y-94852851D01*
X144220078Y-94842752D01*
X144211923Y-94834310D01*
X144205453Y-94827507D01*
X144200649Y-94822323D01*
X144197492Y-94818737D01*
X144195963Y-94816732D01*
X144195810Y-94816402D01*
X144195360Y-94812419D01*
X144195518Y-94809486D01*
X144196296Y-94807981D01*
X144198407Y-94804553D01*
X144201752Y-94799350D01*
X144206234Y-94792518D01*
X144211754Y-94784203D01*
X144218214Y-94774551D01*
X144225516Y-94763709D01*
X144233562Y-94751824D01*
X144242254Y-94739041D01*
X144251493Y-94725507D01*
X144261182Y-94711368D01*
X144265680Y-94704822D01*
X144277706Y-94687320D01*
X144288367Y-94671770D01*
X144297735Y-94658061D01*
X144305886Y-94646083D01*
X144312891Y-94635724D01*
X144318824Y-94626874D01*
X144323759Y-94619422D01*
X144327770Y-94613258D01*
X144330928Y-94608270D01*
X144333308Y-94604347D01*
X144334984Y-94601380D01*
X144336027Y-94599257D01*
X144336513Y-94597867D01*
X144336516Y-94597852D01*
X144336718Y-94596796D01*
X144336824Y-94595695D01*
X144336777Y-94594395D01*
X144336519Y-94592738D01*
X144335994Y-94590570D01*
X144335145Y-94587734D01*
X144333915Y-94584076D01*
X144332246Y-94579439D01*
X144330083Y-94573668D01*
X144327368Y-94566607D01*
X144324044Y-94558101D01*
X144320054Y-94547993D01*
X144315341Y-94536129D01*
X144309848Y-94522353D01*
X144303519Y-94506509D01*
X144298453Y-94493835D01*
X144292430Y-94478809D01*
X144286628Y-94464406D01*
X144281120Y-94450803D01*
X144275979Y-94438179D01*
X144271278Y-94426713D01*
X144267093Y-94416582D01*
X144263495Y-94407966D01*
X144260559Y-94401042D01*
X144258358Y-94395989D01*
X144256966Y-94392985D01*
X144256544Y-94392234D01*
X144253419Y-94389306D01*
X144250049Y-94387294D01*
X144248280Y-94386839D01*
X144244213Y-94385963D01*
X144238024Y-94384699D01*
X144229890Y-94383081D01*
X144219985Y-94381145D01*
X144208487Y-94378922D01*
X144195570Y-94376448D01*
X144181410Y-94373756D01*
X144166184Y-94370881D01*
X144150067Y-94367855D01*
X144133234Y-94364714D01*
X144126718Y-94363502D01*
X144109654Y-94360328D01*
X144093233Y-94357262D01*
X144077631Y-94354338D01*
X144063025Y-94351590D01*
X144049591Y-94349051D01*
X144037506Y-94346755D01*
X144026945Y-94344735D01*
X144018086Y-94343025D01*
X144011104Y-94341658D01*
X144006176Y-94340669D01*
X144003479Y-94340090D01*
X144003079Y-94339985D01*
X143999123Y-94337697D01*
X143996472Y-94334695D01*
X143996084Y-94334001D01*
X143995741Y-94333165D01*
X143995440Y-94332040D01*
X143995178Y-94330480D01*
X143994954Y-94328338D01*
X143994765Y-94325468D01*
X143994608Y-94321725D01*
X143994483Y-94316961D01*
X143994386Y-94311031D01*
X143994314Y-94303789D01*
X143994267Y-94295088D01*
X143994241Y-94284782D01*
X143994235Y-94272725D01*
X143994246Y-94258770D01*
X143994271Y-94242773D01*
X143994309Y-94224585D01*
X143994357Y-94204062D01*
X143994369Y-94199123D01*
X143994688Y-94067509D01*
X143997686Y-94064319D01*
X143998125Y-94063779D01*
X143998432Y-94063315D01*
X143998746Y-94062897D01*
X143999206Y-94062497D01*
X143999951Y-94062085D01*
X144001118Y-94061634D01*
X144002846Y-94061114D01*
X144005275Y-94060497D01*
X144008543Y-94059754D01*
X144012788Y-94058856D01*
X144018149Y-94057775D01*
X144024764Y-94056482D01*
X144032773Y-94054949D01*
X144042314Y-94053145D01*
X144053525Y-94051044D01*
X144066545Y-94048616D01*
X144081513Y-94045832D01*
X144098567Y-94042664D01*
X144117846Y-94039083D01*
X144134517Y-94035985D01*
X144154947Y-94032187D01*
X144173052Y-94028817D01*
X144188976Y-94025839D01*
X144202865Y-94023219D01*
X144214865Y-94020921D01*
X144225120Y-94018908D01*
X144233778Y-94017147D01*
X144240982Y-94015601D01*
X144246880Y-94014235D01*
X144251616Y-94013014D01*
X144255336Y-94011901D01*
X144258186Y-94010862D01*
X144260311Y-94009862D01*
X144261857Y-94008864D01*
X144262969Y-94007834D01*
X144263794Y-94006735D01*
X144264476Y-94005533D01*
X144265161Y-94004192D01*
X144265164Y-94004185D01*
X144265966Y-94002439D01*
X144267677Y-93998567D01*
X144270216Y-93992755D01*
X144273501Y-93985191D01*
X144277454Y-93976060D01*
X144281993Y-93965548D01*
X144287037Y-93953843D01*
X144292506Y-93941130D01*
X144298320Y-93927595D01*
X144304398Y-93913427D01*
X144305383Y-93911128D01*
X144312744Y-93893966D01*
X144319179Y-93878957D01*
X144324737Y-93865939D01*
X144329466Y-93854747D01*
X144333413Y-93845218D01*
X144336628Y-93837186D01*
X144339159Y-93830488D01*
X144341054Y-93824959D01*
X144342361Y-93820437D01*
X144343128Y-93816756D01*
X144343405Y-93813752D01*
X144343239Y-93811261D01*
X144342678Y-93809120D01*
X144341772Y-93807164D01*
X144340567Y-93805229D01*
X144339113Y-93803151D01*
X144337747Y-93801193D01*
X144336185Y-93798906D01*
X144333309Y-93794705D01*
X144329232Y-93788753D01*
X144324061Y-93781208D01*
X144317908Y-93772232D01*
X144310883Y-93761985D01*
X144303096Y-93750628D01*
X144294656Y-93738321D01*
X144285674Y-93725226D01*
X144276261Y-93711502D01*
X144266525Y-93697310D01*
X144265015Y-93695109D01*
X144255354Y-93681020D01*
X144246080Y-93667483D01*
X144237296Y-93654649D01*
X144229103Y-93642665D01*
X144221601Y-93631680D01*
X144214893Y-93621842D01*
X144209079Y-93613300D01*
X144204260Y-93606202D01*
X144200539Y-93600697D01*
X144198015Y-93596934D01*
X144196791Y-93595060D01*
X144196704Y-93594912D01*
X144195722Y-93591798D01*
X144195254Y-93587835D01*
X144195248Y-93587377D01*
X144195288Y-93586571D01*
X144195478Y-93585702D01*
X144195916Y-93584666D01*
X144196703Y-93583357D01*
X144197939Y-93581670D01*
X144199724Y-93579498D01*
X144202159Y-93576738D01*
X144205343Y-93573284D01*
X144209377Y-93569030D01*
X144214362Y-93563870D01*
X144220396Y-93557701D01*
X144227580Y-93550416D01*
X144236016Y-93541910D01*
X144245801Y-93532078D01*
X144257038Y-93520814D01*
X144269826Y-93508014D01*
X144284265Y-93493571D01*
X144381994Y-93395842D01*
X144387486Y-93395842D01*
X144388185Y-93395797D01*
X144388746Y-93395709D01*
X144389272Y-93395643D01*
X144389864Y-93395668D01*
X144390624Y-93395850D01*
X144391653Y-93396257D01*
X144393053Y-93396956D01*
X144394926Y-93398014D01*
X144397372Y-93399499D01*
X144400495Y-93401477D01*
X144404395Y-93404015D01*
X144409173Y-93407182D01*
X144414932Y-93411044D01*
X144421773Y-93415668D01*
X144429798Y-93421122D01*
X144439108Y-93427472D01*
X144449804Y-93434787D01*
X144461989Y-93443133D01*
X144475764Y-93452577D01*
X144491230Y-93463187D01*
X144508490Y-93475029D01*
X144527644Y-93488172D01*
X144544017Y-93499405D01*
X144557666Y-93508765D01*
X144569402Y-93516803D01*
X144579386Y-93523618D01*
X144587778Y-93529311D01*
X144594738Y-93533984D01*
X144600426Y-93537736D01*
X144605002Y-93540670D01*
X144608627Y-93542885D01*
X144611460Y-93544482D01*
X144613662Y-93545562D01*
X144615393Y-93546227D01*
X144616814Y-93546576D01*
X144618083Y-93546711D01*
X144619226Y-93546733D01*
X144620703Y-93546615D01*
X144622699Y-93546221D01*
X144625371Y-93545490D01*
X144628878Y-93544362D01*
X144633377Y-93542777D01*
X144639027Y-93540674D01*
X144645986Y-93537993D01*
X144654412Y-93534673D01*
X144664464Y-93530654D01*
X144676298Y-93525876D01*
X144690074Y-93520278D01*
X144705950Y-93513800D01*
X144713071Y-93510889D01*
X144727223Y-93505086D01*
X144740748Y-93499516D01*
X144753456Y-93494256D01*
X144765160Y-93489386D01*
X144775671Y-93484985D01*
X144784801Y-93481133D01*
X144792361Y-93477908D01*
X144798164Y-93475390D01*
X144802021Y-93473657D01*
X144803743Y-93472789D01*
X144803764Y-93472774D01*
X144804893Y-93471932D01*
X144805915Y-93471078D01*
X144806865Y-93470068D01*
X144807774Y-93468759D01*
X144808676Y-93467007D01*
X144809604Y-93464669D01*
X144810591Y-93461602D01*
X144811670Y-93457661D01*
X144812874Y-93452704D01*
X144814236Y-93446587D01*
X144815789Y-93439166D01*
X144817566Y-93430298D01*
X144819600Y-93419840D01*
X144821925Y-93407648D01*
X144824572Y-93393579D01*
X144827576Y-93377489D01*
X144830970Y-93359234D01*
X144834785Y-93338672D01*
X144835386Y-93335435D01*
X144838679Y-93317724D01*
X144841864Y-93300665D01*
X144844910Y-93284425D01*
X144847784Y-93269174D01*
X144850454Y-93255080D01*
X144852887Y-93242310D01*
X144855053Y-93231034D01*
X144856917Y-93221419D01*
X144858449Y-93213635D01*
X144859617Y-93207848D01*
X144860387Y-93204228D01*
X144860700Y-93202992D01*
X144862775Y-93199819D01*
X144865851Y-93197107D01*
X144865984Y-93197024D01*
X144866684Y-93196644D01*
X144867562Y-93196307D01*
X144868763Y-93196010D01*
X144870436Y-93195752D01*
X144872727Y-93195528D01*
X144875783Y-93195338D01*
X144879751Y-93195177D01*
X144884777Y-93195045D01*
X144891009Y-93194937D01*
X144898593Y-93194851D01*
X144907676Y-93194786D01*
X144918405Y-93194737D01*
X144930928Y-93194703D01*
X144945390Y-93194682D01*
X144961938Y-93194669D01*
X144980721Y-93194664D01*
X145000000Y-93194663D01*
X145020956Y-93194664D01*
D12*
X161190000Y-100200000D03*
X161190000Y-100600000D03*
X161190000Y-101000000D03*
X161190000Y-101400000D03*
X161190000Y-101800000D03*
X161190000Y-102200000D03*
X161190000Y-102600000D03*
X161190000Y-103000000D03*
X161190000Y-103400000D03*
X161190000Y-103800000D03*
X161190000Y-107800000D03*
X161190000Y-107400000D03*
X161190000Y-107000000D03*
X161190000Y-106600000D03*
X161190000Y-106200000D03*
X161190000Y-105800000D03*
X161190000Y-105400000D03*
X161190000Y-105000000D03*
X161190000Y-104600000D03*
X161190000Y-104200000D03*
X161190000Y-108200000D03*
X161190000Y-108600000D03*
X161190000Y-109000000D03*
X161190000Y-109400000D03*
X161190000Y-109800000D03*
X161190000Y-110200000D03*
X161190000Y-110600000D03*
X161190000Y-111000000D03*
X161190000Y-111400000D03*
X161190000Y-111800000D03*
X161190000Y-115800000D03*
X161190000Y-115400000D03*
X161190000Y-115000000D03*
X161190000Y-114600000D03*
X161190000Y-114200000D03*
X161190000Y-113800000D03*
X161190000Y-113400000D03*
X161190000Y-113000000D03*
X161190000Y-112600000D03*
X161190000Y-112200000D03*
X158110000Y-112200000D03*
X158110000Y-112600000D03*
X158110000Y-113000000D03*
X158110000Y-113400000D03*
X158110000Y-113800000D03*
X158110000Y-114200000D03*
X158110000Y-114600000D03*
X158110000Y-115000000D03*
X158110000Y-115400000D03*
X158110000Y-115800000D03*
X158110000Y-111800000D03*
X158110000Y-111400000D03*
X158110000Y-111000000D03*
X158110000Y-110600000D03*
X158110000Y-110200000D03*
X158110000Y-109800000D03*
X158110000Y-109400000D03*
X158110000Y-109000000D03*
X158110000Y-108600000D03*
X158110000Y-108200000D03*
X158110000Y-104200000D03*
X158110000Y-104600000D03*
X158110000Y-105000000D03*
X158110000Y-105400000D03*
X158110000Y-105800000D03*
X158110000Y-106200000D03*
X158110000Y-106600000D03*
X158110000Y-107000000D03*
X158110000Y-107400000D03*
X158110000Y-107800000D03*
X158110000Y-103800000D03*
X158110000Y-103400000D03*
X158110000Y-103000000D03*
X158110000Y-102600000D03*
X158110000Y-102200000D03*
X158110000Y-101800000D03*
X158110000Y-101400000D03*
X158110000Y-101000000D03*
X158110000Y-100600000D03*
X158110000Y-100200000D03*
D13*
X134425000Y-120850000D03*
X131475000Y-95375000D03*
D14*
X140540000Y-97740000D03*
X140540000Y-97240000D03*
X140540000Y-96740000D03*
X140540000Y-96240000D03*
X140540000Y-95740000D03*
X140540000Y-95240000D03*
D15*
X139840000Y-94540000D03*
X139340000Y-94540000D03*
X138840000Y-94540000D03*
X138340000Y-94540000D03*
X137840000Y-94540000D03*
X137340000Y-94540000D03*
D14*
X136640000Y-95240000D03*
X136640000Y-95740000D03*
X136640000Y-96240000D03*
X136640000Y-96740000D03*
X136640000Y-97240000D03*
X136640000Y-97740000D03*
D15*
X137340000Y-98440000D03*
X137840000Y-98440000D03*
X138340000Y-98440000D03*
X138840000Y-98440000D03*
X139340000Y-98440000D03*
X139840000Y-98440000D03*
D16*
X137940000Y-95840000D03*
X137940000Y-97140000D03*
X139240000Y-95840000D03*
X139240000Y-97140000D03*
D17*
X137600000Y-100170000D03*
X139500000Y-100170000D03*
D18*
X135110000Y-96420000D03*
X135110000Y-98320000D03*
X137300000Y-92880000D03*
X137300000Y-90980000D03*
D17*
X131320000Y-98370000D03*
X133220000Y-98370000D03*
X144930000Y-100150000D03*
X143030000Y-100150000D03*
X133910000Y-100020000D03*
X135810000Y-100020000D03*
D18*
X151270000Y-104360000D03*
X151270000Y-102460000D03*
X131330000Y-103570000D03*
X131330000Y-105470000D03*
X131750000Y-115450000D03*
X131750000Y-113550000D03*
D17*
X133140000Y-117750000D03*
X131240000Y-117750000D03*
D19*
X158610000Y-96580000D03*
X154610000Y-96580000D03*
D18*
X153620000Y-94440000D03*
X153620000Y-92540000D03*
X148650000Y-119750000D03*
X148650000Y-117850000D03*
D17*
X146880000Y-119480000D03*
X144980000Y-119480000D03*
X156800000Y-125000000D03*
X158700000Y-125000000D03*
D20*
X152000000Y-90750700D03*
X152000000Y-92249300D03*
X150000000Y-90750700D03*
X150000000Y-92249300D03*
X148000000Y-90750700D03*
X148000000Y-92249300D03*
D21*
X139000000Y-91450000D03*
X145600000Y-91450000D03*
D22*
X146700000Y-124900000D03*
D23*
X146700000Y-122360000D03*
X144160000Y-124900000D03*
X144160000Y-122360000D03*
X141620000Y-124900000D03*
X141620000Y-122360000D03*
X139080000Y-124900000D03*
X139080000Y-122360000D03*
D24*
X164400000Y-97700000D03*
D25*
X152000000Y-97600000D03*
X152000000Y-95400000D03*
X150000000Y-97600000D03*
X150000000Y-95400000D03*
X148000000Y-97600000D03*
X148000000Y-95400000D03*
D26*
X143430000Y-91390000D03*
X141230000Y-91390000D03*
D25*
X150700000Y-122650000D03*
X150700000Y-124850000D03*
D26*
X154850000Y-124990000D03*
X152650000Y-124990000D03*
D27*
X147500000Y-101940000D03*
X147000000Y-101940000D03*
X146500000Y-101940000D03*
X146000000Y-101940000D03*
X145500000Y-101940000D03*
X145000000Y-101940000D03*
X144500000Y-101940000D03*
X144000000Y-101940000D03*
X143500000Y-101940000D03*
X143000000Y-101940000D03*
X142500000Y-101940000D03*
X142000000Y-101940000D03*
X141500000Y-101940000D03*
X141000000Y-101940000D03*
X140500000Y-101940000D03*
X140000000Y-101940000D03*
X139500000Y-101940000D03*
X139000000Y-101940000D03*
X138500000Y-101940000D03*
X138000000Y-101940000D03*
X137500000Y-101940000D03*
X137000000Y-101940000D03*
X136500000Y-101940000D03*
X136000000Y-101940000D03*
X135500000Y-101940000D03*
D28*
X133600000Y-103840000D03*
X133600000Y-104340000D03*
X133600000Y-104840000D03*
X133600000Y-105340000D03*
X133600000Y-105840000D03*
X133600000Y-106340000D03*
X133600000Y-106840000D03*
X133600000Y-107340000D03*
X133600000Y-107840000D03*
X133600000Y-108340000D03*
X133600000Y-108840000D03*
X133600000Y-109340000D03*
X133600000Y-109840000D03*
X133600000Y-110340000D03*
X133600000Y-110840000D03*
X133600000Y-111340000D03*
X133600000Y-111840000D03*
X133600000Y-112340000D03*
X133600000Y-112840000D03*
X133600000Y-113340000D03*
X133600000Y-113840000D03*
X133600000Y-114340000D03*
X133600000Y-114840000D03*
X133600000Y-115340000D03*
X133600000Y-115840000D03*
D27*
X135500000Y-117740000D03*
X136000000Y-117740000D03*
X136500000Y-117740000D03*
X137000000Y-117740000D03*
X137500000Y-117740000D03*
X138000000Y-117740000D03*
X138500000Y-117740000D03*
X139000000Y-117740000D03*
X139500000Y-117740000D03*
X140000000Y-117740000D03*
X140500000Y-117740000D03*
X141000000Y-117740000D03*
X141500000Y-117740000D03*
X142000000Y-117740000D03*
X142500000Y-117740000D03*
X143000000Y-117740000D03*
X143500000Y-117740000D03*
X144000000Y-117740000D03*
X144500000Y-117740000D03*
X145000000Y-117740000D03*
X145500000Y-117740000D03*
X146000000Y-117740000D03*
X146500000Y-117740000D03*
X147000000Y-117740000D03*
X147500000Y-117740000D03*
D28*
X149400000Y-115840000D03*
X149400000Y-115340000D03*
X149400000Y-114840000D03*
X149400000Y-114340000D03*
X149400000Y-113840000D03*
X149400000Y-113340000D03*
X149400000Y-112840000D03*
X149400000Y-112340000D03*
X149400000Y-111840000D03*
X149400000Y-111340000D03*
X149400000Y-110840000D03*
X149400000Y-110340000D03*
X149400000Y-109840000D03*
X149400000Y-109340000D03*
X149400000Y-108840000D03*
X149400000Y-108340000D03*
X149400000Y-107840000D03*
X149400000Y-107340000D03*
X149400000Y-106840000D03*
X149400000Y-106340000D03*
X149400000Y-105840000D03*
X149400000Y-105340000D03*
X149400000Y-104840000D03*
X149400000Y-104340000D03*
X149400000Y-103840000D03*
D29*
X157930000Y-94460000D03*
X157930000Y-93510000D03*
X157930000Y-92560000D03*
X155730000Y-92560000D03*
X155730000Y-94460000D03*
D30*
X144390000Y-97700000D03*
X141990000Y-97700000D03*
X143190000Y-97700000D03*
D26*
X158375000Y-123175000D03*
X156175000Y-123175000D03*
D13*
X164375000Y-95475000D03*
D31*
X160175000Y-125250000D03*
X153250000Y-123875000D03*
X146730065Y-99479559D03*
X143445591Y-104114317D03*
X145595875Y-97404125D03*
X140700000Y-98600000D03*
X156200000Y-95600000D03*
X156900000Y-96000000D03*
X152820000Y-103420000D03*
X153147437Y-91451520D03*
X132140000Y-99700000D03*
X138370000Y-99360302D03*
X136400000Y-98650000D03*
X131250000Y-102250000D03*
X131750000Y-112250000D03*
X131250000Y-118750000D03*
X154590000Y-92540000D03*
X136130000Y-93780000D03*
X162740000Y-106530000D03*
X162160000Y-106990000D03*
X162770000Y-107390000D03*
X162150000Y-107780000D03*
X162700000Y-108190000D03*
X162130000Y-108590000D03*
X162690000Y-109000000D03*
X162100000Y-109400000D03*
X157070304Y-105230304D03*
X149760000Y-119972643D03*
X159675000Y-123025000D03*
X145654667Y-103232980D03*
X150220000Y-102410000D03*
X134020000Y-97020000D03*
X133910000Y-101430000D03*
X142207833Y-100349389D03*
X140760000Y-100370000D03*
X132250000Y-109250000D03*
X133250000Y-118750000D03*
X154600000Y-94830000D03*
X154620000Y-94110000D03*
X154600000Y-90880000D03*
X149730000Y-118220000D03*
D32*
X155759642Y-106155806D03*
D31*
X141000000Y-92910000D03*
X157840000Y-98160000D03*
X159380000Y-98150000D03*
X158600000Y-98140000D03*
X155050000Y-123950000D03*
X156845875Y-109385875D03*
X156180000Y-107410000D03*
X156850000Y-107770000D03*
X156220000Y-108180000D03*
X156840000Y-108580000D03*
X156230000Y-108980000D03*
X141580874Y-95509126D03*
X147031520Y-95375823D03*
X136122613Y-115978209D03*
X135431209Y-116452087D03*
X138861023Y-106953480D03*
D32*
X156749727Y-106418480D03*
D31*
X140938372Y-103368044D03*
X147175000Y-96475000D03*
D32*
X163197180Y-111170650D03*
D31*
X145600000Y-98500000D03*
X163700000Y-110500000D03*
X156115373Y-104127015D03*
X148070000Y-104350000D03*
X162486303Y-104269873D03*
D32*
X162070049Y-99079417D03*
D31*
X137800000Y-104070000D03*
D32*
X161999320Y-99914639D03*
D31*
X137384564Y-104798020D03*
D32*
X162797089Y-99657418D03*
D31*
X137964337Y-105473656D03*
D32*
X163050000Y-100510000D03*
D31*
X136534025Y-105601555D03*
X145598919Y-112490000D03*
D32*
X161045015Y-116945501D03*
D31*
X146368480Y-111870000D03*
D32*
X161688037Y-116372672D03*
D31*
X150615704Y-119419437D03*
X139548365Y-119850115D03*
X150604709Y-120257577D03*
X140830000Y-120318480D03*
X153236728Y-108325416D03*
D32*
X163326569Y-114121626D03*
D31*
X154910000Y-110750000D03*
D32*
X163275858Y-113284950D03*
D31*
X154121210Y-109915899D03*
D32*
X162930340Y-112521264D03*
D31*
X158000000Y-120400000D03*
X151170000Y-115540000D03*
D32*
X155644019Y-113619718D03*
D31*
X153500000Y-112650000D03*
D32*
X154850995Y-113891217D03*
D31*
X152540874Y-112720874D03*
D32*
X154897193Y-114728154D03*
D31*
X151167644Y-111601748D03*
X149521037Y-117389743D03*
X144491023Y-116501517D03*
X150578503Y-118270696D03*
X137761390Y-115799570D03*
X151640000Y-118280000D03*
X138540000Y-116110000D03*
D32*
X155068609Y-112748196D03*
D31*
X152390323Y-111896293D03*
D32*
X155842682Y-112426621D03*
D31*
X151620000Y-112760000D03*
X147511506Y-110574773D03*
X151170000Y-110271520D03*
X147263265Y-109774163D03*
X152190000Y-109911520D03*
X152342988Y-108021520D03*
X142763007Y-110711257D03*
X151505144Y-108046300D03*
X142170301Y-110118553D03*
X147107245Y-108021520D03*
X148080658Y-108702180D03*
X149294027Y-99894069D03*
X148699035Y-101951523D03*
X146700000Y-116460000D03*
X146280000Y-113340000D03*
D32*
X154145622Y-100800002D03*
D31*
X148914645Y-102820196D03*
X152841250Y-99908731D03*
X152638212Y-104248692D03*
X153750000Y-99670000D03*
X153448296Y-103974836D03*
X149675000Y-124875000D03*
X144833531Y-103401305D03*
X152020000Y-98850000D03*
X148326987Y-99207035D03*
X143926091Y-103257165D03*
X147492253Y-99130749D03*
X143088970Y-103214409D03*
X134922354Y-105331952D03*
X139600000Y-92650000D03*
X135768844Y-104491957D03*
X138340000Y-92630000D03*
X132838480Y-96990000D03*
X132200000Y-111350000D03*
X135054631Y-104051379D03*
X139330000Y-99299698D03*
X140831276Y-99513227D03*
X138496807Y-103368480D03*
X142243747Y-106274608D03*
D32*
X162395452Y-103126851D03*
D31*
X141493628Y-106648669D03*
D32*
X163160000Y-103660000D03*
D31*
X155050388Y-123111789D03*
X137825000Y-107175000D03*
X145144222Y-115973998D03*
X144455900Y-109825000D03*
X141605900Y-103875000D03*
X142300000Y-92925000D03*
X145982422Y-115973998D03*
X145294100Y-109825000D03*
X142444100Y-103875000D03*
D33*
X158700000Y-125000000D02*
X159925000Y-125000000D01*
X159925000Y-125000000D02*
X160175000Y-125250000D01*
X141490000Y-99020000D02*
X141120000Y-99020000D01*
X141120000Y-99020000D02*
X140700000Y-98600000D01*
X144930000Y-100150000D02*
X144930000Y-99622600D01*
X144930000Y-99622600D02*
X145000000Y-99552600D01*
X145000000Y-99552600D02*
X145000000Y-97281399D01*
X146059624Y-100150000D02*
X146387166Y-99822458D01*
X144930000Y-100150000D02*
X146059624Y-100150000D01*
X146387166Y-99822458D02*
X146730065Y-99479559D01*
X145000000Y-97293183D02*
X145110942Y-97404125D01*
X145110942Y-97404125D02*
X145595875Y-97404125D01*
X145000000Y-97281399D02*
X145000000Y-97293183D01*
X140540000Y-98440000D02*
X140700000Y-98600000D01*
X140540000Y-97740000D02*
X140540000Y-98440000D01*
X143000000Y-101438518D02*
X143000000Y-101000000D01*
X143000000Y-101000000D02*
X143100000Y-100900000D01*
X143100000Y-100900000D02*
X143955000Y-100900000D01*
X143955000Y-100900000D02*
X144705000Y-100150000D01*
X144705000Y-100150000D02*
X144930000Y-100150000D01*
X145000000Y-97281399D02*
X145000000Y-96440000D01*
X145000000Y-96440000D02*
X144730000Y-96170000D01*
X144730000Y-96170000D02*
X143440000Y-96170000D01*
X143440000Y-96170000D02*
X143190000Y-96420000D01*
D34*
X156200000Y-96244000D02*
X155864000Y-96580000D01*
X156820000Y-95624000D02*
X156200000Y-96244000D01*
D33*
X156200000Y-96244000D02*
X156200000Y-95600000D01*
X156820000Y-95624000D02*
X156820000Y-95920000D01*
X156820000Y-95920000D02*
X156900000Y-96000000D01*
X149400000Y-104340000D02*
X151250000Y-104340000D01*
X151250000Y-104340000D02*
X151270000Y-104360000D01*
X151270000Y-104360000D02*
X151270000Y-104135000D01*
X151270000Y-104135000D02*
X151985000Y-103420000D01*
X151985000Y-103420000D02*
X152820000Y-103420000D01*
X153283920Y-91451520D02*
X153147437Y-91451520D01*
X153620000Y-92540000D02*
X153620000Y-91787600D01*
X153620000Y-91787600D02*
X153283920Y-91451520D01*
X133910000Y-100020000D02*
X132460000Y-100020000D01*
X132460000Y-100020000D02*
X132140000Y-99700000D01*
X131320000Y-98370000D02*
X131320000Y-98897400D01*
X131320000Y-98897400D02*
X132122600Y-99700000D01*
X132122600Y-99700000D02*
X132140000Y-99700000D01*
X137600000Y-100170000D02*
X137600000Y-100130302D01*
X137600000Y-100130302D02*
X138370000Y-99360302D01*
X135110000Y-98320000D02*
X136070000Y-98320000D01*
X136070000Y-98320000D02*
X136400000Y-98650000D01*
X138000000Y-101940000D02*
X138000000Y-100570000D01*
X138000000Y-100570000D02*
X137600000Y-100170000D01*
X131330000Y-103570000D02*
X131330000Y-102330000D01*
X131330000Y-102330000D02*
X131250000Y-102250000D01*
X131330000Y-103570000D02*
X131857400Y-103570000D01*
X131857400Y-103570000D02*
X132627400Y-104340000D01*
X132627400Y-104340000D02*
X132697600Y-104340000D01*
X132697600Y-104340000D02*
X133600000Y-104340000D01*
X131750000Y-113550000D02*
X131750000Y-112250000D01*
X131240000Y-117750000D02*
X131240000Y-118740000D01*
X131240000Y-118740000D02*
X131250000Y-118750000D01*
X153620000Y-92540000D02*
X154590000Y-92540000D01*
X137657400Y-93780000D02*
X136130000Y-93780000D01*
X137840000Y-94540000D02*
X137840000Y-93962600D01*
X137840000Y-93962600D02*
X137657400Y-93780000D01*
D34*
X156820000Y-93836000D02*
X156820000Y-95624000D01*
X155864000Y-96580000D02*
X154610000Y-96580000D01*
X157930000Y-93510000D02*
X157146000Y-93510000D01*
X157146000Y-93510000D02*
X156820000Y-93836000D01*
D33*
X162740000Y-106530000D02*
X161260000Y-106530000D01*
X161260000Y-106530000D02*
X161190000Y-106600000D01*
X161190000Y-107000000D02*
X162150000Y-107000000D01*
X162150000Y-107000000D02*
X162160000Y-106990000D01*
X162770000Y-107390000D02*
X161200000Y-107390000D01*
X161200000Y-107390000D02*
X161190000Y-107400000D01*
X161190000Y-107800000D02*
X162130000Y-107800000D01*
X162130000Y-107800000D02*
X162150000Y-107780000D01*
X162700000Y-108190000D02*
X161200000Y-108190000D01*
X161200000Y-108190000D02*
X161190000Y-108200000D01*
X161190000Y-108600000D02*
X162120000Y-108600000D01*
X162120000Y-108600000D02*
X162130000Y-108590000D01*
X162690000Y-109000000D02*
X161190000Y-109000000D01*
X161190000Y-109400000D02*
X162100000Y-109400000D01*
X158110000Y-105400000D02*
X157240000Y-105400000D01*
X157240000Y-105400000D02*
X157070304Y-105230304D01*
X158110000Y-105000000D02*
X157300608Y-105000000D01*
X157300608Y-105000000D02*
X157070304Y-105230304D01*
X149537357Y-119750000D02*
X149760000Y-119972643D01*
X148650000Y-119750000D02*
X149537357Y-119750000D01*
X148650000Y-119750000D02*
X147150000Y-119750000D01*
X147150000Y-119750000D02*
X146880000Y-119480000D01*
X146880000Y-119480000D02*
X146880000Y-117860000D01*
X146880000Y-117860000D02*
X147000000Y-117740000D01*
X136640000Y-97740000D02*
X135690000Y-97740000D01*
X135690000Y-97740000D02*
X135110000Y-98320000D01*
X143190000Y-96420000D02*
X142870000Y-96100000D01*
X142870000Y-96100000D02*
X141770000Y-96100000D01*
X141770000Y-96100000D02*
X141490000Y-96380000D01*
X141490000Y-96380000D02*
X141490000Y-99020000D01*
X139000000Y-91450000D02*
X137770000Y-91450000D01*
X137770000Y-91450000D02*
X137300000Y-90980000D01*
X143190000Y-96420000D02*
X143190000Y-97700000D01*
X144485000Y-100300000D02*
X144710000Y-100300000D01*
X143190000Y-98030000D02*
X143190000Y-97180000D01*
X143190000Y-97180000D02*
X143180000Y-97170000D01*
X138340000Y-94540000D02*
X138340000Y-93920000D01*
X138340000Y-93920000D02*
X137300000Y-92880000D01*
X157125000Y-122300000D02*
X151652400Y-122300000D01*
X151652400Y-122300000D02*
X151302400Y-122650000D01*
X151302400Y-122650000D02*
X150700000Y-122650000D01*
X157350000Y-122525000D02*
X157125000Y-122300000D01*
X157350000Y-122902400D02*
X157350000Y-122525000D01*
X158375000Y-123175000D02*
X157622600Y-123175000D01*
X157622600Y-123175000D02*
X157350000Y-122902400D01*
X159675000Y-123025000D02*
X158525000Y-123025000D01*
X158525000Y-123025000D02*
X158375000Y-123175000D01*
X145567506Y-103232980D02*
X145654667Y-103232980D01*
X145000000Y-101940000D02*
X145000000Y-102665474D01*
X145000000Y-102665474D02*
X145567506Y-103232980D01*
X142500000Y-101940000D02*
X142500000Y-100680000D01*
X142500000Y-100680000D02*
X143030000Y-100150000D01*
X149400000Y-103840000D02*
X150300000Y-103840000D01*
X150300000Y-103840000D02*
X150742600Y-103397400D01*
X150742600Y-103397400D02*
X150742600Y-102460000D01*
X150742600Y-102460000D02*
X151270000Y-102460000D01*
X151270000Y-102460000D02*
X150270000Y-102460000D01*
X150270000Y-102460000D02*
X150220000Y-102410000D01*
X150000000Y-90750700D02*
X148000000Y-90750700D01*
X152000000Y-90750700D02*
X150000000Y-90750700D01*
X154600000Y-90880000D02*
X152129300Y-90880000D01*
X152129300Y-90880000D02*
X152000000Y-90750700D01*
X135110000Y-96420000D02*
X134620000Y-96420000D01*
X134620000Y-96420000D02*
X134020000Y-97020000D01*
X134175000Y-101430000D02*
X133910000Y-101430000D01*
X135585000Y-100020000D02*
X134175000Y-101430000D01*
X135810000Y-100020000D02*
X135585000Y-100020000D01*
X142277600Y-100150000D02*
X142207833Y-100219767D01*
X142207833Y-100219767D02*
X142207833Y-100349389D01*
X143030000Y-100150000D02*
X142277600Y-100150000D01*
X139500000Y-100170000D02*
X140560000Y-100170000D01*
X140560000Y-100170000D02*
X140760000Y-100370000D01*
X137500000Y-101940000D02*
X137500000Y-101040000D01*
X137500000Y-101040000D02*
X137320000Y-100860000D01*
X137320000Y-100860000D02*
X136830000Y-100860000D01*
X136830000Y-100860000D02*
X136830000Y-100867600D01*
X136830000Y-100867600D02*
X136727600Y-100867600D01*
X136727600Y-100867600D02*
X135880000Y-100020000D01*
X135880000Y-100020000D02*
X135810000Y-100020000D01*
X137000000Y-101940000D02*
X137000000Y-101037600D01*
X137000000Y-101037600D02*
X136830000Y-100867600D01*
X139500000Y-100170000D02*
X139275000Y-100170000D01*
X139275000Y-100170000D02*
X138500000Y-100945000D01*
X138500000Y-100945000D02*
X138500000Y-101037600D01*
X138500000Y-101037600D02*
X138500000Y-101940000D01*
X131907101Y-108907101D02*
X132250000Y-109250000D01*
X131330000Y-105470000D02*
X131330000Y-108330000D01*
X131330000Y-108330000D02*
X131907101Y-108907101D01*
X131330000Y-105470000D02*
X131857400Y-105470000D01*
X131857400Y-105470000D02*
X132487400Y-104840000D01*
X132487400Y-104840000D02*
X132697600Y-104840000D01*
X132697600Y-104840000D02*
X133600000Y-104840000D01*
X133140000Y-117750000D02*
X133140000Y-118640000D01*
X133140000Y-118640000D02*
X133250000Y-118750000D01*
X133140000Y-117750000D02*
X133140000Y-117222600D01*
X133140000Y-117222600D02*
X133600000Y-116762600D01*
X133600000Y-116762600D02*
X133600000Y-115840000D01*
X154600000Y-94830000D02*
X154010000Y-94830000D01*
X154010000Y-94830000D02*
X153620000Y-94440000D01*
X154620000Y-94110000D02*
X153950000Y-94110000D01*
X153950000Y-94110000D02*
X153620000Y-94440000D01*
X154970000Y-94460000D02*
X154600000Y-94830000D01*
X155730000Y-94460000D02*
X154970000Y-94460000D01*
X154970000Y-94460000D02*
X154620000Y-94110000D01*
X158110316Y-106224000D02*
X157554000Y-106224000D01*
X157554000Y-106224000D02*
X157460000Y-106130000D01*
X157460000Y-106130000D02*
X157460000Y-105846978D01*
X157460000Y-105846978D02*
X156068470Y-105846978D01*
X158110000Y-105800000D02*
X157607600Y-105800000D01*
X157607600Y-105800000D02*
X157560622Y-105846978D01*
X157560622Y-105846978D02*
X157460000Y-105846978D01*
X156068470Y-105846978D02*
X155759642Y-106155806D01*
X149020000Y-118220000D02*
X149730000Y-118220000D01*
X148650000Y-117850000D02*
X149020000Y-118220000D01*
X148650000Y-117850000D02*
X147610000Y-117850000D01*
X147610000Y-117850000D02*
X147500000Y-117740000D01*
X135110000Y-96420000D02*
X135110000Y-96192600D01*
X135110000Y-96192600D02*
X136062600Y-95240000D01*
X136062600Y-95240000D02*
X136640000Y-95240000D01*
X141230000Y-91390000D02*
X141230000Y-92680000D01*
X141230000Y-92680000D02*
X141000000Y-92910000D01*
X133572600Y-99250000D02*
X137607400Y-99250000D01*
X137607400Y-99250000D02*
X137840000Y-99017400D01*
X137840000Y-99017400D02*
X137840000Y-98440000D01*
X133220000Y-98370000D02*
X133220000Y-98897400D01*
X133220000Y-98897400D02*
X133572600Y-99250000D01*
X133600000Y-115340000D02*
X131860000Y-115340000D01*
X131860000Y-115340000D02*
X131750000Y-115450000D01*
X158610000Y-96580000D02*
X163280000Y-96580000D01*
X163280000Y-96580000D02*
X164400000Y-97700000D01*
X159106000Y-94852000D02*
X159106000Y-93053600D01*
X159106000Y-93053600D02*
X158612400Y-92560000D01*
X158612400Y-92560000D02*
X157930000Y-92560000D01*
D34*
X159106000Y-95030000D02*
X159106000Y-94852000D01*
X159106000Y-94852000D02*
X158714000Y-94460000D01*
X158714000Y-94460000D02*
X157930000Y-94460000D01*
X158610000Y-96580000D02*
X158610000Y-95526000D01*
X158610000Y-95526000D02*
X159106000Y-95030000D01*
X157840000Y-98160000D02*
X157840000Y-97350000D01*
X157840000Y-97350000D02*
X158610000Y-96580000D01*
X159380000Y-98150000D02*
X159380000Y-97350000D01*
X159380000Y-97350000D02*
X158610000Y-96580000D01*
X158600000Y-98140000D02*
X158600000Y-96590000D01*
X158600000Y-96590000D02*
X158610000Y-96580000D01*
D33*
X144980000Y-119480000D02*
X145205000Y-119480000D01*
X145205000Y-119480000D02*
X145732400Y-118952600D01*
X145732400Y-118952600D02*
X145897400Y-118952600D01*
X145897400Y-118952600D02*
X146050000Y-118800000D01*
X146050000Y-118800000D02*
X146390000Y-118800000D01*
X146390000Y-118800000D02*
X146500000Y-118690000D01*
X146500000Y-118690000D02*
X146500000Y-118350000D01*
X146500000Y-118350000D02*
X146500000Y-117740000D01*
X154850000Y-124990000D02*
X154850000Y-124150000D01*
X154850000Y-124150000D02*
X155050000Y-123950000D01*
X156800000Y-125000000D02*
X157025000Y-125000000D01*
X156800000Y-125000000D02*
X154860000Y-125000000D01*
X154860000Y-125000000D02*
X154850000Y-124990000D01*
X148000000Y-95400000D02*
X148000000Y-94647600D01*
X148000000Y-94647600D02*
X148000000Y-92249300D01*
X150000000Y-95400000D02*
X150000000Y-92249300D01*
X152000000Y-92249300D02*
X152000000Y-95400000D01*
X156860000Y-109400000D02*
X156845875Y-109385875D01*
X158110000Y-109400000D02*
X156860000Y-109400000D01*
X158110000Y-107400000D02*
X156190000Y-107400000D01*
X156190000Y-107400000D02*
X156180000Y-107410000D01*
X156850000Y-107770000D02*
X158080000Y-107770000D01*
X158080000Y-107770000D02*
X158110000Y-107800000D01*
X158110000Y-108200000D02*
X156240000Y-108200000D01*
X156240000Y-108200000D02*
X156220000Y-108180000D01*
X156840000Y-108580000D02*
X158090000Y-108580000D01*
X158090000Y-108580000D02*
X158110000Y-108600000D01*
X158110000Y-109000000D02*
X156250000Y-109000000D01*
X156250000Y-109000000D02*
X156230000Y-108980000D01*
X158110316Y-107824000D02*
X158046368Y-107760052D01*
D34*
X141580874Y-95509126D02*
X142065807Y-95509126D01*
X142065807Y-95509126D02*
X142280101Y-95723420D01*
X146683923Y-95723420D02*
X146688621Y-95718722D01*
X146688621Y-95718722D02*
X147031520Y-95375823D01*
X142280101Y-95723420D02*
X146683923Y-95723420D01*
D33*
X136120000Y-115975596D02*
X136122613Y-115978209D01*
X134502400Y-110840000D02*
X136120000Y-112457600D01*
X133600000Y-110840000D02*
X134502400Y-110840000D01*
X136120000Y-112457600D02*
X136120000Y-115975596D01*
X135548498Y-116334798D02*
X135431209Y-116452087D01*
X134502400Y-111840000D02*
X135560000Y-112897600D01*
X133600000Y-111840000D02*
X134502400Y-111840000D01*
X135560000Y-115694176D02*
X135548498Y-115705678D01*
X135548498Y-115705678D02*
X135548498Y-116334798D01*
X135560000Y-112897600D02*
X135560000Y-115694176D01*
X137247799Y-121237799D02*
X140497799Y-121237799D01*
X140497799Y-121237799D02*
X141620000Y-122360000D01*
X134854899Y-116317650D02*
X134854899Y-118844899D01*
X134854899Y-118844899D02*
X137247799Y-121237799D01*
X134502400Y-112840000D02*
X135180000Y-113517600D01*
X135180000Y-113517600D02*
X135180000Y-115851235D01*
X135180000Y-115851235D02*
X134883412Y-116147823D01*
X133600000Y-112840000D02*
X134502400Y-112840000D01*
X134883412Y-116289137D02*
X134854899Y-116317650D01*
X134883412Y-116147823D02*
X134883412Y-116289137D01*
X133600000Y-113340000D02*
X134502400Y-113340000D01*
X134830000Y-113667600D02*
X134830000Y-115770169D01*
X134502400Y-113340000D02*
X134830000Y-113667600D01*
X134830000Y-115770169D02*
X134578601Y-116021567D01*
X134578601Y-116021567D02*
X134578601Y-116162881D01*
X134578601Y-116162881D02*
X134550088Y-116191394D01*
X134550088Y-116191394D02*
X134550088Y-119150088D01*
X134550088Y-119150088D02*
X137760000Y-122360000D01*
X137760000Y-122360000D02*
X139080000Y-122360000D01*
X137974503Y-107840000D02*
X138518124Y-107296379D01*
X138518124Y-107296379D02*
X138861023Y-106953480D01*
X133600000Y-107840000D02*
X137974503Y-107840000D01*
X158110316Y-107024000D02*
X157355247Y-107024000D01*
X157092626Y-106761379D02*
X156749727Y-106418480D01*
X157355247Y-107024000D02*
X157092626Y-106761379D01*
X141000000Y-101940000D02*
X141000000Y-103306416D01*
X141000000Y-103306416D02*
X140938372Y-103368044D01*
X147175000Y-96925000D02*
X147175000Y-96475000D01*
X145600000Y-98500000D02*
X147175000Y-96925000D01*
X161190316Y-110176401D02*
X161540316Y-110176401D01*
X161540316Y-110176401D02*
X162534565Y-111170650D01*
X162534565Y-111170650D02*
X162712247Y-111170650D01*
X162712247Y-111170650D02*
X163197180Y-111170650D01*
X163156768Y-110500000D02*
X163215067Y-110500000D01*
X163215067Y-110500000D02*
X163700000Y-110500000D01*
X163108384Y-110451616D02*
X163156768Y-110500000D01*
X163930000Y-105713570D02*
X162829202Y-104612772D01*
X163108384Y-110451616D02*
X163930000Y-109630000D01*
X162698505Y-110451616D02*
X163108384Y-110451616D01*
X163930000Y-109630000D02*
X163930000Y-105713570D01*
X155630440Y-104127015D02*
X156115373Y-104127015D01*
X152144431Y-106275569D02*
X154292985Y-104127015D01*
X154292985Y-104127015D02*
X155630440Y-104127015D01*
X149400000Y-106840000D02*
X151056799Y-106840000D01*
X151621230Y-106275569D02*
X152144431Y-106275569D01*
X151056799Y-106840000D02*
X151621230Y-106275569D01*
X148030325Y-104625262D02*
X148030325Y-104389675D01*
X148030325Y-104389675D02*
X148070000Y-104350000D01*
X162355606Y-110108717D02*
X162698505Y-110451616D01*
X162829202Y-104612772D02*
X162486303Y-104269873D01*
X161918363Y-110108717D02*
X162355606Y-110108717D01*
X161586047Y-109776401D02*
X161918363Y-110108717D01*
X161190316Y-109776401D02*
X161586047Y-109776401D01*
X148030325Y-104625262D02*
X148037943Y-104617644D01*
X148497600Y-106840000D02*
X148030325Y-106372725D01*
X148030325Y-106372725D02*
X148030325Y-104625262D01*
X149400000Y-106840000D02*
X148497600Y-106840000D01*
X161585116Y-99079417D02*
X162070049Y-99079417D01*
X161045015Y-99619518D02*
X161585116Y-99079417D01*
X161045015Y-100200200D02*
X161045015Y-99619518D01*
X137727600Y-104070000D02*
X137800000Y-104070000D01*
X136500000Y-101940000D02*
X136500000Y-102842400D01*
X136500000Y-102842400D02*
X137727600Y-104070000D01*
X161664323Y-100624000D02*
X161999320Y-100289003D01*
X161190316Y-100624000D02*
X161664323Y-100624000D01*
X161999320Y-100289003D02*
X161999320Y-99914639D01*
X137228498Y-104641954D02*
X137384564Y-104798020D01*
X136000000Y-103002247D02*
X137228498Y-104230745D01*
X137228498Y-104230745D02*
X137228498Y-104641954D01*
X136000000Y-101940000D02*
X136000000Y-103002247D01*
X162797089Y-99947844D02*
X162797089Y-99657418D01*
X161720933Y-101024000D02*
X162797089Y-99947844D01*
X161190316Y-101024000D02*
X161720933Y-101024000D01*
X137479404Y-105473656D02*
X137964337Y-105473656D01*
X136813062Y-105060473D02*
X137226245Y-105473656D01*
X135500000Y-101940000D02*
X135500000Y-102933313D01*
X136813062Y-104246375D02*
X136813062Y-105060473D01*
X137226245Y-105473656D02*
X137479404Y-105473656D01*
X135500000Y-102933313D02*
X136813062Y-104246375D01*
X162223894Y-101336106D02*
X162707101Y-100852899D01*
X161278210Y-101336106D02*
X162223894Y-101336106D01*
X162707101Y-100852899D02*
X163050000Y-100510000D01*
X161190316Y-101424000D02*
X161278210Y-101336106D01*
X134575189Y-103474811D02*
X135610430Y-103474811D01*
X134210000Y-103840000D02*
X134575189Y-103474811D01*
X136348091Y-105415621D02*
X136534025Y-105601555D01*
X136348091Y-104212472D02*
X136348091Y-105415621D01*
X135610430Y-103474811D02*
X136348091Y-104212472D01*
X133600000Y-103840000D02*
X134210000Y-103840000D01*
X165429242Y-109890219D02*
X165239244Y-109700221D01*
X147250321Y-121140003D02*
X147913816Y-121803498D01*
X142467347Y-121140003D02*
X147250321Y-121140003D01*
X161742363Y-101640917D02*
X161559280Y-101824000D01*
X149049322Y-121803498D02*
X149067223Y-121821399D01*
X141074322Y-119746978D02*
X142467347Y-121140003D01*
X160228333Y-121885934D02*
X165429242Y-116685025D01*
X140604578Y-119746978D02*
X141074322Y-119746978D01*
X149067223Y-121821399D02*
X157282376Y-121821399D01*
X139500000Y-117740000D02*
X139500000Y-118642400D01*
X139500000Y-118642400D02*
X140604578Y-119746978D01*
X157282376Y-121821399D02*
X157346911Y-121885934D01*
X165429242Y-116685025D02*
X165429242Y-109890219D01*
X165239244Y-109700221D02*
X165239244Y-101749244D01*
X165239244Y-101749244D02*
X165130917Y-101640917D01*
X161559280Y-101824000D02*
X161190316Y-101824000D01*
X147913816Y-121803498D02*
X149049322Y-121803498D01*
X165130917Y-101640917D02*
X161742363Y-101640917D01*
X157346911Y-121885934D02*
X160228333Y-121885934D01*
X161590347Y-102224000D02*
X161190316Y-102224000D01*
X165124431Y-110016475D02*
X164844433Y-109736477D01*
X157473167Y-121581123D02*
X160102077Y-121581123D01*
X157408632Y-121516588D02*
X157473167Y-121581123D01*
X161868619Y-101945728D02*
X161590347Y-102224000D01*
X165124431Y-116558769D02*
X165124431Y-110016475D01*
X140799767Y-119442167D02*
X141230578Y-119442167D01*
X147376577Y-120835192D02*
X148040072Y-121498687D01*
X149193479Y-121516588D02*
X157408632Y-121516588D01*
X140000000Y-117740000D02*
X140000000Y-118642400D01*
X140000000Y-118642400D02*
X140799767Y-119442167D01*
X141230578Y-119442167D02*
X142623603Y-120835192D01*
X148040072Y-121498687D02*
X149175578Y-121498687D01*
X160102077Y-121581123D02*
X165124431Y-116558769D01*
X164844433Y-109736477D02*
X164844433Y-102461745D01*
X142623603Y-120835192D02*
X147376577Y-120835192D01*
X164844433Y-102461745D02*
X164328416Y-101945728D01*
X164328416Y-101945728D02*
X161868619Y-101945728D01*
X149175578Y-121498687D02*
X149193479Y-121516588D01*
X159975821Y-121276312D02*
X164819620Y-116432513D01*
X140994956Y-119137356D02*
X141356834Y-119137356D01*
X164819620Y-110142731D02*
X164539622Y-109862733D01*
X147502833Y-120530381D02*
X148166328Y-121193876D01*
X161994875Y-102250539D02*
X161621414Y-102624000D01*
X148166328Y-121193876D02*
X149301834Y-121193876D01*
X149301834Y-121193876D02*
X149319735Y-121211777D01*
X161621414Y-102624000D02*
X161190316Y-102624000D01*
X157599423Y-121276312D02*
X159975821Y-121276312D01*
X164819620Y-116432513D02*
X164819620Y-110142731D01*
X140500000Y-118642400D02*
X140994956Y-119137356D01*
X163300539Y-102250539D02*
X161994875Y-102250539D01*
X164539622Y-109862733D02*
X164539622Y-103489622D01*
X141356834Y-119137356D02*
X142749859Y-120530381D01*
X149319735Y-121211777D02*
X157534888Y-121211777D01*
X140500000Y-117740000D02*
X140500000Y-118642400D01*
X142749859Y-120530381D02*
X147502833Y-120530381D01*
X164539622Y-103489622D02*
X163300539Y-102250539D01*
X157534888Y-121211777D02*
X157599423Y-121276312D01*
X141000000Y-117740000D02*
X141000000Y-118642400D01*
X157661144Y-120906966D02*
X157725679Y-120971501D01*
X147629089Y-120225570D02*
X148292584Y-120889065D01*
X157725679Y-120971501D02*
X159849565Y-120971501D01*
X141483090Y-118832545D02*
X142876115Y-120225570D01*
X148292584Y-120889065D02*
X149428090Y-120889065D01*
X164514809Y-116306257D02*
X164514809Y-110268987D01*
X141000000Y-118642400D02*
X141190145Y-118832545D01*
X149428090Y-120889065D02*
X149445991Y-120906966D01*
X141190145Y-118832545D02*
X141483090Y-118832545D01*
X149445991Y-120906966D02*
X157661144Y-120906966D01*
X164514809Y-110268987D02*
X164234811Y-109988989D01*
X164234811Y-109988989D02*
X164234811Y-103615878D01*
X142876115Y-120225570D02*
X147629089Y-120225570D01*
X164234811Y-103615878D02*
X163174283Y-102555350D01*
X159849565Y-120971501D02*
X164514809Y-116306257D01*
X161652481Y-103024000D02*
X161190316Y-103024000D01*
X162121131Y-102555350D02*
X161652481Y-103024000D01*
X163174283Y-102555350D02*
X162121131Y-102555350D01*
X139068308Y-105959389D02*
X145256020Y-112147101D01*
X139068308Y-102910708D02*
X139068308Y-105959389D01*
X139000000Y-102842400D02*
X139068308Y-102910708D01*
X145256020Y-112147101D02*
X145598919Y-112490000D01*
X139000000Y-101940000D02*
X139000000Y-102842400D01*
X161045015Y-115800200D02*
X161045015Y-116945501D01*
X145883547Y-111870000D02*
X146368480Y-111870000D01*
X139500000Y-101940000D02*
X139500000Y-105714924D01*
X139500000Y-105714924D02*
X145655076Y-111870000D01*
X145655076Y-111870000D02*
X145883547Y-111870000D01*
X161768601Y-116292108D02*
X161688037Y-116372672D01*
X161768601Y-115517119D02*
X161768601Y-116292108D01*
X161190316Y-115376401D02*
X161627883Y-115376401D01*
X161627883Y-115376401D02*
X161768601Y-115517119D01*
X161190316Y-114976401D02*
X161952207Y-114976401D01*
X162441052Y-115465246D02*
X162441052Y-116427882D01*
X150958603Y-119076538D02*
X150615704Y-119419437D01*
X151170316Y-118864825D02*
X150958603Y-119076538D01*
X161952207Y-114976401D02*
X162441052Y-115465246D01*
X162441052Y-116427882D02*
X160888552Y-117980380D01*
X160888552Y-117980380D02*
X158337094Y-117980380D01*
X158337094Y-117980380D02*
X157452649Y-118864825D01*
X157452649Y-118864825D02*
X151170316Y-118864825D01*
X139063432Y-119850115D02*
X139548365Y-119850115D01*
X136000000Y-118642400D02*
X137207715Y-119850115D01*
X137207715Y-119850115D02*
X139063432Y-119850115D01*
X136000000Y-117740000D02*
X136000000Y-118642400D01*
X161190316Y-114576401D02*
X162281468Y-114576401D01*
X162575067Y-114870000D02*
X163060000Y-114870000D01*
X163060000Y-116240000D02*
X161014809Y-118285191D01*
X162281468Y-114576401D02*
X162575067Y-114870000D01*
X161014809Y-118285191D02*
X158463350Y-118285191D01*
X151547097Y-119315189D02*
X150604709Y-120257577D01*
X157433352Y-119315189D02*
X151547097Y-119315189D01*
X163060000Y-114870000D02*
X163060000Y-116240000D01*
X158463350Y-118285191D02*
X157433352Y-119315189D01*
X135500000Y-118642400D02*
X137728979Y-120871379D01*
X135500000Y-117740000D02*
X135500000Y-118642400D01*
X140487101Y-120661379D02*
X140830000Y-120318480D01*
X137728979Y-120871379D02*
X140277101Y-120871379D01*
X140277101Y-120871379D02*
X140487101Y-120661379D01*
X152930643Y-108631501D02*
X153236728Y-108325416D01*
X151247413Y-108631501D02*
X152930643Y-108631501D01*
X149400000Y-108340000D02*
X150955912Y-108340000D01*
X150955912Y-108340000D02*
X151247413Y-108631501D01*
X162841636Y-114121626D02*
X163326569Y-114121626D01*
X161190316Y-114176401D02*
X162786861Y-114176401D01*
X162786861Y-114176401D02*
X162841636Y-114121626D01*
X154910000Y-110265067D02*
X154910000Y-110750000D01*
X154750378Y-110105445D02*
X154910000Y-110265067D01*
X154750378Y-109692512D02*
X154750378Y-110105445D01*
X150398712Y-108936312D02*
X153994178Y-108936312D01*
X150302400Y-108840000D02*
X150398712Y-108936312D01*
X149400000Y-108840000D02*
X150302400Y-108840000D01*
X153994178Y-108936312D02*
X154750378Y-109692512D01*
X162784407Y-113776401D02*
X162932959Y-113627849D01*
X161190316Y-113776401D02*
X162784407Y-113776401D01*
X162932959Y-113627849D02*
X163275858Y-113284950D01*
X149400000Y-109340000D02*
X153545311Y-109340000D01*
X153545311Y-109340000D02*
X153778311Y-109573000D01*
X153778311Y-109573000D02*
X154121210Y-109915899D01*
X162075203Y-113376401D02*
X162587441Y-112864163D01*
X162587441Y-112864163D02*
X162930340Y-112521264D01*
X161190316Y-113376401D02*
X162075203Y-113376401D01*
X158484933Y-120400000D02*
X158000000Y-120400000D01*
X159990000Y-120400000D02*
X158484933Y-120400000D01*
X164170000Y-112030000D02*
X164170000Y-116220000D01*
X161642425Y-112976401D02*
X162669082Y-111949744D01*
X162669082Y-111949744D02*
X164089744Y-111949744D01*
X164170000Y-116220000D02*
X159990000Y-120400000D01*
X164089744Y-111949744D02*
X164170000Y-112030000D01*
X161190316Y-112976401D02*
X161642425Y-112976401D01*
X149400000Y-115340000D02*
X150970000Y-115340000D01*
X150970000Y-115340000D02*
X151170000Y-115540000D01*
X156567071Y-113032911D02*
X155980264Y-113619718D01*
X158024342Y-112262375D02*
X157425807Y-112262375D01*
X157425807Y-112262375D02*
X156655271Y-113032911D01*
X155980264Y-113619718D02*
X155644019Y-113619718D01*
X158110316Y-112176401D02*
X158024342Y-112262375D01*
X156655271Y-113032911D02*
X156567071Y-113032911D01*
X150952400Y-114190000D02*
X151960000Y-114190000D01*
X151960000Y-114190000D02*
X153500000Y-112650000D01*
X149400000Y-114840000D02*
X150302400Y-114840000D01*
X150302400Y-114840000D02*
X150952400Y-114190000D01*
X155869871Y-114234116D02*
X155193894Y-114234116D01*
X158110316Y-112576401D02*
X157542848Y-112576401D01*
X156781527Y-113337722D02*
X156766265Y-113337722D01*
X155193894Y-114234116D02*
X154850995Y-113891217D01*
X156766265Y-113337722D02*
X155869871Y-114234116D01*
X157542848Y-112576401D02*
X156781527Y-113337722D01*
X152197975Y-113063773D02*
X152540874Y-112720874D01*
X150371333Y-114340000D02*
X150826144Y-113885189D01*
X149400000Y-114340000D02*
X150371333Y-114340000D01*
X150826144Y-113885189D02*
X151376559Y-113885189D01*
X151376559Y-113885189D02*
X152197975Y-113063773D01*
X158110316Y-112976401D02*
X157573915Y-112976401D01*
X156907783Y-113642533D02*
X156892521Y-113642533D01*
X157573915Y-112976401D02*
X156907783Y-113642533D01*
X155806900Y-114728154D02*
X155382126Y-114728154D01*
X155382126Y-114728154D02*
X154897193Y-114728154D01*
X156892521Y-113642533D02*
X155806900Y-114728154D01*
X150405896Y-110840000D02*
X150824745Y-111258849D01*
X150824745Y-111258849D02*
X151167644Y-111601748D01*
X149400000Y-110840000D02*
X150405896Y-110840000D01*
X150895678Y-110843022D02*
X152618846Y-110843022D01*
X157018777Y-113947344D02*
X157034039Y-113947344D01*
X152618846Y-110843022D02*
X154242312Y-112466488D01*
X157604982Y-113376401D02*
X158110316Y-113376401D01*
X155316963Y-115116635D02*
X155849486Y-115116635D01*
X154986122Y-115447477D02*
X155316963Y-115116635D01*
X154242312Y-115061381D02*
X154628408Y-115447477D01*
X154242312Y-112466488D02*
X154242312Y-115061381D01*
X150392656Y-110340000D02*
X150895678Y-110843022D01*
X149400000Y-110340000D02*
X150392656Y-110340000D01*
X154628408Y-115447477D02*
X154986122Y-115447477D01*
X155849486Y-115116635D02*
X157018777Y-113947344D01*
X157034039Y-113947344D02*
X157604982Y-113376401D01*
X144581149Y-114745226D02*
X144107498Y-115218877D01*
X157124698Y-114272489D02*
X155188586Y-116208601D01*
X141500000Y-116837600D02*
X141500000Y-117740000D01*
X148310735Y-116208601D02*
X146847360Y-114745226D01*
X143470915Y-115770378D02*
X142567222Y-115770378D01*
X158110316Y-113776401D02*
X157636049Y-113776401D01*
X157636049Y-113776401D02*
X157139961Y-114272489D01*
X155188586Y-116208601D02*
X148310735Y-116208601D01*
X146847360Y-114745226D02*
X144581149Y-114745226D01*
X144022416Y-115218877D02*
X143470915Y-115770378D01*
X157139961Y-114272489D02*
X157124698Y-114272489D01*
X142567222Y-115770378D02*
X141500000Y-116837600D01*
X144107498Y-115218877D02*
X144022416Y-115218877D01*
X144148461Y-115523899D02*
X143597171Y-116075189D01*
X142000000Y-116837600D02*
X142000000Y-117740000D01*
X157250954Y-114577300D02*
X155314842Y-116513412D01*
X142762411Y-116075189D02*
X142000000Y-116837600D01*
X157266217Y-114577300D02*
X157250954Y-114577300D01*
X158110316Y-114176401D02*
X157667116Y-114176401D01*
X157667116Y-114176401D02*
X157266217Y-114577300D01*
X155314842Y-116513412D02*
X148184479Y-116513412D01*
X148184479Y-116513412D02*
X146721104Y-115050037D01*
X144707406Y-115050037D02*
X144233543Y-115523899D01*
X146721104Y-115050037D02*
X144707406Y-115050037D01*
X143597171Y-116075189D02*
X142762411Y-116075189D01*
X144233543Y-115523899D02*
X144148461Y-115523899D01*
X155441098Y-116818223D02*
X148058223Y-116818223D01*
X144216701Y-115930015D02*
X143919521Y-116227195D01*
X146594848Y-115354848D02*
X144859328Y-115354848D01*
X143919521Y-116227195D02*
X143919521Y-116757121D01*
X148058223Y-116818223D02*
X146594848Y-115354848D01*
X158110316Y-114576401D02*
X157698183Y-114576401D01*
X157698183Y-114576401D02*
X157392473Y-114882111D01*
X144000000Y-116837600D02*
X144000000Y-117740000D01*
X157392473Y-114882111D02*
X157377210Y-114882111D01*
X157377210Y-114882111D02*
X155441098Y-116818223D01*
X144859328Y-115354848D02*
X144284161Y-115930015D01*
X143919521Y-116757121D02*
X144000000Y-116837600D01*
X144284161Y-115930015D02*
X144216701Y-115930015D01*
X158110316Y-114976401D02*
X157729250Y-114976401D01*
X155300646Y-117389743D02*
X150005970Y-117389743D01*
X157729250Y-114976401D02*
X157518729Y-115186922D01*
X150005970Y-117389743D02*
X149521037Y-117389743D01*
X157503467Y-115186922D02*
X155300646Y-117389743D01*
X157518729Y-115186922D02*
X157503467Y-115186922D01*
X144582540Y-116410000D02*
X144491023Y-116501517D01*
X144630000Y-116410000D02*
X144582540Y-116410000D01*
X144500000Y-116510494D02*
X144491023Y-116501517D01*
X144500000Y-117740000D02*
X144500000Y-116510494D01*
X158110316Y-115376401D02*
X158015318Y-115471399D01*
X155412957Y-117708498D02*
X151140701Y-117708498D01*
X157650056Y-115471399D02*
X155412957Y-117708498D01*
X150921402Y-117927797D02*
X150578503Y-118270696D01*
X158015318Y-115471399D02*
X157650056Y-115471399D01*
X151140701Y-117708498D02*
X150921402Y-117927797D01*
X137500000Y-116060960D02*
X137761390Y-115799570D01*
X137500000Y-117740000D02*
X137500000Y-116060960D01*
X152124933Y-118280000D02*
X151640000Y-118280000D01*
X155775817Y-118280000D02*
X152124933Y-118280000D01*
X158255617Y-115800200D02*
X155775817Y-118280000D01*
X138540000Y-116110000D02*
X138000000Y-116650000D01*
X138000000Y-116650000D02*
X138000000Y-117740000D01*
X156130870Y-113038045D02*
X155358458Y-113038045D01*
X157729249Y-111776401D02*
X157548087Y-111957564D01*
X158110316Y-111776401D02*
X157729249Y-111776401D01*
X156529015Y-112728100D02*
X156440815Y-112728100D01*
X157548087Y-111957564D02*
X157299551Y-111957564D01*
X157299551Y-111957564D02*
X156529015Y-112728100D01*
X155358458Y-113038045D02*
X155068609Y-112748196D01*
X156440815Y-112728100D02*
X156130870Y-113038045D01*
X151204176Y-112340000D02*
X151419236Y-112124940D01*
X151419236Y-112124940D02*
X151676743Y-112124940D01*
X151905390Y-111896293D02*
X152390323Y-111896293D01*
X149400000Y-112340000D02*
X151204176Y-112340000D01*
X151676743Y-112124940D02*
X151905390Y-111896293D01*
X156330947Y-112423289D02*
X156327615Y-112426621D01*
X157173295Y-111652753D02*
X156402759Y-112423289D01*
X156327615Y-112426621D02*
X155842682Y-112426621D01*
X157421831Y-111652753D02*
X157173295Y-111652753D01*
X158110316Y-111376401D02*
X157698183Y-111376401D01*
X157698183Y-111376401D02*
X157421831Y-111652753D01*
X156402759Y-112423289D02*
X156330947Y-112423289D01*
X149400000Y-113840000D02*
X150440266Y-113840000D01*
X151177367Y-113102899D02*
X151277101Y-113102899D01*
X151277101Y-113102899D02*
X151620000Y-112760000D01*
X150440266Y-113840000D02*
X151177367Y-113102899D01*
X136500000Y-117740000D02*
X136500000Y-116446646D01*
X136694115Y-116252531D02*
X136694115Y-115589956D01*
X147511506Y-111059706D02*
X147511506Y-110574773D01*
X136500000Y-116446646D02*
X136694115Y-116252531D01*
X145894176Y-113800000D02*
X146005678Y-113911502D01*
X138484071Y-113800000D02*
X145894176Y-113800000D01*
X146554322Y-113911502D02*
X147511506Y-112954318D01*
X147511506Y-112954318D02*
X147511506Y-111059706D01*
X136694115Y-115589956D02*
X138484071Y-113800000D01*
X146005678Y-113911502D02*
X146554322Y-113911502D01*
X153366131Y-110483022D02*
X154738228Y-111855119D01*
X157047039Y-111347942D02*
X157295574Y-111347942D01*
X154738228Y-111855119D02*
X156539862Y-111855119D01*
X157295574Y-111347942D02*
X157667115Y-110976401D01*
X151866435Y-110483022D02*
X153366131Y-110483022D01*
X157667115Y-110976401D02*
X158110316Y-110976401D01*
X156539862Y-111855119D02*
X157047039Y-111347942D01*
X151654933Y-110271520D02*
X151866435Y-110483022D01*
X151170000Y-110271520D02*
X151654933Y-110271520D01*
X143981242Y-114914066D02*
X144454893Y-114440415D01*
X138035711Y-115228069D02*
X138267642Y-115460000D01*
X147748198Y-109774163D02*
X147263265Y-109774163D01*
X138267642Y-115460000D02*
X143350227Y-115460000D01*
X137000000Y-115715138D02*
X137487069Y-115228069D01*
X148083022Y-110108987D02*
X147748198Y-109774163D01*
X137000000Y-117740000D02*
X137000000Y-115715138D01*
X146456476Y-114440415D02*
X148083022Y-112813869D01*
X143350227Y-115460000D02*
X143896160Y-114914066D01*
X143896160Y-114914066D02*
X143981242Y-114914066D01*
X137487069Y-115228069D02*
X138035711Y-115228069D01*
X144454893Y-114440415D02*
X146456476Y-114440415D01*
X148083022Y-112813869D02*
X148083022Y-110108987D01*
X155184322Y-111321502D02*
X154635678Y-111321502D01*
X157169318Y-111043131D02*
X155462693Y-111043131D01*
X152674933Y-109911520D02*
X152190000Y-109911520D01*
X154635678Y-111321502D02*
X153225696Y-109911520D01*
X157636048Y-110576401D02*
X157169318Y-111043131D01*
X158110316Y-110576401D02*
X157636048Y-110576401D01*
X153225696Y-109911520D02*
X152674933Y-109911520D01*
X155462693Y-111043131D02*
X155184322Y-111321502D01*
X155055189Y-109786256D02*
X155055189Y-109316256D01*
X155861034Y-110592101D02*
X155055189Y-109786256D01*
X157189281Y-110592101D02*
X155861034Y-110592101D01*
X153417554Y-107678621D02*
X152685887Y-107678621D01*
X157604981Y-110176401D02*
X157189281Y-110592101D01*
X155055189Y-109316256D02*
X153417554Y-107678621D01*
X158110316Y-110176401D02*
X157604981Y-110176401D01*
X152685887Y-107678621D02*
X152342988Y-108021520D01*
X140045924Y-108840000D02*
X141917181Y-110711257D01*
X133600000Y-108840000D02*
X140045924Y-108840000D01*
X141917181Y-110711257D02*
X142278074Y-110711257D01*
X142278074Y-110711257D02*
X142763007Y-110711257D01*
X158110000Y-101400000D02*
X158612400Y-101400000D01*
X158612400Y-101400000D02*
X159350000Y-102137600D01*
X159350000Y-102137600D02*
X159350000Y-109920000D01*
X159350000Y-109920000D02*
X159070000Y-110200000D01*
X159070000Y-110200000D02*
X158110000Y-110200000D01*
X157134321Y-109971501D02*
X156171501Y-109971501D01*
X158110316Y-109776401D02*
X157329421Y-109776401D01*
X152311444Y-107240000D02*
X151848043Y-107703401D01*
X153440000Y-107240000D02*
X152311444Y-107240000D01*
X157329421Y-109776401D02*
X157134321Y-109971501D01*
X151848043Y-107703401D02*
X151505144Y-108046300D01*
X156171501Y-109971501D02*
X153440000Y-107240000D01*
X140252044Y-108340000D02*
X141687698Y-109775654D01*
X141687698Y-109775654D02*
X141827402Y-109775654D01*
X141827402Y-109775654D02*
X142170301Y-110118553D01*
X133600000Y-108340000D02*
X140252044Y-108340000D01*
X151111369Y-107165894D02*
X151161973Y-107165894D01*
X149400000Y-107340000D02*
X150937263Y-107340000D01*
X147450144Y-107678621D02*
X147107245Y-108021520D01*
X147788765Y-107340000D02*
X147450144Y-107678621D01*
X156833980Y-104224000D02*
X158110316Y-104224000D01*
X150937263Y-107340000D02*
X151111369Y-107165894D01*
X154269432Y-104723679D02*
X156334301Y-104723679D01*
X152412731Y-106580380D02*
X154269432Y-104723679D01*
X156334301Y-104723679D02*
X156833980Y-104224000D01*
X151747487Y-106580380D02*
X152412731Y-106580380D01*
X151161973Y-107165894D02*
X151747487Y-106580380D01*
X149400000Y-107340000D02*
X147788765Y-107340000D01*
X154382752Y-105041426D02*
X156450931Y-105041426D01*
X150868330Y-107840000D02*
X151237625Y-107470705D01*
X152538987Y-106885191D02*
X154382752Y-105041426D01*
X151237625Y-107470705D02*
X151338229Y-107470705D01*
X149400000Y-107840000D02*
X148497600Y-107840000D01*
X151923743Y-106885191D02*
X152538987Y-106885191D01*
X156450931Y-105041426D02*
X156868357Y-104624000D01*
X149400000Y-107840000D02*
X150868330Y-107840000D01*
X151338229Y-107470705D02*
X151923743Y-106885191D01*
X156868357Y-104624000D02*
X158110316Y-104624000D01*
X148497600Y-107840000D02*
X148080658Y-108256942D01*
X148080658Y-108256942D02*
X148080658Y-108702180D01*
X149947116Y-101380003D02*
X149989990Y-101337129D01*
X156983345Y-103824000D02*
X158110316Y-103824000D01*
X149989990Y-101337129D02*
X151737128Y-101337129D01*
X148352397Y-101380003D02*
X149947116Y-101380003D01*
X147500000Y-101940000D02*
X147792400Y-101940000D01*
X147792400Y-101940000D02*
X148352397Y-101380003D01*
X152685936Y-102285937D02*
X155445282Y-102285937D01*
X151737128Y-101337129D02*
X152685936Y-102285937D01*
X155445282Y-102285937D02*
X156983345Y-103824000D01*
X158110316Y-103424000D02*
X157436017Y-103424000D01*
X155993143Y-101981126D02*
X152812192Y-101981126D01*
X148651923Y-100961399D02*
X147262809Y-100961399D01*
X149820860Y-101075192D02*
X148765716Y-101075192D01*
X151863384Y-101032318D02*
X149863734Y-101032318D01*
X157436017Y-103424000D02*
X155993143Y-101981126D01*
X152812192Y-101981126D02*
X151863384Y-101032318D01*
X147262809Y-100961399D02*
X147000000Y-101224208D01*
X149863734Y-101032318D02*
X149820860Y-101075192D01*
X147000000Y-101224208D02*
X147000000Y-101940000D01*
X148765716Y-101075192D02*
X148651923Y-100961399D01*
X147050864Y-100656588D02*
X148779657Y-100656588D01*
X148893450Y-100770381D02*
X149694604Y-100770381D01*
X149737478Y-100727507D02*
X151989640Y-100727507D01*
X149694604Y-100770381D02*
X149737478Y-100727507D01*
X157651911Y-103024000D02*
X158110316Y-103024000D01*
X146500000Y-101940000D02*
X146500000Y-101207451D01*
X148779657Y-100656588D02*
X148893450Y-100770381D01*
X156304226Y-101676315D02*
X157651911Y-103024000D01*
X152938448Y-101676315D02*
X156304226Y-101676315D01*
X146500000Y-101207451D02*
X147050864Y-100656588D01*
X151989640Y-100727507D02*
X152938448Y-101676315D01*
X157682977Y-102624000D02*
X158110316Y-102624000D01*
X152115896Y-100422696D02*
X153064704Y-101371504D01*
X153064704Y-101371504D02*
X156430482Y-101371504D01*
X146619797Y-100656588D02*
X146924607Y-100351777D01*
X146924607Y-100351777D02*
X148905913Y-100351777D01*
X148905913Y-100351777D02*
X149019706Y-100465570D01*
X149568348Y-100465570D02*
X149611222Y-100422696D01*
X146000000Y-101940000D02*
X146000000Y-101207451D01*
X149611222Y-100422696D02*
X152115896Y-100422696D01*
X146550863Y-100656588D02*
X146619797Y-100656588D01*
X146000000Y-101207451D02*
X146550863Y-100656588D01*
X156430482Y-101371504D02*
X157682977Y-102624000D01*
X149019706Y-100465570D02*
X149568348Y-100465570D01*
X146280000Y-113340000D02*
X146940000Y-112680000D01*
X146940000Y-110296722D02*
X146230932Y-109587654D01*
X148347101Y-102303457D02*
X148356136Y-102294422D01*
X148347101Y-102582899D02*
X148347101Y-102303457D01*
X148356136Y-102294422D02*
X148699035Y-101951523D01*
X146940000Y-112680000D02*
X146940000Y-110296722D01*
X146230932Y-109587654D02*
X146230932Y-104699068D01*
X146230932Y-104699068D02*
X148347101Y-102582899D01*
X153114321Y-100481501D02*
X152605768Y-100481501D01*
X149778960Y-99894069D02*
X149294027Y-99894069D01*
X152018336Y-99894069D02*
X149778960Y-99894069D01*
X152605768Y-100481501D02*
X152018336Y-99894069D01*
X157745111Y-101824000D02*
X155865433Y-99944322D01*
X154024322Y-100241502D02*
X153354320Y-100241502D01*
X158110316Y-101824000D02*
X157745111Y-101824000D01*
X155865433Y-99944322D02*
X154321502Y-99944322D01*
X154321502Y-99944322D02*
X154024322Y-100241502D01*
X153354320Y-100241502D02*
X153114321Y-100481501D01*
X146700000Y-116460000D02*
X146478518Y-116460000D01*
X146478518Y-116460000D02*
X146000000Y-116938518D01*
X146000000Y-116938518D02*
X146000000Y-117740000D01*
X148497600Y-115840000D02*
X148387833Y-115730233D01*
X146832923Y-108593022D02*
X146535743Y-108295842D01*
X146535743Y-104825323D02*
X148197971Y-103163095D01*
X148197971Y-103163095D02*
X148571746Y-103163095D01*
X148387833Y-109841908D02*
X147138947Y-108593022D01*
X146535743Y-108295842D02*
X146535743Y-104825323D01*
X149400000Y-115840000D02*
X148497600Y-115840000D01*
X148571746Y-103163095D02*
X148914645Y-102820196D01*
X147138947Y-108593022D02*
X146832923Y-108593022D01*
X148387833Y-115730233D02*
X148387833Y-109841908D01*
X158110316Y-102224000D02*
X157714044Y-102224000D01*
X155947147Y-100457103D02*
X154488521Y-100457103D01*
X157714044Y-102224000D02*
X155947147Y-100457103D01*
X154488521Y-100457103D02*
X154145622Y-100800002D01*
X153433057Y-99004811D02*
X153184149Y-99253719D01*
X156012411Y-99004811D02*
X153433057Y-99004811D01*
X153184149Y-99565832D02*
X152841250Y-99908731D01*
X153184149Y-99253719D02*
X153184149Y-99565832D01*
X158110000Y-100600000D02*
X157607600Y-100600000D01*
X157607600Y-100600000D02*
X156012411Y-99004811D01*
X151182895Y-105840000D02*
X152295313Y-104727582D01*
X152295313Y-104591591D02*
X152638212Y-104248692D01*
X152295313Y-104727582D02*
X152295313Y-104591591D01*
X149400000Y-105840000D02*
X151182895Y-105840000D01*
X155895643Y-99327101D02*
X154092899Y-99327101D01*
X154092899Y-99327101D02*
X153750000Y-99670000D01*
X157568542Y-101000000D02*
X155895643Y-99327101D01*
X158110000Y-101000000D02*
X157568542Y-101000000D01*
X151937307Y-105970758D02*
X153448296Y-104459769D01*
X151125732Y-106340000D02*
X151494974Y-105970758D01*
X151494974Y-105970758D02*
X151937307Y-105970758D01*
X153448296Y-104459769D02*
X153448296Y-103974836D01*
X149400000Y-106340000D02*
X151125732Y-106340000D01*
X149675000Y-124875000D02*
X150675000Y-124875000D01*
X150675000Y-124875000D02*
X150700000Y-124850000D01*
X152650000Y-124990000D02*
X150840000Y-124990000D01*
X150840000Y-124990000D02*
X150700000Y-124850000D01*
X150550000Y-125000000D02*
X150700000Y-124850000D01*
X144500000Y-103067774D02*
X144833531Y-103401305D01*
X144500000Y-101940000D02*
X144500000Y-103067774D01*
X152020000Y-98850000D02*
X152020000Y-97620000D01*
X152020000Y-97620000D02*
X152000000Y-97600000D01*
X150000000Y-97600000D02*
X150000000Y-97750000D01*
X148542965Y-99207035D02*
X148326987Y-99207035D01*
X150000000Y-97750000D02*
X148542965Y-99207035D01*
X144000000Y-103183256D02*
X143926091Y-103257165D01*
X144000000Y-101940000D02*
X144000000Y-103183256D01*
X147835152Y-98787850D02*
X147492253Y-99130749D01*
X148000000Y-97600000D02*
X148000000Y-98623002D01*
X148000000Y-98623002D02*
X147835152Y-98787850D01*
X143127991Y-103214409D02*
X143088970Y-103214409D01*
X143500000Y-101940000D02*
X143500000Y-102842400D01*
X143500000Y-102842400D02*
X143127991Y-103214409D01*
X133600000Y-105340000D02*
X134914306Y-105340000D01*
X134914306Y-105340000D02*
X134922354Y-105331952D01*
X139600000Y-92650000D02*
X139257101Y-92992899D01*
X139257101Y-92992899D02*
X139257101Y-94457101D01*
X139257101Y-94457101D02*
X139340000Y-94540000D01*
X135798685Y-104521798D02*
X135768844Y-104491957D01*
X135798685Y-106081315D02*
X135798685Y-104521798D01*
X133600000Y-106340000D02*
X135540000Y-106340000D01*
X135540000Y-106340000D02*
X135798685Y-106081315D01*
X138340000Y-92630000D02*
X138340000Y-93114933D01*
X138340000Y-93114933D02*
X138840000Y-93614933D01*
X138840000Y-93614933D02*
X138840000Y-93962600D01*
X138840000Y-93962600D02*
X138840000Y-94540000D01*
X132200000Y-110075000D02*
X132435000Y-109840000D01*
X132435000Y-109840000D02*
X133600000Y-109840000D01*
X133181379Y-96647101D02*
X132838480Y-96990000D01*
X135288480Y-94540000D02*
X133181379Y-96647101D01*
X137340000Y-94540000D02*
X135288480Y-94540000D01*
X132200000Y-111350000D02*
X132200000Y-110075000D01*
X135493874Y-105030436D02*
X135054631Y-104591193D01*
X133600000Y-105840000D02*
X134502400Y-105840000D01*
X135493874Y-105620708D02*
X135493874Y-105030436D01*
X135211110Y-105903472D02*
X135493874Y-105620708D01*
X134565872Y-105903472D02*
X135211110Y-105903472D01*
X135054631Y-104536312D02*
X135054631Y-104051379D01*
X135054631Y-104591193D02*
X135054631Y-104536312D01*
X134502400Y-105840000D02*
X134565872Y-105903472D01*
X139330000Y-99299698D02*
X139330000Y-98450000D01*
X139330000Y-98450000D02*
X139340000Y-98440000D01*
X138496807Y-103853413D02*
X138496807Y-103368480D01*
X138570817Y-103927423D02*
X138496807Y-103853413D01*
X137646712Y-106603499D02*
X138570817Y-105679394D01*
X138570817Y-105679394D02*
X138570817Y-103927423D01*
X137550679Y-106603499D02*
X137646712Y-106603499D01*
X137314178Y-106840000D02*
X137550679Y-106603499D01*
X133600000Y-106840000D02*
X137314178Y-106840000D01*
X139840000Y-98440000D02*
X139840000Y-98715000D01*
X139840000Y-98715000D02*
X140638227Y-99513227D01*
X140638227Y-99513227D02*
X140831276Y-99513227D01*
X144390000Y-98980000D02*
X144390000Y-98030000D01*
X144080000Y-99290000D02*
X144390000Y-98980000D01*
X142276889Y-99290000D02*
X144080000Y-99290000D01*
X142000000Y-101134265D02*
X141636313Y-100770578D01*
X141636313Y-100770578D02*
X141636313Y-99930576D01*
X141636313Y-99930576D02*
X142276889Y-99290000D01*
X142000000Y-101485824D02*
X142000000Y-101134265D01*
X141990000Y-99145822D02*
X141990000Y-98030000D01*
X141331502Y-99804320D02*
X141990000Y-99145822D01*
X141331502Y-100970020D02*
X141331502Y-99804320D01*
X141500000Y-101138518D02*
X141331502Y-100970020D01*
X141500000Y-101416891D02*
X141500000Y-101138518D01*
X141900848Y-105931709D02*
X142243747Y-106274608D01*
X140366870Y-103093722D02*
X140366870Y-104397731D01*
X140500000Y-102960592D02*
X140366870Y-103093722D01*
X140500000Y-101940000D02*
X140500000Y-102960592D01*
X140366870Y-104397731D02*
X141900848Y-105931709D01*
X161685789Y-103424000D02*
X161982938Y-103126851D01*
X161190316Y-103424000D02*
X161685789Y-103424000D01*
X161982938Y-103126851D02*
X162395452Y-103126851D01*
X140000000Y-101940000D02*
X140000000Y-105155041D01*
X141150729Y-106305770D02*
X141493628Y-106648669D01*
X140000000Y-105155041D02*
X141150729Y-106305770D01*
X161190316Y-103824000D02*
X162086352Y-103824000D01*
X162211981Y-103698371D02*
X162636696Y-103698371D01*
X162636696Y-103698371D02*
X162675067Y-103660000D01*
X162675067Y-103660000D02*
X163160000Y-103660000D01*
X162086352Y-103824000D02*
X162211981Y-103698371D01*
X151574178Y-99250000D02*
X151745679Y-99421501D01*
X146798351Y-100046966D02*
X148332878Y-100046966D01*
X155770000Y-98110000D02*
X157860000Y-100200000D01*
X145500000Y-101940000D02*
X145500000Y-101037600D01*
X153605822Y-98110000D02*
X155770000Y-98110000D01*
X149129844Y-99250000D02*
X151574178Y-99250000D01*
X152294321Y-99421501D02*
X153605822Y-98110000D01*
X151745679Y-99421501D02*
X152294321Y-99421501D01*
X146424607Y-100351777D02*
X146493540Y-100351777D01*
X145500000Y-101037600D02*
X146018262Y-100519338D01*
X146257046Y-100519338D02*
X146424607Y-100351777D01*
X157860000Y-100200000D02*
X158110000Y-100200000D01*
X146018262Y-100519338D02*
X146257046Y-100519338D01*
X148332878Y-100046966D02*
X149129844Y-99250000D01*
X146493540Y-100351777D02*
X146798351Y-100046966D01*
X155113599Y-123175000D02*
X155050388Y-123111789D01*
X156175000Y-123175000D02*
X155113599Y-123175000D01*
X137825000Y-107175000D02*
X137340067Y-107175000D01*
X137340067Y-107175000D02*
X137175067Y-107340000D01*
X137175067Y-107340000D02*
X134502400Y-107340000D01*
X134502400Y-107340000D02*
X133600000Y-107340000D01*
X145410923Y-116240699D02*
X145410923Y-116596556D01*
X145131399Y-117608601D02*
X145000000Y-117740000D01*
X145144222Y-115973998D02*
X145410923Y-116240699D01*
X145410923Y-116596556D02*
X145131399Y-116876080D01*
X145131399Y-116876080D02*
X145131399Y-117608601D01*
X141605900Y-103875000D02*
X144722601Y-106991701D01*
X144722601Y-109558299D02*
X144455900Y-109825000D01*
X144722601Y-106991701D02*
X144722601Y-109558299D01*
X143430000Y-91390000D02*
X143430000Y-91992400D01*
X143430000Y-91992400D02*
X142497400Y-92925000D01*
X142497400Y-92925000D02*
X142300000Y-92925000D01*
X145982422Y-115973998D02*
X145715721Y-116240699D01*
X145715721Y-116240699D02*
X145715721Y-116722797D01*
X145715721Y-116722797D02*
X145631399Y-116807119D01*
X145631399Y-116807119D02*
X145631399Y-117539653D01*
X145631399Y-117539653D02*
X145500000Y-117671052D01*
X145500000Y-117671052D02*
X145500000Y-117740000D01*
X142444100Y-104282148D02*
X145027399Y-106865447D01*
X145027399Y-109558299D02*
X145294100Y-109825000D01*
X142444100Y-103875000D02*
X142444100Y-104282148D01*
X145027399Y-106865447D02*
X145027399Y-109558299D01*
M02*
