G04 #@! TF.FileFunction,Copper,L4,Bot,Signal*
%FSLAX46Y46*%
G04 Gerber Fmt 4.6, Leading zero omitted, Abs format (unit mm)*
G04 Created by KiCad (PCBNEW 4.0.1-stable) date Sunday, January 31, 2016 'PMt' 10:46:38 PM*
%MOMM*%
G01*
G04 APERTURE LIST*
%ADD10C,0.100000*%
%ADD11C,0.010000*%
%ADD12R,1.800860X0.800100*%
%ADD13R,0.797560X0.797560*%
%ADD14C,1.524000*%
%ADD15R,1.600000X1.400000*%
%ADD16R,0.400000X1.350000*%
%ADD17R,1.900000X1.900000*%
%ADD18C,1.600000*%
%ADD19R,1.727200X1.727200*%
%ADD20O,1.727200X1.727200*%
%ADD21R,0.660000X0.230000*%
%ADD22R,0.660000X0.350000*%
%ADD23R,0.800100X1.800860*%
%ADD24R,1.200000X0.900000*%
%ADD25R,1.400000X1.050000*%
%ADD26C,0.685800*%
%ADD27C,0.685801*%
%ADD28C,0.152400*%
%ADD29C,0.254000*%
G04 APERTURE END LIST*
D10*
D11*
G36*
X132256524Y-117102110D02*
X132256179Y-117080393D01*
X132255460Y-117061445D01*
X132254281Y-117044235D01*
X132252559Y-117027730D01*
X132250210Y-117010899D01*
X132247150Y-116992708D01*
X132244355Y-116977648D01*
X132235604Y-116937289D01*
X132224586Y-116895394D01*
X132211875Y-116853941D01*
X132198043Y-116814907D01*
X132195010Y-116807105D01*
X132183220Y-116777497D01*
X132171469Y-116748440D01*
X132159632Y-116719668D01*
X132147586Y-116690917D01*
X132135207Y-116661919D01*
X132122372Y-116632409D01*
X132108957Y-116602121D01*
X132094838Y-116570790D01*
X132079891Y-116538149D01*
X132063992Y-116503933D01*
X132047019Y-116467876D01*
X132028847Y-116429712D01*
X132009352Y-116389176D01*
X131988411Y-116346001D01*
X131965900Y-116299922D01*
X131941695Y-116250673D01*
X131915673Y-116197987D01*
X131887710Y-116141601D01*
X131857682Y-116081246D01*
X131849917Y-116065667D01*
X131824037Y-116013659D01*
X131800226Y-115965600D01*
X131778325Y-115921145D01*
X131758175Y-115879950D01*
X131739617Y-115841669D01*
X131722491Y-115805957D01*
X131706639Y-115772469D01*
X131691901Y-115740860D01*
X131678118Y-115710786D01*
X131665131Y-115681901D01*
X131652779Y-115653860D01*
X131640905Y-115626318D01*
X131629349Y-115598931D01*
X131617952Y-115571352D01*
X131606554Y-115543239D01*
X131594996Y-115514244D01*
X131592614Y-115508216D01*
X131585659Y-115490759D01*
X131579167Y-115474798D01*
X131573373Y-115460879D01*
X131568508Y-115449550D01*
X131564805Y-115441355D01*
X131562497Y-115436842D01*
X131561925Y-115436131D01*
X131559168Y-115437437D01*
X131553749Y-115441820D01*
X131546205Y-115448730D01*
X131537076Y-115457615D01*
X131526901Y-115467925D01*
X131516218Y-115479110D01*
X131505567Y-115490620D01*
X131495485Y-115501904D01*
X131486513Y-115512412D01*
X131482938Y-115516796D01*
X131444812Y-115567789D01*
X131408621Y-115623145D01*
X131374402Y-115682775D01*
X131342190Y-115746594D01*
X131312022Y-115814513D01*
X131283934Y-115886445D01*
X131257960Y-115962304D01*
X131234138Y-116042002D01*
X131212504Y-116125451D01*
X131193093Y-116212565D01*
X131190256Y-116226533D01*
X131179073Y-116286331D01*
X131170289Y-116342312D01*
X131163878Y-116394846D01*
X131159813Y-116444302D01*
X131158069Y-116491050D01*
X131158618Y-116535458D01*
X131161433Y-116577897D01*
X131163575Y-116597625D01*
X131170837Y-116642521D01*
X131181165Y-116683907D01*
X131194525Y-116721726D01*
X131210884Y-116755921D01*
X131230208Y-116786435D01*
X131252465Y-116813212D01*
X131277621Y-116836195D01*
X131305643Y-116855327D01*
X131318814Y-116862480D01*
X131337930Y-116871131D01*
X131358008Y-116878130D01*
X131380053Y-116883742D01*
X131405072Y-116888230D01*
X131428190Y-116891222D01*
X131443896Y-116892983D01*
X131448008Y-116940153D01*
X131449286Y-116954896D01*
X131450417Y-116968084D01*
X131451333Y-116978921D01*
X131451967Y-116986612D01*
X131452253Y-116990361D01*
X131452259Y-116990490D01*
X131453687Y-116992531D01*
X131454714Y-116992227D01*
X131455749Y-116993472D01*
X131456013Y-116998086D01*
X131455621Y-117004679D01*
X131454688Y-117011863D01*
X131453328Y-117018249D01*
X131452325Y-117021190D01*
X131451285Y-117024967D01*
X131449598Y-117032720D01*
X131447423Y-117043655D01*
X131444915Y-117056978D01*
X131442232Y-117071893D01*
X131441580Y-117075619D01*
X131432318Y-117131495D01*
X131424519Y-117184580D01*
X131417952Y-117236618D01*
X131412382Y-117289348D01*
X131410884Y-117305429D01*
X131409791Y-117320809D01*
X131408945Y-117339464D01*
X131408347Y-117360467D01*
X131407997Y-117382891D01*
X131407895Y-117405808D01*
X131408042Y-117428294D01*
X131408438Y-117449419D01*
X131409083Y-117468259D01*
X131409978Y-117483886D01*
X131410810Y-117492905D01*
X131417430Y-117542844D01*
X131425582Y-117591432D01*
X131435532Y-117639954D01*
X131447550Y-117689696D01*
X131461904Y-117741945D01*
X131465004Y-117752555D01*
X131469659Y-117768052D01*
X131473326Y-117779471D01*
X131476244Y-117787414D01*
X131478654Y-117792486D01*
X131480796Y-117795286D01*
X131482422Y-117796278D01*
X131485928Y-117796934D01*
X131493672Y-117798011D01*
X131505080Y-117799443D01*
X131519578Y-117801159D01*
X131536591Y-117803094D01*
X131555544Y-117805177D01*
X131575418Y-117807296D01*
X131599194Y-117809759D01*
X131618571Y-117811684D01*
X131633957Y-117813099D01*
X131645756Y-117814032D01*
X131654377Y-117814511D01*
X131660224Y-117814564D01*
X131663706Y-117814217D01*
X131665227Y-117813500D01*
X131665272Y-117813435D01*
X131666841Y-117809181D01*
X131668377Y-117802429D01*
X131668720Y-117800395D01*
X131670111Y-117792683D01*
X131672482Y-117780991D01*
X131675668Y-117766039D01*
X131679505Y-117748549D01*
X131683829Y-117729240D01*
X131688477Y-117708835D01*
X131693284Y-117688054D01*
X131698086Y-117667617D01*
X131702720Y-117648246D01*
X131707021Y-117630661D01*
X131710336Y-117617486D01*
X131729097Y-117547112D01*
X131748185Y-117481290D01*
X131767695Y-117419740D01*
X131787720Y-117362181D01*
X131808354Y-117308334D01*
X131829691Y-117257918D01*
X131833339Y-117249790D01*
X131856964Y-117201328D01*
X131884213Y-117151977D01*
X131914337Y-117102917D01*
X131946583Y-117055327D01*
X131980203Y-117010384D01*
X132005061Y-116980067D01*
X132015595Y-116967955D01*
X132026849Y-116955384D01*
X132038347Y-116942845D01*
X132049616Y-116930830D01*
X132060182Y-116919829D01*
X132069571Y-116910335D01*
X132077309Y-116902839D01*
X132082923Y-116897832D01*
X132085938Y-116895806D01*
X132086262Y-116895849D01*
X132088009Y-116899390D01*
X132090668Y-116906909D01*
X132094027Y-116917679D01*
X132097871Y-116930975D01*
X132101985Y-116946069D01*
X132106155Y-116962235D01*
X132107875Y-116969181D01*
X132117755Y-117017115D01*
X132123934Y-117065253D01*
X132126400Y-117114063D01*
X132125140Y-117164013D01*
X132120143Y-117215573D01*
X132111395Y-117269210D01*
X132098885Y-117325395D01*
X132098551Y-117326731D01*
X132082272Y-117383850D01*
X132062779Y-117438616D01*
X132040229Y-117490827D01*
X132014780Y-117540278D01*
X131986589Y-117586768D01*
X131955814Y-117630093D01*
X131922612Y-117670050D01*
X131887142Y-117706438D01*
X131849560Y-117739052D01*
X131810023Y-117767689D01*
X131768691Y-117792148D01*
X131725719Y-117812225D01*
X131719704Y-117814627D01*
X131700352Y-117822196D01*
X131603798Y-117923646D01*
X131586154Y-117942169D01*
X131569503Y-117959620D01*
X131554143Y-117975689D01*
X131540373Y-117990064D01*
X131528492Y-118002434D01*
X131518798Y-118012488D01*
X131511591Y-118019915D01*
X131507168Y-118024404D01*
X131505826Y-118025676D01*
X131504596Y-118023649D01*
X131501599Y-118017613D01*
X131497029Y-118007984D01*
X131491076Y-117995176D01*
X131483931Y-117979605D01*
X131475787Y-117961686D01*
X131466835Y-117941836D01*
X131457265Y-117920469D01*
X131454987Y-117915360D01*
X131405564Y-117804464D01*
X131364272Y-117792917D01*
X131345100Y-117787359D01*
X131322941Y-117780610D01*
X131299081Y-117773088D01*
X131274805Y-117765209D01*
X131251398Y-117757389D01*
X131230145Y-117750047D01*
X131213081Y-117743878D01*
X131203696Y-117740142D01*
X131197885Y-117737043D01*
X131194583Y-117733850D01*
X131192759Y-117729945D01*
X131191960Y-117724938D01*
X131191317Y-117715804D01*
X131190828Y-117703250D01*
X131190493Y-117687986D01*
X131190310Y-117670720D01*
X131190276Y-117652158D01*
X131190392Y-117633011D01*
X131190655Y-117613986D01*
X131191063Y-117595791D01*
X131191616Y-117579134D01*
X131192311Y-117564724D01*
X131193137Y-117553381D01*
X131205226Y-117441649D01*
X131214397Y-117373162D01*
X131218811Y-117343868D01*
X131223132Y-117318621D01*
X131227572Y-117296640D01*
X131232347Y-117277143D01*
X131237669Y-117259349D01*
X131243754Y-117242477D01*
X131250816Y-117225745D01*
X131259067Y-117208372D01*
X131260127Y-117206248D01*
X131281748Y-117167924D01*
X131307693Y-117130341D01*
X131337447Y-117094131D01*
X131370498Y-117059927D01*
X131401120Y-117032637D01*
X131416365Y-117019981D01*
X131408013Y-117019981D01*
X131397812Y-117019288D01*
X131384200Y-117017375D01*
X131368376Y-117014488D01*
X131351538Y-117010873D01*
X131334886Y-117006778D01*
X131319619Y-117002450D01*
X131313827Y-117000595D01*
X131273096Y-116984555D01*
X131235284Y-116964678D01*
X131200442Y-116941022D01*
X131168626Y-116913650D01*
X131139889Y-116882620D01*
X131114283Y-116847994D01*
X131091863Y-116809832D01*
X131072681Y-116768195D01*
X131056791Y-116723143D01*
X131051077Y-116703086D01*
X131042661Y-116667259D01*
X131036279Y-116630385D01*
X131031834Y-116591593D01*
X131029225Y-116550012D01*
X131028354Y-116504772D01*
X131028353Y-116503514D01*
X131028771Y-116468422D01*
X131030071Y-116434337D01*
X131032342Y-116400467D01*
X131035674Y-116366018D01*
X131040155Y-116330197D01*
X131045874Y-116292210D01*
X131052920Y-116251265D01*
X131061382Y-116206567D01*
X131061975Y-116203552D01*
X131080066Y-116118906D01*
X131100385Y-116036963D01*
X131122858Y-115957888D01*
X131147409Y-115881847D01*
X131173964Y-115809005D01*
X131202447Y-115739526D01*
X131232784Y-115673576D01*
X131264899Y-115611320D01*
X131298718Y-115552923D01*
X131334166Y-115498550D01*
X131371167Y-115448367D01*
X131409648Y-115402538D01*
X131440368Y-115370190D01*
X131451786Y-115359125D01*
X131463971Y-115347811D01*
X131475689Y-115337362D01*
X131485706Y-115328896D01*
X131488531Y-115326648D01*
X131497406Y-115319727D01*
X131505246Y-115313592D01*
X131511011Y-115309057D01*
X131513225Y-115307295D01*
X131515251Y-115305413D01*
X131516314Y-115303130D01*
X131516409Y-115299423D01*
X131515530Y-115293273D01*
X131513671Y-115283655D01*
X131513071Y-115280686D01*
X131501114Y-115209527D01*
X131493949Y-115137931D01*
X131491568Y-115065776D01*
X131493965Y-114992943D01*
X131494738Y-114981933D01*
X131499585Y-114924120D01*
X131505779Y-114861841D01*
X131513290Y-114795270D01*
X131522088Y-114724580D01*
X131532142Y-114649944D01*
X131543424Y-114571536D01*
X131555903Y-114489527D01*
X131569550Y-114404092D01*
X131584333Y-114315402D01*
X131600224Y-114223632D01*
X131617192Y-114128955D01*
X131635208Y-114031542D01*
X131654242Y-113931568D01*
X131674263Y-113829205D01*
X131695241Y-113724627D01*
X131717148Y-113618005D01*
X131739952Y-113509515D01*
X131763624Y-113399328D01*
X131786577Y-113294648D01*
X131793334Y-113264138D01*
X131799017Y-113237931D01*
X131803534Y-113215594D01*
X131806792Y-113196693D01*
X131808700Y-113180792D01*
X131809165Y-113167459D01*
X131808095Y-113156260D01*
X131805397Y-113146760D01*
X131800980Y-113138525D01*
X131794751Y-113131121D01*
X131786618Y-113124114D01*
X131776489Y-113117071D01*
X131764271Y-113109557D01*
X131749872Y-113101138D01*
X131744826Y-113098203D01*
X131699722Y-113072648D01*
X131654979Y-113048694D01*
X131611167Y-113026614D01*
X131568858Y-113006677D01*
X131528621Y-112989156D01*
X131491027Y-112974320D01*
X131463982Y-112964813D01*
X131428042Y-112954211D01*
X131394502Y-112946863D01*
X131363519Y-112942749D01*
X131335250Y-112941850D01*
X131309850Y-112944147D01*
X131287477Y-112949622D01*
X131268287Y-112958256D01*
X131252437Y-112970031D01*
X131240083Y-112984926D01*
X131235957Y-112992143D01*
X131232694Y-112999092D01*
X131229698Y-113006669D01*
X131226949Y-113015121D01*
X131224428Y-113024693D01*
X131222116Y-113035628D01*
X131219993Y-113048174D01*
X131218040Y-113062573D01*
X131216239Y-113079073D01*
X131214569Y-113097916D01*
X131213011Y-113119350D01*
X131211546Y-113143617D01*
X131210155Y-113170965D01*
X131208819Y-113201637D01*
X131207517Y-113235879D01*
X131206231Y-113273935D01*
X131204942Y-113316051D01*
X131203630Y-113362471D01*
X131202276Y-113413442D01*
X131202033Y-113422857D01*
X131199744Y-113506567D01*
X131197289Y-113585821D01*
X131194648Y-113661001D01*
X131191798Y-113732487D01*
X131188719Y-113800660D01*
X131185391Y-113865901D01*
X131181791Y-113928589D01*
X131177899Y-113989107D01*
X131173694Y-114047835D01*
X131169154Y-114105153D01*
X131164260Y-114161442D01*
X131158989Y-114217083D01*
X131157134Y-114235657D01*
X131147650Y-114323908D01*
X131137298Y-114409256D01*
X131125962Y-114492213D01*
X131113526Y-114573293D01*
X131099873Y-114653009D01*
X131084888Y-114731875D01*
X131068454Y-114810402D01*
X131050455Y-114889106D01*
X131030775Y-114968498D01*
X131009297Y-115049092D01*
X130985905Y-115131401D01*
X130960484Y-115215938D01*
X130932917Y-115303217D01*
X130903088Y-115393751D01*
X130878594Y-115465743D01*
X130866588Y-115499933D01*
X130854639Y-115532526D01*
X130842526Y-115563982D01*
X130830029Y-115594759D01*
X130816930Y-115625317D01*
X130803009Y-115656114D01*
X130788045Y-115687610D01*
X130771820Y-115720264D01*
X130754113Y-115754534D01*
X130734705Y-115790880D01*
X130713377Y-115829761D01*
X130689908Y-115871635D01*
X130664080Y-115916962D01*
X130655776Y-115931410D01*
X130632647Y-115971607D01*
X130611782Y-116007930D01*
X130593011Y-116040685D01*
X130576166Y-116070180D01*
X130561077Y-116096721D01*
X130547575Y-116120614D01*
X130535490Y-116142168D01*
X130524653Y-116161689D01*
X130514895Y-116179484D01*
X130506047Y-116195860D01*
X130497939Y-116211124D01*
X130490402Y-116225583D01*
X130483266Y-116239543D01*
X130476363Y-116253313D01*
X130469522Y-116267198D01*
X130462575Y-116281506D01*
X130461969Y-116282761D01*
X130440412Y-116329005D01*
X130421724Y-116372629D01*
X130405635Y-116414572D01*
X130391877Y-116455777D01*
X130380181Y-116497182D01*
X130370278Y-116539730D01*
X130361899Y-116584361D01*
X130354774Y-116632015D01*
X130349408Y-116676476D01*
X130346830Y-116704581D01*
X130344800Y-116736087D01*
X130343357Y-116769583D01*
X130342537Y-116803660D01*
X130342378Y-116836906D01*
X130342918Y-116867912D01*
X130343766Y-116888143D01*
X130348321Y-116942689D01*
X130355947Y-116997859D01*
X130366439Y-117052838D01*
X130379591Y-117106811D01*
X130395199Y-117158964D01*
X130413059Y-117208482D01*
X130432964Y-117254549D01*
X130439000Y-117266966D01*
X130469345Y-117322495D01*
X130504291Y-117376819D01*
X130543730Y-117429841D01*
X130587554Y-117481466D01*
X130635655Y-117531598D01*
X130687924Y-117580141D01*
X130744254Y-117626999D01*
X130804535Y-117672076D01*
X130868661Y-117715277D01*
X130936523Y-117756505D01*
X131008013Y-117795665D01*
X131070148Y-117826585D01*
X131097518Y-117839160D01*
X131125882Y-117851243D01*
X131156127Y-117863182D01*
X131189139Y-117875324D01*
X131225803Y-117888016D01*
X131234685Y-117890995D01*
X131250763Y-117896254D01*
X131268310Y-117901811D01*
X131286510Y-117907423D01*
X131304544Y-117912851D01*
X131321595Y-117917851D01*
X131336844Y-117922182D01*
X131349475Y-117925603D01*
X131358670Y-117927871D01*
X131361331Y-117928427D01*
X131369259Y-117929914D01*
X131425878Y-118070221D01*
X131435852Y-118094893D01*
X131445313Y-118118212D01*
X131454103Y-118139795D01*
X131462066Y-118159259D01*
X131469042Y-118176219D01*
X131474875Y-118190293D01*
X131479405Y-118201096D01*
X131482476Y-118208246D01*
X131483930Y-118211359D01*
X131484007Y-118211461D01*
X131485824Y-118209856D01*
X131490594Y-118204918D01*
X131498059Y-118196929D01*
X131507961Y-118186175D01*
X131520040Y-118172939D01*
X131534038Y-118157506D01*
X131549697Y-118140159D01*
X131566757Y-118121184D01*
X131584961Y-118100863D01*
X131600501Y-118083461D01*
X131622533Y-118058764D01*
X131641591Y-118037429D01*
X131657920Y-118019202D01*
X131671761Y-118003830D01*
X131683358Y-117991060D01*
X131692954Y-117980639D01*
X131700791Y-117972314D01*
X131707113Y-117965831D01*
X131712161Y-117960938D01*
X131716180Y-117957381D01*
X131719412Y-117954908D01*
X131722099Y-117953264D01*
X131724485Y-117952198D01*
X131726813Y-117951455D01*
X131727270Y-117951329D01*
X131741361Y-117946934D01*
X131758470Y-117940693D01*
X131777383Y-117933101D01*
X131796886Y-117924658D01*
X131815765Y-117915859D01*
X131824877Y-117911337D01*
X131864792Y-117889087D01*
X131903278Y-117863559D01*
X131940972Y-117834286D01*
X131978512Y-117800801D01*
X131987875Y-117791788D01*
X132024587Y-117753725D01*
X132057833Y-117714448D01*
X132088207Y-117673130D01*
X132116304Y-117628948D01*
X132142717Y-117581076D01*
X132149998Y-117566686D01*
X132171853Y-117520020D01*
X132190940Y-117473382D01*
X132207515Y-117425929D01*
X132221834Y-117376818D01*
X132234154Y-117325208D01*
X132244731Y-117270255D01*
X132249884Y-117238391D01*
X132251886Y-117224789D01*
X132253440Y-117212907D01*
X132254603Y-117201787D01*
X132255434Y-117190472D01*
X132255989Y-117178005D01*
X132256328Y-117163430D01*
X132256507Y-117145789D01*
X132256577Y-117127629D01*
X132256524Y-117102110D01*
X132256524Y-117102110D01*
G37*
X132256524Y-117102110D02*
X132256179Y-117080393D01*
X132255460Y-117061445D01*
X132254281Y-117044235D01*
X132252559Y-117027730D01*
X132250210Y-117010899D01*
X132247150Y-116992708D01*
X132244355Y-116977648D01*
X132235604Y-116937289D01*
X132224586Y-116895394D01*
X132211875Y-116853941D01*
X132198043Y-116814907D01*
X132195010Y-116807105D01*
X132183220Y-116777497D01*
X132171469Y-116748440D01*
X132159632Y-116719668D01*
X132147586Y-116690917D01*
X132135207Y-116661919D01*
X132122372Y-116632409D01*
X132108957Y-116602121D01*
X132094838Y-116570790D01*
X132079891Y-116538149D01*
X132063992Y-116503933D01*
X132047019Y-116467876D01*
X132028847Y-116429712D01*
X132009352Y-116389176D01*
X131988411Y-116346001D01*
X131965900Y-116299922D01*
X131941695Y-116250673D01*
X131915673Y-116197987D01*
X131887710Y-116141601D01*
X131857682Y-116081246D01*
X131849917Y-116065667D01*
X131824037Y-116013659D01*
X131800226Y-115965600D01*
X131778325Y-115921145D01*
X131758175Y-115879950D01*
X131739617Y-115841669D01*
X131722491Y-115805957D01*
X131706639Y-115772469D01*
X131691901Y-115740860D01*
X131678118Y-115710786D01*
X131665131Y-115681901D01*
X131652779Y-115653860D01*
X131640905Y-115626318D01*
X131629349Y-115598931D01*
X131617952Y-115571352D01*
X131606554Y-115543239D01*
X131594996Y-115514244D01*
X131592614Y-115508216D01*
X131585659Y-115490759D01*
X131579167Y-115474798D01*
X131573373Y-115460879D01*
X131568508Y-115449550D01*
X131564805Y-115441355D01*
X131562497Y-115436842D01*
X131561925Y-115436131D01*
X131559168Y-115437437D01*
X131553749Y-115441820D01*
X131546205Y-115448730D01*
X131537076Y-115457615D01*
X131526901Y-115467925D01*
X131516218Y-115479110D01*
X131505567Y-115490620D01*
X131495485Y-115501904D01*
X131486513Y-115512412D01*
X131482938Y-115516796D01*
X131444812Y-115567789D01*
X131408621Y-115623145D01*
X131374402Y-115682775D01*
X131342190Y-115746594D01*
X131312022Y-115814513D01*
X131283934Y-115886445D01*
X131257960Y-115962304D01*
X131234138Y-116042002D01*
X131212504Y-116125451D01*
X131193093Y-116212565D01*
X131190256Y-116226533D01*
X131179073Y-116286331D01*
X131170289Y-116342312D01*
X131163878Y-116394846D01*
X131159813Y-116444302D01*
X131158069Y-116491050D01*
X131158618Y-116535458D01*
X131161433Y-116577897D01*
X131163575Y-116597625D01*
X131170837Y-116642521D01*
X131181165Y-116683907D01*
X131194525Y-116721726D01*
X131210884Y-116755921D01*
X131230208Y-116786435D01*
X131252465Y-116813212D01*
X131277621Y-116836195D01*
X131305643Y-116855327D01*
X131318814Y-116862480D01*
X131337930Y-116871131D01*
X131358008Y-116878130D01*
X131380053Y-116883742D01*
X131405072Y-116888230D01*
X131428190Y-116891222D01*
X131443896Y-116892983D01*
X131448008Y-116940153D01*
X131449286Y-116954896D01*
X131450417Y-116968084D01*
X131451333Y-116978921D01*
X131451967Y-116986612D01*
X131452253Y-116990361D01*
X131452259Y-116990490D01*
X131453687Y-116992531D01*
X131454714Y-116992227D01*
X131455749Y-116993472D01*
X131456013Y-116998086D01*
X131455621Y-117004679D01*
X131454688Y-117011863D01*
X131453328Y-117018249D01*
X131452325Y-117021190D01*
X131451285Y-117024967D01*
X131449598Y-117032720D01*
X131447423Y-117043655D01*
X131444915Y-117056978D01*
X131442232Y-117071893D01*
X131441580Y-117075619D01*
X131432318Y-117131495D01*
X131424519Y-117184580D01*
X131417952Y-117236618D01*
X131412382Y-117289348D01*
X131410884Y-117305429D01*
X131409791Y-117320809D01*
X131408945Y-117339464D01*
X131408347Y-117360467D01*
X131407997Y-117382891D01*
X131407895Y-117405808D01*
X131408042Y-117428294D01*
X131408438Y-117449419D01*
X131409083Y-117468259D01*
X131409978Y-117483886D01*
X131410810Y-117492905D01*
X131417430Y-117542844D01*
X131425582Y-117591432D01*
X131435532Y-117639954D01*
X131447550Y-117689696D01*
X131461904Y-117741945D01*
X131465004Y-117752555D01*
X131469659Y-117768052D01*
X131473326Y-117779471D01*
X131476244Y-117787414D01*
X131478654Y-117792486D01*
X131480796Y-117795286D01*
X131482422Y-117796278D01*
X131485928Y-117796934D01*
X131493672Y-117798011D01*
X131505080Y-117799443D01*
X131519578Y-117801159D01*
X131536591Y-117803094D01*
X131555544Y-117805177D01*
X131575418Y-117807296D01*
X131599194Y-117809759D01*
X131618571Y-117811684D01*
X131633957Y-117813099D01*
X131645756Y-117814032D01*
X131654377Y-117814511D01*
X131660224Y-117814564D01*
X131663706Y-117814217D01*
X131665227Y-117813500D01*
X131665272Y-117813435D01*
X131666841Y-117809181D01*
X131668377Y-117802429D01*
X131668720Y-117800395D01*
X131670111Y-117792683D01*
X131672482Y-117780991D01*
X131675668Y-117766039D01*
X131679505Y-117748549D01*
X131683829Y-117729240D01*
X131688477Y-117708835D01*
X131693284Y-117688054D01*
X131698086Y-117667617D01*
X131702720Y-117648246D01*
X131707021Y-117630661D01*
X131710336Y-117617486D01*
X131729097Y-117547112D01*
X131748185Y-117481290D01*
X131767695Y-117419740D01*
X131787720Y-117362181D01*
X131808354Y-117308334D01*
X131829691Y-117257918D01*
X131833339Y-117249790D01*
X131856964Y-117201328D01*
X131884213Y-117151977D01*
X131914337Y-117102917D01*
X131946583Y-117055327D01*
X131980203Y-117010384D01*
X132005061Y-116980067D01*
X132015595Y-116967955D01*
X132026849Y-116955384D01*
X132038347Y-116942845D01*
X132049616Y-116930830D01*
X132060182Y-116919829D01*
X132069571Y-116910335D01*
X132077309Y-116902839D01*
X132082923Y-116897832D01*
X132085938Y-116895806D01*
X132086262Y-116895849D01*
X132088009Y-116899390D01*
X132090668Y-116906909D01*
X132094027Y-116917679D01*
X132097871Y-116930975D01*
X132101985Y-116946069D01*
X132106155Y-116962235D01*
X132107875Y-116969181D01*
X132117755Y-117017115D01*
X132123934Y-117065253D01*
X132126400Y-117114063D01*
X132125140Y-117164013D01*
X132120143Y-117215573D01*
X132111395Y-117269210D01*
X132098885Y-117325395D01*
X132098551Y-117326731D01*
X132082272Y-117383850D01*
X132062779Y-117438616D01*
X132040229Y-117490827D01*
X132014780Y-117540278D01*
X131986589Y-117586768D01*
X131955814Y-117630093D01*
X131922612Y-117670050D01*
X131887142Y-117706438D01*
X131849560Y-117739052D01*
X131810023Y-117767689D01*
X131768691Y-117792148D01*
X131725719Y-117812225D01*
X131719704Y-117814627D01*
X131700352Y-117822196D01*
X131603798Y-117923646D01*
X131586154Y-117942169D01*
X131569503Y-117959620D01*
X131554143Y-117975689D01*
X131540373Y-117990064D01*
X131528492Y-118002434D01*
X131518798Y-118012488D01*
X131511591Y-118019915D01*
X131507168Y-118024404D01*
X131505826Y-118025676D01*
X131504596Y-118023649D01*
X131501599Y-118017613D01*
X131497029Y-118007984D01*
X131491076Y-117995176D01*
X131483931Y-117979605D01*
X131475787Y-117961686D01*
X131466835Y-117941836D01*
X131457265Y-117920469D01*
X131454987Y-117915360D01*
X131405564Y-117804464D01*
X131364272Y-117792917D01*
X131345100Y-117787359D01*
X131322941Y-117780610D01*
X131299081Y-117773088D01*
X131274805Y-117765209D01*
X131251398Y-117757389D01*
X131230145Y-117750047D01*
X131213081Y-117743878D01*
X131203696Y-117740142D01*
X131197885Y-117737043D01*
X131194583Y-117733850D01*
X131192759Y-117729945D01*
X131191960Y-117724938D01*
X131191317Y-117715804D01*
X131190828Y-117703250D01*
X131190493Y-117687986D01*
X131190310Y-117670720D01*
X131190276Y-117652158D01*
X131190392Y-117633011D01*
X131190655Y-117613986D01*
X131191063Y-117595791D01*
X131191616Y-117579134D01*
X131192311Y-117564724D01*
X131193137Y-117553381D01*
X131205226Y-117441649D01*
X131214397Y-117373162D01*
X131218811Y-117343868D01*
X131223132Y-117318621D01*
X131227572Y-117296640D01*
X131232347Y-117277143D01*
X131237669Y-117259349D01*
X131243754Y-117242477D01*
X131250816Y-117225745D01*
X131259067Y-117208372D01*
X131260127Y-117206248D01*
X131281748Y-117167924D01*
X131307693Y-117130341D01*
X131337447Y-117094131D01*
X131370498Y-117059927D01*
X131401120Y-117032637D01*
X131416365Y-117019981D01*
X131408013Y-117019981D01*
X131397812Y-117019288D01*
X131384200Y-117017375D01*
X131368376Y-117014488D01*
X131351538Y-117010873D01*
X131334886Y-117006778D01*
X131319619Y-117002450D01*
X131313827Y-117000595D01*
X131273096Y-116984555D01*
X131235284Y-116964678D01*
X131200442Y-116941022D01*
X131168626Y-116913650D01*
X131139889Y-116882620D01*
X131114283Y-116847994D01*
X131091863Y-116809832D01*
X131072681Y-116768195D01*
X131056791Y-116723143D01*
X131051077Y-116703086D01*
X131042661Y-116667259D01*
X131036279Y-116630385D01*
X131031834Y-116591593D01*
X131029225Y-116550012D01*
X131028354Y-116504772D01*
X131028353Y-116503514D01*
X131028771Y-116468422D01*
X131030071Y-116434337D01*
X131032342Y-116400467D01*
X131035674Y-116366018D01*
X131040155Y-116330197D01*
X131045874Y-116292210D01*
X131052920Y-116251265D01*
X131061382Y-116206567D01*
X131061975Y-116203552D01*
X131080066Y-116118906D01*
X131100385Y-116036963D01*
X131122858Y-115957888D01*
X131147409Y-115881847D01*
X131173964Y-115809005D01*
X131202447Y-115739526D01*
X131232784Y-115673576D01*
X131264899Y-115611320D01*
X131298718Y-115552923D01*
X131334166Y-115498550D01*
X131371167Y-115448367D01*
X131409648Y-115402538D01*
X131440368Y-115370190D01*
X131451786Y-115359125D01*
X131463971Y-115347811D01*
X131475689Y-115337362D01*
X131485706Y-115328896D01*
X131488531Y-115326648D01*
X131497406Y-115319727D01*
X131505246Y-115313592D01*
X131511011Y-115309057D01*
X131513225Y-115307295D01*
X131515251Y-115305413D01*
X131516314Y-115303130D01*
X131516409Y-115299423D01*
X131515530Y-115293273D01*
X131513671Y-115283655D01*
X131513071Y-115280686D01*
X131501114Y-115209527D01*
X131493949Y-115137931D01*
X131491568Y-115065776D01*
X131493965Y-114992943D01*
X131494738Y-114981933D01*
X131499585Y-114924120D01*
X131505779Y-114861841D01*
X131513290Y-114795270D01*
X131522088Y-114724580D01*
X131532142Y-114649944D01*
X131543424Y-114571536D01*
X131555903Y-114489527D01*
X131569550Y-114404092D01*
X131584333Y-114315402D01*
X131600224Y-114223632D01*
X131617192Y-114128955D01*
X131635208Y-114031542D01*
X131654242Y-113931568D01*
X131674263Y-113829205D01*
X131695241Y-113724627D01*
X131717148Y-113618005D01*
X131739952Y-113509515D01*
X131763624Y-113399328D01*
X131786577Y-113294648D01*
X131793334Y-113264138D01*
X131799017Y-113237931D01*
X131803534Y-113215594D01*
X131806792Y-113196693D01*
X131808700Y-113180792D01*
X131809165Y-113167459D01*
X131808095Y-113156260D01*
X131805397Y-113146760D01*
X131800980Y-113138525D01*
X131794751Y-113131121D01*
X131786618Y-113124114D01*
X131776489Y-113117071D01*
X131764271Y-113109557D01*
X131749872Y-113101138D01*
X131744826Y-113098203D01*
X131699722Y-113072648D01*
X131654979Y-113048694D01*
X131611167Y-113026614D01*
X131568858Y-113006677D01*
X131528621Y-112989156D01*
X131491027Y-112974320D01*
X131463982Y-112964813D01*
X131428042Y-112954211D01*
X131394502Y-112946863D01*
X131363519Y-112942749D01*
X131335250Y-112941850D01*
X131309850Y-112944147D01*
X131287477Y-112949622D01*
X131268287Y-112958256D01*
X131252437Y-112970031D01*
X131240083Y-112984926D01*
X131235957Y-112992143D01*
X131232694Y-112999092D01*
X131229698Y-113006669D01*
X131226949Y-113015121D01*
X131224428Y-113024693D01*
X131222116Y-113035628D01*
X131219993Y-113048174D01*
X131218040Y-113062573D01*
X131216239Y-113079073D01*
X131214569Y-113097916D01*
X131213011Y-113119350D01*
X131211546Y-113143617D01*
X131210155Y-113170965D01*
X131208819Y-113201637D01*
X131207517Y-113235879D01*
X131206231Y-113273935D01*
X131204942Y-113316051D01*
X131203630Y-113362471D01*
X131202276Y-113413442D01*
X131202033Y-113422857D01*
X131199744Y-113506567D01*
X131197289Y-113585821D01*
X131194648Y-113661001D01*
X131191798Y-113732487D01*
X131188719Y-113800660D01*
X131185391Y-113865901D01*
X131181791Y-113928589D01*
X131177899Y-113989107D01*
X131173694Y-114047835D01*
X131169154Y-114105153D01*
X131164260Y-114161442D01*
X131158989Y-114217083D01*
X131157134Y-114235657D01*
X131147650Y-114323908D01*
X131137298Y-114409256D01*
X131125962Y-114492213D01*
X131113526Y-114573293D01*
X131099873Y-114653009D01*
X131084888Y-114731875D01*
X131068454Y-114810402D01*
X131050455Y-114889106D01*
X131030775Y-114968498D01*
X131009297Y-115049092D01*
X130985905Y-115131401D01*
X130960484Y-115215938D01*
X130932917Y-115303217D01*
X130903088Y-115393751D01*
X130878594Y-115465743D01*
X130866588Y-115499933D01*
X130854639Y-115532526D01*
X130842526Y-115563982D01*
X130830029Y-115594759D01*
X130816930Y-115625317D01*
X130803009Y-115656114D01*
X130788045Y-115687610D01*
X130771820Y-115720264D01*
X130754113Y-115754534D01*
X130734705Y-115790880D01*
X130713377Y-115829761D01*
X130689908Y-115871635D01*
X130664080Y-115916962D01*
X130655776Y-115931410D01*
X130632647Y-115971607D01*
X130611782Y-116007930D01*
X130593011Y-116040685D01*
X130576166Y-116070180D01*
X130561077Y-116096721D01*
X130547575Y-116120614D01*
X130535490Y-116142168D01*
X130524653Y-116161689D01*
X130514895Y-116179484D01*
X130506047Y-116195860D01*
X130497939Y-116211124D01*
X130490402Y-116225583D01*
X130483266Y-116239543D01*
X130476363Y-116253313D01*
X130469522Y-116267198D01*
X130462575Y-116281506D01*
X130461969Y-116282761D01*
X130440412Y-116329005D01*
X130421724Y-116372629D01*
X130405635Y-116414572D01*
X130391877Y-116455777D01*
X130380181Y-116497182D01*
X130370278Y-116539730D01*
X130361899Y-116584361D01*
X130354774Y-116632015D01*
X130349408Y-116676476D01*
X130346830Y-116704581D01*
X130344800Y-116736087D01*
X130343357Y-116769583D01*
X130342537Y-116803660D01*
X130342378Y-116836906D01*
X130342918Y-116867912D01*
X130343766Y-116888143D01*
X130348321Y-116942689D01*
X130355947Y-116997859D01*
X130366439Y-117052838D01*
X130379591Y-117106811D01*
X130395199Y-117158964D01*
X130413059Y-117208482D01*
X130432964Y-117254549D01*
X130439000Y-117266966D01*
X130469345Y-117322495D01*
X130504291Y-117376819D01*
X130543730Y-117429841D01*
X130587554Y-117481466D01*
X130635655Y-117531598D01*
X130687924Y-117580141D01*
X130744254Y-117626999D01*
X130804535Y-117672076D01*
X130868661Y-117715277D01*
X130936523Y-117756505D01*
X131008013Y-117795665D01*
X131070148Y-117826585D01*
X131097518Y-117839160D01*
X131125882Y-117851243D01*
X131156127Y-117863182D01*
X131189139Y-117875324D01*
X131225803Y-117888016D01*
X131234685Y-117890995D01*
X131250763Y-117896254D01*
X131268310Y-117901811D01*
X131286510Y-117907423D01*
X131304544Y-117912851D01*
X131321595Y-117917851D01*
X131336844Y-117922182D01*
X131349475Y-117925603D01*
X131358670Y-117927871D01*
X131361331Y-117928427D01*
X131369259Y-117929914D01*
X131425878Y-118070221D01*
X131435852Y-118094893D01*
X131445313Y-118118212D01*
X131454103Y-118139795D01*
X131462066Y-118159259D01*
X131469042Y-118176219D01*
X131474875Y-118190293D01*
X131479405Y-118201096D01*
X131482476Y-118208246D01*
X131483930Y-118211359D01*
X131484007Y-118211461D01*
X131485824Y-118209856D01*
X131490594Y-118204918D01*
X131498059Y-118196929D01*
X131507961Y-118186175D01*
X131520040Y-118172939D01*
X131534038Y-118157506D01*
X131549697Y-118140159D01*
X131566757Y-118121184D01*
X131584961Y-118100863D01*
X131600501Y-118083461D01*
X131622533Y-118058764D01*
X131641591Y-118037429D01*
X131657920Y-118019202D01*
X131671761Y-118003830D01*
X131683358Y-117991060D01*
X131692954Y-117980639D01*
X131700791Y-117972314D01*
X131707113Y-117965831D01*
X131712161Y-117960938D01*
X131716180Y-117957381D01*
X131719412Y-117954908D01*
X131722099Y-117953264D01*
X131724485Y-117952198D01*
X131726813Y-117951455D01*
X131727270Y-117951329D01*
X131741361Y-117946934D01*
X131758470Y-117940693D01*
X131777383Y-117933101D01*
X131796886Y-117924658D01*
X131815765Y-117915859D01*
X131824877Y-117911337D01*
X131864792Y-117889087D01*
X131903278Y-117863559D01*
X131940972Y-117834286D01*
X131978512Y-117800801D01*
X131987875Y-117791788D01*
X132024587Y-117753725D01*
X132057833Y-117714448D01*
X132088207Y-117673130D01*
X132116304Y-117628948D01*
X132142717Y-117581076D01*
X132149998Y-117566686D01*
X132171853Y-117520020D01*
X132190940Y-117473382D01*
X132207515Y-117425929D01*
X132221834Y-117376818D01*
X132234154Y-117325208D01*
X132244731Y-117270255D01*
X132249884Y-117238391D01*
X132251886Y-117224789D01*
X132253440Y-117212907D01*
X132254603Y-117201787D01*
X132255434Y-117190472D01*
X132255989Y-117178005D01*
X132256328Y-117163430D01*
X132256507Y-117145789D01*
X132256577Y-117127629D01*
X132256524Y-117102110D01*
D12*
X155598860Y-100300000D03*
X155598860Y-98400000D03*
X158601140Y-99350000D03*
D13*
X155640000Y-90890000D03*
X157138600Y-90890000D03*
D14*
X149400000Y-122400000D03*
D15*
X139100000Y-93900000D03*
X145500000Y-93900000D03*
D16*
X141000000Y-94125000D03*
X141650000Y-94125000D03*
X142300000Y-94125000D03*
X142950000Y-94125000D03*
X143600000Y-94125000D03*
D17*
X141100000Y-91450000D03*
X143500000Y-91450000D03*
D18*
X139000000Y-91450000D03*
X145600000Y-91450000D03*
D19*
X146700000Y-124900000D03*
D20*
X146700000Y-122360000D03*
X144160000Y-124900000D03*
X144160000Y-122360000D03*
X141620000Y-124900000D03*
X141620000Y-122360000D03*
X139080000Y-124900000D03*
X139080000Y-122360000D03*
D21*
X161010000Y-106190000D03*
X158300000Y-106190000D03*
X161010000Y-109790000D03*
X158300000Y-109790000D03*
D22*
X161010000Y-105715000D03*
X158300000Y-105715000D03*
X161010000Y-110265000D03*
X158300000Y-110265000D03*
D21*
X158300000Y-109390000D03*
X161010000Y-109390000D03*
X158300000Y-108990000D03*
X161010000Y-108990000D03*
X158300000Y-108590000D03*
X161010000Y-108590000D03*
X158300000Y-108190000D03*
X161010000Y-108190000D03*
X158300000Y-107790000D03*
X161010000Y-107790000D03*
X158300000Y-107390000D03*
X161010000Y-107390000D03*
X158300000Y-106990000D03*
X161010000Y-106990000D03*
X158300000Y-106590000D03*
X161010000Y-106590000D03*
D14*
X159500000Y-118900000D03*
X163600000Y-118900000D03*
D23*
X151550000Y-121498860D03*
X153450000Y-121498860D03*
X152500000Y-124501140D03*
X156700000Y-124501140D03*
X154800000Y-124501140D03*
X155750000Y-121498860D03*
D24*
X144610000Y-104350000D03*
X146810000Y-104350000D03*
X135050000Y-108290000D03*
X132850000Y-108290000D03*
X132760000Y-110300000D03*
X134960000Y-110300000D03*
X158090000Y-92580000D03*
X155890000Y-92580000D03*
D25*
X151800000Y-92225000D03*
X148200000Y-92225000D03*
X151800000Y-90775000D03*
X148200000Y-90775000D03*
D26*
X146730065Y-99479559D03*
X143445591Y-104114317D03*
X145595875Y-97404125D03*
X140700000Y-98600000D03*
X156200000Y-95600000D03*
X156900000Y-96000000D03*
X158750000Y-123750000D03*
X153500000Y-123250000D03*
X152820000Y-103420000D03*
X153147437Y-91451520D03*
X132140000Y-99700000D03*
X138370000Y-99360302D03*
X136400000Y-98650000D03*
X131250000Y-102250000D03*
X131750000Y-112250000D03*
X131250000Y-118750000D03*
X154590000Y-92540000D03*
X136130000Y-93780000D03*
X162740000Y-106530000D03*
X162160000Y-106990000D03*
X162770000Y-107390000D03*
X162150000Y-107780000D03*
X162700000Y-108190000D03*
X162130000Y-108590000D03*
X162690000Y-109000000D03*
X162100000Y-109400000D03*
X157070304Y-105230304D03*
X149760000Y-119972643D03*
X149400000Y-122400000D03*
X154500000Y-123000000D03*
X145654667Y-103232980D03*
X150220000Y-102410000D03*
X134020000Y-97020000D03*
X133910000Y-101430000D03*
X142207833Y-100349389D03*
X140760000Y-100370000D03*
X132250000Y-109250000D03*
X133250000Y-118750000D03*
X154600000Y-94830000D03*
X154620000Y-94110000D03*
X154600000Y-90880000D03*
X149730000Y-118220000D03*
D27*
X155759642Y-106155806D03*
D26*
X141000000Y-92910000D03*
X157840000Y-98160000D03*
X159380000Y-98150000D03*
X158600000Y-98140000D03*
X157750000Y-123750000D03*
X156180000Y-107410000D03*
X156850000Y-107770000D03*
X156220000Y-108180000D03*
X156840000Y-108580000D03*
X156230000Y-108980000D03*
X156860000Y-109400000D03*
X147031520Y-95375823D03*
X141580874Y-95509126D03*
X141934396Y-103472667D03*
X145048480Y-109740000D03*
X145107982Y-115926349D03*
X142623734Y-103949543D03*
X144340000Y-95090000D03*
X145700000Y-110310000D03*
X145910000Y-116170000D03*
X136122613Y-115978209D03*
X135431209Y-116452087D03*
D27*
X156749727Y-106418480D03*
D26*
X139110000Y-107290000D03*
D27*
X163197180Y-111170650D03*
D26*
X145600000Y-98500000D03*
X147054688Y-97370230D03*
X140967450Y-103390127D03*
X163700000Y-110500000D03*
X156115373Y-104127015D03*
X148070000Y-104350000D03*
X162486303Y-104269873D03*
D27*
X162070049Y-99079417D03*
D26*
X137800000Y-104070000D03*
D27*
X161999320Y-99914639D03*
D26*
X137384564Y-104798020D03*
D27*
X162797089Y-99657418D03*
D26*
X137964337Y-105473656D03*
D27*
X163050000Y-100510000D03*
D26*
X136534025Y-105601555D03*
X145570000Y-112490000D03*
D27*
X161045015Y-116945501D03*
D26*
X146368480Y-111870000D03*
D27*
X161688037Y-116372672D03*
D26*
X150615704Y-119419437D03*
X139548365Y-119850115D03*
X150604709Y-120257577D03*
X140830000Y-120318480D03*
X153230681Y-108318932D03*
D27*
X163326569Y-114121626D03*
D26*
X154910000Y-110750000D03*
D27*
X163275858Y-113284950D03*
D26*
X154121210Y-109915899D03*
D27*
X162930340Y-112521264D03*
D26*
X158000000Y-120400000D03*
X151170000Y-115540000D03*
D27*
X155644019Y-113619718D03*
D26*
X153500000Y-112650000D03*
D27*
X154850995Y-113891217D03*
D26*
X152540874Y-112720874D03*
D27*
X154897193Y-114728154D03*
D26*
X151167644Y-111601748D03*
X149521037Y-117389743D03*
X144491023Y-116501517D03*
X150578503Y-118270696D03*
X137761390Y-115799570D03*
X151640000Y-118280000D03*
X138540000Y-116110000D03*
D27*
X155068609Y-112748196D03*
D26*
X152390323Y-111896293D03*
D27*
X155842682Y-112426621D03*
D26*
X151620000Y-112760000D03*
X147511520Y-110392211D03*
X151170000Y-110271520D03*
X147263265Y-109538860D03*
X152190000Y-109911520D03*
X142763007Y-110711257D03*
X152460000Y-107811520D03*
X142170301Y-110118553D03*
X151630000Y-108030000D03*
X147325465Y-107670386D03*
X148010000Y-108631522D03*
X149294027Y-99894069D03*
X148699035Y-101951523D03*
X146700000Y-116460000D03*
X146280000Y-113340000D03*
D27*
X154145622Y-100800002D03*
D26*
X148914645Y-102820196D03*
X152841250Y-99908731D03*
X152638212Y-104248692D03*
X153750000Y-99670000D03*
X153448296Y-103974836D03*
X149500000Y-125000000D03*
X144833531Y-103401305D03*
X152020000Y-98850000D03*
X148326987Y-99207035D03*
X143926091Y-103257165D03*
X147492253Y-99130749D03*
X143088970Y-103214409D03*
X134922354Y-105331952D03*
X139600000Y-92650000D03*
X135768844Y-104491957D03*
X138340000Y-92630000D03*
X132838480Y-96990000D03*
X132230000Y-106870000D03*
X135054631Y-104051379D03*
X139330000Y-99299698D03*
X140831276Y-99513227D03*
X138496807Y-103368480D03*
X142229275Y-106340725D03*
D27*
X162395452Y-103126851D03*
D26*
X141493628Y-106742500D03*
D27*
X163160000Y-103660000D03*
D28*
X143681274Y-104350000D02*
X143445591Y-104114317D01*
X144610000Y-104350000D02*
X143681274Y-104350000D01*
X153450000Y-121498860D02*
X153450000Y-123200000D01*
X153450000Y-123200000D02*
X153500000Y-123250000D01*
X152748480Y-91451520D02*
X153147437Y-91451520D01*
X151800000Y-92225000D02*
X151975000Y-92225000D01*
X151975000Y-92225000D02*
X152748480Y-91451520D01*
X145600000Y-91450000D02*
X145600000Y-93800000D01*
X145600000Y-93800000D02*
X145500000Y-93900000D01*
X143600000Y-94125000D02*
X145275000Y-94125000D01*
X145275000Y-94125000D02*
X145500000Y-93900000D01*
X151800000Y-92225000D02*
X148200000Y-92225000D01*
X154590000Y-92540000D02*
X155850000Y-92540000D01*
X155850000Y-92540000D02*
X155890000Y-92580000D01*
X136130000Y-93780000D02*
X138980000Y-93780000D01*
X138980000Y-93780000D02*
X139100000Y-93900000D01*
X141100000Y-91450000D02*
X139000000Y-91450000D01*
X141100000Y-91450000D02*
X142202400Y-91450000D01*
X142202400Y-91450000D02*
X143500000Y-91450000D01*
X145600000Y-91450000D02*
X143500000Y-91450000D01*
X143600000Y-94125000D02*
X143600000Y-91550000D01*
X143600000Y-91550000D02*
X143500000Y-91450000D01*
X161010000Y-110190000D02*
X161310000Y-110190000D01*
X161310000Y-110190000D02*
X162100000Y-109400000D01*
X161010000Y-109790000D02*
X161710000Y-109790000D01*
X161710000Y-109790000D02*
X162100000Y-109400000D01*
X162690000Y-109000000D02*
X162500000Y-109000000D01*
X162500000Y-109000000D02*
X162100000Y-109400000D01*
X162130000Y-108590000D02*
X162280000Y-108590000D01*
X162280000Y-108590000D02*
X162690000Y-109000000D01*
X162700000Y-108190000D02*
X162530000Y-108190000D01*
X162530000Y-108190000D02*
X162130000Y-108590000D01*
X162150000Y-107780000D02*
X162290000Y-107780000D01*
X162290000Y-107780000D02*
X162700000Y-108190000D01*
X162770000Y-107390000D02*
X162540000Y-107390000D01*
X162540000Y-107390000D02*
X162150000Y-107780000D01*
X162160000Y-106990000D02*
X162370000Y-106990000D01*
X162370000Y-106990000D02*
X162770000Y-107390000D01*
X162740000Y-106530000D02*
X162620000Y-106530000D01*
X162620000Y-106530000D02*
X162160000Y-106990000D01*
X162000000Y-105790000D02*
X162400000Y-106190000D01*
X162400000Y-106190000D02*
X162740000Y-106530000D01*
X161010000Y-106190000D02*
X161492400Y-106190000D01*
X161492400Y-106190000D02*
X162400000Y-106190000D01*
X161010000Y-105790000D02*
X162000000Y-105790000D01*
X161010000Y-106590000D02*
X162680000Y-106590000D01*
X162680000Y-106590000D02*
X162740000Y-106530000D01*
X162160000Y-106990000D02*
X161010000Y-106990000D01*
X161010000Y-107390000D02*
X162770000Y-107390000D01*
X162150000Y-107780000D02*
X161020000Y-107780000D01*
X161020000Y-107780000D02*
X161010000Y-107790000D01*
X161010000Y-108190000D02*
X162700000Y-108190000D01*
X162130000Y-108590000D02*
X161010000Y-108590000D01*
X161010000Y-108990000D02*
X162680000Y-108990000D01*
X162680000Y-108990000D02*
X162690000Y-109000000D01*
X162100000Y-109400000D02*
X161020000Y-109400000D01*
X161020000Y-109400000D02*
X161010000Y-109390000D01*
X154500000Y-123000000D02*
X155750000Y-121750000D01*
X155750000Y-121750000D02*
X155750000Y-121498860D01*
X155750000Y-121750000D02*
X155750000Y-121647720D01*
X132760000Y-110300000D02*
X132760000Y-109697600D01*
X132492400Y-109250000D02*
X132250000Y-109250000D01*
X132312400Y-109250000D02*
X132250000Y-109250000D01*
X132760000Y-109697600D02*
X132312400Y-109250000D01*
X132850000Y-108892400D02*
X132492400Y-109250000D01*
X132850000Y-108290000D02*
X132850000Y-108892400D01*
X155640000Y-90890000D02*
X154610000Y-90890000D01*
X154610000Y-90890000D02*
X154600000Y-90880000D01*
D29*
X158601140Y-99350000D02*
X158601140Y-98921140D01*
X158601140Y-98921140D02*
X157840000Y-98160000D01*
X158601140Y-99350000D02*
X158601140Y-98928860D01*
X158601140Y-98928860D02*
X159380000Y-98150000D01*
X158601140Y-99350000D02*
X158601140Y-98141140D01*
X158601140Y-98141140D02*
X158600000Y-98140000D01*
D28*
X156700000Y-124501140D02*
X156998860Y-124501140D01*
X156998860Y-124501140D02*
X157750000Y-123750000D01*
X157750000Y-123750000D02*
X157600000Y-123750000D01*
X156180000Y-107410000D02*
X156490000Y-107410000D01*
X156490000Y-107410000D02*
X156850000Y-107770000D01*
X156220000Y-108180000D02*
X156440000Y-108180000D01*
X156440000Y-108180000D02*
X156850000Y-107770000D01*
D29*
X161820000Y-98320000D02*
X159840000Y-100300000D01*
X159840000Y-100300000D02*
X155598860Y-100300000D01*
X162650000Y-98320000D02*
X161820000Y-98320000D01*
X164060000Y-99730000D02*
X162650000Y-98320000D01*
X164060000Y-104460000D02*
X164060000Y-99730000D01*
X163627807Y-104892193D02*
X164060000Y-104460000D01*
X160637807Y-104892193D02*
X163627807Y-104892193D01*
X159650000Y-105880000D02*
X160637807Y-104892193D01*
X159650000Y-109910000D02*
X159650000Y-105880000D01*
D28*
X159370000Y-110190000D02*
X159650000Y-109910000D01*
X158300000Y-110190000D02*
X159370000Y-110190000D01*
X158300000Y-106990000D02*
X156840000Y-106990000D01*
X156840000Y-106990000D02*
X156600000Y-106990000D01*
X158300000Y-106590000D02*
X157817600Y-106590000D01*
X157817600Y-106590000D02*
X157417600Y-106990000D01*
X157417600Y-106990000D02*
X156840000Y-106990000D01*
X156600000Y-106990000D02*
X156180000Y-107410000D01*
X156180000Y-107410000D02*
X158280000Y-107410000D01*
X158280000Y-107410000D02*
X158300000Y-107390000D01*
X158300000Y-107790000D02*
X156870000Y-107790000D01*
X156870000Y-107790000D02*
X156850000Y-107770000D01*
X156840000Y-108580000D02*
X156620000Y-108580000D01*
X156620000Y-108580000D02*
X156220000Y-108180000D01*
X156230000Y-108980000D02*
X156440000Y-108980000D01*
X156440000Y-108980000D02*
X156840000Y-108580000D01*
X156860000Y-109400000D02*
X156650000Y-109400000D01*
X156650000Y-109400000D02*
X156230000Y-108980000D01*
X158300000Y-109790000D02*
X157250000Y-109790000D01*
X157250000Y-109790000D02*
X156860000Y-109400000D01*
X158300000Y-109390000D02*
X156870000Y-109390000D01*
X156870000Y-109390000D02*
X156860000Y-109400000D01*
X156220000Y-108180000D02*
X158290000Y-108180000D01*
X158290000Y-108180000D02*
X158300000Y-108190000D01*
X158300000Y-108590000D02*
X156850000Y-108590000D01*
X156850000Y-108590000D02*
X156840000Y-108580000D01*
X156230000Y-108980000D02*
X158290000Y-108980000D01*
X158290000Y-108980000D02*
X158300000Y-108990000D01*
X158300000Y-110190000D02*
X157650000Y-110190000D01*
X157650000Y-110190000D02*
X156860000Y-109400000D01*
D29*
X151420253Y-95375823D02*
X147516453Y-95375823D01*
X154444430Y-98400000D02*
X151420253Y-95375823D01*
X155598860Y-98400000D02*
X154444430Y-98400000D01*
X147516453Y-95375823D02*
X147031520Y-95375823D01*
X141455126Y-95509126D02*
X141580874Y-95509126D01*
X141000000Y-95054000D02*
X141455126Y-95509126D01*
X141000000Y-94125000D02*
X141000000Y-95054000D01*
D28*
X158090000Y-92580000D02*
X158090000Y-91290220D01*
X158090000Y-91290220D02*
X157689780Y-90890000D01*
X157689780Y-90890000D02*
X157138600Y-90890000D01*
X141995190Y-95028601D02*
X141995191Y-95039366D01*
X141871399Y-94982881D02*
X141917119Y-95028601D01*
X145244813Y-95844813D02*
X146171501Y-96771501D01*
X141650000Y-94125000D02*
X141871399Y-94125000D01*
X141995191Y-95039366D02*
X142800635Y-95844810D01*
X142800635Y-95844810D02*
X145244813Y-95844813D01*
X145659566Y-99286256D02*
X145659566Y-99371501D01*
X146171501Y-96771501D02*
X146171501Y-98774321D01*
X141917119Y-95028601D02*
X141995190Y-95028601D01*
X141871399Y-94125000D02*
X141871399Y-94982881D01*
X145659566Y-99371501D02*
X141934396Y-103096670D01*
X141934396Y-103096670D02*
X141934396Y-103472667D01*
X146171501Y-98774321D02*
X145659566Y-99286256D01*
X141650000Y-94125000D02*
X141650000Y-94740000D01*
X144705581Y-110082899D02*
X145048480Y-109740000D01*
X143878529Y-110909951D02*
X144705581Y-110082899D01*
X143878529Y-114696896D02*
X143878529Y-110909951D01*
X145107982Y-115926349D02*
X143878529Y-114696896D01*
X142505898Y-102956236D02*
X142505898Y-103831707D01*
X144770000Y-95540000D02*
X145371071Y-95540004D01*
X145371071Y-95540004D02*
X146483186Y-96652120D01*
X142505898Y-103831707D02*
X142623734Y-103949543D01*
X146483186Y-98893702D02*
X146124681Y-99252207D01*
X146124681Y-99252207D02*
X146124681Y-99337453D01*
X146483186Y-96652120D02*
X146483186Y-98893702D01*
X146124681Y-99337453D02*
X142505898Y-102956236D01*
X142926891Y-95540000D02*
X144770000Y-95540000D01*
X144770000Y-95520000D02*
X144340000Y-95090000D01*
X144770000Y-95540000D02*
X144770000Y-95520000D01*
X142300000Y-94125000D02*
X142300000Y-94913109D01*
X142300000Y-94913109D02*
X142926891Y-95540000D01*
X144540000Y-113680000D02*
X144540000Y-111470000D01*
X144540000Y-111470000D02*
X145700000Y-110310000D01*
X144680000Y-114180000D02*
X144680000Y-113820000D01*
X144680000Y-113820000D02*
X144540000Y-113680000D01*
X145910000Y-116170000D02*
X145679483Y-115939483D01*
X145679483Y-115939483D02*
X145679483Y-115578417D01*
X145679483Y-115578417D02*
X144680000Y-114578934D01*
X144680000Y-114578934D02*
X144680000Y-114180000D01*
X136122613Y-115978209D02*
X136122613Y-116463142D01*
X138380000Y-119490000D02*
X139780000Y-120890000D01*
X136122613Y-116463142D02*
X138380000Y-118720529D01*
X138380000Y-118720529D02*
X138380000Y-119490000D01*
X139780000Y-120890000D02*
X145230000Y-120890000D01*
X145230000Y-120890000D02*
X146700000Y-122360000D01*
X135431209Y-116452087D02*
X135431209Y-117211209D01*
X139477799Y-121200000D02*
X143000000Y-121200000D01*
X135431209Y-117211209D02*
X139477799Y-121257799D01*
X139477799Y-121257799D02*
X139477799Y-121200000D01*
X143000000Y-121200000D02*
X144160000Y-122360000D01*
X144093904Y-107098866D02*
X153704677Y-107098866D01*
X139452899Y-107632899D02*
X143559871Y-107632899D01*
X156309753Y-106418480D02*
X156749727Y-106418480D01*
X153704677Y-107098866D02*
X153817561Y-106985982D01*
X143559871Y-107632899D02*
X144093904Y-107098866D01*
X139110000Y-107290000D02*
X139452899Y-107632899D01*
X153817561Y-106985982D02*
X155742251Y-106985982D01*
X155742251Y-106985982D02*
X156309753Y-106418480D01*
X157607944Y-106190000D02*
X157379464Y-106418480D01*
X157379464Y-106418480D02*
X157234660Y-106418480D01*
X157234660Y-106418480D02*
X156749727Y-106418480D01*
X158300000Y-105790000D02*
X158007944Y-105790000D01*
X158007944Y-105790000D02*
X157607944Y-106190000D01*
X158300000Y-106190000D02*
X157607944Y-106190000D01*
X152777400Y-90650000D02*
X153530000Y-90650000D01*
X164340000Y-115828934D02*
X164340000Y-112313470D01*
X153970000Y-95710000D02*
X154840000Y-96580000D01*
X154840000Y-96580000D02*
X161560000Y-96580000D01*
X161560000Y-96580000D02*
X164610000Y-99630000D01*
X161268934Y-118900000D02*
X164340000Y-115828934D01*
X163540079Y-111513549D02*
X163197180Y-111170650D01*
X164340000Y-112313470D02*
X163540079Y-111513549D01*
X164610000Y-99630000D02*
X164610000Y-108744178D01*
X164610000Y-108744178D02*
X162854281Y-110499897D01*
X162854281Y-110499897D02*
X162854281Y-110827751D01*
X162854281Y-110827751D02*
X163197180Y-111170650D01*
X151800000Y-90775000D02*
X152652400Y-90775000D01*
X152652400Y-90775000D02*
X152777400Y-90650000D01*
X153530000Y-90650000D02*
X153970000Y-91090000D01*
X153970000Y-91090000D02*
X153970000Y-95710000D01*
X151550000Y-121498860D02*
X151550000Y-120998480D01*
X152298480Y-120250000D02*
X157004176Y-120250000D01*
X151550000Y-120998480D02*
X152298480Y-120250000D01*
X157004176Y-120250000D02*
X157725678Y-120971502D01*
X157725678Y-120971502D02*
X159197432Y-120971502D01*
X159197432Y-120971502D02*
X161268934Y-118900000D01*
X140967450Y-103390127D02*
X141109873Y-103390127D01*
X141109873Y-103390127D02*
X145600000Y-98900000D01*
X145600000Y-98900000D02*
X145600000Y-98500000D01*
X146980000Y-94331482D02*
X146360000Y-94951482D01*
X146360000Y-95870000D02*
X147054688Y-96564688D01*
X147054688Y-96564688D02*
X147054688Y-96885297D01*
X148025000Y-90775000D02*
X146980000Y-91820000D01*
X146980000Y-91820000D02*
X146980000Y-94331482D01*
X147054688Y-96885297D02*
X147054688Y-97370230D01*
X148200000Y-90775000D02*
X148025000Y-90775000D01*
X146360000Y-94951482D02*
X146360000Y-95870000D01*
X159500000Y-118900000D02*
X160577630Y-118900000D01*
X160577630Y-118900000D02*
X161268934Y-118900000D01*
X148200000Y-90775000D02*
X151800000Y-90775000D01*
X154800000Y-124501140D02*
X154800000Y-124000760D01*
X154800000Y-124000760D02*
X155700760Y-123100000D01*
X155700760Y-123100000D02*
X157500000Y-123100000D01*
X157500000Y-123100000D02*
X161700000Y-118900000D01*
X164042899Y-110842899D02*
X163700000Y-110500000D01*
X161700000Y-118900000D02*
X164800000Y-115800000D01*
X164800000Y-115800000D02*
X164800000Y-111600000D01*
X164800000Y-111600000D02*
X164042899Y-110842899D01*
X163600000Y-118900000D02*
X162522370Y-118900000D01*
X162522370Y-118900000D02*
X161700000Y-118900000D01*
X154800000Y-124650000D02*
X154800000Y-124149620D01*
X156258231Y-104269873D02*
X156115373Y-104127015D01*
X162486303Y-104269873D02*
X156258231Y-104269873D01*
X148070000Y-104350000D02*
X146810000Y-104350000D01*
X153670803Y-104546338D02*
X153722618Y-104546338D01*
X153722618Y-104546338D02*
X154019798Y-104249158D01*
X159394533Y-101270000D02*
X161585116Y-99079417D01*
X161585116Y-99079417D02*
X162070049Y-99079417D01*
X155943699Y-101270000D02*
X159394533Y-101270000D01*
X154019798Y-103193901D02*
X155943699Y-101270000D01*
X137800000Y-104070000D02*
X141898367Y-104070000D01*
X154019798Y-104249158D02*
X154019798Y-103193901D01*
X143260000Y-105270000D02*
X152947141Y-105270000D01*
X152947141Y-105270000D02*
X153670803Y-104546338D01*
X141898367Y-104070000D02*
X142349412Y-104521045D01*
X142349412Y-104521045D02*
X142511045Y-104521045D01*
X142511045Y-104521045D02*
X143260000Y-105270000D01*
X153797059Y-104851149D02*
X153848874Y-104851149D01*
X153848874Y-104851149D02*
X154324609Y-104375414D01*
X161656421Y-100257538D02*
X161999320Y-99914639D01*
X156069955Y-101574811D02*
X160339148Y-101574811D01*
X160339148Y-101574811D02*
X161656421Y-100257538D01*
X154324609Y-103320157D02*
X156069955Y-101574811D01*
X153073397Y-105574811D02*
X153797059Y-104851149D01*
X142384790Y-104825856D02*
X143133744Y-105574811D01*
X143133744Y-105574811D02*
X153073397Y-105574811D01*
X154324609Y-104375414D02*
X154324609Y-103320157D01*
X142223156Y-104825856D02*
X142384790Y-104825856D01*
X142195320Y-104798020D02*
X142223156Y-104825856D01*
X137384564Y-104798020D02*
X142195320Y-104798020D01*
X162238708Y-100486141D02*
X162797089Y-99927760D01*
X154629420Y-104501670D02*
X154629420Y-103446413D01*
X142258624Y-105130757D02*
X143007488Y-105879622D01*
X153199653Y-105879622D02*
X153923315Y-105155960D01*
X143007488Y-105879622D02*
X153199653Y-105879622D01*
X138307236Y-105130757D02*
X142258624Y-105130757D01*
X153975130Y-105155960D02*
X154629420Y-104501670D01*
X162797089Y-99927760D02*
X162797089Y-99657418D01*
X154629420Y-103446413D02*
X155434771Y-102641062D01*
X153923315Y-105155960D02*
X153975130Y-105155960D01*
X159758938Y-102641062D02*
X161913859Y-100486141D01*
X161913859Y-100486141D02*
X162238708Y-100486141D01*
X155434771Y-102641062D02*
X159758938Y-102641062D01*
X137964337Y-105473656D02*
X138307236Y-105130757D01*
X154049571Y-105460771D02*
X154101386Y-105460771D01*
X160614127Y-102945873D02*
X162707101Y-100852899D01*
X162707101Y-100852899D02*
X163050000Y-100510000D01*
X155561027Y-102945873D02*
X160614127Y-102945873D01*
X154934231Y-104627926D02*
X154934231Y-103572669D01*
X141529745Y-106064433D02*
X141959745Y-105634433D01*
X141959745Y-105634433D02*
X142331233Y-105634433D01*
X136996903Y-106064433D02*
X141529745Y-106064433D01*
X136534025Y-105601555D02*
X136996903Y-106064433D01*
X154101386Y-105460771D02*
X154934231Y-104627926D01*
X142331233Y-105634433D02*
X142881232Y-106184433D01*
X154934231Y-103572669D02*
X155561027Y-102945873D01*
X153325909Y-106184433D02*
X154049571Y-105460771D01*
X142881232Y-106184433D02*
X153325909Y-106184433D01*
X153655501Y-116945501D02*
X160560082Y-116945501D01*
X149200000Y-112490000D02*
X153655501Y-116945501D01*
X145570000Y-112490000D02*
X149200000Y-112490000D01*
X160560082Y-116945501D02*
X161045015Y-116945501D01*
X161688037Y-116372672D02*
X153513738Y-116372672D01*
X146853413Y-111870000D02*
X146368480Y-111870000D01*
X149011066Y-111870000D02*
X146853413Y-111870000D01*
X153513738Y-116372672D02*
X149011066Y-111870000D01*
X139548365Y-119850115D02*
X139997357Y-119401123D01*
X139997357Y-119401123D02*
X150112457Y-119401123D01*
X150112457Y-119401123D02*
X150130771Y-119419437D01*
X150130771Y-119419437D02*
X150615704Y-119419437D01*
X150261810Y-120600476D02*
X150604709Y-120257577D01*
X149547389Y-120600476D02*
X150261810Y-120600476D01*
X140830000Y-120318480D02*
X149265393Y-120318480D01*
X149265393Y-120318480D02*
X149547389Y-120600476D01*
X159191626Y-114121626D02*
X156800000Y-111730000D01*
X155020000Y-111730000D02*
X153230681Y-109940681D01*
X156800000Y-111730000D02*
X155020000Y-111730000D01*
X163326569Y-114121626D02*
X159191626Y-114121626D01*
X153230681Y-108803865D02*
X153230681Y-108318932D01*
X153230681Y-109940681D02*
X153230681Y-108803865D01*
X156480000Y-110750000D02*
X159014950Y-113284950D01*
X159014950Y-113284950D02*
X163275858Y-113284950D01*
X154910000Y-110750000D02*
X156480000Y-110750000D01*
X156606256Y-110445189D02*
X155586255Y-110445189D01*
X158682330Y-112521264D02*
X156606256Y-110445189D01*
X162930340Y-112521264D02*
X158682330Y-112521264D01*
X155056965Y-109915899D02*
X154606143Y-109915899D01*
X155586255Y-110445189D02*
X155056965Y-109915899D01*
X154606143Y-109915899D02*
X154121210Y-109915899D01*
X157500000Y-119900000D02*
X157657101Y-120057101D01*
X151170000Y-115540000D02*
X155530000Y-119900000D01*
X155530000Y-119900000D02*
X157500000Y-119900000D01*
X157657101Y-120057101D02*
X158000000Y-120400000D01*
X155344017Y-113319716D02*
X155644019Y-113619718D01*
X154169716Y-113319716D02*
X155344017Y-113319716D01*
X153500000Y-112650000D02*
X154169716Y-113319716D01*
X153711217Y-113891217D02*
X154366062Y-113891217D01*
X154366062Y-113891217D02*
X154850995Y-113891217D01*
X152540874Y-112720874D02*
X153711217Y-113891217D01*
X154412260Y-114728154D02*
X154897193Y-114728154D01*
X151167644Y-111601748D02*
X150824745Y-111944647D01*
X150824745Y-111944647D02*
X150824745Y-112780569D01*
X150824745Y-112780569D02*
X152772330Y-114728154D01*
X152772330Y-114728154D02*
X154412260Y-114728154D01*
X149036104Y-117389743D02*
X149521037Y-117389743D01*
X145379249Y-117389743D02*
X149036104Y-117389743D01*
X144491023Y-116501517D02*
X145379249Y-117389743D01*
X149975738Y-118791501D02*
X150496543Y-118270696D01*
X150496543Y-118270696D02*
X150578503Y-118270696D01*
X141445824Y-118200000D02*
X148864178Y-118200000D01*
X148864178Y-118200000D02*
X149455679Y-118791501D01*
X137761390Y-115799570D02*
X138104289Y-115456671D01*
X149455679Y-118791501D02*
X149975738Y-118791501D01*
X138104289Y-115456671D02*
X138702495Y-115456671D01*
X138702495Y-115456671D02*
X141445824Y-118200000D01*
X150384690Y-118842198D02*
X151077802Y-118842198D01*
X151297101Y-118622899D02*
X151640000Y-118280000D01*
X150130577Y-119096312D02*
X150384690Y-118842198D01*
X151077802Y-118842198D02*
X151297101Y-118622899D01*
X141526312Y-119096312D02*
X150130577Y-119096312D01*
X138540000Y-116110000D02*
X141526312Y-119096312D01*
X153946599Y-111896293D02*
X154798502Y-112748196D01*
X154798502Y-112748196D02*
X155068609Y-112748196D01*
X152390323Y-111896293D02*
X153946599Y-111896293D01*
X151818821Y-112076246D02*
X151818821Y-111621971D01*
X151620000Y-112760000D02*
X151620000Y-112275067D01*
X151818821Y-111621971D02*
X152116001Y-111324791D01*
X154794287Y-112176694D02*
X155592755Y-112176694D01*
X155592755Y-112176694D02*
X155842682Y-112426621D01*
X152116001Y-111324791D02*
X153942384Y-111324791D01*
X151620000Y-112275067D02*
X151818821Y-112076246D01*
X153942384Y-111324791D02*
X154794287Y-112176694D01*
X147632211Y-110271520D02*
X147511520Y-110392211D01*
X151170000Y-110271520D02*
X147632211Y-110271520D01*
X147748198Y-109538860D02*
X147263265Y-109538860D01*
X151817340Y-109538860D02*
X147748198Y-109538860D01*
X152190000Y-109911520D02*
X151817340Y-109538860D01*
X147735679Y-109203023D02*
X147438499Y-108905843D01*
X144568421Y-108905843D02*
X143105906Y-110368358D01*
X143105906Y-110368358D02*
X142763007Y-110711257D01*
X147438499Y-108905843D02*
X144568421Y-108905843D01*
X152460000Y-107811520D02*
X152460000Y-108296453D01*
X152460000Y-108296453D02*
X151553430Y-109203023D01*
X151553430Y-109203023D02*
X147735679Y-109203023D01*
X141579422Y-108426313D02*
X141519422Y-108366313D01*
X134177119Y-110978601D02*
X141310253Y-110978601D01*
X143740578Y-108426313D02*
X141579422Y-108426313D01*
X147791675Y-108030000D02*
X147535362Y-108286313D01*
X141519422Y-108366313D02*
X136612621Y-108366313D01*
X141310253Y-110978601D02*
X141827402Y-110461452D01*
X134131399Y-109667119D02*
X134131399Y-110932881D01*
X141827402Y-110461452D02*
X142170301Y-110118553D01*
X151630000Y-108030000D02*
X147791675Y-108030000D01*
X147535362Y-108286313D02*
X143880578Y-108286313D01*
X136612621Y-108366313D02*
X135357535Y-109621399D01*
X135357535Y-109621399D02*
X134177119Y-109621399D01*
X134177119Y-109621399D02*
X134131399Y-109667119D01*
X134131399Y-110932881D02*
X134177119Y-110978601D01*
X143880578Y-108286313D02*
X143740578Y-108426313D01*
X146840532Y-107670386D02*
X147325465Y-107670386D01*
X146537633Y-107973285D02*
X146840532Y-107670386D01*
X138947461Y-107973285D02*
X146537633Y-107973285D01*
X138491138Y-107516962D02*
X138947461Y-107973285D01*
X135973038Y-107516962D02*
X138491138Y-107516962D01*
X135050000Y-108290000D02*
X135200000Y-108290000D01*
X135200000Y-108290000D02*
X135973038Y-107516962D01*
X136678876Y-108731124D02*
X143866834Y-108731124D01*
X135110000Y-110300000D02*
X136678876Y-108731124D01*
X147969602Y-108591124D02*
X148010000Y-108631522D01*
X134960000Y-110300000D02*
X135110000Y-110300000D01*
X144006834Y-108591124D02*
X147969602Y-108591124D01*
X143866834Y-108731124D02*
X144006834Y-108591124D01*
X149294027Y-99894069D02*
X149294027Y-101356531D01*
X149041934Y-101608624D02*
X148699035Y-101951523D01*
X149294027Y-101356531D02*
X149041934Y-101608624D01*
X146280000Y-113340000D02*
X146700000Y-113760000D01*
X146700000Y-113760000D02*
X146700000Y-116460000D01*
X149791501Y-101943340D02*
X149791501Y-101924323D01*
X153139324Y-98576500D02*
X153582322Y-98576500D01*
X153582322Y-98576500D02*
X154466152Y-99460330D01*
X154466152Y-99460330D02*
X154466152Y-99994539D01*
X154466152Y-99994539D02*
X154145622Y-100315069D01*
X154145622Y-100315069D02*
X154145622Y-100800002D01*
X148914645Y-102820196D02*
X149791501Y-101943340D01*
X149791501Y-101924323D02*
X153139324Y-98576500D01*
X152638212Y-104248692D02*
X152247101Y-103857581D01*
X152247101Y-100502880D02*
X152498351Y-100251630D01*
X152247101Y-103857581D02*
X152247101Y-100502880D01*
X152498351Y-100251630D02*
X152841250Y-99908731D01*
X153448296Y-99971704D02*
X153750000Y-99670000D01*
X153448296Y-103974836D02*
X153448296Y-99971704D01*
X152500000Y-124501140D02*
X149998860Y-124501140D01*
X149998860Y-124501140D02*
X149500000Y-125000000D01*
X148249715Y-99778537D02*
X144833531Y-103194721D01*
X148601309Y-99778537D02*
X148249715Y-99778537D01*
X149529846Y-98850000D02*
X148601309Y-99778537D01*
X144833531Y-103194721D02*
X144833531Y-103401305D01*
X152020000Y-98850000D02*
X149529846Y-98850000D01*
X147984088Y-99549934D02*
X148326987Y-99207035D01*
X146706739Y-100827283D02*
X147984088Y-99549934D01*
X146355973Y-100827283D02*
X146706739Y-100827283D01*
X143926091Y-103257165D02*
X146355973Y-100827283D01*
X145784042Y-100519337D02*
X146548120Y-100519337D01*
X143088970Y-103214409D02*
X145784042Y-100519337D01*
X147492253Y-99575204D02*
X147492253Y-99130749D01*
X146548120Y-100519337D02*
X147492253Y-99575204D01*
X136640752Y-103573426D02*
X136640752Y-104444057D01*
X135752857Y-105331952D02*
X135407287Y-105331952D01*
X137175679Y-103038499D02*
X136640752Y-103573426D01*
X140128499Y-100636434D02*
X137726434Y-103038499D01*
X140128499Y-98325679D02*
X140128499Y-100636434D01*
X140300000Y-92865067D02*
X140300000Y-98154178D01*
X139600000Y-92650000D02*
X140084933Y-92650000D01*
X137726434Y-103038499D02*
X137175679Y-103038499D01*
X136640752Y-104444057D02*
X135752857Y-105331952D01*
X140084933Y-92650000D02*
X140300000Y-92865067D01*
X140300000Y-98154178D02*
X140128499Y-98325679D01*
X135407287Y-105331952D02*
X134922354Y-105331952D01*
X134552899Y-104622899D02*
X135637902Y-104622899D01*
X133410000Y-101775822D02*
X133410000Y-103480000D01*
X133338499Y-101704321D02*
X133410000Y-101775822D01*
X133338499Y-101155679D02*
X133338499Y-101704321D01*
X133410000Y-101084178D02*
X133338499Y-101155679D01*
X133410000Y-103480000D02*
X134552899Y-104622899D01*
X135558499Y-93601501D02*
X133410000Y-95750000D01*
X135558499Y-93505679D02*
X135558499Y-93601501D01*
X133410000Y-95750000D02*
X133410000Y-101084178D01*
X136434178Y-92630000D02*
X135558499Y-93505679D01*
X138340000Y-92630000D02*
X136434178Y-92630000D01*
X135637902Y-104622899D02*
X135768844Y-104491957D01*
X132838480Y-97474933D02*
X132838480Y-96990000D01*
X132838480Y-106261520D02*
X132838480Y-97474933D01*
X132230000Y-106870000D02*
X132838480Y-106261520D01*
X135054631Y-103575067D02*
X135054631Y-104051379D01*
X139330000Y-99299698D02*
X135054631Y-103575067D01*
X141174175Y-99856126D02*
X140831276Y-99513227D01*
X141331501Y-100013452D02*
X141174175Y-99856126D01*
X141331501Y-101018719D02*
X141331501Y-100013452D01*
X138496807Y-103368480D02*
X138981740Y-103368480D01*
X138981740Y-103368480D02*
X141331501Y-101018719D01*
X162395452Y-103126851D02*
X161910519Y-103126851D01*
X154175827Y-105765582D02*
X153452165Y-106489244D01*
X153452165Y-106489244D02*
X142377794Y-106489244D01*
X155239042Y-103698925D02*
X155239042Y-104754182D01*
X155687283Y-103250684D02*
X155239042Y-103698925D01*
X161786686Y-103250684D02*
X155687283Y-103250684D01*
X155239042Y-104754182D02*
X154227642Y-105765582D01*
X142377794Y-106489244D02*
X142229275Y-106340725D01*
X161910519Y-103126851D02*
X161786686Y-103250684D01*
X154227642Y-105765582D02*
X154175827Y-105765582D01*
X163160000Y-103660000D02*
X162675067Y-103660000D01*
X143773709Y-106794055D02*
X143482365Y-107085399D01*
X162636695Y-103698372D02*
X161579438Y-103698372D01*
X154353898Y-106070393D02*
X154302083Y-106070393D01*
X154302083Y-106070393D02*
X153578421Y-106794055D01*
X155543853Y-104880438D02*
X154353898Y-106070393D01*
X162675067Y-103660000D02*
X162636695Y-103698372D01*
X141836527Y-107085399D02*
X141493628Y-106742500D01*
X161436561Y-103555495D02*
X155813539Y-103555495D01*
X161579438Y-103698372D02*
X161436561Y-103555495D01*
X155813539Y-103555495D02*
X155543853Y-103825181D01*
X155543853Y-103825181D02*
X155543853Y-104880438D01*
X153578421Y-106794055D02*
X143773709Y-106794055D01*
X143482365Y-107085399D02*
X141836527Y-107085399D01*
G36*
X164094726Y-90710653D02*
X164810850Y-91189152D01*
X165289347Y-91905274D01*
X165467800Y-92802417D01*
X165467800Y-123197583D01*
X165289347Y-124094726D01*
X164810850Y-124810848D01*
X164094726Y-125289347D01*
X163197583Y-125467800D01*
X157552795Y-125467800D01*
X157566207Y-125401570D01*
X157566207Y-124688135D01*
X157704281Y-124550061D01*
X157908452Y-124550239D01*
X158202628Y-124428687D01*
X158427896Y-124203812D01*
X158549961Y-123909848D01*
X158550198Y-123637603D01*
X161292461Y-123637603D01*
X161589799Y-124357216D01*
X162139888Y-124908266D01*
X162858981Y-125206860D01*
X163637603Y-125207539D01*
X164357216Y-124910201D01*
X164908266Y-124360112D01*
X165206860Y-123641019D01*
X165207539Y-122862397D01*
X164910201Y-122142784D01*
X164360112Y-121591734D01*
X163641019Y-121293140D01*
X162862397Y-121292461D01*
X162142784Y-121589799D01*
X161591734Y-122139888D01*
X161293140Y-122858981D01*
X161292461Y-123637603D01*
X158550198Y-123637603D01*
X158550239Y-123591548D01*
X158428687Y-123297372D01*
X158242991Y-123111351D01*
X161920942Y-119433400D01*
X162501219Y-119433400D01*
X162565809Y-119589719D01*
X162908477Y-119932985D01*
X163356422Y-120118988D01*
X163841450Y-120119412D01*
X164289719Y-119934191D01*
X164632985Y-119591523D01*
X164818988Y-119143578D01*
X164819412Y-118658550D01*
X164634191Y-118210281D01*
X164291523Y-117867015D01*
X163843578Y-117681012D01*
X163673479Y-117680863D01*
X165177171Y-116177171D01*
X165292797Y-116004123D01*
X165333400Y-115800000D01*
X165333400Y-111600005D01*
X165333401Y-111600000D01*
X165292797Y-111395877D01*
X165288304Y-111389153D01*
X165177171Y-111222829D01*
X165177168Y-111222827D01*
X164500061Y-110545719D01*
X164500239Y-110341548D01*
X164378687Y-110047372D01*
X164220056Y-109888464D01*
X164987168Y-109121351D01*
X164987171Y-109121349D01*
X165102797Y-108948301D01*
X165108604Y-108919110D01*
X165143401Y-108744178D01*
X165143400Y-108744173D01*
X165143400Y-99630000D01*
X165117888Y-99501742D01*
X165102797Y-99425876D01*
X165047285Y-99342797D01*
X164987171Y-99252829D01*
X164987168Y-99252827D01*
X161937171Y-96202829D01*
X161764123Y-96087203D01*
X161560000Y-96046600D01*
X155060942Y-96046600D01*
X154644481Y-95630139D01*
X154758452Y-95630239D01*
X155052628Y-95508687D01*
X155277896Y-95283812D01*
X155399961Y-94989848D01*
X155400239Y-94671548D01*
X155326881Y-94494009D01*
X155419961Y-94269848D01*
X155420239Y-93951548D01*
X155298687Y-93657372D01*
X155255590Y-93614200D01*
X155566150Y-93614200D01*
X155712200Y-93468150D01*
X155712200Y-92757800D01*
X154851850Y-92757800D01*
X154705800Y-92903850D01*
X154705800Y-93146204D01*
X154773660Y-93310034D01*
X154503400Y-93309798D01*
X154503400Y-91680016D01*
X154758452Y-91680239D01*
X154911645Y-91616940D01*
X154950397Y-91643419D01*
X154794739Y-91799078D01*
X154705800Y-92013796D01*
X154705800Y-92256150D01*
X154851850Y-92402200D01*
X155712200Y-92402200D01*
X155712200Y-92382200D01*
X156067800Y-92382200D01*
X156067800Y-92402200D01*
X156087800Y-92402200D01*
X156087800Y-92757800D01*
X156067800Y-92757800D01*
X156067800Y-93468150D01*
X156213850Y-93614200D01*
X156606205Y-93614200D01*
X156820923Y-93525261D01*
X156985261Y-93360922D01*
X157054608Y-93193503D01*
X157055723Y-93199428D01*
X157155855Y-93355038D01*
X157308639Y-93459430D01*
X157490000Y-93496157D01*
X158690000Y-93496157D01*
X158859428Y-93464277D01*
X159015038Y-93364145D01*
X159119430Y-93211361D01*
X159134366Y-93137603D01*
X161292461Y-93137603D01*
X161589799Y-93857216D01*
X162139888Y-94408266D01*
X162858981Y-94706860D01*
X163637603Y-94707539D01*
X164357216Y-94410201D01*
X164908266Y-93860112D01*
X165206860Y-93141019D01*
X165207539Y-92362397D01*
X164910201Y-91642784D01*
X164360112Y-91091734D01*
X163641019Y-90793140D01*
X162862397Y-90792461D01*
X162142784Y-91089799D01*
X161591734Y-91639888D01*
X161293140Y-92358981D01*
X161292461Y-93137603D01*
X159134366Y-93137603D01*
X159156157Y-93030000D01*
X159156157Y-92130000D01*
X159124277Y-91960572D01*
X159024145Y-91804962D01*
X158871361Y-91700570D01*
X158690000Y-91663843D01*
X158623400Y-91663843D01*
X158623400Y-91290225D01*
X158623401Y-91290220D01*
X158582797Y-91086097D01*
X158562265Y-91055369D01*
X158467171Y-90913049D01*
X158467168Y-90913047D01*
X158086322Y-90532200D01*
X163197583Y-90532200D01*
X164094726Y-90710653D01*
X164094726Y-90710653D01*
G37*
X164094726Y-90710653D02*
X164810850Y-91189152D01*
X165289347Y-91905274D01*
X165467800Y-92802417D01*
X165467800Y-123197583D01*
X165289347Y-124094726D01*
X164810850Y-124810848D01*
X164094726Y-125289347D01*
X163197583Y-125467800D01*
X157552795Y-125467800D01*
X157566207Y-125401570D01*
X157566207Y-124688135D01*
X157704281Y-124550061D01*
X157908452Y-124550239D01*
X158202628Y-124428687D01*
X158427896Y-124203812D01*
X158549961Y-123909848D01*
X158550198Y-123637603D01*
X161292461Y-123637603D01*
X161589799Y-124357216D01*
X162139888Y-124908266D01*
X162858981Y-125206860D01*
X163637603Y-125207539D01*
X164357216Y-124910201D01*
X164908266Y-124360112D01*
X165206860Y-123641019D01*
X165207539Y-122862397D01*
X164910201Y-122142784D01*
X164360112Y-121591734D01*
X163641019Y-121293140D01*
X162862397Y-121292461D01*
X162142784Y-121589799D01*
X161591734Y-122139888D01*
X161293140Y-122858981D01*
X161292461Y-123637603D01*
X158550198Y-123637603D01*
X158550239Y-123591548D01*
X158428687Y-123297372D01*
X158242991Y-123111351D01*
X161920942Y-119433400D01*
X162501219Y-119433400D01*
X162565809Y-119589719D01*
X162908477Y-119932985D01*
X163356422Y-120118988D01*
X163841450Y-120119412D01*
X164289719Y-119934191D01*
X164632985Y-119591523D01*
X164818988Y-119143578D01*
X164819412Y-118658550D01*
X164634191Y-118210281D01*
X164291523Y-117867015D01*
X163843578Y-117681012D01*
X163673479Y-117680863D01*
X165177171Y-116177171D01*
X165292797Y-116004123D01*
X165333400Y-115800000D01*
X165333400Y-111600005D01*
X165333401Y-111600000D01*
X165292797Y-111395877D01*
X165288304Y-111389153D01*
X165177171Y-111222829D01*
X165177168Y-111222827D01*
X164500061Y-110545719D01*
X164500239Y-110341548D01*
X164378687Y-110047372D01*
X164220056Y-109888464D01*
X164987168Y-109121351D01*
X164987171Y-109121349D01*
X165102797Y-108948301D01*
X165108604Y-108919110D01*
X165143401Y-108744178D01*
X165143400Y-108744173D01*
X165143400Y-99630000D01*
X165117888Y-99501742D01*
X165102797Y-99425876D01*
X165047285Y-99342797D01*
X164987171Y-99252829D01*
X164987168Y-99252827D01*
X161937171Y-96202829D01*
X161764123Y-96087203D01*
X161560000Y-96046600D01*
X155060942Y-96046600D01*
X154644481Y-95630139D01*
X154758452Y-95630239D01*
X155052628Y-95508687D01*
X155277896Y-95283812D01*
X155399961Y-94989848D01*
X155400239Y-94671548D01*
X155326881Y-94494009D01*
X155419961Y-94269848D01*
X155420239Y-93951548D01*
X155298687Y-93657372D01*
X155255590Y-93614200D01*
X155566150Y-93614200D01*
X155712200Y-93468150D01*
X155712200Y-92757800D01*
X154851850Y-92757800D01*
X154705800Y-92903850D01*
X154705800Y-93146204D01*
X154773660Y-93310034D01*
X154503400Y-93309798D01*
X154503400Y-91680016D01*
X154758452Y-91680239D01*
X154911645Y-91616940D01*
X154950397Y-91643419D01*
X154794739Y-91799078D01*
X154705800Y-92013796D01*
X154705800Y-92256150D01*
X154851850Y-92402200D01*
X155712200Y-92402200D01*
X155712200Y-92382200D01*
X156067800Y-92382200D01*
X156067800Y-92402200D01*
X156087800Y-92402200D01*
X156087800Y-92757800D01*
X156067800Y-92757800D01*
X156067800Y-93468150D01*
X156213850Y-93614200D01*
X156606205Y-93614200D01*
X156820923Y-93525261D01*
X156985261Y-93360922D01*
X157054608Y-93193503D01*
X157055723Y-93199428D01*
X157155855Y-93355038D01*
X157308639Y-93459430D01*
X157490000Y-93496157D01*
X158690000Y-93496157D01*
X158859428Y-93464277D01*
X159015038Y-93364145D01*
X159119430Y-93211361D01*
X159134366Y-93137603D01*
X161292461Y-93137603D01*
X161589799Y-93857216D01*
X162139888Y-94408266D01*
X162858981Y-94706860D01*
X163637603Y-94707539D01*
X164357216Y-94410201D01*
X164908266Y-93860112D01*
X165206860Y-93141019D01*
X165207539Y-92362397D01*
X164910201Y-91642784D01*
X164360112Y-91091734D01*
X163641019Y-90793140D01*
X162862397Y-90792461D01*
X162142784Y-91089799D01*
X161591734Y-91639888D01*
X161293140Y-92358981D01*
X161292461Y-93137603D01*
X159134366Y-93137603D01*
X159156157Y-93030000D01*
X159156157Y-92130000D01*
X159124277Y-91960572D01*
X159024145Y-91804962D01*
X158871361Y-91700570D01*
X158690000Y-91663843D01*
X158623400Y-91663843D01*
X158623400Y-91290225D01*
X158623401Y-91290220D01*
X158582797Y-91086097D01*
X158562265Y-91055369D01*
X158467171Y-90913049D01*
X158467168Y-90913047D01*
X158086322Y-90532200D01*
X163197583Y-90532200D01*
X164094726Y-90710653D01*
G36*
X137877378Y-90578828D02*
X137988473Y-90689923D01*
X137762808Y-90770901D01*
X137597104Y-91296047D01*
X137644978Y-91844631D01*
X137747148Y-92091292D01*
X137741831Y-92096600D01*
X136434178Y-92096600D01*
X136230055Y-92137203D01*
X136057007Y-92252829D01*
X135181328Y-93128508D01*
X135065702Y-93301556D01*
X135056167Y-93349492D01*
X133032829Y-95372829D01*
X132917203Y-95545877D01*
X132876600Y-95750000D01*
X132876600Y-96189933D01*
X132680028Y-96189761D01*
X132385852Y-96311313D01*
X132160584Y-96536188D01*
X132038519Y-96830152D01*
X132038241Y-97148452D01*
X132159793Y-97442628D01*
X132305080Y-97588169D01*
X132305080Y-106040578D01*
X132275719Y-106069939D01*
X132071548Y-106069761D01*
X131777372Y-106191313D01*
X131552104Y-106416188D01*
X131430039Y-106710152D01*
X131429761Y-107028452D01*
X131551313Y-107322628D01*
X131776188Y-107547896D01*
X131869705Y-107586728D01*
X131820570Y-107658639D01*
X131783843Y-107840000D01*
X131783843Y-108584818D01*
X131572104Y-108796188D01*
X131450039Y-109090152D01*
X131449761Y-109408452D01*
X131571313Y-109702628D01*
X131697989Y-109829526D01*
X131693843Y-109850000D01*
X131693843Y-110750000D01*
X131725723Y-110919428D01*
X131825855Y-111075038D01*
X131978639Y-111179430D01*
X132160000Y-111216157D01*
X133360000Y-111216157D01*
X133529428Y-111184277D01*
X133634550Y-111116633D01*
X133638602Y-111137004D01*
X133754228Y-111310052D01*
X133799948Y-111355772D01*
X133972996Y-111471398D01*
X134177119Y-111512001D01*
X141310253Y-111512001D01*
X141514376Y-111471398D01*
X141687424Y-111355772D01*
X142024379Y-111018817D01*
X142084320Y-111163885D01*
X142309195Y-111389153D01*
X142603159Y-111511218D01*
X142921459Y-111511496D01*
X143215635Y-111389944D01*
X143345129Y-111260676D01*
X143345129Y-114696896D01*
X143385732Y-114901019D01*
X143501358Y-115074067D01*
X144188216Y-115760925D01*
X144038395Y-115822830D01*
X143813127Y-116047705D01*
X143691062Y-116341669D01*
X143690784Y-116659969D01*
X143812336Y-116954145D01*
X144037211Y-117179413D01*
X144331175Y-117301478D01*
X144536822Y-117301658D01*
X144901764Y-117666600D01*
X141666766Y-117666600D01*
X139079666Y-115079500D01*
X138906618Y-114963874D01*
X138702495Y-114923271D01*
X138104289Y-114923271D01*
X137900165Y-114963874D01*
X137846781Y-114999544D01*
X137602938Y-114999331D01*
X137308762Y-115120883D01*
X137083494Y-115345758D01*
X136961429Y-115639722D01*
X136961151Y-115958022D01*
X137082703Y-116252198D01*
X137307578Y-116477466D01*
X137601542Y-116599531D01*
X137898410Y-116599790D01*
X138086188Y-116787896D01*
X138380152Y-116909961D01*
X138585799Y-116910141D01*
X140543381Y-118867723D01*
X139997362Y-118867723D01*
X139997357Y-118867722D01*
X139793234Y-118908326D01*
X139620186Y-119023952D01*
X139620184Y-119023955D01*
X139594085Y-119050054D01*
X139389913Y-119049876D01*
X139095737Y-119171428D01*
X138955631Y-119311289D01*
X138913400Y-119269058D01*
X138913400Y-118720529D01*
X138901109Y-118658737D01*
X138872797Y-118516405D01*
X138757171Y-118343358D01*
X136813808Y-116399995D01*
X136922574Y-116138057D01*
X136922852Y-115819757D01*
X136801300Y-115525581D01*
X136576425Y-115300313D01*
X136282461Y-115178248D01*
X135964161Y-115177970D01*
X135669985Y-115299522D01*
X135444717Y-115524397D01*
X135391751Y-115651952D01*
X135272757Y-115651848D01*
X134978581Y-115773400D01*
X134753313Y-115998275D01*
X134631248Y-116292239D01*
X134630970Y-116610539D01*
X134752522Y-116904715D01*
X134897809Y-117050256D01*
X134897809Y-117211209D01*
X134938412Y-117415332D01*
X135054038Y-117588380D01*
X138578698Y-121113039D01*
X138574552Y-121113864D01*
X138146053Y-121400177D01*
X137859740Y-121828676D01*
X137759200Y-122334124D01*
X137759200Y-122385876D01*
X137859740Y-122891324D01*
X138146053Y-123319823D01*
X138524699Y-123572825D01*
X138379281Y-123633052D01*
X137947780Y-123997646D01*
X137688649Y-124499615D01*
X137789195Y-124722200D01*
X138902200Y-124722200D01*
X138902200Y-124702200D01*
X139257800Y-124702200D01*
X139257800Y-124722200D01*
X141442200Y-124722200D01*
X141442200Y-124702200D01*
X141797800Y-124702200D01*
X141797800Y-124722200D01*
X143982200Y-124722200D01*
X143982200Y-124702200D01*
X144337800Y-124702200D01*
X144337800Y-124722200D01*
X146522200Y-124722200D01*
X146522200Y-124702200D01*
X146877800Y-124702200D01*
X146877800Y-124722200D01*
X148001750Y-124722200D01*
X148147800Y-124576150D01*
X148147800Y-123920195D01*
X148058861Y-123705477D01*
X147894522Y-123541139D01*
X147679804Y-123452200D01*
X147435830Y-123452200D01*
X147633947Y-123319823D01*
X147920260Y-122891324D01*
X147969963Y-122641450D01*
X148180588Y-122641450D01*
X148365809Y-123089719D01*
X148708477Y-123432985D01*
X149156422Y-123618988D01*
X149641450Y-123619412D01*
X150089719Y-123434191D01*
X150432985Y-123091523D01*
X150618988Y-122643578D01*
X150619412Y-122158550D01*
X150434191Y-121710281D01*
X150091523Y-121367015D01*
X149643578Y-121181012D01*
X149158550Y-121180588D01*
X148710281Y-121365809D01*
X148367015Y-121708477D01*
X148181012Y-122156422D01*
X148180588Y-122641450D01*
X147969963Y-122641450D01*
X148020800Y-122385876D01*
X148020800Y-122334124D01*
X147920260Y-121828676D01*
X147633947Y-121400177D01*
X147205448Y-121113864D01*
X146700000Y-121013324D01*
X146205941Y-121111599D01*
X145946222Y-120851880D01*
X149044452Y-120851880D01*
X149170216Y-120977644D01*
X149170218Y-120977647D01*
X149321436Y-121078687D01*
X149343266Y-121093273D01*
X149547389Y-121133877D01*
X149547394Y-121133876D01*
X150261810Y-121133876D01*
X150465933Y-121093273D01*
X150519317Y-121057603D01*
X150683793Y-121057747D01*
X150683793Y-122399290D01*
X150715673Y-122568718D01*
X150815805Y-122724328D01*
X150968589Y-122828720D01*
X151149950Y-122865447D01*
X151950050Y-122865447D01*
X152119478Y-122833567D01*
X152275088Y-122733435D01*
X152379480Y-122580651D01*
X152416207Y-122399290D01*
X152416207Y-121822710D01*
X152465750Y-121822710D01*
X152465750Y-122515494D01*
X152554689Y-122730212D01*
X152719027Y-122894551D01*
X152933745Y-122983490D01*
X153126150Y-122983490D01*
X153272200Y-122837440D01*
X153272200Y-121676660D01*
X152611800Y-121676660D01*
X152465750Y-121822710D01*
X152416207Y-121822710D01*
X152416207Y-120886614D01*
X152465750Y-120837071D01*
X152465750Y-121175010D01*
X152611800Y-121321060D01*
X153272200Y-121321060D01*
X153272200Y-121301060D01*
X153627800Y-121301060D01*
X153627800Y-121321060D01*
X154288200Y-121321060D01*
X154434250Y-121175010D01*
X154434250Y-120783400D01*
X154883793Y-120783400D01*
X154883793Y-121861865D01*
X154545719Y-122199939D01*
X154434250Y-122199842D01*
X154434250Y-121822710D01*
X154288200Y-121676660D01*
X153627800Y-121676660D01*
X153627800Y-122837440D01*
X153699978Y-122909618D01*
X153699761Y-123158452D01*
X153821313Y-123452628D01*
X153939754Y-123571276D01*
X153933793Y-123600710D01*
X153933793Y-125401570D01*
X153946255Y-125467800D01*
X153352795Y-125467800D01*
X153366207Y-125401570D01*
X153366207Y-123600710D01*
X153334327Y-123431282D01*
X153234195Y-123275672D01*
X153081411Y-123171280D01*
X152900050Y-123134553D01*
X152099950Y-123134553D01*
X151930522Y-123166433D01*
X151774912Y-123266565D01*
X151670520Y-123419349D01*
X151633793Y-123600710D01*
X151633793Y-123967740D01*
X149998865Y-123967740D01*
X149998860Y-123967739D01*
X149794737Y-124008343D01*
X149621689Y-124123969D01*
X149621687Y-124123972D01*
X149545720Y-124199939D01*
X149341548Y-124199761D01*
X149047372Y-124321313D01*
X148822104Y-124546188D01*
X148700039Y-124840152D01*
X148699761Y-125158452D01*
X148821313Y-125452628D01*
X148836459Y-125467800D01*
X148147800Y-125467800D01*
X148147800Y-125223850D01*
X148001750Y-125077800D01*
X146877800Y-125077800D01*
X146877800Y-125097800D01*
X146522200Y-125097800D01*
X146522200Y-125077800D01*
X144337800Y-125077800D01*
X144337800Y-125097800D01*
X143982200Y-125097800D01*
X143982200Y-125077800D01*
X141797800Y-125077800D01*
X141797800Y-125097800D01*
X141442200Y-125097800D01*
X141442200Y-125077800D01*
X139257800Y-125077800D01*
X139257800Y-125097800D01*
X138902200Y-125097800D01*
X138902200Y-125077800D01*
X137789195Y-125077800D01*
X137688649Y-125300385D01*
X137775073Y-125467800D01*
X132802417Y-125467800D01*
X131905274Y-125289347D01*
X131189152Y-124810850D01*
X130710653Y-124094726D01*
X130619726Y-123637603D01*
X130792461Y-123637603D01*
X131089799Y-124357216D01*
X131639888Y-124908266D01*
X132358981Y-125206860D01*
X133137603Y-125207539D01*
X133857216Y-124910201D01*
X134408266Y-124360112D01*
X134706860Y-123641019D01*
X134707539Y-122862397D01*
X134410201Y-122142784D01*
X133860112Y-121591734D01*
X133141019Y-121293140D01*
X132362397Y-121292461D01*
X131642784Y-121589799D01*
X131091734Y-122139888D01*
X130793140Y-122858981D01*
X130792461Y-123637603D01*
X130619726Y-123637603D01*
X130532200Y-123197583D01*
X130532200Y-118908452D01*
X132449761Y-118908452D01*
X132571313Y-119202628D01*
X132796188Y-119427896D01*
X133090152Y-119549961D01*
X133408452Y-119550239D01*
X133702628Y-119428687D01*
X133927896Y-119203812D01*
X134049961Y-118909848D01*
X134050239Y-118591548D01*
X133928687Y-118297372D01*
X133703812Y-118072104D01*
X133409848Y-117950039D01*
X133091548Y-117949761D01*
X132797372Y-118071313D01*
X132572104Y-118296188D01*
X132450039Y-118590152D01*
X132449761Y-118908452D01*
X130532200Y-118908452D01*
X130532200Y-118044361D01*
X130538159Y-118047208D01*
X130546292Y-118055403D01*
X130610418Y-118098604D01*
X130620569Y-118102854D01*
X130628678Y-118110292D01*
X130696540Y-118151520D01*
X130706418Y-118155121D01*
X130714475Y-118161873D01*
X130785965Y-118201033D01*
X130794783Y-118203807D01*
X130802097Y-118209461D01*
X130864232Y-118240381D01*
X130871274Y-118242295D01*
X130877185Y-118246578D01*
X130904555Y-118259153D01*
X130910947Y-118260679D01*
X130916374Y-118264384D01*
X130944737Y-118276467D01*
X130950890Y-118277755D01*
X130956175Y-118281160D01*
X130986420Y-118293099D01*
X130991860Y-118294087D01*
X130996577Y-118296971D01*
X131023014Y-118306695D01*
X131026042Y-118314129D01*
X131026248Y-118314441D01*
X131026319Y-118314808D01*
X131034282Y-118334272D01*
X131034527Y-118334643D01*
X131034613Y-118335079D01*
X131041589Y-118352040D01*
X131041938Y-118352565D01*
X131042061Y-118353182D01*
X131047894Y-118367256D01*
X131048438Y-118368070D01*
X131048633Y-118369028D01*
X131053163Y-118379831D01*
X131054299Y-118381515D01*
X131054721Y-118383502D01*
X131057792Y-118390653D01*
X131061952Y-118396707D01*
X131063703Y-118403844D01*
X131065158Y-118406957D01*
X131093902Y-118446107D01*
X131115040Y-118489835D01*
X131115117Y-118489937D01*
X131128548Y-118501904D01*
X131137599Y-118517452D01*
X131152958Y-118529150D01*
X131159923Y-118539287D01*
X131164495Y-118542257D01*
X131171887Y-118552325D01*
X131213309Y-118577425D01*
X131249765Y-118609907D01*
X131266753Y-118615823D01*
X131281065Y-118626724D01*
X131303760Y-118632718D01*
X131311160Y-118637525D01*
X131313076Y-118637880D01*
X131326121Y-118645785D01*
X131373744Y-118653084D01*
X131420075Y-118669219D01*
X131438036Y-118668183D01*
X131455428Y-118672777D01*
X131479896Y-118669467D01*
X131493821Y-118671987D01*
X131495170Y-118671694D01*
X131504382Y-118673106D01*
X131550984Y-118661672D01*
X131600117Y-118658839D01*
X131616312Y-118651010D01*
X131634141Y-118648598D01*
X131653465Y-118637349D01*
X131670062Y-118633748D01*
X131672948Y-118631746D01*
X131679528Y-118630132D01*
X131718127Y-118601793D01*
X131762483Y-118580351D01*
X131774450Y-118566920D01*
X131789998Y-118557869D01*
X131791814Y-118556264D01*
X131803035Y-118541532D01*
X131818255Y-118530977D01*
X131823025Y-118526039D01*
X131824564Y-118523646D01*
X131824896Y-118523403D01*
X131825404Y-118522565D01*
X131828306Y-118520480D01*
X131835771Y-118512491D01*
X131836681Y-118511024D01*
X131838075Y-118510007D01*
X131847977Y-118499253D01*
X131848523Y-118498359D01*
X131849367Y-118497737D01*
X131861446Y-118484501D01*
X131861817Y-118483887D01*
X131862393Y-118483460D01*
X131876392Y-118468026D01*
X131876681Y-118467545D01*
X131877129Y-118467211D01*
X131892788Y-118449865D01*
X131893030Y-118449460D01*
X131893405Y-118449179D01*
X131910465Y-118430204D01*
X131910681Y-118429840D01*
X131911022Y-118429584D01*
X131929226Y-118409263D01*
X131929414Y-118408945D01*
X131929709Y-118408723D01*
X131945249Y-118391321D01*
X131945310Y-118391218D01*
X131945404Y-118391147D01*
X131967436Y-118366450D01*
X131985863Y-118345821D01*
X131986661Y-118344931D01*
X131992140Y-118343591D01*
X132011019Y-118334792D01*
X132015669Y-118331384D01*
X132021230Y-118329879D01*
X132030342Y-118325358D01*
X132039235Y-118318499D01*
X132049921Y-118315050D01*
X132089836Y-118292800D01*
X132103582Y-118281107D01*
X132120278Y-118274257D01*
X132158764Y-118248729D01*
X132171155Y-118236422D01*
X132186772Y-118228607D01*
X132224467Y-118199333D01*
X132234905Y-118187291D01*
X132248636Y-118179208D01*
X132286176Y-118145723D01*
X132291544Y-118138603D01*
X132299054Y-118133790D01*
X132308417Y-118124777D01*
X132313396Y-118117625D01*
X132320550Y-118112655D01*
X132357263Y-118074592D01*
X132365478Y-118061803D01*
X132377373Y-118052340D01*
X132410619Y-118013063D01*
X132418394Y-117999034D01*
X132430235Y-117988211D01*
X132460608Y-117946893D01*
X132467303Y-117932581D01*
X132478223Y-117921156D01*
X132506319Y-117876974D01*
X132511593Y-117863381D01*
X132520993Y-117852232D01*
X132547406Y-117804360D01*
X132549950Y-117796358D01*
X132555131Y-117789748D01*
X132562412Y-117775358D01*
X132564333Y-117768472D01*
X132568569Y-117762715D01*
X132590424Y-117716049D01*
X132593203Y-117704772D01*
X132599616Y-117695086D01*
X132618703Y-117648447D01*
X132621050Y-117636382D01*
X132627287Y-117625795D01*
X132643862Y-117578343D01*
X132645571Y-117566189D01*
X132651239Y-117555303D01*
X132665558Y-117506192D01*
X132666568Y-117494657D01*
X132671402Y-117484136D01*
X132683722Y-117432526D01*
X132684116Y-117422167D01*
X132688023Y-117412566D01*
X132698600Y-117357613D01*
X132698557Y-117350608D01*
X132701003Y-117344043D01*
X132706156Y-117312179D01*
X132706036Y-117308842D01*
X132707158Y-117305694D01*
X132709160Y-117292092D01*
X132708970Y-117288311D01*
X132710183Y-117284728D01*
X132711737Y-117272846D01*
X132711335Y-117266787D01*
X132713133Y-117260985D01*
X132714296Y-117249864D01*
X132713628Y-117242637D01*
X132715562Y-117235641D01*
X132716392Y-117224326D01*
X132715561Y-117217607D01*
X132717177Y-117211028D01*
X132717732Y-117198561D01*
X132716976Y-117193624D01*
X132718064Y-117188752D01*
X132718403Y-117174177D01*
X132717872Y-117171138D01*
X132718504Y-117168120D01*
X132718683Y-117150479D01*
X132718409Y-117149025D01*
X132718704Y-117147571D01*
X132718774Y-117129411D01*
X132718507Y-117128039D01*
X132718776Y-117126669D01*
X132718723Y-117101150D01*
X132718083Y-117097966D01*
X132718666Y-117094769D01*
X132718321Y-117073051D01*
X132717229Y-117067985D01*
X132718047Y-117062867D01*
X132717328Y-117043919D01*
X132715666Y-117036954D01*
X132716579Y-117029855D01*
X132715400Y-117012645D01*
X132713216Y-117004588D01*
X132713986Y-116996273D01*
X132712264Y-116979768D01*
X132709852Y-116971980D01*
X132710322Y-116963843D01*
X132707973Y-116947012D01*
X132705811Y-116940801D01*
X132706006Y-116934228D01*
X132702946Y-116916036D01*
X132701539Y-116912332D01*
X132701590Y-116908368D01*
X132698795Y-116893308D01*
X132696180Y-116886758D01*
X132696059Y-116879706D01*
X132687308Y-116839347D01*
X132683226Y-116829953D01*
X132682604Y-116819732D01*
X132671586Y-116777837D01*
X132667435Y-116769320D01*
X132666478Y-116759894D01*
X132653767Y-116718441D01*
X132648982Y-116709553D01*
X132647531Y-116699563D01*
X132633699Y-116660529D01*
X132630068Y-116654428D01*
X132628836Y-116647438D01*
X132625803Y-116639636D01*
X132624767Y-116638009D01*
X132624417Y-116636114D01*
X132612627Y-116606506D01*
X132611943Y-116605451D01*
X132611707Y-116604212D01*
X132599956Y-116575155D01*
X132599181Y-116573974D01*
X132598909Y-116572588D01*
X132587072Y-116543816D01*
X132586231Y-116542550D01*
X132585928Y-116541060D01*
X132573882Y-116512309D01*
X132572998Y-116510998D01*
X132572673Y-116509451D01*
X132560294Y-116480453D01*
X132559392Y-116479135D01*
X132559053Y-116477572D01*
X132546218Y-116448063D01*
X132545319Y-116446768D01*
X132544975Y-116445232D01*
X132531560Y-116414944D01*
X132530688Y-116413704D01*
X132530346Y-116412226D01*
X132516227Y-116380895D01*
X132515402Y-116379739D01*
X132515074Y-116378356D01*
X132500126Y-116345714D01*
X132499358Y-116344652D01*
X132499049Y-116343380D01*
X132483151Y-116309164D01*
X132482459Y-116308218D01*
X132482177Y-116307082D01*
X132465204Y-116271025D01*
X132464583Y-116270185D01*
X132464327Y-116269173D01*
X132446155Y-116231009D01*
X132445608Y-116230276D01*
X132445380Y-116229389D01*
X132425885Y-116188853D01*
X132425415Y-116188227D01*
X132425217Y-116187470D01*
X132404276Y-116144296D01*
X132403874Y-116143764D01*
X132403703Y-116143118D01*
X132381192Y-116097039D01*
X132380852Y-116096593D01*
X132380708Y-116096052D01*
X132356503Y-116046802D01*
X132356223Y-116046436D01*
X132356104Y-116045993D01*
X132330082Y-115993307D01*
X132329851Y-115993006D01*
X132329751Y-115992637D01*
X132301788Y-115936251D01*
X132301602Y-115936010D01*
X132301523Y-115935719D01*
X132271495Y-115875364D01*
X132271391Y-115875229D01*
X132271346Y-115875065D01*
X132263581Y-115859485D01*
X132238110Y-115808299D01*
X132214530Y-115760707D01*
X132193329Y-115717672D01*
X132173724Y-115677592D01*
X132155947Y-115640921D01*
X132139638Y-115606913D01*
X132125003Y-115575995D01*
X132111461Y-115546951D01*
X132098946Y-115519644D01*
X132087382Y-115493923D01*
X132076508Y-115469235D01*
X132066045Y-115444967D01*
X132055877Y-115420870D01*
X132045707Y-115396259D01*
X132035425Y-115370901D01*
X132024552Y-115343626D01*
X132022470Y-115338356D01*
X132022112Y-115337800D01*
X132021991Y-115337148D01*
X132015036Y-115319692D01*
X132014118Y-115318277D01*
X132013799Y-115316617D01*
X132007306Y-115300656D01*
X132006252Y-115299056D01*
X132005874Y-115297175D01*
X132000080Y-115283256D01*
X131998616Y-115281073D01*
X131998070Y-115278502D01*
X131993205Y-115267173D01*
X131990703Y-115263531D01*
X131989704Y-115259228D01*
X131986001Y-115251033D01*
X131981124Y-115244213D01*
X131979630Y-115238263D01*
X131977642Y-115235585D01*
X131976314Y-115230905D01*
X131974006Y-115226392D01*
X131971396Y-115223092D01*
X131969269Y-115217045D01*
X131969331Y-115205561D01*
X131967771Y-115197489D01*
X131959481Y-115148153D01*
X131955389Y-115107266D01*
X131954019Y-115065751D01*
X131955626Y-115016918D01*
X131959869Y-114966316D01*
X131965408Y-114910624D01*
X131972283Y-114849683D01*
X131980455Y-114784028D01*
X131989937Y-114713636D01*
X132000640Y-114639250D01*
X132012583Y-114560769D01*
X132025725Y-114478492D01*
X132039987Y-114392932D01*
X132055435Y-114303717D01*
X132071896Y-114211868D01*
X132089503Y-114116671D01*
X132108068Y-114019160D01*
X132127653Y-113919023D01*
X132148208Y-113816553D01*
X132169668Y-113712108D01*
X132192069Y-113605535D01*
X132215307Y-113497367D01*
X132237959Y-113394063D01*
X132244600Y-113364079D01*
X132244622Y-113363042D01*
X132245036Y-113362090D01*
X132250719Y-113335883D01*
X132250776Y-113332585D01*
X132252047Y-113329543D01*
X132256564Y-113307206D01*
X132256586Y-113300430D01*
X132259017Y-113294106D01*
X132262275Y-113275205D01*
X132261967Y-113263186D01*
X132265700Y-113251759D01*
X132267608Y-113235858D01*
X132266089Y-113216146D01*
X132270619Y-113196902D01*
X132271084Y-113183569D01*
X132266211Y-113153655D01*
X132269270Y-113123499D01*
X132268200Y-113112300D01*
X132265168Y-113102200D01*
X132265305Y-113100792D01*
X132255941Y-113070082D01*
X132252712Y-113029989D01*
X132250014Y-113020489D01*
X132242329Y-113005474D01*
X132241608Y-112998970D01*
X132225271Y-112969283D01*
X132216353Y-112939572D01*
X132216022Y-112939166D01*
X132212706Y-112928292D01*
X132208289Y-112920057D01*
X132182697Y-112888965D01*
X132176688Y-112877225D01*
X132175617Y-112874497D01*
X132174924Y-112873778D01*
X132167848Y-112859953D01*
X132162694Y-112855567D01*
X132154662Y-112840972D01*
X132148433Y-112833568D01*
X132119364Y-112810300D01*
X132096436Y-112780956D01*
X132088303Y-112773950D01*
X132067260Y-112762046D01*
X132050482Y-112744634D01*
X132040353Y-112737591D01*
X132028276Y-112732324D01*
X132018616Y-112723366D01*
X132006397Y-112715852D01*
X132001485Y-112714031D01*
X131997565Y-112710555D01*
X131983166Y-112702136D01*
X131982659Y-112701961D01*
X131982258Y-112701607D01*
X131977213Y-112698672D01*
X131974691Y-112697807D01*
X131972670Y-112696063D01*
X131927566Y-112670509D01*
X131922222Y-112668743D01*
X131917874Y-112665170D01*
X131873130Y-112641215D01*
X131867570Y-112639525D01*
X131862991Y-112635947D01*
X131819179Y-112613868D01*
X131813189Y-112612207D01*
X131808188Y-112608509D01*
X131765879Y-112588572D01*
X131759111Y-112586887D01*
X131753385Y-112582910D01*
X131713148Y-112565389D01*
X131705161Y-112563650D01*
X131698289Y-112559224D01*
X131660694Y-112544388D01*
X131651955Y-112542802D01*
X131644307Y-112538276D01*
X131617262Y-112528769D01*
X131605382Y-112527075D01*
X131594756Y-112521499D01*
X131558816Y-112510897D01*
X131542222Y-112509391D01*
X131526955Y-112502719D01*
X131493416Y-112495371D01*
X131473858Y-112494993D01*
X131455340Y-112488684D01*
X131424357Y-112484570D01*
X131401002Y-112486075D01*
X131378210Y-112480783D01*
X131349941Y-112479884D01*
X131321896Y-112484541D01*
X131293622Y-112481528D01*
X131268222Y-112483825D01*
X131234797Y-112493674D01*
X131199985Y-112495194D01*
X131177612Y-112500669D01*
X131157843Y-112509888D01*
X131155619Y-112509999D01*
X131135883Y-112519353D01*
X131097834Y-112528119D01*
X131078644Y-112536754D01*
X131049641Y-112557422D01*
X131036677Y-112561281D01*
X131021894Y-112573285D01*
X131014168Y-112576888D01*
X131013922Y-112577156D01*
X130992655Y-112587236D01*
X130976805Y-112599011D01*
X130959279Y-112618380D01*
X130957160Y-112619436D01*
X130948271Y-112629659D01*
X130931778Y-112641412D01*
X130926950Y-112649130D01*
X130924611Y-112650541D01*
X130921413Y-112654879D01*
X130896679Y-112674963D01*
X130884325Y-112689858D01*
X130869033Y-112718113D01*
X130855804Y-112732733D01*
X130853824Y-112738282D01*
X130838829Y-112755527D01*
X130834703Y-112762744D01*
X130828738Y-112780564D01*
X130817585Y-112795690D01*
X130814322Y-112802640D01*
X130810807Y-112816842D01*
X130802875Y-112829138D01*
X130799879Y-112836715D01*
X130797273Y-112851022D01*
X130790162Y-112863710D01*
X130787413Y-112872163D01*
X130785841Y-112885414D01*
X130779991Y-112897405D01*
X130777470Y-112906977D01*
X130776765Y-112918484D01*
X130772225Y-112929083D01*
X130769913Y-112940018D01*
X130769798Y-112949579D01*
X130766395Y-112958512D01*
X130764272Y-112971058D01*
X130764493Y-112978762D01*
X130761987Y-112986052D01*
X130760034Y-113000452D01*
X130760411Y-113006571D01*
X130758569Y-113012421D01*
X130756768Y-113028921D01*
X130757186Y-113033683D01*
X130755844Y-113038269D01*
X130754174Y-113057113D01*
X130754575Y-113060814D01*
X130753585Y-113064407D01*
X130752027Y-113085842D01*
X130752383Y-113088707D01*
X130751651Y-113091498D01*
X130750186Y-113115765D01*
X130750489Y-113117976D01*
X130749943Y-113120139D01*
X130748552Y-113147486D01*
X130748801Y-113149184D01*
X130748393Y-113150852D01*
X130747057Y-113181524D01*
X130747255Y-113182810D01*
X130746953Y-113184075D01*
X130745651Y-113218317D01*
X130745808Y-113219300D01*
X130745581Y-113220269D01*
X130744295Y-113258325D01*
X130744416Y-113259063D01*
X130744247Y-113259795D01*
X130742958Y-113301912D01*
X130743049Y-113302457D01*
X130742927Y-113302992D01*
X130741615Y-113349413D01*
X130741682Y-113349806D01*
X130741593Y-113350197D01*
X130740239Y-113401168D01*
X130740269Y-113401344D01*
X130740230Y-113401517D01*
X130740002Y-113410363D01*
X130737739Y-113493130D01*
X130735343Y-113570474D01*
X130732771Y-113643687D01*
X130730012Y-113712896D01*
X130727055Y-113778374D01*
X130723867Y-113840869D01*
X130720438Y-113900567D01*
X130716763Y-113957718D01*
X130712797Y-114013101D01*
X130708537Y-114066888D01*
X130703953Y-114119617D01*
X130698956Y-114172363D01*
X130697396Y-114187987D01*
X130688431Y-114271401D01*
X130678882Y-114350133D01*
X130668528Y-114425903D01*
X130657286Y-114499198D01*
X130645009Y-114570878D01*
X130631610Y-114641398D01*
X130616937Y-114711512D01*
X130600816Y-114782002D01*
X130583134Y-114853334D01*
X130563654Y-114926430D01*
X130542273Y-115001664D01*
X130532200Y-115035161D01*
X130532200Y-93137603D01*
X130792461Y-93137603D01*
X131089799Y-93857216D01*
X131639888Y-94408266D01*
X132358981Y-94706860D01*
X133137603Y-94707539D01*
X133857216Y-94410201D01*
X134408266Y-93860112D01*
X134706860Y-93141019D01*
X134707539Y-92362397D01*
X134410201Y-91642784D01*
X133860112Y-91091734D01*
X133141019Y-90793140D01*
X132362397Y-90792461D01*
X131642784Y-91089799D01*
X131091734Y-91639888D01*
X130793140Y-92358981D01*
X130792461Y-93137603D01*
X130532200Y-93137603D01*
X130532200Y-92802417D01*
X130710653Y-91905274D01*
X131189152Y-91189150D01*
X131905274Y-90710653D01*
X132802417Y-90532200D01*
X137924006Y-90532200D01*
X137877378Y-90578828D01*
X137877378Y-90578828D01*
G37*
X137877378Y-90578828D02*
X137988473Y-90689923D01*
X137762808Y-90770901D01*
X137597104Y-91296047D01*
X137644978Y-91844631D01*
X137747148Y-92091292D01*
X137741831Y-92096600D01*
X136434178Y-92096600D01*
X136230055Y-92137203D01*
X136057007Y-92252829D01*
X135181328Y-93128508D01*
X135065702Y-93301556D01*
X135056167Y-93349492D01*
X133032829Y-95372829D01*
X132917203Y-95545877D01*
X132876600Y-95750000D01*
X132876600Y-96189933D01*
X132680028Y-96189761D01*
X132385852Y-96311313D01*
X132160584Y-96536188D01*
X132038519Y-96830152D01*
X132038241Y-97148452D01*
X132159793Y-97442628D01*
X132305080Y-97588169D01*
X132305080Y-106040578D01*
X132275719Y-106069939D01*
X132071548Y-106069761D01*
X131777372Y-106191313D01*
X131552104Y-106416188D01*
X131430039Y-106710152D01*
X131429761Y-107028452D01*
X131551313Y-107322628D01*
X131776188Y-107547896D01*
X131869705Y-107586728D01*
X131820570Y-107658639D01*
X131783843Y-107840000D01*
X131783843Y-108584818D01*
X131572104Y-108796188D01*
X131450039Y-109090152D01*
X131449761Y-109408452D01*
X131571313Y-109702628D01*
X131697989Y-109829526D01*
X131693843Y-109850000D01*
X131693843Y-110750000D01*
X131725723Y-110919428D01*
X131825855Y-111075038D01*
X131978639Y-111179430D01*
X132160000Y-111216157D01*
X133360000Y-111216157D01*
X133529428Y-111184277D01*
X133634550Y-111116633D01*
X133638602Y-111137004D01*
X133754228Y-111310052D01*
X133799948Y-111355772D01*
X133972996Y-111471398D01*
X134177119Y-111512001D01*
X141310253Y-111512001D01*
X141514376Y-111471398D01*
X141687424Y-111355772D01*
X142024379Y-111018817D01*
X142084320Y-111163885D01*
X142309195Y-111389153D01*
X142603159Y-111511218D01*
X142921459Y-111511496D01*
X143215635Y-111389944D01*
X143345129Y-111260676D01*
X143345129Y-114696896D01*
X143385732Y-114901019D01*
X143501358Y-115074067D01*
X144188216Y-115760925D01*
X144038395Y-115822830D01*
X143813127Y-116047705D01*
X143691062Y-116341669D01*
X143690784Y-116659969D01*
X143812336Y-116954145D01*
X144037211Y-117179413D01*
X144331175Y-117301478D01*
X144536822Y-117301658D01*
X144901764Y-117666600D01*
X141666766Y-117666600D01*
X139079666Y-115079500D01*
X138906618Y-114963874D01*
X138702495Y-114923271D01*
X138104289Y-114923271D01*
X137900165Y-114963874D01*
X137846781Y-114999544D01*
X137602938Y-114999331D01*
X137308762Y-115120883D01*
X137083494Y-115345758D01*
X136961429Y-115639722D01*
X136961151Y-115958022D01*
X137082703Y-116252198D01*
X137307578Y-116477466D01*
X137601542Y-116599531D01*
X137898410Y-116599790D01*
X138086188Y-116787896D01*
X138380152Y-116909961D01*
X138585799Y-116910141D01*
X140543381Y-118867723D01*
X139997362Y-118867723D01*
X139997357Y-118867722D01*
X139793234Y-118908326D01*
X139620186Y-119023952D01*
X139620184Y-119023955D01*
X139594085Y-119050054D01*
X139389913Y-119049876D01*
X139095737Y-119171428D01*
X138955631Y-119311289D01*
X138913400Y-119269058D01*
X138913400Y-118720529D01*
X138901109Y-118658737D01*
X138872797Y-118516405D01*
X138757171Y-118343358D01*
X136813808Y-116399995D01*
X136922574Y-116138057D01*
X136922852Y-115819757D01*
X136801300Y-115525581D01*
X136576425Y-115300313D01*
X136282461Y-115178248D01*
X135964161Y-115177970D01*
X135669985Y-115299522D01*
X135444717Y-115524397D01*
X135391751Y-115651952D01*
X135272757Y-115651848D01*
X134978581Y-115773400D01*
X134753313Y-115998275D01*
X134631248Y-116292239D01*
X134630970Y-116610539D01*
X134752522Y-116904715D01*
X134897809Y-117050256D01*
X134897809Y-117211209D01*
X134938412Y-117415332D01*
X135054038Y-117588380D01*
X138578698Y-121113039D01*
X138574552Y-121113864D01*
X138146053Y-121400177D01*
X137859740Y-121828676D01*
X137759200Y-122334124D01*
X137759200Y-122385876D01*
X137859740Y-122891324D01*
X138146053Y-123319823D01*
X138524699Y-123572825D01*
X138379281Y-123633052D01*
X137947780Y-123997646D01*
X137688649Y-124499615D01*
X137789195Y-124722200D01*
X138902200Y-124722200D01*
X138902200Y-124702200D01*
X139257800Y-124702200D01*
X139257800Y-124722200D01*
X141442200Y-124722200D01*
X141442200Y-124702200D01*
X141797800Y-124702200D01*
X141797800Y-124722200D01*
X143982200Y-124722200D01*
X143982200Y-124702200D01*
X144337800Y-124702200D01*
X144337800Y-124722200D01*
X146522200Y-124722200D01*
X146522200Y-124702200D01*
X146877800Y-124702200D01*
X146877800Y-124722200D01*
X148001750Y-124722200D01*
X148147800Y-124576150D01*
X148147800Y-123920195D01*
X148058861Y-123705477D01*
X147894522Y-123541139D01*
X147679804Y-123452200D01*
X147435830Y-123452200D01*
X147633947Y-123319823D01*
X147920260Y-122891324D01*
X147969963Y-122641450D01*
X148180588Y-122641450D01*
X148365809Y-123089719D01*
X148708477Y-123432985D01*
X149156422Y-123618988D01*
X149641450Y-123619412D01*
X150089719Y-123434191D01*
X150432985Y-123091523D01*
X150618988Y-122643578D01*
X150619412Y-122158550D01*
X150434191Y-121710281D01*
X150091523Y-121367015D01*
X149643578Y-121181012D01*
X149158550Y-121180588D01*
X148710281Y-121365809D01*
X148367015Y-121708477D01*
X148181012Y-122156422D01*
X148180588Y-122641450D01*
X147969963Y-122641450D01*
X148020800Y-122385876D01*
X148020800Y-122334124D01*
X147920260Y-121828676D01*
X147633947Y-121400177D01*
X147205448Y-121113864D01*
X146700000Y-121013324D01*
X146205941Y-121111599D01*
X145946222Y-120851880D01*
X149044452Y-120851880D01*
X149170216Y-120977644D01*
X149170218Y-120977647D01*
X149321436Y-121078687D01*
X149343266Y-121093273D01*
X149547389Y-121133877D01*
X149547394Y-121133876D01*
X150261810Y-121133876D01*
X150465933Y-121093273D01*
X150519317Y-121057603D01*
X150683793Y-121057747D01*
X150683793Y-122399290D01*
X150715673Y-122568718D01*
X150815805Y-122724328D01*
X150968589Y-122828720D01*
X151149950Y-122865447D01*
X151950050Y-122865447D01*
X152119478Y-122833567D01*
X152275088Y-122733435D01*
X152379480Y-122580651D01*
X152416207Y-122399290D01*
X152416207Y-121822710D01*
X152465750Y-121822710D01*
X152465750Y-122515494D01*
X152554689Y-122730212D01*
X152719027Y-122894551D01*
X152933745Y-122983490D01*
X153126150Y-122983490D01*
X153272200Y-122837440D01*
X153272200Y-121676660D01*
X152611800Y-121676660D01*
X152465750Y-121822710D01*
X152416207Y-121822710D01*
X152416207Y-120886614D01*
X152465750Y-120837071D01*
X152465750Y-121175010D01*
X152611800Y-121321060D01*
X153272200Y-121321060D01*
X153272200Y-121301060D01*
X153627800Y-121301060D01*
X153627800Y-121321060D01*
X154288200Y-121321060D01*
X154434250Y-121175010D01*
X154434250Y-120783400D01*
X154883793Y-120783400D01*
X154883793Y-121861865D01*
X154545719Y-122199939D01*
X154434250Y-122199842D01*
X154434250Y-121822710D01*
X154288200Y-121676660D01*
X153627800Y-121676660D01*
X153627800Y-122837440D01*
X153699978Y-122909618D01*
X153699761Y-123158452D01*
X153821313Y-123452628D01*
X153939754Y-123571276D01*
X153933793Y-123600710D01*
X153933793Y-125401570D01*
X153946255Y-125467800D01*
X153352795Y-125467800D01*
X153366207Y-125401570D01*
X153366207Y-123600710D01*
X153334327Y-123431282D01*
X153234195Y-123275672D01*
X153081411Y-123171280D01*
X152900050Y-123134553D01*
X152099950Y-123134553D01*
X151930522Y-123166433D01*
X151774912Y-123266565D01*
X151670520Y-123419349D01*
X151633793Y-123600710D01*
X151633793Y-123967740D01*
X149998865Y-123967740D01*
X149998860Y-123967739D01*
X149794737Y-124008343D01*
X149621689Y-124123969D01*
X149621687Y-124123972D01*
X149545720Y-124199939D01*
X149341548Y-124199761D01*
X149047372Y-124321313D01*
X148822104Y-124546188D01*
X148700039Y-124840152D01*
X148699761Y-125158452D01*
X148821313Y-125452628D01*
X148836459Y-125467800D01*
X148147800Y-125467800D01*
X148147800Y-125223850D01*
X148001750Y-125077800D01*
X146877800Y-125077800D01*
X146877800Y-125097800D01*
X146522200Y-125097800D01*
X146522200Y-125077800D01*
X144337800Y-125077800D01*
X144337800Y-125097800D01*
X143982200Y-125097800D01*
X143982200Y-125077800D01*
X141797800Y-125077800D01*
X141797800Y-125097800D01*
X141442200Y-125097800D01*
X141442200Y-125077800D01*
X139257800Y-125077800D01*
X139257800Y-125097800D01*
X138902200Y-125097800D01*
X138902200Y-125077800D01*
X137789195Y-125077800D01*
X137688649Y-125300385D01*
X137775073Y-125467800D01*
X132802417Y-125467800D01*
X131905274Y-125289347D01*
X131189152Y-124810850D01*
X130710653Y-124094726D01*
X130619726Y-123637603D01*
X130792461Y-123637603D01*
X131089799Y-124357216D01*
X131639888Y-124908266D01*
X132358981Y-125206860D01*
X133137603Y-125207539D01*
X133857216Y-124910201D01*
X134408266Y-124360112D01*
X134706860Y-123641019D01*
X134707539Y-122862397D01*
X134410201Y-122142784D01*
X133860112Y-121591734D01*
X133141019Y-121293140D01*
X132362397Y-121292461D01*
X131642784Y-121589799D01*
X131091734Y-122139888D01*
X130793140Y-122858981D01*
X130792461Y-123637603D01*
X130619726Y-123637603D01*
X130532200Y-123197583D01*
X130532200Y-118908452D01*
X132449761Y-118908452D01*
X132571313Y-119202628D01*
X132796188Y-119427896D01*
X133090152Y-119549961D01*
X133408452Y-119550239D01*
X133702628Y-119428687D01*
X133927896Y-119203812D01*
X134049961Y-118909848D01*
X134050239Y-118591548D01*
X133928687Y-118297372D01*
X133703812Y-118072104D01*
X133409848Y-117950039D01*
X133091548Y-117949761D01*
X132797372Y-118071313D01*
X132572104Y-118296188D01*
X132450039Y-118590152D01*
X132449761Y-118908452D01*
X130532200Y-118908452D01*
X130532200Y-118044361D01*
X130538159Y-118047208D01*
X130546292Y-118055403D01*
X130610418Y-118098604D01*
X130620569Y-118102854D01*
X130628678Y-118110292D01*
X130696540Y-118151520D01*
X130706418Y-118155121D01*
X130714475Y-118161873D01*
X130785965Y-118201033D01*
X130794783Y-118203807D01*
X130802097Y-118209461D01*
X130864232Y-118240381D01*
X130871274Y-118242295D01*
X130877185Y-118246578D01*
X130904555Y-118259153D01*
X130910947Y-118260679D01*
X130916374Y-118264384D01*
X130944737Y-118276467D01*
X130950890Y-118277755D01*
X130956175Y-118281160D01*
X130986420Y-118293099D01*
X130991860Y-118294087D01*
X130996577Y-118296971D01*
X131023014Y-118306695D01*
X131026042Y-118314129D01*
X131026248Y-118314441D01*
X131026319Y-118314808D01*
X131034282Y-118334272D01*
X131034527Y-118334643D01*
X131034613Y-118335079D01*
X131041589Y-118352040D01*
X131041938Y-118352565D01*
X131042061Y-118353182D01*
X131047894Y-118367256D01*
X131048438Y-118368070D01*
X131048633Y-118369028D01*
X131053163Y-118379831D01*
X131054299Y-118381515D01*
X131054721Y-118383502D01*
X131057792Y-118390653D01*
X131061952Y-118396707D01*
X131063703Y-118403844D01*
X131065158Y-118406957D01*
X131093902Y-118446107D01*
X131115040Y-118489835D01*
X131115117Y-118489937D01*
X131128548Y-118501904D01*
X131137599Y-118517452D01*
X131152958Y-118529150D01*
X131159923Y-118539287D01*
X131164495Y-118542257D01*
X131171887Y-118552325D01*
X131213309Y-118577425D01*
X131249765Y-118609907D01*
X131266753Y-118615823D01*
X131281065Y-118626724D01*
X131303760Y-118632718D01*
X131311160Y-118637525D01*
X131313076Y-118637880D01*
X131326121Y-118645785D01*
X131373744Y-118653084D01*
X131420075Y-118669219D01*
X131438036Y-118668183D01*
X131455428Y-118672777D01*
X131479896Y-118669467D01*
X131493821Y-118671987D01*
X131495170Y-118671694D01*
X131504382Y-118673106D01*
X131550984Y-118661672D01*
X131600117Y-118658839D01*
X131616312Y-118651010D01*
X131634141Y-118648598D01*
X131653465Y-118637349D01*
X131670062Y-118633748D01*
X131672948Y-118631746D01*
X131679528Y-118630132D01*
X131718127Y-118601793D01*
X131762483Y-118580351D01*
X131774450Y-118566920D01*
X131789998Y-118557869D01*
X131791814Y-118556264D01*
X131803035Y-118541532D01*
X131818255Y-118530977D01*
X131823025Y-118526039D01*
X131824564Y-118523646D01*
X131824896Y-118523403D01*
X131825404Y-118522565D01*
X131828306Y-118520480D01*
X131835771Y-118512491D01*
X131836681Y-118511024D01*
X131838075Y-118510007D01*
X131847977Y-118499253D01*
X131848523Y-118498359D01*
X131849367Y-118497737D01*
X131861446Y-118484501D01*
X131861817Y-118483887D01*
X131862393Y-118483460D01*
X131876392Y-118468026D01*
X131876681Y-118467545D01*
X131877129Y-118467211D01*
X131892788Y-118449865D01*
X131893030Y-118449460D01*
X131893405Y-118449179D01*
X131910465Y-118430204D01*
X131910681Y-118429840D01*
X131911022Y-118429584D01*
X131929226Y-118409263D01*
X131929414Y-118408945D01*
X131929709Y-118408723D01*
X131945249Y-118391321D01*
X131945310Y-118391218D01*
X131945404Y-118391147D01*
X131967436Y-118366450D01*
X131985863Y-118345821D01*
X131986661Y-118344931D01*
X131992140Y-118343591D01*
X132011019Y-118334792D01*
X132015669Y-118331384D01*
X132021230Y-118329879D01*
X132030342Y-118325358D01*
X132039235Y-118318499D01*
X132049921Y-118315050D01*
X132089836Y-118292800D01*
X132103582Y-118281107D01*
X132120278Y-118274257D01*
X132158764Y-118248729D01*
X132171155Y-118236422D01*
X132186772Y-118228607D01*
X132224467Y-118199333D01*
X132234905Y-118187291D01*
X132248636Y-118179208D01*
X132286176Y-118145723D01*
X132291544Y-118138603D01*
X132299054Y-118133790D01*
X132308417Y-118124777D01*
X132313396Y-118117625D01*
X132320550Y-118112655D01*
X132357263Y-118074592D01*
X132365478Y-118061803D01*
X132377373Y-118052340D01*
X132410619Y-118013063D01*
X132418394Y-117999034D01*
X132430235Y-117988211D01*
X132460608Y-117946893D01*
X132467303Y-117932581D01*
X132478223Y-117921156D01*
X132506319Y-117876974D01*
X132511593Y-117863381D01*
X132520993Y-117852232D01*
X132547406Y-117804360D01*
X132549950Y-117796358D01*
X132555131Y-117789748D01*
X132562412Y-117775358D01*
X132564333Y-117768472D01*
X132568569Y-117762715D01*
X132590424Y-117716049D01*
X132593203Y-117704772D01*
X132599616Y-117695086D01*
X132618703Y-117648447D01*
X132621050Y-117636382D01*
X132627287Y-117625795D01*
X132643862Y-117578343D01*
X132645571Y-117566189D01*
X132651239Y-117555303D01*
X132665558Y-117506192D01*
X132666568Y-117494657D01*
X132671402Y-117484136D01*
X132683722Y-117432526D01*
X132684116Y-117422167D01*
X132688023Y-117412566D01*
X132698600Y-117357613D01*
X132698557Y-117350608D01*
X132701003Y-117344043D01*
X132706156Y-117312179D01*
X132706036Y-117308842D01*
X132707158Y-117305694D01*
X132709160Y-117292092D01*
X132708970Y-117288311D01*
X132710183Y-117284728D01*
X132711737Y-117272846D01*
X132711335Y-117266787D01*
X132713133Y-117260985D01*
X132714296Y-117249864D01*
X132713628Y-117242637D01*
X132715562Y-117235641D01*
X132716392Y-117224326D01*
X132715561Y-117217607D01*
X132717177Y-117211028D01*
X132717732Y-117198561D01*
X132716976Y-117193624D01*
X132718064Y-117188752D01*
X132718403Y-117174177D01*
X132717872Y-117171138D01*
X132718504Y-117168120D01*
X132718683Y-117150479D01*
X132718409Y-117149025D01*
X132718704Y-117147571D01*
X132718774Y-117129411D01*
X132718507Y-117128039D01*
X132718776Y-117126669D01*
X132718723Y-117101150D01*
X132718083Y-117097966D01*
X132718666Y-117094769D01*
X132718321Y-117073051D01*
X132717229Y-117067985D01*
X132718047Y-117062867D01*
X132717328Y-117043919D01*
X132715666Y-117036954D01*
X132716579Y-117029855D01*
X132715400Y-117012645D01*
X132713216Y-117004588D01*
X132713986Y-116996273D01*
X132712264Y-116979768D01*
X132709852Y-116971980D01*
X132710322Y-116963843D01*
X132707973Y-116947012D01*
X132705811Y-116940801D01*
X132706006Y-116934228D01*
X132702946Y-116916036D01*
X132701539Y-116912332D01*
X132701590Y-116908368D01*
X132698795Y-116893308D01*
X132696180Y-116886758D01*
X132696059Y-116879706D01*
X132687308Y-116839347D01*
X132683226Y-116829953D01*
X132682604Y-116819732D01*
X132671586Y-116777837D01*
X132667435Y-116769320D01*
X132666478Y-116759894D01*
X132653767Y-116718441D01*
X132648982Y-116709553D01*
X132647531Y-116699563D01*
X132633699Y-116660529D01*
X132630068Y-116654428D01*
X132628836Y-116647438D01*
X132625803Y-116639636D01*
X132624767Y-116638009D01*
X132624417Y-116636114D01*
X132612627Y-116606506D01*
X132611943Y-116605451D01*
X132611707Y-116604212D01*
X132599956Y-116575155D01*
X132599181Y-116573974D01*
X132598909Y-116572588D01*
X132587072Y-116543816D01*
X132586231Y-116542550D01*
X132585928Y-116541060D01*
X132573882Y-116512309D01*
X132572998Y-116510998D01*
X132572673Y-116509451D01*
X132560294Y-116480453D01*
X132559392Y-116479135D01*
X132559053Y-116477572D01*
X132546218Y-116448063D01*
X132545319Y-116446768D01*
X132544975Y-116445232D01*
X132531560Y-116414944D01*
X132530688Y-116413704D01*
X132530346Y-116412226D01*
X132516227Y-116380895D01*
X132515402Y-116379739D01*
X132515074Y-116378356D01*
X132500126Y-116345714D01*
X132499358Y-116344652D01*
X132499049Y-116343380D01*
X132483151Y-116309164D01*
X132482459Y-116308218D01*
X132482177Y-116307082D01*
X132465204Y-116271025D01*
X132464583Y-116270185D01*
X132464327Y-116269173D01*
X132446155Y-116231009D01*
X132445608Y-116230276D01*
X132445380Y-116229389D01*
X132425885Y-116188853D01*
X132425415Y-116188227D01*
X132425217Y-116187470D01*
X132404276Y-116144296D01*
X132403874Y-116143764D01*
X132403703Y-116143118D01*
X132381192Y-116097039D01*
X132380852Y-116096593D01*
X132380708Y-116096052D01*
X132356503Y-116046802D01*
X132356223Y-116046436D01*
X132356104Y-116045993D01*
X132330082Y-115993307D01*
X132329851Y-115993006D01*
X132329751Y-115992637D01*
X132301788Y-115936251D01*
X132301602Y-115936010D01*
X132301523Y-115935719D01*
X132271495Y-115875364D01*
X132271391Y-115875229D01*
X132271346Y-115875065D01*
X132263581Y-115859485D01*
X132238110Y-115808299D01*
X132214530Y-115760707D01*
X132193329Y-115717672D01*
X132173724Y-115677592D01*
X132155947Y-115640921D01*
X132139638Y-115606913D01*
X132125003Y-115575995D01*
X132111461Y-115546951D01*
X132098946Y-115519644D01*
X132087382Y-115493923D01*
X132076508Y-115469235D01*
X132066045Y-115444967D01*
X132055877Y-115420870D01*
X132045707Y-115396259D01*
X132035425Y-115370901D01*
X132024552Y-115343626D01*
X132022470Y-115338356D01*
X132022112Y-115337800D01*
X132021991Y-115337148D01*
X132015036Y-115319692D01*
X132014118Y-115318277D01*
X132013799Y-115316617D01*
X132007306Y-115300656D01*
X132006252Y-115299056D01*
X132005874Y-115297175D01*
X132000080Y-115283256D01*
X131998616Y-115281073D01*
X131998070Y-115278502D01*
X131993205Y-115267173D01*
X131990703Y-115263531D01*
X131989704Y-115259228D01*
X131986001Y-115251033D01*
X131981124Y-115244213D01*
X131979630Y-115238263D01*
X131977642Y-115235585D01*
X131976314Y-115230905D01*
X131974006Y-115226392D01*
X131971396Y-115223092D01*
X131969269Y-115217045D01*
X131969331Y-115205561D01*
X131967771Y-115197489D01*
X131959481Y-115148153D01*
X131955389Y-115107266D01*
X131954019Y-115065751D01*
X131955626Y-115016918D01*
X131959869Y-114966316D01*
X131965408Y-114910624D01*
X131972283Y-114849683D01*
X131980455Y-114784028D01*
X131989937Y-114713636D01*
X132000640Y-114639250D01*
X132012583Y-114560769D01*
X132025725Y-114478492D01*
X132039987Y-114392932D01*
X132055435Y-114303717D01*
X132071896Y-114211868D01*
X132089503Y-114116671D01*
X132108068Y-114019160D01*
X132127653Y-113919023D01*
X132148208Y-113816553D01*
X132169668Y-113712108D01*
X132192069Y-113605535D01*
X132215307Y-113497367D01*
X132237959Y-113394063D01*
X132244600Y-113364079D01*
X132244622Y-113363042D01*
X132245036Y-113362090D01*
X132250719Y-113335883D01*
X132250776Y-113332585D01*
X132252047Y-113329543D01*
X132256564Y-113307206D01*
X132256586Y-113300430D01*
X132259017Y-113294106D01*
X132262275Y-113275205D01*
X132261967Y-113263186D01*
X132265700Y-113251759D01*
X132267608Y-113235858D01*
X132266089Y-113216146D01*
X132270619Y-113196902D01*
X132271084Y-113183569D01*
X132266211Y-113153655D01*
X132269270Y-113123499D01*
X132268200Y-113112300D01*
X132265168Y-113102200D01*
X132265305Y-113100792D01*
X132255941Y-113070082D01*
X132252712Y-113029989D01*
X132250014Y-113020489D01*
X132242329Y-113005474D01*
X132241608Y-112998970D01*
X132225271Y-112969283D01*
X132216353Y-112939572D01*
X132216022Y-112939166D01*
X132212706Y-112928292D01*
X132208289Y-112920057D01*
X132182697Y-112888965D01*
X132176688Y-112877225D01*
X132175617Y-112874497D01*
X132174924Y-112873778D01*
X132167848Y-112859953D01*
X132162694Y-112855567D01*
X132154662Y-112840972D01*
X132148433Y-112833568D01*
X132119364Y-112810300D01*
X132096436Y-112780956D01*
X132088303Y-112773950D01*
X132067260Y-112762046D01*
X132050482Y-112744634D01*
X132040353Y-112737591D01*
X132028276Y-112732324D01*
X132018616Y-112723366D01*
X132006397Y-112715852D01*
X132001485Y-112714031D01*
X131997565Y-112710555D01*
X131983166Y-112702136D01*
X131982659Y-112701961D01*
X131982258Y-112701607D01*
X131977213Y-112698672D01*
X131974691Y-112697807D01*
X131972670Y-112696063D01*
X131927566Y-112670509D01*
X131922222Y-112668743D01*
X131917874Y-112665170D01*
X131873130Y-112641215D01*
X131867570Y-112639525D01*
X131862991Y-112635947D01*
X131819179Y-112613868D01*
X131813189Y-112612207D01*
X131808188Y-112608509D01*
X131765879Y-112588572D01*
X131759111Y-112586887D01*
X131753385Y-112582910D01*
X131713148Y-112565389D01*
X131705161Y-112563650D01*
X131698289Y-112559224D01*
X131660694Y-112544388D01*
X131651955Y-112542802D01*
X131644307Y-112538276D01*
X131617262Y-112528769D01*
X131605382Y-112527075D01*
X131594756Y-112521499D01*
X131558816Y-112510897D01*
X131542222Y-112509391D01*
X131526955Y-112502719D01*
X131493416Y-112495371D01*
X131473858Y-112494993D01*
X131455340Y-112488684D01*
X131424357Y-112484570D01*
X131401002Y-112486075D01*
X131378210Y-112480783D01*
X131349941Y-112479884D01*
X131321896Y-112484541D01*
X131293622Y-112481528D01*
X131268222Y-112483825D01*
X131234797Y-112493674D01*
X131199985Y-112495194D01*
X131177612Y-112500669D01*
X131157843Y-112509888D01*
X131155619Y-112509999D01*
X131135883Y-112519353D01*
X131097834Y-112528119D01*
X131078644Y-112536754D01*
X131049641Y-112557422D01*
X131036677Y-112561281D01*
X131021894Y-112573285D01*
X131014168Y-112576888D01*
X131013922Y-112577156D01*
X130992655Y-112587236D01*
X130976805Y-112599011D01*
X130959279Y-112618380D01*
X130957160Y-112619436D01*
X130948271Y-112629659D01*
X130931778Y-112641412D01*
X130926950Y-112649130D01*
X130924611Y-112650541D01*
X130921413Y-112654879D01*
X130896679Y-112674963D01*
X130884325Y-112689858D01*
X130869033Y-112718113D01*
X130855804Y-112732733D01*
X130853824Y-112738282D01*
X130838829Y-112755527D01*
X130834703Y-112762744D01*
X130828738Y-112780564D01*
X130817585Y-112795690D01*
X130814322Y-112802640D01*
X130810807Y-112816842D01*
X130802875Y-112829138D01*
X130799879Y-112836715D01*
X130797273Y-112851022D01*
X130790162Y-112863710D01*
X130787413Y-112872163D01*
X130785841Y-112885414D01*
X130779991Y-112897405D01*
X130777470Y-112906977D01*
X130776765Y-112918484D01*
X130772225Y-112929083D01*
X130769913Y-112940018D01*
X130769798Y-112949579D01*
X130766395Y-112958512D01*
X130764272Y-112971058D01*
X130764493Y-112978762D01*
X130761987Y-112986052D01*
X130760034Y-113000452D01*
X130760411Y-113006571D01*
X130758569Y-113012421D01*
X130756768Y-113028921D01*
X130757186Y-113033683D01*
X130755844Y-113038269D01*
X130754174Y-113057113D01*
X130754575Y-113060814D01*
X130753585Y-113064407D01*
X130752027Y-113085842D01*
X130752383Y-113088707D01*
X130751651Y-113091498D01*
X130750186Y-113115765D01*
X130750489Y-113117976D01*
X130749943Y-113120139D01*
X130748552Y-113147486D01*
X130748801Y-113149184D01*
X130748393Y-113150852D01*
X130747057Y-113181524D01*
X130747255Y-113182810D01*
X130746953Y-113184075D01*
X130745651Y-113218317D01*
X130745808Y-113219300D01*
X130745581Y-113220269D01*
X130744295Y-113258325D01*
X130744416Y-113259063D01*
X130744247Y-113259795D01*
X130742958Y-113301912D01*
X130743049Y-113302457D01*
X130742927Y-113302992D01*
X130741615Y-113349413D01*
X130741682Y-113349806D01*
X130741593Y-113350197D01*
X130740239Y-113401168D01*
X130740269Y-113401344D01*
X130740230Y-113401517D01*
X130740002Y-113410363D01*
X130737739Y-113493130D01*
X130735343Y-113570474D01*
X130732771Y-113643687D01*
X130730012Y-113712896D01*
X130727055Y-113778374D01*
X130723867Y-113840869D01*
X130720438Y-113900567D01*
X130716763Y-113957718D01*
X130712797Y-114013101D01*
X130708537Y-114066888D01*
X130703953Y-114119617D01*
X130698956Y-114172363D01*
X130697396Y-114187987D01*
X130688431Y-114271401D01*
X130678882Y-114350133D01*
X130668528Y-114425903D01*
X130657286Y-114499198D01*
X130645009Y-114570878D01*
X130631610Y-114641398D01*
X130616937Y-114711512D01*
X130600816Y-114782002D01*
X130583134Y-114853334D01*
X130563654Y-114926430D01*
X130542273Y-115001664D01*
X130532200Y-115035161D01*
X130532200Y-93137603D01*
X130792461Y-93137603D01*
X131089799Y-93857216D01*
X131639888Y-94408266D01*
X132358981Y-94706860D01*
X133137603Y-94707539D01*
X133857216Y-94410201D01*
X134408266Y-93860112D01*
X134706860Y-93141019D01*
X134707539Y-92362397D01*
X134410201Y-91642784D01*
X133860112Y-91091734D01*
X133141019Y-90793140D01*
X132362397Y-90792461D01*
X131642784Y-91089799D01*
X131091734Y-91639888D01*
X130793140Y-92358981D01*
X130792461Y-93137603D01*
X130532200Y-93137603D01*
X130532200Y-92802417D01*
X130710653Y-91905274D01*
X131189152Y-91189150D01*
X131905274Y-90710653D01*
X132802417Y-90532200D01*
X137924006Y-90532200D01*
X137877378Y-90578828D01*
G36*
X149817476Y-120067076D02*
X149768331Y-120067076D01*
X149642564Y-119941309D01*
X149632408Y-119934523D01*
X149872517Y-119934523D01*
X149817476Y-120067076D01*
X149817476Y-120067076D01*
G37*
X149817476Y-120067076D02*
X149768331Y-120067076D01*
X149642564Y-119941309D01*
X149632408Y-119934523D01*
X149872517Y-119934523D01*
X149817476Y-120067076D01*
G36*
X164076600Y-108523237D02*
X162477110Y-110122726D01*
X162361484Y-110295774D01*
X162320881Y-110499897D01*
X162320881Y-110827751D01*
X162361484Y-111031874D01*
X162397154Y-111085258D01*
X162396941Y-111329102D01*
X162518493Y-111623278D01*
X162661572Y-111766607D01*
X162477712Y-111842577D01*
X162332171Y-111987864D01*
X158903271Y-111987864D01*
X157776639Y-110861231D01*
X157788639Y-110869430D01*
X157970000Y-110906157D01*
X158630000Y-110906157D01*
X158799428Y-110874277D01*
X158955038Y-110774145D01*
X158989710Y-110723400D01*
X159370000Y-110723400D01*
X159574123Y-110682797D01*
X159747171Y-110567171D01*
X159862389Y-110451953D01*
X159873564Y-110449730D01*
X160063092Y-110323092D01*
X160095800Y-110274141D01*
X160095800Y-110442802D01*
X160151548Y-110442802D01*
X160095800Y-110498550D01*
X160095800Y-110556204D01*
X160184739Y-110770922D01*
X160349077Y-110935261D01*
X160563795Y-111024200D01*
X160698950Y-111024200D01*
X160845000Y-110878150D01*
X160845000Y-110352500D01*
X160835650Y-110352500D01*
X160845000Y-110343150D01*
X160845000Y-105636850D01*
X160835650Y-105627500D01*
X160845000Y-105627500D01*
X160845000Y-105540000D01*
X161175000Y-105540000D01*
X161175000Y-105627500D01*
X161184350Y-105627500D01*
X161175000Y-105636850D01*
X161175000Y-110343150D01*
X161184350Y-110352500D01*
X161175000Y-110352500D01*
X161175000Y-110878150D01*
X161321050Y-111024200D01*
X161456205Y-111024200D01*
X161670923Y-110935261D01*
X161835261Y-110770922D01*
X161924200Y-110556204D01*
X161924200Y-110498550D01*
X161778150Y-110352500D01*
X161718684Y-110352500D01*
X161835261Y-110235922D01*
X161916955Y-110038695D01*
X161924200Y-110031450D01*
X161924200Y-109973796D01*
X161851176Y-109797500D01*
X161924200Y-109621204D01*
X161924200Y-109593550D01*
X161920650Y-109590000D01*
X161924200Y-109586450D01*
X161924200Y-109558796D01*
X161854282Y-109390000D01*
X161924200Y-109221204D01*
X161924200Y-109193550D01*
X161920650Y-109190000D01*
X161924200Y-109186450D01*
X161924200Y-109158796D01*
X161854282Y-108990000D01*
X161924200Y-108821204D01*
X161924200Y-108793550D01*
X161920650Y-108790000D01*
X161924200Y-108786450D01*
X161924200Y-108758796D01*
X161854282Y-108590000D01*
X161924200Y-108421204D01*
X161924200Y-108393550D01*
X161920650Y-108390000D01*
X161924200Y-108386450D01*
X161924200Y-108358796D01*
X161854282Y-108190000D01*
X161924200Y-108021204D01*
X161924200Y-107993550D01*
X161920650Y-107990000D01*
X161924200Y-107986450D01*
X161924200Y-107958796D01*
X161854282Y-107790000D01*
X161924200Y-107621204D01*
X161924200Y-107593550D01*
X161920650Y-107590000D01*
X161924200Y-107586450D01*
X161924200Y-107558796D01*
X161854282Y-107390000D01*
X161924200Y-107221204D01*
X161924200Y-107193550D01*
X161920650Y-107190000D01*
X161924200Y-107186450D01*
X161924200Y-107158796D01*
X161854282Y-106990000D01*
X161924200Y-106821204D01*
X161924200Y-106793550D01*
X161920650Y-106790000D01*
X161924200Y-106786450D01*
X161924200Y-106758796D01*
X161854282Y-106590000D01*
X161924200Y-106421204D01*
X161924200Y-106393550D01*
X161920650Y-106390000D01*
X161924200Y-106386450D01*
X161924200Y-106358796D01*
X161851176Y-106182500D01*
X161924200Y-106006204D01*
X161924200Y-105948550D01*
X161916955Y-105941305D01*
X161835261Y-105744078D01*
X161718684Y-105627500D01*
X161778150Y-105627500D01*
X161924200Y-105481450D01*
X161924200Y-105476393D01*
X163627807Y-105476393D01*
X163851371Y-105431923D01*
X164040899Y-105305285D01*
X164076600Y-105269584D01*
X164076600Y-108523237D01*
X164076600Y-108523237D01*
G37*
X164076600Y-108523237D02*
X162477110Y-110122726D01*
X162361484Y-110295774D01*
X162320881Y-110499897D01*
X162320881Y-110827751D01*
X162361484Y-111031874D01*
X162397154Y-111085258D01*
X162396941Y-111329102D01*
X162518493Y-111623278D01*
X162661572Y-111766607D01*
X162477712Y-111842577D01*
X162332171Y-111987864D01*
X158903271Y-111987864D01*
X157776639Y-110861231D01*
X157788639Y-110869430D01*
X157970000Y-110906157D01*
X158630000Y-110906157D01*
X158799428Y-110874277D01*
X158955038Y-110774145D01*
X158989710Y-110723400D01*
X159370000Y-110723400D01*
X159574123Y-110682797D01*
X159747171Y-110567171D01*
X159862389Y-110451953D01*
X159873564Y-110449730D01*
X160063092Y-110323092D01*
X160095800Y-110274141D01*
X160095800Y-110442802D01*
X160151548Y-110442802D01*
X160095800Y-110498550D01*
X160095800Y-110556204D01*
X160184739Y-110770922D01*
X160349077Y-110935261D01*
X160563795Y-111024200D01*
X160698950Y-111024200D01*
X160845000Y-110878150D01*
X160845000Y-110352500D01*
X160835650Y-110352500D01*
X160845000Y-110343150D01*
X160845000Y-105636850D01*
X160835650Y-105627500D01*
X160845000Y-105627500D01*
X160845000Y-105540000D01*
X161175000Y-105540000D01*
X161175000Y-105627500D01*
X161184350Y-105627500D01*
X161175000Y-105636850D01*
X161175000Y-110343150D01*
X161184350Y-110352500D01*
X161175000Y-110352500D01*
X161175000Y-110878150D01*
X161321050Y-111024200D01*
X161456205Y-111024200D01*
X161670923Y-110935261D01*
X161835261Y-110770922D01*
X161924200Y-110556204D01*
X161924200Y-110498550D01*
X161778150Y-110352500D01*
X161718684Y-110352500D01*
X161835261Y-110235922D01*
X161916955Y-110038695D01*
X161924200Y-110031450D01*
X161924200Y-109973796D01*
X161851176Y-109797500D01*
X161924200Y-109621204D01*
X161924200Y-109593550D01*
X161920650Y-109590000D01*
X161924200Y-109586450D01*
X161924200Y-109558796D01*
X161854282Y-109390000D01*
X161924200Y-109221204D01*
X161924200Y-109193550D01*
X161920650Y-109190000D01*
X161924200Y-109186450D01*
X161924200Y-109158796D01*
X161854282Y-108990000D01*
X161924200Y-108821204D01*
X161924200Y-108793550D01*
X161920650Y-108790000D01*
X161924200Y-108786450D01*
X161924200Y-108758796D01*
X161854282Y-108590000D01*
X161924200Y-108421204D01*
X161924200Y-108393550D01*
X161920650Y-108390000D01*
X161924200Y-108386450D01*
X161924200Y-108358796D01*
X161854282Y-108190000D01*
X161924200Y-108021204D01*
X161924200Y-107993550D01*
X161920650Y-107990000D01*
X161924200Y-107986450D01*
X161924200Y-107958796D01*
X161854282Y-107790000D01*
X161924200Y-107621204D01*
X161924200Y-107593550D01*
X161920650Y-107590000D01*
X161924200Y-107586450D01*
X161924200Y-107558796D01*
X161854282Y-107390000D01*
X161924200Y-107221204D01*
X161924200Y-107193550D01*
X161920650Y-107190000D01*
X161924200Y-107186450D01*
X161924200Y-107158796D01*
X161854282Y-106990000D01*
X161924200Y-106821204D01*
X161924200Y-106793550D01*
X161920650Y-106790000D01*
X161924200Y-106786450D01*
X161924200Y-106758796D01*
X161854282Y-106590000D01*
X161924200Y-106421204D01*
X161924200Y-106393550D01*
X161920650Y-106390000D01*
X161924200Y-106386450D01*
X161924200Y-106358796D01*
X161851176Y-106182500D01*
X161924200Y-106006204D01*
X161924200Y-105948550D01*
X161916955Y-105941305D01*
X161835261Y-105744078D01*
X161718684Y-105627500D01*
X161778150Y-105627500D01*
X161924200Y-105481450D01*
X161924200Y-105476393D01*
X163627807Y-105476393D01*
X163851371Y-105431923D01*
X164040899Y-105305285D01*
X164076600Y-105269584D01*
X164076600Y-108523237D01*
G36*
X159236908Y-105466908D02*
X159110270Y-105656436D01*
X159096157Y-105727386D01*
X159096157Y-105540000D01*
X159064277Y-105370572D01*
X158964145Y-105214962D01*
X158811361Y-105110570D01*
X158630000Y-105073843D01*
X157970000Y-105073843D01*
X157800572Y-105105723D01*
X157644962Y-105205855D01*
X157540570Y-105358639D01*
X157503904Y-105539699D01*
X157253235Y-105790367D01*
X157203539Y-105740584D01*
X156909575Y-105618519D01*
X156591275Y-105618241D01*
X156422964Y-105687786D01*
X156213454Y-105477910D01*
X155919490Y-105355845D01*
X155822871Y-105355761D01*
X155921021Y-105257611D01*
X155921024Y-105257609D01*
X155992766Y-105150239D01*
X156036650Y-105084562D01*
X156067976Y-104927074D01*
X156273825Y-104927254D01*
X156568001Y-104805702D01*
X156570434Y-104803273D01*
X159900543Y-104803273D01*
X159236908Y-105466908D01*
X159236908Y-105466908D01*
G37*
X159236908Y-105466908D02*
X159110270Y-105656436D01*
X159096157Y-105727386D01*
X159096157Y-105540000D01*
X159064277Y-105370572D01*
X158964145Y-105214962D01*
X158811361Y-105110570D01*
X158630000Y-105073843D01*
X157970000Y-105073843D01*
X157800572Y-105105723D01*
X157644962Y-105205855D01*
X157540570Y-105358639D01*
X157503904Y-105539699D01*
X157253235Y-105790367D01*
X157203539Y-105740584D01*
X156909575Y-105618519D01*
X156591275Y-105618241D01*
X156422964Y-105687786D01*
X156213454Y-105477910D01*
X155919490Y-105355845D01*
X155822871Y-105355761D01*
X155921021Y-105257611D01*
X155921024Y-105257609D01*
X155992766Y-105150239D01*
X156036650Y-105084562D01*
X156067976Y-104927074D01*
X156273825Y-104927254D01*
X156568001Y-104805702D01*
X156570434Y-104803273D01*
X159900543Y-104803273D01*
X159236908Y-105466908D01*
G36*
X143425800Y-104026150D02*
X143571850Y-104172200D01*
X144432200Y-104172200D01*
X144432200Y-104152200D01*
X144555520Y-104152200D01*
X144673683Y-104201266D01*
X144807800Y-104201383D01*
X144807800Y-104527800D01*
X144787800Y-104527800D01*
X144787800Y-104547800D01*
X144432200Y-104547800D01*
X144432200Y-104527800D01*
X143571850Y-104527800D01*
X143425800Y-104673850D01*
X143425800Y-104681458D01*
X143224596Y-104480254D01*
X143301630Y-104403355D01*
X143423695Y-104109391D01*
X143423841Y-103941752D01*
X143425800Y-103940943D01*
X143425800Y-104026150D01*
X143425800Y-104026150D01*
G37*
X143425800Y-104026150D02*
X143571850Y-104172200D01*
X144432200Y-104172200D01*
X144432200Y-104152200D01*
X144555520Y-104152200D01*
X144673683Y-104201266D01*
X144807800Y-104201383D01*
X144807800Y-104527800D01*
X144787800Y-104527800D01*
X144787800Y-104547800D01*
X144432200Y-104547800D01*
X144432200Y-104527800D01*
X143571850Y-104527800D01*
X143425800Y-104673850D01*
X143425800Y-104681458D01*
X143224596Y-104480254D01*
X143301630Y-104403355D01*
X143423695Y-104109391D01*
X143423841Y-103941752D01*
X143425800Y-103940943D01*
X143425800Y-104026150D01*
G36*
X137715800Y-93576150D02*
X137861850Y-93722200D01*
X138922200Y-93722200D01*
X138922200Y-93702200D01*
X139277800Y-93702200D01*
X139277800Y-93722200D01*
X139297800Y-93722200D01*
X139297800Y-94077800D01*
X139277800Y-94077800D01*
X139277800Y-95038150D01*
X139423850Y-95184200D01*
X139766600Y-95184200D01*
X139766600Y-97933236D01*
X139751328Y-97948508D01*
X139635702Y-98121556D01*
X139595099Y-98325679D01*
X139595099Y-98543441D01*
X139489848Y-98499737D01*
X139171548Y-98499459D01*
X138877372Y-98621011D01*
X138652104Y-98845886D01*
X138530039Y-99139850D01*
X138529859Y-99345497D01*
X134677460Y-103197896D01*
X134561834Y-103370944D01*
X134551448Y-103423159D01*
X134376735Y-103597567D01*
X134348913Y-103664571D01*
X133943400Y-103259058D01*
X133943400Y-102230130D01*
X134068452Y-102230239D01*
X134362628Y-102108687D01*
X134587896Y-101883812D01*
X134709961Y-101589848D01*
X134710239Y-101271548D01*
X134588687Y-100977372D01*
X134363812Y-100752104D01*
X134069848Y-100630039D01*
X133943400Y-100629929D01*
X133943400Y-97820034D01*
X134178452Y-97820239D01*
X134472628Y-97698687D01*
X134697896Y-97473812D01*
X134819961Y-97179848D01*
X134820239Y-96861548D01*
X134698687Y-96567372D01*
X134473812Y-96342104D01*
X134179848Y-96220039D01*
X133943400Y-96219832D01*
X133943400Y-95970942D01*
X135690491Y-94223850D01*
X137715800Y-94223850D01*
X137715800Y-94716204D01*
X137804739Y-94930922D01*
X137969077Y-95095261D01*
X138183795Y-95184200D01*
X138776150Y-95184200D01*
X138922200Y-95038150D01*
X138922200Y-94077800D01*
X137861850Y-94077800D01*
X137715800Y-94223850D01*
X135690491Y-94223850D01*
X135935667Y-93978674D01*
X135935670Y-93978672D01*
X136029206Y-93838685D01*
X136051296Y-93805625D01*
X136060831Y-93757689D01*
X136655120Y-93163400D01*
X137715800Y-93163400D01*
X137715800Y-93576150D01*
X137715800Y-93576150D01*
G37*
X137715800Y-93576150D02*
X137861850Y-93722200D01*
X138922200Y-93722200D01*
X138922200Y-93702200D01*
X139277800Y-93702200D01*
X139277800Y-93722200D01*
X139297800Y-93722200D01*
X139297800Y-94077800D01*
X139277800Y-94077800D01*
X139277800Y-95038150D01*
X139423850Y-95184200D01*
X139766600Y-95184200D01*
X139766600Y-97933236D01*
X139751328Y-97948508D01*
X139635702Y-98121556D01*
X139595099Y-98325679D01*
X139595099Y-98543441D01*
X139489848Y-98499737D01*
X139171548Y-98499459D01*
X138877372Y-98621011D01*
X138652104Y-98845886D01*
X138530039Y-99139850D01*
X138529859Y-99345497D01*
X134677460Y-103197896D01*
X134561834Y-103370944D01*
X134551448Y-103423159D01*
X134376735Y-103597567D01*
X134348913Y-103664571D01*
X133943400Y-103259058D01*
X133943400Y-102230130D01*
X134068452Y-102230239D01*
X134362628Y-102108687D01*
X134587896Y-101883812D01*
X134709961Y-101589848D01*
X134710239Y-101271548D01*
X134588687Y-100977372D01*
X134363812Y-100752104D01*
X134069848Y-100630039D01*
X133943400Y-100629929D01*
X133943400Y-97820034D01*
X134178452Y-97820239D01*
X134472628Y-97698687D01*
X134697896Y-97473812D01*
X134819961Y-97179848D01*
X134820239Y-96861548D01*
X134698687Y-96567372D01*
X134473812Y-96342104D01*
X134179848Y-96220039D01*
X133943400Y-96219832D01*
X133943400Y-95970942D01*
X135690491Y-94223850D01*
X137715800Y-94223850D01*
X137715800Y-94716204D01*
X137804739Y-94930922D01*
X137969077Y-95095261D01*
X138183795Y-95184200D01*
X138776150Y-95184200D01*
X138922200Y-95038150D01*
X138922200Y-94077800D01*
X137861850Y-94077800D01*
X137715800Y-94223850D01*
X135690491Y-94223850D01*
X135935667Y-93978674D01*
X135935670Y-93978672D01*
X136029206Y-93838685D01*
X136051296Y-93805625D01*
X136060831Y-93757689D01*
X136655120Y-93163400D01*
X137715800Y-93163400D01*
X137715800Y-93576150D01*
G36*
X140902187Y-95961754D02*
X141127062Y-96187022D01*
X141421026Y-96309087D01*
X141739326Y-96309365D01*
X142033502Y-96187813D01*
X142211554Y-96010071D01*
X142423464Y-96221981D01*
X142596511Y-96337607D01*
X142800634Y-96378210D01*
X145023871Y-96378213D01*
X145638101Y-96992443D01*
X145638101Y-97699933D01*
X145441548Y-97699761D01*
X145147372Y-97821313D01*
X144922104Y-98046188D01*
X144800039Y-98340152D01*
X144799761Y-98658452D01*
X144883805Y-98861853D01*
X141147220Y-102598438D01*
X141127298Y-102590166D01*
X140808998Y-102589888D01*
X140514822Y-102711440D01*
X140289554Y-102936315D01*
X140167489Y-103230279D01*
X140167221Y-103536600D01*
X139567962Y-103536600D01*
X141708672Y-101395890D01*
X141824298Y-101222842D01*
X141854868Y-101069160D01*
X142047985Y-101149350D01*
X142366285Y-101149628D01*
X142660461Y-101028076D01*
X142885729Y-100803201D01*
X143007794Y-100509237D01*
X143008072Y-100190937D01*
X142886520Y-99896761D01*
X142661645Y-99671493D01*
X142367681Y-99549428D01*
X142049381Y-99549150D01*
X141755205Y-99670702D01*
X141741088Y-99684795D01*
X141708672Y-99636281D01*
X141708669Y-99636279D01*
X141631337Y-99558946D01*
X141631515Y-99354775D01*
X141509963Y-99060599D01*
X141285088Y-98835331D01*
X140991124Y-98713266D01*
X140672824Y-98712988D01*
X140661899Y-98717502D01*
X140661899Y-98546621D01*
X140677171Y-98531349D01*
X140792797Y-98358301D01*
X140833400Y-98154178D01*
X140833400Y-95795278D01*
X140902187Y-95961754D01*
X140902187Y-95961754D01*
G37*
X140902187Y-95961754D02*
X141127062Y-96187022D01*
X141421026Y-96309087D01*
X141739326Y-96309365D01*
X142033502Y-96187813D01*
X142211554Y-96010071D01*
X142423464Y-96221981D01*
X142596511Y-96337607D01*
X142800634Y-96378210D01*
X145023871Y-96378213D01*
X145638101Y-96992443D01*
X145638101Y-97699933D01*
X145441548Y-97699761D01*
X145147372Y-97821313D01*
X144922104Y-98046188D01*
X144800039Y-98340152D01*
X144799761Y-98658452D01*
X144883805Y-98861853D01*
X141147220Y-102598438D01*
X141127298Y-102590166D01*
X140808998Y-102589888D01*
X140514822Y-102711440D01*
X140289554Y-102936315D01*
X140167489Y-103230279D01*
X140167221Y-103536600D01*
X139567962Y-103536600D01*
X141708672Y-101395890D01*
X141824298Y-101222842D01*
X141854868Y-101069160D01*
X142047985Y-101149350D01*
X142366285Y-101149628D01*
X142660461Y-101028076D01*
X142885729Y-100803201D01*
X143007794Y-100509237D01*
X143008072Y-100190937D01*
X142886520Y-99896761D01*
X142661645Y-99671493D01*
X142367681Y-99549428D01*
X142049381Y-99549150D01*
X141755205Y-99670702D01*
X141741088Y-99684795D01*
X141708672Y-99636281D01*
X141708669Y-99636279D01*
X141631337Y-99558946D01*
X141631515Y-99354775D01*
X141509963Y-99060599D01*
X141285088Y-98835331D01*
X140991124Y-98713266D01*
X140672824Y-98712988D01*
X140661899Y-98717502D01*
X140661899Y-98546621D01*
X140677171Y-98531349D01*
X140792797Y-98358301D01*
X140833400Y-98154178D01*
X140833400Y-95795278D01*
X140902187Y-95961754D01*
G36*
X152914896Y-100708896D02*
X152914896Y-103376780D01*
X152829671Y-103461857D01*
X152798060Y-103448731D01*
X152780501Y-103448716D01*
X152780501Y-100723822D01*
X152795531Y-100708792D01*
X152914896Y-100708896D01*
X152914896Y-100708896D01*
G37*
X152914896Y-100708896D02*
X152914896Y-103376780D01*
X152829671Y-103461857D01*
X152798060Y-103448731D01*
X152780501Y-103448716D01*
X152780501Y-100723822D01*
X152795531Y-100708792D01*
X152914896Y-100708896D01*
G36*
X146789056Y-99524059D02*
X146327178Y-99985937D01*
X146230539Y-99985937D01*
X146501852Y-99714624D01*
X146617478Y-99541576D01*
X146624387Y-99506843D01*
X146735876Y-99395354D01*
X146789056Y-99524059D01*
X146789056Y-99524059D01*
G37*
X146789056Y-99524059D02*
X146327178Y-99985937D01*
X146230539Y-99985937D01*
X146501852Y-99714624D01*
X146617478Y-99541576D01*
X146624387Y-99506843D01*
X146735876Y-99395354D01*
X146789056Y-99524059D01*
G36*
X153436600Y-91310942D02*
X153436600Y-95710000D01*
X153477203Y-95914123D01*
X153592829Y-96087171D01*
X154462829Y-96957171D01*
X154635877Y-97072797D01*
X154840000Y-97113400D01*
X161339058Y-97113400D01*
X161961458Y-97735800D01*
X161820000Y-97735800D01*
X161596436Y-97780270D01*
X161476707Y-97860270D01*
X161406908Y-97906908D01*
X159967727Y-99346089D01*
X159967727Y-98949950D01*
X159935847Y-98780522D01*
X159914347Y-98747110D01*
X160057896Y-98603812D01*
X160179961Y-98309848D01*
X160180239Y-97991548D01*
X160058687Y-97697372D01*
X159833812Y-97472104D01*
X159539848Y-97350039D01*
X159221548Y-97349761D01*
X159001864Y-97440533D01*
X158759848Y-97340039D01*
X158441548Y-97339761D01*
X158195676Y-97441354D01*
X157999848Y-97360039D01*
X157681548Y-97359761D01*
X157387372Y-97481313D01*
X157162104Y-97706188D01*
X157040039Y-98000152D01*
X157039761Y-98318452D01*
X157161313Y-98612628D01*
X157289859Y-98741398D01*
X157271280Y-98768589D01*
X157234553Y-98949950D01*
X157234553Y-99715800D01*
X156924094Y-99715800D01*
X156833435Y-99574912D01*
X156680651Y-99470520D01*
X156499290Y-99433793D01*
X154994273Y-99433793D01*
X154994195Y-99433400D01*
X154960938Y-99266207D01*
X156499290Y-99266207D01*
X156668718Y-99234327D01*
X156824328Y-99134195D01*
X156928720Y-98981411D01*
X156965447Y-98800050D01*
X156965447Y-97999950D01*
X156933567Y-97830522D01*
X156833435Y-97674912D01*
X156680651Y-97570520D01*
X156499290Y-97533793D01*
X154698430Y-97533793D01*
X154529002Y-97565673D01*
X154472588Y-97601974D01*
X151833345Y-94962731D01*
X151784587Y-94930152D01*
X151643817Y-94836093D01*
X151420253Y-94791623D01*
X147578865Y-94791623D01*
X147485332Y-94697927D01*
X147390617Y-94658598D01*
X147431639Y-94597203D01*
X147472797Y-94535606D01*
X147513400Y-94331482D01*
X147513400Y-93334200D01*
X147876150Y-93334200D01*
X148022200Y-93188150D01*
X148022200Y-92402800D01*
X148377800Y-92402800D01*
X148377800Y-93188150D01*
X148523850Y-93334200D01*
X149016205Y-93334200D01*
X149230923Y-93245261D01*
X149395261Y-93080922D01*
X149484200Y-92866204D01*
X149484200Y-92548850D01*
X150515800Y-92548850D01*
X150515800Y-92866204D01*
X150604739Y-93080922D01*
X150769077Y-93245261D01*
X150983795Y-93334200D01*
X151476150Y-93334200D01*
X151622200Y-93188150D01*
X151622200Y-92402800D01*
X151977800Y-92402800D01*
X151977800Y-93188150D01*
X152123850Y-93334200D01*
X152616205Y-93334200D01*
X152830923Y-93245261D01*
X152995261Y-93080922D01*
X153084200Y-92866204D01*
X153084200Y-92548850D01*
X152938150Y-92402800D01*
X151977800Y-92402800D01*
X151622200Y-92402800D01*
X150661850Y-92402800D01*
X150515800Y-92548850D01*
X149484200Y-92548850D01*
X149338150Y-92402800D01*
X148377800Y-92402800D01*
X148022200Y-92402800D01*
X148002200Y-92402800D01*
X148002200Y-92047200D01*
X148022200Y-92047200D01*
X148022200Y-92027200D01*
X148377800Y-92027200D01*
X148377800Y-92047200D01*
X149338150Y-92047200D01*
X149484200Y-91901150D01*
X149484200Y-91583796D01*
X149395261Y-91369078D01*
X149359425Y-91333242D01*
X149364456Y-91308400D01*
X150635424Y-91308400D01*
X150640173Y-91333643D01*
X150604739Y-91369078D01*
X150515800Y-91583796D01*
X150515800Y-91901150D01*
X150661850Y-92047200D01*
X151622200Y-92047200D01*
X151622200Y-92027200D01*
X151977800Y-92027200D01*
X151977800Y-92047200D01*
X152938150Y-92047200D01*
X153084200Y-91901150D01*
X153084200Y-91583796D01*
X152995261Y-91369078D01*
X152959425Y-91333242D01*
X152966157Y-91300000D01*
X152966157Y-91194543D01*
X152982833Y-91183400D01*
X153309058Y-91183400D01*
X153436600Y-91310942D01*
X153436600Y-91310942D01*
G37*
X153436600Y-91310942D02*
X153436600Y-95710000D01*
X153477203Y-95914123D01*
X153592829Y-96087171D01*
X154462829Y-96957171D01*
X154635877Y-97072797D01*
X154840000Y-97113400D01*
X161339058Y-97113400D01*
X161961458Y-97735800D01*
X161820000Y-97735800D01*
X161596436Y-97780270D01*
X161476707Y-97860270D01*
X161406908Y-97906908D01*
X159967727Y-99346089D01*
X159967727Y-98949950D01*
X159935847Y-98780522D01*
X159914347Y-98747110D01*
X160057896Y-98603812D01*
X160179961Y-98309848D01*
X160180239Y-97991548D01*
X160058687Y-97697372D01*
X159833812Y-97472104D01*
X159539848Y-97350039D01*
X159221548Y-97349761D01*
X159001864Y-97440533D01*
X158759848Y-97340039D01*
X158441548Y-97339761D01*
X158195676Y-97441354D01*
X157999848Y-97360039D01*
X157681548Y-97359761D01*
X157387372Y-97481313D01*
X157162104Y-97706188D01*
X157040039Y-98000152D01*
X157039761Y-98318452D01*
X157161313Y-98612628D01*
X157289859Y-98741398D01*
X157271280Y-98768589D01*
X157234553Y-98949950D01*
X157234553Y-99715800D01*
X156924094Y-99715800D01*
X156833435Y-99574912D01*
X156680651Y-99470520D01*
X156499290Y-99433793D01*
X154994273Y-99433793D01*
X154994195Y-99433400D01*
X154960938Y-99266207D01*
X156499290Y-99266207D01*
X156668718Y-99234327D01*
X156824328Y-99134195D01*
X156928720Y-98981411D01*
X156965447Y-98800050D01*
X156965447Y-97999950D01*
X156933567Y-97830522D01*
X156833435Y-97674912D01*
X156680651Y-97570520D01*
X156499290Y-97533793D01*
X154698430Y-97533793D01*
X154529002Y-97565673D01*
X154472588Y-97601974D01*
X151833345Y-94962731D01*
X151784587Y-94930152D01*
X151643817Y-94836093D01*
X151420253Y-94791623D01*
X147578865Y-94791623D01*
X147485332Y-94697927D01*
X147390617Y-94658598D01*
X147431639Y-94597203D01*
X147472797Y-94535606D01*
X147513400Y-94331482D01*
X147513400Y-93334200D01*
X147876150Y-93334200D01*
X148022200Y-93188150D01*
X148022200Y-92402800D01*
X148377800Y-92402800D01*
X148377800Y-93188150D01*
X148523850Y-93334200D01*
X149016205Y-93334200D01*
X149230923Y-93245261D01*
X149395261Y-93080922D01*
X149484200Y-92866204D01*
X149484200Y-92548850D01*
X150515800Y-92548850D01*
X150515800Y-92866204D01*
X150604739Y-93080922D01*
X150769077Y-93245261D01*
X150983795Y-93334200D01*
X151476150Y-93334200D01*
X151622200Y-93188150D01*
X151622200Y-92402800D01*
X151977800Y-92402800D01*
X151977800Y-93188150D01*
X152123850Y-93334200D01*
X152616205Y-93334200D01*
X152830923Y-93245261D01*
X152995261Y-93080922D01*
X153084200Y-92866204D01*
X153084200Y-92548850D01*
X152938150Y-92402800D01*
X151977800Y-92402800D01*
X151622200Y-92402800D01*
X150661850Y-92402800D01*
X150515800Y-92548850D01*
X149484200Y-92548850D01*
X149338150Y-92402800D01*
X148377800Y-92402800D01*
X148022200Y-92402800D01*
X148002200Y-92402800D01*
X148002200Y-92047200D01*
X148022200Y-92047200D01*
X148022200Y-92027200D01*
X148377800Y-92027200D01*
X148377800Y-92047200D01*
X149338150Y-92047200D01*
X149484200Y-91901150D01*
X149484200Y-91583796D01*
X149395261Y-91369078D01*
X149359425Y-91333242D01*
X149364456Y-91308400D01*
X150635424Y-91308400D01*
X150640173Y-91333643D01*
X150604739Y-91369078D01*
X150515800Y-91583796D01*
X150515800Y-91901150D01*
X150661850Y-92047200D01*
X151622200Y-92047200D01*
X151622200Y-92027200D01*
X151977800Y-92027200D01*
X151977800Y-92047200D01*
X152938150Y-92047200D01*
X153084200Y-91901150D01*
X153084200Y-91583796D01*
X152995261Y-91369078D01*
X152959425Y-91333242D01*
X152966157Y-91300000D01*
X152966157Y-91194543D01*
X152982833Y-91183400D01*
X153309058Y-91183400D01*
X153436600Y-91310942D01*
G36*
X141277800Y-91272200D02*
X143322200Y-91272200D01*
X143322200Y-91252200D01*
X143677800Y-91252200D01*
X143677800Y-91272200D01*
X143697800Y-91272200D01*
X143697800Y-91627800D01*
X143677800Y-91627800D01*
X143677800Y-92838150D01*
X143775750Y-92936100D01*
X143700000Y-93011850D01*
X143700000Y-93947200D01*
X143797800Y-93947200D01*
X143797800Y-94302800D01*
X143700000Y-94302800D01*
X143700000Y-94322800D01*
X143616157Y-94322800D01*
X143616157Y-93450000D01*
X143584277Y-93280572D01*
X143500000Y-93149601D01*
X143500000Y-93011850D01*
X143353950Y-92865800D01*
X143294550Y-92865800D01*
X143322200Y-92838150D01*
X143322200Y-91627800D01*
X141277800Y-91627800D01*
X141277800Y-91647800D01*
X140922200Y-91647800D01*
X140922200Y-91627800D01*
X140902200Y-91627800D01*
X140902200Y-91272200D01*
X140922200Y-91272200D01*
X140922200Y-91252200D01*
X141277800Y-91252200D01*
X141277800Y-91272200D01*
X141277800Y-91272200D01*
G37*
X141277800Y-91272200D02*
X143322200Y-91272200D01*
X143322200Y-91252200D01*
X143677800Y-91252200D01*
X143677800Y-91272200D01*
X143697800Y-91272200D01*
X143697800Y-91627800D01*
X143677800Y-91627800D01*
X143677800Y-92838150D01*
X143775750Y-92936100D01*
X143700000Y-93011850D01*
X143700000Y-93947200D01*
X143797800Y-93947200D01*
X143797800Y-94302800D01*
X143700000Y-94302800D01*
X143700000Y-94322800D01*
X143616157Y-94322800D01*
X143616157Y-93450000D01*
X143584277Y-93280572D01*
X143500000Y-93149601D01*
X143500000Y-93011850D01*
X143353950Y-92865800D01*
X143294550Y-92865800D01*
X143322200Y-92838150D01*
X143322200Y-91627800D01*
X141277800Y-91627800D01*
X141277800Y-91647800D01*
X140922200Y-91647800D01*
X140922200Y-91627800D01*
X140902200Y-91627800D01*
X140902200Y-91272200D01*
X140922200Y-91272200D01*
X140922200Y-91252200D01*
X141277800Y-91252200D01*
X141277800Y-91272200D01*
G36*
X145677800Y-93722200D02*
X145697800Y-93722200D01*
X145697800Y-94077800D01*
X145677800Y-94077800D01*
X145677800Y-94097800D01*
X145322200Y-94097800D01*
X145322200Y-94077800D01*
X145302200Y-94077800D01*
X145302200Y-93722200D01*
X145322200Y-93722200D01*
X145322200Y-93702200D01*
X145677800Y-93702200D01*
X145677800Y-93722200D01*
X145677800Y-93722200D01*
G37*
X145677800Y-93722200D02*
X145697800Y-93722200D01*
X145697800Y-94077800D01*
X145677800Y-94077800D01*
X145677800Y-94097800D01*
X145322200Y-94097800D01*
X145322200Y-94077800D01*
X145302200Y-94077800D01*
X145302200Y-93722200D01*
X145322200Y-93722200D01*
X145322200Y-93702200D01*
X145677800Y-93702200D01*
X145677800Y-93722200D01*
G36*
X139265590Y-91435858D02*
X139251447Y-91450000D01*
X139265590Y-91464143D01*
X139014143Y-91715590D01*
X139000000Y-91701447D01*
X138985858Y-91715590D01*
X138734411Y-91464143D01*
X138748553Y-91450000D01*
X138734411Y-91435858D01*
X138985858Y-91184411D01*
X139000000Y-91198553D01*
X139014143Y-91184411D01*
X139265590Y-91435858D01*
X139265590Y-91435858D01*
G37*
X139265590Y-91435858D02*
X139251447Y-91450000D01*
X139265590Y-91464143D01*
X139014143Y-91715590D01*
X139000000Y-91701447D01*
X138985858Y-91715590D01*
X138734411Y-91464143D01*
X138748553Y-91450000D01*
X138734411Y-91435858D01*
X138985858Y-91184411D01*
X139000000Y-91198553D01*
X139014143Y-91184411D01*
X139265590Y-91435858D01*
G36*
X145865590Y-91435858D02*
X145851447Y-91450000D01*
X145865590Y-91464143D01*
X145614143Y-91715590D01*
X145600000Y-91701447D01*
X145585858Y-91715590D01*
X145334411Y-91464143D01*
X145348553Y-91450000D01*
X145334411Y-91435858D01*
X145585858Y-91184411D01*
X145600000Y-91198553D01*
X145614143Y-91184411D01*
X145865590Y-91435858D01*
X145865590Y-91435858D01*
G37*
X145865590Y-91435858D02*
X145851447Y-91450000D01*
X145865590Y-91464143D01*
X145614143Y-91715590D01*
X145600000Y-91701447D01*
X145585858Y-91715590D01*
X145334411Y-91464143D01*
X145348553Y-91450000D01*
X145334411Y-91435858D01*
X145585858Y-91184411D01*
X145600000Y-91198553D01*
X145614143Y-91184411D01*
X145865590Y-91435858D01*
M02*
