G04 #@! TF.FileFunction,Paste,Top*
%FSLAX46Y46*%
G04 Gerber Fmt 4.6, Leading zero omitted, Abs format (unit mm)*
G04 Created by KiCad (PCBNEW 4.0.1-stable) date Thursday, April 14, 2016 'AMt' 11:50:35 AM*
%MOMM*%
G01*
G04 APERTURE LIST*
%ADD10C,0.100000*%
%ADD11R,0.700000X0.200000*%
%ADD12R,0.850000X0.300000*%
%ADD13R,0.300000X0.850000*%
%ADD14R,0.780000X0.780000*%
%ADD15R,1.200000X0.750000*%
%ADD16R,0.750000X1.200000*%
%ADD17R,2.000000X1.600000*%
%ADD18R,0.797560X0.797560*%
%ADD19R,0.900000X1.200000*%
%ADD20R,1.200000X0.900000*%
%ADD21R,0.280000X1.500000*%
%ADD22R,1.500000X0.280000*%
%ADD23R,1.060000X0.650000*%
%ADD24R,0.400000X2.100000*%
G04 APERTURE END LIST*
D10*
D11*
X161190000Y-100200000D03*
X161190000Y-100600000D03*
X161190000Y-101000000D03*
X161190000Y-101400000D03*
X161190000Y-101800000D03*
X161190000Y-102200000D03*
X161190000Y-102600000D03*
X161190000Y-103000000D03*
X161190000Y-103400000D03*
X161190000Y-103800000D03*
X161190000Y-107800000D03*
X161190000Y-107400000D03*
X161190000Y-107000000D03*
X161190000Y-106600000D03*
X161190000Y-106200000D03*
X161190000Y-105800000D03*
X161190000Y-105400000D03*
X161190000Y-105000000D03*
X161190000Y-104600000D03*
X161190000Y-104200000D03*
X161190000Y-108200000D03*
X161190000Y-108600000D03*
X161190000Y-109000000D03*
X161190000Y-109400000D03*
X161190000Y-109800000D03*
X161190000Y-110200000D03*
X161190000Y-110600000D03*
X161190000Y-111000000D03*
X161190000Y-111400000D03*
X161190000Y-111800000D03*
X161190000Y-115800000D03*
X161190000Y-115400000D03*
X161190000Y-115000000D03*
X161190000Y-114600000D03*
X161190000Y-114200000D03*
X161190000Y-113800000D03*
X161190000Y-113400000D03*
X161190000Y-113000000D03*
X161190000Y-112600000D03*
X161190000Y-112200000D03*
X158110000Y-112200000D03*
X158110000Y-112600000D03*
X158110000Y-113000000D03*
X158110000Y-113400000D03*
X158110000Y-113800000D03*
X158110000Y-114200000D03*
X158110000Y-114600000D03*
X158110000Y-115000000D03*
X158110000Y-115400000D03*
X158110000Y-115800000D03*
X158110000Y-111800000D03*
X158110000Y-111400000D03*
X158110000Y-111000000D03*
X158110000Y-110600000D03*
X158110000Y-110200000D03*
X158110000Y-109800000D03*
X158110000Y-109400000D03*
X158110000Y-109000000D03*
X158110000Y-108600000D03*
X158110000Y-108200000D03*
X158110000Y-104200000D03*
X158110000Y-104600000D03*
X158110000Y-105000000D03*
X158110000Y-105400000D03*
X158110000Y-105800000D03*
X158110000Y-106200000D03*
X158110000Y-106600000D03*
X158110000Y-107000000D03*
X158110000Y-107400000D03*
X158110000Y-107800000D03*
X158110000Y-103800000D03*
X158110000Y-103400000D03*
X158110000Y-103000000D03*
X158110000Y-102600000D03*
X158110000Y-102200000D03*
X158110000Y-101800000D03*
X158110000Y-101400000D03*
X158110000Y-101000000D03*
X158110000Y-100600000D03*
X158110000Y-100200000D03*
D12*
X140540000Y-97740000D03*
X140540000Y-97240000D03*
X140540000Y-96740000D03*
X140540000Y-96240000D03*
X140540000Y-95740000D03*
X140540000Y-95240000D03*
D13*
X139840000Y-94540000D03*
X139340000Y-94540000D03*
X138840000Y-94540000D03*
X138340000Y-94540000D03*
X137840000Y-94540000D03*
X137340000Y-94540000D03*
D12*
X136640000Y-95240000D03*
X136640000Y-95740000D03*
X136640000Y-96240000D03*
X136640000Y-96740000D03*
X136640000Y-97240000D03*
X136640000Y-97740000D03*
D13*
X137340000Y-98440000D03*
X137840000Y-98440000D03*
X138340000Y-98440000D03*
X138840000Y-98440000D03*
X139340000Y-98440000D03*
X139840000Y-98440000D03*
D14*
X137940000Y-95840000D03*
X137940000Y-97140000D03*
X139240000Y-95840000D03*
X139240000Y-97140000D03*
D15*
X137600000Y-100170000D03*
X139500000Y-100170000D03*
D16*
X135110000Y-96420000D03*
X135110000Y-98320000D03*
X137300000Y-92880000D03*
X137300000Y-90980000D03*
D15*
X131320000Y-98370000D03*
X133220000Y-98370000D03*
X144930000Y-100150000D03*
X143030000Y-100150000D03*
X133910000Y-100020000D03*
X135810000Y-100020000D03*
D16*
X151270000Y-104360000D03*
X151270000Y-102460000D03*
X131140000Y-102910000D03*
X131140000Y-104810000D03*
X131750000Y-115450000D03*
X131750000Y-113550000D03*
D15*
X133140000Y-117750000D03*
X131240000Y-117750000D03*
D17*
X158610000Y-96580000D03*
X154610000Y-96580000D03*
D16*
X153620000Y-94440000D03*
X153620000Y-92540000D03*
X148650000Y-119750000D03*
X148650000Y-117850000D03*
D15*
X146880000Y-119480000D03*
X144980000Y-119480000D03*
X156800000Y-125000000D03*
X158700000Y-125000000D03*
D18*
X152000000Y-90750700D03*
X152000000Y-92249300D03*
X150000000Y-90750700D03*
X150000000Y-92249300D03*
X148000000Y-90750700D03*
X148000000Y-92249300D03*
D19*
X152000000Y-97600000D03*
X152000000Y-95400000D03*
X150000000Y-97600000D03*
X150000000Y-95400000D03*
X148000000Y-97600000D03*
X148000000Y-95400000D03*
X150700000Y-122650000D03*
X150700000Y-124850000D03*
D20*
X154850000Y-124990000D03*
X152650000Y-124990000D03*
D21*
X147500000Y-101940000D03*
X147000000Y-101940000D03*
X146500000Y-101940000D03*
X146000000Y-101940000D03*
X145500000Y-101940000D03*
X145000000Y-101940000D03*
X144500000Y-101940000D03*
X144000000Y-101940000D03*
X143500000Y-101940000D03*
X143000000Y-101940000D03*
X142500000Y-101940000D03*
X142000000Y-101940000D03*
X141500000Y-101940000D03*
X141000000Y-101940000D03*
X140500000Y-101940000D03*
X140000000Y-101940000D03*
X139500000Y-101940000D03*
X139000000Y-101940000D03*
X138500000Y-101940000D03*
X138000000Y-101940000D03*
X137500000Y-101940000D03*
X137000000Y-101940000D03*
X136500000Y-101940000D03*
X136000000Y-101940000D03*
X135500000Y-101940000D03*
D22*
X133600000Y-103840000D03*
X133600000Y-104340000D03*
X133600000Y-104840000D03*
X133600000Y-105340000D03*
X133600000Y-105840000D03*
X133600000Y-106340000D03*
X133600000Y-106840000D03*
X133600000Y-107340000D03*
X133600000Y-107840000D03*
X133600000Y-108340000D03*
X133600000Y-108840000D03*
X133600000Y-109340000D03*
X133600000Y-109840000D03*
X133600000Y-110340000D03*
X133600000Y-110840000D03*
X133600000Y-111340000D03*
X133600000Y-111840000D03*
X133600000Y-112340000D03*
X133600000Y-112840000D03*
X133600000Y-113340000D03*
X133600000Y-113840000D03*
X133600000Y-114340000D03*
X133600000Y-114840000D03*
X133600000Y-115340000D03*
X133600000Y-115840000D03*
D21*
X135500000Y-117740000D03*
X136000000Y-117740000D03*
X136500000Y-117740000D03*
X137000000Y-117740000D03*
X137500000Y-117740000D03*
X138000000Y-117740000D03*
X138500000Y-117740000D03*
X139000000Y-117740000D03*
X139500000Y-117740000D03*
X140000000Y-117740000D03*
X140500000Y-117740000D03*
X141000000Y-117740000D03*
X141500000Y-117740000D03*
X142000000Y-117740000D03*
X142500000Y-117740000D03*
X143000000Y-117740000D03*
X143500000Y-117740000D03*
X144000000Y-117740000D03*
X144500000Y-117740000D03*
X145000000Y-117740000D03*
X145500000Y-117740000D03*
X146000000Y-117740000D03*
X146500000Y-117740000D03*
X147000000Y-117740000D03*
X147500000Y-117740000D03*
D22*
X149400000Y-115840000D03*
X149400000Y-115340000D03*
X149400000Y-114840000D03*
X149400000Y-114340000D03*
X149400000Y-113840000D03*
X149400000Y-113340000D03*
X149400000Y-112840000D03*
X149400000Y-112340000D03*
X149400000Y-111840000D03*
X149400000Y-111340000D03*
X149400000Y-110840000D03*
X149400000Y-110340000D03*
X149400000Y-109840000D03*
X149400000Y-109340000D03*
X149400000Y-108840000D03*
X149400000Y-108340000D03*
X149400000Y-107840000D03*
X149400000Y-107340000D03*
X149400000Y-106840000D03*
X149400000Y-106340000D03*
X149400000Y-105840000D03*
X149400000Y-105340000D03*
X149400000Y-104840000D03*
X149400000Y-104340000D03*
X149400000Y-103840000D03*
D23*
X157930000Y-94460000D03*
X157930000Y-93510000D03*
X157930000Y-92560000D03*
X155730000Y-92560000D03*
X155730000Y-94460000D03*
D24*
X144390000Y-97700000D03*
X141990000Y-97700000D03*
X143190000Y-97700000D03*
D20*
X158375000Y-123175000D03*
X156175000Y-123175000D03*
D19*
X131130000Y-108090000D03*
X131130000Y-110290000D03*
M02*
