G04 #@! TF.FileFunction,Legend,Bot*
%FSLAX46Y46*%
G04 Gerber Fmt 4.6, Leading zero omitted, Abs format (unit mm)*
G04 Created by KiCad (PCBNEW 4.0.1-stable) date Tuesday, May 31, 2016 'PMt' 12:22:36 PM*
%MOMM*%
G01*
G04 APERTURE LIST*
%ADD10C,0.100000*%
%ADD11C,0.400000*%
%ADD12C,0.150000*%
%ADD13C,0.180000*%
%ADD14C,0.300000*%
%ADD15C,0.200000*%
G04 APERTURE END LIST*
D10*
D11*
X157550000Y-105000000D02*
G75*
G03X157550000Y-105000000I-200000J0D01*
G01*
D12*
X162821904Y-97040000D02*
X162917142Y-96992381D01*
X163059999Y-96992381D01*
X163202857Y-97040000D01*
X163298095Y-97135238D01*
X163345714Y-97230476D01*
X163393333Y-97420952D01*
X163393333Y-97563810D01*
X163345714Y-97754286D01*
X163298095Y-97849524D01*
X163202857Y-97944762D01*
X163059999Y-97992381D01*
X162964761Y-97992381D01*
X162821904Y-97944762D01*
X162774285Y-97897143D01*
X162774285Y-97563810D01*
X162964761Y-97563810D01*
X162345714Y-97992381D02*
X162345714Y-96992381D01*
X161774285Y-97992381D01*
X161774285Y-96992381D01*
X161298095Y-97992381D02*
X161298095Y-96992381D01*
X161060000Y-96992381D01*
X160917142Y-97040000D01*
X160821904Y-97135238D01*
X160774285Y-97230476D01*
X160726666Y-97420952D01*
X160726666Y-97563810D01*
X160774285Y-97754286D01*
X160821904Y-97849524D01*
X160917142Y-97944762D01*
X161060000Y-97992381D01*
X161298095Y-97992381D01*
D13*
X153090476Y-96585238D02*
X152933333Y-96637619D01*
X152671429Y-96637619D01*
X152566667Y-96585238D01*
X152514286Y-96532857D01*
X152461905Y-96428095D01*
X152461905Y-96323333D01*
X152514286Y-96218571D01*
X152566667Y-96166190D01*
X152671429Y-96113810D01*
X152880952Y-96061429D01*
X152985714Y-96009048D01*
X153038095Y-95956667D01*
X153090476Y-95851905D01*
X153090476Y-95747143D01*
X153038095Y-95642381D01*
X152985714Y-95590000D01*
X152880952Y-95537619D01*
X152619048Y-95537619D01*
X152461905Y-95590000D01*
X151990476Y-96637619D02*
X151990476Y-95537619D01*
X151519048Y-96637619D02*
X151519048Y-96061429D01*
X151571429Y-95956667D01*
X151676191Y-95904286D01*
X151833333Y-95904286D01*
X151938095Y-95956667D01*
X151990476Y-96009048D01*
X150838095Y-96637619D02*
X150942857Y-96585238D01*
X150995238Y-96532857D01*
X151047619Y-96428095D01*
X151047619Y-96113810D01*
X150995238Y-96009048D01*
X150942857Y-95956667D01*
X150838095Y-95904286D01*
X150680953Y-95904286D01*
X150576191Y-95956667D01*
X150523810Y-96009048D01*
X150471429Y-96113810D01*
X150471429Y-96428095D01*
X150523810Y-96532857D01*
X150576191Y-96585238D01*
X150680953Y-96637619D01*
X150838095Y-96637619D01*
X150000000Y-96637619D02*
X150000000Y-95904286D01*
X150000000Y-96113810D02*
X149947619Y-96009048D01*
X149895238Y-95956667D01*
X149790476Y-95904286D01*
X149685715Y-95904286D01*
X149476191Y-95904286D02*
X149057143Y-95904286D01*
X149319048Y-95537619D02*
X149319048Y-96480476D01*
X149266667Y-96585238D01*
X149161905Y-96637619D01*
X149057143Y-96637619D01*
X147223811Y-96637619D02*
X147590477Y-96113810D01*
X147852382Y-96637619D02*
X147852382Y-95537619D01*
X147433335Y-95537619D01*
X147328573Y-95590000D01*
X147276192Y-95642381D01*
X147223811Y-95747143D01*
X147223811Y-95904286D01*
X147276192Y-96009048D01*
X147328573Y-96061429D01*
X147433335Y-96113810D01*
X147852382Y-96113810D01*
X146333335Y-96585238D02*
X146438097Y-96637619D01*
X146647620Y-96637619D01*
X146752382Y-96585238D01*
X146804763Y-96480476D01*
X146804763Y-96061429D01*
X146752382Y-95956667D01*
X146647620Y-95904286D01*
X146438097Y-95904286D01*
X146333335Y-95956667D01*
X146280954Y-96061429D01*
X146280954Y-96166190D01*
X146804763Y-96270952D01*
X145861906Y-96585238D02*
X145757144Y-96637619D01*
X145547620Y-96637619D01*
X145442859Y-96585238D01*
X145390478Y-96480476D01*
X145390478Y-96428095D01*
X145442859Y-96323333D01*
X145547620Y-96270952D01*
X145704763Y-96270952D01*
X145809525Y-96218571D01*
X145861906Y-96113810D01*
X145861906Y-96061429D01*
X145809525Y-95956667D01*
X145704763Y-95904286D01*
X145547620Y-95904286D01*
X145442859Y-95956667D01*
X144500002Y-96585238D02*
X144604764Y-96637619D01*
X144814287Y-96637619D01*
X144919049Y-96585238D01*
X144971430Y-96480476D01*
X144971430Y-96061429D01*
X144919049Y-95956667D01*
X144814287Y-95904286D01*
X144604764Y-95904286D01*
X144500002Y-95956667D01*
X144447621Y-96061429D01*
X144447621Y-96166190D01*
X144971430Y-96270952D01*
X144133335Y-95904286D02*
X143714287Y-95904286D01*
X143976192Y-95537619D02*
X143976192Y-96480476D01*
X143923811Y-96585238D01*
X143819049Y-96637619D01*
X143714287Y-96637619D01*
X152514286Y-98357619D02*
X153038095Y-98357619D01*
X153038095Y-97257619D01*
X151990476Y-98357619D02*
X152095238Y-98305238D01*
X152147619Y-98252857D01*
X152200000Y-98148095D01*
X152200000Y-97833810D01*
X152147619Y-97729048D01*
X152095238Y-97676667D01*
X151990476Y-97624286D01*
X151833334Y-97624286D01*
X151728572Y-97676667D01*
X151676191Y-97729048D01*
X151623810Y-97833810D01*
X151623810Y-98148095D01*
X151676191Y-98252857D01*
X151728572Y-98305238D01*
X151833334Y-98357619D01*
X151990476Y-98357619D01*
X151152381Y-97624286D02*
X151152381Y-98357619D01*
X151152381Y-97729048D02*
X151100000Y-97676667D01*
X150995238Y-97624286D01*
X150838096Y-97624286D01*
X150733334Y-97676667D01*
X150680953Y-97781429D01*
X150680953Y-98357619D01*
X149685715Y-97624286D02*
X149685715Y-98514762D01*
X149738096Y-98619524D01*
X149790477Y-98671905D01*
X149895238Y-98724286D01*
X150052381Y-98724286D01*
X150157143Y-98671905D01*
X149685715Y-98305238D02*
X149790477Y-98357619D01*
X150000000Y-98357619D01*
X150104762Y-98305238D01*
X150157143Y-98252857D01*
X150209524Y-98148095D01*
X150209524Y-97833810D01*
X150157143Y-97729048D01*
X150104762Y-97676667D01*
X150000000Y-97624286D01*
X149790477Y-97624286D01*
X149685715Y-97676667D01*
X147957144Y-97781429D02*
X147800001Y-97833810D01*
X147747620Y-97886190D01*
X147695239Y-97990952D01*
X147695239Y-98148095D01*
X147747620Y-98252857D01*
X147800001Y-98305238D01*
X147904763Y-98357619D01*
X148323810Y-98357619D01*
X148323810Y-97257619D01*
X147957144Y-97257619D01*
X147852382Y-97310000D01*
X147800001Y-97362381D01*
X147747620Y-97467143D01*
X147747620Y-97571905D01*
X147800001Y-97676667D01*
X147852382Y-97729048D01*
X147957144Y-97781429D01*
X148323810Y-97781429D01*
X147066667Y-98357619D02*
X147171429Y-98305238D01*
X147223810Y-98252857D01*
X147276191Y-98148095D01*
X147276191Y-97833810D01*
X147223810Y-97729048D01*
X147171429Y-97676667D01*
X147066667Y-97624286D01*
X146909525Y-97624286D01*
X146804763Y-97676667D01*
X146752382Y-97729048D01*
X146700001Y-97833810D01*
X146700001Y-98148095D01*
X146752382Y-98252857D01*
X146804763Y-98305238D01*
X146909525Y-98357619D01*
X147066667Y-98357619D01*
X146071429Y-98357619D02*
X146176191Y-98305238D01*
X146228572Y-98252857D01*
X146280953Y-98148095D01*
X146280953Y-97833810D01*
X146228572Y-97729048D01*
X146176191Y-97676667D01*
X146071429Y-97624286D01*
X145914287Y-97624286D01*
X145809525Y-97676667D01*
X145757144Y-97729048D01*
X145704763Y-97833810D01*
X145704763Y-98148095D01*
X145757144Y-98252857D01*
X145809525Y-98305238D01*
X145914287Y-98357619D01*
X146071429Y-98357619D01*
X145390477Y-97624286D02*
X144971429Y-97624286D01*
X145233334Y-97257619D02*
X145233334Y-98200476D01*
X145180953Y-98305238D01*
X145076191Y-98357619D01*
X144971429Y-98357619D01*
X144447620Y-98357619D02*
X144552382Y-98305238D01*
X144604763Y-98200476D01*
X144604763Y-97257619D01*
X143871430Y-98357619D02*
X143976192Y-98305238D01*
X144028573Y-98252857D01*
X144080954Y-98148095D01*
X144080954Y-97833810D01*
X144028573Y-97729048D01*
X143976192Y-97676667D01*
X143871430Y-97624286D01*
X143714288Y-97624286D01*
X143609526Y-97676667D01*
X143557145Y-97729048D01*
X143504764Y-97833810D01*
X143504764Y-98148095D01*
X143557145Y-98252857D01*
X143609526Y-98305238D01*
X143714288Y-98357619D01*
X143871430Y-98357619D01*
X142561907Y-98357619D02*
X142561907Y-97781429D01*
X142614288Y-97676667D01*
X142719050Y-97624286D01*
X142928573Y-97624286D01*
X143033335Y-97676667D01*
X142561907Y-98305238D02*
X142666669Y-98357619D01*
X142928573Y-98357619D01*
X143033335Y-98305238D01*
X143085716Y-98200476D01*
X143085716Y-98095714D01*
X143033335Y-97990952D01*
X142928573Y-97938571D01*
X142666669Y-97938571D01*
X142561907Y-97886190D01*
X141566669Y-98357619D02*
X141566669Y-97257619D01*
X141566669Y-98305238D02*
X141671431Y-98357619D01*
X141880954Y-98357619D01*
X141985716Y-98305238D01*
X142038097Y-98252857D01*
X142090478Y-98148095D01*
X142090478Y-97833810D01*
X142038097Y-97729048D01*
X141985716Y-97676667D01*
X141880954Y-97624286D01*
X141671431Y-97624286D01*
X141566669Y-97676667D01*
X140623812Y-98305238D02*
X140728574Y-98357619D01*
X140938097Y-98357619D01*
X141042859Y-98305238D01*
X141095240Y-98200476D01*
X141095240Y-97781429D01*
X141042859Y-97676667D01*
X140938097Y-97624286D01*
X140728574Y-97624286D01*
X140623812Y-97676667D01*
X140571431Y-97781429D01*
X140571431Y-97886190D01*
X141095240Y-97990952D01*
X140100002Y-98357619D02*
X140100002Y-97624286D01*
X140100002Y-97833810D02*
X140047621Y-97729048D01*
X139995240Y-97676667D01*
X139890478Y-97624286D01*
X139785717Y-97624286D01*
D12*
X157576190Y-119152381D02*
X156957142Y-119152381D01*
X157290476Y-119533333D01*
X157147618Y-119533333D01*
X157052380Y-119580952D01*
X157004761Y-119628571D01*
X156957142Y-119723810D01*
X156957142Y-119961905D01*
X157004761Y-120057143D01*
X157052380Y-120104762D01*
X157147618Y-120152381D01*
X157433333Y-120152381D01*
X157528571Y-120104762D01*
X157576190Y-120057143D01*
X156528571Y-120057143D02*
X156480952Y-120104762D01*
X156528571Y-120152381D01*
X156576190Y-120104762D01*
X156528571Y-120057143D01*
X156528571Y-120152381D01*
X156147619Y-119152381D02*
X155528571Y-119152381D01*
X155861905Y-119533333D01*
X155719047Y-119533333D01*
X155623809Y-119580952D01*
X155576190Y-119628571D01*
X155528571Y-119723810D01*
X155528571Y-119961905D01*
X155576190Y-120057143D01*
X155623809Y-120104762D01*
X155719047Y-120152381D01*
X156004762Y-120152381D01*
X156100000Y-120104762D01*
X156147619Y-120057143D01*
X155242857Y-119152381D02*
X154909524Y-120152381D01*
X154576190Y-119152381D01*
X146178571Y-110300000D02*
X146273809Y-110252381D01*
X146416666Y-110252381D01*
X146559524Y-110300000D01*
X146654762Y-110395238D01*
X146702381Y-110490476D01*
X146750000Y-110680952D01*
X146750000Y-110823810D01*
X146702381Y-111014286D01*
X146654762Y-111109524D01*
X146559524Y-111204762D01*
X146416666Y-111252381D01*
X146321428Y-111252381D01*
X146178571Y-111204762D01*
X146130952Y-111157143D01*
X146130952Y-110823810D01*
X146321428Y-110823810D01*
X145702381Y-111252381D02*
X145702381Y-110252381D01*
X145130952Y-111252381D01*
X145130952Y-110252381D01*
X144654762Y-111252381D02*
X144654762Y-110252381D01*
X144416667Y-110252381D01*
X144273809Y-110300000D01*
X144178571Y-110395238D01*
X144130952Y-110490476D01*
X144083333Y-110680952D01*
X144083333Y-110823810D01*
X144130952Y-111014286D01*
X144178571Y-111109524D01*
X144273809Y-111204762D01*
X144416667Y-111252381D01*
X144654762Y-111252381D01*
X142702381Y-110252381D02*
X142511904Y-110252381D01*
X142416666Y-110300000D01*
X142321428Y-110395238D01*
X142273809Y-110585714D01*
X142273809Y-110919048D01*
X142321428Y-111109524D01*
X142416666Y-111204762D01*
X142511904Y-111252381D01*
X142702381Y-111252381D01*
X142797619Y-111204762D01*
X142892857Y-111109524D01*
X142940476Y-110919048D01*
X142940476Y-110585714D01*
X142892857Y-110395238D01*
X142797619Y-110300000D01*
X142702381Y-110252381D01*
X141416666Y-110585714D02*
X141416666Y-111252381D01*
X141845238Y-110585714D02*
X141845238Y-111109524D01*
X141797619Y-111204762D01*
X141702381Y-111252381D01*
X141559523Y-111252381D01*
X141464285Y-111204762D01*
X141416666Y-111157143D01*
X141083333Y-110585714D02*
X140702381Y-110585714D01*
X140940476Y-110252381D02*
X140940476Y-111109524D01*
X140892857Y-111204762D01*
X140797619Y-111252381D01*
X140702381Y-111252381D01*
X140416666Y-111204762D02*
X140321428Y-111252381D01*
X140130952Y-111252381D01*
X140035713Y-111204762D01*
X139988094Y-111109524D01*
X139988094Y-111061905D01*
X140035713Y-110966667D01*
X140130952Y-110919048D01*
X140273809Y-110919048D01*
X140369047Y-110871429D01*
X140416666Y-110776190D01*
X140416666Y-110728571D01*
X140369047Y-110633333D01*
X140273809Y-110585714D01*
X140130952Y-110585714D01*
X140035713Y-110633333D01*
X139559523Y-111252381D02*
X139559523Y-110585714D01*
X139559523Y-110252381D02*
X139607142Y-110300000D01*
X139559523Y-110347619D01*
X139511904Y-110300000D01*
X139559523Y-110252381D01*
X139559523Y-110347619D01*
X138654761Y-111252381D02*
X138654761Y-110252381D01*
X138654761Y-111204762D02*
X138749999Y-111252381D01*
X138940476Y-111252381D01*
X139035714Y-111204762D01*
X139083333Y-111157143D01*
X139130952Y-111061905D01*
X139130952Y-110776190D01*
X139083333Y-110680952D01*
X139035714Y-110633333D01*
X138940476Y-110585714D01*
X138749999Y-110585714D01*
X138654761Y-110633333D01*
X137797618Y-111204762D02*
X137892856Y-111252381D01*
X138083333Y-111252381D01*
X138178571Y-111204762D01*
X138226190Y-111109524D01*
X138226190Y-110728571D01*
X138178571Y-110633333D01*
X138083333Y-110585714D01*
X137892856Y-110585714D01*
X137797618Y-110633333D01*
X137749999Y-110728571D01*
X137749999Y-110823810D01*
X138226190Y-110919048D01*
X159090476Y-120952381D02*
X159423810Y-120476190D01*
X159661905Y-120952381D02*
X159661905Y-119952381D01*
X159280952Y-119952381D01*
X159185714Y-120000000D01*
X159138095Y-120047619D01*
X159090476Y-120142857D01*
X159090476Y-120285714D01*
X159138095Y-120380952D01*
X159185714Y-120428571D01*
X159280952Y-120476190D01*
X159661905Y-120476190D01*
X163428571Y-120428571D02*
X163285714Y-120476190D01*
X163238095Y-120523810D01*
X163190476Y-120619048D01*
X163190476Y-120761905D01*
X163238095Y-120857143D01*
X163285714Y-120904762D01*
X163380952Y-120952381D01*
X163761905Y-120952381D01*
X163761905Y-119952381D01*
X163428571Y-119952381D01*
X163333333Y-120000000D01*
X163285714Y-120047619D01*
X163238095Y-120142857D01*
X163238095Y-120238095D01*
X163285714Y-120333333D01*
X163333333Y-120380952D01*
X163428571Y-120428571D01*
X163761905Y-120428571D01*
D14*
X138814285Y-106528571D02*
X138814285Y-107528571D01*
X139171428Y-105957143D02*
X139528571Y-107028571D01*
X138599999Y-107028571D01*
X142199999Y-106028571D02*
X141271428Y-106028571D01*
X141771428Y-106600000D01*
X141557142Y-106600000D01*
X141414285Y-106671429D01*
X141342856Y-106742857D01*
X141271428Y-106885714D01*
X141271428Y-107242857D01*
X141342856Y-107385714D01*
X141414285Y-107457143D01*
X141557142Y-107528571D01*
X141985714Y-107528571D01*
X142128571Y-107457143D01*
X142199999Y-107385714D01*
X146171428Y-107528571D02*
X147028571Y-107528571D01*
X146599999Y-107528571D02*
X146599999Y-106028571D01*
X146742856Y-106242857D01*
X146885714Y-106385714D01*
X147028571Y-106457143D01*
X144728571Y-106171429D02*
X144657142Y-106100000D01*
X144514285Y-106028571D01*
X144157142Y-106028571D01*
X144014285Y-106100000D01*
X143942856Y-106171429D01*
X143871428Y-106314286D01*
X143871428Y-106457143D01*
X143942856Y-106671429D01*
X144799999Y-107528571D01*
X143871428Y-107528571D01*
X146171428Y-120328571D02*
X147028571Y-120328571D01*
X146599999Y-120328571D02*
X146599999Y-118828571D01*
X146742856Y-119042857D01*
X146885714Y-119185714D01*
X147028571Y-119257143D01*
X144528571Y-118971429D02*
X144457142Y-118900000D01*
X144314285Y-118828571D01*
X143957142Y-118828571D01*
X143814285Y-118900000D01*
X143742856Y-118971429D01*
X143671428Y-119114286D01*
X143671428Y-119257143D01*
X143742856Y-119471429D01*
X144599999Y-120328571D01*
X143671428Y-120328571D01*
X142199999Y-118828571D02*
X141271428Y-118828571D01*
X141771428Y-119400000D01*
X141557142Y-119400000D01*
X141414285Y-119471429D01*
X141342856Y-119542857D01*
X141271428Y-119685714D01*
X141271428Y-120042857D01*
X141342856Y-120185714D01*
X141414285Y-120257143D01*
X141557142Y-120328571D01*
X141985714Y-120328571D01*
X142128571Y-120257143D01*
X142199999Y-120185714D01*
X138714285Y-119328571D02*
X138714285Y-120328571D01*
X139071428Y-118757143D02*
X139428571Y-119828571D01*
X138499999Y-119828571D01*
D15*
X137014285Y-124400000D02*
X137128571Y-124342857D01*
X137300000Y-124342857D01*
X137471428Y-124400000D01*
X137585714Y-124514286D01*
X137642857Y-124628571D01*
X137700000Y-124857143D01*
X137700000Y-125028571D01*
X137642857Y-125257143D01*
X137585714Y-125371429D01*
X137471428Y-125485714D01*
X137300000Y-125542857D01*
X137185714Y-125542857D01*
X137014285Y-125485714D01*
X136957142Y-125428571D01*
X136957142Y-125028571D01*
X137185714Y-125028571D01*
X136442857Y-125542857D02*
X136442857Y-124342857D01*
X135757142Y-125542857D01*
X135757142Y-124342857D01*
X135185714Y-125542857D02*
X135185714Y-124342857D01*
X134899999Y-124342857D01*
X134728571Y-124400000D01*
X134614285Y-124514286D01*
X134557142Y-124628571D01*
X134499999Y-124857143D01*
X134499999Y-125028571D01*
X134557142Y-125257143D01*
X134614285Y-125371429D01*
X134728571Y-125485714D01*
X134899999Y-125542857D01*
X135185714Y-125542857D01*
X137728572Y-122885714D02*
X137557143Y-122942857D01*
X137271429Y-122942857D01*
X137157143Y-122885714D01*
X137100000Y-122828571D01*
X137042857Y-122714286D01*
X137042857Y-122600000D01*
X137100000Y-122485714D01*
X137157143Y-122428571D01*
X137271429Y-122371429D01*
X137500000Y-122314286D01*
X137614286Y-122257143D01*
X137671429Y-122200000D01*
X137728572Y-122085714D01*
X137728572Y-121971429D01*
X137671429Y-121857143D01*
X137614286Y-121800000D01*
X137500000Y-121742857D01*
X137214286Y-121742857D01*
X137042857Y-121800000D01*
X136528572Y-122942857D02*
X136528572Y-121742857D01*
X135328571Y-121800000D02*
X135442857Y-121742857D01*
X135614286Y-121742857D01*
X135785714Y-121800000D01*
X135900000Y-121914286D01*
X135957143Y-122028571D01*
X136014286Y-122257143D01*
X136014286Y-122428571D01*
X135957143Y-122657143D01*
X135900000Y-122771429D01*
X135785714Y-122885714D01*
X135614286Y-122942857D01*
X135500000Y-122942857D01*
X135328571Y-122885714D01*
X135271428Y-122828571D01*
X135271428Y-122428571D01*
X135500000Y-122428571D01*
X130914286Y-107371429D02*
X130914286Y-106971429D01*
X131542857Y-106971429D02*
X130342857Y-106971429D01*
X130342857Y-107542858D01*
X131542857Y-108000000D02*
X130742857Y-108000000D01*
X130971429Y-108000000D02*
X130857143Y-108057143D01*
X130800000Y-108114286D01*
X130742857Y-108228572D01*
X130742857Y-108342857D01*
X131542857Y-108914286D02*
X131485714Y-108800000D01*
X131428571Y-108742857D01*
X131314286Y-108685714D01*
X130971429Y-108685714D01*
X130857143Y-108742857D01*
X130800000Y-108800000D01*
X130742857Y-108914286D01*
X130742857Y-109085714D01*
X130800000Y-109200000D01*
X130857143Y-109257143D01*
X130971429Y-109314286D01*
X131314286Y-109314286D01*
X131428571Y-109257143D01*
X131485714Y-109200000D01*
X131542857Y-109085714D01*
X131542857Y-108914286D01*
X130742857Y-109828571D02*
X131542857Y-109828571D01*
X130857143Y-109828571D02*
X130800000Y-109885714D01*
X130742857Y-110000000D01*
X130742857Y-110171428D01*
X130800000Y-110285714D01*
X130914286Y-110342857D01*
X131542857Y-110342857D01*
X130742857Y-110742857D02*
X130742857Y-111200000D01*
X130342857Y-110914285D02*
X131371429Y-110914285D01*
X131485714Y-110971428D01*
X131542857Y-111085714D01*
X131542857Y-111200000D01*
D12*
X160633333Y-91352381D02*
X160633333Y-90352381D01*
X160252380Y-90352381D01*
X160157142Y-90400000D01*
X160109523Y-90447619D01*
X160061904Y-90542857D01*
X160061904Y-90685714D01*
X160109523Y-90780952D01*
X160157142Y-90828571D01*
X160252380Y-90876190D01*
X160633333Y-90876190D01*
X159728571Y-90352381D02*
X159490476Y-91352381D01*
X159299999Y-90638095D01*
X159109523Y-91352381D01*
X158871428Y-90352381D01*
X157919047Y-91352381D02*
X158252381Y-90876190D01*
X158490476Y-91352381D02*
X158490476Y-90352381D01*
X158109523Y-90352381D01*
X158014285Y-90400000D01*
X157966666Y-90447619D01*
X157919047Y-90542857D01*
X157919047Y-90685714D01*
X157966666Y-90780952D01*
X158014285Y-90828571D01*
X158109523Y-90876190D01*
X158490476Y-90876190D01*
D15*
X165257143Y-99550000D02*
X165328571Y-99407143D01*
X165328571Y-99121429D01*
X165257143Y-98978571D01*
X165185714Y-98907143D01*
X165042857Y-98835714D01*
X164614286Y-98835714D01*
X164471429Y-98907143D01*
X164400000Y-98978571D01*
X164328571Y-99121429D01*
X164328571Y-99407143D01*
X164400000Y-99550000D01*
X165328571Y-100192857D02*
X163828571Y-100192857D01*
X164757143Y-100335714D02*
X165328571Y-100764285D01*
X164328571Y-100764285D02*
X164900000Y-100192857D01*
X165328571Y-102050000D02*
X163828571Y-102050000D01*
X165257143Y-102050000D02*
X165328571Y-101907143D01*
X165328571Y-101621429D01*
X165257143Y-101478571D01*
X165185714Y-101407143D01*
X165042857Y-101335714D01*
X164614286Y-101335714D01*
X164471429Y-101407143D01*
X164400000Y-101478571D01*
X164328571Y-101621429D01*
X164328571Y-101907143D01*
X164400000Y-102050000D01*
X165185714Y-102764286D02*
X165257143Y-102835714D01*
X165328571Y-102764286D01*
X165257143Y-102692857D01*
X165185714Y-102764286D01*
X165328571Y-102764286D01*
X164328571Y-103264286D02*
X164328571Y-103835715D01*
X163828571Y-103478572D02*
X165114286Y-103478572D01*
X165257143Y-103550000D01*
X165328571Y-103692858D01*
X165328571Y-103835715D01*
X165257143Y-104907143D02*
X165328571Y-104764286D01*
X165328571Y-104478572D01*
X165257143Y-104335715D01*
X165114286Y-104264286D01*
X164542857Y-104264286D01*
X164400000Y-104335715D01*
X164328571Y-104478572D01*
X164328571Y-104764286D01*
X164400000Y-104907143D01*
X164542857Y-104978572D01*
X164685714Y-104978572D01*
X164828571Y-104264286D01*
X165257143Y-106264286D02*
X165328571Y-106121429D01*
X165328571Y-105835715D01*
X165257143Y-105692857D01*
X165185714Y-105621429D01*
X165042857Y-105550000D01*
X164614286Y-105550000D01*
X164471429Y-105621429D01*
X164400000Y-105692857D01*
X164328571Y-105835715D01*
X164328571Y-106121429D01*
X164400000Y-106264286D01*
X165328571Y-106907143D02*
X163828571Y-106907143D01*
X165328571Y-107550000D02*
X164542857Y-107550000D01*
X164400000Y-107478571D01*
X164328571Y-107335714D01*
X164328571Y-107121429D01*
X164400000Y-106978571D01*
X164471429Y-106907143D01*
X163757143Y-109335714D02*
X165685714Y-108050000D01*
X164328571Y-109621429D02*
X164328571Y-110192858D01*
X165328571Y-109835715D02*
X164042857Y-109835715D01*
X163900000Y-109907143D01*
X163828571Y-110050001D01*
X163828571Y-110192858D01*
X164328571Y-111335715D02*
X165328571Y-111335715D01*
X163757143Y-110978572D02*
X164828571Y-110621429D01*
X164828571Y-111550001D01*
X164328571Y-111907143D02*
X164328571Y-112478572D01*
X165328571Y-112121429D02*
X164042857Y-112121429D01*
X163900000Y-112192857D01*
X163828571Y-112335715D01*
X163828571Y-112478572D01*
X165257143Y-113621429D02*
X165328571Y-113478572D01*
X165328571Y-113192858D01*
X165257143Y-113050000D01*
X165185714Y-112978572D01*
X165042857Y-112907143D01*
X164614286Y-112907143D01*
X164471429Y-112978572D01*
X164400000Y-113050000D01*
X164328571Y-113192858D01*
X164328571Y-113478572D01*
X164400000Y-113621429D01*
X163757143Y-115335714D02*
X165685714Y-114050000D01*
X164328571Y-115692858D02*
X165328571Y-116050001D01*
X164328571Y-116407143D01*
X163828571Y-117692858D02*
X163828571Y-116978572D01*
X164542857Y-116907143D01*
X164471429Y-116978572D01*
X164400000Y-117121429D01*
X164400000Y-117478572D01*
X164471429Y-117621429D01*
X164542857Y-117692858D01*
X164685714Y-117764286D01*
X165042857Y-117764286D01*
X165185714Y-117692858D01*
X165257143Y-117621429D01*
X165328571Y-117478572D01*
X165328571Y-117121429D01*
X165257143Y-116978572D01*
X165185714Y-116907143D01*
D12*
X158730000Y-105230000D02*
X160580000Y-105230000D01*
X158730000Y-110750000D02*
X160580000Y-110750000D01*
X159655000Y-109790000D02*
X159655000Y-106190000D01*
X157489300Y-91440000D02*
X155589300Y-91440000D01*
X157489300Y-90340000D02*
X155589300Y-90340000D01*
X156589300Y-90890000D02*
X156139300Y-90890000D01*
X156639300Y-90640000D02*
X156639300Y-91140000D01*
X156639300Y-90890000D02*
X156389300Y-90640000D01*
X156389300Y-90640000D02*
X156389300Y-91140000D01*
X156389300Y-91140000D02*
X156639300Y-90890000D01*
X148250000Y-124900000D02*
X148250000Y-126050000D01*
X148250000Y-126050000D02*
X146700000Y-126050000D01*
X138826000Y-123376000D02*
X138826000Y-123884000D01*
X139334000Y-123376000D02*
X139334000Y-123884000D01*
X141366000Y-123376000D02*
X141366000Y-123884000D01*
X141874000Y-123376000D02*
X141874000Y-123884000D01*
X143906000Y-123376000D02*
X143906000Y-123884000D01*
X144414000Y-123376000D02*
X144414000Y-123884000D01*
X146446000Y-123376000D02*
X146446000Y-123884000D01*
X146954000Y-123376000D02*
X146954000Y-123884000D01*
X146954000Y-120836000D02*
X146954000Y-121344000D01*
X146446000Y-120836000D02*
X146446000Y-121344000D01*
X144414000Y-120836000D02*
X144414000Y-121344000D01*
X143906000Y-120836000D02*
X143906000Y-121344000D01*
X138826000Y-120836000D02*
X138826000Y-121344000D01*
X139334000Y-120836000D02*
X139334000Y-121344000D01*
X141366000Y-120836000D02*
X141366000Y-121344000D01*
X141874000Y-120836000D02*
X141874000Y-121344000D01*
X146827000Y-118296000D02*
X146827000Y-112327000D01*
X146827000Y-112327000D02*
X146573000Y-112327000D01*
X146573000Y-112327000D02*
X146573000Y-118169000D01*
X146573000Y-118169000D02*
X146700000Y-118169000D01*
X146700000Y-118169000D02*
X146700000Y-112327000D01*
X137810000Y-120836000D02*
X137810000Y-118296000D01*
X142890000Y-120836000D02*
X142890000Y-118296000D01*
X142890000Y-120836000D02*
X140350000Y-120836000D01*
X140350000Y-120836000D02*
X140350000Y-118296000D01*
X141874000Y-118296000D02*
X141874000Y-112200000D01*
X141874000Y-112200000D02*
X141366000Y-112200000D01*
X141366000Y-112200000D02*
X141366000Y-118296000D01*
X140350000Y-118296000D02*
X142890000Y-118296000D01*
X137810000Y-118296000D02*
X140350000Y-118296000D01*
X138826000Y-112200000D02*
X138826000Y-118296000D01*
X139334000Y-112200000D02*
X138826000Y-112200000D01*
X139334000Y-118296000D02*
X139334000Y-112200000D01*
X137810000Y-120836000D02*
X137810000Y-118296000D01*
X140350000Y-120836000D02*
X137810000Y-120836000D01*
X140350000Y-120836000D02*
X140350000Y-118296000D01*
X145430000Y-120836000D02*
X145430000Y-118296000D01*
X145430000Y-120836000D02*
X142890000Y-120836000D01*
X142890000Y-120836000D02*
X142890000Y-118296000D01*
X144414000Y-118296000D02*
X144414000Y-112200000D01*
X144414000Y-112200000D02*
X143906000Y-112200000D01*
X143906000Y-112200000D02*
X143906000Y-118296000D01*
X142890000Y-118296000D02*
X145430000Y-118296000D01*
X145430000Y-118296000D02*
X147970000Y-118296000D01*
X146446000Y-112200000D02*
X146446000Y-118296000D01*
X146954000Y-112200000D02*
X146446000Y-112200000D01*
X146954000Y-118296000D02*
X146954000Y-112200000D01*
X145430000Y-120836000D02*
X145430000Y-118296000D01*
X147970000Y-120836000D02*
X145430000Y-120836000D01*
X147970000Y-120836000D02*
X147970000Y-118296000D01*
X146210000Y-103675000D02*
X145210000Y-103675000D01*
X145210000Y-105025000D02*
X146210000Y-105025000D01*
X133450000Y-108965000D02*
X134450000Y-108965000D01*
X134450000Y-107615000D02*
X133450000Y-107615000D01*
X134360000Y-109625000D02*
X133360000Y-109625000D01*
X133360000Y-110975000D02*
X134360000Y-110975000D01*
X156490000Y-93255000D02*
X157490000Y-93255000D01*
X157490000Y-91905000D02*
X156490000Y-91905000D01*
X150850000Y-89950000D02*
X150850000Y-89400000D01*
X150850000Y-89400000D02*
X149150000Y-89400000D01*
X149150000Y-89400000D02*
X149150000Y-89950000D01*
X148250000Y-93050000D02*
X151750000Y-93050000D01*
X151750000Y-89950000D02*
X148250000Y-89950000D01*
X158949160Y-124775240D02*
X158900900Y-124775240D01*
X156150180Y-124074200D02*
X156150180Y-124775240D01*
X156150180Y-124775240D02*
X156399100Y-124775240D01*
X158949160Y-124775240D02*
X159149820Y-124775240D01*
X159149820Y-124775240D02*
X159149820Y-124074200D01*
X152850840Y-123474760D02*
X152899100Y-123474760D01*
X155649820Y-124175800D02*
X155649820Y-123474760D01*
X155649820Y-123474760D02*
X155400900Y-123474760D01*
X152850840Y-123474760D02*
X152650180Y-123474760D01*
X152650180Y-123474760D02*
X152650180Y-124175800D01*
X151974160Y-124775240D02*
X151925900Y-124775240D01*
X149175180Y-124074200D02*
X149175180Y-124775240D01*
X149175180Y-124775240D02*
X149424100Y-124775240D01*
X151974160Y-124775240D02*
X152174820Y-124775240D01*
X152174820Y-124775240D02*
X152174820Y-124074200D01*
X157750240Y-98050840D02*
X157750240Y-98099100D01*
X157049200Y-100849820D02*
X157750240Y-100849820D01*
X157750240Y-100849820D02*
X157750240Y-100600900D01*
X157750240Y-98050840D02*
X157750240Y-97850180D01*
X157750240Y-97850180D02*
X157049200Y-97850180D01*
X132958333Y-120778571D02*
X133291667Y-120778571D01*
X133291667Y-121302381D02*
X133291667Y-120302381D01*
X132815476Y-120302381D01*
X132005952Y-120635714D02*
X132005952Y-121302381D01*
X132244048Y-120254762D02*
X132482143Y-120969048D01*
X131863095Y-120969048D01*
X133708333Y-95353571D02*
X134041667Y-95353571D01*
X134041667Y-95877381D02*
X134041667Y-94877381D01*
X133565476Y-94877381D01*
X132708333Y-94877381D02*
X133184524Y-94877381D01*
X133232143Y-95353571D01*
X133184524Y-95305952D01*
X133089286Y-95258333D01*
X132851190Y-95258333D01*
X132755952Y-95305952D01*
X132708333Y-95353571D01*
X132660714Y-95448810D01*
X132660714Y-95686905D01*
X132708333Y-95782143D01*
X132755952Y-95829762D01*
X132851190Y-95877381D01*
X133089286Y-95877381D01*
X133184524Y-95829762D01*
X133232143Y-95782143D01*
X162808333Y-95403571D02*
X163141667Y-95403571D01*
X163141667Y-95927381D02*
X163141667Y-94927381D01*
X162665476Y-94927381D01*
X161855952Y-94927381D02*
X162046429Y-94927381D01*
X162141667Y-94975000D01*
X162189286Y-95022619D01*
X162284524Y-95165476D01*
X162332143Y-95355952D01*
X162332143Y-95736905D01*
X162284524Y-95832143D01*
X162236905Y-95879762D01*
X162141667Y-95927381D01*
X161951190Y-95927381D01*
X161855952Y-95879762D01*
X161808333Y-95832143D01*
X161760714Y-95736905D01*
X161760714Y-95498810D01*
X161808333Y-95403571D01*
X161855952Y-95355952D01*
X161951190Y-95308333D01*
X162141667Y-95308333D01*
X162236905Y-95355952D01*
X162284524Y-95403571D01*
X162332143Y-95498810D01*
X154838095Y-91352381D02*
X154838095Y-90352381D01*
X154600000Y-90352381D01*
X154457142Y-90400000D01*
X154361904Y-90495238D01*
X154314285Y-90590476D01*
X154266666Y-90780952D01*
X154266666Y-90923810D01*
X154314285Y-91114286D01*
X154361904Y-91209524D01*
X154457142Y-91304762D01*
X154600000Y-91352381D01*
X154838095Y-91352381D01*
X153361904Y-90352381D02*
X153838095Y-90352381D01*
X153885714Y-90828571D01*
X153838095Y-90780952D01*
X153742857Y-90733333D01*
X153504761Y-90733333D01*
X153409523Y-90780952D01*
X153361904Y-90828571D01*
X153314285Y-90923810D01*
X153314285Y-91161905D01*
X153361904Y-91257143D01*
X153409523Y-91304762D01*
X153504761Y-91352381D01*
X153742857Y-91352381D01*
X153838095Y-91304762D01*
X153885714Y-91257143D01*
X145866666Y-102802381D02*
X146200000Y-102326190D01*
X146438095Y-102802381D02*
X146438095Y-101802381D01*
X146057142Y-101802381D01*
X145961904Y-101850000D01*
X145914285Y-101897619D01*
X145866666Y-101992857D01*
X145866666Y-102135714D01*
X145914285Y-102230952D01*
X145961904Y-102278571D01*
X146057142Y-102326190D01*
X146438095Y-102326190D01*
X145009523Y-102135714D02*
X145009523Y-102802381D01*
X145247619Y-101754762D02*
X145485714Y-102469048D01*
X144866666Y-102469048D01*
X134116666Y-106842381D02*
X134450000Y-106366190D01*
X134688095Y-106842381D02*
X134688095Y-105842381D01*
X134307142Y-105842381D01*
X134211904Y-105890000D01*
X134164285Y-105937619D01*
X134116666Y-106032857D01*
X134116666Y-106175714D01*
X134164285Y-106270952D01*
X134211904Y-106318571D01*
X134307142Y-106366190D01*
X134688095Y-106366190D01*
X133259523Y-105842381D02*
X133450000Y-105842381D01*
X133545238Y-105890000D01*
X133592857Y-105937619D01*
X133688095Y-106080476D01*
X133735714Y-106270952D01*
X133735714Y-106651905D01*
X133688095Y-106747143D01*
X133640476Y-106794762D01*
X133545238Y-106842381D01*
X133354761Y-106842381D01*
X133259523Y-106794762D01*
X133211904Y-106747143D01*
X133164285Y-106651905D01*
X133164285Y-106413810D01*
X133211904Y-106318571D01*
X133259523Y-106270952D01*
X133354761Y-106223333D01*
X133545238Y-106223333D01*
X133640476Y-106270952D01*
X133688095Y-106318571D01*
X133735714Y-106413810D01*
X134026666Y-112652381D02*
X134360000Y-112176190D01*
X134598095Y-112652381D02*
X134598095Y-111652381D01*
X134217142Y-111652381D01*
X134121904Y-111700000D01*
X134074285Y-111747619D01*
X134026666Y-111842857D01*
X134026666Y-111985714D01*
X134074285Y-112080952D01*
X134121904Y-112128571D01*
X134217142Y-112176190D01*
X134598095Y-112176190D01*
X133693333Y-111652381D02*
X133026666Y-111652381D01*
X133455238Y-112652381D01*
X157342857Y-94652381D02*
X157676191Y-94176190D01*
X157914286Y-94652381D02*
X157914286Y-93652381D01*
X157533333Y-93652381D01*
X157438095Y-93700000D01*
X157390476Y-93747619D01*
X157342857Y-93842857D01*
X157342857Y-93985714D01*
X157390476Y-94080952D01*
X157438095Y-94128571D01*
X157533333Y-94176190D01*
X157914286Y-94176190D01*
X156390476Y-94652381D02*
X156961905Y-94652381D01*
X156676191Y-94652381D02*
X156676191Y-93652381D01*
X156771429Y-93795238D01*
X156866667Y-93890476D01*
X156961905Y-93938095D01*
X156009524Y-93747619D02*
X155961905Y-93700000D01*
X155866667Y-93652381D01*
X155628571Y-93652381D01*
X155533333Y-93700000D01*
X155485714Y-93747619D01*
X155438095Y-93842857D01*
X155438095Y-93938095D01*
X155485714Y-94080952D01*
X156057143Y-94652381D01*
X155438095Y-94652381D01*
X151333333Y-94404762D02*
X151190476Y-94452381D01*
X150952380Y-94452381D01*
X150857142Y-94404762D01*
X150809523Y-94357143D01*
X150761904Y-94261905D01*
X150761904Y-94166667D01*
X150809523Y-94071429D01*
X150857142Y-94023810D01*
X150952380Y-93976190D01*
X151142857Y-93928571D01*
X151238095Y-93880952D01*
X151285714Y-93833333D01*
X151333333Y-93738095D01*
X151333333Y-93642857D01*
X151285714Y-93547619D01*
X151238095Y-93500000D01*
X151142857Y-93452381D01*
X150904761Y-93452381D01*
X150761904Y-93500000D01*
X150428571Y-93452381D02*
X150190476Y-94452381D01*
X149999999Y-93738095D01*
X149809523Y-94452381D01*
X149571428Y-93452381D01*
X148666666Y-94452381D02*
X149238095Y-94452381D01*
X148952381Y-94452381D02*
X148952381Y-93452381D01*
X149047619Y-93595238D01*
X149142857Y-93690476D01*
X149238095Y-93738095D01*
X158995238Y-122347619D02*
X159090476Y-122300000D01*
X159185714Y-122204762D01*
X159328571Y-122061905D01*
X159423810Y-122014286D01*
X159519048Y-122014286D01*
X159471429Y-122252381D02*
X159566667Y-122204762D01*
X159661905Y-122109524D01*
X159709524Y-121919048D01*
X159709524Y-121585714D01*
X159661905Y-121395238D01*
X159566667Y-121300000D01*
X159471429Y-121252381D01*
X159280952Y-121252381D01*
X159185714Y-121300000D01*
X159090476Y-121395238D01*
X159042857Y-121585714D01*
X159042857Y-121919048D01*
X159090476Y-122109524D01*
X159185714Y-122204762D01*
X159280952Y-122252381D01*
X159471429Y-122252381D01*
X158090476Y-122252381D02*
X158661905Y-122252381D01*
X158376191Y-122252381D02*
X158376191Y-121252381D01*
X158471429Y-121395238D01*
X158566667Y-121490476D01*
X158661905Y-121538095D01*
X154245238Y-122422619D02*
X154340476Y-122375000D01*
X154435714Y-122279762D01*
X154578571Y-122136905D01*
X154673810Y-122089286D01*
X154769048Y-122089286D01*
X154721429Y-122327381D02*
X154816667Y-122279762D01*
X154911905Y-122184524D01*
X154959524Y-121994048D01*
X154959524Y-121660714D01*
X154911905Y-121470238D01*
X154816667Y-121375000D01*
X154721429Y-121327381D01*
X154530952Y-121327381D01*
X154435714Y-121375000D01*
X154340476Y-121470238D01*
X154292857Y-121660714D01*
X154292857Y-121994048D01*
X154340476Y-122184524D01*
X154435714Y-122279762D01*
X154530952Y-122327381D01*
X154721429Y-122327381D01*
X153435714Y-121660714D02*
X153435714Y-122327381D01*
X153673810Y-121279762D02*
X153911905Y-121994048D01*
X153292857Y-121994048D01*
X150895238Y-122447619D02*
X150990476Y-122400000D01*
X151085714Y-122304762D01*
X151228571Y-122161905D01*
X151323810Y-122114286D01*
X151419048Y-122114286D01*
X151371429Y-122352381D02*
X151466667Y-122304762D01*
X151561905Y-122209524D01*
X151609524Y-122019048D01*
X151609524Y-121685714D01*
X151561905Y-121495238D01*
X151466667Y-121400000D01*
X151371429Y-121352381D01*
X151180952Y-121352381D01*
X151085714Y-121400000D01*
X150990476Y-121495238D01*
X150942857Y-121685714D01*
X150942857Y-122019048D01*
X150990476Y-122209524D01*
X151085714Y-122304762D01*
X151180952Y-122352381D01*
X151371429Y-122352381D01*
X150609524Y-121352381D02*
X149990476Y-121352381D01*
X150323810Y-121733333D01*
X150180952Y-121733333D01*
X150085714Y-121780952D01*
X150038095Y-121828571D01*
X149990476Y-121923810D01*
X149990476Y-122161905D01*
X150038095Y-122257143D01*
X150085714Y-122304762D01*
X150180952Y-122352381D01*
X150466667Y-122352381D01*
X150561905Y-122304762D01*
X150609524Y-122257143D01*
X159802381Y-98611905D02*
X158802381Y-98611905D01*
X158802381Y-98850000D01*
X158850000Y-98992858D01*
X158945238Y-99088096D01*
X159040476Y-99135715D01*
X159230952Y-99183334D01*
X159373810Y-99183334D01*
X159564286Y-99135715D01*
X159659524Y-99088096D01*
X159754762Y-98992858D01*
X159802381Y-98850000D01*
X159802381Y-98611905D01*
X159135714Y-100040477D02*
X159802381Y-100040477D01*
X158754762Y-99802381D02*
X159469048Y-99564286D01*
X159469048Y-100183334D01*
M02*
