M48
INCH,TZ
T1C0.013
T2C0.013
T3C0.040
T4C0.118
%
G90
G05
T1
X51673Y-46752
X51870Y-44193
X52024Y-39252
X52028Y-42016
X52047Y-43839
X52063Y-40516
X52299Y-38185
X52461Y-46752
X52720Y-39933
X52764Y-38197
X53114Y-35811
X53119Y-41469
X53171Y-40965
X53189Y-45217
X53319Y-45847
X53452Y-41139
X53594Y-36921
X53661Y-45730
X53701Y-38839
X53754Y-41575
X54088Y-41259
X54237Y-45590
X54252Y-40972
X54262Y-42195
X54317Y-41525
X54465Y-36469
X54476Y-39118
X54526Y-40696
X54543Y-45713
X54854Y-39094
X54902Y-42382
X54940Y-47185
X54961Y-36476
X55374Y-41732
X55394Y-38819
X55417Y-39516
X55445Y-47369
X55445Y-39178
X55488Y-40696
X55741Y-37602
X55750Y-40896
X55987Y-39508
X56001Y-41840
X56075Y-45743
X56080Y-40896
X56334Y-40636
X56358Y-45531
X56475Y-40990
X56664Y-40652
X56872Y-43238
X56886Y-45867
X57021Y-40709
X57143Y-45659
X57202Y-43238
X57276Y-42669
X57321Y-38348
X57322Y-44287
X57323Y-38780
X57344Y-40643
X57473Y-45659
X57500Y-42972
X57591Y-44622
X57625Y-44043
X57676Y-40649
X57732Y-35949
X57755Y-39171
X57756Y-45850
X57886Y-37550
X57943Y-37982
X57978Y-43218
X58001Y-42473
X58050Y-39027
X58075Y-43533
X58299Y-42796
X58324Y-41109
X58378Y-39050
X58443Y-40118
X58768Y-40167
X58867Y-46212
X58878Y-40512
X58927Y-49163
X58967Y-47272
X59146Y-46388
X59208Y-40342
X59218Y-39496
X59232Y-39035
X59331Y-47205
X59468Y-46501
X59515Y-43938
X59516Y-43414
X59516Y-45488
X59547Y-39272
X59646Y-47343
X59693Y-44394
X59917Y-43272
X59941Y-46516
X59996Y-44054
X60055Y-44378
X60165Y-40717
X60294Y-36005
X60335Y-46654
X60335Y-48770
X60374Y-38602
X60433Y-44350
X60485Y-40419
X60516Y-39349
X60630Y-42795
X60678Y-43274
X60862Y-36433
X60866Y-35780
X60866Y-37335
X60874Y-37051
X60988Y-43602
X61043Y-48799
X61043Y-48469
X61463Y-40995
X61488Y-42287
X61496Y-37638
X61504Y-42591
X61508Y-42906
X61748Y-42748
X61750Y-43065
X61752Y-42429
X61772Y-37795
X61839Y-41429
X62142Y-38646
X62205Y-47402
X62441Y-38638
X62748Y-38642
X62864Y-48435
X63061Y-49311
X63406Y-37425
X63819Y-43071
X63831Y-42752
X63839Y-42433
X63843Y-42122
X63971Y-41051
X64051Y-42913
X64055Y-42594
X64071Y-41941
X64083Y-42280
X64449Y-43504
T2
X60766Y-39746
X60965Y-44839
X60983Y-45169
X61051Y-44389
X61277Y-44732
X61323Y-41794
X61355Y-44262
X61712Y-41897
X63404Y-46042
X63657Y-45816
X63779Y-39336
X63807Y-39008
X63935Y-40601
X64093Y-39235
X64146Y-44300
X64193Y-39571
X64236Y-40811
X64251Y-43768
X64282Y-44600
X64302Y-44930
T3
X54756Y-48173
X54756Y-49173
X55756Y-48173
X55756Y-49173
X56756Y-48173
X56756Y-49173
X57756Y-48173
X57756Y-49173
T4
X52264Y-36516
X52264Y-48524
X64272Y-36516
X64272Y-48524
T0
M30
