G04 #@! TF.FileFunction,Copper,L1,Top,Signal*
%FSLAX46Y46*%
G04 Gerber Fmt 4.6, Leading zero omitted, Abs format (unit mm)*
G04 Created by KiCad (PCBNEW 4.0.1-stable) date Tuesday, March 08, 2016 'AMt' 12:04:57 AM*
%MOMM*%
G01*
G04 APERTURE LIST*
%ADD10C,0.100000*%
%ADD11C,0.010000*%
%ADD12R,0.700000X0.200000*%
%ADD13C,1.000000*%
%ADD14R,0.850000X0.300000*%
%ADD15R,0.300000X0.850000*%
%ADD16R,1.300000X1.300000*%
%ADD17R,1.200000X0.750000*%
%ADD18R,0.750000X1.200000*%
%ADD19R,2.000000X1.600000*%
%ADD20R,0.797560X0.797560*%
%ADD21C,1.600000*%
%ADD22R,1.727200X1.727200*%
%ADD23O,1.727200X1.727200*%
%ADD24C,1.524000*%
%ADD25R,0.900000X1.200000*%
%ADD26R,1.200000X0.900000*%
%ADD27R,0.280000X1.500000*%
%ADD28R,1.500000X0.280000*%
%ADD29R,1.060000X0.650000*%
%ADD30R,0.400000X2.100000*%
%ADD31C,0.685800*%
%ADD32C,0.685801*%
%ADD33C,0.152400*%
%ADD34C,0.254000*%
G04 APERTURE END LIST*
D10*
D11*
G36*
X142351912Y-90499328D02*
X142389087Y-90499340D01*
X142421821Y-90499366D01*
X142450406Y-90499411D01*
X142475137Y-90499481D01*
X142496306Y-90499581D01*
X142514208Y-90499715D01*
X142529136Y-90499889D01*
X142541384Y-90500109D01*
X142551247Y-90500379D01*
X142559017Y-90500705D01*
X142564988Y-90501092D01*
X142569454Y-90501544D01*
X142572709Y-90502067D01*
X142575046Y-90502667D01*
X142576760Y-90503349D01*
X142578032Y-90504048D01*
X142584217Y-90509369D01*
X142588517Y-90515738D01*
X142588618Y-90515984D01*
X142589468Y-90519432D01*
X142591162Y-90527481D01*
X142593633Y-90539785D01*
X142596816Y-90555999D01*
X142600644Y-90575777D01*
X142605052Y-90598772D01*
X142609972Y-90624640D01*
X142615339Y-90653034D01*
X142621087Y-90683609D01*
X142627150Y-90716019D01*
X142633461Y-90749918D01*
X142636888Y-90768396D01*
X142643321Y-90803102D01*
X142649535Y-90836614D01*
X142655466Y-90868574D01*
X142661046Y-90898625D01*
X142666209Y-90926411D01*
X142670889Y-90951572D01*
X142675018Y-90973753D01*
X142678531Y-90992596D01*
X142681362Y-91007743D01*
X142683443Y-91018837D01*
X142684708Y-91025522D01*
X142685013Y-91027096D01*
X142685885Y-91031591D01*
X142686785Y-91035572D01*
X142688016Y-91039199D01*
X142689879Y-91042631D01*
X142692678Y-91046027D01*
X142696715Y-91049546D01*
X142702292Y-91053349D01*
X142709712Y-91057593D01*
X142719277Y-91062440D01*
X142731290Y-91068046D01*
X142746054Y-91074573D01*
X142763871Y-91082180D01*
X142785043Y-91091025D01*
X142809873Y-91101268D01*
X142838663Y-91113068D01*
X142871716Y-91126586D01*
X142881628Y-91130639D01*
X142916076Y-91144740D01*
X142946188Y-91157060D01*
X142972294Y-91167692D01*
X142994727Y-91176727D01*
X143013816Y-91184258D01*
X143029894Y-91190378D01*
X143043292Y-91195177D01*
X143054341Y-91198748D01*
X143063372Y-91201184D01*
X143070717Y-91202576D01*
X143076707Y-91203017D01*
X143081673Y-91202599D01*
X143085947Y-91201413D01*
X143089860Y-91199553D01*
X143093743Y-91197110D01*
X143097927Y-91194176D01*
X143101390Y-91191759D01*
X143105895Y-91188675D01*
X143114234Y-91182960D01*
X143126094Y-91174828D01*
X143141161Y-91164496D01*
X143159123Y-91152176D01*
X143179666Y-91138085D01*
X143202477Y-91122437D01*
X143227244Y-91105447D01*
X143253652Y-91087329D01*
X143281388Y-91068299D01*
X143310140Y-91048571D01*
X143321367Y-91040867D01*
X143354967Y-91017819D01*
X143384678Y-90997457D01*
X143410756Y-90979616D01*
X143433454Y-90964130D01*
X143453028Y-90950833D01*
X143469732Y-90939561D01*
X143483819Y-90930146D01*
X143495546Y-90922424D01*
X143505166Y-90916229D01*
X143512934Y-90911394D01*
X143519104Y-90907754D01*
X143523931Y-90905144D01*
X143527669Y-90903398D01*
X143530573Y-90902350D01*
X143532897Y-90901833D01*
X143534895Y-90901684D01*
X143535110Y-90901683D01*
X143546011Y-90901683D01*
X143732758Y-91088429D01*
X143762582Y-91118256D01*
X143789048Y-91144738D01*
X143812358Y-91168086D01*
X143832712Y-91188513D01*
X143850310Y-91206229D01*
X143865352Y-91221445D01*
X143878040Y-91234372D01*
X143888573Y-91245223D01*
X143897152Y-91254207D01*
X143903977Y-91261537D01*
X143909249Y-91267423D01*
X143913168Y-91272076D01*
X143915935Y-91275708D01*
X143917749Y-91278530D01*
X143918812Y-91280754D01*
X143919323Y-91282589D01*
X143919484Y-91284249D01*
X143919495Y-91285217D01*
X143918249Y-91294021D01*
X143915215Y-91302217D01*
X143914773Y-91302985D01*
X143912686Y-91306153D01*
X143907958Y-91313162D01*
X143900798Y-91323709D01*
X143891414Y-91337491D01*
X143880012Y-91354203D01*
X143866801Y-91373542D01*
X143851987Y-91395204D01*
X143835780Y-91418884D01*
X143818385Y-91444279D01*
X143800012Y-91471086D01*
X143780866Y-91498999D01*
X143778179Y-91502916D01*
X143758759Y-91531219D01*
X143739948Y-91558639D01*
X143721966Y-91584850D01*
X143705037Y-91609529D01*
X143689383Y-91632353D01*
X143675226Y-91652997D01*
X143662787Y-91671137D01*
X143652289Y-91686450D01*
X143643954Y-91698611D01*
X143638005Y-91707297D01*
X143634663Y-91712184D01*
X143634525Y-91712386D01*
X143631271Y-91717029D01*
X143628436Y-91721113D01*
X143626117Y-91724966D01*
X143624410Y-91728916D01*
X143623412Y-91733290D01*
X143623218Y-91738418D01*
X143623927Y-91744628D01*
X143625635Y-91752247D01*
X143628437Y-91761604D01*
X143632431Y-91773027D01*
X143637713Y-91786845D01*
X143644381Y-91803385D01*
X143652529Y-91822975D01*
X143662256Y-91845945D01*
X143673657Y-91872621D01*
X143686830Y-91903333D01*
X143699234Y-91932256D01*
X143711459Y-91960761D01*
X143723181Y-91988056D01*
X143734240Y-92013768D01*
X143744475Y-92037524D01*
X143753723Y-92058952D01*
X143761825Y-92077678D01*
X143768620Y-92093330D01*
X143773945Y-92105536D01*
X143777640Y-92113921D01*
X143779544Y-92118114D01*
X143779671Y-92118370D01*
X143784634Y-92125307D01*
X143791041Y-92131298D01*
X143791084Y-92131329D01*
X143792257Y-92132180D01*
X143793418Y-92132962D01*
X143794835Y-92133728D01*
X143796774Y-92134531D01*
X143799505Y-92135425D01*
X143803294Y-92136463D01*
X143808410Y-92137699D01*
X143815119Y-92139185D01*
X143823691Y-92140974D01*
X143834392Y-92143121D01*
X143847490Y-92145678D01*
X143863253Y-92148699D01*
X143881948Y-92152236D01*
X143903845Y-92156344D01*
X143929209Y-92161075D01*
X143958308Y-92166483D01*
X143991412Y-92172621D01*
X144028786Y-92179543D01*
X144070700Y-92187300D01*
X144094287Y-92191666D01*
X144124902Y-92197339D01*
X144154300Y-92202800D01*
X144182076Y-92207972D01*
X144207820Y-92212779D01*
X144231124Y-92217143D01*
X144251580Y-92220989D01*
X144268782Y-92224240D01*
X144282319Y-92226819D01*
X144291786Y-92228650D01*
X144296773Y-92229656D01*
X144297099Y-92229729D01*
X144305862Y-92232846D01*
X144313200Y-92237326D01*
X144314703Y-92238716D01*
X144320623Y-92245018D01*
X144321262Y-92508246D01*
X144321362Y-92550381D01*
X144321443Y-92587778D01*
X144321500Y-92620730D01*
X144321528Y-92649530D01*
X144321523Y-92674469D01*
X144321481Y-92695841D01*
X144321396Y-92713938D01*
X144321265Y-92729052D01*
X144321083Y-92741475D01*
X144320845Y-92751500D01*
X144320546Y-92759419D01*
X144320183Y-92765525D01*
X144319751Y-92770110D01*
X144319245Y-92773466D01*
X144318660Y-92775886D01*
X144317993Y-92777663D01*
X144317238Y-92779088D01*
X144317056Y-92779389D01*
X144310775Y-92786182D01*
X144303843Y-92790019D01*
X144299972Y-92790937D01*
X144291590Y-92792681D01*
X144279132Y-92795167D01*
X144263035Y-92798312D01*
X144243733Y-92802032D01*
X144221662Y-92806243D01*
X144197258Y-92810861D01*
X144170957Y-92815803D01*
X144143193Y-92820984D01*
X144132010Y-92823062D01*
X144086078Y-92831585D01*
X144044833Y-92839241D01*
X144008017Y-92846081D01*
X143975370Y-92852152D01*
X143946635Y-92857503D01*
X143921553Y-92862184D01*
X143899865Y-92866244D01*
X143881313Y-92869731D01*
X143865637Y-92872695D01*
X143852580Y-92875184D01*
X143841883Y-92877248D01*
X143833287Y-92878935D01*
X143826533Y-92880294D01*
X143821364Y-92881375D01*
X143817520Y-92882226D01*
X143814743Y-92882896D01*
X143812774Y-92883435D01*
X143812077Y-92883649D01*
X143804794Y-92887446D01*
X143798208Y-92893110D01*
X143797927Y-92893437D01*
X143796055Y-92896873D01*
X143792476Y-92904645D01*
X143787329Y-92916416D01*
X143780757Y-92931844D01*
X143772901Y-92950589D01*
X143763901Y-92972313D01*
X143753899Y-92996674D01*
X143743037Y-93023333D01*
X143731454Y-93051951D01*
X143719294Y-93082186D01*
X143713193Y-93097423D01*
X143699259Y-93132282D01*
X143687081Y-93162781D01*
X143676543Y-93189233D01*
X143667533Y-93211948D01*
X143659936Y-93231239D01*
X143653639Y-93247415D01*
X143648527Y-93260787D01*
X143644487Y-93271668D01*
X143641406Y-93280367D01*
X143639168Y-93287196D01*
X143637661Y-93292467D01*
X143636770Y-93296489D01*
X143636381Y-93299575D01*
X143636382Y-93302035D01*
X143636657Y-93304180D01*
X143636961Y-93305703D01*
X143637914Y-93308459D01*
X143639976Y-93312672D01*
X143643294Y-93318563D01*
X143648016Y-93326354D01*
X143654288Y-93336268D01*
X143662257Y-93348525D01*
X143672070Y-93363349D01*
X143683875Y-93380961D01*
X143697818Y-93401583D01*
X143714045Y-93425436D01*
X143732705Y-93452743D01*
X143753943Y-93483726D01*
X143777907Y-93518606D01*
X143778620Y-93519643D01*
X143798339Y-93548371D01*
X143817248Y-93576022D01*
X143835151Y-93602303D01*
X143851851Y-93626922D01*
X143867151Y-93649585D01*
X143880857Y-93670000D01*
X143892771Y-93687874D01*
X143902698Y-93702914D01*
X143910441Y-93714828D01*
X143915804Y-93723324D01*
X143918590Y-93728107D01*
X143918951Y-93728972D01*
X143919189Y-93736912D01*
X143918379Y-93742804D01*
X143916445Y-93745722D01*
X143911277Y-93751774D01*
X143902837Y-93761002D01*
X143891086Y-93773444D01*
X143875985Y-93789142D01*
X143857494Y-93808136D01*
X143835575Y-93830466D01*
X143810189Y-93856172D01*
X143781296Y-93885294D01*
X143748858Y-93917873D01*
X143735143Y-93931619D01*
X143709929Y-93956847D01*
X143685621Y-93981107D01*
X143662468Y-94004157D01*
X143640714Y-94025753D01*
X143620608Y-94045654D01*
X143602395Y-94063615D01*
X143586321Y-94079396D01*
X143572634Y-94092752D01*
X143561579Y-94103442D01*
X143553404Y-94111223D01*
X143548354Y-94115851D01*
X143546803Y-94117089D01*
X143536833Y-94120352D01*
X143526612Y-94119312D01*
X143515289Y-94113848D01*
X143513010Y-94112346D01*
X143509136Y-94109695D01*
X143501436Y-94104419D01*
X143490229Y-94096737D01*
X143475836Y-94086870D01*
X143458578Y-94075037D01*
X143438776Y-94061458D01*
X143416749Y-94046352D01*
X143392818Y-94029940D01*
X143367305Y-94012442D01*
X143340529Y-93994077D01*
X143315940Y-93977211D01*
X143288417Y-93958348D01*
X143261938Y-93940232D01*
X143236816Y-93923074D01*
X143213363Y-93907087D01*
X143191892Y-93892482D01*
X143172716Y-93879473D01*
X143156147Y-93868271D01*
X143142498Y-93859088D01*
X143132082Y-93852136D01*
X143125212Y-93847629D01*
X143122297Y-93845825D01*
X143110483Y-93842294D01*
X143104107Y-93842398D01*
X143099402Y-93843917D01*
X143090635Y-93847726D01*
X143078135Y-93853662D01*
X143062231Y-93861562D01*
X143043253Y-93871264D01*
X143021529Y-93882606D01*
X143004559Y-93891596D01*
X142980834Y-93904199D01*
X142961102Y-93914565D01*
X142944942Y-93922860D01*
X142931927Y-93929252D01*
X142921636Y-93933908D01*
X142913644Y-93936995D01*
X142907526Y-93938680D01*
X142902861Y-93939131D01*
X142899223Y-93938513D01*
X142896189Y-93936994D01*
X142893889Y-93935222D01*
X142892309Y-93932374D01*
X142888885Y-93925011D01*
X142883675Y-93913274D01*
X142876737Y-93897305D01*
X142868133Y-93877245D01*
X142857920Y-93853234D01*
X142846159Y-93825413D01*
X142832908Y-93793924D01*
X142818227Y-93758906D01*
X142802175Y-93720501D01*
X142784812Y-93678850D01*
X142766196Y-93634094D01*
X142746388Y-93586374D01*
X142725446Y-93535830D01*
X142708588Y-93495080D01*
X142686707Y-93442154D01*
X142666672Y-93393674D01*
X142648403Y-93349444D01*
X142631821Y-93309263D01*
X142616845Y-93272932D01*
X142603396Y-93240253D01*
X142591395Y-93211026D01*
X142580763Y-93185052D01*
X142571419Y-93162131D01*
X142563285Y-93142066D01*
X142556280Y-93124657D01*
X142550325Y-93109704D01*
X142545342Y-93097009D01*
X142541249Y-93086373D01*
X142537968Y-93077595D01*
X142535419Y-93070478D01*
X142533522Y-93064823D01*
X142532199Y-93060429D01*
X142531369Y-93057099D01*
X142530953Y-93054632D01*
X142530871Y-93052830D01*
X142531045Y-93051494D01*
X142531199Y-93050950D01*
X142533599Y-93045298D01*
X142537242Y-93040243D01*
X142542912Y-93035085D01*
X142551395Y-93029125D01*
X142563475Y-93021663D01*
X142565257Y-93020602D01*
X142577135Y-93013219D01*
X142590052Y-93004680D01*
X142601491Y-92996656D01*
X142602980Y-92995558D01*
X142612649Y-92988368D01*
X142624572Y-92979506D01*
X142636963Y-92970299D01*
X142644475Y-92964719D01*
X142685725Y-92930988D01*
X142723516Y-92893697D01*
X142757598Y-92853121D01*
X142787724Y-92809533D01*
X142793524Y-92800024D01*
X142816301Y-92757314D01*
X142835628Y-92711638D01*
X142851173Y-92663973D01*
X142862607Y-92615300D01*
X142868232Y-92579155D01*
X142869830Y-92560627D01*
X142870694Y-92538600D01*
X142870850Y-92514549D01*
X142870321Y-92489948D01*
X142869129Y-92466271D01*
X142867300Y-92444991D01*
X142865914Y-92434045D01*
X142855747Y-92381737D01*
X142840996Y-92331214D01*
X142821839Y-92282723D01*
X142798456Y-92236508D01*
X142771024Y-92192817D01*
X142739724Y-92151897D01*
X142704732Y-92113992D01*
X142666229Y-92079350D01*
X142624393Y-92048217D01*
X142579403Y-92020840D01*
X142557977Y-92009712D01*
X142510646Y-91988956D01*
X142462462Y-91972984D01*
X142413044Y-91961707D01*
X142362010Y-91955039D01*
X142310000Y-91952891D01*
X142264843Y-91954365D01*
X142222475Y-91958928D01*
X142181562Y-91966788D01*
X142140769Y-91978152D01*
X142133960Y-91980378D01*
X142084705Y-91999370D01*
X142037852Y-92022596D01*
X141993643Y-92049815D01*
X141952319Y-92080788D01*
X141914122Y-92115275D01*
X141879295Y-92153036D01*
X141848078Y-92193832D01*
X141820714Y-92237422D01*
X141797445Y-92283567D01*
X141778512Y-92332026D01*
X141778074Y-92333329D01*
X141766907Y-92370050D01*
X141758666Y-92405126D01*
X141753102Y-92440130D01*
X141749965Y-92476637D01*
X141749004Y-92516084D01*
X141749990Y-92553824D01*
X141753057Y-92588572D01*
X141758476Y-92622030D01*
X141766521Y-92655900D01*
X141776756Y-92689742D01*
X141795700Y-92739412D01*
X141818995Y-92786635D01*
X141846490Y-92831205D01*
X141878038Y-92872917D01*
X141913490Y-92911564D01*
X141952697Y-92946943D01*
X141975524Y-92964723D01*
X141986681Y-92972991D01*
X141997963Y-92981394D01*
X142007838Y-92988788D01*
X142013247Y-92992869D01*
X142021470Y-92998763D01*
X142032332Y-93006081D01*
X142044134Y-93013693D01*
X142050970Y-93017937D01*
X142064169Y-93026145D01*
X142073686Y-93032542D01*
X142080241Y-93037755D01*
X142084550Y-93042410D01*
X142087333Y-93047134D01*
X142088805Y-93050963D01*
X142089075Y-93052144D01*
X142089131Y-93053689D01*
X142088892Y-93055799D01*
X142088280Y-93058672D01*
X142087214Y-93062506D01*
X142085615Y-93067503D01*
X142083404Y-93073860D01*
X142080501Y-93081776D01*
X142076826Y-93091451D01*
X142072300Y-93103084D01*
X142066844Y-93116874D01*
X142060377Y-93133020D01*
X142052821Y-93151722D01*
X142044096Y-93173177D01*
X142034121Y-93197586D01*
X142022819Y-93225148D01*
X142010108Y-93256061D01*
X141995911Y-93290526D01*
X141980146Y-93328740D01*
X141962735Y-93370903D01*
X141943598Y-93417214D01*
X141922655Y-93467873D01*
X141911400Y-93495093D01*
X141889840Y-93547188D01*
X141869326Y-93596673D01*
X141849918Y-93643400D01*
X141831680Y-93687222D01*
X141814674Y-93727990D01*
X141798960Y-93765558D01*
X141784603Y-93799776D01*
X141771664Y-93830499D01*
X141760205Y-93857577D01*
X141750288Y-93880864D01*
X141741976Y-93900211D01*
X141735331Y-93915471D01*
X141730415Y-93926495D01*
X141727290Y-93933138D01*
X141726094Y-93935222D01*
X141719755Y-93938499D01*
X141713425Y-93939623D01*
X141708868Y-93938370D01*
X141700014Y-93934631D01*
X141686924Y-93928434D01*
X141669655Y-93919809D01*
X141648269Y-93908785D01*
X141622823Y-93895390D01*
X141616253Y-93891898D01*
X141596434Y-93881410D01*
X141577737Y-93871640D01*
X141560684Y-93862852D01*
X141545798Y-93855310D01*
X141533603Y-93849279D01*
X141524622Y-93845022D01*
X141519377Y-93842804D01*
X141518575Y-93842569D01*
X141510146Y-93842265D01*
X141502779Y-93843666D01*
X141499584Y-93845468D01*
X141492560Y-93849915D01*
X141482019Y-93856797D01*
X141468271Y-93865905D01*
X141451630Y-93877028D01*
X141432407Y-93889958D01*
X141410914Y-93904484D01*
X141387463Y-93920396D01*
X141362365Y-93937486D01*
X141335933Y-93955542D01*
X141312155Y-93971834D01*
X141284535Y-93990782D01*
X141257794Y-94009127D01*
X141232265Y-94026639D01*
X141208281Y-94043089D01*
X141186177Y-94058249D01*
X141166285Y-94071890D01*
X141148940Y-94083784D01*
X141134475Y-94093700D01*
X141123223Y-94101411D01*
X141115520Y-94106688D01*
X141112143Y-94108997D01*
X141100080Y-94116348D01*
X141090284Y-94120042D01*
X141081756Y-94120249D01*
X141073499Y-94117140D01*
X141071435Y-94115912D01*
X141068636Y-94113496D01*
X141062539Y-94107759D01*
X141053394Y-94098946D01*
X141041448Y-94087303D01*
X141026951Y-94073076D01*
X141010151Y-94056510D01*
X140991297Y-94037851D01*
X140970638Y-94017345D01*
X140948423Y-93995237D01*
X140924900Y-93971772D01*
X140900318Y-93947196D01*
X140883599Y-93930451D01*
X140849864Y-93896593D01*
X140819690Y-93866208D01*
X140793039Y-93839257D01*
X140769874Y-93815702D01*
X140750155Y-93795503D01*
X140733845Y-93778619D01*
X140720905Y-93765013D01*
X140711297Y-93754645D01*
X140704984Y-93747474D01*
X140701926Y-93743463D01*
X140701620Y-93742804D01*
X140700720Y-93734838D01*
X140701035Y-93728972D01*
X140702592Y-93725961D01*
X140706814Y-93719106D01*
X140713504Y-93708700D01*
X140722468Y-93695035D01*
X140733508Y-93678405D01*
X140746428Y-93659102D01*
X140761032Y-93637418D01*
X140777124Y-93613647D01*
X140794507Y-93588081D01*
X140812986Y-93561013D01*
X140832364Y-93532735D01*
X140841360Y-93519643D01*
X140865411Y-93484639D01*
X140886733Y-93453539D01*
X140905470Y-93426121D01*
X140921771Y-93402165D01*
X140935781Y-93381447D01*
X140947648Y-93363747D01*
X140957518Y-93348844D01*
X140965539Y-93336515D01*
X140971856Y-93326539D01*
X140976616Y-93318694D01*
X140979967Y-93312759D01*
X140982054Y-93308513D01*
X140983025Y-93305733D01*
X140983032Y-93305703D01*
X140983436Y-93303591D01*
X140983648Y-93301390D01*
X140983553Y-93298789D01*
X140983037Y-93295475D01*
X140981987Y-93291139D01*
X140980289Y-93285468D01*
X140977829Y-93278151D01*
X140974492Y-93268877D01*
X140970166Y-93257335D01*
X140964736Y-93243213D01*
X140958087Y-93226201D01*
X140950107Y-93205986D01*
X140940682Y-93182258D01*
X140929696Y-93154705D01*
X140917038Y-93123017D01*
X140906905Y-93097669D01*
X140894860Y-93067618D01*
X140883256Y-93038812D01*
X140872239Y-93011606D01*
X140861957Y-92986358D01*
X140852556Y-92963425D01*
X140844185Y-92943164D01*
X140836989Y-92925931D01*
X140831117Y-92912083D01*
X140826716Y-92901977D01*
X140823932Y-92895970D01*
X140823088Y-92894467D01*
X140816838Y-92888611D01*
X140810097Y-92884588D01*
X140806559Y-92883678D01*
X140798425Y-92881925D01*
X140786048Y-92879397D01*
X140769779Y-92876162D01*
X140749970Y-92872289D01*
X140726973Y-92867844D01*
X140701139Y-92862896D01*
X140672820Y-92857512D01*
X140642367Y-92851761D01*
X140610133Y-92845710D01*
X140576468Y-92839427D01*
X140563435Y-92837004D01*
X140529307Y-92830655D01*
X140496465Y-92824523D01*
X140465261Y-92818675D01*
X140436049Y-92813179D01*
X140409181Y-92808101D01*
X140385011Y-92803509D01*
X140363890Y-92799469D01*
X140346171Y-92796049D01*
X140332208Y-92793316D01*
X140322352Y-92791337D01*
X140316958Y-92790179D01*
X140316157Y-92789970D01*
X140308245Y-92785394D01*
X140302943Y-92779389D01*
X140302168Y-92778002D01*
X140301481Y-92776330D01*
X140300879Y-92774080D01*
X140300355Y-92770959D01*
X140299907Y-92766675D01*
X140299529Y-92760936D01*
X140299216Y-92753449D01*
X140298965Y-92743921D01*
X140298771Y-92732061D01*
X140298628Y-92717577D01*
X140298534Y-92700175D01*
X140298482Y-92679563D01*
X140298470Y-92655449D01*
X140298491Y-92627540D01*
X140298541Y-92595545D01*
X140298617Y-92559170D01*
X140298713Y-92518123D01*
X140298737Y-92508246D01*
X140299376Y-92245018D01*
X140305371Y-92238637D01*
X140306249Y-92237558D01*
X140306863Y-92236630D01*
X140307492Y-92235794D01*
X140308412Y-92234993D01*
X140309901Y-92234170D01*
X140312235Y-92233267D01*
X140315692Y-92232228D01*
X140320550Y-92230993D01*
X140327085Y-92229507D01*
X140335575Y-92227712D01*
X140346297Y-92225550D01*
X140359528Y-92222964D01*
X140375546Y-92219897D01*
X140394627Y-92216290D01*
X140417049Y-92212087D01*
X140443089Y-92207231D01*
X140473025Y-92201663D01*
X140507133Y-92195327D01*
X140545691Y-92188165D01*
X140579033Y-92181969D01*
X140619894Y-92174373D01*
X140656104Y-92167633D01*
X140687952Y-92161678D01*
X140715730Y-92156438D01*
X140739729Y-92151841D01*
X140760240Y-92147816D01*
X140777555Y-92144294D01*
X140791964Y-92141202D01*
X140803759Y-92138470D01*
X140813232Y-92136027D01*
X140820672Y-92133802D01*
X140826372Y-92131724D01*
X140830622Y-92129723D01*
X140833714Y-92127728D01*
X140835938Y-92125667D01*
X140837587Y-92123470D01*
X140838951Y-92121066D01*
X140840321Y-92118384D01*
X140840328Y-92118370D01*
X140841932Y-92114878D01*
X140845354Y-92107134D01*
X140850431Y-92095510D01*
X140857002Y-92080381D01*
X140864907Y-92062119D01*
X140873985Y-92041096D01*
X140884073Y-92017685D01*
X140895012Y-91992259D01*
X140906640Y-91965190D01*
X140918795Y-91936853D01*
X140920765Y-91932256D01*
X140935488Y-91897931D01*
X140948358Y-91867914D01*
X140959474Y-91841878D01*
X140968931Y-91819494D01*
X140976826Y-91800435D01*
X140983256Y-91784371D01*
X140988317Y-91770975D01*
X140992107Y-91759918D01*
X140994721Y-91750873D01*
X140996256Y-91743511D01*
X140996809Y-91737503D01*
X140996477Y-91732522D01*
X140995356Y-91728240D01*
X140993543Y-91724328D01*
X140991134Y-91720457D01*
X140988226Y-91716301D01*
X140985494Y-91712386D01*
X140982369Y-91707811D01*
X140976618Y-91699410D01*
X140968463Y-91687505D01*
X140958122Y-91672415D01*
X140945816Y-91654463D01*
X140931766Y-91633969D01*
X140916191Y-91611255D01*
X140899312Y-91586642D01*
X140881348Y-91560451D01*
X140862521Y-91533003D01*
X140843050Y-91504620D01*
X140840030Y-91500217D01*
X140820707Y-91472039D01*
X140802160Y-91444966D01*
X140784592Y-91419298D01*
X140768206Y-91395329D01*
X140753202Y-91373359D01*
X140739785Y-91353683D01*
X140728157Y-91336599D01*
X140718520Y-91322404D01*
X140711077Y-91311394D01*
X140706030Y-91303867D01*
X140703582Y-91300120D01*
X140703407Y-91299823D01*
X140701443Y-91293596D01*
X140700507Y-91285669D01*
X140700495Y-91284753D01*
X140700576Y-91283141D01*
X140700955Y-91281404D01*
X140701831Y-91279332D01*
X140703405Y-91276714D01*
X140705877Y-91273339D01*
X140709448Y-91268996D01*
X140714318Y-91263476D01*
X140720686Y-91256567D01*
X140728754Y-91248059D01*
X140738723Y-91237740D01*
X140750791Y-91225402D01*
X140765160Y-91210832D01*
X140782031Y-91193820D01*
X140801602Y-91174155D01*
X140824076Y-91151628D01*
X140849652Y-91126027D01*
X140878530Y-91097141D01*
X140887241Y-91088429D01*
X141073988Y-90901683D01*
X141084972Y-90901683D01*
X141086369Y-90901594D01*
X141087491Y-90901417D01*
X141088543Y-90901286D01*
X141089727Y-90901335D01*
X141091247Y-90901700D01*
X141093305Y-90902514D01*
X141096105Y-90903912D01*
X141099851Y-90906028D01*
X141104744Y-90908997D01*
X141110989Y-90912953D01*
X141118789Y-90918030D01*
X141128346Y-90924364D01*
X141139864Y-90932087D01*
X141153546Y-90941336D01*
X141169595Y-90952243D01*
X141188215Y-90964944D01*
X141209608Y-90979574D01*
X141233978Y-90996265D01*
X141261528Y-91015153D01*
X141292460Y-91036373D01*
X141326979Y-91060058D01*
X141365287Y-91086344D01*
X141398033Y-91108809D01*
X141425331Y-91127530D01*
X141448804Y-91143605D01*
X141468772Y-91157235D01*
X141485556Y-91168622D01*
X141499475Y-91177967D01*
X141510851Y-91185472D01*
X141520003Y-91191339D01*
X141527253Y-91195769D01*
X141532919Y-91198963D01*
X141537323Y-91201124D01*
X141540786Y-91202454D01*
X141543627Y-91203152D01*
X141546166Y-91203422D01*
X141548451Y-91203465D01*
X141551406Y-91203229D01*
X141555398Y-91202441D01*
X141560742Y-91200979D01*
X141567755Y-91198723D01*
X141576754Y-91195553D01*
X141588054Y-91191347D01*
X141601972Y-91185985D01*
X141618824Y-91179345D01*
X141638927Y-91171308D01*
X141662596Y-91161752D01*
X141690148Y-91150556D01*
X141721900Y-91137600D01*
X141736141Y-91131777D01*
X141764446Y-91120172D01*
X141791495Y-91109031D01*
X141816912Y-91098511D01*
X141840319Y-91088772D01*
X141861341Y-91079970D01*
X141879601Y-91072266D01*
X141894722Y-91065816D01*
X141906327Y-91060779D01*
X141914041Y-91057313D01*
X141917486Y-91055577D01*
X141917527Y-91055547D01*
X141919785Y-91053863D01*
X141921830Y-91052155D01*
X141923729Y-91050136D01*
X141925547Y-91047517D01*
X141927351Y-91044014D01*
X141929207Y-91039338D01*
X141931181Y-91033203D01*
X141933339Y-91025322D01*
X141935747Y-91015407D01*
X141938471Y-91003173D01*
X141941577Y-90988331D01*
X141945131Y-90970596D01*
X141949200Y-90949680D01*
X141953849Y-90925296D01*
X141959144Y-90897158D01*
X141965152Y-90864977D01*
X141971939Y-90828468D01*
X141979570Y-90787344D01*
X141980771Y-90780869D01*
X141987357Y-90745447D01*
X141993728Y-90711329D01*
X141999819Y-90678850D01*
X142005567Y-90648348D01*
X142010907Y-90620159D01*
X142015774Y-90594620D01*
X142020105Y-90572068D01*
X142023834Y-90552838D01*
X142026898Y-90537269D01*
X142029233Y-90525695D01*
X142030773Y-90518455D01*
X142031400Y-90515984D01*
X142035549Y-90509638D01*
X142041701Y-90504214D01*
X142041968Y-90504048D01*
X142043368Y-90503288D01*
X142045123Y-90502614D01*
X142047526Y-90502020D01*
X142050872Y-90501503D01*
X142055454Y-90501056D01*
X142061565Y-90500675D01*
X142069501Y-90500354D01*
X142079553Y-90500089D01*
X142092017Y-90499873D01*
X142107185Y-90499702D01*
X142125351Y-90499571D01*
X142146810Y-90499474D01*
X142171855Y-90499406D01*
X142200779Y-90499363D01*
X142233876Y-90499338D01*
X142271441Y-90499328D01*
X142310000Y-90499325D01*
X142351912Y-90499328D01*
X142351912Y-90499328D01*
G37*
X142351912Y-90499328D02*
X142389087Y-90499340D01*
X142421821Y-90499366D01*
X142450406Y-90499411D01*
X142475137Y-90499481D01*
X142496306Y-90499581D01*
X142514208Y-90499715D01*
X142529136Y-90499889D01*
X142541384Y-90500109D01*
X142551247Y-90500379D01*
X142559017Y-90500705D01*
X142564988Y-90501092D01*
X142569454Y-90501544D01*
X142572709Y-90502067D01*
X142575046Y-90502667D01*
X142576760Y-90503349D01*
X142578032Y-90504048D01*
X142584217Y-90509369D01*
X142588517Y-90515738D01*
X142588618Y-90515984D01*
X142589468Y-90519432D01*
X142591162Y-90527481D01*
X142593633Y-90539785D01*
X142596816Y-90555999D01*
X142600644Y-90575777D01*
X142605052Y-90598772D01*
X142609972Y-90624640D01*
X142615339Y-90653034D01*
X142621087Y-90683609D01*
X142627150Y-90716019D01*
X142633461Y-90749918D01*
X142636888Y-90768396D01*
X142643321Y-90803102D01*
X142649535Y-90836614D01*
X142655466Y-90868574D01*
X142661046Y-90898625D01*
X142666209Y-90926411D01*
X142670889Y-90951572D01*
X142675018Y-90973753D01*
X142678531Y-90992596D01*
X142681362Y-91007743D01*
X142683443Y-91018837D01*
X142684708Y-91025522D01*
X142685013Y-91027096D01*
X142685885Y-91031591D01*
X142686785Y-91035572D01*
X142688016Y-91039199D01*
X142689879Y-91042631D01*
X142692678Y-91046027D01*
X142696715Y-91049546D01*
X142702292Y-91053349D01*
X142709712Y-91057593D01*
X142719277Y-91062440D01*
X142731290Y-91068046D01*
X142746054Y-91074573D01*
X142763871Y-91082180D01*
X142785043Y-91091025D01*
X142809873Y-91101268D01*
X142838663Y-91113068D01*
X142871716Y-91126586D01*
X142881628Y-91130639D01*
X142916076Y-91144740D01*
X142946188Y-91157060D01*
X142972294Y-91167692D01*
X142994727Y-91176727D01*
X143013816Y-91184258D01*
X143029894Y-91190378D01*
X143043292Y-91195177D01*
X143054341Y-91198748D01*
X143063372Y-91201184D01*
X143070717Y-91202576D01*
X143076707Y-91203017D01*
X143081673Y-91202599D01*
X143085947Y-91201413D01*
X143089860Y-91199553D01*
X143093743Y-91197110D01*
X143097927Y-91194176D01*
X143101390Y-91191759D01*
X143105895Y-91188675D01*
X143114234Y-91182960D01*
X143126094Y-91174828D01*
X143141161Y-91164496D01*
X143159123Y-91152176D01*
X143179666Y-91138085D01*
X143202477Y-91122437D01*
X143227244Y-91105447D01*
X143253652Y-91087329D01*
X143281388Y-91068299D01*
X143310140Y-91048571D01*
X143321367Y-91040867D01*
X143354967Y-91017819D01*
X143384678Y-90997457D01*
X143410756Y-90979616D01*
X143433454Y-90964130D01*
X143453028Y-90950833D01*
X143469732Y-90939561D01*
X143483819Y-90930146D01*
X143495546Y-90922424D01*
X143505166Y-90916229D01*
X143512934Y-90911394D01*
X143519104Y-90907754D01*
X143523931Y-90905144D01*
X143527669Y-90903398D01*
X143530573Y-90902350D01*
X143532897Y-90901833D01*
X143534895Y-90901684D01*
X143535110Y-90901683D01*
X143546011Y-90901683D01*
X143732758Y-91088429D01*
X143762582Y-91118256D01*
X143789048Y-91144738D01*
X143812358Y-91168086D01*
X143832712Y-91188513D01*
X143850310Y-91206229D01*
X143865352Y-91221445D01*
X143878040Y-91234372D01*
X143888573Y-91245223D01*
X143897152Y-91254207D01*
X143903977Y-91261537D01*
X143909249Y-91267423D01*
X143913168Y-91272076D01*
X143915935Y-91275708D01*
X143917749Y-91278530D01*
X143918812Y-91280754D01*
X143919323Y-91282589D01*
X143919484Y-91284249D01*
X143919495Y-91285217D01*
X143918249Y-91294021D01*
X143915215Y-91302217D01*
X143914773Y-91302985D01*
X143912686Y-91306153D01*
X143907958Y-91313162D01*
X143900798Y-91323709D01*
X143891414Y-91337491D01*
X143880012Y-91354203D01*
X143866801Y-91373542D01*
X143851987Y-91395204D01*
X143835780Y-91418884D01*
X143818385Y-91444279D01*
X143800012Y-91471086D01*
X143780866Y-91498999D01*
X143778179Y-91502916D01*
X143758759Y-91531219D01*
X143739948Y-91558639D01*
X143721966Y-91584850D01*
X143705037Y-91609529D01*
X143689383Y-91632353D01*
X143675226Y-91652997D01*
X143662787Y-91671137D01*
X143652289Y-91686450D01*
X143643954Y-91698611D01*
X143638005Y-91707297D01*
X143634663Y-91712184D01*
X143634525Y-91712386D01*
X143631271Y-91717029D01*
X143628436Y-91721113D01*
X143626117Y-91724966D01*
X143624410Y-91728916D01*
X143623412Y-91733290D01*
X143623218Y-91738418D01*
X143623927Y-91744628D01*
X143625635Y-91752247D01*
X143628437Y-91761604D01*
X143632431Y-91773027D01*
X143637713Y-91786845D01*
X143644381Y-91803385D01*
X143652529Y-91822975D01*
X143662256Y-91845945D01*
X143673657Y-91872621D01*
X143686830Y-91903333D01*
X143699234Y-91932256D01*
X143711459Y-91960761D01*
X143723181Y-91988056D01*
X143734240Y-92013768D01*
X143744475Y-92037524D01*
X143753723Y-92058952D01*
X143761825Y-92077678D01*
X143768620Y-92093330D01*
X143773945Y-92105536D01*
X143777640Y-92113921D01*
X143779544Y-92118114D01*
X143779671Y-92118370D01*
X143784634Y-92125307D01*
X143791041Y-92131298D01*
X143791084Y-92131329D01*
X143792257Y-92132180D01*
X143793418Y-92132962D01*
X143794835Y-92133728D01*
X143796774Y-92134531D01*
X143799505Y-92135425D01*
X143803294Y-92136463D01*
X143808410Y-92137699D01*
X143815119Y-92139185D01*
X143823691Y-92140974D01*
X143834392Y-92143121D01*
X143847490Y-92145678D01*
X143863253Y-92148699D01*
X143881948Y-92152236D01*
X143903845Y-92156344D01*
X143929209Y-92161075D01*
X143958308Y-92166483D01*
X143991412Y-92172621D01*
X144028786Y-92179543D01*
X144070700Y-92187300D01*
X144094287Y-92191666D01*
X144124902Y-92197339D01*
X144154300Y-92202800D01*
X144182076Y-92207972D01*
X144207820Y-92212779D01*
X144231124Y-92217143D01*
X144251580Y-92220989D01*
X144268782Y-92224240D01*
X144282319Y-92226819D01*
X144291786Y-92228650D01*
X144296773Y-92229656D01*
X144297099Y-92229729D01*
X144305862Y-92232846D01*
X144313200Y-92237326D01*
X144314703Y-92238716D01*
X144320623Y-92245018D01*
X144321262Y-92508246D01*
X144321362Y-92550381D01*
X144321443Y-92587778D01*
X144321500Y-92620730D01*
X144321528Y-92649530D01*
X144321523Y-92674469D01*
X144321481Y-92695841D01*
X144321396Y-92713938D01*
X144321265Y-92729052D01*
X144321083Y-92741475D01*
X144320845Y-92751500D01*
X144320546Y-92759419D01*
X144320183Y-92765525D01*
X144319751Y-92770110D01*
X144319245Y-92773466D01*
X144318660Y-92775886D01*
X144317993Y-92777663D01*
X144317238Y-92779088D01*
X144317056Y-92779389D01*
X144310775Y-92786182D01*
X144303843Y-92790019D01*
X144299972Y-92790937D01*
X144291590Y-92792681D01*
X144279132Y-92795167D01*
X144263035Y-92798312D01*
X144243733Y-92802032D01*
X144221662Y-92806243D01*
X144197258Y-92810861D01*
X144170957Y-92815803D01*
X144143193Y-92820984D01*
X144132010Y-92823062D01*
X144086078Y-92831585D01*
X144044833Y-92839241D01*
X144008017Y-92846081D01*
X143975370Y-92852152D01*
X143946635Y-92857503D01*
X143921553Y-92862184D01*
X143899865Y-92866244D01*
X143881313Y-92869731D01*
X143865637Y-92872695D01*
X143852580Y-92875184D01*
X143841883Y-92877248D01*
X143833287Y-92878935D01*
X143826533Y-92880294D01*
X143821364Y-92881375D01*
X143817520Y-92882226D01*
X143814743Y-92882896D01*
X143812774Y-92883435D01*
X143812077Y-92883649D01*
X143804794Y-92887446D01*
X143798208Y-92893110D01*
X143797927Y-92893437D01*
X143796055Y-92896873D01*
X143792476Y-92904645D01*
X143787329Y-92916416D01*
X143780757Y-92931844D01*
X143772901Y-92950589D01*
X143763901Y-92972313D01*
X143753899Y-92996674D01*
X143743037Y-93023333D01*
X143731454Y-93051951D01*
X143719294Y-93082186D01*
X143713193Y-93097423D01*
X143699259Y-93132282D01*
X143687081Y-93162781D01*
X143676543Y-93189233D01*
X143667533Y-93211948D01*
X143659936Y-93231239D01*
X143653639Y-93247415D01*
X143648527Y-93260787D01*
X143644487Y-93271668D01*
X143641406Y-93280367D01*
X143639168Y-93287196D01*
X143637661Y-93292467D01*
X143636770Y-93296489D01*
X143636381Y-93299575D01*
X143636382Y-93302035D01*
X143636657Y-93304180D01*
X143636961Y-93305703D01*
X143637914Y-93308459D01*
X143639976Y-93312672D01*
X143643294Y-93318563D01*
X143648016Y-93326354D01*
X143654288Y-93336268D01*
X143662257Y-93348525D01*
X143672070Y-93363349D01*
X143683875Y-93380961D01*
X143697818Y-93401583D01*
X143714045Y-93425436D01*
X143732705Y-93452743D01*
X143753943Y-93483726D01*
X143777907Y-93518606D01*
X143778620Y-93519643D01*
X143798339Y-93548371D01*
X143817248Y-93576022D01*
X143835151Y-93602303D01*
X143851851Y-93626922D01*
X143867151Y-93649585D01*
X143880857Y-93670000D01*
X143892771Y-93687874D01*
X143902698Y-93702914D01*
X143910441Y-93714828D01*
X143915804Y-93723324D01*
X143918590Y-93728107D01*
X143918951Y-93728972D01*
X143919189Y-93736912D01*
X143918379Y-93742804D01*
X143916445Y-93745722D01*
X143911277Y-93751774D01*
X143902837Y-93761002D01*
X143891086Y-93773444D01*
X143875985Y-93789142D01*
X143857494Y-93808136D01*
X143835575Y-93830466D01*
X143810189Y-93856172D01*
X143781296Y-93885294D01*
X143748858Y-93917873D01*
X143735143Y-93931619D01*
X143709929Y-93956847D01*
X143685621Y-93981107D01*
X143662468Y-94004157D01*
X143640714Y-94025753D01*
X143620608Y-94045654D01*
X143602395Y-94063615D01*
X143586321Y-94079396D01*
X143572634Y-94092752D01*
X143561579Y-94103442D01*
X143553404Y-94111223D01*
X143548354Y-94115851D01*
X143546803Y-94117089D01*
X143536833Y-94120352D01*
X143526612Y-94119312D01*
X143515289Y-94113848D01*
X143513010Y-94112346D01*
X143509136Y-94109695D01*
X143501436Y-94104419D01*
X143490229Y-94096737D01*
X143475836Y-94086870D01*
X143458578Y-94075037D01*
X143438776Y-94061458D01*
X143416749Y-94046352D01*
X143392818Y-94029940D01*
X143367305Y-94012442D01*
X143340529Y-93994077D01*
X143315940Y-93977211D01*
X143288417Y-93958348D01*
X143261938Y-93940232D01*
X143236816Y-93923074D01*
X143213363Y-93907087D01*
X143191892Y-93892482D01*
X143172716Y-93879473D01*
X143156147Y-93868271D01*
X143142498Y-93859088D01*
X143132082Y-93852136D01*
X143125212Y-93847629D01*
X143122297Y-93845825D01*
X143110483Y-93842294D01*
X143104107Y-93842398D01*
X143099402Y-93843917D01*
X143090635Y-93847726D01*
X143078135Y-93853662D01*
X143062231Y-93861562D01*
X143043253Y-93871264D01*
X143021529Y-93882606D01*
X143004559Y-93891596D01*
X142980834Y-93904199D01*
X142961102Y-93914565D01*
X142944942Y-93922860D01*
X142931927Y-93929252D01*
X142921636Y-93933908D01*
X142913644Y-93936995D01*
X142907526Y-93938680D01*
X142902861Y-93939131D01*
X142899223Y-93938513D01*
X142896189Y-93936994D01*
X142893889Y-93935222D01*
X142892309Y-93932374D01*
X142888885Y-93925011D01*
X142883675Y-93913274D01*
X142876737Y-93897305D01*
X142868133Y-93877245D01*
X142857920Y-93853234D01*
X142846159Y-93825413D01*
X142832908Y-93793924D01*
X142818227Y-93758906D01*
X142802175Y-93720501D01*
X142784812Y-93678850D01*
X142766196Y-93634094D01*
X142746388Y-93586374D01*
X142725446Y-93535830D01*
X142708588Y-93495080D01*
X142686707Y-93442154D01*
X142666672Y-93393674D01*
X142648403Y-93349444D01*
X142631821Y-93309263D01*
X142616845Y-93272932D01*
X142603396Y-93240253D01*
X142591395Y-93211026D01*
X142580763Y-93185052D01*
X142571419Y-93162131D01*
X142563285Y-93142066D01*
X142556280Y-93124657D01*
X142550325Y-93109704D01*
X142545342Y-93097009D01*
X142541249Y-93086373D01*
X142537968Y-93077595D01*
X142535419Y-93070478D01*
X142533522Y-93064823D01*
X142532199Y-93060429D01*
X142531369Y-93057099D01*
X142530953Y-93054632D01*
X142530871Y-93052830D01*
X142531045Y-93051494D01*
X142531199Y-93050950D01*
X142533599Y-93045298D01*
X142537242Y-93040243D01*
X142542912Y-93035085D01*
X142551395Y-93029125D01*
X142563475Y-93021663D01*
X142565257Y-93020602D01*
X142577135Y-93013219D01*
X142590052Y-93004680D01*
X142601491Y-92996656D01*
X142602980Y-92995558D01*
X142612649Y-92988368D01*
X142624572Y-92979506D01*
X142636963Y-92970299D01*
X142644475Y-92964719D01*
X142685725Y-92930988D01*
X142723516Y-92893697D01*
X142757598Y-92853121D01*
X142787724Y-92809533D01*
X142793524Y-92800024D01*
X142816301Y-92757314D01*
X142835628Y-92711638D01*
X142851173Y-92663973D01*
X142862607Y-92615300D01*
X142868232Y-92579155D01*
X142869830Y-92560627D01*
X142870694Y-92538600D01*
X142870850Y-92514549D01*
X142870321Y-92489948D01*
X142869129Y-92466271D01*
X142867300Y-92444991D01*
X142865914Y-92434045D01*
X142855747Y-92381737D01*
X142840996Y-92331214D01*
X142821839Y-92282723D01*
X142798456Y-92236508D01*
X142771024Y-92192817D01*
X142739724Y-92151897D01*
X142704732Y-92113992D01*
X142666229Y-92079350D01*
X142624393Y-92048217D01*
X142579403Y-92020840D01*
X142557977Y-92009712D01*
X142510646Y-91988956D01*
X142462462Y-91972984D01*
X142413044Y-91961707D01*
X142362010Y-91955039D01*
X142310000Y-91952891D01*
X142264843Y-91954365D01*
X142222475Y-91958928D01*
X142181562Y-91966788D01*
X142140769Y-91978152D01*
X142133960Y-91980378D01*
X142084705Y-91999370D01*
X142037852Y-92022596D01*
X141993643Y-92049815D01*
X141952319Y-92080788D01*
X141914122Y-92115275D01*
X141879295Y-92153036D01*
X141848078Y-92193832D01*
X141820714Y-92237422D01*
X141797445Y-92283567D01*
X141778512Y-92332026D01*
X141778074Y-92333329D01*
X141766907Y-92370050D01*
X141758666Y-92405126D01*
X141753102Y-92440130D01*
X141749965Y-92476637D01*
X141749004Y-92516084D01*
X141749990Y-92553824D01*
X141753057Y-92588572D01*
X141758476Y-92622030D01*
X141766521Y-92655900D01*
X141776756Y-92689742D01*
X141795700Y-92739412D01*
X141818995Y-92786635D01*
X141846490Y-92831205D01*
X141878038Y-92872917D01*
X141913490Y-92911564D01*
X141952697Y-92946943D01*
X141975524Y-92964723D01*
X141986681Y-92972991D01*
X141997963Y-92981394D01*
X142007838Y-92988788D01*
X142013247Y-92992869D01*
X142021470Y-92998763D01*
X142032332Y-93006081D01*
X142044134Y-93013693D01*
X142050970Y-93017937D01*
X142064169Y-93026145D01*
X142073686Y-93032542D01*
X142080241Y-93037755D01*
X142084550Y-93042410D01*
X142087333Y-93047134D01*
X142088805Y-93050963D01*
X142089075Y-93052144D01*
X142089131Y-93053689D01*
X142088892Y-93055799D01*
X142088280Y-93058672D01*
X142087214Y-93062506D01*
X142085615Y-93067503D01*
X142083404Y-93073860D01*
X142080501Y-93081776D01*
X142076826Y-93091451D01*
X142072300Y-93103084D01*
X142066844Y-93116874D01*
X142060377Y-93133020D01*
X142052821Y-93151722D01*
X142044096Y-93173177D01*
X142034121Y-93197586D01*
X142022819Y-93225148D01*
X142010108Y-93256061D01*
X141995911Y-93290526D01*
X141980146Y-93328740D01*
X141962735Y-93370903D01*
X141943598Y-93417214D01*
X141922655Y-93467873D01*
X141911400Y-93495093D01*
X141889840Y-93547188D01*
X141869326Y-93596673D01*
X141849918Y-93643400D01*
X141831680Y-93687222D01*
X141814674Y-93727990D01*
X141798960Y-93765558D01*
X141784603Y-93799776D01*
X141771664Y-93830499D01*
X141760205Y-93857577D01*
X141750288Y-93880864D01*
X141741976Y-93900211D01*
X141735331Y-93915471D01*
X141730415Y-93926495D01*
X141727290Y-93933138D01*
X141726094Y-93935222D01*
X141719755Y-93938499D01*
X141713425Y-93939623D01*
X141708868Y-93938370D01*
X141700014Y-93934631D01*
X141686924Y-93928434D01*
X141669655Y-93919809D01*
X141648269Y-93908785D01*
X141622823Y-93895390D01*
X141616253Y-93891898D01*
X141596434Y-93881410D01*
X141577737Y-93871640D01*
X141560684Y-93862852D01*
X141545798Y-93855310D01*
X141533603Y-93849279D01*
X141524622Y-93845022D01*
X141519377Y-93842804D01*
X141518575Y-93842569D01*
X141510146Y-93842265D01*
X141502779Y-93843666D01*
X141499584Y-93845468D01*
X141492560Y-93849915D01*
X141482019Y-93856797D01*
X141468271Y-93865905D01*
X141451630Y-93877028D01*
X141432407Y-93889958D01*
X141410914Y-93904484D01*
X141387463Y-93920396D01*
X141362365Y-93937486D01*
X141335933Y-93955542D01*
X141312155Y-93971834D01*
X141284535Y-93990782D01*
X141257794Y-94009127D01*
X141232265Y-94026639D01*
X141208281Y-94043089D01*
X141186177Y-94058249D01*
X141166285Y-94071890D01*
X141148940Y-94083784D01*
X141134475Y-94093700D01*
X141123223Y-94101411D01*
X141115520Y-94106688D01*
X141112143Y-94108997D01*
X141100080Y-94116348D01*
X141090284Y-94120042D01*
X141081756Y-94120249D01*
X141073499Y-94117140D01*
X141071435Y-94115912D01*
X141068636Y-94113496D01*
X141062539Y-94107759D01*
X141053394Y-94098946D01*
X141041448Y-94087303D01*
X141026951Y-94073076D01*
X141010151Y-94056510D01*
X140991297Y-94037851D01*
X140970638Y-94017345D01*
X140948423Y-93995237D01*
X140924900Y-93971772D01*
X140900318Y-93947196D01*
X140883599Y-93930451D01*
X140849864Y-93896593D01*
X140819690Y-93866208D01*
X140793039Y-93839257D01*
X140769874Y-93815702D01*
X140750155Y-93795503D01*
X140733845Y-93778619D01*
X140720905Y-93765013D01*
X140711297Y-93754645D01*
X140704984Y-93747474D01*
X140701926Y-93743463D01*
X140701620Y-93742804D01*
X140700720Y-93734838D01*
X140701035Y-93728972D01*
X140702592Y-93725961D01*
X140706814Y-93719106D01*
X140713504Y-93708700D01*
X140722468Y-93695035D01*
X140733508Y-93678405D01*
X140746428Y-93659102D01*
X140761032Y-93637418D01*
X140777124Y-93613647D01*
X140794507Y-93588081D01*
X140812986Y-93561013D01*
X140832364Y-93532735D01*
X140841360Y-93519643D01*
X140865411Y-93484639D01*
X140886733Y-93453539D01*
X140905470Y-93426121D01*
X140921771Y-93402165D01*
X140935781Y-93381447D01*
X140947648Y-93363747D01*
X140957518Y-93348844D01*
X140965539Y-93336515D01*
X140971856Y-93326539D01*
X140976616Y-93318694D01*
X140979967Y-93312759D01*
X140982054Y-93308513D01*
X140983025Y-93305733D01*
X140983032Y-93305703D01*
X140983436Y-93303591D01*
X140983648Y-93301390D01*
X140983553Y-93298789D01*
X140983037Y-93295475D01*
X140981987Y-93291139D01*
X140980289Y-93285468D01*
X140977829Y-93278151D01*
X140974492Y-93268877D01*
X140970166Y-93257335D01*
X140964736Y-93243213D01*
X140958087Y-93226201D01*
X140950107Y-93205986D01*
X140940682Y-93182258D01*
X140929696Y-93154705D01*
X140917038Y-93123017D01*
X140906905Y-93097669D01*
X140894860Y-93067618D01*
X140883256Y-93038812D01*
X140872239Y-93011606D01*
X140861957Y-92986358D01*
X140852556Y-92963425D01*
X140844185Y-92943164D01*
X140836989Y-92925931D01*
X140831117Y-92912083D01*
X140826716Y-92901977D01*
X140823932Y-92895970D01*
X140823088Y-92894467D01*
X140816838Y-92888611D01*
X140810097Y-92884588D01*
X140806559Y-92883678D01*
X140798425Y-92881925D01*
X140786048Y-92879397D01*
X140769779Y-92876162D01*
X140749970Y-92872289D01*
X140726973Y-92867844D01*
X140701139Y-92862896D01*
X140672820Y-92857512D01*
X140642367Y-92851761D01*
X140610133Y-92845710D01*
X140576468Y-92839427D01*
X140563435Y-92837004D01*
X140529307Y-92830655D01*
X140496465Y-92824523D01*
X140465261Y-92818675D01*
X140436049Y-92813179D01*
X140409181Y-92808101D01*
X140385011Y-92803509D01*
X140363890Y-92799469D01*
X140346171Y-92796049D01*
X140332208Y-92793316D01*
X140322352Y-92791337D01*
X140316958Y-92790179D01*
X140316157Y-92789970D01*
X140308245Y-92785394D01*
X140302943Y-92779389D01*
X140302168Y-92778002D01*
X140301481Y-92776330D01*
X140300879Y-92774080D01*
X140300355Y-92770959D01*
X140299907Y-92766675D01*
X140299529Y-92760936D01*
X140299216Y-92753449D01*
X140298965Y-92743921D01*
X140298771Y-92732061D01*
X140298628Y-92717577D01*
X140298534Y-92700175D01*
X140298482Y-92679563D01*
X140298470Y-92655449D01*
X140298491Y-92627540D01*
X140298541Y-92595545D01*
X140298617Y-92559170D01*
X140298713Y-92518123D01*
X140298737Y-92508246D01*
X140299376Y-92245018D01*
X140305371Y-92238637D01*
X140306249Y-92237558D01*
X140306863Y-92236630D01*
X140307492Y-92235794D01*
X140308412Y-92234993D01*
X140309901Y-92234170D01*
X140312235Y-92233267D01*
X140315692Y-92232228D01*
X140320550Y-92230993D01*
X140327085Y-92229507D01*
X140335575Y-92227712D01*
X140346297Y-92225550D01*
X140359528Y-92222964D01*
X140375546Y-92219897D01*
X140394627Y-92216290D01*
X140417049Y-92212087D01*
X140443089Y-92207231D01*
X140473025Y-92201663D01*
X140507133Y-92195327D01*
X140545691Y-92188165D01*
X140579033Y-92181969D01*
X140619894Y-92174373D01*
X140656104Y-92167633D01*
X140687952Y-92161678D01*
X140715730Y-92156438D01*
X140739729Y-92151841D01*
X140760240Y-92147816D01*
X140777555Y-92144294D01*
X140791964Y-92141202D01*
X140803759Y-92138470D01*
X140813232Y-92136027D01*
X140820672Y-92133802D01*
X140826372Y-92131724D01*
X140830622Y-92129723D01*
X140833714Y-92127728D01*
X140835938Y-92125667D01*
X140837587Y-92123470D01*
X140838951Y-92121066D01*
X140840321Y-92118384D01*
X140840328Y-92118370D01*
X140841932Y-92114878D01*
X140845354Y-92107134D01*
X140850431Y-92095510D01*
X140857002Y-92080381D01*
X140864907Y-92062119D01*
X140873985Y-92041096D01*
X140884073Y-92017685D01*
X140895012Y-91992259D01*
X140906640Y-91965190D01*
X140918795Y-91936853D01*
X140920765Y-91932256D01*
X140935488Y-91897931D01*
X140948358Y-91867914D01*
X140959474Y-91841878D01*
X140968931Y-91819494D01*
X140976826Y-91800435D01*
X140983256Y-91784371D01*
X140988317Y-91770975D01*
X140992107Y-91759918D01*
X140994721Y-91750873D01*
X140996256Y-91743511D01*
X140996809Y-91737503D01*
X140996477Y-91732522D01*
X140995356Y-91728240D01*
X140993543Y-91724328D01*
X140991134Y-91720457D01*
X140988226Y-91716301D01*
X140985494Y-91712386D01*
X140982369Y-91707811D01*
X140976618Y-91699410D01*
X140968463Y-91687505D01*
X140958122Y-91672415D01*
X140945816Y-91654463D01*
X140931766Y-91633969D01*
X140916191Y-91611255D01*
X140899312Y-91586642D01*
X140881348Y-91560451D01*
X140862521Y-91533003D01*
X140843050Y-91504620D01*
X140840030Y-91500217D01*
X140820707Y-91472039D01*
X140802160Y-91444966D01*
X140784592Y-91419298D01*
X140768206Y-91395329D01*
X140753202Y-91373359D01*
X140739785Y-91353683D01*
X140728157Y-91336599D01*
X140718520Y-91322404D01*
X140711077Y-91311394D01*
X140706030Y-91303867D01*
X140703582Y-91300120D01*
X140703407Y-91299823D01*
X140701443Y-91293596D01*
X140700507Y-91285669D01*
X140700495Y-91284753D01*
X140700576Y-91283141D01*
X140700955Y-91281404D01*
X140701831Y-91279332D01*
X140703405Y-91276714D01*
X140705877Y-91273339D01*
X140709448Y-91268996D01*
X140714318Y-91263476D01*
X140720686Y-91256567D01*
X140728754Y-91248059D01*
X140738723Y-91237740D01*
X140750791Y-91225402D01*
X140765160Y-91210832D01*
X140782031Y-91193820D01*
X140801602Y-91174155D01*
X140824076Y-91151628D01*
X140849652Y-91126027D01*
X140878530Y-91097141D01*
X140887241Y-91088429D01*
X141073988Y-90901683D01*
X141084972Y-90901683D01*
X141086369Y-90901594D01*
X141087491Y-90901417D01*
X141088543Y-90901286D01*
X141089727Y-90901335D01*
X141091247Y-90901700D01*
X141093305Y-90902514D01*
X141096105Y-90903912D01*
X141099851Y-90906028D01*
X141104744Y-90908997D01*
X141110989Y-90912953D01*
X141118789Y-90918030D01*
X141128346Y-90924364D01*
X141139864Y-90932087D01*
X141153546Y-90941336D01*
X141169595Y-90952243D01*
X141188215Y-90964944D01*
X141209608Y-90979574D01*
X141233978Y-90996265D01*
X141261528Y-91015153D01*
X141292460Y-91036373D01*
X141326979Y-91060058D01*
X141365287Y-91086344D01*
X141398033Y-91108809D01*
X141425331Y-91127530D01*
X141448804Y-91143605D01*
X141468772Y-91157235D01*
X141485556Y-91168622D01*
X141499475Y-91177967D01*
X141510851Y-91185472D01*
X141520003Y-91191339D01*
X141527253Y-91195769D01*
X141532919Y-91198963D01*
X141537323Y-91201124D01*
X141540786Y-91202454D01*
X141543627Y-91203152D01*
X141546166Y-91203422D01*
X141548451Y-91203465D01*
X141551406Y-91203229D01*
X141555398Y-91202441D01*
X141560742Y-91200979D01*
X141567755Y-91198723D01*
X141576754Y-91195553D01*
X141588054Y-91191347D01*
X141601972Y-91185985D01*
X141618824Y-91179345D01*
X141638927Y-91171308D01*
X141662596Y-91161752D01*
X141690148Y-91150556D01*
X141721900Y-91137600D01*
X141736141Y-91131777D01*
X141764446Y-91120172D01*
X141791495Y-91109031D01*
X141816912Y-91098511D01*
X141840319Y-91088772D01*
X141861341Y-91079970D01*
X141879601Y-91072266D01*
X141894722Y-91065816D01*
X141906327Y-91060779D01*
X141914041Y-91057313D01*
X141917486Y-91055577D01*
X141917527Y-91055547D01*
X141919785Y-91053863D01*
X141921830Y-91052155D01*
X141923729Y-91050136D01*
X141925547Y-91047517D01*
X141927351Y-91044014D01*
X141929207Y-91039338D01*
X141931181Y-91033203D01*
X141933339Y-91025322D01*
X141935747Y-91015407D01*
X141938471Y-91003173D01*
X141941577Y-90988331D01*
X141945131Y-90970596D01*
X141949200Y-90949680D01*
X141953849Y-90925296D01*
X141959144Y-90897158D01*
X141965152Y-90864977D01*
X141971939Y-90828468D01*
X141979570Y-90787344D01*
X141980771Y-90780869D01*
X141987357Y-90745447D01*
X141993728Y-90711329D01*
X141999819Y-90678850D01*
X142005567Y-90648348D01*
X142010907Y-90620159D01*
X142015774Y-90594620D01*
X142020105Y-90572068D01*
X142023834Y-90552838D01*
X142026898Y-90537269D01*
X142029233Y-90525695D01*
X142030773Y-90518455D01*
X142031400Y-90515984D01*
X142035549Y-90509638D01*
X142041701Y-90504214D01*
X142041968Y-90504048D01*
X142043368Y-90503288D01*
X142045123Y-90502614D01*
X142047526Y-90502020D01*
X142050872Y-90501503D01*
X142055454Y-90501056D01*
X142061565Y-90500675D01*
X142069501Y-90500354D01*
X142079553Y-90500089D01*
X142092017Y-90499873D01*
X142107185Y-90499702D01*
X142125351Y-90499571D01*
X142146810Y-90499474D01*
X142171855Y-90499406D01*
X142200779Y-90499363D01*
X142233876Y-90499338D01*
X142271441Y-90499328D01*
X142310000Y-90499325D01*
X142351912Y-90499328D01*
D12*
X161190000Y-100200000D03*
X161190000Y-100600000D03*
X161190000Y-101000000D03*
X161190000Y-101400000D03*
X161190000Y-101800000D03*
X161190000Y-102200000D03*
X161190000Y-102600000D03*
X161190000Y-103000000D03*
X161190000Y-103400000D03*
X161190000Y-103800000D03*
X161190000Y-107800000D03*
X161190000Y-107400000D03*
X161190000Y-107000000D03*
X161190000Y-106600000D03*
X161190000Y-106200000D03*
X161190000Y-105800000D03*
X161190000Y-105400000D03*
X161190000Y-105000000D03*
X161190000Y-104600000D03*
X161190000Y-104200000D03*
X161190000Y-108200000D03*
X161190000Y-108600000D03*
X161190000Y-109000000D03*
X161190000Y-109400000D03*
X161190000Y-109800000D03*
X161190000Y-110200000D03*
X161190000Y-110600000D03*
X161190000Y-111000000D03*
X161190000Y-111400000D03*
X161190000Y-111800000D03*
X161190000Y-115800000D03*
X161190000Y-115400000D03*
X161190000Y-115000000D03*
X161190000Y-114600000D03*
X161190000Y-114200000D03*
X161190000Y-113800000D03*
X161190000Y-113400000D03*
X161190000Y-113000000D03*
X161190000Y-112600000D03*
X161190000Y-112200000D03*
X158110000Y-112200000D03*
X158110000Y-112600000D03*
X158110000Y-113000000D03*
X158110000Y-113400000D03*
X158110000Y-113800000D03*
X158110000Y-114200000D03*
X158110000Y-114600000D03*
X158110000Y-115000000D03*
X158110000Y-115400000D03*
X158110000Y-115800000D03*
X158110000Y-111800000D03*
X158110000Y-111400000D03*
X158110000Y-111000000D03*
X158110000Y-110600000D03*
X158110000Y-110200000D03*
X158110000Y-109800000D03*
X158110000Y-109400000D03*
X158110000Y-109000000D03*
X158110000Y-108600000D03*
X158110000Y-108200000D03*
X158110000Y-104200000D03*
X158110000Y-104600000D03*
X158110000Y-105000000D03*
X158110000Y-105400000D03*
X158110000Y-105800000D03*
X158110000Y-106200000D03*
X158110000Y-106600000D03*
X158110000Y-107000000D03*
X158110000Y-107400000D03*
X158110000Y-107800000D03*
X158110000Y-103800000D03*
X158110000Y-103400000D03*
X158110000Y-103000000D03*
X158110000Y-102600000D03*
X158110000Y-102200000D03*
X158110000Y-101800000D03*
X158110000Y-101400000D03*
X158110000Y-101000000D03*
X158110000Y-100600000D03*
X158110000Y-100200000D03*
D13*
X134425000Y-120850000D03*
X131475000Y-95375000D03*
D14*
X140540000Y-97740000D03*
X140540000Y-97240000D03*
X140540000Y-96740000D03*
X140540000Y-96240000D03*
X140540000Y-95740000D03*
X140540000Y-95240000D03*
D15*
X139840000Y-94540000D03*
X139340000Y-94540000D03*
X138840000Y-94540000D03*
X138340000Y-94540000D03*
X137840000Y-94540000D03*
X137340000Y-94540000D03*
D14*
X136640000Y-95240000D03*
X136640000Y-95740000D03*
X136640000Y-96240000D03*
X136640000Y-96740000D03*
X136640000Y-97240000D03*
X136640000Y-97740000D03*
D15*
X137340000Y-98440000D03*
X137840000Y-98440000D03*
X138340000Y-98440000D03*
X138840000Y-98440000D03*
X139340000Y-98440000D03*
X139840000Y-98440000D03*
D16*
X137940000Y-95840000D03*
X137940000Y-97140000D03*
X139240000Y-95840000D03*
X139240000Y-97140000D03*
D17*
X137600000Y-100170000D03*
X139500000Y-100170000D03*
D18*
X135110000Y-96420000D03*
X135110000Y-98320000D03*
X137300000Y-92880000D03*
X137300000Y-90980000D03*
D17*
X131320000Y-98370000D03*
X133220000Y-98370000D03*
X144930000Y-100150000D03*
X143030000Y-100150000D03*
X133910000Y-100020000D03*
X135810000Y-100020000D03*
D18*
X151270000Y-104360000D03*
X151270000Y-102460000D03*
X131140000Y-102910000D03*
X131140000Y-104810000D03*
X131750000Y-115450000D03*
X131750000Y-113550000D03*
D17*
X133140000Y-117750000D03*
X131240000Y-117750000D03*
D19*
X158610000Y-96580000D03*
X154610000Y-96580000D03*
D18*
X153620000Y-94440000D03*
X153620000Y-92540000D03*
X148650000Y-119750000D03*
X148650000Y-117850000D03*
D17*
X146880000Y-119480000D03*
X144980000Y-119480000D03*
X156800000Y-125000000D03*
X158700000Y-125000000D03*
D20*
X152000000Y-90750700D03*
X152000000Y-92249300D03*
X150000000Y-90750700D03*
X150000000Y-92249300D03*
X148000000Y-90750700D03*
X148000000Y-92249300D03*
D21*
X139000000Y-91450000D03*
X145600000Y-91450000D03*
D22*
X146700000Y-124900000D03*
D23*
X146700000Y-122360000D03*
X144160000Y-124900000D03*
X144160000Y-122360000D03*
X141620000Y-124900000D03*
X141620000Y-122360000D03*
X139080000Y-124900000D03*
X139080000Y-122360000D03*
D24*
X164400000Y-97700000D03*
D25*
X152000000Y-97600000D03*
X152000000Y-95400000D03*
X150000000Y-97600000D03*
X150000000Y-95400000D03*
X148000000Y-97600000D03*
X148000000Y-95400000D03*
X150700000Y-122650000D03*
X150700000Y-124850000D03*
D26*
X154850000Y-124990000D03*
X152650000Y-124990000D03*
D27*
X147500000Y-101940000D03*
X147000000Y-101940000D03*
X146500000Y-101940000D03*
X146000000Y-101940000D03*
X145500000Y-101940000D03*
X145000000Y-101940000D03*
X144500000Y-101940000D03*
X144000000Y-101940000D03*
X143500000Y-101940000D03*
X143000000Y-101940000D03*
X142500000Y-101940000D03*
X142000000Y-101940000D03*
X141500000Y-101940000D03*
X141000000Y-101940000D03*
X140500000Y-101940000D03*
X140000000Y-101940000D03*
X139500000Y-101940000D03*
X139000000Y-101940000D03*
X138500000Y-101940000D03*
X138000000Y-101940000D03*
X137500000Y-101940000D03*
X137000000Y-101940000D03*
X136500000Y-101940000D03*
X136000000Y-101940000D03*
X135500000Y-101940000D03*
D28*
X133600000Y-103840000D03*
X133600000Y-104340000D03*
X133600000Y-104840000D03*
X133600000Y-105340000D03*
X133600000Y-105840000D03*
X133600000Y-106340000D03*
X133600000Y-106840000D03*
X133600000Y-107340000D03*
X133600000Y-107840000D03*
X133600000Y-108340000D03*
X133600000Y-108840000D03*
X133600000Y-109340000D03*
X133600000Y-109840000D03*
X133600000Y-110340000D03*
X133600000Y-110840000D03*
X133600000Y-111340000D03*
X133600000Y-111840000D03*
X133600000Y-112340000D03*
X133600000Y-112840000D03*
X133600000Y-113340000D03*
X133600000Y-113840000D03*
X133600000Y-114340000D03*
X133600000Y-114840000D03*
X133600000Y-115340000D03*
X133600000Y-115840000D03*
D27*
X135500000Y-117740000D03*
X136000000Y-117740000D03*
X136500000Y-117740000D03*
X137000000Y-117740000D03*
X137500000Y-117740000D03*
X138000000Y-117740000D03*
X138500000Y-117740000D03*
X139000000Y-117740000D03*
X139500000Y-117740000D03*
X140000000Y-117740000D03*
X140500000Y-117740000D03*
X141000000Y-117740000D03*
X141500000Y-117740000D03*
X142000000Y-117740000D03*
X142500000Y-117740000D03*
X143000000Y-117740000D03*
X143500000Y-117740000D03*
X144000000Y-117740000D03*
X144500000Y-117740000D03*
X145000000Y-117740000D03*
X145500000Y-117740000D03*
X146000000Y-117740000D03*
X146500000Y-117740000D03*
X147000000Y-117740000D03*
X147500000Y-117740000D03*
D28*
X149400000Y-115840000D03*
X149400000Y-115340000D03*
X149400000Y-114840000D03*
X149400000Y-114340000D03*
X149400000Y-113840000D03*
X149400000Y-113340000D03*
X149400000Y-112840000D03*
X149400000Y-112340000D03*
X149400000Y-111840000D03*
X149400000Y-111340000D03*
X149400000Y-110840000D03*
X149400000Y-110340000D03*
X149400000Y-109840000D03*
X149400000Y-109340000D03*
X149400000Y-108840000D03*
X149400000Y-108340000D03*
X149400000Y-107840000D03*
X149400000Y-107340000D03*
X149400000Y-106840000D03*
X149400000Y-106340000D03*
X149400000Y-105840000D03*
X149400000Y-105340000D03*
X149400000Y-104840000D03*
X149400000Y-104340000D03*
X149400000Y-103840000D03*
D29*
X157930000Y-94460000D03*
X157930000Y-93510000D03*
X157930000Y-92560000D03*
X155730000Y-92560000D03*
X155730000Y-94460000D03*
D30*
X144390000Y-97700000D03*
X141990000Y-97700000D03*
X143190000Y-97700000D03*
D26*
X158375000Y-123175000D03*
X156175000Y-123175000D03*
D13*
X164375000Y-95475000D03*
D25*
X131130000Y-108090000D03*
X131130000Y-110290000D03*
D31*
X161050000Y-95060000D03*
X132240000Y-102910000D03*
X160175000Y-125250000D03*
X153250000Y-123875000D03*
X146730065Y-99479559D03*
X143445591Y-104114317D03*
X145595875Y-97404125D03*
X140700000Y-98600000D03*
X156200000Y-95600000D03*
X156900000Y-96000000D03*
X152820000Y-103420000D03*
X153147437Y-91451520D03*
X132140000Y-99700000D03*
X138370000Y-99360302D03*
X136400000Y-98650000D03*
X131750000Y-112250000D03*
X131250000Y-118750000D03*
X154590000Y-92540000D03*
X136130000Y-93780000D03*
X162740000Y-106530000D03*
X162160000Y-106990000D03*
X162770000Y-107390000D03*
X162150000Y-107780000D03*
X162700000Y-108190000D03*
X162130000Y-108590000D03*
X162690000Y-109000000D03*
X162100000Y-109400000D03*
X157070304Y-105230304D03*
X149760000Y-119972643D03*
X132150000Y-106720000D03*
X159675000Y-123025000D03*
X145654667Y-103232980D03*
X150220000Y-102410000D03*
X134020000Y-97020000D03*
X133910000Y-101430000D03*
X142207833Y-100349389D03*
X140760000Y-100370000D03*
X133250000Y-118750000D03*
X154600000Y-94830000D03*
X154620000Y-94110000D03*
X154600000Y-90880000D03*
X149730000Y-118220000D03*
D32*
X155759642Y-106155806D03*
D31*
X157840000Y-98160000D03*
X159380000Y-98150000D03*
X158600000Y-98140000D03*
X155050000Y-123950000D03*
X156845875Y-109385875D03*
X156180000Y-107410000D03*
X156850000Y-107770000D03*
X156220000Y-108180000D03*
X156840000Y-108580000D03*
X156230000Y-108980000D03*
X141580874Y-95509126D03*
X147031520Y-95375823D03*
X136122613Y-115978209D03*
X135431209Y-116452087D03*
X138861023Y-106953480D03*
D32*
X156749727Y-106418480D03*
D31*
X140938372Y-103368044D03*
X147175000Y-96475000D03*
D32*
X163197180Y-111170650D03*
D31*
X145600000Y-98500000D03*
X163700000Y-110500000D03*
X156115373Y-104127015D03*
X148070000Y-104350000D03*
X162486303Y-104269873D03*
D32*
X162070049Y-99079417D03*
D31*
X137800000Y-104070000D03*
D32*
X161999320Y-99914639D03*
D31*
X137384564Y-104798020D03*
D32*
X162797089Y-99657418D03*
D31*
X137964337Y-105473656D03*
D32*
X163050000Y-100510000D03*
D31*
X136534025Y-105601555D03*
X145598919Y-112490000D03*
D32*
X161045015Y-116945501D03*
D31*
X146368480Y-111870000D03*
D32*
X161688037Y-116372672D03*
D31*
X150615704Y-119419437D03*
X139548365Y-119850115D03*
X150604709Y-120257577D03*
X140830000Y-120318480D03*
X153236728Y-108325416D03*
D32*
X163326569Y-114121626D03*
D31*
X154910000Y-110750000D03*
D32*
X163275858Y-113284950D03*
D31*
X154121210Y-109915899D03*
D32*
X162930340Y-112521264D03*
D31*
X158000000Y-120400000D03*
X151170000Y-115540000D03*
D32*
X155644019Y-113619718D03*
D31*
X153500000Y-112650000D03*
D32*
X154850995Y-113891217D03*
D31*
X152540874Y-112720874D03*
D32*
X154897193Y-114728154D03*
D31*
X151167644Y-111601748D03*
X149521037Y-117389743D03*
X144491023Y-116501517D03*
X150578503Y-118270696D03*
X137761390Y-115799570D03*
X151640000Y-118280000D03*
X138540000Y-116110000D03*
D32*
X155068609Y-112748196D03*
D31*
X152390323Y-111896293D03*
D32*
X155842682Y-112426621D03*
D31*
X151620000Y-112760000D03*
X147511506Y-110574773D03*
X151170000Y-110271520D03*
X147263265Y-109774163D03*
X152190000Y-109911520D03*
X152342988Y-108021520D03*
X142763007Y-110711257D03*
X151505144Y-108046300D03*
X142170301Y-110118553D03*
X147107245Y-108021520D03*
X148080658Y-108702180D03*
X149294027Y-99894069D03*
X148699035Y-101951523D03*
X146700000Y-116460000D03*
X146280000Y-113340000D03*
D32*
X154145622Y-100800002D03*
D31*
X148914645Y-102820196D03*
X152841250Y-99908731D03*
X152638212Y-104248692D03*
X153750000Y-99670000D03*
X153448296Y-103974836D03*
X149675000Y-124875000D03*
X144833531Y-103401305D03*
X152020000Y-98850000D03*
X148326987Y-99207035D03*
X143926091Y-103257165D03*
X147492253Y-99130749D03*
X143088970Y-103214409D03*
X134922354Y-105331952D03*
X139600000Y-92650000D03*
X135768844Y-104491957D03*
X138340000Y-92630000D03*
X132838480Y-96990000D03*
X132200000Y-111350000D03*
X135054631Y-104051379D03*
X139330000Y-99299698D03*
X140831276Y-99513227D03*
X138496807Y-103368480D03*
X142243747Y-106274608D03*
D32*
X162395452Y-103126851D03*
D31*
X141493628Y-106648669D03*
D32*
X163160000Y-103660000D03*
D31*
X155050388Y-123111789D03*
X137825000Y-107175000D03*
X145144222Y-115973998D03*
X144455900Y-109825000D03*
X141605900Y-103875000D03*
X145982422Y-115973998D03*
X145294100Y-109825000D03*
X142444100Y-103875000D03*
D33*
X131140000Y-102910000D02*
X132240000Y-102910000D01*
X132345000Y-104340000D02*
X131140000Y-103135000D01*
X131140000Y-103135000D02*
X131140000Y-102910000D01*
X133600000Y-104340000D02*
X132345000Y-104340000D01*
X131130000Y-110290000D02*
X131130000Y-111630000D01*
X131130000Y-111630000D02*
X131750000Y-112250000D01*
X158700000Y-125000000D02*
X159925000Y-125000000D01*
X159925000Y-125000000D02*
X160175000Y-125250000D01*
X141490000Y-99020000D02*
X141120000Y-99020000D01*
X141120000Y-99020000D02*
X140700000Y-98600000D01*
X144930000Y-100150000D02*
X144930000Y-99622600D01*
X144930000Y-99622600D02*
X145000000Y-99552600D01*
X145000000Y-99552600D02*
X145000000Y-97281399D01*
X146059624Y-100150000D02*
X146387166Y-99822458D01*
X144930000Y-100150000D02*
X146059624Y-100150000D01*
X146387166Y-99822458D02*
X146730065Y-99479559D01*
X145000000Y-97293183D02*
X145110942Y-97404125D01*
X145110942Y-97404125D02*
X145595875Y-97404125D01*
X145000000Y-97281399D02*
X145000000Y-97293183D01*
X140540000Y-98440000D02*
X140700000Y-98600000D01*
X140540000Y-97740000D02*
X140540000Y-98440000D01*
X143000000Y-101438518D02*
X143000000Y-101000000D01*
X143000000Y-101000000D02*
X143100000Y-100900000D01*
X143100000Y-100900000D02*
X143955000Y-100900000D01*
X143955000Y-100900000D02*
X144705000Y-100150000D01*
X144705000Y-100150000D02*
X144930000Y-100150000D01*
X145000000Y-97281399D02*
X145000000Y-96440000D01*
X145000000Y-96440000D02*
X144730000Y-96170000D01*
X144730000Y-96170000D02*
X143440000Y-96170000D01*
X143440000Y-96170000D02*
X143190000Y-96420000D01*
D34*
X156200000Y-96244000D02*
X155864000Y-96580000D01*
X156820000Y-95624000D02*
X156200000Y-96244000D01*
D33*
X156200000Y-96244000D02*
X156200000Y-95600000D01*
X156820000Y-95624000D02*
X156820000Y-95920000D01*
X156820000Y-95920000D02*
X156900000Y-96000000D01*
X149400000Y-104340000D02*
X151250000Y-104340000D01*
X151250000Y-104340000D02*
X151270000Y-104360000D01*
X151270000Y-104360000D02*
X151270000Y-104135000D01*
X151270000Y-104135000D02*
X151985000Y-103420000D01*
X151985000Y-103420000D02*
X152820000Y-103420000D01*
X153283920Y-91451520D02*
X153147437Y-91451520D01*
X153620000Y-92540000D02*
X153620000Y-91787600D01*
X153620000Y-91787600D02*
X153283920Y-91451520D01*
X133910000Y-100020000D02*
X132460000Y-100020000D01*
X132460000Y-100020000D02*
X132140000Y-99700000D01*
X131320000Y-98370000D02*
X131320000Y-98897400D01*
X131320000Y-98897400D02*
X132122600Y-99700000D01*
X132122600Y-99700000D02*
X132140000Y-99700000D01*
X137600000Y-100170000D02*
X137600000Y-100130302D01*
X137600000Y-100130302D02*
X138370000Y-99360302D01*
X135110000Y-98320000D02*
X136070000Y-98320000D01*
X136070000Y-98320000D02*
X136400000Y-98650000D01*
X138000000Y-101940000D02*
X138000000Y-100570000D01*
X138000000Y-100570000D02*
X137600000Y-100170000D01*
X131750000Y-113550000D02*
X131750000Y-112250000D01*
X131240000Y-117750000D02*
X131240000Y-118740000D01*
X131240000Y-118740000D02*
X131250000Y-118750000D01*
X153620000Y-92540000D02*
X154590000Y-92540000D01*
X137657400Y-93780000D02*
X136130000Y-93780000D01*
X137840000Y-94540000D02*
X137840000Y-93962600D01*
X137840000Y-93962600D02*
X137657400Y-93780000D01*
D34*
X156820000Y-93836000D02*
X156820000Y-95624000D01*
X155864000Y-96580000D02*
X154610000Y-96580000D01*
X157930000Y-93510000D02*
X157146000Y-93510000D01*
X157146000Y-93510000D02*
X156820000Y-93836000D01*
D33*
X162740000Y-106530000D02*
X161260000Y-106530000D01*
X161260000Y-106530000D02*
X161190000Y-106600000D01*
X161190000Y-107000000D02*
X162150000Y-107000000D01*
X162150000Y-107000000D02*
X162160000Y-106990000D01*
X162770000Y-107390000D02*
X161200000Y-107390000D01*
X161200000Y-107390000D02*
X161190000Y-107400000D01*
X161190000Y-107800000D02*
X162130000Y-107800000D01*
X162130000Y-107800000D02*
X162150000Y-107780000D01*
X162700000Y-108190000D02*
X161200000Y-108190000D01*
X161200000Y-108190000D02*
X161190000Y-108200000D01*
X161190000Y-108600000D02*
X162120000Y-108600000D01*
X162120000Y-108600000D02*
X162130000Y-108590000D01*
X162690000Y-109000000D02*
X161190000Y-109000000D01*
X161190000Y-109400000D02*
X162100000Y-109400000D01*
X158110000Y-105400000D02*
X157240000Y-105400000D01*
X157240000Y-105400000D02*
X157070304Y-105230304D01*
X158110000Y-105000000D02*
X157300608Y-105000000D01*
X157300608Y-105000000D02*
X157070304Y-105230304D01*
X149537357Y-119750000D02*
X149760000Y-119972643D01*
X148650000Y-119750000D02*
X149537357Y-119750000D01*
X148650000Y-119750000D02*
X147150000Y-119750000D01*
X147150000Y-119750000D02*
X146880000Y-119480000D01*
X146880000Y-119480000D02*
X146880000Y-117860000D01*
X146880000Y-117860000D02*
X147000000Y-117740000D01*
X136640000Y-97740000D02*
X135690000Y-97740000D01*
X135690000Y-97740000D02*
X135110000Y-98320000D01*
X143190000Y-96420000D02*
X142870000Y-96100000D01*
X142870000Y-96100000D02*
X141770000Y-96100000D01*
X141770000Y-96100000D02*
X141490000Y-96380000D01*
X141490000Y-96380000D02*
X141490000Y-99020000D01*
X139000000Y-91450000D02*
X137770000Y-91450000D01*
X137770000Y-91450000D02*
X137300000Y-90980000D01*
X143190000Y-96420000D02*
X143190000Y-97700000D01*
X144485000Y-100300000D02*
X144710000Y-100300000D01*
X143190000Y-98030000D02*
X143190000Y-97180000D01*
X143190000Y-97180000D02*
X143180000Y-97170000D01*
X138340000Y-94540000D02*
X138340000Y-93920000D01*
X138340000Y-93920000D02*
X137300000Y-92880000D01*
X132150000Y-106720000D02*
X132150000Y-105387600D01*
X132150000Y-105387600D02*
X132697600Y-104840000D01*
X132697600Y-104840000D02*
X133600000Y-104840000D01*
X131140000Y-104810000D02*
X131667400Y-104810000D01*
X131667400Y-104810000D02*
X132150000Y-105292600D01*
X132150000Y-105292600D02*
X132150000Y-106235067D01*
X132150000Y-106235067D02*
X132150000Y-106720000D01*
X133600000Y-104840000D02*
X131170000Y-104840000D01*
X131170000Y-104840000D02*
X131140000Y-104810000D01*
X132140000Y-106710000D02*
X132150000Y-106720000D01*
X132140000Y-106280000D02*
X132140000Y-106710000D01*
X157125000Y-122300000D02*
X151652400Y-122300000D01*
X151652400Y-122300000D02*
X151302400Y-122650000D01*
X151302400Y-122650000D02*
X150700000Y-122650000D01*
X157350000Y-122525000D02*
X157125000Y-122300000D01*
X157350000Y-122902400D02*
X157350000Y-122525000D01*
X158375000Y-123175000D02*
X157622600Y-123175000D01*
X157622600Y-123175000D02*
X157350000Y-122902400D01*
X159675000Y-123025000D02*
X158525000Y-123025000D01*
X158525000Y-123025000D02*
X158375000Y-123175000D01*
X145567506Y-103232980D02*
X145654667Y-103232980D01*
X145000000Y-101940000D02*
X145000000Y-102665474D01*
X145000000Y-102665474D02*
X145567506Y-103232980D01*
X142500000Y-101940000D02*
X142500000Y-100680000D01*
X142500000Y-100680000D02*
X143030000Y-100150000D01*
X149400000Y-103840000D02*
X150300000Y-103840000D01*
X150300000Y-103840000D02*
X150742600Y-103397400D01*
X150742600Y-103397400D02*
X150742600Y-102460000D01*
X150742600Y-102460000D02*
X151270000Y-102460000D01*
X151270000Y-102460000D02*
X150270000Y-102460000D01*
X150270000Y-102460000D02*
X150220000Y-102410000D01*
X150000000Y-90750700D02*
X148000000Y-90750700D01*
X152000000Y-90750700D02*
X150000000Y-90750700D01*
X154600000Y-90880000D02*
X152129300Y-90880000D01*
X152129300Y-90880000D02*
X152000000Y-90750700D01*
X135110000Y-96420000D02*
X134620000Y-96420000D01*
X134620000Y-96420000D02*
X134020000Y-97020000D01*
X134175000Y-101430000D02*
X133910000Y-101430000D01*
X135585000Y-100020000D02*
X134175000Y-101430000D01*
X135810000Y-100020000D02*
X135585000Y-100020000D01*
X142277600Y-100150000D02*
X142207833Y-100219767D01*
X142207833Y-100219767D02*
X142207833Y-100349389D01*
X143030000Y-100150000D02*
X142277600Y-100150000D01*
X139500000Y-100170000D02*
X140560000Y-100170000D01*
X140560000Y-100170000D02*
X140760000Y-100370000D01*
X137500000Y-101940000D02*
X137500000Y-101040000D01*
X137500000Y-101040000D02*
X137320000Y-100860000D01*
X137320000Y-100860000D02*
X136830000Y-100860000D01*
X136830000Y-100860000D02*
X136830000Y-100867600D01*
X136830000Y-100867600D02*
X136727600Y-100867600D01*
X136727600Y-100867600D02*
X135880000Y-100020000D01*
X135880000Y-100020000D02*
X135810000Y-100020000D01*
X137000000Y-101940000D02*
X137000000Y-101037600D01*
X137000000Y-101037600D02*
X136830000Y-100867600D01*
X139500000Y-100170000D02*
X139275000Y-100170000D01*
X139275000Y-100170000D02*
X138500000Y-100945000D01*
X138500000Y-100945000D02*
X138500000Y-101037600D01*
X138500000Y-101037600D02*
X138500000Y-101940000D01*
X133140000Y-117750000D02*
X133140000Y-118640000D01*
X133140000Y-118640000D02*
X133250000Y-118750000D01*
X133140000Y-117750000D02*
X133140000Y-117222600D01*
X133140000Y-117222600D02*
X133600000Y-116762600D01*
X133600000Y-116762600D02*
X133600000Y-115840000D01*
X154600000Y-94830000D02*
X154010000Y-94830000D01*
X154010000Y-94830000D02*
X153620000Y-94440000D01*
X154620000Y-94110000D02*
X153950000Y-94110000D01*
X153950000Y-94110000D02*
X153620000Y-94440000D01*
X154970000Y-94460000D02*
X154600000Y-94830000D01*
X155730000Y-94460000D02*
X154970000Y-94460000D01*
X154970000Y-94460000D02*
X154620000Y-94110000D01*
X158110316Y-106224000D02*
X157554000Y-106224000D01*
X157554000Y-106224000D02*
X157460000Y-106130000D01*
X157460000Y-106130000D02*
X157460000Y-105846978D01*
X157460000Y-105846978D02*
X156068470Y-105846978D01*
X158110000Y-105800000D02*
X157607600Y-105800000D01*
X157607600Y-105800000D02*
X157560622Y-105846978D01*
X157560622Y-105846978D02*
X157460000Y-105846978D01*
X156068470Y-105846978D02*
X155759642Y-106155806D01*
X149020000Y-118220000D02*
X149730000Y-118220000D01*
X148650000Y-117850000D02*
X149020000Y-118220000D01*
X148650000Y-117850000D02*
X147610000Y-117850000D01*
X147610000Y-117850000D02*
X147500000Y-117740000D01*
X135110000Y-96420000D02*
X135110000Y-96192600D01*
X135110000Y-96192600D02*
X136062600Y-95240000D01*
X136062600Y-95240000D02*
X136640000Y-95240000D01*
X133572600Y-99250000D02*
X137607400Y-99250000D01*
X137607400Y-99250000D02*
X137840000Y-99017400D01*
X137840000Y-99017400D02*
X137840000Y-98440000D01*
X133220000Y-98370000D02*
X133220000Y-98897400D01*
X133220000Y-98897400D02*
X133572600Y-99250000D01*
X133600000Y-115340000D02*
X131860000Y-115340000D01*
X131860000Y-115340000D02*
X131750000Y-115450000D01*
X158610000Y-96580000D02*
X163280000Y-96580000D01*
X163280000Y-96580000D02*
X164400000Y-97700000D01*
X159106000Y-94852000D02*
X159106000Y-93053600D01*
X159106000Y-93053600D02*
X158612400Y-92560000D01*
X158612400Y-92560000D02*
X157930000Y-92560000D01*
D34*
X159106000Y-95030000D02*
X159106000Y-94852000D01*
X159106000Y-94852000D02*
X158714000Y-94460000D01*
X158714000Y-94460000D02*
X157930000Y-94460000D01*
X158610000Y-96580000D02*
X158610000Y-95526000D01*
X158610000Y-95526000D02*
X159106000Y-95030000D01*
X157840000Y-98160000D02*
X157840000Y-97350000D01*
X157840000Y-97350000D02*
X158610000Y-96580000D01*
X159380000Y-98150000D02*
X159380000Y-97350000D01*
X159380000Y-97350000D02*
X158610000Y-96580000D01*
X158600000Y-98140000D02*
X158600000Y-96590000D01*
X158600000Y-96590000D02*
X158610000Y-96580000D01*
D33*
X144980000Y-119480000D02*
X145205000Y-119480000D01*
X145205000Y-119480000D02*
X145732400Y-118952600D01*
X145732400Y-118952600D02*
X145897400Y-118952600D01*
X145897400Y-118952600D02*
X146050000Y-118800000D01*
X146050000Y-118800000D02*
X146390000Y-118800000D01*
X146390000Y-118800000D02*
X146500000Y-118690000D01*
X146500000Y-118690000D02*
X146500000Y-118350000D01*
X146500000Y-118350000D02*
X146500000Y-117740000D01*
X154850000Y-124990000D02*
X154850000Y-124150000D01*
X154850000Y-124150000D02*
X155050000Y-123950000D01*
X156800000Y-125000000D02*
X157025000Y-125000000D01*
X156800000Y-125000000D02*
X154860000Y-125000000D01*
X154860000Y-125000000D02*
X154850000Y-124990000D01*
X148000000Y-95400000D02*
X148000000Y-94647600D01*
X148000000Y-94647600D02*
X148000000Y-92249300D01*
X150000000Y-95400000D02*
X150000000Y-92249300D01*
X152000000Y-92249300D02*
X152000000Y-95400000D01*
X156860000Y-109400000D02*
X156845875Y-109385875D01*
X158110000Y-109400000D02*
X156860000Y-109400000D01*
X158110000Y-107400000D02*
X156190000Y-107400000D01*
X156190000Y-107400000D02*
X156180000Y-107410000D01*
X156850000Y-107770000D02*
X158080000Y-107770000D01*
X158080000Y-107770000D02*
X158110000Y-107800000D01*
X158110000Y-108200000D02*
X156240000Y-108200000D01*
X156240000Y-108200000D02*
X156220000Y-108180000D01*
X156840000Y-108580000D02*
X158090000Y-108580000D01*
X158090000Y-108580000D02*
X158110000Y-108600000D01*
X158110000Y-109000000D02*
X156250000Y-109000000D01*
X156250000Y-109000000D02*
X156230000Y-108980000D01*
X158110316Y-107824000D02*
X158046368Y-107760052D01*
D34*
X141580874Y-95509126D02*
X142065807Y-95509126D01*
X142065807Y-95509126D02*
X142280101Y-95723420D01*
X146683923Y-95723420D02*
X146688621Y-95718722D01*
X146688621Y-95718722D02*
X147031520Y-95375823D01*
X142280101Y-95723420D02*
X146683923Y-95723420D01*
D33*
X136120000Y-115975596D02*
X136122613Y-115978209D01*
X134502400Y-110840000D02*
X136120000Y-112457600D01*
X133600000Y-110840000D02*
X134502400Y-110840000D01*
X136120000Y-112457600D02*
X136120000Y-115975596D01*
X135548498Y-116334798D02*
X135431209Y-116452087D01*
X134502400Y-111840000D02*
X135560000Y-112897600D01*
X133600000Y-111840000D02*
X134502400Y-111840000D01*
X135560000Y-115694176D02*
X135548498Y-115705678D01*
X135548498Y-115705678D02*
X135548498Y-116334798D01*
X135560000Y-112897600D02*
X135560000Y-115694176D01*
X137247799Y-121237799D02*
X140497799Y-121237799D01*
X140497799Y-121237799D02*
X141620000Y-122360000D01*
X134854899Y-116317650D02*
X134854899Y-118844899D01*
X134854899Y-118844899D02*
X137247799Y-121237799D01*
X134502400Y-112840000D02*
X135180000Y-113517600D01*
X135180000Y-113517600D02*
X135180000Y-115851235D01*
X135180000Y-115851235D02*
X134883412Y-116147823D01*
X133600000Y-112840000D02*
X134502400Y-112840000D01*
X134883412Y-116289137D02*
X134854899Y-116317650D01*
X134883412Y-116147823D02*
X134883412Y-116289137D01*
X133600000Y-113340000D02*
X134502400Y-113340000D01*
X134830000Y-113667600D02*
X134830000Y-115770169D01*
X134502400Y-113340000D02*
X134830000Y-113667600D01*
X134830000Y-115770169D02*
X134578601Y-116021567D01*
X134578601Y-116021567D02*
X134578601Y-116162881D01*
X134578601Y-116162881D02*
X134550088Y-116191394D01*
X134550088Y-116191394D02*
X134550088Y-119150088D01*
X134550088Y-119150088D02*
X137760000Y-122360000D01*
X137760000Y-122360000D02*
X139080000Y-122360000D01*
X137974503Y-107840000D02*
X138518124Y-107296379D01*
X138518124Y-107296379D02*
X138861023Y-106953480D01*
X133600000Y-107840000D02*
X137974503Y-107840000D01*
X158110316Y-107024000D02*
X157355247Y-107024000D01*
X157092626Y-106761379D02*
X156749727Y-106418480D01*
X157355247Y-107024000D02*
X157092626Y-106761379D01*
X141000000Y-101940000D02*
X141000000Y-103306416D01*
X141000000Y-103306416D02*
X140938372Y-103368044D01*
X147175000Y-96925000D02*
X147175000Y-96475000D01*
X145600000Y-98500000D02*
X147175000Y-96925000D01*
X161190316Y-110176401D02*
X161540316Y-110176401D01*
X161540316Y-110176401D02*
X162534565Y-111170650D01*
X162534565Y-111170650D02*
X162712247Y-111170650D01*
X162712247Y-111170650D02*
X163197180Y-111170650D01*
X163156768Y-110500000D02*
X163215067Y-110500000D01*
X163215067Y-110500000D02*
X163700000Y-110500000D01*
X163108384Y-110451616D02*
X163156768Y-110500000D01*
X163930000Y-105713570D02*
X162829202Y-104612772D01*
X163108384Y-110451616D02*
X163930000Y-109630000D01*
X162698505Y-110451616D02*
X163108384Y-110451616D01*
X163930000Y-109630000D02*
X163930000Y-105713570D01*
X155630440Y-104127015D02*
X156115373Y-104127015D01*
X152144431Y-106275569D02*
X154292985Y-104127015D01*
X154292985Y-104127015D02*
X155630440Y-104127015D01*
X149400000Y-106840000D02*
X151056799Y-106840000D01*
X151621230Y-106275569D02*
X152144431Y-106275569D01*
X151056799Y-106840000D02*
X151621230Y-106275569D01*
X148030325Y-104625262D02*
X148030325Y-104389675D01*
X148030325Y-104389675D02*
X148070000Y-104350000D01*
X162355606Y-110108717D02*
X162698505Y-110451616D01*
X162829202Y-104612772D02*
X162486303Y-104269873D01*
X161918363Y-110108717D02*
X162355606Y-110108717D01*
X161586047Y-109776401D02*
X161918363Y-110108717D01*
X161190316Y-109776401D02*
X161586047Y-109776401D01*
X148030325Y-104625262D02*
X148037943Y-104617644D01*
X148497600Y-106840000D02*
X148030325Y-106372725D01*
X148030325Y-106372725D02*
X148030325Y-104625262D01*
X149400000Y-106840000D02*
X148497600Y-106840000D01*
X161585116Y-99079417D02*
X162070049Y-99079417D01*
X161045015Y-99619518D02*
X161585116Y-99079417D01*
X161045015Y-100200200D02*
X161045015Y-99619518D01*
X137727600Y-104070000D02*
X137800000Y-104070000D01*
X136500000Y-101940000D02*
X136500000Y-102842400D01*
X136500000Y-102842400D02*
X137727600Y-104070000D01*
X161664323Y-100624000D02*
X161999320Y-100289003D01*
X161190316Y-100624000D02*
X161664323Y-100624000D01*
X161999320Y-100289003D02*
X161999320Y-99914639D01*
X137228498Y-104641954D02*
X137384564Y-104798020D01*
X136000000Y-103002247D02*
X137228498Y-104230745D01*
X137228498Y-104230745D02*
X137228498Y-104641954D01*
X136000000Y-101940000D02*
X136000000Y-103002247D01*
X162797089Y-99947844D02*
X162797089Y-99657418D01*
X161720933Y-101024000D02*
X162797089Y-99947844D01*
X161190316Y-101024000D02*
X161720933Y-101024000D01*
X137479404Y-105473656D02*
X137964337Y-105473656D01*
X136813062Y-105060473D02*
X137226245Y-105473656D01*
X135500000Y-101940000D02*
X135500000Y-102933313D01*
X136813062Y-104246375D02*
X136813062Y-105060473D01*
X137226245Y-105473656D02*
X137479404Y-105473656D01*
X135500000Y-102933313D02*
X136813062Y-104246375D01*
X162223894Y-101336106D02*
X162707101Y-100852899D01*
X161278210Y-101336106D02*
X162223894Y-101336106D01*
X162707101Y-100852899D02*
X163050000Y-100510000D01*
X161190316Y-101424000D02*
X161278210Y-101336106D01*
X134575189Y-103474811D02*
X135610430Y-103474811D01*
X134210000Y-103840000D02*
X134575189Y-103474811D01*
X136348091Y-105415621D02*
X136534025Y-105601555D01*
X136348091Y-104212472D02*
X136348091Y-105415621D01*
X135610430Y-103474811D02*
X136348091Y-104212472D01*
X133600000Y-103840000D02*
X134210000Y-103840000D01*
X165429242Y-109890219D02*
X165239244Y-109700221D01*
X147250321Y-121140003D02*
X147913816Y-121803498D01*
X142467347Y-121140003D02*
X147250321Y-121140003D01*
X161742363Y-101640917D02*
X161559280Y-101824000D01*
X149049322Y-121803498D02*
X149067223Y-121821399D01*
X141074322Y-119746978D02*
X142467347Y-121140003D01*
X160228333Y-121885934D02*
X165429242Y-116685025D01*
X140604578Y-119746978D02*
X141074322Y-119746978D01*
X149067223Y-121821399D02*
X157282376Y-121821399D01*
X139500000Y-117740000D02*
X139500000Y-118642400D01*
X139500000Y-118642400D02*
X140604578Y-119746978D01*
X157282376Y-121821399D02*
X157346911Y-121885934D01*
X165429242Y-116685025D02*
X165429242Y-109890219D01*
X165239244Y-109700221D02*
X165239244Y-101749244D01*
X165239244Y-101749244D02*
X165130917Y-101640917D01*
X161559280Y-101824000D02*
X161190316Y-101824000D01*
X147913816Y-121803498D02*
X149049322Y-121803498D01*
X165130917Y-101640917D02*
X161742363Y-101640917D01*
X157346911Y-121885934D02*
X160228333Y-121885934D01*
X161590347Y-102224000D02*
X161190316Y-102224000D01*
X165124431Y-110016475D02*
X164844433Y-109736477D01*
X157473167Y-121581123D02*
X160102077Y-121581123D01*
X157408632Y-121516588D02*
X157473167Y-121581123D01*
X161868619Y-101945728D02*
X161590347Y-102224000D01*
X165124431Y-116558769D02*
X165124431Y-110016475D01*
X140799767Y-119442167D02*
X141230578Y-119442167D01*
X147376577Y-120835192D02*
X148040072Y-121498687D01*
X149193479Y-121516588D02*
X157408632Y-121516588D01*
X140000000Y-117740000D02*
X140000000Y-118642400D01*
X140000000Y-118642400D02*
X140799767Y-119442167D01*
X141230578Y-119442167D02*
X142623603Y-120835192D01*
X148040072Y-121498687D02*
X149175578Y-121498687D01*
X160102077Y-121581123D02*
X165124431Y-116558769D01*
X164844433Y-109736477D02*
X164844433Y-102461745D01*
X142623603Y-120835192D02*
X147376577Y-120835192D01*
X164844433Y-102461745D02*
X164328416Y-101945728D01*
X164328416Y-101945728D02*
X161868619Y-101945728D01*
X149175578Y-121498687D02*
X149193479Y-121516588D01*
X159975821Y-121276312D02*
X164819620Y-116432513D01*
X140994956Y-119137356D02*
X141356834Y-119137356D01*
X164819620Y-110142731D02*
X164539622Y-109862733D01*
X147502833Y-120530381D02*
X148166328Y-121193876D01*
X161994875Y-102250539D02*
X161621414Y-102624000D01*
X148166328Y-121193876D02*
X149301834Y-121193876D01*
X149301834Y-121193876D02*
X149319735Y-121211777D01*
X161621414Y-102624000D02*
X161190316Y-102624000D01*
X157599423Y-121276312D02*
X159975821Y-121276312D01*
X164819620Y-116432513D02*
X164819620Y-110142731D01*
X140500000Y-118642400D02*
X140994956Y-119137356D01*
X163300539Y-102250539D02*
X161994875Y-102250539D01*
X164539622Y-109862733D02*
X164539622Y-103489622D01*
X141356834Y-119137356D02*
X142749859Y-120530381D01*
X149319735Y-121211777D02*
X157534888Y-121211777D01*
X140500000Y-117740000D02*
X140500000Y-118642400D01*
X142749859Y-120530381D02*
X147502833Y-120530381D01*
X164539622Y-103489622D02*
X163300539Y-102250539D01*
X157534888Y-121211777D02*
X157599423Y-121276312D01*
X141000000Y-117740000D02*
X141000000Y-118642400D01*
X157661144Y-120906966D02*
X157725679Y-120971501D01*
X147629089Y-120225570D02*
X148292584Y-120889065D01*
X157725679Y-120971501D02*
X159849565Y-120971501D01*
X141483090Y-118832545D02*
X142876115Y-120225570D01*
X148292584Y-120889065D02*
X149428090Y-120889065D01*
X164514809Y-116306257D02*
X164514809Y-110268987D01*
X141000000Y-118642400D02*
X141190145Y-118832545D01*
X149428090Y-120889065D02*
X149445991Y-120906966D01*
X141190145Y-118832545D02*
X141483090Y-118832545D01*
X149445991Y-120906966D02*
X157661144Y-120906966D01*
X164514809Y-110268987D02*
X164234811Y-109988989D01*
X164234811Y-109988989D02*
X164234811Y-103615878D01*
X142876115Y-120225570D02*
X147629089Y-120225570D01*
X164234811Y-103615878D02*
X163174283Y-102555350D01*
X159849565Y-120971501D02*
X164514809Y-116306257D01*
X161652481Y-103024000D02*
X161190316Y-103024000D01*
X162121131Y-102555350D02*
X161652481Y-103024000D01*
X163174283Y-102555350D02*
X162121131Y-102555350D01*
X139068308Y-105959389D02*
X145256020Y-112147101D01*
X139068308Y-102910708D02*
X139068308Y-105959389D01*
X139000000Y-102842400D02*
X139068308Y-102910708D01*
X145256020Y-112147101D02*
X145598919Y-112490000D01*
X139000000Y-101940000D02*
X139000000Y-102842400D01*
X161045015Y-115800200D02*
X161045015Y-116945501D01*
X145883547Y-111870000D02*
X146368480Y-111870000D01*
X139500000Y-101940000D02*
X139500000Y-105714924D01*
X139500000Y-105714924D02*
X145655076Y-111870000D01*
X145655076Y-111870000D02*
X145883547Y-111870000D01*
X161768601Y-116292108D02*
X161688037Y-116372672D01*
X161768601Y-115517119D02*
X161768601Y-116292108D01*
X161190316Y-115376401D02*
X161627883Y-115376401D01*
X161627883Y-115376401D02*
X161768601Y-115517119D01*
X161190316Y-114976401D02*
X161952207Y-114976401D01*
X162441052Y-115465246D02*
X162441052Y-116427882D01*
X150958603Y-119076538D02*
X150615704Y-119419437D01*
X151170316Y-118864825D02*
X150958603Y-119076538D01*
X161952207Y-114976401D02*
X162441052Y-115465246D01*
X162441052Y-116427882D02*
X160888552Y-117980380D01*
X160888552Y-117980380D02*
X158337094Y-117980380D01*
X158337094Y-117980380D02*
X157452649Y-118864825D01*
X157452649Y-118864825D02*
X151170316Y-118864825D01*
X139063432Y-119850115D02*
X139548365Y-119850115D01*
X136000000Y-118642400D02*
X137207715Y-119850115D01*
X137207715Y-119850115D02*
X139063432Y-119850115D01*
X136000000Y-117740000D02*
X136000000Y-118642400D01*
X161190316Y-114576401D02*
X162281468Y-114576401D01*
X162575067Y-114870000D02*
X163060000Y-114870000D01*
X163060000Y-116240000D02*
X161014809Y-118285191D01*
X162281468Y-114576401D02*
X162575067Y-114870000D01*
X161014809Y-118285191D02*
X158463350Y-118285191D01*
X151547097Y-119315189D02*
X150604709Y-120257577D01*
X157433352Y-119315189D02*
X151547097Y-119315189D01*
X163060000Y-114870000D02*
X163060000Y-116240000D01*
X158463350Y-118285191D02*
X157433352Y-119315189D01*
X135500000Y-118642400D02*
X137728979Y-120871379D01*
X135500000Y-117740000D02*
X135500000Y-118642400D01*
X140487101Y-120661379D02*
X140830000Y-120318480D01*
X137728979Y-120871379D02*
X140277101Y-120871379D01*
X140277101Y-120871379D02*
X140487101Y-120661379D01*
X152930643Y-108631501D02*
X153236728Y-108325416D01*
X151247413Y-108631501D02*
X152930643Y-108631501D01*
X149400000Y-108340000D02*
X150955912Y-108340000D01*
X150955912Y-108340000D02*
X151247413Y-108631501D01*
X162841636Y-114121626D02*
X163326569Y-114121626D01*
X161190316Y-114176401D02*
X162786861Y-114176401D01*
X162786861Y-114176401D02*
X162841636Y-114121626D01*
X154910000Y-110265067D02*
X154910000Y-110750000D01*
X154750378Y-110105445D02*
X154910000Y-110265067D01*
X154750378Y-109692512D02*
X154750378Y-110105445D01*
X150398712Y-108936312D02*
X153994178Y-108936312D01*
X150302400Y-108840000D02*
X150398712Y-108936312D01*
X149400000Y-108840000D02*
X150302400Y-108840000D01*
X153994178Y-108936312D02*
X154750378Y-109692512D01*
X162784407Y-113776401D02*
X162932959Y-113627849D01*
X161190316Y-113776401D02*
X162784407Y-113776401D01*
X162932959Y-113627849D02*
X163275858Y-113284950D01*
X149400000Y-109340000D02*
X153545311Y-109340000D01*
X153545311Y-109340000D02*
X153778311Y-109573000D01*
X153778311Y-109573000D02*
X154121210Y-109915899D01*
X162075203Y-113376401D02*
X162587441Y-112864163D01*
X162587441Y-112864163D02*
X162930340Y-112521264D01*
X161190316Y-113376401D02*
X162075203Y-113376401D01*
X158484933Y-120400000D02*
X158000000Y-120400000D01*
X159990000Y-120400000D02*
X158484933Y-120400000D01*
X164170000Y-112030000D02*
X164170000Y-116220000D01*
X161642425Y-112976401D02*
X162669082Y-111949744D01*
X162669082Y-111949744D02*
X164089744Y-111949744D01*
X164170000Y-116220000D02*
X159990000Y-120400000D01*
X164089744Y-111949744D02*
X164170000Y-112030000D01*
X161190316Y-112976401D02*
X161642425Y-112976401D01*
X149400000Y-115340000D02*
X150970000Y-115340000D01*
X150970000Y-115340000D02*
X151170000Y-115540000D01*
X156567071Y-113032911D02*
X155980264Y-113619718D01*
X158024342Y-112262375D02*
X157425807Y-112262375D01*
X157425807Y-112262375D02*
X156655271Y-113032911D01*
X155980264Y-113619718D02*
X155644019Y-113619718D01*
X158110316Y-112176401D02*
X158024342Y-112262375D01*
X156655271Y-113032911D02*
X156567071Y-113032911D01*
X150952400Y-114190000D02*
X151960000Y-114190000D01*
X151960000Y-114190000D02*
X153500000Y-112650000D01*
X149400000Y-114840000D02*
X150302400Y-114840000D01*
X150302400Y-114840000D02*
X150952400Y-114190000D01*
X155869871Y-114234116D02*
X155193894Y-114234116D01*
X158110316Y-112576401D02*
X157542848Y-112576401D01*
X156781527Y-113337722D02*
X156766265Y-113337722D01*
X155193894Y-114234116D02*
X154850995Y-113891217D01*
X156766265Y-113337722D02*
X155869871Y-114234116D01*
X157542848Y-112576401D02*
X156781527Y-113337722D01*
X152197975Y-113063773D02*
X152540874Y-112720874D01*
X150371333Y-114340000D02*
X150826144Y-113885189D01*
X149400000Y-114340000D02*
X150371333Y-114340000D01*
X150826144Y-113885189D02*
X151376559Y-113885189D01*
X151376559Y-113885189D02*
X152197975Y-113063773D01*
X158110316Y-112976401D02*
X157573915Y-112976401D01*
X156907783Y-113642533D02*
X156892521Y-113642533D01*
X157573915Y-112976401D02*
X156907783Y-113642533D01*
X155806900Y-114728154D02*
X155382126Y-114728154D01*
X155382126Y-114728154D02*
X154897193Y-114728154D01*
X156892521Y-113642533D02*
X155806900Y-114728154D01*
X150405896Y-110840000D02*
X150824745Y-111258849D01*
X150824745Y-111258849D02*
X151167644Y-111601748D01*
X149400000Y-110840000D02*
X150405896Y-110840000D01*
X150895678Y-110843022D02*
X152618846Y-110843022D01*
X157018777Y-113947344D02*
X157034039Y-113947344D01*
X152618846Y-110843022D02*
X154242312Y-112466488D01*
X157604982Y-113376401D02*
X158110316Y-113376401D01*
X155316963Y-115116635D02*
X155849486Y-115116635D01*
X154986122Y-115447477D02*
X155316963Y-115116635D01*
X154242312Y-115061381D02*
X154628408Y-115447477D01*
X154242312Y-112466488D02*
X154242312Y-115061381D01*
X150392656Y-110340000D02*
X150895678Y-110843022D01*
X149400000Y-110340000D02*
X150392656Y-110340000D01*
X154628408Y-115447477D02*
X154986122Y-115447477D01*
X155849486Y-115116635D02*
X157018777Y-113947344D01*
X157034039Y-113947344D02*
X157604982Y-113376401D01*
X144581149Y-114745226D02*
X144107498Y-115218877D01*
X157124698Y-114272489D02*
X155188586Y-116208601D01*
X141500000Y-116837600D02*
X141500000Y-117740000D01*
X148310735Y-116208601D02*
X146847360Y-114745226D01*
X143470915Y-115770378D02*
X142567222Y-115770378D01*
X158110316Y-113776401D02*
X157636049Y-113776401D01*
X157636049Y-113776401D02*
X157139961Y-114272489D01*
X155188586Y-116208601D02*
X148310735Y-116208601D01*
X146847360Y-114745226D02*
X144581149Y-114745226D01*
X144022416Y-115218877D02*
X143470915Y-115770378D01*
X157139961Y-114272489D02*
X157124698Y-114272489D01*
X142567222Y-115770378D02*
X141500000Y-116837600D01*
X144107498Y-115218877D02*
X144022416Y-115218877D01*
X144148461Y-115523899D02*
X143597171Y-116075189D01*
X142000000Y-116837600D02*
X142000000Y-117740000D01*
X157250954Y-114577300D02*
X155314842Y-116513412D01*
X142762411Y-116075189D02*
X142000000Y-116837600D01*
X157266217Y-114577300D02*
X157250954Y-114577300D01*
X158110316Y-114176401D02*
X157667116Y-114176401D01*
X157667116Y-114176401D02*
X157266217Y-114577300D01*
X155314842Y-116513412D02*
X148184479Y-116513412D01*
X148184479Y-116513412D02*
X146721104Y-115050037D01*
X144707406Y-115050037D02*
X144233543Y-115523899D01*
X146721104Y-115050037D02*
X144707406Y-115050037D01*
X143597171Y-116075189D02*
X142762411Y-116075189D01*
X144233543Y-115523899D02*
X144148461Y-115523899D01*
X155441098Y-116818223D02*
X148058223Y-116818223D01*
X144216701Y-115930015D02*
X143919521Y-116227195D01*
X146594848Y-115354848D02*
X144859328Y-115354848D01*
X143919521Y-116227195D02*
X143919521Y-116757121D01*
X148058223Y-116818223D02*
X146594848Y-115354848D01*
X158110316Y-114576401D02*
X157698183Y-114576401D01*
X157698183Y-114576401D02*
X157392473Y-114882111D01*
X144000000Y-116837600D02*
X144000000Y-117740000D01*
X157392473Y-114882111D02*
X157377210Y-114882111D01*
X157377210Y-114882111D02*
X155441098Y-116818223D01*
X144859328Y-115354848D02*
X144284161Y-115930015D01*
X143919521Y-116757121D02*
X144000000Y-116837600D01*
X144284161Y-115930015D02*
X144216701Y-115930015D01*
X158110316Y-114976401D02*
X157729250Y-114976401D01*
X155300646Y-117389743D02*
X150005970Y-117389743D01*
X157729250Y-114976401D02*
X157518729Y-115186922D01*
X150005970Y-117389743D02*
X149521037Y-117389743D01*
X157503467Y-115186922D02*
X155300646Y-117389743D01*
X157518729Y-115186922D02*
X157503467Y-115186922D01*
X144582540Y-116410000D02*
X144491023Y-116501517D01*
X144630000Y-116410000D02*
X144582540Y-116410000D01*
X144500000Y-116510494D02*
X144491023Y-116501517D01*
X144500000Y-117740000D02*
X144500000Y-116510494D01*
X158110316Y-115376401D02*
X158015318Y-115471399D01*
X155412957Y-117708498D02*
X151140701Y-117708498D01*
X157650056Y-115471399D02*
X155412957Y-117708498D01*
X150921402Y-117927797D02*
X150578503Y-118270696D01*
X158015318Y-115471399D02*
X157650056Y-115471399D01*
X151140701Y-117708498D02*
X150921402Y-117927797D01*
X137500000Y-116060960D02*
X137761390Y-115799570D01*
X137500000Y-117740000D02*
X137500000Y-116060960D01*
X152124933Y-118280000D02*
X151640000Y-118280000D01*
X155775817Y-118280000D02*
X152124933Y-118280000D01*
X158255617Y-115800200D02*
X155775817Y-118280000D01*
X138540000Y-116110000D02*
X138000000Y-116650000D01*
X138000000Y-116650000D02*
X138000000Y-117740000D01*
X156130870Y-113038045D02*
X155358458Y-113038045D01*
X157729249Y-111776401D02*
X157548087Y-111957564D01*
X158110316Y-111776401D02*
X157729249Y-111776401D01*
X156529015Y-112728100D02*
X156440815Y-112728100D01*
X157548087Y-111957564D02*
X157299551Y-111957564D01*
X157299551Y-111957564D02*
X156529015Y-112728100D01*
X155358458Y-113038045D02*
X155068609Y-112748196D01*
X156440815Y-112728100D02*
X156130870Y-113038045D01*
X151204176Y-112340000D02*
X151419236Y-112124940D01*
X151419236Y-112124940D02*
X151676743Y-112124940D01*
X151905390Y-111896293D02*
X152390323Y-111896293D01*
X149400000Y-112340000D02*
X151204176Y-112340000D01*
X151676743Y-112124940D02*
X151905390Y-111896293D01*
X156330947Y-112423289D02*
X156327615Y-112426621D01*
X157173295Y-111652753D02*
X156402759Y-112423289D01*
X156327615Y-112426621D02*
X155842682Y-112426621D01*
X157421831Y-111652753D02*
X157173295Y-111652753D01*
X158110316Y-111376401D02*
X157698183Y-111376401D01*
X157698183Y-111376401D02*
X157421831Y-111652753D01*
X156402759Y-112423289D02*
X156330947Y-112423289D01*
X149400000Y-113840000D02*
X150440266Y-113840000D01*
X151177367Y-113102899D02*
X151277101Y-113102899D01*
X151277101Y-113102899D02*
X151620000Y-112760000D01*
X150440266Y-113840000D02*
X151177367Y-113102899D01*
X136500000Y-117740000D02*
X136500000Y-116446646D01*
X136694115Y-116252531D02*
X136694115Y-115589956D01*
X147511506Y-111059706D02*
X147511506Y-110574773D01*
X136500000Y-116446646D02*
X136694115Y-116252531D01*
X145894176Y-113800000D02*
X146005678Y-113911502D01*
X138484071Y-113800000D02*
X145894176Y-113800000D01*
X146554322Y-113911502D02*
X147511506Y-112954318D01*
X147511506Y-112954318D02*
X147511506Y-111059706D01*
X136694115Y-115589956D02*
X138484071Y-113800000D01*
X146005678Y-113911502D02*
X146554322Y-113911502D01*
X153366131Y-110483022D02*
X154738228Y-111855119D01*
X157047039Y-111347942D02*
X157295574Y-111347942D01*
X154738228Y-111855119D02*
X156539862Y-111855119D01*
X157295574Y-111347942D02*
X157667115Y-110976401D01*
X151866435Y-110483022D02*
X153366131Y-110483022D01*
X157667115Y-110976401D02*
X158110316Y-110976401D01*
X156539862Y-111855119D02*
X157047039Y-111347942D01*
X151654933Y-110271520D02*
X151866435Y-110483022D01*
X151170000Y-110271520D02*
X151654933Y-110271520D01*
X143981242Y-114914066D02*
X144454893Y-114440415D01*
X138035711Y-115228069D02*
X138267642Y-115460000D01*
X147748198Y-109774163D02*
X147263265Y-109774163D01*
X138267642Y-115460000D02*
X143350227Y-115460000D01*
X137000000Y-115715138D02*
X137487069Y-115228069D01*
X148083022Y-110108987D02*
X147748198Y-109774163D01*
X137000000Y-117740000D02*
X137000000Y-115715138D01*
X146456476Y-114440415D02*
X148083022Y-112813869D01*
X143350227Y-115460000D02*
X143896160Y-114914066D01*
X143896160Y-114914066D02*
X143981242Y-114914066D01*
X137487069Y-115228069D02*
X138035711Y-115228069D01*
X144454893Y-114440415D02*
X146456476Y-114440415D01*
X148083022Y-112813869D02*
X148083022Y-110108987D01*
X155184322Y-111321502D02*
X154635678Y-111321502D01*
X157169318Y-111043131D02*
X155462693Y-111043131D01*
X152674933Y-109911520D02*
X152190000Y-109911520D01*
X154635678Y-111321502D02*
X153225696Y-109911520D01*
X157636048Y-110576401D02*
X157169318Y-111043131D01*
X158110316Y-110576401D02*
X157636048Y-110576401D01*
X153225696Y-109911520D02*
X152674933Y-109911520D01*
X155462693Y-111043131D02*
X155184322Y-111321502D01*
X155055189Y-109786256D02*
X155055189Y-109316256D01*
X155861034Y-110592101D02*
X155055189Y-109786256D01*
X157189281Y-110592101D02*
X155861034Y-110592101D01*
X153417554Y-107678621D02*
X152685887Y-107678621D01*
X157604981Y-110176401D02*
X157189281Y-110592101D01*
X155055189Y-109316256D02*
X153417554Y-107678621D01*
X158110316Y-110176401D02*
X157604981Y-110176401D01*
X152685887Y-107678621D02*
X152342988Y-108021520D01*
X140045924Y-108840000D02*
X141917181Y-110711257D01*
X133600000Y-108840000D02*
X140045924Y-108840000D01*
X141917181Y-110711257D02*
X142278074Y-110711257D01*
X142278074Y-110711257D02*
X142763007Y-110711257D01*
X158110000Y-101400000D02*
X158612400Y-101400000D01*
X158612400Y-101400000D02*
X159350000Y-102137600D01*
X159350000Y-102137600D02*
X159350000Y-109920000D01*
X159350000Y-109920000D02*
X159070000Y-110200000D01*
X159070000Y-110200000D02*
X158110000Y-110200000D01*
X157134321Y-109971501D02*
X156171501Y-109971501D01*
X158110316Y-109776401D02*
X157329421Y-109776401D01*
X152311444Y-107240000D02*
X151848043Y-107703401D01*
X153440000Y-107240000D02*
X152311444Y-107240000D01*
X157329421Y-109776401D02*
X157134321Y-109971501D01*
X151848043Y-107703401D02*
X151505144Y-108046300D01*
X156171501Y-109971501D02*
X153440000Y-107240000D01*
X140252044Y-108340000D02*
X141687698Y-109775654D01*
X141687698Y-109775654D02*
X141827402Y-109775654D01*
X141827402Y-109775654D02*
X142170301Y-110118553D01*
X133600000Y-108340000D02*
X140252044Y-108340000D01*
X151111369Y-107165894D02*
X151161973Y-107165894D01*
X149400000Y-107340000D02*
X150937263Y-107340000D01*
X147450144Y-107678621D02*
X147107245Y-108021520D01*
X147788765Y-107340000D02*
X147450144Y-107678621D01*
X156833980Y-104224000D02*
X158110316Y-104224000D01*
X150937263Y-107340000D02*
X151111369Y-107165894D01*
X154269432Y-104723679D02*
X156334301Y-104723679D01*
X152412731Y-106580380D02*
X154269432Y-104723679D01*
X156334301Y-104723679D02*
X156833980Y-104224000D01*
X151747487Y-106580380D02*
X152412731Y-106580380D01*
X151161973Y-107165894D02*
X151747487Y-106580380D01*
X149400000Y-107340000D02*
X147788765Y-107340000D01*
X154382752Y-105041426D02*
X156450931Y-105041426D01*
X150868330Y-107840000D02*
X151237625Y-107470705D01*
X152538987Y-106885191D02*
X154382752Y-105041426D01*
X151237625Y-107470705D02*
X151338229Y-107470705D01*
X149400000Y-107840000D02*
X148497600Y-107840000D01*
X151923743Y-106885191D02*
X152538987Y-106885191D01*
X156450931Y-105041426D02*
X156868357Y-104624000D01*
X149400000Y-107840000D02*
X150868330Y-107840000D01*
X151338229Y-107470705D02*
X151923743Y-106885191D01*
X156868357Y-104624000D02*
X158110316Y-104624000D01*
X148497600Y-107840000D02*
X148080658Y-108256942D01*
X148080658Y-108256942D02*
X148080658Y-108702180D01*
X149947116Y-101380003D02*
X149989990Y-101337129D01*
X156983345Y-103824000D02*
X158110316Y-103824000D01*
X149989990Y-101337129D02*
X151737128Y-101337129D01*
X148352397Y-101380003D02*
X149947116Y-101380003D01*
X147500000Y-101940000D02*
X147792400Y-101940000D01*
X147792400Y-101940000D02*
X148352397Y-101380003D01*
X152685936Y-102285937D02*
X155445282Y-102285937D01*
X151737128Y-101337129D02*
X152685936Y-102285937D01*
X155445282Y-102285937D02*
X156983345Y-103824000D01*
X158110316Y-103424000D02*
X157436017Y-103424000D01*
X155993143Y-101981126D02*
X152812192Y-101981126D01*
X148651923Y-100961399D02*
X147262809Y-100961399D01*
X149820860Y-101075192D02*
X148765716Y-101075192D01*
X151863384Y-101032318D02*
X149863734Y-101032318D01*
X157436017Y-103424000D02*
X155993143Y-101981126D01*
X152812192Y-101981126D02*
X151863384Y-101032318D01*
X147262809Y-100961399D02*
X147000000Y-101224208D01*
X149863734Y-101032318D02*
X149820860Y-101075192D01*
X147000000Y-101224208D02*
X147000000Y-101940000D01*
X148765716Y-101075192D02*
X148651923Y-100961399D01*
X147050864Y-100656588D02*
X148779657Y-100656588D01*
X148893450Y-100770381D02*
X149694604Y-100770381D01*
X149737478Y-100727507D02*
X151989640Y-100727507D01*
X149694604Y-100770381D02*
X149737478Y-100727507D01*
X157651911Y-103024000D02*
X158110316Y-103024000D01*
X146500000Y-101940000D02*
X146500000Y-101207451D01*
X148779657Y-100656588D02*
X148893450Y-100770381D01*
X156304226Y-101676315D02*
X157651911Y-103024000D01*
X152938448Y-101676315D02*
X156304226Y-101676315D01*
X146500000Y-101207451D02*
X147050864Y-100656588D01*
X151989640Y-100727507D02*
X152938448Y-101676315D01*
X157682977Y-102624000D02*
X158110316Y-102624000D01*
X152115896Y-100422696D02*
X153064704Y-101371504D01*
X153064704Y-101371504D02*
X156430482Y-101371504D01*
X146619797Y-100656588D02*
X146924607Y-100351777D01*
X146924607Y-100351777D02*
X148905913Y-100351777D01*
X148905913Y-100351777D02*
X149019706Y-100465570D01*
X149568348Y-100465570D02*
X149611222Y-100422696D01*
X146000000Y-101940000D02*
X146000000Y-101207451D01*
X149611222Y-100422696D02*
X152115896Y-100422696D01*
X146550863Y-100656588D02*
X146619797Y-100656588D01*
X146000000Y-101207451D02*
X146550863Y-100656588D01*
X156430482Y-101371504D02*
X157682977Y-102624000D01*
X149019706Y-100465570D02*
X149568348Y-100465570D01*
X146280000Y-113340000D02*
X146940000Y-112680000D01*
X146940000Y-110296722D02*
X146230932Y-109587654D01*
X148347101Y-102303457D02*
X148356136Y-102294422D01*
X148347101Y-102582899D02*
X148347101Y-102303457D01*
X148356136Y-102294422D02*
X148699035Y-101951523D01*
X146940000Y-112680000D02*
X146940000Y-110296722D01*
X146230932Y-109587654D02*
X146230932Y-104699068D01*
X146230932Y-104699068D02*
X148347101Y-102582899D01*
X153114321Y-100481501D02*
X152605768Y-100481501D01*
X149778960Y-99894069D02*
X149294027Y-99894069D01*
X152018336Y-99894069D02*
X149778960Y-99894069D01*
X152605768Y-100481501D02*
X152018336Y-99894069D01*
X157745111Y-101824000D02*
X155865433Y-99944322D01*
X154024322Y-100241502D02*
X153354320Y-100241502D01*
X158110316Y-101824000D02*
X157745111Y-101824000D01*
X155865433Y-99944322D02*
X154321502Y-99944322D01*
X154321502Y-99944322D02*
X154024322Y-100241502D01*
X153354320Y-100241502D02*
X153114321Y-100481501D01*
X146700000Y-116460000D02*
X146478518Y-116460000D01*
X146478518Y-116460000D02*
X146000000Y-116938518D01*
X146000000Y-116938518D02*
X146000000Y-117740000D01*
X148497600Y-115840000D02*
X148387833Y-115730233D01*
X146832923Y-108593022D02*
X146535743Y-108295842D01*
X146535743Y-104825323D02*
X148197971Y-103163095D01*
X148197971Y-103163095D02*
X148571746Y-103163095D01*
X148387833Y-109841908D02*
X147138947Y-108593022D01*
X146535743Y-108295842D02*
X146535743Y-104825323D01*
X149400000Y-115840000D02*
X148497600Y-115840000D01*
X148571746Y-103163095D02*
X148914645Y-102820196D01*
X147138947Y-108593022D02*
X146832923Y-108593022D01*
X148387833Y-115730233D02*
X148387833Y-109841908D01*
X158110316Y-102224000D02*
X157714044Y-102224000D01*
X155947147Y-100457103D02*
X154488521Y-100457103D01*
X157714044Y-102224000D02*
X155947147Y-100457103D01*
X154488521Y-100457103D02*
X154145622Y-100800002D01*
X153433057Y-99004811D02*
X153184149Y-99253719D01*
X156012411Y-99004811D02*
X153433057Y-99004811D01*
X153184149Y-99565832D02*
X152841250Y-99908731D01*
X153184149Y-99253719D02*
X153184149Y-99565832D01*
X158110000Y-100600000D02*
X157607600Y-100600000D01*
X157607600Y-100600000D02*
X156012411Y-99004811D01*
X151182895Y-105840000D02*
X152295313Y-104727582D01*
X152295313Y-104591591D02*
X152638212Y-104248692D01*
X152295313Y-104727582D02*
X152295313Y-104591591D01*
X149400000Y-105840000D02*
X151182895Y-105840000D01*
X155895643Y-99327101D02*
X154092899Y-99327101D01*
X154092899Y-99327101D02*
X153750000Y-99670000D01*
X157568542Y-101000000D02*
X155895643Y-99327101D01*
X158110000Y-101000000D02*
X157568542Y-101000000D01*
X151937307Y-105970758D02*
X153448296Y-104459769D01*
X151125732Y-106340000D02*
X151494974Y-105970758D01*
X151494974Y-105970758D02*
X151937307Y-105970758D01*
X153448296Y-104459769D02*
X153448296Y-103974836D01*
X149400000Y-106340000D02*
X151125732Y-106340000D01*
X149675000Y-124875000D02*
X150675000Y-124875000D01*
X150675000Y-124875000D02*
X150700000Y-124850000D01*
X152650000Y-124990000D02*
X150840000Y-124990000D01*
X150840000Y-124990000D02*
X150700000Y-124850000D01*
X150550000Y-125000000D02*
X150700000Y-124850000D01*
X144500000Y-103067774D02*
X144833531Y-103401305D01*
X144500000Y-101940000D02*
X144500000Y-103067774D01*
X152020000Y-98850000D02*
X152020000Y-97620000D01*
X152020000Y-97620000D02*
X152000000Y-97600000D01*
X150000000Y-97600000D02*
X150000000Y-97750000D01*
X148542965Y-99207035D02*
X148326987Y-99207035D01*
X150000000Y-97750000D02*
X148542965Y-99207035D01*
X144000000Y-103183256D02*
X143926091Y-103257165D01*
X144000000Y-101940000D02*
X144000000Y-103183256D01*
X147835152Y-98787850D02*
X147492253Y-99130749D01*
X148000000Y-97600000D02*
X148000000Y-98623002D01*
X148000000Y-98623002D02*
X147835152Y-98787850D01*
X143127991Y-103214409D02*
X143088970Y-103214409D01*
X143500000Y-101940000D02*
X143500000Y-102842400D01*
X143500000Y-102842400D02*
X143127991Y-103214409D01*
X133600000Y-105340000D02*
X134914306Y-105340000D01*
X134914306Y-105340000D02*
X134922354Y-105331952D01*
X139600000Y-92650000D02*
X139257101Y-92992899D01*
X139257101Y-92992899D02*
X139257101Y-94457101D01*
X139257101Y-94457101D02*
X139340000Y-94540000D01*
X135798685Y-104521798D02*
X135768844Y-104491957D01*
X135798685Y-106081315D02*
X135798685Y-104521798D01*
X133600000Y-106340000D02*
X135540000Y-106340000D01*
X135540000Y-106340000D02*
X135798685Y-106081315D01*
X138340000Y-92630000D02*
X138340000Y-93114933D01*
X138340000Y-93114933D02*
X138840000Y-93614933D01*
X138840000Y-93614933D02*
X138840000Y-93962600D01*
X138840000Y-93962600D02*
X138840000Y-94540000D01*
X132200000Y-110075000D02*
X132435000Y-109840000D01*
X132435000Y-109840000D02*
X133600000Y-109840000D01*
X133181379Y-96647101D02*
X132838480Y-96990000D01*
X135288480Y-94540000D02*
X133181379Y-96647101D01*
X137340000Y-94540000D02*
X135288480Y-94540000D01*
X132200000Y-111350000D02*
X132200000Y-110075000D01*
X135493874Y-105030436D02*
X135054631Y-104591193D01*
X133600000Y-105840000D02*
X134502400Y-105840000D01*
X135493874Y-105620708D02*
X135493874Y-105030436D01*
X135211110Y-105903472D02*
X135493874Y-105620708D01*
X134565872Y-105903472D02*
X135211110Y-105903472D01*
X135054631Y-104536312D02*
X135054631Y-104051379D01*
X135054631Y-104591193D02*
X135054631Y-104536312D01*
X134502400Y-105840000D02*
X134565872Y-105903472D01*
X139330000Y-99299698D02*
X139330000Y-98450000D01*
X139330000Y-98450000D02*
X139340000Y-98440000D01*
X138496807Y-103853413D02*
X138496807Y-103368480D01*
X138570817Y-103927423D02*
X138496807Y-103853413D01*
X137646712Y-106603499D02*
X138570817Y-105679394D01*
X138570817Y-105679394D02*
X138570817Y-103927423D01*
X137550679Y-106603499D02*
X137646712Y-106603499D01*
X137314178Y-106840000D02*
X137550679Y-106603499D01*
X133600000Y-106840000D02*
X137314178Y-106840000D01*
X139840000Y-98440000D02*
X139840000Y-98715000D01*
X139840000Y-98715000D02*
X140638227Y-99513227D01*
X140638227Y-99513227D02*
X140831276Y-99513227D01*
X144390000Y-98980000D02*
X144390000Y-98030000D01*
X144080000Y-99290000D02*
X144390000Y-98980000D01*
X142276889Y-99290000D02*
X144080000Y-99290000D01*
X142000000Y-101134265D02*
X141636313Y-100770578D01*
X141636313Y-100770578D02*
X141636313Y-99930576D01*
X141636313Y-99930576D02*
X142276889Y-99290000D01*
X142000000Y-101485824D02*
X142000000Y-101134265D01*
X141990000Y-99145822D02*
X141990000Y-98030000D01*
X141331502Y-99804320D02*
X141990000Y-99145822D01*
X141331502Y-100970020D02*
X141331502Y-99804320D01*
X141500000Y-101138518D02*
X141331502Y-100970020D01*
X141500000Y-101416891D02*
X141500000Y-101138518D01*
X141900848Y-105931709D02*
X142243747Y-106274608D01*
X140366870Y-103093722D02*
X140366870Y-104397731D01*
X140500000Y-102960592D02*
X140366870Y-103093722D01*
X140500000Y-101940000D02*
X140500000Y-102960592D01*
X140366870Y-104397731D02*
X141900848Y-105931709D01*
X161685789Y-103424000D02*
X161982938Y-103126851D01*
X161190316Y-103424000D02*
X161685789Y-103424000D01*
X161982938Y-103126851D02*
X162395452Y-103126851D01*
X140000000Y-101940000D02*
X140000000Y-105155041D01*
X141150729Y-106305770D02*
X141493628Y-106648669D01*
X140000000Y-105155041D02*
X141150729Y-106305770D01*
X161190316Y-103824000D02*
X162086352Y-103824000D01*
X162211981Y-103698371D02*
X162636696Y-103698371D01*
X162636696Y-103698371D02*
X162675067Y-103660000D01*
X162675067Y-103660000D02*
X163160000Y-103660000D01*
X162086352Y-103824000D02*
X162211981Y-103698371D01*
X151574178Y-99250000D02*
X151745679Y-99421501D01*
X146798351Y-100046966D02*
X148332878Y-100046966D01*
X155770000Y-98110000D02*
X157860000Y-100200000D01*
X145500000Y-101940000D02*
X145500000Y-101037600D01*
X153605822Y-98110000D02*
X155770000Y-98110000D01*
X149129844Y-99250000D02*
X151574178Y-99250000D01*
X152294321Y-99421501D02*
X153605822Y-98110000D01*
X151745679Y-99421501D02*
X152294321Y-99421501D01*
X146424607Y-100351777D02*
X146493540Y-100351777D01*
X145500000Y-101037600D02*
X146018262Y-100519338D01*
X146257046Y-100519338D02*
X146424607Y-100351777D01*
X157860000Y-100200000D02*
X158110000Y-100200000D01*
X146018262Y-100519338D02*
X146257046Y-100519338D01*
X148332878Y-100046966D02*
X149129844Y-99250000D01*
X146493540Y-100351777D02*
X146798351Y-100046966D01*
X155113599Y-123175000D02*
X155050388Y-123111789D01*
X156175000Y-123175000D02*
X155113599Y-123175000D01*
X137825000Y-107175000D02*
X137340067Y-107175000D01*
X137340067Y-107175000D02*
X137175067Y-107340000D01*
X137175067Y-107340000D02*
X134502400Y-107340000D01*
X134502400Y-107340000D02*
X133600000Y-107340000D01*
X145410923Y-116240699D02*
X145410923Y-116596556D01*
X145131399Y-117608601D02*
X145000000Y-117740000D01*
X145144222Y-115973998D02*
X145410923Y-116240699D01*
X145410923Y-116596556D02*
X145131399Y-116876080D01*
X145131399Y-116876080D02*
X145131399Y-117608601D01*
X141605900Y-103875000D02*
X144722601Y-106991701D01*
X144722601Y-109558299D02*
X144455900Y-109825000D01*
X144722601Y-106991701D02*
X144722601Y-109558299D01*
X145982422Y-115973998D02*
X145715721Y-116240699D01*
X145715721Y-116240699D02*
X145715721Y-116722797D01*
X145715721Y-116722797D02*
X145631399Y-116807119D01*
X145631399Y-116807119D02*
X145631399Y-117539653D01*
X145631399Y-117539653D02*
X145500000Y-117671052D01*
X145500000Y-117671052D02*
X145500000Y-117740000D01*
X142444100Y-104282148D02*
X145027399Y-106865447D01*
X145027399Y-109558299D02*
X145294100Y-109825000D01*
X142444100Y-103875000D02*
X142444100Y-104282148D01*
X145027399Y-106865447D02*
X145027399Y-109558299D01*
X133600000Y-109340000D02*
X132230000Y-109340000D01*
X132230000Y-109340000D02*
X131130000Y-108240000D01*
X131130000Y-108240000D02*
X131130000Y-108090000D01*
M02*
