G04 #@! TF.FileFunction,Legend,Bot*
%FSLAX46Y46*%
G04 Gerber Fmt 4.6, Leading zero omitted, Abs format (unit mm)*
G04 Created by KiCad (PCBNEW 4.0.1-stable) date Tuesday, March 08, 2016 'AMt' 12:04:57 AM*
%MOMM*%
G01*
G04 APERTURE LIST*
%ADD10C,0.100000*%
%ADD11C,0.150000*%
%ADD12C,0.180000*%
%ADD13C,0.300000*%
%ADD14C,0.200000*%
G04 APERTURE END LIST*
D10*
D11*
X162821904Y-97040000D02*
X162917142Y-96992381D01*
X163059999Y-96992381D01*
X163202857Y-97040000D01*
X163298095Y-97135238D01*
X163345714Y-97230476D01*
X163393333Y-97420952D01*
X163393333Y-97563810D01*
X163345714Y-97754286D01*
X163298095Y-97849524D01*
X163202857Y-97944762D01*
X163059999Y-97992381D01*
X162964761Y-97992381D01*
X162821904Y-97944762D01*
X162774285Y-97897143D01*
X162774285Y-97563810D01*
X162964761Y-97563810D01*
X162345714Y-97992381D02*
X162345714Y-96992381D01*
X161774285Y-97992381D01*
X161774285Y-96992381D01*
X161298095Y-97992381D02*
X161298095Y-96992381D01*
X161060000Y-96992381D01*
X160917142Y-97040000D01*
X160821904Y-97135238D01*
X160774285Y-97230476D01*
X160726666Y-97420952D01*
X160726666Y-97563810D01*
X160774285Y-97754286D01*
X160821904Y-97849524D01*
X160917142Y-97944762D01*
X161060000Y-97992381D01*
X161298095Y-97992381D01*
D12*
X153090476Y-96585238D02*
X152933333Y-96637619D01*
X152671429Y-96637619D01*
X152566667Y-96585238D01*
X152514286Y-96532857D01*
X152461905Y-96428095D01*
X152461905Y-96323333D01*
X152514286Y-96218571D01*
X152566667Y-96166190D01*
X152671429Y-96113810D01*
X152880952Y-96061429D01*
X152985714Y-96009048D01*
X153038095Y-95956667D01*
X153090476Y-95851905D01*
X153090476Y-95747143D01*
X153038095Y-95642381D01*
X152985714Y-95590000D01*
X152880952Y-95537619D01*
X152619048Y-95537619D01*
X152461905Y-95590000D01*
X151990476Y-96637619D02*
X151990476Y-95537619D01*
X151519048Y-96637619D02*
X151519048Y-96061429D01*
X151571429Y-95956667D01*
X151676191Y-95904286D01*
X151833333Y-95904286D01*
X151938095Y-95956667D01*
X151990476Y-96009048D01*
X150838095Y-96637619D02*
X150942857Y-96585238D01*
X150995238Y-96532857D01*
X151047619Y-96428095D01*
X151047619Y-96113810D01*
X150995238Y-96009048D01*
X150942857Y-95956667D01*
X150838095Y-95904286D01*
X150680953Y-95904286D01*
X150576191Y-95956667D01*
X150523810Y-96009048D01*
X150471429Y-96113810D01*
X150471429Y-96428095D01*
X150523810Y-96532857D01*
X150576191Y-96585238D01*
X150680953Y-96637619D01*
X150838095Y-96637619D01*
X150000000Y-96637619D02*
X150000000Y-95904286D01*
X150000000Y-96113810D02*
X149947619Y-96009048D01*
X149895238Y-95956667D01*
X149790476Y-95904286D01*
X149685715Y-95904286D01*
X149476191Y-95904286D02*
X149057143Y-95904286D01*
X149319048Y-95537619D02*
X149319048Y-96480476D01*
X149266667Y-96585238D01*
X149161905Y-96637619D01*
X149057143Y-96637619D01*
X147223811Y-96637619D02*
X147590477Y-96113810D01*
X147852382Y-96637619D02*
X147852382Y-95537619D01*
X147433335Y-95537619D01*
X147328573Y-95590000D01*
X147276192Y-95642381D01*
X147223811Y-95747143D01*
X147223811Y-95904286D01*
X147276192Y-96009048D01*
X147328573Y-96061429D01*
X147433335Y-96113810D01*
X147852382Y-96113810D01*
X146333335Y-96585238D02*
X146438097Y-96637619D01*
X146647620Y-96637619D01*
X146752382Y-96585238D01*
X146804763Y-96480476D01*
X146804763Y-96061429D01*
X146752382Y-95956667D01*
X146647620Y-95904286D01*
X146438097Y-95904286D01*
X146333335Y-95956667D01*
X146280954Y-96061429D01*
X146280954Y-96166190D01*
X146804763Y-96270952D01*
X145861906Y-96585238D02*
X145757144Y-96637619D01*
X145547620Y-96637619D01*
X145442859Y-96585238D01*
X145390478Y-96480476D01*
X145390478Y-96428095D01*
X145442859Y-96323333D01*
X145547620Y-96270952D01*
X145704763Y-96270952D01*
X145809525Y-96218571D01*
X145861906Y-96113810D01*
X145861906Y-96061429D01*
X145809525Y-95956667D01*
X145704763Y-95904286D01*
X145547620Y-95904286D01*
X145442859Y-95956667D01*
X144500002Y-96585238D02*
X144604764Y-96637619D01*
X144814287Y-96637619D01*
X144919049Y-96585238D01*
X144971430Y-96480476D01*
X144971430Y-96061429D01*
X144919049Y-95956667D01*
X144814287Y-95904286D01*
X144604764Y-95904286D01*
X144500002Y-95956667D01*
X144447621Y-96061429D01*
X144447621Y-96166190D01*
X144971430Y-96270952D01*
X144133335Y-95904286D02*
X143714287Y-95904286D01*
X143976192Y-95537619D02*
X143976192Y-96480476D01*
X143923811Y-96585238D01*
X143819049Y-96637619D01*
X143714287Y-96637619D01*
X152514286Y-98357619D02*
X153038095Y-98357619D01*
X153038095Y-97257619D01*
X151990476Y-98357619D02*
X152095238Y-98305238D01*
X152147619Y-98252857D01*
X152200000Y-98148095D01*
X152200000Y-97833810D01*
X152147619Y-97729048D01*
X152095238Y-97676667D01*
X151990476Y-97624286D01*
X151833334Y-97624286D01*
X151728572Y-97676667D01*
X151676191Y-97729048D01*
X151623810Y-97833810D01*
X151623810Y-98148095D01*
X151676191Y-98252857D01*
X151728572Y-98305238D01*
X151833334Y-98357619D01*
X151990476Y-98357619D01*
X151152381Y-97624286D02*
X151152381Y-98357619D01*
X151152381Y-97729048D02*
X151100000Y-97676667D01*
X150995238Y-97624286D01*
X150838096Y-97624286D01*
X150733334Y-97676667D01*
X150680953Y-97781429D01*
X150680953Y-98357619D01*
X149685715Y-97624286D02*
X149685715Y-98514762D01*
X149738096Y-98619524D01*
X149790477Y-98671905D01*
X149895238Y-98724286D01*
X150052381Y-98724286D01*
X150157143Y-98671905D01*
X149685715Y-98305238D02*
X149790477Y-98357619D01*
X150000000Y-98357619D01*
X150104762Y-98305238D01*
X150157143Y-98252857D01*
X150209524Y-98148095D01*
X150209524Y-97833810D01*
X150157143Y-97729048D01*
X150104762Y-97676667D01*
X150000000Y-97624286D01*
X149790477Y-97624286D01*
X149685715Y-97676667D01*
X147957144Y-97781429D02*
X147800001Y-97833810D01*
X147747620Y-97886190D01*
X147695239Y-97990952D01*
X147695239Y-98148095D01*
X147747620Y-98252857D01*
X147800001Y-98305238D01*
X147904763Y-98357619D01*
X148323810Y-98357619D01*
X148323810Y-97257619D01*
X147957144Y-97257619D01*
X147852382Y-97310000D01*
X147800001Y-97362381D01*
X147747620Y-97467143D01*
X147747620Y-97571905D01*
X147800001Y-97676667D01*
X147852382Y-97729048D01*
X147957144Y-97781429D01*
X148323810Y-97781429D01*
X147066667Y-98357619D02*
X147171429Y-98305238D01*
X147223810Y-98252857D01*
X147276191Y-98148095D01*
X147276191Y-97833810D01*
X147223810Y-97729048D01*
X147171429Y-97676667D01*
X147066667Y-97624286D01*
X146909525Y-97624286D01*
X146804763Y-97676667D01*
X146752382Y-97729048D01*
X146700001Y-97833810D01*
X146700001Y-98148095D01*
X146752382Y-98252857D01*
X146804763Y-98305238D01*
X146909525Y-98357619D01*
X147066667Y-98357619D01*
X146071429Y-98357619D02*
X146176191Y-98305238D01*
X146228572Y-98252857D01*
X146280953Y-98148095D01*
X146280953Y-97833810D01*
X146228572Y-97729048D01*
X146176191Y-97676667D01*
X146071429Y-97624286D01*
X145914287Y-97624286D01*
X145809525Y-97676667D01*
X145757144Y-97729048D01*
X145704763Y-97833810D01*
X145704763Y-98148095D01*
X145757144Y-98252857D01*
X145809525Y-98305238D01*
X145914287Y-98357619D01*
X146071429Y-98357619D01*
X145390477Y-97624286D02*
X144971429Y-97624286D01*
X145233334Y-97257619D02*
X145233334Y-98200476D01*
X145180953Y-98305238D01*
X145076191Y-98357619D01*
X144971429Y-98357619D01*
X144447620Y-98357619D02*
X144552382Y-98305238D01*
X144604763Y-98200476D01*
X144604763Y-97257619D01*
X143871430Y-98357619D02*
X143976192Y-98305238D01*
X144028573Y-98252857D01*
X144080954Y-98148095D01*
X144080954Y-97833810D01*
X144028573Y-97729048D01*
X143976192Y-97676667D01*
X143871430Y-97624286D01*
X143714288Y-97624286D01*
X143609526Y-97676667D01*
X143557145Y-97729048D01*
X143504764Y-97833810D01*
X143504764Y-98148095D01*
X143557145Y-98252857D01*
X143609526Y-98305238D01*
X143714288Y-98357619D01*
X143871430Y-98357619D01*
X142561907Y-98357619D02*
X142561907Y-97781429D01*
X142614288Y-97676667D01*
X142719050Y-97624286D01*
X142928573Y-97624286D01*
X143033335Y-97676667D01*
X142561907Y-98305238D02*
X142666669Y-98357619D01*
X142928573Y-98357619D01*
X143033335Y-98305238D01*
X143085716Y-98200476D01*
X143085716Y-98095714D01*
X143033335Y-97990952D01*
X142928573Y-97938571D01*
X142666669Y-97938571D01*
X142561907Y-97886190D01*
X141566669Y-98357619D02*
X141566669Y-97257619D01*
X141566669Y-98305238D02*
X141671431Y-98357619D01*
X141880954Y-98357619D01*
X141985716Y-98305238D01*
X142038097Y-98252857D01*
X142090478Y-98148095D01*
X142090478Y-97833810D01*
X142038097Y-97729048D01*
X141985716Y-97676667D01*
X141880954Y-97624286D01*
X141671431Y-97624286D01*
X141566669Y-97676667D01*
X140623812Y-98305238D02*
X140728574Y-98357619D01*
X140938097Y-98357619D01*
X141042859Y-98305238D01*
X141095240Y-98200476D01*
X141095240Y-97781429D01*
X141042859Y-97676667D01*
X140938097Y-97624286D01*
X140728574Y-97624286D01*
X140623812Y-97676667D01*
X140571431Y-97781429D01*
X140571431Y-97886190D01*
X141095240Y-97990952D01*
X140100002Y-98357619D02*
X140100002Y-97624286D01*
X140100002Y-97833810D02*
X140047621Y-97729048D01*
X139995240Y-97676667D01*
X139890478Y-97624286D01*
X139785717Y-97624286D01*
D11*
X157576190Y-119152381D02*
X156957142Y-119152381D01*
X157290476Y-119533333D01*
X157147618Y-119533333D01*
X157052380Y-119580952D01*
X157004761Y-119628571D01*
X156957142Y-119723810D01*
X156957142Y-119961905D01*
X157004761Y-120057143D01*
X157052380Y-120104762D01*
X157147618Y-120152381D01*
X157433333Y-120152381D01*
X157528571Y-120104762D01*
X157576190Y-120057143D01*
X156528571Y-120057143D02*
X156480952Y-120104762D01*
X156528571Y-120152381D01*
X156576190Y-120104762D01*
X156528571Y-120057143D01*
X156528571Y-120152381D01*
X156147619Y-119152381D02*
X155528571Y-119152381D01*
X155861905Y-119533333D01*
X155719047Y-119533333D01*
X155623809Y-119580952D01*
X155576190Y-119628571D01*
X155528571Y-119723810D01*
X155528571Y-119961905D01*
X155576190Y-120057143D01*
X155623809Y-120104762D01*
X155719047Y-120152381D01*
X156004762Y-120152381D01*
X156100000Y-120104762D01*
X156147619Y-120057143D01*
X155242857Y-119152381D02*
X154909524Y-120152381D01*
X154576190Y-119152381D01*
X139404762Y-111147619D02*
X139976191Y-111147619D01*
X139690476Y-110147619D02*
X139690476Y-111147619D01*
X140452381Y-110147619D02*
X140357143Y-110195238D01*
X140309524Y-110242857D01*
X140261905Y-110338095D01*
X140261905Y-110623810D01*
X140309524Y-110719048D01*
X140357143Y-110766667D01*
X140452381Y-110814286D01*
X140595239Y-110814286D01*
X140690477Y-110766667D01*
X140738096Y-110719048D01*
X140785715Y-110623810D01*
X140785715Y-110338095D01*
X140738096Y-110242857D01*
X140690477Y-110195238D01*
X140595239Y-110147619D01*
X140452381Y-110147619D01*
X141214286Y-110814286D02*
X141214286Y-109814286D01*
X141214286Y-110766667D02*
X141309524Y-110814286D01*
X141500001Y-110814286D01*
X141595239Y-110766667D01*
X141642858Y-110719048D01*
X141690477Y-110623810D01*
X141690477Y-110338095D01*
X141642858Y-110242857D01*
X141595239Y-110195238D01*
X141500001Y-110147619D01*
X141309524Y-110147619D01*
X141214286Y-110195238D01*
X143404763Y-111100000D02*
X143309525Y-111147619D01*
X143166668Y-111147619D01*
X143023810Y-111100000D01*
X142928572Y-111004762D01*
X142880953Y-110909524D01*
X142833334Y-110719048D01*
X142833334Y-110576190D01*
X142880953Y-110385714D01*
X142928572Y-110290476D01*
X143023810Y-110195238D01*
X143166668Y-110147619D01*
X143261906Y-110147619D01*
X143404763Y-110195238D01*
X143452382Y-110242857D01*
X143452382Y-110576190D01*
X143261906Y-110576190D01*
X143880953Y-110147619D02*
X143880953Y-111147619D01*
X144452382Y-110147619D01*
X144452382Y-111147619D01*
X144928572Y-110147619D02*
X144928572Y-111147619D01*
X145166667Y-111147619D01*
X145309525Y-111100000D01*
X145404763Y-111004762D01*
X145452382Y-110909524D01*
X145500001Y-110719048D01*
X145500001Y-110576190D01*
X145452382Y-110385714D01*
X145404763Y-110290476D01*
X145309525Y-110195238D01*
X145166667Y-110147619D01*
X144928572Y-110147619D01*
X159090476Y-120952381D02*
X159423810Y-120476190D01*
X159661905Y-120952381D02*
X159661905Y-119952381D01*
X159280952Y-119952381D01*
X159185714Y-120000000D01*
X159138095Y-120047619D01*
X159090476Y-120142857D01*
X159090476Y-120285714D01*
X159138095Y-120380952D01*
X159185714Y-120428571D01*
X159280952Y-120476190D01*
X159661905Y-120476190D01*
X163428571Y-120428571D02*
X163285714Y-120476190D01*
X163238095Y-120523810D01*
X163190476Y-120619048D01*
X163190476Y-120761905D01*
X163238095Y-120857143D01*
X163285714Y-120904762D01*
X163380952Y-120952381D01*
X163761905Y-120952381D01*
X163761905Y-119952381D01*
X163428571Y-119952381D01*
X163333333Y-120000000D01*
X163285714Y-120047619D01*
X163238095Y-120142857D01*
X163238095Y-120238095D01*
X163285714Y-120333333D01*
X163333333Y-120380952D01*
X163428571Y-120428571D01*
X163761905Y-120428571D01*
D13*
X139385715Y-108621429D02*
X139385715Y-107621429D01*
X139028572Y-109192857D02*
X138671429Y-108121429D01*
X139600001Y-108121429D01*
X141200001Y-109121429D02*
X142128572Y-109121429D01*
X141628572Y-108550000D01*
X141842858Y-108550000D01*
X141985715Y-108478571D01*
X142057144Y-108407143D01*
X142128572Y-108264286D01*
X142128572Y-107907143D01*
X142057144Y-107764286D01*
X141985715Y-107692857D01*
X141842858Y-107621429D01*
X141414286Y-107621429D01*
X141271429Y-107692857D01*
X141200001Y-107764286D01*
X147028572Y-107621429D02*
X146171429Y-107621429D01*
X146600001Y-107621429D02*
X146600001Y-109121429D01*
X146457144Y-108907143D01*
X146314286Y-108764286D01*
X146171429Y-108692857D01*
X143871429Y-108978571D02*
X143942858Y-109050000D01*
X144085715Y-109121429D01*
X144442858Y-109121429D01*
X144585715Y-109050000D01*
X144657144Y-108978571D01*
X144728572Y-108835714D01*
X144728572Y-108692857D01*
X144657144Y-108478571D01*
X143800001Y-107621429D01*
X144728572Y-107621429D01*
X146171428Y-120478571D02*
X147028571Y-120478571D01*
X146599999Y-120478571D02*
X146599999Y-118978571D01*
X146742856Y-119192857D01*
X146885714Y-119335714D01*
X147028571Y-119407143D01*
X144528571Y-119121429D02*
X144457142Y-119050000D01*
X144314285Y-118978571D01*
X143957142Y-118978571D01*
X143814285Y-119050000D01*
X143742856Y-119121429D01*
X143671428Y-119264286D01*
X143671428Y-119407143D01*
X143742856Y-119621429D01*
X144599999Y-120478571D01*
X143671428Y-120478571D01*
X142199999Y-118978571D02*
X141271428Y-118978571D01*
X141771428Y-119550000D01*
X141557142Y-119550000D01*
X141414285Y-119621429D01*
X141342856Y-119692857D01*
X141271428Y-119835714D01*
X141271428Y-120192857D01*
X141342856Y-120335714D01*
X141414285Y-120407143D01*
X141557142Y-120478571D01*
X141985714Y-120478571D01*
X142128571Y-120407143D01*
X142199999Y-120335714D01*
X138714285Y-119478571D02*
X138714285Y-120478571D01*
X139071428Y-118907143D02*
X139428571Y-119978571D01*
X138499999Y-119978571D01*
D14*
X137014285Y-124400000D02*
X137128571Y-124342857D01*
X137300000Y-124342857D01*
X137471428Y-124400000D01*
X137585714Y-124514286D01*
X137642857Y-124628571D01*
X137700000Y-124857143D01*
X137700000Y-125028571D01*
X137642857Y-125257143D01*
X137585714Y-125371429D01*
X137471428Y-125485714D01*
X137300000Y-125542857D01*
X137185714Y-125542857D01*
X137014285Y-125485714D01*
X136957142Y-125428571D01*
X136957142Y-125028571D01*
X137185714Y-125028571D01*
X136442857Y-125542857D02*
X136442857Y-124342857D01*
X135757142Y-125542857D01*
X135757142Y-124342857D01*
X135185714Y-125542857D02*
X135185714Y-124342857D01*
X134899999Y-124342857D01*
X134728571Y-124400000D01*
X134614285Y-124514286D01*
X134557142Y-124628571D01*
X134499999Y-124857143D01*
X134499999Y-125028571D01*
X134557142Y-125257143D01*
X134614285Y-125371429D01*
X134728571Y-125485714D01*
X134899999Y-125542857D01*
X135185714Y-125542857D01*
X137728572Y-122885714D02*
X137557143Y-122942857D01*
X137271429Y-122942857D01*
X137157143Y-122885714D01*
X137100000Y-122828571D01*
X137042857Y-122714286D01*
X137042857Y-122600000D01*
X137100000Y-122485714D01*
X137157143Y-122428571D01*
X137271429Y-122371429D01*
X137500000Y-122314286D01*
X137614286Y-122257143D01*
X137671429Y-122200000D01*
X137728572Y-122085714D01*
X137728572Y-121971429D01*
X137671429Y-121857143D01*
X137614286Y-121800000D01*
X137500000Y-121742857D01*
X137214286Y-121742857D01*
X137042857Y-121800000D01*
X136528572Y-122942857D02*
X136528572Y-121742857D01*
X135328571Y-121800000D02*
X135442857Y-121742857D01*
X135614286Y-121742857D01*
X135785714Y-121800000D01*
X135900000Y-121914286D01*
X135957143Y-122028571D01*
X136014286Y-122257143D01*
X136014286Y-122428571D01*
X135957143Y-122657143D01*
X135900000Y-122771429D01*
X135785714Y-122885714D01*
X135614286Y-122942857D01*
X135500000Y-122942857D01*
X135328571Y-122885714D01*
X135271428Y-122828571D01*
X135271428Y-122428571D01*
X135500000Y-122428571D01*
X130914286Y-107371429D02*
X130914286Y-106971429D01*
X131542857Y-106971429D02*
X130342857Y-106971429D01*
X130342857Y-107542858D01*
X131542857Y-108000000D02*
X130742857Y-108000000D01*
X130971429Y-108000000D02*
X130857143Y-108057143D01*
X130800000Y-108114286D01*
X130742857Y-108228572D01*
X130742857Y-108342857D01*
X131542857Y-108914286D02*
X131485714Y-108800000D01*
X131428571Y-108742857D01*
X131314286Y-108685714D01*
X130971429Y-108685714D01*
X130857143Y-108742857D01*
X130800000Y-108800000D01*
X130742857Y-108914286D01*
X130742857Y-109085714D01*
X130800000Y-109200000D01*
X130857143Y-109257143D01*
X130971429Y-109314286D01*
X131314286Y-109314286D01*
X131428571Y-109257143D01*
X131485714Y-109200000D01*
X131542857Y-109085714D01*
X131542857Y-108914286D01*
X130742857Y-109828571D02*
X131542857Y-109828571D01*
X130857143Y-109828571D02*
X130800000Y-109885714D01*
X130742857Y-110000000D01*
X130742857Y-110171428D01*
X130800000Y-110285714D01*
X130914286Y-110342857D01*
X131542857Y-110342857D01*
X130742857Y-110742857D02*
X130742857Y-111200000D01*
X130342857Y-110914285D02*
X131371429Y-110914285D01*
X131485714Y-110971428D01*
X131542857Y-111085714D01*
X131542857Y-111200000D01*
D11*
X160633333Y-91352381D02*
X160633333Y-90352381D01*
X160252380Y-90352381D01*
X160157142Y-90400000D01*
X160109523Y-90447619D01*
X160061904Y-90542857D01*
X160061904Y-90685714D01*
X160109523Y-90780952D01*
X160157142Y-90828571D01*
X160252380Y-90876190D01*
X160633333Y-90876190D01*
X159728571Y-90352381D02*
X159490476Y-91352381D01*
X159299999Y-90638095D01*
X159109523Y-91352381D01*
X158871428Y-90352381D01*
X157919047Y-91352381D02*
X158252381Y-90876190D01*
X158490476Y-91352381D02*
X158490476Y-90352381D01*
X158109523Y-90352381D01*
X158014285Y-90400000D01*
X157966666Y-90447619D01*
X157919047Y-90542857D01*
X157919047Y-90685714D01*
X157966666Y-90780952D01*
X158014285Y-90828571D01*
X158109523Y-90876190D01*
X158490476Y-90876190D01*
D13*
X165207143Y-99350000D02*
X165278571Y-99207143D01*
X165278571Y-98921429D01*
X165207143Y-98778571D01*
X165135714Y-98707143D01*
X164992857Y-98635714D01*
X164564286Y-98635714D01*
X164421429Y-98707143D01*
X164350000Y-98778571D01*
X164278571Y-98921429D01*
X164278571Y-99207143D01*
X164350000Y-99350000D01*
X165278571Y-99992857D02*
X163778571Y-99992857D01*
X164707143Y-100135714D02*
X165278571Y-100564285D01*
X164278571Y-100564285D02*
X164850000Y-99992857D01*
X165278571Y-101850000D02*
X163778571Y-101850000D01*
X165207143Y-101850000D02*
X165278571Y-101707143D01*
X165278571Y-101421429D01*
X165207143Y-101278571D01*
X165135714Y-101207143D01*
X164992857Y-101135714D01*
X164564286Y-101135714D01*
X164421429Y-101207143D01*
X164350000Y-101278571D01*
X164278571Y-101421429D01*
X164278571Y-101707143D01*
X164350000Y-101850000D01*
X165135714Y-102564286D02*
X165207143Y-102635714D01*
X165278571Y-102564286D01*
X165207143Y-102492857D01*
X165135714Y-102564286D01*
X165278571Y-102564286D01*
X164278571Y-103064286D02*
X164278571Y-103635715D01*
X163778571Y-103278572D02*
X165064286Y-103278572D01*
X165207143Y-103350000D01*
X165278571Y-103492858D01*
X165278571Y-103635715D01*
X165207143Y-104707143D02*
X165278571Y-104564286D01*
X165278571Y-104278572D01*
X165207143Y-104135715D01*
X165064286Y-104064286D01*
X164492857Y-104064286D01*
X164350000Y-104135715D01*
X164278571Y-104278572D01*
X164278571Y-104564286D01*
X164350000Y-104707143D01*
X164492857Y-104778572D01*
X164635714Y-104778572D01*
X164778571Y-104064286D01*
X165207143Y-106064286D02*
X165278571Y-105921429D01*
X165278571Y-105635715D01*
X165207143Y-105492857D01*
X165135714Y-105421429D01*
X164992857Y-105350000D01*
X164564286Y-105350000D01*
X164421429Y-105421429D01*
X164350000Y-105492857D01*
X164278571Y-105635715D01*
X164278571Y-105921429D01*
X164350000Y-106064286D01*
X165278571Y-106707143D02*
X163778571Y-106707143D01*
X165278571Y-107350000D02*
X164492857Y-107350000D01*
X164350000Y-107278571D01*
X164278571Y-107135714D01*
X164278571Y-106921429D01*
X164350000Y-106778571D01*
X164421429Y-106707143D01*
X163707143Y-109135714D02*
X165635714Y-107850000D01*
X164278571Y-109421429D02*
X164278571Y-109992858D01*
X165278571Y-109635715D02*
X163992857Y-109635715D01*
X163850000Y-109707143D01*
X163778571Y-109850001D01*
X163778571Y-109992858D01*
X164278571Y-111135715D02*
X165278571Y-111135715D01*
X163707143Y-110778572D02*
X164778571Y-110421429D01*
X164778571Y-111350001D01*
X164278571Y-111707143D02*
X164278571Y-112278572D01*
X165278571Y-111921429D02*
X163992857Y-111921429D01*
X163850000Y-111992857D01*
X163778571Y-112135715D01*
X163778571Y-112278572D01*
X165207143Y-113421429D02*
X165278571Y-113278572D01*
X165278571Y-112992858D01*
X165207143Y-112850000D01*
X165135714Y-112778572D01*
X164992857Y-112707143D01*
X164564286Y-112707143D01*
X164421429Y-112778572D01*
X164350000Y-112850000D01*
X164278571Y-112992858D01*
X164278571Y-113278572D01*
X164350000Y-113421429D01*
X163707143Y-115135714D02*
X165635714Y-113850000D01*
X164278571Y-115492858D02*
X165278571Y-115850001D01*
X164278571Y-116207143D01*
X163778571Y-116635715D02*
X163778571Y-117564286D01*
X164350000Y-117064286D01*
X164350000Y-117278572D01*
X164421429Y-117421429D01*
X164492857Y-117492858D01*
X164635714Y-117564286D01*
X164992857Y-117564286D01*
X165135714Y-117492858D01*
X165207143Y-117421429D01*
X165278571Y-117278572D01*
X165278571Y-116850000D01*
X165207143Y-116707143D01*
X165135714Y-116635715D01*
D11*
X158730000Y-105230000D02*
X160580000Y-105230000D01*
X158730000Y-110750000D02*
X160580000Y-110750000D01*
X159655000Y-109790000D02*
X159655000Y-106190000D01*
X157489300Y-91440000D02*
X155589300Y-91440000D01*
X157489300Y-90340000D02*
X155589300Y-90340000D01*
X156589300Y-90890000D02*
X156139300Y-90890000D01*
X156639300Y-90640000D02*
X156639300Y-91140000D01*
X156639300Y-90890000D02*
X156389300Y-90640000D01*
X156389300Y-90640000D02*
X156389300Y-91140000D01*
X156389300Y-91140000D02*
X156639300Y-90890000D01*
X148250000Y-124900000D02*
X148250000Y-126050000D01*
X148250000Y-126050000D02*
X146700000Y-126050000D01*
X138826000Y-123376000D02*
X138826000Y-123884000D01*
X139334000Y-123376000D02*
X139334000Y-123884000D01*
X141366000Y-123376000D02*
X141366000Y-123884000D01*
X141874000Y-123376000D02*
X141874000Y-123884000D01*
X143906000Y-123376000D02*
X143906000Y-123884000D01*
X144414000Y-123376000D02*
X144414000Y-123884000D01*
X146446000Y-123376000D02*
X146446000Y-123884000D01*
X146954000Y-123376000D02*
X146954000Y-123884000D01*
X146954000Y-120836000D02*
X146954000Y-121344000D01*
X146446000Y-120836000D02*
X146446000Y-121344000D01*
X144414000Y-120836000D02*
X144414000Y-121344000D01*
X143906000Y-120836000D02*
X143906000Y-121344000D01*
X138826000Y-120836000D02*
X138826000Y-121344000D01*
X139334000Y-120836000D02*
X139334000Y-121344000D01*
X141366000Y-120836000D02*
X141366000Y-121344000D01*
X141874000Y-120836000D02*
X141874000Y-121344000D01*
X146827000Y-118296000D02*
X146827000Y-112327000D01*
X146827000Y-112327000D02*
X146573000Y-112327000D01*
X146573000Y-112327000D02*
X146573000Y-118169000D01*
X146573000Y-118169000D02*
X146700000Y-118169000D01*
X146700000Y-118169000D02*
X146700000Y-112327000D01*
X137810000Y-120836000D02*
X137810000Y-118296000D01*
X142890000Y-120836000D02*
X142890000Y-118296000D01*
X142890000Y-120836000D02*
X140350000Y-120836000D01*
X140350000Y-120836000D02*
X140350000Y-118296000D01*
X141874000Y-118296000D02*
X141874000Y-112200000D01*
X141874000Y-112200000D02*
X141366000Y-112200000D01*
X141366000Y-112200000D02*
X141366000Y-118296000D01*
X140350000Y-118296000D02*
X142890000Y-118296000D01*
X137810000Y-118296000D02*
X140350000Y-118296000D01*
X138826000Y-112200000D02*
X138826000Y-118296000D01*
X139334000Y-112200000D02*
X138826000Y-112200000D01*
X139334000Y-118296000D02*
X139334000Y-112200000D01*
X137810000Y-120836000D02*
X137810000Y-118296000D01*
X140350000Y-120836000D02*
X137810000Y-120836000D01*
X140350000Y-120836000D02*
X140350000Y-118296000D01*
X145430000Y-120836000D02*
X145430000Y-118296000D01*
X145430000Y-120836000D02*
X142890000Y-120836000D01*
X142890000Y-120836000D02*
X142890000Y-118296000D01*
X144414000Y-118296000D02*
X144414000Y-112200000D01*
X144414000Y-112200000D02*
X143906000Y-112200000D01*
X143906000Y-112200000D02*
X143906000Y-118296000D01*
X142890000Y-118296000D02*
X145430000Y-118296000D01*
X145430000Y-118296000D02*
X147970000Y-118296000D01*
X146446000Y-112200000D02*
X146446000Y-118296000D01*
X146954000Y-112200000D02*
X146446000Y-112200000D01*
X146954000Y-118296000D02*
X146954000Y-112200000D01*
X145430000Y-120836000D02*
X145430000Y-118296000D01*
X147970000Y-120836000D02*
X145430000Y-120836000D01*
X147970000Y-120836000D02*
X147970000Y-118296000D01*
X146210000Y-103675000D02*
X145210000Y-103675000D01*
X145210000Y-105025000D02*
X146210000Y-105025000D01*
X133450000Y-108965000D02*
X134450000Y-108965000D01*
X134450000Y-107615000D02*
X133450000Y-107615000D01*
X134360000Y-109625000D02*
X133360000Y-109625000D01*
X133360000Y-110975000D02*
X134360000Y-110975000D01*
X156490000Y-93255000D02*
X157490000Y-93255000D01*
X157490000Y-91905000D02*
X156490000Y-91905000D01*
X150850000Y-89950000D02*
X150850000Y-89400000D01*
X150850000Y-89400000D02*
X149150000Y-89400000D01*
X149150000Y-89400000D02*
X149150000Y-89950000D01*
X148250000Y-93050000D02*
X151750000Y-93050000D01*
X151750000Y-89950000D02*
X148250000Y-89950000D01*
X158949160Y-124775240D02*
X158900900Y-124775240D01*
X156150180Y-124074200D02*
X156150180Y-124775240D01*
X156150180Y-124775240D02*
X156399100Y-124775240D01*
X158949160Y-124775240D02*
X159149820Y-124775240D01*
X159149820Y-124775240D02*
X159149820Y-124074200D01*
X152850840Y-123474760D02*
X152899100Y-123474760D01*
X155649820Y-124175800D02*
X155649820Y-123474760D01*
X155649820Y-123474760D02*
X155400900Y-123474760D01*
X152850840Y-123474760D02*
X152650180Y-123474760D01*
X152650180Y-123474760D02*
X152650180Y-124175800D01*
X151974160Y-124775240D02*
X151925900Y-124775240D01*
X149175180Y-124074200D02*
X149175180Y-124775240D01*
X149175180Y-124775240D02*
X149424100Y-124775240D01*
X151974160Y-124775240D02*
X152174820Y-124775240D01*
X152174820Y-124775240D02*
X152174820Y-124074200D01*
X157750240Y-98050840D02*
X157750240Y-98099100D01*
X157049200Y-100849820D02*
X157750240Y-100849820D01*
X157750240Y-100849820D02*
X157750240Y-100600900D01*
X157750240Y-98050840D02*
X157750240Y-97850180D01*
X157750240Y-97850180D02*
X157049200Y-97850180D01*
X132958333Y-120778571D02*
X133291667Y-120778571D01*
X133291667Y-121302381D02*
X133291667Y-120302381D01*
X132815476Y-120302381D01*
X132005952Y-120635714D02*
X132005952Y-121302381D01*
X132244048Y-120254762D02*
X132482143Y-120969048D01*
X131863095Y-120969048D01*
X133708333Y-95353571D02*
X134041667Y-95353571D01*
X134041667Y-95877381D02*
X134041667Y-94877381D01*
X133565476Y-94877381D01*
X132708333Y-94877381D02*
X133184524Y-94877381D01*
X133232143Y-95353571D01*
X133184524Y-95305952D01*
X133089286Y-95258333D01*
X132851190Y-95258333D01*
X132755952Y-95305952D01*
X132708333Y-95353571D01*
X132660714Y-95448810D01*
X132660714Y-95686905D01*
X132708333Y-95782143D01*
X132755952Y-95829762D01*
X132851190Y-95877381D01*
X133089286Y-95877381D01*
X133184524Y-95829762D01*
X133232143Y-95782143D01*
X162808333Y-95403571D02*
X163141667Y-95403571D01*
X163141667Y-95927381D02*
X163141667Y-94927381D01*
X162665476Y-94927381D01*
X161855952Y-94927381D02*
X162046429Y-94927381D01*
X162141667Y-94975000D01*
X162189286Y-95022619D01*
X162284524Y-95165476D01*
X162332143Y-95355952D01*
X162332143Y-95736905D01*
X162284524Y-95832143D01*
X162236905Y-95879762D01*
X162141667Y-95927381D01*
X161951190Y-95927381D01*
X161855952Y-95879762D01*
X161808333Y-95832143D01*
X161760714Y-95736905D01*
X161760714Y-95498810D01*
X161808333Y-95403571D01*
X161855952Y-95355952D01*
X161951190Y-95308333D01*
X162141667Y-95308333D01*
X162236905Y-95355952D01*
X162284524Y-95403571D01*
X162332143Y-95498810D01*
X154838095Y-91352381D02*
X154838095Y-90352381D01*
X154600000Y-90352381D01*
X154457142Y-90400000D01*
X154361904Y-90495238D01*
X154314285Y-90590476D01*
X154266666Y-90780952D01*
X154266666Y-90923810D01*
X154314285Y-91114286D01*
X154361904Y-91209524D01*
X154457142Y-91304762D01*
X154600000Y-91352381D01*
X154838095Y-91352381D01*
X153361904Y-90352381D02*
X153838095Y-90352381D01*
X153885714Y-90828571D01*
X153838095Y-90780952D01*
X153742857Y-90733333D01*
X153504761Y-90733333D01*
X153409523Y-90780952D01*
X153361904Y-90828571D01*
X153314285Y-90923810D01*
X153314285Y-91161905D01*
X153361904Y-91257143D01*
X153409523Y-91304762D01*
X153504761Y-91352381D01*
X153742857Y-91352381D01*
X153838095Y-91304762D01*
X153885714Y-91257143D01*
X145876666Y-106702381D02*
X146210000Y-106226190D01*
X146448095Y-106702381D02*
X146448095Y-105702381D01*
X146067142Y-105702381D01*
X145971904Y-105750000D01*
X145924285Y-105797619D01*
X145876666Y-105892857D01*
X145876666Y-106035714D01*
X145924285Y-106130952D01*
X145971904Y-106178571D01*
X146067142Y-106226190D01*
X146448095Y-106226190D01*
X145019523Y-106035714D02*
X145019523Y-106702381D01*
X145257619Y-105654762D02*
X145495714Y-106369048D01*
X144876666Y-106369048D01*
X134116666Y-106842381D02*
X134450000Y-106366190D01*
X134688095Y-106842381D02*
X134688095Y-105842381D01*
X134307142Y-105842381D01*
X134211904Y-105890000D01*
X134164285Y-105937619D01*
X134116666Y-106032857D01*
X134116666Y-106175714D01*
X134164285Y-106270952D01*
X134211904Y-106318571D01*
X134307142Y-106366190D01*
X134688095Y-106366190D01*
X133259523Y-105842381D02*
X133450000Y-105842381D01*
X133545238Y-105890000D01*
X133592857Y-105937619D01*
X133688095Y-106080476D01*
X133735714Y-106270952D01*
X133735714Y-106651905D01*
X133688095Y-106747143D01*
X133640476Y-106794762D01*
X133545238Y-106842381D01*
X133354761Y-106842381D01*
X133259523Y-106794762D01*
X133211904Y-106747143D01*
X133164285Y-106651905D01*
X133164285Y-106413810D01*
X133211904Y-106318571D01*
X133259523Y-106270952D01*
X133354761Y-106223333D01*
X133545238Y-106223333D01*
X133640476Y-106270952D01*
X133688095Y-106318571D01*
X133735714Y-106413810D01*
X134026666Y-112652381D02*
X134360000Y-112176190D01*
X134598095Y-112652381D02*
X134598095Y-111652381D01*
X134217142Y-111652381D01*
X134121904Y-111700000D01*
X134074285Y-111747619D01*
X134026666Y-111842857D01*
X134026666Y-111985714D01*
X134074285Y-112080952D01*
X134121904Y-112128571D01*
X134217142Y-112176190D01*
X134598095Y-112176190D01*
X133693333Y-111652381D02*
X133026666Y-111652381D01*
X133455238Y-112652381D01*
X157342857Y-94652381D02*
X157676191Y-94176190D01*
X157914286Y-94652381D02*
X157914286Y-93652381D01*
X157533333Y-93652381D01*
X157438095Y-93700000D01*
X157390476Y-93747619D01*
X157342857Y-93842857D01*
X157342857Y-93985714D01*
X157390476Y-94080952D01*
X157438095Y-94128571D01*
X157533333Y-94176190D01*
X157914286Y-94176190D01*
X156390476Y-94652381D02*
X156961905Y-94652381D01*
X156676191Y-94652381D02*
X156676191Y-93652381D01*
X156771429Y-93795238D01*
X156866667Y-93890476D01*
X156961905Y-93938095D01*
X156009524Y-93747619D02*
X155961905Y-93700000D01*
X155866667Y-93652381D01*
X155628571Y-93652381D01*
X155533333Y-93700000D01*
X155485714Y-93747619D01*
X155438095Y-93842857D01*
X155438095Y-93938095D01*
X155485714Y-94080952D01*
X156057143Y-94652381D01*
X155438095Y-94652381D01*
X151333333Y-94404762D02*
X151190476Y-94452381D01*
X150952380Y-94452381D01*
X150857142Y-94404762D01*
X150809523Y-94357143D01*
X150761904Y-94261905D01*
X150761904Y-94166667D01*
X150809523Y-94071429D01*
X150857142Y-94023810D01*
X150952380Y-93976190D01*
X151142857Y-93928571D01*
X151238095Y-93880952D01*
X151285714Y-93833333D01*
X151333333Y-93738095D01*
X151333333Y-93642857D01*
X151285714Y-93547619D01*
X151238095Y-93500000D01*
X151142857Y-93452381D01*
X150904761Y-93452381D01*
X150761904Y-93500000D01*
X150428571Y-93452381D02*
X150190476Y-94452381D01*
X149999999Y-93738095D01*
X149809523Y-94452381D01*
X149571428Y-93452381D01*
X148666666Y-94452381D02*
X149238095Y-94452381D01*
X148952381Y-94452381D02*
X148952381Y-93452381D01*
X149047619Y-93595238D01*
X149142857Y-93690476D01*
X149238095Y-93738095D01*
X158995238Y-122347619D02*
X159090476Y-122300000D01*
X159185714Y-122204762D01*
X159328571Y-122061905D01*
X159423810Y-122014286D01*
X159519048Y-122014286D01*
X159471429Y-122252381D02*
X159566667Y-122204762D01*
X159661905Y-122109524D01*
X159709524Y-121919048D01*
X159709524Y-121585714D01*
X159661905Y-121395238D01*
X159566667Y-121300000D01*
X159471429Y-121252381D01*
X159280952Y-121252381D01*
X159185714Y-121300000D01*
X159090476Y-121395238D01*
X159042857Y-121585714D01*
X159042857Y-121919048D01*
X159090476Y-122109524D01*
X159185714Y-122204762D01*
X159280952Y-122252381D01*
X159471429Y-122252381D01*
X158090476Y-122252381D02*
X158661905Y-122252381D01*
X158376191Y-122252381D02*
X158376191Y-121252381D01*
X158471429Y-121395238D01*
X158566667Y-121490476D01*
X158661905Y-121538095D01*
X154245238Y-122422619D02*
X154340476Y-122375000D01*
X154435714Y-122279762D01*
X154578571Y-122136905D01*
X154673810Y-122089286D01*
X154769048Y-122089286D01*
X154721429Y-122327381D02*
X154816667Y-122279762D01*
X154911905Y-122184524D01*
X154959524Y-121994048D01*
X154959524Y-121660714D01*
X154911905Y-121470238D01*
X154816667Y-121375000D01*
X154721429Y-121327381D01*
X154530952Y-121327381D01*
X154435714Y-121375000D01*
X154340476Y-121470238D01*
X154292857Y-121660714D01*
X154292857Y-121994048D01*
X154340476Y-122184524D01*
X154435714Y-122279762D01*
X154530952Y-122327381D01*
X154721429Y-122327381D01*
X153435714Y-121660714D02*
X153435714Y-122327381D01*
X153673810Y-121279762D02*
X153911905Y-121994048D01*
X153292857Y-121994048D01*
X150895238Y-122447619D02*
X150990476Y-122400000D01*
X151085714Y-122304762D01*
X151228571Y-122161905D01*
X151323810Y-122114286D01*
X151419048Y-122114286D01*
X151371429Y-122352381D02*
X151466667Y-122304762D01*
X151561905Y-122209524D01*
X151609524Y-122019048D01*
X151609524Y-121685714D01*
X151561905Y-121495238D01*
X151466667Y-121400000D01*
X151371429Y-121352381D01*
X151180952Y-121352381D01*
X151085714Y-121400000D01*
X150990476Y-121495238D01*
X150942857Y-121685714D01*
X150942857Y-122019048D01*
X150990476Y-122209524D01*
X151085714Y-122304762D01*
X151180952Y-122352381D01*
X151371429Y-122352381D01*
X150609524Y-121352381D02*
X149990476Y-121352381D01*
X150323810Y-121733333D01*
X150180952Y-121733333D01*
X150085714Y-121780952D01*
X150038095Y-121828571D01*
X149990476Y-121923810D01*
X149990476Y-122161905D01*
X150038095Y-122257143D01*
X150085714Y-122304762D01*
X150180952Y-122352381D01*
X150466667Y-122352381D01*
X150561905Y-122304762D01*
X150609524Y-122257143D01*
X159802381Y-98611905D02*
X158802381Y-98611905D01*
X158802381Y-98850000D01*
X158850000Y-98992858D01*
X158945238Y-99088096D01*
X159040476Y-99135715D01*
X159230952Y-99183334D01*
X159373810Y-99183334D01*
X159564286Y-99135715D01*
X159659524Y-99088096D01*
X159754762Y-98992858D01*
X159802381Y-98850000D01*
X159802381Y-98611905D01*
X159135714Y-100040477D02*
X159802381Y-100040477D01*
X158754762Y-99802381D02*
X159469048Y-99564286D01*
X159469048Y-100183334D01*
M02*
